<?xml version="1.0" encoding="UTF-8" standalone="no"?>
<!DOCTYPE svg PUBLIC "-//W3C//DTD SVG 1.1//EN"
        "http://www.w3.org/Graphics/SVG/1.1/DTD/svg11.dtd">
<!-- Generated by graphviz version 2.40.1 (20161225.0304)
 -->
<!-- Title: code/model/Authentication.cpp Pages: 1 -->
<svg width="536pt" height="247pt"
     viewBox="0.00 0.00 536.23 247.00" xmlns="http://www.w3.org/2000/svg" xmlns:xlink="http://www.w3.org/1999/xlink">
    <g id="graph0" class="graph" transform="scale(1 1) rotate(0) translate(4 243)">
        <title>code/model/Authentication.cpp</title>
        <!-- Node0 -->
        <g id="node1" class="node">
            <title>Node0</title>
            <polygon fill="#bfbfbf" stroke="#000000"
                     points="197.2368,-220.5 197.2368,-238.5 349.9946,-238.5 349.9946,-220.5 197.2368,-220.5"/>
            <text text-anchor="middle" x="273.6157" y="-226.5" font-family="Helvetica,sans-Serif" font-size="10.00"
                  fill="#000000">code/model/Authentication.cpp
            </text>
        </g>
        <!-- Node1 -->
        <g id="node2" class="node">
            <title>Node1</title>
            <g id="a_node2">
                <a xlink:href="../../dc/d00/_authentication_8hpp.html" target="_top" xlink:title="Authentication.hpp">
                    <polygon fill="none" stroke="#000000"
                             points="224.1948,-165.5 224.1948,-183.5 323.0366,-183.5 323.0366,-165.5 224.1948,-165.5"/>
                    <text text-anchor="middle" x="273.6157" y="-171.5" font-family="Helvetica,sans-Serif"
                          font-size="10.00" fill="#000000">Authentication.hpp
                    </text>
                </a>
            </g>
        </g>
        <!-- Node0&#45;&gt;Node1 -->
        <g id="edge1" class="edge">
            <title>Node0&#45;&gt;Node1</title>
            <path fill="none" stroke="#191970"
                  d="M273.6157,-220.4179C273.6157,-213.2164 273.6157,-202.8962 273.6157,-193.8632"/>
            <polygon fill="#191970" stroke="#191970"
                     points="277.1158,-193.7794 273.6157,-183.7795 270.1158,-193.7795 277.1158,-193.7794"/>
        </g>
        <!-- Node2 -->
        <g id="node3" class="node">
            <title>Node2</title>
            <g id="a_node3">
                <a xlink:href="../../d7/d0f/_d_b_master_8hpp.html" target="_top" xlink:title="../DBMaster.hpp">
                    <polygon fill="none" stroke="#000000"
                             points="167.7637,-110.5 167.7637,-128.5 255.4678,-128.5 255.4678,-110.5 167.7637,-110.5"/>
                    <text text-anchor="middle" x="211.6157" y="-116.5" font-family="Helvetica,sans-Serif"
                          font-size="10.00" fill="#000000">../DBMaster.hpp
                    </text>
                </a>
            </g>
        </g>
        <!-- Node1&#45;&gt;Node2 -->
        <g id="edge2" class="edge">
            <title>Node1&#45;&gt;Node2</title>
            <path fill="none" stroke="#191970"
                  d="M263.3777,-165.4179C254.2783,-157.3458 240.762,-145.3556 229.8231,-135.6517"/>
            <polygon fill="#191970" stroke="#191970"
                     points="231.8796,-132.7974 222.0762,-128.7795 227.2343,-138.0339 231.8796,-132.7974"/>
        </g>
        <!-- Node6 -->
        <g id="node7" class="node">
            <title>Node6</title>
            <polygon fill="none" stroke="#bfbfbf" points="0,-.5 0,-18.5 43.2314,-18.5 43.2314,-.5 0,-.5"/>
            <text text-anchor="middle" x="21.6157" y="-6.5" font-family="Helvetica,sans-Serif" font-size="10.00"
                  fill="#000000">vector
            </text>
        </g>
        <!-- Node1&#45;&gt;Node6 -->
        <g id="edge16" class="edge">
            <title>Node1&#45;&gt;Node6</title>
            <path fill="none" stroke="#191970"
                  d="M223.9992,-169.8518C165.8227,-161.495 71.5234,-138.2629 25.6157,-74 16.3529,-61.0336 16.137,-42.601 17.7807,-28.7588"/>
            <polygon fill="#191970" stroke="#191970"
                     points="21.2449,-29.2598 19.3602,-18.8339 14.3319,-28.1595 21.2449,-29.2598"/>
        </g>
        <!-- Node9 -->
        <g id="node10" class="node">
            <title>Node9</title>
            <g id="a_node10">
                <a xlink:href="../../d1/d25/_i_subject_8hpp.html" target="_top"
                   xlink:title="../interfaces/ISubject.hpp">
                    <polygon fill="none" stroke="#000000"
                             points="318.584,-110.5 318.584,-128.5 444.6475,-128.5 444.6475,-110.5 318.584,-110.5"/>
                    <text text-anchor="middle" x="381.6157" y="-116.5" font-family="Helvetica,sans-Serif"
                          font-size="10.00" fill="#000000">../interfaces/ISubject.hpp
                    </text>
                </a>
            </g>
        </g>
        <!-- Node1&#45;&gt;Node9 -->
        <g id="edge11" class="edge">
            <title>Node1&#45;&gt;Node9</title>
            <path fill="none" stroke="#191970"
                  d="M291.4497,-165.4179C308.6464,-156.6603 334.8994,-143.2907 354.65,-133.2326"/>
            <polygon fill="#191970" stroke="#191970"
                     points="356.4325,-136.2526 363.7552,-128.5956 353.2559,-130.0148 356.4325,-136.2526"/>
        </g>
        <!-- Node14 -->
        <g id="node15" class="node">
            <title>Node14</title>
            <polygon fill="none" stroke="#bfbfbf"
                     points="462.7734,-110.5 462.7734,-128.5 500.458,-128.5 500.458,-110.5 462.7734,-110.5"/>
            <text text-anchor="middle" x="481.6157" y="-116.5" font-family="Helvetica,sans-Serif" font-size="10.00"
                  fill="#000000">tuple
            </text>
        </g>
        <!-- Node1&#45;&gt;Node14 -->
        <g id="edge17" class="edge">
            <title>Node1&#45;&gt;Node14</title>
            <path fill="none" stroke="#191970"
                  d="M313.188,-165.4534C347.748,-157.3397 399.4347,-144.6941 453.0317,-129.003"/>
            <polygon fill="#191970" stroke="#191970"
                     points="454.1056,-132.3354 462.7032,-126.1441 452.1212,-125.6225 454.1056,-132.3354"/>
        </g>
        <!-- Node3 -->
        <g id="node4" class="node">
            <title>Node3</title>
            <polygon fill="none" stroke="#bfbfbf"
                     points="49.9927,-55.5 49.9927,-73.5 103.2388,-73.5 103.2388,-55.5 49.9927,-55.5"/>
            <text text-anchor="middle" x="76.6157" y="-61.5" font-family="Helvetica,sans-Serif" font-size="10.00"
                  fill="#000000">sqlite3.h
            </text>
        </g>
        <!-- Node2&#45;&gt;Node3 -->
        <g id="edge3" class="edge">
            <title>Node2&#45;&gt;Node3</title>
            <path fill="none" stroke="#191970"
                  d="M189.3232,-110.4179C167.2411,-101.4215 133.2128,-87.5581 108.3215,-77.4172"/>
            <polygon fill="#191970" stroke="#191970"
                     points="109.5228,-74.1273 98.9413,-73.5956 106.8817,-80.61 109.5228,-74.1273"/>
        </g>
        <!-- Node4 -->
        <g id="node5" class="node">
            <title>Node4</title>
            <polygon fill="none" stroke="#bfbfbf"
                     points="310.3892,-.5 310.3892,-18.5 350.8423,-18.5 350.8423,-.5 310.3892,-.5"/>
            <text text-anchor="middle" x="330.6157" y="-6.5" font-family="Helvetica,sans-Serif" font-size="10.00"
                  fill="#000000">string
            </text>
        </g>
        <!-- Node2&#45;&gt;Node4 -->
        <g id="edge4" class="edge">
            <title>Node2&#45;&gt;Node4</title>
            <path fill="none" stroke="#191970"
                  d="M253.6588,-110.456C287.8161,-102.1554 332.0102,-88.9106 342.6157,-74 352.178,-60.5561 347.0782,-41.6771 340.8467,-27.8171"/>
            <polygon fill="#191970" stroke="#191970"
                     points="343.9158,-26.1295 336.3026,-18.7614 337.6593,-29.269 343.9158,-26.1295"/>
        </g>
        <!-- Node5 -->
        <g id="node6" class="node">
            <title>Node5</title>
            <polygon fill="none" stroke="#bfbfbf"
                     points="275.2144,-55.5 275.2144,-73.5 334.0171,-73.5 334.0171,-55.5 275.2144,-55.5"/>
            <text text-anchor="middle" x="304.6157" y="-61.5" font-family="Helvetica,sans-Serif" font-size="10.00"
                  fill="#000000">stdexcept
            </text>
        </g>
        <!-- Node2&#45;&gt;Node5 -->
        <g id="edge5" class="edge">
            <title>Node2&#45;&gt;Node5</title>
            <path fill="none" stroke="#191970"
                  d="M226.9728,-110.4179C241.5118,-101.8195 263.5683,-88.7754 280.4621,-78.7844"/>
            <polygon fill="#191970" stroke="#191970"
                     points="282.4101,-81.6987 289.2358,-73.5956 278.8468,-75.6735 282.4101,-81.6987"/>
        </g>
        <!-- Node2&#45;&gt;Node6 -->
        <g id="edge6" class="edge">
            <title>Node2&#45;&gt;Node6</title>
            <path fill="none" stroke="#191970"
                  d="M167.4114,-112.7647C122.9728,-105.1382 58.552,-91.4686 40.6157,-74 28.6059,-62.3033 24.0914,-43.4321 22.4421,-29.1166"/>
            <polygon fill="#191970" stroke="#191970"
                     points="25.9078,-28.5363 21.6454,-18.8367 18.9287,-29.0773 25.9078,-28.5363"/>
        </g>
        <!-- Node7 -->
        <g id="node8" class="node">
            <title>Node7</title>
            <g id="a_node8">
                <a xlink:href="../../d3/d1b/_i_serializable_8hpp.html" target="_top"
                   xlink:title="interfaces/ISerializable.hpp">
                    <polygon fill="none" stroke="#000000"
                             points="121.5815,-55.5 121.5815,-73.5 257.6499,-73.5 257.6499,-55.5 121.5815,-55.5"/>
                    <text text-anchor="middle" x="189.6157" y="-61.5" font-family="Helvetica,sans-Serif"
                          font-size="10.00" fill="#000000">interfaces/ISerializable.hpp
                    </text>
                </a>
            </g>
        </g>
        <!-- Node2&#45;&gt;Node7 -->
        <g id="edge7" class="edge">
            <title>Node2&#45;&gt;Node7</title>
            <path fill="none" stroke="#191970"
                  d="M207.9829,-110.4179C205.039,-103.0581 200.7921,-92.441 197.1235,-83.2695"/>
            <polygon fill="#191970" stroke="#191970"
                     points="200.2911,-81.7643 193.3275,-73.7795 193.7918,-84.3641 200.2911,-81.7643"/>
        </g>
        <!-- Node7&#45;&gt;Node4 -->
        <g id="edge8" class="edge">
            <title>Node7&#45;&gt;Node4</title>
            <path fill="none" stroke="#191970"
                  d="M212.899,-55.4179C236.8969,-46.057 274.4034,-31.4268 300.612,-21.2036"/>
            <polygon fill="#191970" stroke="#191970"
                     points="302.0074,-24.4162 310.0518,-17.5214 299.4636,-17.8948 302.0074,-24.4162"/>
        </g>
        <!-- Node7&#45;&gt;Node6 -->
        <g id="edge10" class="edge">
            <title>Node7&#45;&gt;Node6</title>
            <path fill="none" stroke="#191970"
                  d="M161.8739,-55.4179C131.8519,-45.5892 84.0855,-29.9514 52.7878,-19.7051"/>
            <polygon fill="#191970" stroke="#191970"
                     points="53.8409,-16.3672 43.2483,-16.5821 51.6629,-23.0198 53.8409,-16.3672"/>
        </g>
        <!-- Node8 -->
        <g id="node9" class="node">
            <title>Node8</title>
            <polygon fill="none" stroke="#bfbfbf"
                     points="171.8892,-.5 171.8892,-18.5 207.3423,-18.5 207.3423,-.5 171.8892,-.5"/>
            <text text-anchor="middle" x="189.6157" y="-6.5" font-family="Helvetica,sans-Serif" font-size="10.00"
                  fill="#000000">map
            </text>
        </g>
        <!-- Node7&#45;&gt;Node8 -->
        <g id="edge9" class="edge">
            <title>Node7&#45;&gt;Node8</title>
            <path fill="none" stroke="#191970"
                  d="M189.6157,-55.4179C189.6157,-48.2164 189.6157,-37.8962 189.6157,-28.8632"/>
            <polygon fill="#191970" stroke="#191970"
                     points="193.1158,-28.7794 189.6157,-18.7795 186.1158,-28.7795 193.1158,-28.7794"/>
        </g>
        <!-- Node10 -->
        <g id="node11" class="node">
            <title>Node10</title>
            <polygon fill="none" stroke="#bfbfbf"
                     points="389.9458,-55.5 389.9458,-73.5 419.2856,-73.5 419.2856,-55.5 389.9458,-55.5"/>
            <text text-anchor="middle" x="404.6157" y="-61.5" font-family="Helvetica,sans-Serif" font-size="10.00"
                  fill="#000000">set
            </text>
        </g>
        <!-- Node9&#45;&gt;Node10 -->
        <g id="edge12" class="edge">
            <title>Node9&#45;&gt;Node10</title>
            <path fill="none" stroke="#191970"
                  d="M385.4137,-110.4179C388.4914,-103.0581 392.9313,-92.441 396.7667,-83.2695"/>
            <polygon fill="#191970" stroke="#191970"
                     points="400.1061,-84.3556 400.7352,-73.7795 393.6481,-81.6549 400.1061,-84.3556"/>
        </g>
        <!-- Node11 -->
        <g id="node12" class="node">
            <title>Node11</title>
            <g id="a_node12">
                <a xlink:href="../../d5/d40/_i_observer_8hpp.html" target="_top" xlink:title="IObserver.hpp">
                    <polygon fill="none" stroke="#000000"
                             points="437.207,-55.5 437.207,-73.5 516.0244,-73.5 516.0244,-55.5 437.207,-55.5"/>
                    <text text-anchor="middle" x="476.6157" y="-61.5" font-family="Helvetica,sans-Serif"
                          font-size="10.00" fill="#000000">IObserver.hpp
                    </text>
                </a>
            </g>
        </g>
        <!-- Node9&#45;&gt;Node11 -->
        <g id="edge13" class="edge">
            <title>Node9&#45;&gt;Node11</title>
            <path fill="none" stroke="#191970"
                  d="M397.303,-110.4179C412.1547,-101.8195 434.6855,-88.7754 451.9426,-78.7844"/>
            <polygon fill="#191970" stroke="#191970"
                     points="454.0045,-81.635 460.9051,-73.5956 450.4972,-75.577 454.0045,-81.635"/>
        </g>
        <!-- Node12 -->
        <g id="node13" class="node">
            <title>Node12</title>
            <polygon fill="none" stroke="#bfbfbf" points="485,-.5 485,-18.5 528.2314,-18.5 528.2314,-.5 485,-.5"/>
            <text text-anchor="middle" x="506.6157" y="-6.5" font-family="Helvetica,sans-Serif" font-size="10.00"
                  fill="#000000">mutex
            </text>
        </g>
        <!-- Node11&#45;&gt;Node12 -->
        <g id="edge14" class="edge">
            <title>Node11&#45;&gt;Node12</title>
            <path fill="none" stroke="#191970"
                  d="M481.5696,-55.4179C485.6704,-47.8998 491.6251,-36.9829 496.6994,-27.6799"/>
            <polygon fill="#191970" stroke="#191970"
                     points="499.8383,-29.2344 501.5542,-18.7795 493.693,-25.8824 499.8383,-29.2344"/>
        </g>
        <!-- Node13 -->
        <g id="node14" class="node">
            <title>Node13</title>
            <polygon fill="none" stroke="#bfbfbf"
                     points="422.4385,-.5 422.4385,-18.5 466.793,-18.5 466.793,-.5 422.4385,-.5"/>
            <text text-anchor="middle" x="444.6157" y="-6.5" font-family="Helvetica,sans-Serif" font-size="10.00"
                  fill="#000000">thread
            </text>
        </g>
        <!-- Node11&#45;&gt;Node13 -->
        <g id="edge15" class="edge">
            <title>Node11&#45;&gt;Node13</title>
            <path fill="none" stroke="#191970"
                  d="M471.3316,-55.4179C466.9574,-47.8998 460.6058,-36.9829 455.1931,-27.6799"/>
            <polygon fill="#191970" stroke="#191970"
                     points="458.0689,-25.6628 450.0147,-18.7795 452.0184,-29.1831 458.0689,-25.6628"/>
        </g>
    </g>
</svg>
