<?xml version="1.0" encoding="UTF-8" standalone="no"?>
<!DOCTYPE svg PUBLIC "-//W3C//DTD SVG 1.1//EN"
        "http://www.w3.org/Graphics/SVG/1.1/DTD/svg11.dtd">
<!-- Generated by graphviz version 2.40.1 (20161225.0304)
 -->
<!-- Title: code/model/Authentication.cpp Pages: 1 -->
<!--zoomable 247 -->
<svg id="main" version="1.1" xmlns="http://www.w3.org/2000/svg" xmlns:xlink="http://www.w3.org/1999/xlink" xml:space="preserve" onload="initDrugComboBox(evt)">
<style type="text/css"><![CDATA[
.edge:hover path { stroke: red; }
.edge:hover polygon { stroke: red; fill: red; }
]]></style>
<script type="text/javascript"><![CDATA[
var edges = document.getElementsByTagName('g');
if (edges && edges.length) {
  for (var i=0;i<edges.length;i++) {
    if (edges[i].id.substr(0,4)=='edge') {
      edges[i].setAttribute('class','edge');
    }
  }
}
]]></script>
        <defs>
                <circle id="rim" cx="0" cy="0" r="7"/>
                <circle id="rim2" cx="0" cy="0" r="3.5"/>
                <g id="zoomPlus">
                        <use xlink:href="#rim" fill="#404040">
                                <set attributeName="fill" to="#808080" begin="zoomplus.mouseover" end="zoomplus.mouseout"/>
                        </use>
                        <path d="M-4,0h8M0,-4v8" fill="none" stroke="white" stroke-width="1.5" pointer-events="none"/>
                </g>
                <g id="zoomMin">
                        <use xlink:href="#rim" fill="#404040">
                                <set attributeName="fill" to="#808080" begin="zoomminus.mouseover" end="zoomminus.mouseout"/>
                        </use>
                        <path d="M-4,0h8" fill="none" stroke="white" stroke-width="1.5" pointer-events="none"/>
                </g>
                <g id="dirArrow">
                        <path fill="none" stroke="white" stroke-width="1.5" d="M0,-3.0v7 M-2.5,-0.5L0,-3.0L2.5,-0.5"/>
                </g>
               <g id="resetDef">
                       <use xlink:href="#rim2" fill="#404040">
                               <set attributeName="fill" to="#808080" begin="reset.mouseover" end="reset.mouseout"/>
                       </use>
               </g>
        </defs>

<script type="text/javascript">
var viewWidth = 560;
var viewHeight = 247;
var sectionId = 'dynsection-0';
</script>
<script xlink:href="../../svgpan.js"/>
<svg id="graph" class="graph">
<g id="viewport">
<title>code/model/Authentication.cpp</title>
    <!-- Node0 -->
<g id="node1" class="node">
<title>Node0</title>
<polygon fill="#bfbfbf" stroke="#000000" points="311.2441,-220.5 311.2441,-238.5 464.002,-238.5 464.002,-220.5 311.2441,-220.5"/>
<text text-anchor="middle" x="387.623" y="-226.5" font-family="Helvetica,sans-Serif" font-size="10.00" fill="#000000">code/model/Authentication.cpp</text>
</g>
    <!-- Node1 -->
<g id="node2" class="node">
<title>Node1</title>
<g id="a_node2"><a xlink:href="../../dc/d00/_authentication_8hpp.html" target="_top" xlink:title="Authentication.hpp">
<polygon fill="none" stroke="#000000" points="338.2021,-165.5 338.2021,-183.5 437.0439,-183.5 437.0439,-165.5 338.2021,-165.5"/>
<text text-anchor="middle" x="387.623" y="-171.5" font-family="Helvetica,sans-Serif" font-size="10.00" fill="#000000">Authentication.hpp</text>
</a>
</g>
</g>
    <!-- Node0&#45;&gt;Node1 -->
<g id="edge1" class="edge">
<title>Node0&#45;&gt;Node1</title>
<path fill="none" stroke="#191970" d="M387.623,-220.4179C387.623,-213.2164 387.623,-202.8962 387.623,-193.8632"/>
<polygon fill="#191970" stroke="#191970" points="391.1231,-193.7794 387.623,-183.7795 384.1231,-193.7795 391.1231,-193.7794"/>
</g>
    <!-- Node2 -->
<g id="node3" class="node">
<title>Node2</title>
<g id="a_node3"><a xlink:href="../../d7/d0f/_d_b_master_8hpp.html" target="_top" xlink:title="../DBMaster.hpp">
<polygon fill="none" stroke="#000000" points="169.771,-110.5 169.771,-128.5 257.4751,-128.5 257.4751,-110.5 169.771,-110.5"/>
<text text-anchor="middle" x="213.623" y="-116.5" font-family="Helvetica,sans-Serif" font-size="10.00" fill="#000000">../DBMaster.hpp</text>
</a>
</g>
</g>
    <!-- Node1&#45;&gt;Node2 -->
<g id="edge2" class="edge">
<title>Node1&#45;&gt;Node2</title>
<path fill="none" stroke="#191970" d="M358.8905,-165.4179C329.5861,-156.155 283.9585,-141.7325 251.6689,-131.526"/>
<polygon fill="#191970" stroke="#191970" points="252.699,-128.181 242.1091,-128.5042 250.5892,-134.8555 252.699,-128.181"/>
</g>
    <!-- Node6 -->
<g id="node7" class="node">
<title>Node6</title>
<polygon fill="none" stroke="#bfbfbf" points="340.0073,-55.5 340.0073,-73.5 383.2388,-73.5 383.2388,-55.5 340.0073,-55.5"/>
<text text-anchor="middle" x="361.623" y="-61.5" font-family="Helvetica,sans-Serif" font-size="10.00" fill="#000000">vector</text>
</g>
    <!-- Node1&#45;&gt;Node6 -->
<g id="edge15" class="edge">
<title>Node1&#45;&gt;Node6</title>
<path fill="none" stroke="#191970" d="M380.4882,-165.3751C374.1238,-156.6126 365.2659,-142.7175 361.623,-129 357.7106,-114.2675 357.959,-96.9656 359.0494,-83.9923"/>
<polygon fill="#191970" stroke="#191970" points="362.5476,-84.1971 360.1411,-73.8792 355.588,-83.4458 362.5476,-84.1971"/>
</g>
    <!-- Node9 -->
<g id="node10" class="node">
<title>Node9</title>
<g id="a_node10"><a xlink:href="../../d1/d25/_i_subject_8hpp.html" target="_top" xlink:title="../interfaces/ISubject.hpp">
<polygon fill="none" stroke="#000000" points="370.5913,-110.5 370.5913,-128.5 496.6548,-128.5 496.6548,-110.5 370.5913,-110.5"/>
<text text-anchor="middle" x="433.623" y="-116.5" font-family="Helvetica,sans-Serif" font-size="10.00" fill="#000000">../interfaces/ISubject.hpp</text>
</a>
</g>
</g>
    <!-- Node1&#45;&gt;Node9 -->
<g id="edge10" class="edge">
<title>Node1&#45;&gt;Node9</title>
<path fill="none" stroke="#191970" d="M395.219,-165.4179C401.7716,-157.5833 411.4113,-146.0575 419.3934,-136.5137"/>
<polygon fill="#191970" stroke="#191970" points="422.1312,-138.6957 425.862,-128.7795 416.7617,-134.2048 422.1312,-138.6957"/>
</g>
    <!-- Node14 -->
<g id="node15" class="node">
<title>Node14</title>
<polygon fill="none" stroke="#bfbfbf" points="514.7808,-110.5 514.7808,-128.5 552.4653,-128.5 552.4653,-110.5 514.7808,-110.5"/>
<text text-anchor="middle" x="533.623" y="-116.5" font-family="Helvetica,sans-Serif" font-size="10.00" fill="#000000">tuple</text>
</g>
    <!-- Node1&#45;&gt;Node14 -->
<g id="edge16" class="edge">
<title>Node1&#45;&gt;Node14</title>
<path fill="none" stroke="#191970" d="M411.732,-165.4179C437.4116,-155.744 478.0299,-140.4426 505.2372,-130.1933"/>
<polygon fill="#191970" stroke="#191970" points="506.4775,-133.4663 514.6016,-126.6656 504.0097,-126.9156 506.4775,-133.4663"/>
</g>
    <!-- Node3 -->
<g id="node4" class="node">
<title>Node3</title>
<polygon fill="none" stroke="#bfbfbf" points="0,-55.5 0,-73.5 53.2461,-73.5 53.2461,-55.5 0,-55.5"/>
<text text-anchor="middle" x="26.623" y="-61.5" font-family="Helvetica,sans-Serif" font-size="10.00" fill="#000000">sqlite3.h</text>
</g>
    <!-- Node2&#45;&gt;Node3 -->
<g id="edge3" class="edge">
<title>Node2&#45;&gt;Node3</title>
<path fill="none" stroke="#191970" d="M182.7438,-110.4179C149.8868,-100.754 97.9356,-85.4743 63.0885,-75.2251"/>
<polygon fill="#191970" stroke="#191970" points="63.8851,-71.8112 53.3038,-72.3473 61.9099,-78.5268 63.8851,-71.8112"/>
</g>
    <!-- Node4 -->
<g id="node5" class="node">
<title>Node4</title>
<polygon fill="none" stroke="#bfbfbf" points="119.3965,-.5 119.3965,-18.5 159.8496,-18.5 159.8496,-.5 119.3965,-.5"/>
<text text-anchor="middle" x="139.623" y="-6.5" font-family="Helvetica,sans-Serif" font-size="10.00" fill="#000000">string</text>
</g>
    <!-- Node2&#45;&gt;Node4 -->
<g id="edge4" class="edge">
<title>Node2&#45;&gt;Node4</title>
<path fill="none" stroke="#191970" d="M169.63,-113.8413C144.9098,-108.1612 116.0105,-96.7839 100.623,-74 89.6853,-57.8047 104.7818,-38.5543 119.2596,-25.3249"/>
<polygon fill="#191970" stroke="#191970" points="121.7402,-27.8091 127.0699,-18.6524 117.1933,-22.4869 121.7402,-27.8091"/>
</g>
    <!-- Node5 -->
<g id="node6" class="node">
<title>Node5</title>
<polygon fill="none" stroke="#bfbfbf" points="109.2217,-55.5 109.2217,-73.5 168.0244,-73.5 168.0244,-55.5 109.2217,-55.5"/>
<text text-anchor="middle" x="138.623" y="-61.5" font-family="Helvetica,sans-Serif" font-size="10.00" fill="#000000">stdexcept</text>
</g>
    <!-- Node2&#45;&gt;Node5 -->
<g id="edge5" class="edge">
<title>Node2&#45;&gt;Node5</title>
<path fill="none" stroke="#191970" d="M201.2383,-110.4179C189.839,-102.0584 172.7094,-89.4966 159.2466,-79.6239"/>
<polygon fill="#191970" stroke="#191970" points="161.16,-76.6869 151.0262,-73.5956 157.0205,-82.3317 161.16,-76.6869"/>
</g>
    <!-- Node2&#45;&gt;Node6 -->
<g id="edge6" class="edge">
<title>Node2&#45;&gt;Node6</title>
<path fill="none" stroke="#191970" d="M238.0622,-110.4179C263.2162,-101.0701 302.5098,-86.4678 330.0141,-76.2466"/>
<polygon fill="#191970" stroke="#191970" points="331.4114,-79.4612 339.5659,-72.6969 328.973,-72.8997 331.4114,-79.4612"/>
</g>
    <!-- Node7 -->
<g id="node8" class="node">
<title>Node7</title>
<g id="a_node8"><a xlink:href="../../d3/d1b/_i_serializable_8hpp.html" target="_top" xlink:title="interfaces/ISerializable.hpp">
<polygon fill="none" stroke="#000000" points="185.5889,-55.5 185.5889,-73.5 321.6572,-73.5 321.6572,-55.5 185.5889,-55.5"/>
<text text-anchor="middle" x="253.623" y="-61.5" font-family="Helvetica,sans-Serif" font-size="10.00" fill="#000000">interfaces/ISerializable.hpp</text>
</a>
</g>
</g>
    <!-- Node2&#45;&gt;Node7 -->
<g id="edge7" class="edge">
<title>Node2&#45;&gt;Node7</title>
<path fill="none" stroke="#191970" d="M220.2282,-110.4179C225.811,-102.7415 233.9709,-91.5217 240.8271,-82.0945"/>
<polygon fill="#191970" stroke="#191970" points="243.8232,-83.9255 246.8744,-73.7795 238.162,-79.8082 243.8232,-83.9255"/>
</g>
    <!-- Node7&#45;&gt;Node4 -->
<g id="edge8" class="edge">
<title>Node7&#45;&gt;Node4</title>
<path fill="none" stroke="#191970" d="M234.7983,-55.4179C216.4812,-46.5807 188.4301,-33.0473 167.52,-22.9591"/>
<polygon fill="#191970" stroke="#191970" points="169.0033,-19.7887 158.4758,-18.5956 165.9615,-26.0933 169.0033,-19.7887"/>
</g>
    <!-- Node8 -->
<g id="node9" class="node">
<title>Node8</title>
<polygon fill="none" stroke="#bfbfbf" points="235.8965,-.5 235.8965,-18.5 271.3496,-18.5 271.3496,-.5 235.8965,-.5"/>
<text text-anchor="middle" x="253.623" y="-6.5" font-family="Helvetica,sans-Serif" font-size="10.00" fill="#000000">map</text>
</g>
    <!-- Node7&#45;&gt;Node8 -->
<g id="edge9" class="edge">
<title>Node7&#45;&gt;Node8</title>
<path fill="none" stroke="#191970" d="M253.623,-55.4179C253.623,-48.2164 253.623,-37.8962 253.623,-28.8632"/>
<polygon fill="#191970" stroke="#191970" points="257.1231,-28.7794 253.623,-18.7795 250.1231,-28.7795 257.1231,-28.7794"/>
</g>
    <!-- Node10 -->
<g id="node11" class="node">
<title>Node10</title>
<polygon fill="none" stroke="#bfbfbf" points="400.9531,-55.5 400.9531,-73.5 430.293,-73.5 430.293,-55.5 400.9531,-55.5"/>
<text text-anchor="middle" x="415.623" y="-61.5" font-family="Helvetica,sans-Serif" font-size="10.00" fill="#000000">set</text>
</g>
    <!-- Node9&#45;&gt;Node10 -->
<g id="edge11" class="edge">
<title>Node9&#45;&gt;Node10</title>
<path fill="none" stroke="#191970" d="M430.6507,-110.4179C428.268,-103.1372 424.842,-92.669 421.8628,-83.5659"/>
<polygon fill="#191970" stroke="#191970" points="425.0968,-82.1948 418.66,-73.7795 418.444,-84.3721 425.0968,-82.1948"/>
</g>
    <!-- Node11 -->
<g id="node12" class="node">
<title>Node11</title>
<g id="a_node12"><a xlink:href="../../d5/d40/_i_observer_8hpp.html" target="_top" xlink:title="IObserver.hpp">
<polygon fill="none" stroke="#000000" points="448.2144,-55.5 448.2144,-73.5 527.0317,-73.5 527.0317,-55.5 448.2144,-55.5"/>
<text text-anchor="middle" x="487.623" y="-61.5" font-family="Helvetica,sans-Serif" font-size="10.00" fill="#000000">IObserver.hpp</text>
</a>
</g>
</g>
    <!-- Node9&#45;&gt;Node11 -->
<g id="edge12" class="edge">
<title>Node9&#45;&gt;Node11</title>
<path fill="none" stroke="#191970" d="M442.54,-110.4179C450.3876,-102.425 462.0071,-90.5903 471.4842,-80.9377"/>
<polygon fill="#191970" stroke="#191970" points="474.0039,-83.3672 478.5123,-73.7795 469.0089,-78.463 474.0039,-83.3672"/>
</g>
    <!-- Node12 -->
<g id="node13" class="node">
<title>Node12</title>
<polygon fill="none" stroke="#bfbfbf" points="435.0073,-.5 435.0073,-18.5 478.2388,-18.5 478.2388,-.5 435.0073,-.5"/>
<text text-anchor="middle" x="456.623" y="-6.5" font-family="Helvetica,sans-Serif" font-size="10.00" fill="#000000">mutex</text>
</g>
    <!-- Node11&#45;&gt;Node12 -->
<g id="edge13" class="edge">
<title>Node11&#45;&gt;Node12</title>
<path fill="none" stroke="#191970" d="M482.504,-55.4179C478.2666,-47.8998 472.1134,-36.9829 466.8699,-27.6799"/>
<polygon fill="#191970" stroke="#191970" points="469.8125,-25.7724 461.8533,-18.7795 463.7144,-29.2096 469.8125,-25.7724"/>
</g>
    <!-- Node13 -->
<g id="node14" class="node">
<title>Node13</title>
<polygon fill="none" stroke="#bfbfbf" points="496.4458,-.5 496.4458,-18.5 540.8003,-18.5 540.8003,-.5 496.4458,-.5"/>
<text text-anchor="middle" x="518.623" y="-6.5" font-family="Helvetica,sans-Serif" font-size="10.00" fill="#000000">thread</text>
</g>
    <!-- Node11&#45;&gt;Node13 -->
<g id="edge14" class="edge">
<title>Node11&#45;&gt;Node13</title>
<path fill="none" stroke="#191970" d="M492.7421,-55.4179C496.9795,-47.8998 503.1327,-36.9829 508.3762,-27.6799"/>
<polygon fill="#191970" stroke="#191970" points="511.5317,-29.2096 513.3928,-18.7795 505.4336,-25.7724 511.5317,-29.2096"/>
</g>
</g>
</svg>
        <g id="navigator" transform="translate(0 0)" fill="#404254">
                <rect fill="#f2f5e9" fill-opacity="0.5" stroke="#606060" stroke-width=".5" x="0" y="0" width="60" height="60"/>
                <use id="zoomplus" xlink:href="#zoomPlus" x="17" y="9" onmousedown="handleZoom(evt,'in')"/>
                <use id="zoomminus" xlink:href="#zoomMin" x="42" y="9" onmousedown="handleZoom(evt,'out')"/>
                <use id="reset" xlink:href="#resetDef" x="30" y="36" onmousedown="handleReset()"/>
                <g id="arrowUp" xlink:href="#dirArrow" transform="translate(30 24)" onmousedown="handlePan(0,-1)">
                  <use xlink:href="#rim" fill="#404040">
                        <set attributeName="fill" to="#808080" begin="arrowUp.mouseover" end="arrowUp.mouseout"/>
                  </use>
                  <path fill="none" stroke="white" stroke-width="1.5" d="M0,-3.0v7 M-2.5,-0.5L0,-3.0L2.5,-0.5"/>
                </g>
                <g id="arrowRight" xlink:href="#dirArrow" transform="rotate(90) translate(36 -43)" onmousedown="handlePan(1,0)">
                  <use xlink:href="#rim" fill="#404040">
                        <set attributeName="fill" to="#808080" begin="arrowRight.mouseover" end="arrowRight.mouseout"/>
                  </use>
                  <path fill="none" stroke="white" stroke-width="1.5" d="M0,-3.0v7 M-2.5,-0.5L0,-3.0L2.5,-0.5"/>
                </g>
                <g id="arrowDown" xlink:href="#dirArrow" transform="rotate(180) translate(-30 -48)" onmousedown="handlePan(0,1)">
                  <use xlink:href="#rim" fill="#404040">
                        <set attributeName="fill" to="#808080" begin="arrowDown.mouseover" end="arrowDown.mouseout"/>
                  </use>
                  <path fill="none" stroke="white" stroke-width="1.5" d="M0,-3.0v7 M-2.5,-0.5L0,-3.0L2.5,-0.5"/>
                </g>
                <g id="arrowLeft" xlink:href="#dirArrow" transform="rotate(270) translate(-36 17)" onmousedown="handlePan(-1,0)">
                  <use xlink:href="#rim" fill="#404040">
                        <set attributeName="fill" to="#808080" begin="arrowLeft.mouseover" end="arrowLeft.mouseout"/>
                  </use>
                  <path fill="none" stroke="white" stroke-width="1.5" d="M0,-3.0v7 M-2.5,-0.5L0,-3.0L2.5,-0.5"/>
                </g>
        </g>
        <svg viewBox="0 0 15 15" width="100%" height="30px" preserveAspectRatio="xMaxYMin meet">
         <g id="arrow_out" transform="scale(0.3 0.3)">
          <a xlink:href="_authentication_8cpp__incl_org.svg" target="_base">
           <rect id="button" ry="5" rx="5" y="6" x="6" height="38" width="38"
                fill="#f2f5e9" fill-opacity="0.5" stroke="#606060" stroke-width="1.0"/>
           <path id="arrow"
             d="M 11.500037,31.436501 C 11.940474,20.09759 22.043105,11.32322 32.158766,21.979434 L 37.068811,17.246167 C 37.068811,17.246167 37.088388,32 37.088388,32 L 22.160133,31.978069 C 22.160133,31.978069 26.997745,27.140456 26.997745,27.140456 C 18.528582,18.264221 13.291696,25.230495 11.500037,31.436501 z"
             style="fill:#404040;"/>
          </a>
         </g>
        </svg>
</svg>
