<?xml version="1.0" encoding="UTF-8" standalone="no"?>
<!DOCTYPE svg PUBLIC "-//W3C//DTD SVG 1.1//EN"
        "http://www.w3.org/Graphics/SVG/1.1/DTD/svg11.dtd">
<!-- Generated by graphviz version 2.40.1 (20161225.0304)
 -->
<!-- Title: code/interfaces/IObserver.hpp Pages: 1 -->
<svg width="1293pt" height="267pt"
     viewBox="0.00 0.00 1292.50 267.00" xmlns="http://www.w3.org/2000/svg" xmlns:xlink="http://www.w3.org/1999/xlink">
    <g id="graph0" class="graph" transform="scale(1 1) rotate(0) translate(4 263)">
        <title>code/interfaces/IObserver.hpp</title>
        <!-- Node3 -->
        <g id="node1" class="node">
            <title>Node3</title>
            <polygon fill="#bfbfbf" stroke="#000000"
                     points="927.2783,-240.5 927.2783,-258.5 1076.6914,-258.5 1076.6914,-240.5 927.2783,-240.5"/>
            <text text-anchor="middle" x="1001.9849" y="-246.5" font-family="Helvetica,sans-Serif" font-size="10.00"
                  fill="#000000">code/interfaces/IObserver.hpp
            </text>
        </g>
        <!-- Node4 -->
        <g id="node2" class="node">
            <title>Node4</title>
            <g id="a_node2">
                <a xlink:href="../../d1/d25/_i_subject_8hpp.html" target="_top"
                   xlink:title="code/interfaces/ISubject.hpp">
                    <polygon fill="none" stroke="#000000"
                             points="831.8892,-185.5 831.8892,-203.5 974.0806,-203.5 974.0806,-185.5 831.8892,-185.5"/>
                    <text text-anchor="middle" x="902.9849" y="-191.5" font-family="Helvetica,sans-Serif"
                          font-size="10.00" fill="#000000">code/interfaces/ISubject.hpp
                    </text>
                </a>
            </g>
        </g>
        <!-- Node3&#45;&gt;Node4 -->
        <g id="edge1" class="edge">
            <title>Node3&#45;&gt;Node4</title>
            <path fill="none" stroke="#191970"
                  d="M976.7991,-235.5079C958.7587,-225.4854 934.9857,-212.2783 919.357,-203.5956"/>
            <polygon fill="#191970" stroke="#191970"
                     points="975.1957,-238.6209 985.637,-240.4179 978.5952,-232.5018 975.1957,-238.6209"/>
        </g>
        <!-- Node22 -->
        <g id="node20" class="node">
            <title>Node22</title>
            <g id="a_node20">
                <a xlink:href="../../db/d45/_med_h_8hpp.html" target="_top" xlink:title="code/MedH.hpp">
                    <polygon fill="none" stroke="#000000"
                             points="1150.6846,-70.5 1150.6846,-88.5 1237.2852,-88.5 1237.2852,-70.5 1150.6846,-70.5"/>
                    <text text-anchor="middle" x="1193.9849" y="-76.5" font-family="Helvetica,sans-Serif"
                          font-size="10.00" fill="#000000">code/MedH.hpp
                    </text>
                </a>
            </g>
        </g>
        <!-- Node3&#45;&gt;Node22 -->
        <g id="edge36" class="edge">
            <title>Node3&#45;&gt;Node22</title>
            <path fill="none" stroke="#191970"
                  d="M1019.8496,-233.6823C1059.2177,-198.8251 1152.4196,-116.3025 1183.6111,-88.6851"/>
            <polygon fill="#191970" stroke="#191970"
                     points="1017.4744,-231.1105 1012.3076,-240.3601 1022.1148,-236.3514 1017.4744,-231.1105"/>
        </g>
        <!-- Node24 -->
        <g id="node22" class="node">
            <title>Node24</title>
            <g id="a_node22">
                <a xlink:href="../../de/dd9/_i_subject_8cpp.html" target="_top"
                   xlink:title="code/interfaces/ISubject.cpp">
                    <polygon fill="none" stroke="#000000"
                             points="931.1699,-130.5 931.1699,-148.5 1072.7998,-148.5 1072.7998,-130.5 931.1699,-130.5"/>
                    <text text-anchor="middle" x="1001.9849" y="-136.5" font-family="Helvetica,sans-Serif"
                          font-size="10.00" fill="#000000">code/interfaces/ISubject.cpp
                    </text>
                </a>
            </g>
        </g>
        <!-- Node3&#45;&gt;Node24 -->
        <g id="edge35" class="edge">
            <title>Node3&#45;&gt;Node24</title>
            <path fill="none" stroke="#191970"
                  d="M1001.9849,-230.1899C1001.9849,-206.2569 1001.9849,-166.4552 1001.9849,-148.6261"/>
            <polygon fill="#191970" stroke="#191970"
                     points="998.485,-230.4982 1001.9849,-240.4982 1005.485,-230.4983 998.485,-230.4982"/>
        </g>
        <!-- Node5 -->
        <g id="node3" class="node">
            <title>Node5</title>
            <g id="a_node3">
                <a xlink:href="../../dc/de6/_dialog_8hpp.html" target="_top" xlink:title="code/gui/Dialog.hpp">
                    <polygon fill="none" stroke="#000000"
                             points="445.7856,-130.5 445.7856,-148.5 550.1841,-148.5 550.1841,-130.5 445.7856,-130.5"/>
                    <text text-anchor="middle" x="497.9849" y="-136.5" font-family="Helvetica,sans-Serif"
                          font-size="10.00" fill="#000000">code/gui/Dialog.hpp
                    </text>
                </a>
            </g>
        </g>
        <!-- Node4&#45;&gt;Node5 -->
        <g id="edge2" class="edge">
            <title>Node4&#45;&gt;Node5</title>
            <path fill="none" stroke="#191970"
                  d="M826.4439,-184.1056C745.6372,-173.1318 620.4439,-156.1302 550.2599,-146.5991"/>
            <polygon fill="#191970" stroke="#191970"
                     points="826.1808,-187.6019 836.5609,-185.4795 827.1228,-180.6655 826.1808,-187.6019"/>
        </g>
        <!-- Node17 -->
        <g id="node15" class="node">
            <title>Node17</title>
            <g id="a_node15">
                <a xlink:href="../../dc/d00/_authentication_8hpp.html" target="_top"
                   xlink:title="code/model/Authentication.hpp">
                    <polygon fill="none" stroke="#000000"
                             points="826.3252,-70.5 826.3252,-88.5 979.6445,-88.5 979.6445,-70.5 826.3252,-70.5"/>
                    <text text-anchor="middle" x="902.9849" y="-76.5" font-family="Helvetica,sans-Serif"
                          font-size="10.00" fill="#000000">code/model/Authentication.hpp
                    </text>
                </a>
            </g>
        </g>
        <!-- Node4&#45;&gt;Node17 -->
        <g id="edge19" class="edge">
            <title>Node4&#45;&gt;Node17</title>
            <path fill="none" stroke="#191970"
                  d="M902.9849,-175.398C902.9849,-150.4064 902.9849,-107.591 902.9849,-88.8014"/>
            <polygon fill="#191970" stroke="#191970"
                     points="899.485,-175.4761 902.9849,-185.4761 906.485,-175.4762 899.485,-175.4761"/>
        </g>
        <!-- Node20 -->
        <g id="node18" class="node">
            <title>Node20</title>
            <g id="a_node18">
                <a xlink:href="../../de/d0b/_window_8hpp.html" target="_top" xlink:title="code/gui/Window.hpp">
                    <polygon fill="none" stroke="#000000"
                             points="763.4507,-130.5 763.4507,-148.5 874.519,-148.5 874.519,-130.5 763.4507,-130.5"/>
                    <text text-anchor="middle" x="818.9849" y="-136.5" font-family="Helvetica,sans-Serif"
                          font-size="10.00" fill="#000000">code/gui/Window.hpp
                    </text>
                </a>
            </g>
        </g>
        <!-- Node4&#45;&gt;Node20 -->
        <g id="edge25" class="edge">
            <title>Node4&#45;&gt;Node20</title>
            <path fill="none" stroke="#191970"
                  d="M880.3404,-179.6733C865.203,-169.7619 845.7721,-157.0393 832.8764,-148.5956"/>
            <polygon fill="#191970" stroke="#191970"
                     points="878.8305,-182.8681 889.114,-185.4179 882.665,-177.0118 878.8305,-182.8681"/>
        </g>
        <!-- Node4&#45;&gt;Node24 -->
        <g id="edge34" class="edge">
            <title>Node4&#45;&gt;Node24</title>
            <path fill="none" stroke="#191970"
                  d="M928.1706,-180.5079C946.2111,-170.4854 969.984,-157.2783 985.6127,-148.5956"/>
            <polygon fill="#191970" stroke="#191970"
                     points="926.3745,-177.5018 919.3327,-185.4179 929.7741,-183.6209 926.3745,-177.5018"/>
        </g>
        <!-- Node6 -->
        <g id="node4" class="node">
            <title>Node6</title>
            <g id="a_node4">
                <a xlink:href="../../d7/ded/_about_dialog_8hpp.html" target="_top"
                   xlink:title="code/gui/AboutDialog.hpp">
                    <polygon fill="none" stroke="#000000"
                             points="49.7192,-70.5 49.7192,-88.5 180.2505,-88.5 180.2505,-70.5 49.7192,-70.5"/>
                    <text text-anchor="middle" x="114.9849" y="-76.5" font-family="Helvetica,sans-Serif"
                          font-size="10.00" fill="#000000">code/gui/AboutDialog.hpp
                    </text>
                </a>
            </g>
        </g>
        <!-- Node5&#45;&gt;Node6 -->
        <g id="edge3" class="edge">
            <title>Node5&#45;&gt;Node6</title>
            <path fill="none" stroke="#191970"
                  d="M435.5592,-131.1906C373.0481,-122.6624 274.1626,-108.6079 188.9849,-94 179.3075,-92.3403 168.949,-90.4086 159.1391,-88.5066"/>
            <polygon fill="#191970" stroke="#191970"
                     points="435.272,-134.6837 445.6524,-132.5627 436.215,-127.7475 435.272,-134.6837"/>
        </g>
        <!-- Node10 -->
        <g id="node8" class="node">
            <title>Node10</title>
            <g id="a_node8">
                <a xlink:href="../../d2/dac/_add_patient_dialog_8hpp.html" target="_top"
                   xlink:title="code/gui/AddPatientDialog.hpp">
                    <polygon fill="none" stroke="#000000"
                             points="504.3228,-70.5 504.3228,-88.5 657.647,-88.5 657.647,-70.5 504.3228,-70.5"/>
                    <text text-anchor="middle" x="580.9849" y="-76.5" font-family="Helvetica,sans-Serif"
                          font-size="10.00" fill="#000000">code/gui/AddPatientDialog.hpp
                    </text>
                </a>
            </g>
        </g>
        <!-- Node5&#45;&gt;Node10 -->
        <g id="edge7" class="edge">
            <title>Node5&#45;&gt;Node10</title>
            <path fill="none" stroke="#191970"
                  d="M519.1002,-124.2359C534.7237,-112.9418 555.4755,-97.9405 568.5323,-88.5019"/>
            <polygon fill="#191970" stroke="#191970"
                     points="516.6445,-121.6923 510.5908,-130.3873 520.7455,-127.3653 516.6445,-121.6923"/>
        </g>
        <!-- Node12 -->
        <g id="node10" class="node">
            <title>Node12</title>
            <g id="a_node10">
                <a xlink:href="../../d0/d1e/_add_prescription_dialog_8hpp.html" target="_top"
                   xlink:title="code/gui/AddPrescription\lDialog.hpp">
                    <polygon fill="none" stroke="#000000"
                             points="198.3965,-65.5 198.3965,-93.5 325.5732,-93.5 325.5732,-65.5 198.3965,-65.5"/>
                    <text text-anchor="start" x="206.3965" y="-81.5" font-family="Helvetica,sans-Serif"
                          font-size="10.00" fill="#000000">code/gui/AddPrescription
                    </text>
                    <text text-anchor="middle" x="261.9849" y="-71.5" font-family="Helvetica,sans-Serif"
                          font-size="10.00" fill="#000000">Dialog.hpp
                    </text>
                </a>
            </g>
        </g>
        <!-- Node5&#45;&gt;Node12 -->
        <g id="edge10" class="edge">
            <title>Node5&#45;&gt;Node12</title>
            <path fill="none" stroke="#191970"
                  d="M452.4732,-127.9292C413.8588,-118.112 358.3381,-103.9966 317.1912,-93.5355"/>
            <polygon fill="#191970" stroke="#191970"
                     points="451.8436,-131.3805 462.3978,-130.4524 453.5685,-124.5963 451.8436,-131.3805"/>
        </g>
        <!-- Node14 -->
        <g id="node12" class="node">
            <title>Node14</title>
            <g id="a_node12">
                <a xlink:href="../../db/d41/_main_window_8hpp.html" target="_top" xlink:title="code/gui/MainWindow.hpp">
                    <polygon fill="none" stroke="#000000"
                             points="675.6133,-70.5 675.6133,-88.5 808.3564,-88.5 808.3564,-70.5 675.6133,-70.5"/>
                    <text text-anchor="middle" x="741.9849" y="-76.5" font-family="Helvetica,sans-Serif"
                          font-size="10.00" fill="#000000">code/gui/MainWindow.hpp
                    </text>
                </a>
            </g>
        </g>
        <!-- Node5&#45;&gt;Node14 -->
        <g id="edge13" class="edge">
            <title>Node5&#45;&gt;Node14</title>
            <path fill="none" stroke="#191970"
                  d="M544.6581,-128.023C591.4138,-116.5257 662.4206,-99.065 705.2916,-88.5229"/>
            <polygon fill="#191970" stroke="#191970"
                     points="543.6532,-124.6657 534.7783,-130.4524 545.3248,-131.4632 543.6532,-124.6657"/>
        </g>
        <!-- Node16 -->
        <g id="node14" class="node">
            <title>Node16</title>
            <g id="a_node14">
                <a xlink:href="../../dd/de0/_patient_window_8hpp.html" target="_top"
                   xlink:title="code/gui/PatientWindow.hpp">
                    <polygon fill="none" stroke="#000000"
                             points="343.8843,-70.5 343.8843,-88.5 486.0854,-88.5 486.0854,-70.5 343.8843,-70.5"/>
                    <text text-anchor="middle" x="414.9849" y="-76.5" font-family="Helvetica,sans-Serif"
                          font-size="10.00" fill="#000000">code/gui/PatientWindow.hpp
                    </text>
                </a>
            </g>
        </g>
        <!-- Node5&#45;&gt;Node16 -->
        <g id="edge16" class="edge">
            <title>Node5&#45;&gt;Node16</title>
            <path fill="none" stroke="#191970"
                  d="M476.8696,-124.2359C461.246,-112.9418 440.4942,-97.9405 427.4375,-88.5019"/>
            <polygon fill="#191970" stroke="#191970"
                     points="475.2242,-127.3653 485.3789,-130.3873 479.3252,-121.6923 475.2242,-127.3653"/>
        </g>
        <!-- Node7 -->
        <g id="node5" class="node">
            <title>Node7</title>
            <g id="a_node5">
                <a xlink:href="../../d1/d21/_about_dialog_8cpp.html" target="_top"
                   xlink:title="code/gui/AboutDialog.cpp">
                    <polygon fill="none" stroke="#000000" points="0,-5.5 0,-23.5 129.9697,-23.5 129.9697,-5.5 0,-5.5"/>
                    <text text-anchor="middle" x="64.9849" y="-11.5" font-family="Helvetica,sans-Serif"
                          font-size="10.00" fill="#000000">code/gui/AboutDialog.cpp
                    </text>
                </a>
            </g>
        </g>
        <!-- Node6&#45;&gt;Node7 -->
        <g id="edge4" class="edge">
            <title>Node6&#45;&gt;Node7</title>
            <path fill="none" stroke="#191970"
                  d="M101.7646,-62.3137C92.2985,-50.0077 79.9113,-33.9043 72.2019,-23.8821"/>
            <polygon fill="#191970" stroke="#191970"
                     points="99.1612,-64.6698 108.0326,-70.462 104.7096,-60.4018 99.1612,-64.6698"/>
        </g>
        <!-- Node8 -->
        <g id="node6" class="node">
            <title>Node8</title>
            <g id="a_node6">
                <a xlink:href="../../d5/da5/_main_window_8cpp.html" target="_top" xlink:title="code/gui/MainWindow.cpp">
                    <polygon fill="none" stroke="#000000"
                             points="293.894,-5.5 293.894,-23.5 426.0757,-23.5 426.0757,-5.5 293.894,-5.5"/>
                    <text text-anchor="middle" x="359.9849" y="-11.5" font-family="Helvetica,sans-Serif"
                          font-size="10.00" fill="#000000">code/gui/MainWindow.cpp
                    </text>
                </a>
            </g>
        </g>
        <!-- Node6&#45;&gt;Node8 -->
        <g id="edge5" class="edge">
            <title>Node6&#45;&gt;Node8</title>
            <path fill="none" stroke="#191970"
                  d="M158.8137,-67.872C206.6366,-55.1842 282.186,-35.1405 325.814,-23.5658"/>
            <polygon fill="#191970" stroke="#191970"
                     points="157.8191,-64.5146 149.0511,-70.462 159.6142,-71.2806 157.8191,-64.5146"/>
        </g>
        <!-- Node9 -->
        <g id="node7" class="node">
            <title>Node9</title>
            <g id="a_node7">
                <a xlink:href="../../d8/d35/_patient_window_8cpp.html" target="_top"
                   xlink:title="code/gui/PatientWindow.cpp">
                    <polygon fill="none" stroke="#000000"
                             points="444.165,-5.5 444.165,-23.5 585.8047,-23.5 585.8047,-5.5 444.165,-5.5"/>
                    <text text-anchor="middle" x="514.9849" y="-11.5" font-family="Helvetica,sans-Serif"
                          font-size="10.00" fill="#000000">code/gui/PatientWindow.cpp
                    </text>
                </a>
            </g>
        </g>
        <!-- Node6&#45;&gt;Node9 -->
        <g id="edge6" class="edge">
            <title>Node6&#45;&gt;Node9</title>
            <path fill="none" stroke="#191970"
                  d="M169.3991,-68.5281C175.9892,-67.2909 182.6336,-66.0863 188.9849,-65 297.901,-46.3708 325.9393,-46.8559 434.9849,-29 445.2928,-27.3121 456.3261,-25.3884 466.804,-23.5064"/>
            <polygon fill="#191970" stroke="#191970"
                     points="168.3043,-65.1739 159.138,-70.4869 169.6169,-72.0497 168.3043,-65.1739"/>
        </g>
        <!-- Node10&#45;&gt;Node9 -->
        <g id="edge9" class="edge">
            <title>Node10&#45;&gt;Node9</title>
            <path fill="none" stroke="#191970"
                  d="M564.6159,-63.3791C551.9966,-50.9509 534.9841,-34.1962 524.5113,-23.8821"/>
            <polygon fill="#191970" stroke="#191970"
                     points="562.2271,-65.9388 571.8078,-70.462 567.1389,-60.9514 562.2271,-65.9388"/>
        </g>
        <!-- Node11 -->
        <g id="node9" class="node">
            <title>Node11</title>
            <g id="a_node9">
                <a xlink:href="../../db/db5/_add_patient_dialog_8cpp.html" target="_top"
                   xlink:title="code/gui/AddPatientDialog.cpp">
                    <polygon fill="none" stroke="#000000"
                             points="603.6035,-5.5 603.6035,-23.5 756.3662,-23.5 756.3662,-5.5 603.6035,-5.5"/>
                    <text text-anchor="middle" x="679.9849" y="-11.5" font-family="Helvetica,sans-Serif"
                          font-size="10.00" fill="#000000">code/gui/AddPatientDialog.cpp
                    </text>
                </a>
            </g>
        </g>
        <!-- Node10&#45;&gt;Node11 -->
        <g id="edge8" class="edge">
            <title>Node10&#45;&gt;Node11</title>
            <path fill="none" stroke="#191970"
                  d="M603.216,-64.9038C622.4575,-52.2705 649.6899,-34.3906 666.0171,-23.6708"/>
            <polygon fill="#191970" stroke="#191970"
                     points="601.1887,-62.0478 594.7504,-70.462 605.0306,-67.8993 601.1887,-62.0478"/>
        </g>
        <!-- Node12&#45;&gt;Node9 -->
        <g id="edge12" class="edge">
            <title>Node12&#45;&gt;Node9</title>
            <path fill="none" stroke="#191970"
                  d="M326.4095,-62.9482C375.2091,-50.4108 440.3953,-33.6633 479.948,-23.5016"/>
            <polygon fill="#191970" stroke="#191970"
                     points="325.3851,-59.5976 316.5706,-65.476 327.127,-66.3775 325.3851,-59.5976"/>
        </g>
        <!-- Node13 -->
        <g id="node11" class="node">
            <title>Node13</title>
            <g id="a_node11">
                <a xlink:href="../../df/de8/_add_prescription_dialog_8cpp.html" target="_top"
                   xlink:title="code/gui/AddPrescription\lDialog.cpp">
                    <polygon fill="none" stroke="#000000"
                             points="148.3965,-.5 148.3965,-28.5 275.5732,-28.5 275.5732,-.5 148.3965,-.5"/>
                    <text text-anchor="start" x="156.3965" y="-16.5" font-family="Helvetica,sans-Serif"
                          font-size="10.00" fill="#000000">code/gui/AddPrescription
                    </text>
                    <text text-anchor="middle" x="211.9849" y="-6.5" font-family="Helvetica,sans-Serif"
                          font-size="10.00" fill="#000000">Dialog.cpp
                    </text>
                </a>
            </g>
        </g>
        <!-- Node12&#45;&gt;Node13 -->
        <g id="edge11" class="edge">
            <title>Node12&#45;&gt;Node13</title>
            <path fill="none" stroke="#191970"
                  d="M245.0212,-57.4472C237.6761,-47.8986 229.2954,-37.0037 222.8129,-28.5765"/>
            <polygon fill="#191970" stroke="#191970"
                     points="242.2643,-59.6037 251.1356,-65.396 247.8127,-55.3357 242.2643,-59.6037"/>
        </g>
        <!-- Node14&#45;&gt;Node8 -->
        <g id="edge14" class="edge">
            <title>Node14&#45;&gt;Node8</title>
            <path fill="none" stroke="#191970"
                  d="M686.5554,-68.5444C679.9661,-67.3129 673.3297,-66.1052 666.9849,-65 564.1877,-47.0936 537.7821,-46.9064 434.9849,-29 425.3166,-27.3159 414.971,-25.3938 405.1476,-23.5121"/>
            <polygon fill="#191970" stroke="#191970"
                     points="686.3456,-72.0668 696.8222,-70.4879 687.6477,-65.1889 686.3456,-72.0668"/>
        </g>
        <!-- Node15 -->
        <g id="node13" class="node">
            <title>Node15</title>
            <g id="a_node13">
                <a xlink:href="../../d7/daf/_med_h_8cpp.html" target="_top" xlink:title="code/MedH.cpp">
                    <polygon fill="none" stroke="#000000"
                             points="1098.9653,-5.5 1098.9653,-23.5 1185.0044,-23.5 1185.0044,-5.5 1098.9653,-5.5"/>
                    <text text-anchor="middle" x="1141.9849" y="-11.5" font-family="Helvetica,sans-Serif"
                          font-size="10.00" fill="#000000">code/MedH.cpp
                    </text>
                </a>
            </g>
        </g>
        <!-- Node14&#45;&gt;Node15 -->
        <g id="edge15" class="edge">
            <title>Node14&#45;&gt;Node15</title>
            <path fill="none" stroke="#191970"
                  d="M796.373,-68.5913C803.2994,-67.318 810.3009,-66.0875 816.9849,-65 937.3454,-45.4178 969.456,-53.145 1088.9849,-29 1096.3719,-27.5078 1104.2469,-25.5557 1111.6053,-23.5697"/>
            <polygon fill="#191970" stroke="#191970"
                     points="795.508,-65.1924 786.3245,-70.4756 796.7983,-72.0724 795.508,-65.1924"/>
        </g>
        <!-- Node16&#45;&gt;Node8 -->
        <g id="edge17" class="edge">
            <title>Node16&#45;&gt;Node8</title>
            <path fill="none" stroke="#191970"
                  d="M400.745,-62.6711C390.2949,-50.321 376.4863,-34.0016 367.9236,-23.8821"/>
            <polygon fill="#191970" stroke="#191970"
                     points="398.206,-65.089 407.3373,-70.462 403.5498,-60.5673 398.206,-65.089"/>
        </g>
        <!-- Node16&#45;&gt;Node9 -->
        <g id="edge18" class="edge">
            <title>Node16&#45;&gt;Node9</title>
            <path fill="none" stroke="#191970"
                  d="M437.4405,-64.9038C456.8764,-52.2705 484.3839,-34.3906 500.876,-23.6708"/>
            <polygon fill="#191970" stroke="#191970"
                     points="435.3664,-62.0775 428.8894,-70.462 439.1814,-67.9467 435.3664,-62.0775"/>
        </g>
        <!-- Node17&#45;&gt;Node9 -->
        <g id="edge22" class="edge">
            <title>Node17&#45;&gt;Node9</title>
            <path fill="none" stroke="#191970"
                  d="M839.7597,-68.7935C832.088,-67.5081 824.3595,-66.2196 816.9849,-65 718.3688,-48.6907 693.499,-45.914 594.9849,-29 584.9685,-27.2803 574.2582,-25.3809 564.0366,-23.539"/>
            <polygon fill="#191970" stroke="#191970"
                     points="839.3361,-72.2713 849.7776,-70.4754 840.4952,-65.3679 839.3361,-72.2713"/>
        </g>
        <!-- Node17&#45;&gt;Node11 -->
        <g id="edge20" class="edge">
            <title>Node17&#45;&gt;Node11</title>
            <path fill="none" stroke="#191970"
                  d="M862.2692,-67.6322C818.701,-54.933 750.5485,-35.0679 711.0874,-23.5658"/>
            <polygon fill="#191970" stroke="#191970"
                     points="861.3977,-71.0238 871.9777,-70.462 863.3566,-64.3034 861.3977,-71.0238"/>
        </g>
        <!-- Node17&#45;&gt;Node15 -->
        <g id="edge23" class="edge">
            <title>Node17&#45;&gt;Node15</title>
            <path fill="none" stroke="#191970"
                  d="M946.3786,-67.7439C984.0787,-57.5241 1040.1477,-42.3103 1088.9849,-29 1095.4275,-27.2441 1102.3096,-25.3643 1108.909,-23.5597"/>
            <polygon fill="#191970" stroke="#191970"
                     points="944.9896,-64.494 936.2535,-70.4882 946.8209,-71.2502 944.9896,-64.494"/>
        </g>
        <!-- Node18 -->
        <g id="node16" class="node">
            <title>Node18</title>
            <g id="a_node16">
                <a xlink:href="../../d9/d07/_login_window_8cpp.html" target="_top"
                   xlink:title="code/gui/LoginWindow.cpp">
                    <polygon fill="none" stroke="#000000"
                             points="945.4976,-5.5 945.4976,-23.5 1080.4722,-23.5 1080.4722,-5.5 945.4976,-5.5"/>
                    <text text-anchor="middle" x="1012.9849" y="-11.5" font-family="Helvetica,sans-Serif"
                          font-size="10.00" fill="#000000">code/gui/LoginWindow.cpp
                    </text>
                </a>
            </g>
        </g>
        <!-- Node17&#45;&gt;Node18 -->
        <g id="edge21" class="edge">
            <title>Node17&#45;&gt;Node18</title>
            <path fill="none" stroke="#191970"
                  d="M927.1079,-65.2455C948.5169,-52.5947 979.1596,-34.4876 997.4651,-23.6708"/>
            <polygon fill="#191970" stroke="#191970"
                     points="925.1086,-62.3614 918.2799,-70.462 928.6697,-68.3879 925.1086,-62.3614"/>
        </g>
        <!-- Node19 -->
        <g id="node17" class="node">
            <title>Node19</title>
            <g id="a_node17">
                <a xlink:href="../../d6/d6e/_authentication_8cpp.html" target="_top"
                   xlink:title="code/model/Authentication.cpp">
                    <polygon fill="none" stroke="#000000"
                             points="774.606,-5.5 774.606,-23.5 927.3638,-23.5 927.3638,-5.5 774.606,-5.5"/>
                    <text text-anchor="middle" x="850.9849" y="-11.5" font-family="Helvetica,sans-Serif"
                          font-size="10.00" fill="#000000">code/model/Authentication.cpp
                    </text>
                </a>
            </g>
        </g>
        <!-- Node17&#45;&gt;Node19 -->
        <g id="edge24" class="edge">
            <title>Node17&#45;&gt;Node19</title>
            <path fill="none" stroke="#191970"
                  d="M889.2358,-62.3137C879.391,-50.0077 866.5083,-33.9043 858.4906,-23.8821"/>
            <polygon fill="#191970" stroke="#191970"
                     points="886.7745,-64.8398 895.7545,-70.462 892.2405,-60.4669 886.7745,-64.8398"/>
        </g>
        <!-- Node20&#45;&gt;Node14 -->
        <g id="edge29" class="edge">
            <title>Node20&#45;&gt;Node14</title>
            <path fill="none" stroke="#191970"
                  d="M799.396,-124.2359C784.9018,-112.9418 765.6502,-97.9405 753.5373,-88.5019"/>
            <polygon fill="#191970" stroke="#191970"
                     points="797.2509,-127.0016 807.2902,-130.3873 801.5535,-121.4799 797.2509,-127.0016"/>
        </g>
        <!-- Node20&#45;&gt;Node16 -->
        <g id="edge30" class="edge">
            <title>Node20&#45;&gt;Node16</title>
            <path fill="none" stroke="#191970"
                  d="M753.0849,-131.0269C687.5368,-122.4152 584.1516,-108.3358 494.9849,-94 484.6721,-92.342 473.6368,-90.4309 463.1584,-88.5516"/>
            <polygon fill="#191970" stroke="#191970"
                     points="752.9023,-134.5328 763.2722,-132.3613 753.8115,-127.5921 752.9023,-134.5328"/>
        </g>
        <!-- Node21 -->
        <g id="node19" class="node">
            <title>Node21</title>
            <g id="a_node19">
                <a xlink:href="../../db/d18/_login_window_8hpp.html" target="_top"
                   xlink:title="code/gui/LoginWindow.hpp">
                    <polygon fill="none" stroke="#000000"
                             points="997.2168,-70.5 997.2168,-88.5 1132.7529,-88.5 1132.7529,-70.5 997.2168,-70.5"/>
                    <text text-anchor="middle" x="1064.9849" y="-76.5" font-family="Helvetica,sans-Serif"
                          font-size="10.00" fill="#000000">code/gui/LoginWindow.hpp
                    </text>
                </a>
            </g>
        </g>
        <!-- Node20&#45;&gt;Node21 -->
        <g id="edge26" class="edge">
            <title>Node20&#45;&gt;Node21</title>
            <path fill="none" stroke="#191970"
                  d="M866.0406,-128.023C913.1796,-116.5257 984.7684,-99.065 1027.9908,-88.5229"/>
            <polygon fill="#191970" stroke="#191970"
                     points="864.9657,-124.6825 856.0799,-130.4524 866.6245,-131.4831 864.9657,-124.6825"/>
        </g>
        <!-- Node20&#45;&gt;Node22 -->
        <g id="edge31" class="edge">
            <title>Node20&#45;&gt;Node22</title>
            <path fill="none" stroke="#191970"
                  d="M884.7135,-132.8153C950.2917,-125.5434 1053.7175,-112.4394 1141.9849,-94 1149.2324,-92.486 1156.9589,-90.5255 1164.1784,-88.5384"/>
            <polygon fill="#191970" stroke="#191970"
                     points="884.0808,-129.3636 874.5217,-133.9322 884.8435,-136.3219 884.0808,-129.3636"/>
        </g>
        <!-- Node21&#45;&gt;Node15 -->
        <g id="edge28" class="edge">
            <title>Node21&#45;&gt;Node15</title>
            <path fill="none" stroke="#191970"
                  d="M1083.6666,-63.7297C1098.4294,-51.2676 1118.5371,-34.2936 1130.8706,-23.8821"/>
            <polygon fill="#191970" stroke="#191970"
                     points="1081.0751,-61.337 1075.6914,-70.462 1085.5905,-66.686 1081.0751,-61.337"/>
        </g>
        <!-- Node21&#45;&gt;Node18 -->
        <g id="edge27" class="edge">
            <title>Node21&#45;&gt;Node18</title>
            <path fill="none" stroke="#191970"
                  d="M1051.2358,-62.3137C1041.391,-50.0077 1028.5083,-33.9043 1020.4906,-23.8821"/>
            <polygon fill="#191970" stroke="#191970"
                     points="1048.7745,-64.8398 1057.7545,-70.462 1054.2405,-60.4669 1048.7745,-64.8398"/>
        </g>
        <!-- Node22&#45;&gt;Node15 -->
        <g id="edge33" class="edge">
            <title>Node22&#45;&gt;Node15</title>
            <path fill="none" stroke="#191970"
                  d="M1180.2358,-62.3137C1170.391,-50.0077 1157.5083,-33.9043 1149.4906,-23.8821"/>
            <polygon fill="#191970" stroke="#191970"
                     points="1177.7745,-64.8398 1186.7545,-70.462 1183.2405,-60.4669 1177.7745,-64.8398"/>
        </g>
        <!-- Node23 -->
        <g id="node21" class="node">
            <title>Node23</title>
            <g id="a_node21">
                <a xlink:href="../../df/d0a/main_8cpp.html" target="_top" xlink:title="code/main.cpp">
                    <polygon fill="none" stroke="#000000"
                             points="1203.4653,-5.5 1203.4653,-23.5 1284.5044,-23.5 1284.5044,-5.5 1203.4653,-5.5"/>
                    <text text-anchor="middle" x="1243.9849" y="-11.5" font-family="Helvetica,sans-Serif"
                          font-size="10.00" fill="#000000">code/main.cpp
                    </text>
                </a>
            </g>
        </g>
        <!-- Node22&#45;&gt;Node23 -->
        <g id="edge32" class="edge">
            <title>Node22&#45;&gt;Node23</title>
            <path fill="none" stroke="#191970"
                  d="M1207.2051,-62.3137C1216.6712,-50.0077 1229.0584,-33.9043 1236.7678,-23.8821"/>
            <polygon fill="#191970" stroke="#191970"
                     points="1204.2601,-60.4018 1200.9371,-70.462 1209.8085,-64.6698 1204.2601,-60.4018"/>
        </g>
    </g>
</svg>
