<?xml version="1.0" encoding="UTF-8" standalone="no"?>
<!DOCTYPE svg PUBLIC "-//W3C//DTD SVG 1.1//EN"
        "http://www.w3.org/Graphics/SVG/1.1/DTD/svg11.dtd">
<!-- Generated by graphviz version 2.40.1 (20161225.0304)
 -->
<!-- Title: code/interfaces/IObserver.hpp Pages: 1 -->
<!--zoomable 267 -->
<svg id="main" version="1.1" xmlns="http://www.w3.org/2000/svg" xmlns:xlink="http://www.w3.org/1999/xlink" xml:space="preserve" onload="init(evt)">
<style type="text/css"><![CDATA[
.edge:hover path { stroke: red; }
.edge:hover polygon { stroke: red; fill: red; }
]]></style>
<script type="text/javascript"><![CDATA[
var edges = document.getElementsByTagName('g');
if (edges && edges.length) {
  for (var i=0;i<edges.length;i++) {
    if (edges[i].id.substr(0,4)=='edge') {
      edges[i].setAttribute('class','edge');
    }
  }
}
]]></script>
        <defs>
                <circle id="rim" cx="0" cy="0" r="7"/>
                <circle id="rim2" cx="0" cy="0" r="3.5"/>
                <g id="zoomPlus">
                        <use xlink:href="#rim" fill="#404040">
                                <set attributeName="fill" to="#808080" begin="zoomplus.mouseover" end="zoomplus.mouseout"/>
                        </use>
                        <path d="M-4,0h8M0,-4v8" fill="none" stroke="white" stroke-width="1.5" pointer-events="none"/>
                </g>
                <g id="zoomMin">
                        <use xlink:href="#rim" fill="#404040">
                                <set attributeName="fill" to="#808080" begin="zoomminus.mouseover" end="zoomminus.mouseout"/>
                        </use>
                        <path d="M-4,0h8" fill="none" stroke="white" stroke-width="1.5" pointer-events="none"/>
                </g>
                <g id="dirArrow">
                        <path fill="none" stroke="white" stroke-width="1.5" d="M0,-3.0v7 M-2.5,-0.5L0,-3.0L2.5,-0.5"/>
                </g>
               <g id="resetDef">
                       <use xlink:href="#rim2" fill="#404040">
                               <set attributeName="fill" to="#808080" begin="reset.mouseover" end="reset.mouseout"/>
                       </use>
               </g>
        </defs>

<script type="text/javascript">
var viewWidth = 1624;
var viewHeight = 267;
var sectionId = 'dynsection-1';
</script>
<script xlink:href="../../svgpan.js"/>
<svg id="graph" class="graph">
<g id="viewport">
<title>code/interfaces/IObserver.hpp</title>
    <!-- Node3 -->
<g id="node1" class="node">
<title>Node3</title>
<polygon fill="#bfbfbf" stroke="#000000" points="1163.8818,-240.5 1163.8818,-258.5 1313.2949,-258.5 1313.2949,-240.5 1163.8818,-240.5"/>
<text text-anchor="middle" x="1238.5884" y="-246.5" font-family="Helvetica,sans-Serif" font-size="10.00" fill="#000000">code/interfaces/IObserver.hpp</text>
</g>
    <!-- Node4 -->
<g id="node2" class="node">
<title>Node4</title>
<g id="a_node2"><a xlink:href="../../d1/d25/_i_subject_8hpp.html" target="_top" xlink:title="code/interfaces/ISubject.hpp">
<polygon fill="none" stroke="#000000" points="1023.4927,-185.5 1023.4927,-203.5 1165.6841,-203.5 1165.6841,-185.5 1023.4927,-185.5"/>
<text text-anchor="middle" x="1094.5884" y="-191.5" font-family="Helvetica,sans-Serif" font-size="10.00" fill="#000000">code/interfaces/ISubject.hpp</text>
</a>
</g>
</g>
    <!-- Node3&#45;&gt;Node4 -->
<g id="edge1" class="edge">
<title>Node3&#45;&gt;Node4</title>
<path fill="none" stroke="#191970" d="M1205.1604,-236.7324C1178.5892,-226.5837 1142.0736,-212.6367 1118.4024,-203.5956"/>
<polygon fill="#191970" stroke="#191970" points="1204.2191,-240.1194 1214.8097,-240.4179 1206.7167,-233.5801 1204.2191,-240.1194"/>
</g>
    <!-- Node26 -->
<g id="node24" class="node">
<title>Node26</title>
<g id="a_node24"><a xlink:href="../../db/d45/_med_h_8hpp.html" target="_top" xlink:title="code/MedH.hpp">
<polygon fill="none" stroke="#000000" points="1483.2881,-70.5 1483.2881,-88.5 1569.8887,-88.5 1569.8887,-70.5 1483.2881,-70.5"/>
<text text-anchor="middle" x="1526.5884" y="-76.5" font-family="Helvetica,sans-Serif" font-size="10.00" fill="#000000">code/MedH.hpp</text>
</a>
</g>
</g>
    <!-- Node3&#45;&gt;Node26 -->
<g id="edge44" class="edge">
<title>Node3&#45;&gt;Node26</title>
<path fill="none" stroke="#191970" d="M1262.8436,-235.1827C1320.323,-201.2538 1463.5554,-116.707 1511.0277,-88.6851"/>
<polygon fill="#191970" stroke="#191970" points="1260.905,-232.2627 1254.0725,-240.3601 1264.4633,-238.2908 1260.905,-232.2627"/>
</g>
    <!-- Node28 -->
<g id="node26" class="node">
<title>Node28</title>
<g id="a_node26"><a xlink:href="../../de/dd9/_i_subject_8cpp.html" target="_top" xlink:title="code/interfaces/ISubject.cpp">
<polygon fill="none" stroke="#000000" points="1167.7734,-130.5 1167.7734,-148.5 1309.4033,-148.5 1309.4033,-130.5 1167.7734,-130.5"/>
<text text-anchor="middle" x="1238.5884" y="-136.5" font-family="Helvetica,sans-Serif" font-size="10.00" fill="#000000">code/interfaces/ISubject.cpp</text>
</a>
</g>
</g>
    <!-- Node3&#45;&gt;Node28 -->
<g id="edge43" class="edge">
<title>Node3&#45;&gt;Node28</title>
<path fill="none" stroke="#191970" d="M1238.5884,-230.1899C1238.5884,-206.2569 1238.5884,-166.4552 1238.5884,-148.6261"/>
<polygon fill="#191970" stroke="#191970" points="1235.0885,-230.4982 1238.5884,-240.4982 1242.0885,-230.4983 1235.0885,-230.4982"/>
</g>
    <!-- Node5 -->
<g id="node3" class="node">
<title>Node5</title>
<g id="a_node3"><a xlink:href="../../dc/de6/_dialog_8hpp.html" target="_top" xlink:title="code/gui/Dialog.hpp">
<polygon fill="none" stroke="#000000" points="450.3892,-130.5 450.3892,-148.5 554.7876,-148.5 554.7876,-130.5 450.3892,-130.5"/>
<text text-anchor="middle" x="502.5884" y="-136.5" font-family="Helvetica,sans-Serif" font-size="10.00" fill="#000000">code/gui/Dialog.hpp</text>
</a>
</g>
</g>
    <!-- Node4&#45;&gt;Node5 -->
<g id="edge2" class="edge">
<title>Node4&#45;&gt;Node5</title>
<path fill="none" stroke="#191970" d="M1013.3286,-186.9505C889.9461,-175.4876 658.7764,-154.0107 555.1691,-144.385"/>
<polygon fill="#191970" stroke="#191970" points="1013.1927,-190.4529 1023.4736,-187.8931 1013.8403,-183.4829 1013.1927,-190.4529"/>
</g>
    <!-- Node17 -->
<g id="node15" class="node">
<title>Node17</title>
<g id="a_node15"><a xlink:href="../../dc/d00/_authentication_8hpp.html" target="_top" xlink:title="code/model/Authentication.hpp">
<polygon fill="none" stroke="#000000" points="674.9287,-70.5 674.9287,-88.5 828.248,-88.5 828.248,-70.5 674.9287,-70.5"/>
<text text-anchor="middle" x="751.5884" y="-76.5" font-family="Helvetica,sans-Serif" font-size="10.00" fill="#000000">code/model/Authentication.hpp</text>
</a>
</g>
</g>
    <!-- Node4&#45;&gt;Node17 -->
<g id="edge19" class="edge">
<title>Node4&#45;&gt;Node17</title>
<path fill="none" stroke="#191970" d="M1058.0624,-182.2537C988.8729,-159.056 840.1491,-109.1924 778.8526,-88.6411"/>
<polygon fill="#191970" stroke="#191970" points="1057.0798,-185.6157 1067.6737,-185.4761 1059.3051,-178.9788 1057.0798,-185.6157"/>
</g>
    <!-- Node22 -->
<g id="node20" class="node">
<title>Node22</title>
<g id="a_node20"><a xlink:href="../../de/d0b/_window_8hpp.html" target="_top" xlink:title="code/gui/Window.hpp">
<polygon fill="none" stroke="#000000" points="1039.0542,-130.5 1039.0542,-148.5 1150.1226,-148.5 1150.1226,-130.5 1039.0542,-130.5"/>
<text text-anchor="middle" x="1094.5884" y="-136.5" font-family="Helvetica,sans-Serif" font-size="10.00" fill="#000000">code/gui/Window.hpp</text>
</a>
</g>
</g>
    <!-- Node4&#45;&gt;Node22 -->
<g id="edge27" class="edge">
<title>Node4&#45;&gt;Node22</title>
<path fill="none" stroke="#191970" d="M1094.5884,-175.383C1094.5884,-166.3738 1094.5884,-156.0373 1094.5884,-148.7795"/>
<polygon fill="#191970" stroke="#191970" points="1091.0885,-175.4178 1094.5884,-185.4179 1098.0885,-175.4179 1091.0885,-175.4178"/>
</g>
    <!-- Node4&#45;&gt;Node28 -->
<g id="edge42" class="edge">
<title>Node4&#45;&gt;Node28</title>
<path fill="none" stroke="#191970" d="M1128.0163,-181.7324C1154.5875,-171.5837 1191.1032,-157.6367 1214.7744,-148.5956"/>
<polygon fill="#191970" stroke="#191970" points="1126.46,-178.5801 1118.3671,-185.4179 1128.9577,-185.1194 1126.46,-178.5801"/>
</g>
    <!-- Node6 -->
<g id="node4" class="node">
<title>Node6</title>
<g id="a_node4"><a xlink:href="../../d7/ded/_about_dialog_8hpp.html" target="_top" xlink:title="code/gui/AboutDialog.hpp">
<polygon fill="none" stroke="#000000" points="194.3228,-70.5 194.3228,-88.5 324.854,-88.5 324.854,-70.5 194.3228,-70.5"/>
<text text-anchor="middle" x="259.5884" y="-76.5" font-family="Helvetica,sans-Serif" font-size="10.00" fill="#000000">code/gui/AboutDialog.hpp</text>
</a>
</g>
</g>
    <!-- Node5&#45;&gt;Node6 -->
<g id="edge3" class="edge">
<title>Node5&#45;&gt;Node6</title>
<path fill="none" stroke="#191970" d="M456.1065,-128.023C409.5424,-116.5257 338.8266,-99.065 296.1313,-88.5229"/>
<polygon fill="#191970" stroke="#191970" points="455.3983,-131.4532 465.9457,-130.4524 457.0763,-124.6573 455.3983,-131.4532"/>
</g>
    <!-- Node10 -->
<g id="node8" class="node">
<title>Node10</title>
<g id="a_node8"><a xlink:href="../../d2/dac/_add_patient_dialog_8hpp.html" target="_top" xlink:title="code/gui/AddPatientDialog.hpp">
<polygon fill="none" stroke="#000000" points="342.9263,-70.5 342.9263,-88.5 496.2505,-88.5 496.2505,-70.5 342.9263,-70.5"/>
<text text-anchor="middle" x="419.5884" y="-76.5" font-family="Helvetica,sans-Serif" font-size="10.00" fill="#000000">code/gui/AddPatientDialog.hpp</text>
</a>
</g>
</g>
    <!-- Node5&#45;&gt;Node10 -->
<g id="edge7" class="edge">
<title>Node5&#45;&gt;Node10</title>
<path fill="none" stroke="#191970" d="M481.4731,-124.2359C465.8495,-112.9418 445.0977,-97.9405 432.041,-88.5019"/>
<polygon fill="#191970" stroke="#191970" points="479.8278,-127.3653 489.9825,-130.3873 483.9287,-121.6923 479.8278,-127.3653"/>
</g>
    <!-- Node12 -->
<g id="node10" class="node">
<title>Node12</title>
<g id="a_node10"><a xlink:href="../../d0/d1e/_add_prescription_dialog_8hpp.html" target="_top" xlink:title="code/gui/AddPrescription\lDialog.hpp">
<polygon fill="none" stroke="#000000" points="49,-65.5 49,-93.5 176.1768,-93.5 176.1768,-65.5 49,-65.5"/>
<text text-anchor="start" x="57" y="-81.5" font-family="Helvetica,sans-Serif" font-size="10.00" fill="#000000">code/gui/AddPrescription</text>
<text text-anchor="middle" x="112.5884" y="-71.5" font-family="Helvetica,sans-Serif" font-size="10.00" fill="#000000">Dialog.hpp</text>
</a>
</g>
</g>
    <!-- Node5&#45;&gt;Node12 -->
<g id="edge10" class="edge">
<title>Node5&#45;&gt;Node12</title>
<path fill="none" stroke="#191970" d="M440.3493,-131.5678C376.3183,-123.1727 273.7634,-109.074 185.5884,-94 182.5316,-93.4774 179.4064,-92.9254 176.2525,-92.354"/>
<polygon fill="#191970" stroke="#191970" points="439.918,-135.0411 450.287,-132.8655 440.8244,-128.1001 439.918,-135.0411"/>
</g>
    <!-- Node14 -->
<g id="node12" class="node">
<title>Node14</title>
<g id="a_node12"><a xlink:href="../../db/d41/_main_window_8hpp.html" target="_top" xlink:title="code/gui/MainWindow.hpp">
<polygon fill="none" stroke="#000000" points="1028.2168,-70.5 1028.2168,-88.5 1160.96,-88.5 1160.96,-70.5 1028.2168,-70.5"/>
<text text-anchor="middle" x="1094.5884" y="-76.5" font-family="Helvetica,sans-Serif" font-size="10.00" fill="#000000">code/gui/MainWindow.hpp</text>
</a>
</g>
</g>
    <!-- Node5&#45;&gt;Node14 -->
<g id="edge13" class="edge">
<title>Node5&#45;&gt;Node14</title>
<path fill="none" stroke="#191970" d="M565.1564,-136.0835C662.6174,-130.2915 856.442,-116.8876 1019.5884,-94 1030.095,-92.526 1041.3593,-90.5573 1051.8815,-88.5469"/>
<polygon fill="#191970" stroke="#191970" points="564.6702,-132.6059 554.8927,-136.6864 565.0808,-139.5939 564.6702,-132.6059"/>
</g>
    <!-- Node16 -->
<g id="node14" class="node">
<title>Node16</title>
<g id="a_node14"><a xlink:href="../../dd/de0/_patient_window_8hpp.html" target="_top" xlink:title="code/gui/PatientWindow.hpp">
<polygon fill="none" stroke="#000000" points="514.4878,-70.5 514.4878,-88.5 656.689,-88.5 656.689,-70.5 514.4878,-70.5"/>
<text text-anchor="middle" x="585.5884" y="-76.5" font-family="Helvetica,sans-Serif" font-size="10.00" fill="#000000">code/gui/PatientWindow.hpp</text>
</a>
</g>
</g>
    <!-- Node5&#45;&gt;Node16 -->
<g id="edge16" class="edge">
<title>Node5&#45;&gt;Node16</title>
<path fill="none" stroke="#191970" d="M523.7037,-124.2359C539.3272,-112.9418 560.079,-97.9405 573.1358,-88.5019"/>
<polygon fill="#191970" stroke="#191970" points="521.248,-121.6923 515.1943,-130.3873 525.349,-127.3653 521.248,-121.6923"/>
</g>
    <!-- Node7 -->
<g id="node5" class="node">
<title>Node7</title>
<g id="a_node5"><a xlink:href="../../d1/d21/_about_dialog_8cpp.html" target="_top" xlink:title="code/gui/AboutDialog.cpp">
<polygon fill="none" stroke="#000000" points="145.6035,-5.5 145.6035,-23.5 275.5732,-23.5 275.5732,-5.5 145.6035,-5.5"/>
<text text-anchor="middle" x="210.5884" y="-11.5" font-family="Helvetica,sans-Serif" font-size="10.00" fill="#000000">code/gui/AboutDialog.cpp</text>
</a>
</g>
</g>
    <!-- Node6&#45;&gt;Node7 -->
<g id="edge4" class="edge">
<title>Node6&#45;&gt;Node7</title>
<path fill="none" stroke="#191970" d="M246.6326,-62.3137C237.3557,-50.0077 225.2163,-33.9043 217.6611,-23.8821"/>
<polygon fill="#191970" stroke="#191970" points="243.9606,-64.5837 252.7751,-70.462 249.5503,-60.3699 243.9606,-64.5837"/>
</g>
    <!-- Node8 -->
<g id="node6" class="node">
<title>Node8</title>
<g id="a_node6"><a xlink:href="../../d5/da5/_main_window_8cpp.html" target="_top" xlink:title="code/gui/MainWindow.cpp">
<polygon fill="none" stroke="#000000" points="976.4976,-5.5 976.4976,-23.5 1108.6792,-23.5 1108.6792,-5.5 976.4976,-5.5"/>
<text text-anchor="middle" x="1042.5884" y="-11.5" font-family="Helvetica,sans-Serif" font-size="10.00" fill="#000000">code/gui/MainWindow.cpp</text>
</a>
</g>
</g>
    <!-- Node6&#45;&gt;Node8 -->
<g id="edge5" class="edge">
<title>Node6&#45;&gt;Node8</title>
<path fill="none" stroke="#191970" d="M310.5098,-68.5753C318.2151,-67.1973 326.0922,-65.9428 333.5884,-65 613.6142,-29.7826 687.5185,-63.8649 967.5884,-29 978.5115,-27.6402 990.2355,-25.638 1001.0928,-23.5528"/>
<polygon fill="#191970" stroke="#191970" points="309.7122,-65.1637 300.5258,-70.4419 310.9987,-72.0444 309.7122,-65.1637"/>
</g>
    <!-- Node9 -->
<g id="node7" class="node">
<title>Node9</title>
<g id="a_node7"><a xlink:href="../../d8/d35/_patient_window_8cpp.html" target="_top" xlink:title="code/gui/PatientWindow.cpp">
<polygon fill="none" stroke="#000000" points="293.7686,-5.5 293.7686,-23.5 435.4082,-23.5 435.4082,-5.5 293.7686,-5.5"/>
<text text-anchor="middle" x="364.5884" y="-11.5" font-family="Helvetica,sans-Serif" font-size="10.00" fill="#000000">code/gui/PatientWindow.cpp</text>
</a>
</g>
</g>
    <!-- Node6&#45;&gt;Node9 -->
<g id="edge6" class="edge">
<title>Node6&#45;&gt;Node9</title>
<path fill="none" stroke="#191970" d="M282.8903,-65.075C303.3129,-52.4324 332.379,-34.4391 349.7741,-23.6708"/>
<polygon fill="#191970" stroke="#191970" points="280.8486,-62.2225 274.1882,-70.462 284.5331,-68.1744 280.8486,-62.2225"/>
</g>
    <!-- Node10&#45;&gt;Node9 -->
<g id="edge9" class="edge">
<title>Node10&#45;&gt;Node9</title>
<path fill="none" stroke="#191970" d="M405.3485,-62.6711C394.8984,-50.321 381.0898,-34.0016 372.5271,-23.8821"/>
<polygon fill="#191970" stroke="#191970" points="402.8095,-65.089 411.9409,-70.462 408.1533,-60.5673 402.8095,-65.089"/>
</g>
    <!-- Node11 -->
<g id="node9" class="node">
<title>Node11</title>
<g id="a_node9"><a xlink:href="../../db/db5/_add_patient_dialog_8cpp.html" target="_top" xlink:title="code/gui/AddPatientDialog.cpp">
<polygon fill="none" stroke="#000000" points="453.207,-5.5 453.207,-23.5 605.9697,-23.5 605.9697,-5.5 453.207,-5.5"/>
<text text-anchor="middle" x="529.5884" y="-11.5" font-family="Helvetica,sans-Serif" font-size="10.00" fill="#000000">code/gui/AddPatientDialog.cpp</text>
</a>
</g>
</g>
    <!-- Node10&#45;&gt;Node11 -->
<g id="edge8" class="edge">
<title>Node10&#45;&gt;Node11</title>
<path fill="none" stroke="#191970" d="M443.7114,-65.2455C465.1205,-52.5947 495.7631,-34.4876 514.0686,-23.6708"/>
<polygon fill="#191970" stroke="#191970" points="441.7121,-62.3614 434.8834,-70.462 445.2733,-68.3879 441.7121,-62.3614"/>
</g>
    <!-- Node12&#45;&gt;Node9 -->
<g id="edge12" class="edge">
<title>Node12&#45;&gt;Node9</title>
<path fill="none" stroke="#191970" d="M176.7583,-62.9482C225.365,-50.4108 290.2936,-33.6633 329.69,-23.5016"/>
<polygon fill="#191970" stroke="#191970" points="175.7673,-59.5892 166.9584,-65.476 177.5156,-66.3674 175.7673,-59.5892"/>
</g>
    <!-- Node13 -->
<g id="node11" class="node">
<title>Node13</title>
<g id="a_node11"><a xlink:href="../../df/de8/_add_prescription_dialog_8cpp.html" target="_top" xlink:title="code/gui/AddPrescription\lDialog.cpp">
<polygon fill="none" stroke="#000000" points="0,-.5 0,-28.5 127.1768,-28.5 127.1768,-.5 0,-.5"/>
<text text-anchor="start" x="8" y="-16.5" font-family="Helvetica,sans-Serif" font-size="10.00" fill="#000000">code/gui/AddPrescription</text>
<text text-anchor="middle" x="63.5884" y="-6.5" font-family="Helvetica,sans-Serif" font-size="10.00" fill="#000000">Dialog.cpp</text>
</a>
</g>
</g>
    <!-- Node12&#45;&gt;Node13 -->
<g id="edge11" class="edge">
<title>Node12&#45;&gt;Node13</title>
<path fill="none" stroke="#191970" d="M95.7455,-57.1575C88.6001,-47.6788 80.4885,-36.9186 74.1999,-28.5765"/>
<polygon fill="#191970" stroke="#191970" points="93.1416,-59.5176 101.9561,-65.396 98.7313,-55.3038 93.1416,-59.5176"/>
</g>
    <!-- Node14&#45;&gt;Node8 -->
<g id="edge14" class="edge">
<title>Node14&#45;&gt;Node8</title>
<path fill="none" stroke="#191970" d="M1080.8394,-62.3137C1070.9945,-50.0077 1058.1119,-33.9043 1050.0941,-23.8821"/>
<polygon fill="#191970" stroke="#191970" points="1078.378,-64.8398 1087.358,-70.462 1083.8441,-60.4669 1078.378,-64.8398"/>
</g>
    <!-- Node15 -->
<g id="node13" class="node">
<title>Node15</title>
<g id="a_node13"><a xlink:href="../../d7/daf/_med_h_8cpp.html" target="_top" xlink:title="code/MedH.cpp">
<polygon fill="none" stroke="#000000" points="1430.5688,-5.5 1430.5688,-23.5 1516.6079,-23.5 1516.6079,-5.5 1430.5688,-5.5"/>
<text text-anchor="middle" x="1473.5884" y="-11.5" font-family="Helvetica,sans-Serif" font-size="10.00" fill="#000000">code/MedH.cpp</text>
</a>
</g>
</g>
    <!-- Node14&#45;&gt;Node15 -->
<g id="edge15" class="edge">
<title>Node14&#45;&gt;Node15</title>
<path fill="none" stroke="#191970" d="M1149.9944,-68.6257C1156.9201,-67.3559 1163.9125,-66.1169 1170.5884,-65 1281.3067,-46.4762 1310.6825,-51.8556 1420.5884,-29 1427.9668,-27.4656 1435.8385,-25.4974 1443.1964,-23.5092"/>
<polygon fill="#191970" stroke="#191970" points="1149.1305,-65.2263 1139.94,-70.4975 1150.4117,-72.1081 1149.1305,-65.2263"/>
</g>
    <!-- Node16&#45;&gt;Node8 -->
<g id="edge17" class="edge">
<title>Node16&#45;&gt;Node8</title>
<path fill="none" stroke="#191970" d="M642.8332,-68.6901C650.4721,-67.375 658.212,-66.1071 665.5884,-65 799.2637,-44.9372 834.0325,-49.8427 967.5884,-29 977.678,-27.4254 988.4832,-25.4862 998.6608,-23.5442"/>
<polygon fill="#191970" stroke="#191970" points="642.1319,-65.2596 632.8881,-70.4366 643.3428,-72.1541 642.1319,-65.2596"/>
</g>
    <!-- Node16&#45;&gt;Node9 -->
<g id="edge18" class="edge">
<title>Node16&#45;&gt;Node9</title>
<path fill="none" stroke="#191970" d="M545.2378,-67.6322C502.0605,-54.933 434.5192,-35.0679 395.4119,-23.5658"/>
<polygon fill="#191970" stroke="#191970" points="544.278,-70.9981 554.8593,-70.462 546.2532,-64.2825 544.278,-70.9981"/>
</g>
    <!-- Node17&#45;&gt;Node9 -->
<g id="edge23" class="edge">
<title>Node17&#45;&gt;Node9</title>
<path fill="none" stroke="#191970" d="M688.3623,-68.7986C680.6908,-67.5124 672.9626,-66.2223 665.5884,-65 567.411,-48.7272 542.6641,-45.8748 444.5884,-29 434.5726,-27.2767 423.8626,-25.3758 413.6411,-23.5335"/>
<polygon fill="#191970" stroke="#191970" points="687.9384,-72.2764 698.3801,-70.4814 689.0981,-65.3731 687.9384,-72.2764"/>
</g>
    <!-- Node17&#45;&gt;Node11 -->
<g id="edge20" class="edge">
<title>Node17&#45;&gt;Node11</title>
<path fill="none" stroke="#191970" d="M711.0553,-67.6322C667.6825,-54.933 599.8356,-35.0679 560.5514,-23.5658"/>
<polygon fill="#191970" stroke="#191970" points="710.1396,-71.011 720.7202,-70.462 712.1066,-64.293 710.1396,-71.011"/>
</g>
    <!-- Node17&#45;&gt;Node15 -->
<g id="edge25" class="edge">
<title>Node17&#45;&gt;Node15</title>
<path fill="none" stroke="#191970" d="M809.6573,-68.855C818.9746,-67.3936 828.53,-66.0404 837.5884,-65 1095.4975,-35.3782 1164.4824,-71.4769 1420.5884,-29 1428.4936,-27.6889 1436.9173,-25.677 1444.6681,-23.5654"/>
<polygon fill="#191970" stroke="#191970" points="808.986,-65.418 799.6751,-70.4735 810.1064,-72.3278 808.986,-65.418"/>
</g>
    <!-- Node18 -->
<g id="node16" class="node">
<title>Node18</title>
<g id="a_node16"><a xlink:href="../../d6/d9e/_drug_window_8cpp.html" target="_top" xlink:title="code/gui/DrugWindow.cpp">
<polygon fill="none" stroke="#000000" points="1126.4976,-5.5 1126.4976,-23.5 1258.6792,-23.5 1258.6792,-5.5 1126.4976,-5.5"/>
<text text-anchor="middle" x="1192.5884" y="-11.5" font-family="Helvetica,sans-Serif" font-size="10.00" fill="#000000">code/gui/DrugWindow.cpp</text>
</a>
</g>
</g>
    <!-- Node17&#45;&gt;Node18 -->
<g id="edge21" class="edge">
<title>Node17&#45;&gt;Node18</title>
<path fill="none" stroke="#191970" d="M813.2644,-68.8016C821.4363,-67.472 829.7091,-66.1703 837.5884,-65 961.6957,-46.5664 993.7107,-48.9181 1117.5884,-29 1127.5396,-27.4 1138.1925,-25.472 1148.2532,-23.5518"/>
<polygon fill="#191970" stroke="#191970" points="812.6778,-65.351 803.3799,-70.4303 813.816,-72.2578 812.6778,-65.351"/>
</g>
    <!-- Node19 -->
<g id="node17" class="node">
<title>Node19</title>
<g id="a_node17"><a xlink:href="../../d9/d07/_login_window_8cpp.html" target="_top" xlink:title="code/gui/LoginWindow.cpp">
<polygon fill="none" stroke="#000000" points="1277.1011,-5.5 1277.1011,-23.5 1412.0757,-23.5 1412.0757,-5.5 1277.1011,-5.5"/>
<text text-anchor="middle" x="1344.5884" y="-11.5" font-family="Helvetica,sans-Serif" font-size="10.00" fill="#000000">code/gui/LoginWindow.cpp</text>
</a>
</g>
</g>
    <!-- Node17&#45;&gt;Node19 -->
<g id="edge22" class="edge">
<title>Node17&#45;&gt;Node19</title>
<path fill="none" stroke="#191970" d="M810.9884,-68.8206C819.8862,-67.4139 828.9656,-66.0859 837.5884,-65 1027.8651,-41.0367 1077.5492,-54.7792 1267.5884,-29 1278.372,-27.5372 1289.9354,-25.5726 1300.7381,-23.5627"/>
<polygon fill="#191970" stroke="#191970" points="810.3633,-65.3762 801.0536,-70.4338 811.4853,-72.2857 810.3633,-65.3762"/>
</g>
    <!-- Node20 -->
<g id="node18" class="node">
<title>Node20</title>
<g id="a_node18"><a xlink:href="../../d1/d16/_prescription_window_8cpp.html" target="_top" xlink:title="code/gui/PrescriptionWindow.cpp">
<polygon fill="none" stroke="#000000" points="794.936,-5.5 794.936,-23.5 958.2407,-23.5 958.2407,-5.5 794.936,-5.5"/>
<text text-anchor="middle" x="876.5884" y="-11.5" font-family="Helvetica,sans-Serif" font-size="10.00" fill="#000000">code/gui/PrescriptionWindow.cpp</text>
</a>
</g>
</g>
    <!-- Node17&#45;&gt;Node20 -->
<g id="edge24" class="edge">
<title>Node17&#45;&gt;Node20</title>
<path fill="none" stroke="#191970" d="M778.0248,-65.7531C802.3899,-53.0832 837.8708,-34.6332 858.9523,-23.6708"/>
<polygon fill="#191970" stroke="#191970" points="776.2265,-62.7432 768.9691,-70.462 779.456,-68.9537 776.2265,-62.7432"/>
</g>
    <!-- Node21 -->
<g id="node19" class="node">
<title>Node21</title>
<g id="a_node19"><a xlink:href="../../d6/d6e/_authentication_8cpp.html" target="_top" xlink:title="code/model/Authentication.cpp">
<polygon fill="none" stroke="#000000" points="624.2095,-5.5 624.2095,-23.5 776.9673,-23.5 776.9673,-5.5 624.2095,-5.5"/>
<text text-anchor="middle" x="700.5884" y="-11.5" font-family="Helvetica,sans-Serif" font-size="10.00" fill="#000000">code/model/Authentication.cpp</text>
</a>
</g>
</g>
    <!-- Node17&#45;&gt;Node21 -->
<g id="edge26" class="edge">
<title>Node17&#45;&gt;Node21</title>
<path fill="none" stroke="#191970" d="M738.1038,-62.3137C728.4483,-50.0077 715.8133,-33.9043 707.9498,-23.8821"/>
<polygon fill="#191970" stroke="#191970" points="735.5706,-64.7551 744.497,-70.462 741.0777,-60.4341 735.5706,-64.7551"/>
</g>
    <!-- Node22&#45;&gt;Node14 -->
<g id="edge34" class="edge">
<title>Node22&#45;&gt;Node14</title>
<path fill="none" stroke="#191970" d="M1094.5884,-120.3734C1094.5884,-109.7812 1094.5884,-97.0976 1094.5884,-88.6985"/>
<polygon fill="#191970" stroke="#191970" points="1091.0885,-120.3873 1094.5884,-130.3873 1098.0885,-120.3873 1091.0885,-120.3873"/>
</g>
    <!-- Node22&#45;&gt;Node16 -->
<g id="edge38" class="edge">
<title>Node22&#45;&gt;Node16</title>
<path fill="none" stroke="#191970" d="M1028.6872,-134.0288C944.3109,-126.6757 793.6935,-112.3775 665.5884,-94 654.6901,-92.4366 643.0062,-90.4798 632.0272,-88.5144"/>
<polygon fill="#191970" stroke="#191970" points="1028.6281,-137.5367 1038.8928,-134.9124 1029.232,-130.5628 1028.6281,-137.5367"/>
</g>
    <!-- Node23 -->
<g id="node21" class="node">
<title>Node23</title>
<g id="a_node21"><a xlink:href="../../dd/d02/_drug_window_8hpp.html" target="_top" xlink:title="code/gui/DrugWindow.hpp">
<polygon fill="none" stroke="#000000" points="1179.2168,-70.5 1179.2168,-88.5 1311.96,-88.5 1311.96,-70.5 1179.2168,-70.5"/>
<text text-anchor="middle" x="1245.5884" y="-76.5" font-family="Helvetica,sans-Serif" font-size="10.00" fill="#000000">code/gui/DrugWindow.hpp</text>
</a>
</g>
</g>
    <!-- Node22&#45;&gt;Node23 -->
<g id="edge28" class="edge">
<title>Node22&#45;&gt;Node23</title>
<path fill="none" stroke="#191970" d="M1127.1716,-126.553C1156.0652,-115.0721 1197.5148,-98.6021 1222.9337,-88.5019"/>
<polygon fill="#191970" stroke="#191970" points="1125.5228,-123.4419 1117.522,-130.3873 1128.1077,-129.9472 1125.5228,-123.4419"/>
</g>
    <!-- Node24 -->
<g id="node22" class="node">
<title>Node24</title>
<g id="a_node22"><a xlink:href="../../db/d18/_login_window_8hpp.html" target="_top" xlink:title="code/gui/LoginWindow.hpp">
<polygon fill="none" stroke="#000000" points="1329.8203,-70.5 1329.8203,-88.5 1465.3564,-88.5 1465.3564,-70.5 1329.8203,-70.5"/>
<text text-anchor="middle" x="1397.5884" y="-76.5" font-family="Helvetica,sans-Serif" font-size="10.00" fill="#000000">code/gui/LoginWindow.hpp</text>
</a>
</g>
</g>
    <!-- Node22&#45;&gt;Node24 -->
<g id="edge31" class="edge">
<title>Node22&#45;&gt;Node24</title>
<path fill="none" stroke="#191970" d="M1150.3707,-128.454C1208.3849,-116.966 1298.1155,-99.1976 1352.0226,-88.5229"/>
<polygon fill="#191970" stroke="#191970" points="1149.4082,-125.0765 1140.2786,-130.4524 1150.768,-131.9432 1149.4082,-125.0765"/>
</g>
    <!-- Node25 -->
<g id="node23" class="node">
<title>Node25</title>
<g id="a_node23"><a xlink:href="../../d5/db1/_prescription_window_8hpp.html" target="_top" xlink:title="code/gui/PrescriptionWindow.hpp">
<polygon fill="none" stroke="#000000" points="846.6553,-70.5 846.6553,-88.5 1010.5215,-88.5 1010.5215,-70.5 846.6553,-70.5"/>
<text text-anchor="middle" x="928.5884" y="-76.5" font-family="Helvetica,sans-Serif" font-size="10.00" fill="#000000">code/gui/PrescriptionWindow.hpp</text>
</a>
</g>
</g>
    <!-- Node22&#45;&gt;Node25 -->
<g id="edge35" class="edge">
<title>Node22&#45;&gt;Node25</title>
<path fill="none" stroke="#191970" d="M1059.5975,-126.8527C1027.8018,-115.3603 981.6815,-98.6903 953.4936,-88.5019"/>
<polygon fill="#191970" stroke="#191970" points="1058.7823,-130.2796 1069.3766,-130.3873 1061.1618,-123.6964 1058.7823,-130.2796"/>
</g>
    <!-- Node22&#45;&gt;Node26 -->
<g id="edge39" class="edge">
<title>Node22&#45;&gt;Node26</title>
<path fill="none" stroke="#191970" d="M1160.6687,-129.7758C1300.5366,-112.0429 1339.1031,-120.4342 1474.5884,-94 1482.0394,-92.5463 1489.9811,-90.5608 1497.3572,-88.5257"/>
<polygon fill="#191970" stroke="#191970" points="1159.8901,-126.3471 1150.4204,-131.0985 1160.7862,-133.2896 1159.8901,-126.3471"/>
</g>
    <!-- Node23&#45;&gt;Node8 -->
<g id="edge30" class="edge">
<title>Node23&#45;&gt;Node8</title>
<path fill="none" stroke="#191970" d="M1207.7702,-67.3907C1168.081,-54.6824 1106.5966,-34.9952 1070.9014,-23.5658"/>
<polygon fill="#191970" stroke="#191970" points="1206.7711,-70.7458 1217.3621,-70.462 1208.9057,-64.0792 1206.7711,-70.7458"/>
</g>
    <!-- Node23&#45;&gt;Node18 -->
<g id="edge29" class="edge">
<title>Node23&#45;&gt;Node18</title>
<path fill="none" stroke="#191970" d="M1231.8663,-62.6711C1221.7962,-50.321 1208.4897,-34.0016 1200.2384,-23.8821"/>
<polygon fill="#191970" stroke="#191970" points="1229.187,-64.9236 1238.219,-70.462 1234.6121,-60.5 1229.187,-64.9236"/>
</g>
    <!-- Node24&#45;&gt;Node15 -->
<g id="edge33" class="edge">
<title>Node24&#45;&gt;Node15</title>
<path fill="none" stroke="#191970" d="M1416.0275,-63.7297C1430.5985,-51.2676 1450.4452,-34.2936 1462.6185,-23.8821"/>
<polygon fill="#191970" stroke="#191970" points="1413.4806,-61.3024 1408.1559,-70.462 1418.0304,-66.6222 1413.4806,-61.3024"/>
</g>
    <!-- Node24&#45;&gt;Node19 -->
<g id="edge32" class="edge">
<title>Node24&#45;&gt;Node19</title>
<path fill="none" stroke="#191970" d="M1383.8663,-62.6711C1373.7962,-50.321 1360.4897,-34.0016 1352.2384,-23.8821"/>
<polygon fill="#191970" stroke="#191970" points="1381.187,-64.9236 1390.219,-70.462 1386.6121,-60.5 1381.187,-64.9236"/>
</g>
    <!-- Node25&#45;&gt;Node8 -->
<g id="edge36" class="edge">
<title>Node25&#45;&gt;Node8</title>
<path fill="none" stroke="#191970" d="M953.2907,-65.4154C975.4911,-52.7572 1007.4481,-34.5362 1026.5043,-23.6708"/>
<polygon fill="#191970" stroke="#191970" points="951.3931,-62.4683 944.4396,-70.462 954.8604,-68.5493 951.3931,-62.4683"/>
</g>
    <!-- Node25&#45;&gt;Node20 -->
<g id="edge37" class="edge">
<title>Node25&#45;&gt;Node20</title>
<path fill="none" stroke="#191970" d="M914.8394,-62.3137C904.9945,-50.0077 892.1119,-33.9043 884.0941,-23.8821"/>
<polygon fill="#191970" stroke="#191970" points="912.378,-64.8398 921.358,-70.462 917.8441,-60.4669 912.378,-64.8398"/>
</g>
    <!-- Node26&#45;&gt;Node15 -->
<g id="edge41" class="edge">
<title>Node26&#45;&gt;Node15</title>
<path fill="none" stroke="#191970" d="M1512.8663,-62.6711C1502.7962,-50.321 1489.4897,-34.0016 1481.2384,-23.8821"/>
<polygon fill="#191970" stroke="#191970" points="1510.187,-64.9236 1519.219,-70.462 1515.6121,-60.5 1510.187,-64.9236"/>
</g>
    <!-- Node27 -->
<g id="node25" class="node">
<title>Node27</title>
<g id="a_node25"><a xlink:href="../../df/d0a/main_8cpp.html" target="_top" xlink:title="code/main.cpp">
<polygon fill="none" stroke="#000000" points="1535.0688,-5.5 1535.0688,-23.5 1616.1079,-23.5 1616.1079,-5.5 1535.0688,-5.5"/>
<text text-anchor="middle" x="1575.5884" y="-11.5" font-family="Helvetica,sans-Serif" font-size="10.00" fill="#000000">code/main.cpp</text>
</a>
</g>
</g>
    <!-- Node26&#45;&gt;Node27 -->
<g id="edge40" class="edge">
<title>Node26&#45;&gt;Node27</title>
<path fill="none" stroke="#191970" d="M1539.5442,-62.3137C1548.821,-50.0077 1560.9605,-33.9043 1568.5157,-23.8821"/>
<polygon fill="#191970" stroke="#191970" points="1536.6265,-60.3699 1533.4016,-70.462 1542.2161,-64.5837 1536.6265,-60.3699"/>
</g>
</g>
</svg>
        <g id="navigator" transform="translate(0 0)" fill="#404254">
                <rect fill="#f2f5e9" fill-opacity="0.5" stroke="#606060" stroke-width=".5" x="0" y="0" width="60" height="60"/>
                <use id="zoomplus" xlink:href="#zoomPlus" x="17" y="9" onmousedown="handleZoom(evt,'in')"/>
                <use id="zoomminus" xlink:href="#zoomMin" x="42" y="9" onmousedown="handleZoom(evt,'out')"/>
                <use id="reset" xlink:href="#resetDef" x="30" y="36" onmousedown="handleReset()"/>
                <g id="arrowUp" xlink:href="#dirArrow" transform="translate(30 24)" onmousedown="handlePan(0,-1)">
                  <use xlink:href="#rim" fill="#404040">
                        <set attributeName="fill" to="#808080" begin="arrowUp.mouseover" end="arrowUp.mouseout"/>
                  </use>
                  <path fill="none" stroke="white" stroke-width="1.5" d="M0,-3.0v7 M-2.5,-0.5L0,-3.0L2.5,-0.5"/>
                </g>
                <g id="arrowRight" xlink:href="#dirArrow" transform="rotate(90) translate(36 -43)" onmousedown="handlePan(1,0)">
                  <use xlink:href="#rim" fill="#404040">
                        <set attributeName="fill" to="#808080" begin="arrowRight.mouseover" end="arrowRight.mouseout"/>
                  </use>
                  <path fill="none" stroke="white" stroke-width="1.5" d="M0,-3.0v7 M-2.5,-0.5L0,-3.0L2.5,-0.5"/>
                </g>
                <g id="arrowDown" xlink:href="#dirArrow" transform="rotate(180) translate(-30 -48)" onmousedown="handlePan(0,1)">
                  <use xlink:href="#rim" fill="#404040">
                        <set attributeName="fill" to="#808080" begin="arrowDown.mouseover" end="arrowDown.mouseout"/>
                  </use>
                  <path fill="none" stroke="white" stroke-width="1.5" d="M0,-3.0v7 M-2.5,-0.5L0,-3.0L2.5,-0.5"/>
                </g>
                <g id="arrowLeft" xlink:href="#dirArrow" transform="rotate(270) translate(-36 17)" onmousedown="handlePan(-1,0)">
                  <use xlink:href="#rim" fill="#404040">
                        <set attributeName="fill" to="#808080" begin="arrowLeft.mouseover" end="arrowLeft.mouseout"/>
                  </use>
                  <path fill="none" stroke="white" stroke-width="1.5" d="M0,-3.0v7 M-2.5,-0.5L0,-3.0L2.5,-0.5"/>
                </g>
        </g>
        <svg viewBox="0 0 15 15" width="100%" height="30px" preserveAspectRatio="xMaxYMin meet">
         <g id="arrow_out" transform="scale(0.3 0.3)">
          <a xlink:href="_i_observer_8hpp__dep__incl_org.svg" target="_base">
           <rect id="button" ry="5" rx="5" y="6" x="6" height="38" width="38"
                fill="#f2f5e9" fill-opacity="0.5" stroke="#606060" stroke-width="1.0"/>
           <path id="arrow"
             d="M 11.500037,31.436501 C 11.940474,20.09759 22.043105,11.32322 32.158766,21.979434 L 37.068811,17.246167 C 37.068811,17.246167 37.088388,32 37.088388,32 L 22.160133,31.978069 C 22.160133,31.978069 26.997745,27.140456 26.997745,27.140456 C 18.528582,18.264221 13.291696,25.230495 11.500037,31.436501 z"
             style="fill:#404040;"/>
          </a>
         </g>
        </svg>
</svg>
