<?xml version="1.0" encoding="UTF-8" standalone="no"?>
<!DOCTYPE svg PUBLIC "-//W3C//DTD SVG 1.1//EN"
        "http://www.w3.org/Graphics/SVG/1.1/DTD/svg11.dtd">
<!-- Generated by graphviz version 2.40.1 (20161225.0304)
 -->
<!-- Title: code/utils/stringUtils.hpp Pages: 1 -->
<!--zoomable 147 -->
<svg id="main" version="1.1" xmlns="http://www.w3.org/2000/svg" xmlns:xlink="http://www.w3.org/1999/xlink" xml:space="preserve" onload="init(evt)">
<style type="text/css"><![CDATA[
.edge:hover path { stroke: red; }
.edge:hover polygon { stroke: red; fill: red; }
]]></style>
<script type="text/javascript"><![CDATA[
var edges = document.getElementsByTagName('g');
if (edges && edges.length) {
  for (var i=0;i<edges.length;i++) {
    if (edges[i].id.substr(0,4)=='edge') {
      edges[i].setAttribute('class','edge');
    }
  }
}
]]></script>
        <defs>
                <circle id="rim" cx="0" cy="0" r="7"/>
                <circle id="rim2" cx="0" cy="0" r="3.5"/>
                <g id="zoomPlus">
                        <use xlink:href="#rim" fill="#404040">
                                <set attributeName="fill" to="#808080" begin="zoomplus.mouseover" end="zoomplus.mouseout"/>
                        </use>
                        <path d="M-4,0h8M0,-4v8" fill="none" stroke="white" stroke-width="1.5" pointer-events="none"/>
                </g>
                <g id="zoomMin">
                        <use xlink:href="#rim" fill="#404040">
                                <set attributeName="fill" to="#808080" begin="zoomminus.mouseover" end="zoomminus.mouseout"/>
                        </use>
                        <path d="M-4,0h8" fill="none" stroke="white" stroke-width="1.5" pointer-events="none"/>
                </g>
                <g id="dirArrow">
                        <path fill="none" stroke="white" stroke-width="1.5" d="M0,-3.0v7 M-2.5,-0.5L0,-3.0L2.5,-0.5"/>
                </g>
               <g id="resetDef">
                       <use xlink:href="#rim2" fill="#404040">
                               <set attributeName="fill" to="#808080" begin="reset.mouseover" end="reset.mouseout"/>
                       </use>
               </g>
        </defs>

<script type="text/javascript">
var viewWidth = 694;
var viewHeight = 147;
var sectionId = 'dynsection-1';
</script>
<script xlink:href="../../svgpan.js"/>
<svg id="graph" class="graph">
<g id="viewport">
<title>code/utils/stringUtils.hpp</title>
    <!-- Node5 -->
<g id="node1" class="node">
<title>Node5</title>
<polygon fill="#bfbfbf" stroke="#000000" points="337.1895,-120.5 337.1895,-138.5 461.5732,-138.5 461.5732,-120.5 337.1895,-120.5"/>
<text text-anchor="middle" x="399.3813" y="-126.5" font-family="Helvetica,sans-Serif" font-size="10.00" fill="#000000">code/utils/stringUtils.hpp</text>
</g>
    <!-- Node6 -->
<g id="node2" class="node">
<title>Node6</title>
<g id="a_node2"><a xlink:href="../../d2/dac/_add_patient_dialog_8hpp.html" target="_top" xlink:title="code/gui/AddPatientDialog.hpp">
<polygon fill="none" stroke="#000000" points="81.7192,-60.5 81.7192,-78.5 235.0435,-78.5 235.0435,-60.5 81.7192,-60.5"/>
<text text-anchor="middle" x="158.3813" y="-66.5" font-family="Helvetica,sans-Serif" font-size="10.00" fill="#000000">code/gui/AddPatientDialog.hpp</text>
</a>
</g>
</g>
    <!-- Node5&#45;&gt;Node6 -->
<g id="edge1" class="edge">
<title>Node5&#45;&gt;Node6</title>
<path fill="none" stroke="#191970" d="M353.282,-118.023C307.1012,-106.5257 236.9674,-89.065 194.6235,-78.5229"/>
<polygon fill="#191970" stroke="#191970" points="352.4909,-121.4328 363.0403,-120.4524 354.1821,-114.6401 352.4909,-121.4328"/>
</g>
    <!-- Node9 -->
<g id="node5" class="node">
<title>Node9</title>
<g id="a_node5"><a xlink:href="../../df/de8/_add_prescription_dialog_8cpp.html" target="_top" xlink:title="code/gui/AddPrescription\lDialog.cpp">
<polygon fill="none" stroke="#000000" points="252.793,-55.5 252.793,-83.5 379.9697,-83.5 379.9697,-55.5 252.793,-55.5"/>
<text text-anchor="start" x="260.793" y="-71.5" font-family="Helvetica,sans-Serif" font-size="10.00" fill="#000000">code/gui/AddPrescription</text>
<text text-anchor="middle" x="316.3813" y="-61.5" font-family="Helvetica,sans-Serif" font-size="10.00" fill="#000000">Dialog.cpp</text>
</a>
</g>
</g>
    <!-- Node5&#45;&gt;Node9 -->
<g id="edge4" class="edge">
<title>Node5&#45;&gt;Node9</title>
<path fill="none" stroke="#191970" d="M378.4102,-114.3402C365.3579,-104.9048 348.6842,-92.8515 335.9116,-83.6183"/>
<polygon fill="#191970" stroke="#191970" points="376.6207,-117.3653 386.7754,-120.3873 380.7217,-111.6923 376.6207,-117.3653"/>
</g>
    <!-- Node10 -->
<g id="node6" class="node">
<title>Node10</title>
<g id="a_node6"><a xlink:href="../../d1/dea/_custom_widgets_8cpp.html" target="_top" xlink:title="code/gui/view/CustomWidgets.cpp">
<polygon fill="none" stroke="#000000" points="397.958,-60.5 397.958,-78.5 566.8047,-78.5 566.8047,-60.5 397.958,-60.5"/>
<text text-anchor="middle" x="482.3813" y="-66.5" font-family="Helvetica,sans-Serif" font-size="10.00" fill="#000000">code/gui/view/CustomWidgets.cpp</text>
</a>
</g>
</g>
    <!-- Node5&#45;&gt;Node10 -->
<g id="edge5" class="edge">
<title>Node5&#45;&gt;Node10</title>
<path fill="none" stroke="#191970" d="M420.4966,-114.2359C436.1202,-102.9418 456.872,-87.9405 469.9288,-78.5019"/>
<polygon fill="#191970" stroke="#191970" points="418.041,-111.6923 411.9873,-120.3873 422.142,-117.3653 418.041,-111.6923"/>
</g>
    <!-- Node11 -->
<g id="node7" class="node">
<title>Node11</title>
<g id="a_node7"><a xlink:href="../../dc/d1f/_date_8cpp.html" target="_top" xlink:title="code/utils/Date.cpp">
<polygon fill="none" stroke="#000000" points="584.8569,-60.5 584.8569,-78.5 685.9058,-78.5 685.9058,-60.5 584.8569,-60.5"/>
<text text-anchor="middle" x="635.3813" y="-66.5" font-family="Helvetica,sans-Serif" font-size="10.00" fill="#000000">code/utils/Date.cpp</text>
</a>
</g>
</g>
    <!-- Node5&#45;&gt;Node11 -->
<g id="edge6" class="edge">
<title>Node5&#45;&gt;Node11</title>
<path fill="none" stroke="#191970" d="M444.809,-117.9506C490.0349,-106.4525 558.5126,-89.0429 599.8911,-78.5229"/>
<polygon fill="#191970" stroke="#191970" points="443.7977,-114.5963 434.9685,-120.4524 445.5226,-121.3805 443.7977,-114.5963"/>
</g>
    <!-- Node7 -->
<g id="node3" class="node">
<title>Node7</title>
<g id="a_node3"><a xlink:href="../../db/db5/_add_patient_dialog_8cpp.html" target="_top" xlink:title="code/gui/AddPatientDialog.cpp">
<polygon fill="none" stroke="#000000" points="0,-.5 0,-18.5 152.7627,-18.5 152.7627,-.5 0,-.5"/>
<text text-anchor="middle" x="76.3813" y="-6.5" font-family="Helvetica,sans-Serif" font-size="10.00" fill="#000000">code/gui/AddPatientDialog.cpp</text>
</a>
</g>
</g>
    <!-- Node6&#45;&gt;Node7 -->
<g id="edge2" class="edge">
<title>Node6&#45;&gt;Node7</title>
<path fill="none" stroke="#191970" d="M137.5205,-54.2359C122.0851,-42.9418 101.5834,-27.9405 88.6839,-18.5019"/>
<polygon fill="#191970" stroke="#191970" points="135.7902,-57.3068 145.9273,-60.3873 139.9238,-51.6575 135.7902,-57.3068"/>
</g>
    <!-- Node8 -->
<g id="node4" class="node">
<title>Node8</title>
<g id="a_node4"><a xlink:href="../../d8/d35/_patient_window_8cpp.html" target="_top" xlink:title="code/gui/PatientWindow.cpp">
<polygon fill="none" stroke="#000000" points="170.5615,-.5 170.5615,-18.5 312.2012,-18.5 312.2012,-.5 170.5615,-.5"/>
<text text-anchor="middle" x="241.3813" y="-6.5" font-family="Helvetica,sans-Serif" font-size="10.00" fill="#000000">code/gui/PatientWindow.cpp</text>
</a>
</g>
</g>
    <!-- Node6&#45;&gt;Node8 -->
<g id="edge3" class="edge">
<title>Node6&#45;&gt;Node8</title>
<path fill="none" stroke="#191970" d="M179.4966,-54.2359C195.1202,-42.9418 215.872,-27.9405 228.9288,-18.5019"/>
<polygon fill="#191970" stroke="#191970" points="177.041,-51.6923 170.9873,-60.3873 181.142,-57.3653 177.041,-51.6923"/>
</g>
</g>
</svg>
        <g id="navigator" transform="translate(0 0)" fill="#404254">
                <rect fill="#f2f5e9" fill-opacity="0.5" stroke="#606060" stroke-width=".5" x="0" y="0" width="60" height="60"/>
                <use id="zoomplus" xlink:href="#zoomPlus" x="17" y="9" onmousedown="handleZoom(evt,'in')"/>
                <use id="zoomminus" xlink:href="#zoomMin" x="42" y="9" onmousedown="handleZoom(evt,'out')"/>
                <use id="reset" xlink:href="#resetDef" x="30" y="36" onmousedown="handleReset()"/>
                <g id="arrowUp" xlink:href="#dirArrow" transform="translate(30 24)" onmousedown="handlePan(0,-1)">
                  <use xlink:href="#rim" fill="#404040">
                        <set attributeName="fill" to="#808080" begin="arrowUp.mouseover" end="arrowUp.mouseout"/>
                  </use>
                  <path fill="none" stroke="white" stroke-width="1.5" d="M0,-3.0v7 M-2.5,-0.5L0,-3.0L2.5,-0.5"/>
                </g>
                <g id="arrowRight" xlink:href="#dirArrow" transform="rotate(90) translate(36 -43)" onmousedown="handlePan(1,0)">
                  <use xlink:href="#rim" fill="#404040">
                        <set attributeName="fill" to="#808080" begin="arrowRight.mouseover" end="arrowRight.mouseout"/>
                  </use>
                  <path fill="none" stroke="white" stroke-width="1.5" d="M0,-3.0v7 M-2.5,-0.5L0,-3.0L2.5,-0.5"/>
                </g>
                <g id="arrowDown" xlink:href="#dirArrow" transform="rotate(180) translate(-30 -48)" onmousedown="handlePan(0,1)">
                  <use xlink:href="#rim" fill="#404040">
                        <set attributeName="fill" to="#808080" begin="arrowDown.mouseover" end="arrowDown.mouseout"/>
                  </use>
                  <path fill="none" stroke="white" stroke-width="1.5" d="M0,-3.0v7 M-2.5,-0.5L0,-3.0L2.5,-0.5"/>
                </g>
                <g id="arrowLeft" xlink:href="#dirArrow" transform="rotate(270) translate(-36 17)" onmousedown="handlePan(-1,0)">
                  <use xlink:href="#rim" fill="#404040">
                        <set attributeName="fill" to="#808080" begin="arrowLeft.mouseover" end="arrowLeft.mouseout"/>
                  </use>
                  <path fill="none" stroke="white" stroke-width="1.5" d="M0,-3.0v7 M-2.5,-0.5L0,-3.0L2.5,-0.5"/>
                </g>
        </g>
        <svg viewBox="0 0 15 15" width="100%" height="30px" preserveAspectRatio="xMaxYMin meet">
         <g id="arrow_out" transform="scale(0.3 0.3)">
          <a xlink:href="string_utils_8hpp__dep__incl_org.svg" target="_base">
           <rect id="button" ry="5" rx="5" y="6" x="6" height="38" width="38"
                fill="#f2f5e9" fill-opacity="0.5" stroke="#606060" stroke-width="1.0"/>
           <path id="arrow"
             d="M 11.500037,31.436501 C 11.940474,20.09759 22.043105,11.32322 32.158766,21.979434 L 37.068811,17.246167 C 37.068811,17.246167 37.088388,32 37.088388,32 L 22.160133,31.978069 C 22.160133,31.978069 26.997745,27.140456 26.997745,27.140456 C 18.528582,18.264221 13.291696,25.230495 11.500037,31.436501 z"
             style="fill:#404040;"/>
          </a>
         </g>
        </svg>
</svg>
