<?xml version="1.0" encoding="UTF-8" standalone="no"?>
<!DOCTYPE svg PUBLIC "-//W3C//DTD SVG 1.1//EN"
        "http://www.w3.org/Graphics/SVG/1.1/DTD/svg11.dtd">
<!-- Generated by graphviz version 2.40.1 (20161225.0304)
 -->
<!-- Title: code/model/Authentication.hpp Pages: 1 -->
<!--zoomable 192 -->
<svg id="main" version="1.1" xmlns="http://www.w3.org/2000/svg" xmlns:xlink="http://www.w3.org/1999/xlink" xml:space="preserve" onload="init(evt)">
<style type="text/css"><![CDATA[
.edge:hover path { stroke: red; }
.edge:hover polygon { stroke: red; fill: red; }
]]></style>
<script type="text/javascript"><![CDATA[
var edges = document.getElementsByTagName('g');
if (edges && edges.length) {
  for (var i=0;i<edges.length;i++) {
    if (edges[i].id.substr(0,4)=='edge') {
      edges[i].setAttribute('class','edge');
    }
  }
}
]]></script>
        <defs>
                <circle id="rim" cx="0" cy="0" r="7"/>
                <circle id="rim2" cx="0" cy="0" r="3.5"/>
                <g id="zoomPlus">
                        <use xlink:href="#rim" fill="#404040">
                                <set attributeName="fill" to="#808080" begin="zoomplus.mouseover" end="zoomplus.mouseout"/>
                        </use>
                        <path d="M-4,0h8M0,-4v8" fill="none" stroke="white" stroke-width="1.5" pointer-events="none"/>
                </g>
                <g id="zoomMin">
                        <use xlink:href="#rim" fill="#404040">
                                <set attributeName="fill" to="#808080" begin="zoomminus.mouseover" end="zoomminus.mouseout"/>
                        </use>
                        <path d="M-4,0h8" fill="none" stroke="white" stroke-width="1.5" pointer-events="none"/>
                </g>
                <g id="dirArrow">
                        <path fill="none" stroke="white" stroke-width="1.5" d="M0,-3.0v7 M-2.5,-0.5L0,-3.0L2.5,-0.5"/>
                </g>
               <g id="resetDef">
                       <use xlink:href="#rim2" fill="#404040">
                               <set attributeName="fill" to="#808080" begin="reset.mouseover" end="reset.mouseout"/>
                       </use>
               </g>
        </defs>

<script type="text/javascript">
var viewWidth = 536;
var viewHeight = 192;
var sectionId = 'dynsection-0';
</script>
<script xlink:href="../../svgpan.js"/>
<svg id="graph" class="graph">
<g id="viewport">
<title>code/model/Authentication.hpp</title>
    <!-- Node0 -->
<g id="node1" class="node">
<title>Node0</title>
<polygon fill="#bfbfbf" stroke="#000000" points="196.9561,-165.5 196.9561,-183.5 350.2754,-183.5 350.2754,-165.5 196.9561,-165.5"/>
<text text-anchor="middle" x="273.6157" y="-171.5" font-family="Helvetica,sans-Serif" font-size="10.00" fill="#000000">code/model/Authentication.hpp</text>
</g>
    <!-- Node1 -->
<g id="node2" class="node">
<title>Node1</title>
<g id="a_node2"><a xlink:href="../../d7/d0f/_d_b_master_8hpp.html" target="_top" xlink:title="../DBMaster.hpp">
<polygon fill="none" stroke="#000000" points="167.7637,-110.5 167.7637,-128.5 255.4678,-128.5 255.4678,-110.5 167.7637,-110.5"/>
<text text-anchor="middle" x="211.6157" y="-116.5" font-family="Helvetica,sans-Serif" font-size="10.00" fill="#000000">../DBMaster.hpp</text>
</a>
</g>
</g>
    <!-- Node0&#45;&gt;Node1 -->
<g id="edge1" class="edge">
<title>Node0&#45;&gt;Node1</title>
<path fill="none" stroke="#191970" d="M263.3777,-165.4179C254.2783,-157.3458 240.762,-145.3556 229.8231,-135.6517"/>
<polygon fill="#191970" stroke="#191970" points="231.8796,-132.7974 222.0762,-128.7795 227.2343,-138.0339 231.8796,-132.7974"/>
</g>
    <!-- Node5 -->
<g id="node6" class="node">
<title>Node5</title>
<polygon fill="none" stroke="#bfbfbf" points="0,-.5 0,-18.5 43.2314,-18.5 43.2314,-.5 0,-.5"/>
<text text-anchor="middle" x="21.6157" y="-6.5" font-family="Helvetica,sans-Serif" font-size="10.00" fill="#000000">vector</text>
</g>
    <!-- Node0&#45;&gt;Node5 -->
<g id="edge15" class="edge">
<title>Node0&#45;&gt;Node5</title>
<path fill="none" stroke="#191970" d="M198.0255,-165.4643C140.6764,-154.288 65.1773,-129.3795 25.6157,-74 16.3529,-61.0336 16.137,-42.601 17.7807,-28.7588"/>
<polygon fill="#191970" stroke="#191970" points="21.2449,-29.2598 19.3602,-18.8339 14.3319,-28.1595 21.2449,-29.2598"/>
</g>
    <!-- Node8 -->
<g id="node9" class="node">
<title>Node8</title>
<g id="a_node9"><a xlink:href="../../d1/d25/_i_subject_8hpp.html" target="_top" xlink:title="../interfaces/ISubject.hpp">
<polygon fill="none" stroke="#000000" points="318.584,-110.5 318.584,-128.5 444.6475,-128.5 444.6475,-110.5 318.584,-110.5"/>
<text text-anchor="middle" x="381.6157" y="-116.5" font-family="Helvetica,sans-Serif" font-size="10.00" fill="#000000">../interfaces/ISubject.hpp</text>
</a>
</g>
</g>
    <!-- Node0&#45;&gt;Node8 -->
<g id="edge10" class="edge">
<title>Node0&#45;&gt;Node8</title>
<path fill="none" stroke="#191970" d="M291.4497,-165.4179C308.6464,-156.6603 334.8994,-143.2907 354.65,-133.2326"/>
<polygon fill="#191970" stroke="#191970" points="356.4325,-136.2526 363.7552,-128.5956 353.2559,-130.0148 356.4325,-136.2526"/>
</g>
    <!-- Node13 -->
<g id="node14" class="node">
<title>Node13</title>
<polygon fill="none" stroke="#bfbfbf" points="462.7734,-110.5 462.7734,-128.5 500.458,-128.5 500.458,-110.5 462.7734,-110.5"/>
<text text-anchor="middle" x="481.6157" y="-116.5" font-family="Helvetica,sans-Serif" font-size="10.00" fill="#000000">tuple</text>
</g>
    <!-- Node0&#45;&gt;Node13 -->
<g id="edge16" class="edge">
<title>Node0&#45;&gt;Node13</title>
<path fill="none" stroke="#191970" d="M313.188,-165.4534C347.748,-157.3397 399.4347,-144.6941 453.0317,-129.003"/>
<polygon fill="#191970" stroke="#191970" points="454.1056,-132.3354 462.7032,-126.1441 452.1212,-125.6225 454.1056,-132.3354"/>
</g>
    <!-- Node2 -->
<g id="node3" class="node">
<title>Node2</title>
<polygon fill="none" stroke="#bfbfbf" points="49.9927,-55.5 49.9927,-73.5 103.2388,-73.5 103.2388,-55.5 49.9927,-55.5"/>
<text text-anchor="middle" x="76.6157" y="-61.5" font-family="Helvetica,sans-Serif" font-size="10.00" fill="#000000">sqlite3.h</text>
</g>
    <!-- Node1&#45;&gt;Node2 -->
<g id="edge2" class="edge">
<title>Node1&#45;&gt;Node2</title>
<path fill="none" stroke="#191970" d="M189.3232,-110.4179C167.2411,-101.4215 133.2128,-87.5581 108.3215,-77.4172"/>
<polygon fill="#191970" stroke="#191970" points="109.5228,-74.1273 98.9413,-73.5956 106.8817,-80.61 109.5228,-74.1273"/>
</g>
    <!-- Node3 -->
<g id="node4" class="node">
<title>Node3</title>
<polygon fill="none" stroke="#bfbfbf" points="310.3892,-.5 310.3892,-18.5 350.8423,-18.5 350.8423,-.5 310.3892,-.5"/>
<text text-anchor="middle" x="330.6157" y="-6.5" font-family="Helvetica,sans-Serif" font-size="10.00" fill="#000000">string</text>
</g>
    <!-- Node1&#45;&gt;Node3 -->
<g id="edge3" class="edge">
<title>Node1&#45;&gt;Node3</title>
<path fill="none" stroke="#191970" d="M253.6588,-110.456C287.8161,-102.1554 332.0102,-88.9106 342.6157,-74 352.178,-60.5561 347.0782,-41.6771 340.8467,-27.8171"/>
<polygon fill="#191970" stroke="#191970" points="343.9158,-26.1295 336.3026,-18.7614 337.6593,-29.269 343.9158,-26.1295"/>
</g>
    <!-- Node4 -->
<g id="node5" class="node">
<title>Node4</title>
<polygon fill="none" stroke="#bfbfbf" points="275.2144,-55.5 275.2144,-73.5 334.0171,-73.5 334.0171,-55.5 275.2144,-55.5"/>
<text text-anchor="middle" x="304.6157" y="-61.5" font-family="Helvetica,sans-Serif" font-size="10.00" fill="#000000">stdexcept</text>
</g>
    <!-- Node1&#45;&gt;Node4 -->
<g id="edge4" class="edge">
<title>Node1&#45;&gt;Node4</title>
<path fill="none" stroke="#191970" d="M226.9728,-110.4179C241.5118,-101.8195 263.5683,-88.7754 280.4621,-78.7844"/>
<polygon fill="#191970" stroke="#191970" points="282.4101,-81.6987 289.2358,-73.5956 278.8468,-75.6735 282.4101,-81.6987"/>
</g>
    <!-- Node1&#45;&gt;Node5 -->
<g id="edge5" class="edge">
<title>Node1&#45;&gt;Node5</title>
<path fill="none" stroke="#191970" d="M167.4114,-112.7647C122.9728,-105.1382 58.552,-91.4686 40.6157,-74 28.6059,-62.3033 24.0914,-43.4321 22.4421,-29.1166"/>
<polygon fill="#191970" stroke="#191970" points="25.9078,-28.5363 21.6454,-18.8367 18.9287,-29.0773 25.9078,-28.5363"/>
</g>
    <!-- Node6 -->
<g id="node7" class="node">
<title>Node6</title>
<g id="a_node7"><a xlink:href="../../d3/d1b/_i_serializable_8hpp.html" target="_top" xlink:title="interfaces/ISerializable.hpp">
<polygon fill="none" stroke="#000000" points="121.5815,-55.5 121.5815,-73.5 257.6499,-73.5 257.6499,-55.5 121.5815,-55.5"/>
<text text-anchor="middle" x="189.6157" y="-61.5" font-family="Helvetica,sans-Serif" font-size="10.00" fill="#000000">interfaces/ISerializable.hpp</text>
</a>
</g>
</g>
    <!-- Node1&#45;&gt;Node6 -->
<g id="edge6" class="edge">
<title>Node1&#45;&gt;Node6</title>
<path fill="none" stroke="#191970" d="M207.9829,-110.4179C205.039,-103.0581 200.7921,-92.441 197.1235,-83.2695"/>
<polygon fill="#191970" stroke="#191970" points="200.2911,-81.7643 193.3275,-73.7795 193.7918,-84.3641 200.2911,-81.7643"/>
</g>
    <!-- Node6&#45;&gt;Node3 -->
<g id="edge7" class="edge">
<title>Node6&#45;&gt;Node3</title>
<path fill="none" stroke="#191970" d="M212.899,-55.4179C236.8969,-46.057 274.4034,-31.4268 300.612,-21.2036"/>
<polygon fill="#191970" stroke="#191970" points="302.0074,-24.4162 310.0518,-17.5214 299.4636,-17.8948 302.0074,-24.4162"/>
</g>
    <!-- Node6&#45;&gt;Node5 -->
<g id="edge9" class="edge">
<title>Node6&#45;&gt;Node5</title>
<path fill="none" stroke="#191970" d="M161.8739,-55.4179C131.8519,-45.5892 84.0855,-29.9514 52.7878,-19.7051"/>
<polygon fill="#191970" stroke="#191970" points="53.8409,-16.3672 43.2483,-16.5821 51.6629,-23.0198 53.8409,-16.3672"/>
</g>
    <!-- Node7 -->
<g id="node8" class="node">
<title>Node7</title>
<polygon fill="none" stroke="#bfbfbf" points="171.8892,-.5 171.8892,-18.5 207.3423,-18.5 207.3423,-.5 171.8892,-.5"/>
<text text-anchor="middle" x="189.6157" y="-6.5" font-family="Helvetica,sans-Serif" font-size="10.00" fill="#000000">map</text>
</g>
    <!-- Node6&#45;&gt;Node7 -->
<g id="edge8" class="edge">
<title>Node6&#45;&gt;Node7</title>
<path fill="none" stroke="#191970" d="M189.6157,-55.4179C189.6157,-48.2164 189.6157,-37.8962 189.6157,-28.8632"/>
<polygon fill="#191970" stroke="#191970" points="193.1158,-28.7794 189.6157,-18.7795 186.1158,-28.7795 193.1158,-28.7794"/>
</g>
    <!-- Node9 -->
<g id="node10" class="node">
<title>Node9</title>
<polygon fill="none" stroke="#bfbfbf" points="389.9458,-55.5 389.9458,-73.5 419.2856,-73.5 419.2856,-55.5 389.9458,-55.5"/>
<text text-anchor="middle" x="404.6157" y="-61.5" font-family="Helvetica,sans-Serif" font-size="10.00" fill="#000000">set</text>
</g>
    <!-- Node8&#45;&gt;Node9 -->
<g id="edge11" class="edge">
<title>Node8&#45;&gt;Node9</title>
<path fill="none" stroke="#191970" d="M385.4137,-110.4179C388.4914,-103.0581 392.9313,-92.441 396.7667,-83.2695"/>
<polygon fill="#191970" stroke="#191970" points="400.1061,-84.3556 400.7352,-73.7795 393.6481,-81.6549 400.1061,-84.3556"/>
</g>
    <!-- Node10 -->
<g id="node11" class="node">
<title>Node10</title>
<g id="a_node11"><a xlink:href="../../d5/d40/_i_observer_8hpp.html" target="_top" xlink:title="IObserver.hpp">
<polygon fill="none" stroke="#000000" points="437.207,-55.5 437.207,-73.5 516.0244,-73.5 516.0244,-55.5 437.207,-55.5"/>
<text text-anchor="middle" x="476.6157" y="-61.5" font-family="Helvetica,sans-Serif" font-size="10.00" fill="#000000">IObserver.hpp</text>
</a>
</g>
</g>
    <!-- Node8&#45;&gt;Node10 -->
<g id="edge12" class="edge">
<title>Node8&#45;&gt;Node10</title>
<path fill="none" stroke="#191970" d="M397.303,-110.4179C412.1547,-101.8195 434.6855,-88.7754 451.9426,-78.7844"/>
<polygon fill="#191970" stroke="#191970" points="454.0045,-81.635 460.9051,-73.5956 450.4972,-75.577 454.0045,-81.635"/>
</g>
    <!-- Node11 -->
<g id="node12" class="node">
<title>Node11</title>
<polygon fill="none" stroke="#bfbfbf" points="485,-.5 485,-18.5 528.2314,-18.5 528.2314,-.5 485,-.5"/>
<text text-anchor="middle" x="506.6157" y="-6.5" font-family="Helvetica,sans-Serif" font-size="10.00" fill="#000000">mutex</text>
</g>
    <!-- Node10&#45;&gt;Node11 -->
<g id="edge13" class="edge">
<title>Node10&#45;&gt;Node11</title>
<path fill="none" stroke="#191970" d="M481.5696,-55.4179C485.6704,-47.8998 491.6251,-36.9829 496.6994,-27.6799"/>
<polygon fill="#191970" stroke="#191970" points="499.8383,-29.2344 501.5542,-18.7795 493.693,-25.8824 499.8383,-29.2344"/>
</g>
    <!-- Node12 -->
<g id="node13" class="node">
<title>Node12</title>
<polygon fill="none" stroke="#bfbfbf" points="422.4385,-.5 422.4385,-18.5 466.793,-18.5 466.793,-.5 422.4385,-.5"/>
<text text-anchor="middle" x="444.6157" y="-6.5" font-family="Helvetica,sans-Serif" font-size="10.00" fill="#000000">thread</text>
</g>
    <!-- Node10&#45;&gt;Node12 -->
<g id="edge14" class="edge">
<title>Node10&#45;&gt;Node12</title>
<path fill="none" stroke="#191970" d="M471.3316,-55.4179C466.9574,-47.8998 460.6058,-36.9829 455.1931,-27.6799"/>
<polygon fill="#191970" stroke="#191970" points="458.0689,-25.6628 450.0147,-18.7795 452.0184,-29.1831 458.0689,-25.6628"/>
</g>
</g>
</svg>
        <g id="navigator" transform="translate(0 0)" fill="#404254">
                <rect fill="#f2f5e9" fill-opacity="0.5" stroke="#606060" stroke-width=".5" x="0" y="0" width="60" height="60"/>
                <use id="zoomplus" xlink:href="#zoomPlus" x="17" y="9" onmousedown="handleZoom(evt,'in')"/>
                <use id="zoomminus" xlink:href="#zoomMin" x="42" y="9" onmousedown="handleZoom(evt,'out')"/>
                <use id="reset" xlink:href="#resetDef" x="30" y="36" onmousedown="handleReset()"/>
                <g id="arrowUp" xlink:href="#dirArrow" transform="translate(30 24)" onmousedown="handlePan(0,-1)">
                  <use xlink:href="#rim" fill="#404040">
                        <set attributeName="fill" to="#808080" begin="arrowUp.mouseover" end="arrowUp.mouseout"/>
                  </use>
                  <path fill="none" stroke="white" stroke-width="1.5" d="M0,-3.0v7 M-2.5,-0.5L0,-3.0L2.5,-0.5"/>
                </g>
                <g id="arrowRight" xlink:href="#dirArrow" transform="rotate(90) translate(36 -43)" onmousedown="handlePan(1,0)">
                  <use xlink:href="#rim" fill="#404040">
                        <set attributeName="fill" to="#808080" begin="arrowRight.mouseover" end="arrowRight.mouseout"/>
                  </use>
                  <path fill="none" stroke="white" stroke-width="1.5" d="M0,-3.0v7 M-2.5,-0.5L0,-3.0L2.5,-0.5"/>
                </g>
                <g id="arrowDown" xlink:href="#dirArrow" transform="rotate(180) translate(-30 -48)" onmousedown="handlePan(0,1)">
                  <use xlink:href="#rim" fill="#404040">
                        <set attributeName="fill" to="#808080" begin="arrowDown.mouseover" end="arrowDown.mouseout"/>
                  </use>
                  <path fill="none" stroke="white" stroke-width="1.5" d="M0,-3.0v7 M-2.5,-0.5L0,-3.0L2.5,-0.5"/>
                </g>
                <g id="arrowLeft" xlink:href="#dirArrow" transform="rotate(270) translate(-36 17)" onmousedown="handlePan(-1,0)">
                  <use xlink:href="#rim" fill="#404040">
                        <set attributeName="fill" to="#808080" begin="arrowLeft.mouseover" end="arrowLeft.mouseout"/>
                  </use>
                  <path fill="none" stroke="white" stroke-width="1.5" d="M0,-3.0v7 M-2.5,-0.5L0,-3.0L2.5,-0.5"/>
                </g>
        </g>
        <svg viewBox="0 0 15 15" width="100%" height="30px" preserveAspectRatio="xMaxYMin meet">
         <g id="arrow_out" transform="scale(0.3 0.3)">
          <a xlink:href="_authentication_8hpp__incl_org.svg" target="_base">
           <rect id="button" ry="5" rx="5" y="6" x="6" height="38" width="38"
                fill="#f2f5e9" fill-opacity="0.5" stroke="#606060" stroke-width="1.0"/>
           <path id="arrow"
             d="M 11.500037,31.436501 C 11.940474,20.09759 22.043105,11.32322 32.158766,21.979434 L 37.068811,17.246167 C 37.068811,17.246167 37.088388,32 37.088388,32 L 22.160133,31.978069 C 22.160133,31.978069 26.997745,27.140456 26.997745,27.140456 C 18.528582,18.264221 13.291696,25.230495 11.500037,31.436501 z"
             style="fill:#404040;"/>
          </a>
         </g>
        </svg>
</svg>
