<?xml version="1.0" encoding="UTF-8" standalone="no"?>
<!DOCTYPE svg PUBLIC "-//W3C//DTD SVG 1.1//EN"
        "http://www.w3.org/Graphics/SVG/1.1/DTD/svg11.dtd">
<!-- Generated by graphviz version 2.40.1 (20161225.0304)
 -->
<!-- Title: code/model/Prescription.cpp Pages: 1 -->
<svg width="974pt" height="247pt"
     viewBox="0.00 0.00 974.23 247.00" xmlns="http://www.w3.org/2000/svg" xmlns:xlink="http://www.w3.org/1999/xlink">
    <g id="graph0" class="graph" transform="scale(1 1) rotate(0) translate(4 243)">
        <title>code/model/Prescription.cpp</title>
        <!-- Node0 -->
        <g id="node1" class="node">
            <title>Node0</title>
            <polygon fill="#bfbfbf" stroke="#000000"
                     points="20.5145,-220.5 20.5145,-238.5 162.6913,-238.5 162.6913,-220.5 20.5145,-220.5"/>
            <text text-anchor="middle" x="91.6029" y="-226.5" font-family="Helvetica,sans-Serif" font-size="10.00"
                  fill="#000000">code/model/Prescription.cpp
            </text>
        </g>
        <!-- Node1 -->
        <g id="node2" class="node">
            <title>Node1</title>
            <polygon fill="none" stroke="#bfbfbf"
                     points="149.8763,-.5 149.8763,-18.5 185.3295,-18.5 185.3295,-.5 149.8763,-.5"/>
            <text text-anchor="middle" x="167.6029" y="-6.5" font-family="Helvetica,sans-Serif" font-size="10.00"
                  fill="#000000">map
            </text>
        </g>
        <!-- Node0&#45;&gt;Node1 -->
        <g id="edge1" class="edge">
            <title>Node0&#45;&gt;Node1</title>
            <path fill="none" stroke="#191970"
                  d="M54.4325,-220.4858C35.4089,-213.7848 13.9243,-202.5031 2.6029,-184 -1.8044,-176.7969 1.006,-173.2921 2.6029,-165 12.5603,-113.2951 8.9845,-91.8429 46.6029,-55 72.082,-30.0462 112.5516,-18.5401 139.5844,-13.4018"/>
            <polygon fill="#191970" stroke="#191970"
                     points="140.3151,-16.8275 149.573,-11.6757 139.123,-9.9298 140.3151,-16.8275"/>
        </g>
        <!-- Node2 -->
        <g id="node3" class="node">
            <title>Node2</title>
            <polygon fill="none" stroke="#bfbfbf"
                     points="11.8221,-165.5 11.8221,-183.5 63.3837,-183.5 63.3837,-165.5 11.8221,-165.5"/>
            <text text-anchor="middle" x="37.6029" y="-171.5" font-family="Helvetica,sans-Serif" font-size="10.00"
                  fill="#000000">sstream
            </text>
        </g>
        <!-- Node0&#45;&gt;Node2 -->
        <g id="edge2" class="edge">
            <title>Node0&#45;&gt;Node2</title>
            <path fill="none" stroke="#191970"
                  d="M82.6859,-220.4179C74.8383,-212.425 63.2189,-200.5903 53.7418,-190.9377"/>
            <polygon fill="#191970" stroke="#191970"
                     points="56.217,-188.463 46.7136,-183.7795 51.2221,-193.3672 56.217,-188.463"/>
        </g>
        <!-- Node3 -->
        <g id="node4" class="node">
            <title>Node3</title>
            <polygon fill="none" stroke="#bfbfbf"
                     points="64.4305,-55.5 64.4305,-73.5 118.7753,-73.5 118.7753,-55.5 64.4305,-55.5"/>
            <text text-anchor="middle" x="91.6029" y="-61.5" font-family="Helvetica,sans-Serif" font-size="10.00"
                  fill="#000000">iostream
            </text>
        </g>
        <!-- Node0&#45;&gt;Node3 -->
        <g id="edge3" class="edge">
            <title>Node0&#45;&gt;Node3</title>
            <path fill="none" stroke="#191970"
                  d="M91.6029,-220.1561C91.6029,-193.9504 91.6029,-119.3557 91.6029,-83.8021"/>
            <polygon fill="#191970" stroke="#191970"
                     points="95.103,-83.7414 91.6029,-73.7414 88.103,-83.7414 95.103,-83.7414"/>
        </g>
        <!-- Node4 -->
        <g id="node5" class="node">
            <title>Node4</title>
            <g id="a_node5">
                <a xlink:href="../../de/d01/_prescription_8hpp.html" target="_top" xlink:title="Prescription.hpp">
                    <polygon fill="none" stroke="#000000"
                             points="333.4725,-165.5 333.4725,-183.5 421.7333,-183.5 421.7333,-165.5 333.4725,-165.5"/>
                    <text text-anchor="middle" x="377.6029" y="-171.5" font-family="Helvetica,sans-Serif"
                          font-size="10.00" fill="#000000">Prescription.hpp
                    </text>
                </a>
            </g>
        </g>
        <!-- Node0&#45;&gt;Node4 -->
        <g id="edge4" class="edge">
            <title>Node0&#45;&gt;Node4</title>
            <path fill="none" stroke="#191970"
                  d="M138.5097,-220.4795C189.1278,-210.7452 269.6432,-195.2615 323.0523,-184.9905"/>
            <polygon fill="#191970" stroke="#191970"
                     points="323.8667,-188.3981 333.0258,-183.0725 322.5447,-181.524 323.8667,-188.3981"/>
        </g>
        <!-- Node11 -->
        <g id="node12" class="node">
            <title>Node11</title>
            <g id="a_node12">
                <a xlink:href="../../d7/d0f/_d_b_master_8hpp.html" target="_top" xlink:title="../DBMaster.hpp">
                    <polygon fill="none" stroke="#000000"
                             points="771.7508,-110.5 771.7508,-128.5 859.4549,-128.5 859.4549,-110.5 771.7508,-110.5"/>
                    <text text-anchor="middle" x="815.6029" y="-116.5" font-family="Helvetica,sans-Serif"
                          font-size="10.00" fill="#000000">../DBMaster.hpp
                    </text>
                </a>
            </g>
        </g>
        <!-- Node0&#45;&gt;Node11 -->
        <g id="edge21" class="edge">
            <title>Node0&#45;&gt;Node11</title>
            <path fill="none" stroke="#191970"
                  d="M162.7972,-220.6293C231.4599,-211.9123 338.2693,-197.9271 430.6029,-184 548.8491,-166.1644 686.9963,-142.2729 761.4341,-129.147"/>
            <polygon fill="#191970" stroke="#191970"
                     points="762.2672,-132.5541 771.506,-127.3681 761.0497,-125.6608 762.2672,-132.5541"/>
        </g>
        <!-- Node4&#45;&gt;Node1 -->
        <g id="edge7" class="edge">
            <title>Node4&#45;&gt;Node1</title>
            <path fill="none" stroke="#191970"
                  d="M333.2223,-167.2335C252.9543,-153.088 88.8686,-119.231 55.6029,-74 31.2047,-40.8261 99.3489,-22.0676 139.8887,-14.1052"/>
            <polygon fill="#191970" stroke="#191970"
                     points="140.5768,-17.5374 149.7688,-12.2689 139.2976,-10.6552 140.5768,-17.5374"/>
        </g>
        <!-- Node5 -->
        <g id="node6" class="node">
            <title>Node5</title>
            <polygon fill="none" stroke="#bfbfbf"
                     points="522.9872,-.5 522.9872,-18.5 566.2186,-18.5 566.2186,-.5 522.9872,-.5"/>
            <text text-anchor="middle" x="544.6029" y="-6.5" font-family="Helvetica,sans-Serif" font-size="10.00"
                  fill="#000000">vector
            </text>
        </g>
        <!-- Node4&#45;&gt;Node5 -->
        <g id="edge5" class="edge">
            <title>Node4&#45;&gt;Node5</title>
            <path fill="none" stroke="#191970"
                  d="M387.06,-165.1561C414.2723,-138.2698 493.0373,-60.448 527.7893,-26.1123"/>
            <polygon fill="#191970" stroke="#191970"
                     points="530.5958,-28.2595 535.2495,-18.7414 525.676,-23.28 530.5958,-28.2595"/>
        </g>
        <!-- Node6 -->
        <g id="node7" class="node">
            <title>Node6</title>
            <polygon fill="none" stroke="#bfbfbf"
                     points="693.3763,-.5 693.3763,-18.5 733.8295,-18.5 733.8295,-.5 693.3763,-.5"/>
            <text text-anchor="middle" x="713.6029" y="-6.5" font-family="Helvetica,sans-Serif" font-size="10.00"
                  fill="#000000">string
            </text>
        </g>
        <!-- Node4&#45;&gt;Node6 -->
        <g id="edge6" class="edge">
            <title>Node4&#45;&gt;Node6</title>
            <path fill="none" stroke="#191970"
                  d="M413.558,-165.4416C493.1967,-145.0703 678.9935,-95.7321 698.6029,-74 709.6635,-61.7421 713.0351,-42.9393 713.8636,-28.7921"/>
            <polygon fill="#191970" stroke="#191970"
                     points="717.3656,-28.7313 714.0812,-18.6584 710.3672,-28.5809 717.3656,-28.7313"/>
        </g>
        <!-- Node7 -->
        <g id="node8" class="node">
            <title>Node7</title>
            <polygon fill="none" stroke="#bfbfbf"
                     points="136.6918,-55.5 136.6918,-73.5 270.514,-73.5 270.514,-55.5 136.6918,-55.5"/>
            <text text-anchor="middle" x="203.6029" y="-61.5" font-family="Helvetica,sans-Serif" font-size="10.00"
                  fill="#000000">gtkmm/treemodelcolumn.h
            </text>
        </g>
        <!-- Node4&#45;&gt;Node7 -->
        <g id="edge8" class="edge">
            <title>Node4&#45;&gt;Node7</title>
            <path fill="none" stroke="#191970"
                  d="M363.3637,-165.4982C333.2846,-146.4827 263.0488,-102.0807 226.5471,-79.005"/>
            <polygon fill="#191970" stroke="#191970"
                     points="228.3617,-76.0114 218.0388,-73.6261 224.6211,-81.9282 228.3617,-76.0114"/>
        </g>
        <!-- Node8 -->
        <g id="node9" class="node">
            <title>Node8</title>
            <g id="a_node9">
                <a xlink:href="../../d3/d1b/_i_serializable_8hpp.html" target="_top"
                   xlink:title="../interfaces/ISerializable.hpp">
                    <polygon fill="none" stroke="#000000"
                             points="522.4012,-55.5 522.4012,-73.5 666.8045,-73.5 666.8045,-55.5 522.4012,-55.5"/>
                    <text text-anchor="middle" x="594.6029" y="-61.5" font-family="Helvetica,sans-Serif"
                          font-size="10.00" fill="#000000">../interfaces/ISerializable.hpp
                    </text>
                </a>
            </g>
        </g>
        <!-- Node4&#45;&gt;Node8 -->
        <g id="edge9" class="edge">
            <title>Node4&#45;&gt;Node8</title>
            <path fill="none" stroke="#191970"
                  d="M413.0285,-165.4231C440.1105,-157.7294 477.8889,-145.339 508.6029,-129 534.1394,-115.4153 560.2765,-94.6387 576.9274,-80.3573"/>
            <polygon fill="#191970" stroke="#191970"
                     points="579.4876,-82.7682 584.7166,-73.5537 574.8826,-77.4962 579.4876,-82.7682"/>
        </g>
        <!-- Node9 -->
        <g id="node10" class="node">
            <title>Node9</title>
            <g id="a_node10">
                <a xlink:href="../../dd/df9/_drug_8hpp.html" target="_top" xlink:title="Drug.hpp">
                    <polygon fill="none" stroke="#000000"
                             points="349.034,-110.5 349.034,-128.5 406.1717,-128.5 406.1717,-110.5 349.034,-110.5"/>
                    <text text-anchor="middle" x="377.6029" y="-116.5" font-family="Helvetica,sans-Serif"
                          font-size="10.00" fill="#000000">Drug.hpp
                    </text>
                </a>
            </g>
        </g>
        <!-- Node4&#45;&gt;Node9 -->
        <g id="edge13" class="edge">
            <title>Node4&#45;&gt;Node9</title>
            <path fill="none" stroke="#191970"
                  d="M377.6029,-165.4179C377.6029,-158.2164 377.6029,-147.8962 377.6029,-138.8632"/>
            <polygon fill="#191970" stroke="#191970"
                     points="381.103,-138.7794 377.6029,-128.7795 374.103,-138.7795 381.103,-138.7794"/>
        </g>
        <!-- Node8&#45;&gt;Node1 -->
        <g id="edge11" class="edge">
            <title>Node8&#45;&gt;Node1</title>
            <path fill="none" stroke="#191970"
                  d="M524.5707,-55.4795C428.8705,-43.1527 261.5912,-21.6062 195.5557,-13.1005"/>
            <polygon fill="#191970" stroke="#191970"
                     points="195.8635,-9.6113 185.4982,-11.805 194.9692,-16.5539 195.8635,-9.6113"/>
        </g>
        <!-- Node8&#45;&gt;Node5 -->
        <g id="edge12" class="edge">
            <title>Node8&#45;&gt;Node5</title>
            <path fill="none" stroke="#191970"
                  d="M586.3464,-55.4179C579.1521,-47.5041 568.5341,-35.8243 559.8075,-26.2251"/>
            <polygon fill="#191970" stroke="#191970"
                     points="562.3553,-23.8245 553.0388,-18.7795 557.1757,-28.5332 562.3553,-23.8245"/>
        </g>
        <!-- Node8&#45;&gt;Node6 -->
        <g id="edge10" class="edge">
            <title>Node8&#45;&gt;Node6</title>
            <path fill="none" stroke="#191970"
                  d="M614.2533,-55.4179C633.4599,-46.5409 662.9192,-32.9253 684.7769,-22.823"/>
            <polygon fill="#191970" stroke="#191970"
                     points="686.3143,-25.9682 693.9233,-18.5956 683.3775,-19.614 686.3143,-25.9682"/>
        </g>
        <!-- Node9&#45;&gt;Node1 -->
        <g id="edge16" class="edge">
            <title>Node9&#45;&gt;Node1</title>
            <path fill="none" stroke="#191970"
                  d="M365.4001,-110.3319C347.321,-97.017 312.0549,-72.0597 279.6029,-55 251.769,-40.368 218.1515,-27.2778 195.0544,-18.9367"/>
            <polygon fill="#191970" stroke="#191970"
                     points="196.1392,-15.6078 185.5445,-15.5561 193.7945,-22.2035 196.1392,-15.6078"/>
        </g>
        <!-- Node9&#45;&gt;Node3 -->
        <g id="edge19" class="edge">
            <title>Node9&#45;&gt;Node3</title>
            <path fill="none" stroke="#191970"
                  d="M348.9631,-115.0337C304.0796,-107.8735 214.2575,-92.8983 128.9112,-74.1656"/>
            <polygon fill="#191970" stroke="#191970"
                     points="129.5869,-70.7304 119.0664,-71.9832 128.0719,-77.5645 129.5869,-70.7304"/>
        </g>
        <!-- Node9&#45;&gt;Node5 -->
        <g id="edge15" class="edge">
            <title>Node9&#45;&gt;Node5</title>
            <path fill="none" stroke="#191970"
                  d="M391.2692,-110.4982C420.0159,-91.5633 486.9779,-47.4566 522.1347,-24.2994"/>
            <polygon fill="#191970" stroke="#191970"
                     points="524.3219,-27.0499 530.7477,-18.6261 520.4713,-21.204 524.3219,-27.0499"/>
        </g>
        <!-- Node9&#45;&gt;Node6 -->
        <g id="edge14" class="edge">
            <title>Node9&#45;&gt;Node6</title>
            <path fill="none" stroke="#191970"
                  d="M406.4331,-118.2097C472.3866,-114.7721 631.9348,-103.5526 675.6029,-74 691.5398,-63.2146 701.7532,-43.3292 707.5328,-28.4779"/>
            <polygon fill="#191970" stroke="#191970"
                     points="710.9367,-29.3504 710.9759,-18.7556 704.3383,-27.0135 710.9367,-29.3504"/>
        </g>
        <!-- Node9&#45;&gt;Node7 -->
        <g id="edge17" class="edge">
            <title>Node9&#45;&gt;Node7</title>
            <path fill="none" stroke="#191970"
                  d="M348.8703,-110.4179C319.5659,-101.155 273.9383,-86.7325 241.6488,-76.526"/>
            <polygon fill="#191970" stroke="#191970"
                     points="242.6788,-73.181 232.0889,-73.5042 240.569,-79.8555 242.6788,-73.181"/>
        </g>
        <!-- Node9&#45;&gt;Node8 -->
        <g id="edge20" class="edge">
            <title>Node9&#45;&gt;Node8</title>
            <path fill="none" stroke="#191970"
                  d="M406.4188,-112.1964C442.8147,-102.9717 505.8715,-86.9895 548.8749,-76.09"/>
            <polygon fill="#191970" stroke="#191970"
                     points="549.9732,-79.4224 558.8068,-73.5727 548.2534,-72.637 549.9732,-79.4224"/>
        </g>
        <!-- Node10 -->
        <g id="node11" class="node">
            <title>Node10</title>
            <polygon fill="none" stroke="#bfbfbf"
                     points="326.8099,-55.5 326.8099,-73.5 428.3959,-73.5 428.3959,-55.5 326.8099,-55.5"/>
            <text text-anchor="middle" x="377.6029" y="-61.5" font-family="Helvetica,sans-Serif" font-size="10.00"
                  fill="#000000">gtkmm/treemodel.h
            </text>
        </g>
        <!-- Node9&#45;&gt;Node10 -->
        <g id="edge18" class="edge">
            <title>Node9&#45;&gt;Node10</title>
            <path fill="none" stroke="#191970"
                  d="M377.6029,-110.4179C377.6029,-103.2164 377.6029,-92.8962 377.6029,-83.8632"/>
            <polygon fill="#191970" stroke="#191970"
                     points="381.103,-83.7794 377.6029,-73.7795 374.103,-83.7795 381.103,-83.7794"/>
        </g>
        <!-- Node11&#45;&gt;Node5 -->
        <g id="edge25" class="edge">
            <title>Node11&#45;&gt;Node5</title>
            <path fill="none" stroke="#191970"
                  d="M797.284,-110.3631C770.7781,-97.3035 720.0343,-72.9018 675.6029,-55 642.1381,-41.5168 602.9634,-28.2279 576.2308,-19.526"/>
            <polygon fill="#191970" stroke="#191970"
                     points="577.224,-16.1688 566.6323,-16.4247 575.0718,-22.8298 577.224,-16.1688"/>
        </g>
        <!-- Node11&#45;&gt;Node6 -->
        <g id="edge23" class="edge">
            <title>Node11&#45;&gt;Node6</title>
            <path fill="none" stroke="#191970"
                  d="M831.5623,-110.4002C851.2772,-97.9875 880.4943,-75.0019 865.6029,-55 851.0689,-35.4782 784.1759,-21.2275 744.1326,-14.2726"/>
            <polygon fill="#191970" stroke="#191970"
                     points="744.5395,-10.7919 734.0973,-12.5843 743.3781,-17.6949 744.5395,-10.7919"/>
        </g>
        <!-- Node11&#45;&gt;Node8 -->
        <g id="edge26" class="edge">
            <title>Node11&#45;&gt;Node8</title>
            <path fill="none" stroke="#191970"
                  d="M779.1092,-110.4179C741.1673,-100.9753 681.681,-86.171 640.5585,-75.9369"/>
            <polygon fill="#191970" stroke="#191970"
                     points="641.3327,-72.5229 630.7834,-73.5042 639.6422,-79.3157 641.3327,-72.5229"/>
        </g>
        <!-- Node12 -->
        <g id="node13" class="node">
            <title>Node12</title>
            <polygon fill="none" stroke="#bfbfbf"
                     points="912.9798,-55.5 912.9798,-73.5 966.2259,-73.5 966.2259,-55.5 912.9798,-55.5"/>
            <text text-anchor="middle" x="939.6029" y="-61.5" font-family="Helvetica,sans-Serif" font-size="10.00"
                  fill="#000000">sqlite3.h
            </text>
        </g>
        <!-- Node11&#45;&gt;Node12 -->
        <g id="edge22" class="edge">
            <title>Node11&#45;&gt;Node12</title>
            <path fill="none" stroke="#191970"
                  d="M836.079,-110.4179C856.1823,-101.5011 887.0651,-87.803 909.8716,-77.6873"/>
            <polygon fill="#191970" stroke="#191970"
                     points="911.3743,-80.8496 919.0964,-73.5956 908.5361,-74.4508 911.3743,-80.8496"/>
        </g>
        <!-- Node13 -->
        <g id="node14" class="node">
            <title>Node13</title>
            <polygon fill="none" stroke="#bfbfbf"
                     points="798.2015,-55.5 798.2015,-73.5 857.0043,-73.5 857.0043,-55.5 798.2015,-55.5"/>
            <text text-anchor="middle" x="827.6029" y="-61.5" font-family="Helvetica,sans-Serif" font-size="10.00"
                  fill="#000000">stdexcept
            </text>
        </g>
        <!-- Node11&#45;&gt;Node13 -->
        <g id="edge24" class="edge">
            <title>Node11&#45;&gt;Node13</title>
            <path fill="none" stroke="#191970"
                  d="M817.5844,-110.4179C819.1729,-103.1372 821.4569,-92.669 823.4431,-83.5659"/>
            <polygon fill="#191970" stroke="#191970"
                     points="826.8661,-84.2957 825.5783,-73.7795 820.027,-82.8035 826.8661,-84.2957"/>
        </g>
    </g>
</svg>
