<?xml version="1.0" encoding="UTF-8" standalone="no"?>
<!DOCTYPE svg PUBLIC "-//W3C//DTD SVG 1.1//EN"
        "http://www.w3.org/Graphics/SVG/1.1/DTD/svg11.dtd">
<!-- Generated by graphviz version 2.40.1 (20161225.0304)
 -->
<!-- Title: code/model/Prescription.cpp Pages: 1 -->
<svg width="685pt" height="247pt"
     viewBox="0.00 0.00 685.09 247.00" xmlns="http://www.w3.org/2000/svg" xmlns:xlink="http://www.w3.org/1999/xlink">
    <g id="graph0" class="graph" transform="scale(1 1) rotate(0) translate(4 243)">
        <title>code/model/Prescription.cpp</title>
        <!-- Node0 -->
        <g id="node1" class="node">
            <title>Node0</title>
            <polygon fill="#bfbfbf" stroke="#000000"
                     points="255.3749,-220.5 255.3749,-238.5 397.5516,-238.5 397.5516,-220.5 255.3749,-220.5"/>
            <text text-anchor="middle" x="326.4632" y="-226.5" font-family="Helvetica,sans-Serif" font-size="10.00"
                  fill="#000000">code/model/Prescription.cpp
            </text>
        </g>
        <!-- Node1 -->
        <g id="node2" class="node">
            <title>Node1</title>
            <polygon fill="none" stroke="#bfbfbf"
                     points="68.7367,-.5 68.7367,-18.5 104.1898,-18.5 104.1898,-.5 68.7367,-.5"/>
            <text text-anchor="middle" x="86.4632" y="-6.5" font-family="Helvetica,sans-Serif" font-size="10.00"
                  fill="#000000">map
            </text>
        </g>
        <!-- Node0&#45;&gt;Node1 -->
        <g id="edge1" class="edge">
            <title>Node0&#45;&gt;Node1</title>
            <path fill="none" stroke="#191970"
                  d="M255.3431,-221.2733C173.8111,-207.3507 45.8351,-170.4531 2.4632,-74 -10.1504,-45.9489 29.5853,-27.0171 58.6431,-17.2639"/>
            <polygon fill="#191970" stroke="#191970"
                     points="59.8874,-20.5416 68.3726,-14.197 57.7829,-13.8654 59.8874,-20.5416"/>
        </g>
        <!-- Node2 -->
        <g id="node3" class="node">
            <title>Node2</title>
            <polygon fill="none" stroke="#bfbfbf"
                     points="390.6825,-165.5 390.6825,-183.5 442.244,-183.5 442.244,-165.5 390.6825,-165.5"/>
            <text text-anchor="middle" x="416.4632" y="-171.5" font-family="Helvetica,sans-Serif" font-size="10.00"
                  fill="#000000">sstream
            </text>
        </g>
        <!-- Node0&#45;&gt;Node2 -->
        <g id="edge2" class="edge">
            <title>Node0&#45;&gt;Node2</title>
            <path fill="none" stroke="#191970"
                  d="M341.3249,-220.4179C355.2646,-211.8992 376.3452,-199.0166 392.6333,-189.0627"/>
            <polygon fill="#191970" stroke="#191970"
                     points="394.8718,-191.7967 401.5795,-183.5956 391.2216,-185.8237 394.8718,-191.7967"/>
        </g>
        <!-- Node3 -->
        <g id="node4" class="node">
            <title>Node3</title>
            <g id="a_node4">
                <a xlink:href="../../de/d01/_prescription_8hpp.html" target="_top" xlink:title="Prescription.hpp">
                    <polygon fill="none" stroke="#000000"
                             points="246.3329,-165.5 246.3329,-183.5 334.5936,-183.5 334.5936,-165.5 246.3329,-165.5"/>
                    <text text-anchor="middle" x="290.4632" y="-171.5" font-family="Helvetica,sans-Serif"
                          font-size="10.00" fill="#000000">Prescription.hpp
                    </text>
                </a>
            </g>
        </g>
        <!-- Node0&#45;&gt;Node3 -->
        <g id="edge3" class="edge">
            <title>Node0&#45;&gt;Node3</title>
            <path fill="none" stroke="#191970"
                  d="M320.5186,-220.4179C315.5459,-212.8207 308.3014,-201.7527 302.1708,-192.3866"/>
            <polygon fill="#191970" stroke="#191970"
                     points="304.9422,-190.2297 296.5371,-183.7795 299.0852,-194.0633 304.9422,-190.2297"/>
        </g>
        <!-- Node9 -->
        <g id="node10" class="node">
            <title>Node9</title>
            <g id="a_node10">
                <a xlink:href="../../d7/d0f/_d_b_master_8hpp.html" target="_top" xlink:title="../DBMaster.hpp">
                    <polygon fill="none" stroke="#000000"
                             points="509.6112,-110.5 509.6112,-128.5 597.3153,-128.5 597.3153,-110.5 509.6112,-110.5"/>
                    <text text-anchor="middle" x="553.4632" y="-116.5" font-family="Helvetica,sans-Serif"
                          font-size="10.00" fill="#000000">../DBMaster.hpp
                    </text>
                </a>
            </g>
        </g>
        <!-- Node0&#45;&gt;Node9 -->
        <g id="edge17" class="edge">
            <title>Node0&#45;&gt;Node9</title>
            <path fill="none" stroke="#191970"
                  d="M331.6293,-220.4861C340.1588,-206.433 358.5453,-179.4217 381.4632,-165 401.0673,-152.6636 456.7345,-139.1654 499.4815,-130.1006"/>
            <polygon fill="#191970" stroke="#191970"
                     points="500.4159,-133.4811 509.4881,-128.0089 498.9835,-126.6292 500.4159,-133.4811"/>
        </g>
        <!-- Node3&#45;&gt;Node1 -->
        <g id="edge6" class="edge">
            <title>Node3&#45;&gt;Node1</title>
            <path fill="none" stroke="#191970"
                  d="M247.888,-165.4631C176.6765,-149.3891 38.4354,-113.7594 10.4632,-74 -6.1047,-50.4505 30.9668,-30.2665 58.9522,-19.021"/>
            <polygon fill="#191970" stroke="#191970"
                     points="60.2757,-22.2622 68.3693,-15.4252 57.7786,-15.7227 60.2757,-22.2622"/>
        </g>
        <!-- Node4 -->
        <g id="node5" class="node">
            <title>Node4</title>
            <polygon fill="none" stroke="#bfbfbf"
                     points="409.8475,-55.5 409.8475,-73.5 453.079,-73.5 453.079,-55.5 409.8475,-55.5"/>
            <text text-anchor="middle" x="431.4632" y="-61.5" font-family="Helvetica,sans-Serif" font-size="10.00"
                  fill="#000000">vector
            </text>
        </g>
        <!-- Node3&#45;&gt;Node4 -->
        <g id="edge4" class="edge">
            <title>Node3&#45;&gt;Node4</title>
            <path fill="none" stroke="#191970"
                  d="M302.0019,-165.4982C326.0665,-146.7244 381.8498,-103.2055 411.7294,-79.8952"/>
            <polygon fill="#191970" stroke="#191970"
                     points="414.0336,-82.5368 419.7652,-73.6261 409.7278,-77.0176 414.0336,-82.5368"/>
        </g>
        <!-- Node5 -->
        <g id="node6" class="node">
            <title>Node5</title>
            <polygon fill="none" stroke="#bfbfbf"
                     points="380.2367,-.5 380.2367,-18.5 420.6898,-18.5 420.6898,-.5 380.2367,-.5"/>
            <text text-anchor="middle" x="400.4632" y="-6.5" font-family="Helvetica,sans-Serif" font-size="10.00"
                  fill="#000000">string
            </text>
        </g>
        <!-- Node3&#45;&gt;Node5 -->
        <g id="edge5" class="edge">
            <title>Node3&#45;&gt;Node5</title>
            <path fill="none" stroke="#191970"
                  d="M326.3711,-165.3932C367.8561,-152.7073 434.0454,-125.2728 462.4632,-74 473.6135,-53.8821 451.1176,-35.4563 430.1704,-23.4967"/>
            <polygon fill="#191970" stroke="#191970"
                     points="431.5539,-20.2672 421.0867,-18.6275 428.2468,-26.4368 431.5539,-20.2672"/>
        </g>
        <!-- Node6 -->
        <g id="node7" class="node">
            <title>Node6</title>
            <polygon fill="none" stroke="#bfbfbf"
                     points="19.5521,-55.5 19.5521,-73.5 153.3744,-73.5 153.3744,-55.5 19.5521,-55.5"/>
            <text text-anchor="middle" x="86.4632" y="-61.5" font-family="Helvetica,sans-Serif" font-size="10.00"
                  fill="#000000">gtkmm/treemodelcolumn.h
            </text>
        </g>
        <!-- Node3&#45;&gt;Node6 -->
        <g id="edge7" class="edge">
            <title>Node3&#45;&gt;Node6</title>
            <path fill="none" stroke="#191970"
                  d="M272.5147,-165.4205C254.6722,-156.3476 226.562,-141.9261 202.4632,-129 170.8738,-112.056 134.8409,-91.8868 111.4302,-78.6692"/>
            <polygon fill="#191970" stroke="#191970"
                     points="112.9446,-75.5047 102.5172,-73.6284 109.4986,-81.5978 112.9446,-75.5047"/>
        </g>
        <!-- Node7 -->
        <g id="node8" class="node">
            <title>Node7</title>
            <g id="a_node8">
                <a xlink:href="../../d3/d1b/_i_serializable_8hpp.html" target="_top"
                   xlink:title="../interfaces/ISerializable.hpp">
                    <polygon fill="none" stroke="#000000"
                             points="247.2616,-55.5 247.2616,-73.5 391.6649,-73.5 391.6649,-55.5 247.2616,-55.5"/>
                    <text text-anchor="middle" x="319.4632" y="-61.5" font-family="Helvetica,sans-Serif"
                          font-size="10.00" fill="#000000">../interfaces/ISerializable.hpp
                    </text>
                </a>
            </g>
        </g>
        <!-- Node3&#45;&gt;Node7 -->
        <g id="edge8" class="edge">
            <title>Node3&#45;&gt;Node7</title>
            <path fill="none" stroke="#191970"
                  d="M292.8364,-165.4982C297.5522,-147.6108 308.1903,-107.2594 314.4997,-83.3271"/>
            <polygon fill="#191970" stroke="#191970"
                     points="317.8923,-84.188 317.0573,-73.6261 311.1236,-82.4035 317.8923,-84.188"/>
        </g>
        <!-- Node8 -->
        <g id="node9" class="node">
            <title>Node8</title>
            <g id="a_node9">
                <a xlink:href="../../dd/df9/_drug_8hpp.html" target="_top" xlink:title="Drug.hpp">
                    <polygon fill="none" stroke="#000000"
                             points="211.8944,-110.5 211.8944,-128.5 269.0321,-128.5 269.0321,-110.5 211.8944,-110.5"/>
                    <text text-anchor="middle" x="240.4632" y="-116.5" font-family="Helvetica,sans-Serif"
                          font-size="10.00" fill="#000000">Drug.hpp
                    </text>
                </a>
            </g>
        </g>
        <!-- Node3&#45;&gt;Node8 -->
        <g id="edge11" class="edge">
            <title>Node3&#45;&gt;Node8</title>
            <path fill="none" stroke="#191970"
                  d="M282.2068,-165.4179C275.0124,-157.5041 264.3944,-145.8243 255.6679,-136.2251"/>
            <polygon fill="#191970" stroke="#191970"
                     points="258.2157,-133.8245 248.8991,-128.7795 253.0361,-138.5332 258.2157,-133.8245"/>
        </g>
        <!-- Node7&#45;&gt;Node1 -->
        <g id="edge10" class="edge">
            <title>Node7&#45;&gt;Node1</title>
            <path fill="none" stroke="#191970"
                  d="M281.2489,-55.4795C234.3364,-44.4057 155.902,-25.8911 114.3172,-16.075"/>
            <polygon fill="#191970" stroke="#191970"
                     points="114.8769,-12.611 104.3403,-13.7199 113.2687,-19.4237 114.8769,-12.611"/>
        </g>
        <!-- Node7&#45;&gt;Node5 -->
        <g id="edge9" class="edge">
            <title>Node7&#45;&gt;Node5</title>
            <path fill="none" stroke="#191970"
                  d="M332.8387,-55.4179C345.2672,-46.9788 364.003,-34.257 378.6042,-24.3426"/>
            <polygon fill="#191970" stroke="#191970"
                     points="380.7609,-27.1088 387.0679,-18.5956 376.8286,-21.3176 380.7609,-27.1088"/>
        </g>
        <!-- Node8&#45;&gt;Node1 -->
        <g id="edge14" class="edge">
            <title>Node8&#45;&gt;Node1</title>
            <path fill="none" stroke="#191970"
                  d="M230.2664,-110.2127C215.7386,-97.183 188.0066,-73.0511 162.4632,-55 146.2388,-43.5344 127.0351,-32.0538 111.9908,-23.4931"/>
            <polygon fill="#191970" stroke="#191970"
                     points="113.6573,-20.4148 103.225,-18.5664 110.2276,-26.5171 113.6573,-20.4148"/>
        </g>
        <!-- Node8&#45;&gt;Node4 -->
        <g id="edge13" class="edge">
            <title>Node8&#45;&gt;Node4</title>
            <path fill="none" stroke="#191970"
                  d="M269.1276,-111.5377C299.3059,-103.1135 348.4368,-89.2821 400.1232,-74.0579"/>
            <polygon fill="#191970" stroke="#191970"
                     points="401.2008,-77.3892 409.7999,-71.2 399.2181,-70.6759 401.2008,-77.3892"/>
        </g>
        <!-- Node8&#45;&gt;Node5 -->
        <g id="edge12" class="edge">
            <title>Node8&#45;&gt;Node5</title>
            <path fill="none" stroke="#191970"
                  d="M236.8187,-110.0708C232.2202,-96.4307 226.2833,-71.0721 238.4632,-55 254.3225,-34.0727 327.7906,-20.1002 370.1405,-13.6342"/>
            <polygon fill="#191970" stroke="#191970"
                     points="370.801,-17.0747 380.1829,-12.1523 369.7791,-10.1497 370.801,-17.0747"/>
        </g>
        <!-- Node8&#45;&gt;Node6 -->
        <g id="edge15" class="edge">
            <title>Node8&#45;&gt;Node6</title>
            <path fill="none" stroke="#191970"
                  d="M215.0333,-110.4179C189.4325,-101.2748 149.7561,-87.1046 121.2505,-76.924"/>
            <polygon fill="#191970" stroke="#191970"
                     points="122.2697,-73.5715 111.675,-73.5042 119.9153,-80.1637 122.2697,-73.5715"/>
        </g>
        <!-- Node8&#45;&gt;Node7 -->
        <g id="edge16" class="edge">
            <title>Node8&#45;&gt;Node7</title>
            <path fill="none" stroke="#191970"
                  d="M253.5085,-110.4179C265.6301,-101.9788 283.9032,-89.257 298.1439,-79.3426"/>
            <polygon fill="#191970" stroke="#191970"
                     points="300.1915,-82.1818 306.3986,-73.5956 296.1919,-76.4369 300.1915,-82.1818"/>
        </g>
        <!-- Node9&#45;&gt;Node4 -->
        <g id="edge21" class="edge">
            <title>Node9&#45;&gt;Node4</title>
            <path fill="none" stroke="#191970"
                  d="M533.3174,-110.4179C513.6267,-101.5409 483.4247,-87.9253 461.016,-77.823"/>
            <polygon fill="#191970" stroke="#191970"
                     points="462.1939,-74.5148 451.639,-73.5956 459.3169,-80.8963 462.1939,-74.5148"/>
        </g>
        <!-- Node9&#45;&gt;Node5 -->
        <g id="edge19" class="edge">
            <title>Node9&#45;&gt;Node5</title>
            <path fill="none" stroke="#191970"
                  d="M546.9008,-110.116C537.0227,-96.5323 517.1645,-71.2433 495.4632,-55 475.5496,-40.0947 449.978,-28.1836 430.3827,-20.2927"/>
            <polygon fill="#191970" stroke="#191970"
                     points="431.607,-17.0135 421.0187,-16.6425 429.0646,-23.5355 431.607,-17.0135"/>
        </g>
        <!-- Node9&#45;&gt;Node7 -->
        <g id="edge22" class="edge">
            <title>Node9&#45;&gt;Node7</title>
            <path fill="none" stroke="#191970"
                  d="M515.0849,-110.4795C474.7882,-101.008 411.333,-86.0933 367.6822,-75.8335"/>
            <polygon fill="#191970" stroke="#191970"
                     points="368.3981,-72.4065 357.8625,-73.5255 366.7964,-79.2208 368.3981,-72.4065"/>
        </g>
        <!-- Node10 -->
        <g id="node11" class="node">
            <title>Node10</title>
            <polygon fill="none" stroke="#bfbfbf"
                     points="623.8402,-55.5 623.8402,-73.5 677.0863,-73.5 677.0863,-55.5 623.8402,-55.5"/>
            <text text-anchor="middle" x="650.4632" y="-61.5" font-family="Helvetica,sans-Serif" font-size="10.00"
                  fill="#000000">sqlite3.h
            </text>
        </g>
        <!-- Node9&#45;&gt;Node10 -->
        <g id="edge18" class="edge">
            <title>Node9&#45;&gt;Node10</title>
            <path fill="none" stroke="#191970"
                  d="M569.4808,-110.4179C584.6452,-101.8195 607.6503,-88.7754 625.2707,-78.7844"/>
            <polygon fill="#191970" stroke="#191970"
                     points="627.4493,-81.5727 634.4219,-73.5956 623.9966,-75.4834 627.4493,-81.5727"/>
        </g>
        <!-- Node11 -->
        <g id="node12" class="node">
            <title>Node11</title>
            <polygon fill="none" stroke="#bfbfbf"
                     points="547.0619,-55.5 547.0619,-73.5 605.8646,-73.5 605.8646,-55.5 547.0619,-55.5"/>
            <text text-anchor="middle" x="576.4632" y="-61.5" font-family="Helvetica,sans-Serif" font-size="10.00"
                  fill="#000000">stdexcept
            </text>
        </g>
        <!-- Node9&#45;&gt;Node11 -->
        <g id="edge20" class="edge">
            <title>Node9&#45;&gt;Node11</title>
            <path fill="none" stroke="#191970"
                  d="M557.2612,-110.4179C560.339,-103.0581 564.7788,-92.441 568.6142,-83.2695"/>
            <polygon fill="#191970" stroke="#191970"
                     points="571.9537,-84.3556 572.5827,-73.7795 565.4956,-81.6549 571.9537,-84.3556"/>
        </g>
    </g>
</svg>
