<?xml version="1.0" encoding="UTF-8" standalone="no"?>
<!DOCTYPE svg PUBLIC "-//W3C//DTD SVG 1.1//EN"
        "http://www.w3.org/Graphics/SVG/1.1/DTD/svg11.dtd">
<!-- Generated by graphviz version 2.40.1 (20161225.0304)
 -->
<!-- Title: code/model/Patient.hpp Pages: 1 -->
<svg width="507pt" height="247pt"
     viewBox="0.00 0.00 506.75 247.00" xmlns="http://www.w3.org/2000/svg" xmlns:xlink="http://www.w3.org/1999/xlink">
    <g id="graph0" class="graph" transform="scale(1 1) rotate(0) translate(4 243)">
        <title>code/model/Patient.hpp</title>
        <!-- Node0 -->
        <g id="node1" class="node">
            <title>Node0</title>
            <polygon fill="#bfbfbf" stroke="#000000"
                     points="158.5768,-220.5 158.5768,-238.5 279.65,-238.5 279.65,-220.5 158.5768,-220.5"/>
            <text text-anchor="middle" x="219.1134" y="-226.5" font-family="Helvetica,sans-Serif" font-size="10.00"
                  fill="#000000">code/model/Patient.hpp
            </text>
        </g>
        <!-- Node1 -->
        <g id="node2" class="node">
            <title>Node1</title>
            <polygon fill="none" stroke="#bfbfbf"
                     points="14.4977,-55.5 14.4977,-73.5 57.7291,-73.5 57.7291,-55.5 14.4977,-55.5"/>
            <text text-anchor="middle" x="36.1134" y="-61.5" font-family="Helvetica,sans-Serif" font-size="10.00"
                  fill="#000000">vector
            </text>
        </g>
        <!-- Node0&#45;&gt;Node1 -->
        <g id="edge1" class="edge">
            <title>Node0&#45;&gt;Node1</title>
            <path fill="none" stroke="#191970"
                  d="M204.6231,-220.4419C191.0773,-211.7266 170.5319,-197.8634 154.1134,-184 114.2582,-150.3472 72.4782,-105.3679 50.9288,-81.3291"/>
            <polygon fill="#191970" stroke="#191970"
                     points="53.449,-78.8962 44.1865,-73.7524 48.2197,-83.5496 53.449,-78.8962"/>
        </g>
        <!-- Node2 -->
        <g id="node3" class="node">
            <title>Node2</title>
            <polygon fill="none" stroke="#bfbfbf"
                     points="284.8868,-.5 284.8868,-18.5 325.3399,-18.5 325.3399,-.5 284.8868,-.5"/>
            <text text-anchor="middle" x="305.1134" y="-6.5" font-family="Helvetica,sans-Serif" font-size="10.00"
                  fill="#000000">string
            </text>
        </g>
        <!-- Node0&#45;&gt;Node2 -->
        <g id="edge2" class="edge">
            <title>Node0&#45;&gt;Node2</title>
            <path fill="none" stroke="#191970"
                  d="M261.0041,-220.4852C325.3943,-204.077 446.3507,-162.5168 495.1134,-74 499.188,-66.6036 500.3432,-61.6301 495.1134,-55 475.5839,-30.2415 384.1914,-17.4451 335.6292,-12.2953"/>
            <polygon fill="#191970" stroke="#191970"
                     points="335.698,-8.7844 325.3955,-11.2562 334.9908,-15.7486 335.698,-8.7844"/>
        </g>
        <!-- Node3 -->
        <g id="node4" class="node">
            <title>Node3</title>
            <polygon fill="none" stroke="#bfbfbf"
                     points="352.2023,-55.5 352.2023,-73.5 486.0245,-73.5 486.0245,-55.5 352.2023,-55.5"/>
            <text text-anchor="middle" x="419.1134" y="-61.5" font-family="Helvetica,sans-Serif" font-size="10.00"
                  fill="#000000">gtkmm/treemodelcolumn.h
            </text>
        </g>
        <!-- Node0&#45;&gt;Node3 -->
        <g id="edge3" class="edge">
            <title>Node0&#45;&gt;Node3</title>
            <path fill="none" stroke="#191970"
                  d="M235.6449,-220.3016C264.0616,-204.0501 323.2452,-168.2466 366.1134,-129 381.7475,-114.6867 396.8161,-95.6765 406.8628,-82.0075"/>
            <polygon fill="#191970" stroke="#191970"
                     points="409.9678,-83.6842 412.9611,-73.5209 404.2833,-79.5993 409.9678,-83.6842"/>
        </g>
        <!-- Node4 -->
        <g id="node5" class="node">
            <title>Node4</title>
            <g id="a_node5">
                <a xlink:href="../../d3/d1b/_i_serializable_8hpp.html" target="_top"
                   xlink:title="../interfaces/ISerializable.hpp">
                    <polygon fill="none" stroke="#000000"
                             points="75.9117,-55.5 75.9117,-73.5 220.315,-73.5 220.315,-55.5 75.9117,-55.5"/>
                    <text text-anchor="middle" x="148.1134" y="-61.5" font-family="Helvetica,sans-Serif"
                          font-size="10.00" fill="#000000">../interfaces/ISerializable.hpp
                    </text>
                </a>
            </g>
        </g>
        <!-- Node0&#45;&gt;Node4 -->
        <g id="edge4" class="edge">
            <title>Node0&#45;&gt;Node4</title>
            <path fill="none" stroke="#191970"
                  d="M203.4139,-220.4234C191.16,-212.4574 174.8038,-199.7037 166.1134,-184 148.4859,-152.1469 146.4849,-108.5729 147.0254,-83.8014"/>
            <polygon fill="#191970" stroke="#191970"
                     points="150.532,-83.696 147.4214,-73.5681 143.5372,-83.4253 150.532,-83.696"/>
        </g>
        <!-- Node6 -->
        <g id="node7" class="node">
            <title>Node6</title>
            <g id="a_node7">
                <a xlink:href="../../de/d01/_prescription_8hpp.html" target="_top" xlink:title="Prescription.hpp">
                    <polygon fill="none" stroke="#000000"
                             points="174.983,-165.5 174.983,-183.5 263.2438,-183.5 263.2438,-165.5 174.983,-165.5"/>
                    <text text-anchor="middle" x="219.1134" y="-171.5" font-family="Helvetica,sans-Serif"
                          font-size="10.00" fill="#000000">Prescription.hpp
                    </text>
                </a>
            </g>
        </g>
        <!-- Node0&#45;&gt;Node6 -->
        <g id="edge7" class="edge">
            <title>Node0&#45;&gt;Node6</title>
            <path fill="none" stroke="#191970"
                  d="M219.1134,-220.4179C219.1134,-213.2164 219.1134,-202.8962 219.1134,-193.8632"/>
            <polygon fill="#191970" stroke="#191970"
                     points="222.6135,-193.7794 219.1134,-183.7795 215.6135,-193.7795 222.6135,-193.7794"/>
        </g>
        <!-- Node4&#45;&gt;Node2 -->
        <g id="edge5" class="edge">
            <title>Node4&#45;&gt;Node2</title>
            <path fill="none" stroke="#191970"
                  d="M174.0387,-55.4179C201.7743,-45.7016 245.7152,-30.3083 274.973,-20.0587"/>
            <polygon fill="#191970" stroke="#191970"
                     points="276.3784,-23.275 284.6589,-16.6656 274.064,-16.6687 276.3784,-23.275"/>
        </g>
        <!-- Node5 -->
        <g id="node6" class="node">
            <title>Node5</title>
            <polygon fill="none" stroke="#bfbfbf"
                     points="130.3868,-.5 130.3868,-18.5 165.8399,-18.5 165.8399,-.5 130.3868,-.5"/>
            <text text-anchor="middle" x="148.1134" y="-6.5" font-family="Helvetica,sans-Serif" font-size="10.00"
                  fill="#000000">map
            </text>
        </g>
        <!-- Node4&#45;&gt;Node5 -->
        <g id="edge6" class="edge">
            <title>Node4&#45;&gt;Node5</title>
            <path fill="none" stroke="#191970"
                  d="M148.1134,-55.4179C148.1134,-48.2164 148.1134,-37.8962 148.1134,-28.8632"/>
            <polygon fill="#191970" stroke="#191970"
                     points="151.6135,-28.7794 148.1134,-18.7795 144.6135,-28.7795 151.6135,-28.7794"/>
        </g>
        <!-- Node6&#45;&gt;Node1 -->
        <g id="edge8" class="edge">
            <title>Node6&#45;&gt;Node1</title>
            <path fill="none" stroke="#191970"
                  d="M207.1349,-165.3897C189.7591,-152.3623 156.3303,-127.9994 126.1134,-110 106.3145,-98.2063 83.0828,-86.5119 65.1823,-77.9325"/>
            <polygon fill="#191970" stroke="#191970"
                     points="66.3772,-74.6257 55.8417,-73.5058 63.3793,-80.9512 66.3772,-74.6257"/>
        </g>
        <!-- Node6&#45;&gt;Node2 -->
        <g id="edge9" class="edge">
            <title>Node6&#45;&gt;Node2</title>
            <path fill="none" stroke="#191970"
                  d="M240.77,-165.4935C255.9637,-158.009 275.4071,-145.8529 286.1134,-129 305.7479,-98.0929 307.4533,-53.8742 306.5422,-28.7994"/>
            <polygon fill="#191970" stroke="#191970"
                     points="310.0332,-28.5371 305.9945,-18.7422 303.0436,-28.9178 310.0332,-28.5371"/>
        </g>
        <!-- Node6&#45;&gt;Node3 -->
        <g id="edge11" class="edge">
            <title>Node6&#45;&gt;Node3</title>
            <path fill="none" stroke="#191970"
                  d="M250.3591,-165.467C275.0703,-157.6464 309.9744,-145.068 338.1134,-129 362.0414,-115.3366 386.3545,-94.9115 402.0131,-80.7204"/>
            <polygon fill="#191970" stroke="#191970"
                     points="404.3893,-83.2902 409.3649,-73.9364 399.6421,-78.1458 404.3893,-83.2902"/>
        </g>
        <!-- Node6&#45;&gt;Node4 -->
        <g id="edge12" class="edge">
            <title>Node6&#45;&gt;Node4</title>
            <path fill="none" stroke="#191970"
                  d="M213.3032,-165.4982C201.5496,-147.2885 174.7694,-105.798 159.4409,-82.0496"/>
            <polygon fill="#191970" stroke="#191970"
                     points="162.3676,-80.1299 154.0039,-73.6261 156.4863,-83.9261 162.3676,-80.1299"/>
        </g>
        <!-- Node6&#45;&gt;Node5 -->
        <g id="edge10" class="edge">
            <title>Node6&#45;&gt;Node5</title>
            <path fill="none" stroke="#191970"
                  d="M174.6514,-167.8559C123.6545,-157.5973 42.3048,-132.5546 5.1134,-74 -22.8426,-29.9859 70.9949,-15.7301 120.0925,-11.3393"/>
            <polygon fill="#191970" stroke="#191970"
                     points="120.4285,-14.8236 130.1118,-10.5243 119.8609,-7.8467 120.4285,-14.8236"/>
        </g>
        <!-- Node7 -->
        <g id="node8" class="node">
            <title>Node7</title>
            <g id="a_node8">
                <a xlink:href="../../dd/df9/_drug_8hpp.html" target="_top" xlink:title="Drug.hpp">
                    <polygon fill="none" stroke="#000000"
                             points="219.5445,-110.5 219.5445,-128.5 276.6822,-128.5 276.6822,-110.5 219.5445,-110.5"/>
                    <text text-anchor="middle" x="248.1134" y="-116.5" font-family="Helvetica,sans-Serif"
                          font-size="10.00" fill="#000000">Drug.hpp
                    </text>
                </a>
            </g>
        </g>
        <!-- Node6&#45;&gt;Node7 -->
        <g id="edge13" class="edge">
            <title>Node6&#45;&gt;Node7</title>
            <path fill="none" stroke="#191970"
                  d="M223.9021,-165.4179C227.8662,-157.8998 233.6224,-146.9829 238.5276,-137.6799"/>
            <polygon fill="#191970" stroke="#191970"
                     points="241.6524,-139.2576 243.2206,-128.7795 235.4604,-135.9927 241.6524,-139.2576"/>
        </g>
        <!-- Node7&#45;&gt;Node1 -->
        <g id="edge15" class="edge">
            <title>Node7&#45;&gt;Node1</title>
            <path fill="none" stroke="#191970"
                  d="M219.467,-112.7771C185.5692,-104.7179 127.2143,-90.5192 67.6987,-74.0554"/>
            <polygon fill="#191970" stroke="#191970"
                     points="68.3246,-70.5966 57.7522,-71.2854 66.4466,-77.34 68.3246,-70.5966"/>
        </g>
        <!-- Node7&#45;&gt;Node2 -->
        <g id="edge14" class="edge">
            <title>Node7&#45;&gt;Node2</title>
            <path fill="none" stroke="#191970"
                  d="M252.7779,-110.4982C262.1304,-92.4496 283.3339,-51.5306 295.6906,-27.6843"/>
            <polygon fill="#191970" stroke="#191970"
                     points="298.8911,-29.1152 300.3844,-18.6261 292.6759,-25.8946 298.8911,-29.1152"/>
        </g>
        <!-- Node7&#45;&gt;Node3 -->
        <g id="edge17" class="edge">
            <title>Node7&#45;&gt;Node3</title>
            <path fill="none" stroke="#191970"
                  d="M276.3506,-110.4179C305.0256,-101.1949 349.6044,-86.8567 381.3124,-76.6582"/>
            <polygon fill="#191970" stroke="#191970"
                     points="382.6705,-79.8981 391.1185,-73.5042 380.5271,-73.2343 382.6705,-79.8981"/>
        </g>
        <!-- Node7&#45;&gt;Node4 -->
        <g id="edge18" class="edge">
            <title>Node7&#45;&gt;Node4</title>
            <path fill="none" stroke="#191970"
                  d="M231.6004,-110.4179C215.8223,-101.7399 191.8105,-88.5334 173.5819,-78.5077"/>
            <polygon fill="#191970" stroke="#191970"
                     points="175.0998,-75.3481 164.6509,-73.5956 171.7263,-81.4816 175.0998,-75.3481"/>
        </g>
        <!-- Node7&#45;&gt;Node5 -->
        <g id="edge16" class="edge">
            <title>Node7&#45;&gt;Node5</title>
            <path fill="none" stroke="#191970"
                  d="M247.5459,-110.1665C246.2809,-96.6457 242.2068,-71.4344 229.1134,-55 215.4187,-37.811 193.3551,-26.0299 175.7111,-18.7695"/>
            <polygon fill="#191970" stroke="#191970"
                     points="176.5199,-15.3308 165.9299,-15.0104 174.0087,-21.8649 176.5199,-15.3308"/>
        </g>
    </g>
</svg>
