<?xml version="1.0" encoding="UTF-8" standalone="no"?>
<!DOCTYPE svg PUBLIC "-//W3C//DTD SVG 1.1//EN"
        "http://www.w3.org/Graphics/SVG/1.1/DTD/svg11.dtd">
<!-- Generated by graphviz version 2.40.1 (20161225.0304)
 -->
<!-- Title: code/model/Patient.hpp Pages: 1 -->
<!--zoomable 247 -->
<svg id="main" version="1.1" xmlns="http://www.w3.org/2000/svg" xmlns:xlink="http://www.w3.org/1999/xlink" xml:space="preserve" onload="init(evt)">
<style type="text/css"><![CDATA[
.edge:hover path { stroke: red; }
.edge:hover polygon { stroke: red; fill: red; }
]]></style>
<script type="text/javascript"><![CDATA[
var edges = document.getElementsByTagName('g');
if (edges && edges.length) {
  for (var i=0;i<edges.length;i++) {
    if (edges[i].id.substr(0,4)=='edge') {
      edges[i].setAttribute('class','edge');
    }
  }
}
]]></script>
        <defs>
                <circle id="rim" cx="0" cy="0" r="7"/>
                <circle id="rim2" cx="0" cy="0" r="3.5"/>
                <g id="zoomPlus">
                        <use xlink:href="#rim" fill="#404040">
                                <set attributeName="fill" to="#808080" begin="zoomplus.mouseover" end="zoomplus.mouseout"/>
                        </use>
                        <path d="M-4,0h8M0,-4v8" fill="none" stroke="white" stroke-width="1.5" pointer-events="none"/>
                </g>
                <g id="zoomMin">
                        <use xlink:href="#rim" fill="#404040">
                                <set attributeName="fill" to="#808080" begin="zoomminus.mouseover" end="zoomminus.mouseout"/>
                        </use>
                        <path d="M-4,0h8" fill="none" stroke="white" stroke-width="1.5" pointer-events="none"/>
                </g>
                <g id="dirArrow">
                        <path fill="none" stroke="white" stroke-width="1.5" d="M0,-3.0v7 M-2.5,-0.5L0,-3.0L2.5,-0.5"/>
                </g>
               <g id="resetDef">
                       <use xlink:href="#rim2" fill="#404040">
                               <set attributeName="fill" to="#808080" begin="reset.mouseover" end="reset.mouseout"/>
                       </use>
               </g>
        </defs>

<script type="text/javascript">
var viewWidth = 707;
var viewHeight = 247;
var sectionId = 'dynsection-0';
</script>
<script xlink:href="../../svgpan.js"/>
<svg id="graph" class="graph">
<g id="viewport">
<title>code/model/Patient.hpp</title>
    <!-- Node0 -->
<g id="node1" class="node">
<title>Node0</title>
<polygon fill="#bfbfbf" stroke="#000000" points="396.0791,-220.5 396.0791,-238.5 517.1523,-238.5 517.1523,-220.5 396.0791,-220.5"/>
<text text-anchor="middle" x="456.6157" y="-226.5" font-family="Helvetica,sans-Serif" font-size="10.00" fill="#000000">code/model/Patient.hpp</text>
</g>
    <!-- Node1 -->
<g id="node2" class="node">
<title>Node1</title>
<polygon fill="none" stroke="#bfbfbf" points="0,-.5 0,-18.5 43.2314,-18.5 43.2314,-.5 0,-.5"/>
<text text-anchor="middle" x="21.6157" y="-6.5" font-family="Helvetica,sans-Serif" font-size="10.00" fill="#000000">vector</text>
</g>
    <!-- Node0&#45;&gt;Node1 -->
<g id="edge1" class="edge">
<title>Node0&#45;&gt;Node1</title>
<path fill="none" stroke="#191970" d="M396.0061,-220.6073C323.7497,-208.1298 201.0428,-180.898 107.6157,-129 75.7046,-111.2736 67.3304,-104.0573 46.6157,-74 37.0438,-60.111 30.4498,-42.047 26.4473,-28.57"/>
<polygon fill="#191970" stroke="#191970" points="29.8169,-27.623 23.7856,-18.9124 23.0685,-29.483 29.8169,-27.623"/>
</g>
    <!-- Node2 -->
<g id="node3" class="node">
<title>Node2</title>
<polygon fill="none" stroke="#bfbfbf" points="552.3892,-.5 552.3892,-18.5 592.8423,-18.5 592.8423,-.5 552.3892,-.5"/>
<text text-anchor="middle" x="572.6157" y="-6.5" font-family="Helvetica,sans-Serif" font-size="10.00" fill="#000000">string</text>
</g>
    <!-- Node0&#45;&gt;Node2 -->
<g id="edge2" class="edge">
<title>Node0&#45;&gt;Node2</title>
<path fill="none" stroke="#191970" d="M487.2554,-220.3702C541.1409,-202.4465 651.3519,-156.9877 695.6157,-74 716.2153,-35.379 645.7511,-19.0981 603.0135,-12.8942"/>
<polygon fill="#191970" stroke="#191970" points="603.4512,-9.4216 593.0741,-11.5582 602.5187,-16.3592 603.4512,-9.4216"/>
</g>
    <!-- Node3 -->
<g id="node4" class="node">
<title>Node3</title>
<polygon fill="none" stroke="#bfbfbf" points="536.7046,-55.5 536.7046,-73.5 670.5269,-73.5 670.5269,-55.5 536.7046,-55.5"/>
<text text-anchor="middle" x="603.6157" y="-61.5" font-family="Helvetica,sans-Serif" font-size="10.00" fill="#000000">gtkmm/treemodelcolumn.h</text>
</g>
    <!-- Node0&#45;&gt;Node3 -->
<g id="edge3" class="edge">
<title>Node0&#45;&gt;Node3</title>
<path fill="none" stroke="#191970" d="M464.9403,-220.1561C488.7925,-193.3832 557.6414,-116.1038 588.4264,-81.5492"/>
<polygon fill="#191970" stroke="#191970" points="591.3437,-83.5363 595.3825,-73.7414 586.1171,-78.8798 591.3437,-83.5363"/>
</g>
    <!-- Node4 -->
<g id="node5" class="node">
<title>Node4</title>
<g id="a_node5"><a xlink:href="../../d3/d1b/_i_serializable_8hpp.html" target="_top" xlink:title="../interfaces/ISerializable.hpp">
<polygon fill="none" stroke="#000000" points="374.4141,-55.5 374.4141,-73.5 518.8174,-73.5 518.8174,-55.5 374.4141,-55.5"/>
<text text-anchor="middle" x="446.6157" y="-61.5" font-family="Helvetica,sans-Serif" font-size="10.00" fill="#000000">../interfaces/ISerializable.hpp</text>
</a>
</g>
</g>
    <!-- Node0&#45;&gt;Node4 -->
<g id="edge4" class="edge">
<title>Node0&#45;&gt;Node4</title>
<path fill="none" stroke="#191970" d="M456.0494,-220.1561C454.4612,-193.9504 449.9403,-119.3557 447.7855,-83.8021"/>
<polygon fill="#191970" stroke="#191970" points="451.2744,-83.5113 447.1758,-73.7414 444.2873,-83.9348 451.2744,-83.5113"/>
</g>
    <!-- Node6 -->
<g id="node7" class="node">
<title>Node6</title>
<g id="a_node7"><a xlink:href="../../de/d01/_prescription_8hpp.html" target="_top" xlink:title="Prescription.hpp">
<polygon fill="none" stroke="#000000" points="340.4854,-165.5 340.4854,-183.5 428.7461,-183.5 428.7461,-165.5 340.4854,-165.5"/>
<text text-anchor="middle" x="384.6157" y="-171.5" font-family="Helvetica,sans-Serif" font-size="10.00" fill="#000000">Prescription.hpp</text>
</a>
</g>
</g>
    <!-- Node0&#45;&gt;Node6 -->
<g id="edge8" class="edge">
<title>Node0&#45;&gt;Node6</title>
<path fill="none" stroke="#191970" d="M444.7264,-220.4179C433.9522,-212.1876 417.8456,-199.8839 405.016,-190.0836"/>
<polygon fill="#191970" stroke="#191970" points="406.8348,-187.0685 396.7634,-183.7795 402.5855,-192.6313 406.8348,-187.0685"/>
</g>
    <!-- Node4&#45;&gt;Node1 -->
<g id="edge7" class="edge">
<title>Node4&#45;&gt;Node1</title>
<path fill="none" stroke="#191970" d="M376.9115,-55.4795C283.6985,-43.4166 122.2591,-22.5244 53.7952,-13.6644"/>
<polygon fill="#191970" stroke="#191970" points="53.9967,-10.1614 43.6301,-12.3489 53.0982,-17.1035 53.9967,-10.1614"/>
</g>
    <!-- Node4&#45;&gt;Node2 -->
<g id="edge5" class="edge">
<title>Node4&#45;&gt;Node2</title>
<path fill="none" stroke="#191970" d="M467.4221,-55.4179C487.9719,-46.4477 519.6068,-32.6388 542.8203,-22.5059"/>
<polygon fill="#191970" stroke="#191970" points="544.4318,-25.6215 552.1965,-18.4131 541.6314,-19.206 544.4318,-25.6215"/>
</g>
    <!-- Node5 -->
<g id="node6" class="node">
<title>Node5</title>
<polygon fill="none" stroke="#bfbfbf" points="290.8892,-.5 290.8892,-18.5 326.3423,-18.5 326.3423,-.5 290.8892,-.5"/>
<text text-anchor="middle" x="308.6157" y="-6.5" font-family="Helvetica,sans-Serif" font-size="10.00" fill="#000000">map</text>
</g>
    <!-- Node4&#45;&gt;Node5 -->
<g id="edge6" class="edge">
<title>Node4&#45;&gt;Node5</title>
<path fill="none" stroke="#191970" d="M423.8278,-55.4179C399.7682,-45.8289 361.8351,-30.7106 336.1258,-20.4642"/>
<polygon fill="#191970" stroke="#191970" points="337.1801,-17.1167 326.5949,-16.6656 334.5884,-23.6193 337.1801,-17.1167"/>
</g>
    <!-- Node6&#45;&gt;Node1 -->
<g id="edge9" class="edge">
<title>Node6&#45;&gt;Node1</title>
<path fill="none" stroke="#191970" d="M340.4704,-170.8006C292.7354,-165.6785 215.0947,-154.0508 152.6157,-129 110.5042,-112.1155 99.3354,-105.4307 66.6157,-74 52.3533,-60.2994 39.8245,-41.4543 31.6333,-27.672"/>
<polygon fill="#191970" stroke="#191970" points="34.485,-25.6092 26.4727,-18.6771 28.4133,-29.0927 34.485,-25.6092"/>
</g>
    <!-- Node6&#45;&gt;Node2 -->
<g id="edge10" class="edge">
<title>Node6&#45;&gt;Node2</title>
<path fill="none" stroke="#191970" d="M428.84,-165.9338C503.6338,-150.449 649.8958,-115.5221 679.6157,-74 702.0403,-42.6703 641.8325,-23.7646 602.8662,-15.1252"/>
<polygon fill="#191970" stroke="#191970" points="603.5088,-11.6839 593.0029,-13.0535 602.0698,-18.5344 603.5088,-11.6839"/>
</g>
    <!-- Node6&#45;&gt;Node3 -->
<g id="edge12" class="edge">
<title>Node6&#45;&gt;Node3</title>
<path fill="none" stroke="#191970" d="M402.5374,-165.4982C440.8768,-146.241 531.0515,-100.9478 576.4689,-78.1354"/>
<polygon fill="#191970" stroke="#191970" points="578.0813,-81.2423 585.4464,-73.6261 574.9393,-74.987 578.0813,-81.2423"/>
</g>
    <!-- Node6&#45;&gt;Node4 -->
<g id="edge13" class="edge">
<title>Node6&#45;&gt;Node4</title>
<path fill="none" stroke="#191970" d="M389.6894,-165.4982C399.9077,-147.369 423.132,-106.1647 436.5458,-82.3659"/>
<polygon fill="#191970" stroke="#191970" points="439.6108,-84.0562 441.4719,-73.6261 433.5127,-80.6191 439.6108,-84.0562"/>
</g>
    <!-- Node6&#45;&gt;Node5 -->
<g id="edge11" class="edge">
<title>Node6&#45;&gt;Node5</title>
<path fill="none" stroke="#191970" d="M340.4098,-165.4984C267.2744,-149.6094 126.2897,-114.422 97.6157,-74 92.73,-67.1125 92.3111,-61.5704 97.6157,-55 120.3069,-26.8941 228.4844,-15.3158 280.5244,-11.3116"/>
<polygon fill="#191970" stroke="#191970" points="281.0067,-14.7858 290.7261,-10.5689 280.4984,-7.8043 281.0067,-14.7858"/>
</g>
    <!-- Node7 -->
<g id="node8" class="node">
<title>Node7</title>
<g id="a_node8"><a xlink:href="../../dd/df9/_drug_8hpp.html" target="_top" xlink:title="Drug.hpp">
<polygon fill="none" stroke="#000000" points="293.0469,-110.5 293.0469,-128.5 350.1846,-128.5 350.1846,-110.5 293.0469,-110.5"/>
<text text-anchor="middle" x="321.6157" y="-116.5" font-family="Helvetica,sans-Serif" font-size="10.00" fill="#000000">Drug.hpp</text>
</a>
</g>
</g>
    <!-- Node6&#45;&gt;Node7 -->
<g id="edge14" class="edge">
<title>Node6&#45;&gt;Node7</title>
<path fill="none" stroke="#191970" d="M374.2126,-165.4179C364.8758,-157.2667 350.9624,-145.1201 339.7906,-135.3669"/>
<polygon fill="#191970" stroke="#191970" points="342.0799,-132.7194 332.2449,-128.7795 337.4763,-137.9927 342.0799,-132.7194"/>
</g>
    <!-- Node7&#45;&gt;Node1 -->
<g id="edge16" class="edge">
<title>Node7&#45;&gt;Node1</title>
<path fill="none" stroke="#191970" d="M292.9348,-118.225C248.8639,-115.2893 162.7624,-105.6354 97.6157,-74 73.4475,-62.2638 50.6417,-41.0408 36.4344,-26.1537"/>
<polygon fill="#191970" stroke="#191970" points="38.8346,-23.5944 29.472,-18.6355 33.6986,-28.3507 38.8346,-23.5944"/>
</g>
    <!-- Node7&#45;&gt;Node2 -->
<g id="edge15" class="edge">
<title>Node7&#45;&gt;Node2</title>
<path fill="none" stroke="#191970" d="M325.1952,-110.3776C331.2607,-96.1759 344.9498,-68.9646 365.6157,-55 394.221,-35.6706 492.1139,-20.2309 542.3465,-13.3645"/>
<polygon fill="#191970" stroke="#191970" points="542.8533,-16.828 552.3,-12.0311 541.9238,-9.89 542.8533,-16.828"/>
</g>
    <!-- Node7&#45;&gt;Node3 -->
<g id="edge18" class="edge">
<title>Node7&#45;&gt;Node3</title>
<path fill="none" stroke="#191970" d="M350.2073,-113.9236C396.271,-104.9396 487.7554,-87.0969 547.277,-75.4881"/>
<polygon fill="#191970" stroke="#191970" points="548.1262,-78.8885 557.2713,-73.5388 546.7862,-72.0179 548.1262,-78.8885"/>
</g>
    <!-- Node7&#45;&gt;Node4 -->
<g id="edge21" class="edge">
<title>Node7&#45;&gt;Node4</title>
<path fill="none" stroke="#191970" d="M342.2569,-110.4179C362.5224,-101.5011 393.6542,-87.803 416.6447,-77.6873"/>
<polygon fill="#191970" stroke="#191970" points="418.2003,-80.8267 425.9438,-73.5956 415.3811,-74.4195 418.2003,-80.8267"/>
</g>
    <!-- Node7&#45;&gt;Node5 -->
<g id="edge17" class="edge">
<title>Node7&#45;&gt;Node5</title>
<path fill="none" stroke="#191970" d="M320.5519,-110.4982C318.4474,-92.6913 313.712,-52.6225 310.8791,-28.6515"/>
<polygon fill="#191970" stroke="#191970" points="314.3438,-28.1462 309.6943,-18.6261 307.3922,-28.9678 314.3438,-28.1462"/>
</g>
    <!-- Node8 -->
<g id="node9" class="node">
<title>Node8</title>
<polygon fill="none" stroke="#bfbfbf" points="106.8228,-55.5 106.8228,-73.5 208.4087,-73.5 208.4087,-55.5 106.8228,-55.5"/>
<text text-anchor="middle" x="157.6157" y="-61.5" font-family="Helvetica,sans-Serif" font-size="10.00" fill="#000000">gtkmm/treemodel.h</text>
</g>
    <!-- Node7&#45;&gt;Node8 -->
<g id="edge19" class="edge">
<title>Node7&#45;&gt;Node8</title>
<path fill="none" stroke="#191970" d="M294.5345,-110.4179C267.1523,-101.2348 224.6492,-86.9807 194.2649,-76.7909"/>
<polygon fill="#191970" stroke="#191970" points="195.0586,-73.3655 184.4646,-73.5042 192.8328,-80.0023 195.0586,-73.3655"/>
</g>
    <!-- Node9 -->
<g id="node10" class="node">
<title>Node9</title>
<polygon fill="none" stroke="#bfbfbf" points="226.4434,-55.5 226.4434,-73.5 280.7881,-73.5 280.7881,-55.5 226.4434,-55.5"/>
<text text-anchor="middle" x="253.6157" y="-61.5" font-family="Helvetica,sans-Serif" font-size="10.00" fill="#000000">iostream</text>
</g>
    <!-- Node7&#45;&gt;Node9 -->
<g id="edge20" class="edge">
<title>Node7&#45;&gt;Node9</title>
<path fill="none" stroke="#191970" d="M310.3869,-110.4179C300.2113,-102.1876 284.9995,-89.8839 272.8827,-80.0836"/>
<polygon fill="#191970" stroke="#191970" points="275.0647,-77.3469 265.0885,-73.7795 270.6626,-82.7895 275.0647,-77.3469"/>
</g>
</g>
</svg>
        <g id="navigator" transform="translate(0 0)" fill="#404254">
                <rect fill="#f2f5e9" fill-opacity="0.5" stroke="#606060" stroke-width=".5" x="0" y="0" width="60" height="60"/>
                <use id="zoomplus" xlink:href="#zoomPlus" x="17" y="9" onmousedown="handleZoom(evt,'in')"/>
                <use id="zoomminus" xlink:href="#zoomMin" x="42" y="9" onmousedown="handleZoom(evt,'out')"/>
                <use id="reset" xlink:href="#resetDef" x="30" y="36" onmousedown="handleReset()"/>
                <g id="arrowUp" xlink:href="#dirArrow" transform="translate(30 24)" onmousedown="handlePan(0,-1)">
                  <use xlink:href="#rim" fill="#404040">
                        <set attributeName="fill" to="#808080" begin="arrowUp.mouseover" end="arrowUp.mouseout"/>
                  </use>
                  <path fill="none" stroke="white" stroke-width="1.5" d="M0,-3.0v7 M-2.5,-0.5L0,-3.0L2.5,-0.5"/>
                </g>
                <g id="arrowRight" xlink:href="#dirArrow" transform="rotate(90) translate(36 -43)" onmousedown="handlePan(1,0)">
                  <use xlink:href="#rim" fill="#404040">
                        <set attributeName="fill" to="#808080" begin="arrowRight.mouseover" end="arrowRight.mouseout"/>
                  </use>
                  <path fill="none" stroke="white" stroke-width="1.5" d="M0,-3.0v7 M-2.5,-0.5L0,-3.0L2.5,-0.5"/>
                </g>
                <g id="arrowDown" xlink:href="#dirArrow" transform="rotate(180) translate(-30 -48)" onmousedown="handlePan(0,1)">
                  <use xlink:href="#rim" fill="#404040">
                        <set attributeName="fill" to="#808080" begin="arrowDown.mouseover" end="arrowDown.mouseout"/>
                  </use>
                  <path fill="none" stroke="white" stroke-width="1.5" d="M0,-3.0v7 M-2.5,-0.5L0,-3.0L2.5,-0.5"/>
                </g>
                <g id="arrowLeft" xlink:href="#dirArrow" transform="rotate(270) translate(-36 17)" onmousedown="handlePan(-1,0)">
                  <use xlink:href="#rim" fill="#404040">
                        <set attributeName="fill" to="#808080" begin="arrowLeft.mouseover" end="arrowLeft.mouseout"/>
                  </use>
                  <path fill="none" stroke="white" stroke-width="1.5" d="M0,-3.0v7 M-2.5,-0.5L0,-3.0L2.5,-0.5"/>
                </g>
        </g>
        <svg viewBox="0 0 15 15" width="100%" height="30px" preserveAspectRatio="xMaxYMin meet">
         <g id="arrow_out" transform="scale(0.3 0.3)">
          <a xlink:href="_patient_8hpp__incl_org.svg" target="_base">
           <rect id="button" ry="5" rx="5" y="6" x="6" height="38" width="38"
                fill="#f2f5e9" fill-opacity="0.5" stroke="#606060" stroke-width="1.0"/>
           <path id="arrow"
             d="M 11.500037,31.436501 C 11.940474,20.09759 22.043105,11.32322 32.158766,21.979434 L 37.068811,17.246167 C 37.068811,17.246167 37.088388,32 37.088388,32 L 22.160133,31.978069 C 22.160133,31.978069 26.997745,27.140456 26.997745,27.140456 C 18.528582,18.264221 13.291696,25.230495 11.500037,31.436501 z"
             style="fill:#404040;"/>
          </a>
         </g>
        </svg>
</svg>
