<?xml version="1.0" encoding="UTF-8" standalone="no"?>
<!DOCTYPE svg PUBLIC "-//W3C//DTD SVG 1.1//EN"
        "http://www.w3.org/Graphics/SVG/1.1/DTD/svg11.dtd">
<!-- Generated by graphviz version 2.40.1 (20161225.0304)
 -->
<!-- Title: code/gui/PrescriptionWindow.cpp Pages: 1 -->
<!--zoomable 357 -->
<svg id="main" version="1.1" xmlns="http://www.w3.org/2000/svg" xmlns:xlink="http://www.w3.org/1999/xlink" xml:space="preserve" onload="init(evt)">
<style type="text/css"><![CDATA[
.edge:hover path { stroke: red; }
.edge:hover polygon { stroke: red; fill: red; }
]]></style>
<script type="text/javascript"><![CDATA[
var edges = document.getElementsByTagName('g');
if (edges && edges.length) {
  for (var i=0;i<edges.length;i++) {
    if (edges[i].id.substr(0,4)=='edge') {
      edges[i].setAttribute('class','edge');
    }
  }
}
]]></script>
        <defs>
                <circle id="rim" cx="0" cy="0" r="7"/>
                <circle id="rim2" cx="0" cy="0" r="3.5"/>
                <g id="zoomPlus">
                        <use xlink:href="#rim" fill="#404040">
                                <set attributeName="fill" to="#808080" begin="zoomplus.mouseover" end="zoomplus.mouseout"/>
                        </use>
                        <path d="M-4,0h8M0,-4v8" fill="none" stroke="white" stroke-width="1.5" pointer-events="none"/>
                </g>
                <g id="zoomMin">
                        <use xlink:href="#rim" fill="#404040">
                                <set attributeName="fill" to="#808080" begin="zoomminus.mouseover" end="zoomminus.mouseout"/>
                        </use>
                        <path d="M-4,0h8" fill="none" stroke="white" stroke-width="1.5" pointer-events="none"/>
                </g>
                <g id="dirArrow">
                        <path fill="none" stroke="white" stroke-width="1.5" d="M0,-3.0v7 M-2.5,-0.5L0,-3.0L2.5,-0.5"/>
                </g>
               <g id="resetDef">
                       <use xlink:href="#rim2" fill="#404040">
                               <set attributeName="fill" to="#808080" begin="reset.mouseover" end="reset.mouseout"/>
                       </use>
               </g>
        </defs>

<script type="text/javascript">
var viewWidth = 1384;
var viewHeight = 357;
var sectionId = 'dynsection-0';
</script>
<script xlink:href="../../svgpan.js"/>
<svg id="graph" class="graph">
<g id="viewport">
<title>code/gui/PrescriptionWindow.cpp</title>
    <!-- Node0 -->
<g id="node1" class="node">
<title>Node0</title>
<polygon fill="#bfbfbf" stroke="#000000" points="360.5889,-330.5 360.5889,-348.5 523.8936,-348.5 523.8936,-330.5 360.5889,-330.5"/>
<text text-anchor="middle" x="442.2412" y="-336.5" font-family="Helvetica,sans-Serif" font-size="10.00" fill="#000000">code/gui/PrescriptionWindow.cpp</text>
</g>
    <!-- Node1 -->
<g id="node2" class="node">
<title>Node1</title>
<polygon fill="none" stroke="#bfbfbf" points="518.0688,-55.5 518.0688,-73.5 572.4136,-73.5 572.4136,-55.5 518.0688,-55.5"/>
<text text-anchor="middle" x="545.2412" y="-61.5" font-family="Helvetica,sans-Serif" font-size="10.00" fill="#000000">iostream</text>
</g>
    <!-- Node0&#45;&gt;Node1 -->
<g id="edge1" class="edge">
<title>Node0&#45;&gt;Node1</title>
<path fill="none" stroke="#191970" d="M444.8831,-330.4647C450.1038,-311.7854 461.2412,-267.4848 461.2412,-229.5 461.2412,-229.5 461.2412,-229.5 461.2412,-174.5 461.2412,-133.6606 498.2664,-98.5632 523.154,-79.5845"/>
<polygon fill="#191970" stroke="#191970" points="525.375,-82.2961 531.3703,-73.5607 521.2361,-76.6507 525.375,-82.2961"/>
</g>
    <!-- Node2 -->
<g id="node3" class="node">
<title>Node2</title>
<g id="a_node3"><a xlink:href="../../d5/db1/_prescription_window_8hpp.html" target="_top" xlink:title="PrescriptionWindow.hpp">
<polygon fill="none" stroke="#000000" points="72.6011,-220.5 72.6011,-238.5 195.8813,-238.5 195.8813,-220.5 72.6011,-220.5"/>
<text text-anchor="middle" x="134.2412" y="-226.5" font-family="Helvetica,sans-Serif" font-size="10.00" fill="#000000">PrescriptionWindow.hpp</text>
</a>
</g>
</g>
    <!-- Node0&#45;&gt;Node2 -->
<g id="edge2" class="edge">
<title>Node0&#45;&gt;Node2</title>
<path fill="none" stroke="#191970" d="M385.6681,-330.4773C346.5169,-323.1995 293.6708,-311.301 249.2412,-294 214.9325,-280.6401 178.3401,-258.6072 155.8765,-244.0731"/>
<polygon fill="#191970" stroke="#191970" points="157.7196,-241.0964 147.4391,-238.5351 153.8785,-246.9484 157.7196,-241.0964"/>
</g>
    <!-- Node10 -->
<g id="node11" class="node">
<title>Node10</title>
<g id="a_node11"><a xlink:href="../../de/d01/_prescription_8hpp.html" target="_top" xlink:title="../model/Prescription.hpp">
<polygon fill="none" stroke="#000000" points="1008.936,-165.5 1008.936,-183.5 1135.5464,-183.5 1135.5464,-165.5 1008.936,-165.5"/>
<text text-anchor="middle" x="1072.2412" y="-171.5" font-family="Helvetica,sans-Serif" font-size="10.00" fill="#000000">../model/Prescription.hpp</text>
</a>
</g>
</g>
    <!-- Node0&#45;&gt;Node10 -->
<g id="edge10" class="edge">
<title>Node0&#45;&gt;Node10</title>
<path fill="none" stroke="#191970" d="M523.9538,-335.7683C669.7472,-327.5422 966.8057,-303.1936 1045.2412,-239 1059.0156,-227.7267 1065.8686,-208.208 1069.21,-193.5873"/>
<polygon fill="#191970" stroke="#191970" points="1072.6831,-194.0606 1071.1373,-183.5791 1065.8094,-192.7369 1072.6831,-194.0606"/>
</g>
    <!-- Node18 -->
<g id="node19" class="node">
<title>Node18</title>
<g id="a_node19"><a xlink:href="../../dc/db8/_ref_builder_8hpp.html" target="_top" xlink:title="RefBuilder.hpp">
<polygon fill="none" stroke="#000000" points="308.4385,-275.5 308.4385,-293.5 390.0439,-293.5 390.0439,-275.5 308.4385,-275.5"/>
<text text-anchor="middle" x="349.2412" y="-281.5" font-family="Helvetica,sans-Serif" font-size="10.00" fill="#000000">RefBuilder.hpp</text>
</a>
</g>
</g>
    <!-- Node0&#45;&gt;Node18 -->
<g id="edge27" class="edge">
<title>Node0&#45;&gt;Node18</title>
<path fill="none" stroke="#191970" d="M426.8842,-330.4179C412.3452,-321.8195 390.2887,-308.7754 373.3949,-298.7844"/>
<polygon fill="#191970" stroke="#191970" points="375.0102,-295.6735 364.6211,-293.5956 371.4469,-301.6987 375.0102,-295.6735"/>
</g>
    <!-- Node20 -->
<g id="node21" class="node">
<title>Node20</title>
<g id="a_node21"><a xlink:href="../../d7/d0f/_d_b_master_8hpp.html" target="_top" xlink:title="../DBMaster.hpp">
<polygon fill="none" stroke="#000000" points="345.3892,-110.5 345.3892,-128.5 433.0933,-128.5 433.0933,-110.5 345.3892,-110.5"/>
<text text-anchor="middle" x="389.2412" y="-116.5" font-family="Helvetica,sans-Serif" font-size="10.00" fill="#000000">../DBMaster.hpp</text>
</a>
</g>
</g>
    <!-- Node0&#45;&gt;Node20 -->
<g id="edge29" class="edge">
<title>Node0&#45;&gt;Node20</title>
<path fill="none" stroke="#191970" d="M440.0313,-330.327C432.0679,-297.271 404.736,-183.8179 393.8088,-138.4598"/>
<polygon fill="#191970" stroke="#191970" points="397.2053,-137.6143 391.4605,-128.7122 390.4,-139.2538 397.2053,-137.6143"/>
</g>
    <!-- Node23 -->
<g id="node24" class="node">
<title>Node23</title>
<g id="a_node24"><a xlink:href="../../d8/d63/_date_8hpp.html" target="_top" xlink:title="../utils/Date.hpp">
<polygon fill="none" stroke="#000000" points="489.5,-220.5 489.5,-238.5 574.9824,-238.5 574.9824,-220.5 489.5,-220.5"/>
<text text-anchor="middle" x="532.2412" y="-226.5" font-family="Helvetica,sans-Serif" font-size="10.00" fill="#000000">../utils/Date.hpp</text>
</a>
</g>
</g>
    <!-- Node0&#45;&gt;Node23 -->
<g id="edge35" class="edge">
<title>Node0&#45;&gt;Node23</title>
<path fill="none" stroke="#191970" d="M449.6063,-330.4982C464.6371,-312.1273 499.0542,-270.0619 518.3948,-246.4233"/>
<polygon fill="#191970" stroke="#191970" points="521.1508,-248.5821 524.7744,-238.6261 515.7331,-244.1494 521.1508,-248.5821"/>
</g>
    <!-- Node24 -->
<g id="node25" class="node">
<title>Node24</title>
<g id="a_node25"><a xlink:href="../../dc/d00/_authentication_8hpp.html" target="_top" xlink:title="../model/Authentication.hpp">
<polygon fill="none" stroke="#000000" points="197.6455,-165.5 197.6455,-183.5 334.8369,-183.5 334.8369,-165.5 197.6455,-165.5"/>
<text text-anchor="middle" x="266.2412" y="-171.5" font-family="Helvetica,sans-Serif" font-size="10.00" fill="#000000">../model/Authentication.hpp</text>
</a>
</g>
</g>
    <!-- Node0&#45;&gt;Node24 -->
<g id="edge37" class="edge">
<title>Node0&#45;&gt;Node24</title>
<path fill="none" stroke="#191970" d="M399.3116,-330.4531C362.5643,-321.9039 313.4133,-308.2899 299.2412,-294 272.4406,-266.9766 266.9195,-220.2683 266.0679,-193.9637"/>
<polygon fill="#191970" stroke="#191970" points="269.5652,-193.7124 265.9427,-183.7561 262.5657,-193.7983 269.5652,-193.7124"/>
</g>
    <!-- Node26 -->
<g id="node27" class="node">
<title>Node26</title>
<g id="a_node27"><a xlink:href="../../dd/dc5/_doctor_8hpp.html" target="_top" xlink:title="../model/Doctor.hpp">
<polygon fill="none" stroke="#000000" points="658.8818,-275.5 658.8818,-293.5 761.6006,-293.5 761.6006,-275.5 658.8818,-275.5"/>
<text text-anchor="middle" x="710.2412" y="-281.5" font-family="Helvetica,sans-Serif" font-size="10.00" fill="#000000">../model/Doctor.hpp</text>
</a>
</g>
</g>
    <!-- Node0&#45;&gt;Node26 -->
<g id="edge42" class="edge">
<title>Node0&#45;&gt;Node26</title>
<path fill="none" stroke="#191970" d="M486.1959,-330.4795C532.7363,-320.9282 606.2488,-305.8417 656.2742,-295.5753"/>
<polygon fill="#191970" stroke="#191970" points="657.1704,-298.9644 666.2626,-293.5255 655.7631,-292.1073 657.1704,-298.9644"/>
</g>
    <!-- Node3 -->
<g id="node4" class="node">
<title>Node3</title>
<polygon fill="none" stroke="#bfbfbf" points="88.4556,-165.5 88.4556,-183.5 180.0269,-183.5 180.0269,-165.5 88.4556,-165.5"/>
<text text-anchor="middle" x="134.2412" y="-171.5" font-family="Helvetica,sans-Serif" font-size="10.00" fill="#000000">gtkmm/liststore.h</text>
</g>
    <!-- Node2&#45;&gt;Node3 -->
<g id="edge3" class="edge">
<title>Node2&#45;&gt;Node3</title>
<path fill="none" stroke="#191970" d="M134.2412,-220.4179C134.2412,-213.2164 134.2412,-202.8962 134.2412,-193.8632"/>
<polygon fill="#191970" stroke="#191970" points="137.7413,-193.7794 134.2412,-183.7795 130.7413,-193.7795 137.7413,-193.7794"/>
</g>
    <!-- Node4 -->
<g id="node5" class="node">
<title>Node4</title>
<g id="a_node5"><a xlink:href="../../de/d0b/_window_8hpp.html" target="_top" xlink:title="Window.hpp">
<polygon fill="none" stroke="#000000" points="0,-165.5 0,-183.5 70.4824,-183.5 70.4824,-165.5 0,-165.5"/>
<text text-anchor="middle" x="35.2412" y="-171.5" font-family="Helvetica,sans-Serif" font-size="10.00" fill="#000000">Window.hpp</text>
</a>
</g>
</g>
    <!-- Node2&#45;&gt;Node4 -->
<g id="edge4" class="edge">
<title>Node2&#45;&gt;Node4</title>
<path fill="none" stroke="#191970" d="M117.8934,-220.4179C102.2731,-211.7399 78.5014,-198.5334 60.455,-188.5077"/>
<polygon fill="#191970" stroke="#191970" points="62.0547,-185.3925 51.6133,-183.5956 58.6552,-191.5117 62.0547,-185.3925"/>
</g>
    <!-- Node5 -->
<g id="node6" class="node">
<title>Node5</title>
<g id="a_node6"><a xlink:href="../../d1/d25/_i_subject_8hpp.html" target="_top" xlink:title="../interfaces/ISubject.hpp">
<polygon fill="none" stroke="#000000" points="14.2095,-110.5 14.2095,-128.5 140.2729,-128.5 140.2729,-110.5 14.2095,-110.5"/>
<text text-anchor="middle" x="77.2412" y="-116.5" font-family="Helvetica,sans-Serif" font-size="10.00" fill="#000000">../interfaces/ISubject.hpp</text>
</a>
</g>
</g>
    <!-- Node4&#45;&gt;Node5 -->
<g id="edge5" class="edge">
<title>Node4&#45;&gt;Node5</title>
<path fill="none" stroke="#191970" d="M42.1767,-165.4179C48.099,-157.6624 56.7834,-146.29 64.0276,-136.8035"/>
<polygon fill="#191970" stroke="#191970" points="66.8676,-138.8514 70.1551,-128.7795 61.3042,-134.6029 66.8676,-138.8514"/>
</g>
    <!-- Node6 -->
<g id="node7" class="node">
<title>Node6</title>
<polygon fill="none" stroke="#bfbfbf" points="26.5713,-55.5 26.5713,-73.5 55.9111,-73.5 55.9111,-55.5 26.5713,-55.5"/>
<text text-anchor="middle" x="41.2412" y="-61.5" font-family="Helvetica,sans-Serif" font-size="10.00" fill="#000000">set</text>
</g>
    <!-- Node5&#45;&gt;Node6 -->
<g id="edge6" class="edge">
<title>Node5&#45;&gt;Node6</title>
<path fill="none" stroke="#191970" d="M71.2965,-110.4179C66.3238,-102.8207 59.0793,-91.7527 52.9488,-82.3866"/>
<polygon fill="#191970" stroke="#191970" points="55.7201,-80.2297 47.315,-73.7795 49.8632,-84.0633 55.7201,-80.2297"/>
</g>
    <!-- Node7 -->
<g id="node8" class="node">
<title>Node7</title>
<g id="a_node8"><a xlink:href="../../d5/d40/_i_observer_8hpp.html" target="_top" xlink:title="IObserver.hpp">
<polygon fill="none" stroke="#000000" points="73.8325,-55.5 73.8325,-73.5 152.6499,-73.5 152.6499,-55.5 73.8325,-55.5"/>
<text text-anchor="middle" x="113.2412" y="-61.5" font-family="Helvetica,sans-Serif" font-size="10.00" fill="#000000">IObserver.hpp</text>
</a>
</g>
</g>
    <!-- Node5&#45;&gt;Node7 -->
<g id="edge7" class="edge">
<title>Node5&#45;&gt;Node7</title>
<path fill="none" stroke="#191970" d="M83.1859,-110.4179C88.1586,-102.8207 95.4031,-91.7527 101.5336,-82.3866"/>
<polygon fill="#191970" stroke="#191970" points="104.6192,-84.0633 107.1674,-73.7795 98.7623,-80.2297 104.6192,-84.0633"/>
</g>
    <!-- Node8 -->
<g id="node9" class="node">
<title>Node8</title>
<polygon fill="none" stroke="#bfbfbf" points="60.6255,-.5 60.6255,-18.5 103.8569,-18.5 103.8569,-.5 60.6255,-.5"/>
<text text-anchor="middle" x="82.2412" y="-6.5" font-family="Helvetica,sans-Serif" font-size="10.00" fill="#000000">mutex</text>
</g>
    <!-- Node7&#45;&gt;Node8 -->
<g id="edge8" class="edge">
<title>Node7&#45;&gt;Node8</title>
<path fill="none" stroke="#191970" d="M108.1222,-55.4179C103.8847,-47.8998 97.7316,-36.9829 92.488,-27.6799"/>
<polygon fill="#191970" stroke="#191970" points="95.4307,-25.7724 87.4715,-18.7795 89.3326,-29.2096 95.4307,-25.7724"/>
</g>
    <!-- Node9 -->
<g id="node10" class="node">
<title>Node9</title>
<polygon fill="none" stroke="#bfbfbf" points="122.064,-.5 122.064,-18.5 166.4185,-18.5 166.4185,-.5 122.064,-.5"/>
<text text-anchor="middle" x="144.2412" y="-6.5" font-family="Helvetica,sans-Serif" font-size="10.00" fill="#000000">thread</text>
</g>
    <!-- Node7&#45;&gt;Node9 -->
<g id="edge9" class="edge">
<title>Node7&#45;&gt;Node9</title>
<path fill="none" stroke="#191970" d="M118.3602,-55.4179C122.5977,-47.8998 128.7509,-36.9829 133.9944,-27.6799"/>
<polygon fill="#191970" stroke="#191970" points="137.1498,-29.2096 139.011,-18.7795 131.0518,-25.7724 137.1498,-29.2096"/>
</g>
    <!-- Node11 -->
<g id="node12" class="node">
<title>Node11</title>
<polygon fill="none" stroke="#bfbfbf" points="616.6255,-.5 616.6255,-18.5 659.8569,-18.5 659.8569,-.5 616.6255,-.5"/>
<text text-anchor="middle" x="638.2412" y="-6.5" font-family="Helvetica,sans-Serif" font-size="10.00" fill="#000000">vector</text>
</g>
    <!-- Node10&#45;&gt;Node11 -->
<g id="edge11" class="edge">
<title>Node10&#45;&gt;Node11</title>
<path fill="none" stroke="#191970" d="M1070.9126,-165.4347C1067.0409,-142.5828 1053.5118,-82.4907 1015.2412,-55 987.4171,-35.0133 756.233,-17.4864 670.2698,-11.6015"/>
<polygon fill="#191970" stroke="#191970" points="670.2776,-8.0941 660.0641,-10.911 669.805,-15.0781 670.2776,-8.0941"/>
</g>
    <!-- Node12 -->
<g id="node13" class="node">
<title>Node12</title>
<polygon fill="none" stroke="#bfbfbf" points="1147.0146,-.5 1147.0146,-18.5 1187.4678,-18.5 1187.4678,-.5 1147.0146,-.5"/>
<text text-anchor="middle" x="1167.2412" y="-6.5" font-family="Helvetica,sans-Serif" font-size="10.00" fill="#000000">string</text>
</g>
    <!-- Node10&#45;&gt;Node12 -->
<g id="edge12" class="edge">
<title>Node10&#45;&gt;Node12</title>
<path fill="none" stroke="#191970" d="M1135.7869,-168.9097C1188.9487,-162.7605 1258.823,-150.7311 1276.2412,-129 1296.8107,-103.3373 1294.4758,-82.3711 1276.2412,-55 1258.8543,-28.9013 1223.3424,-17.747 1197.5653,-12.9958"/>
<polygon fill="#191970" stroke="#191970" points="1197.9686,-9.5156 1187.538,-11.3743 1196.851,-16.4258 1197.9686,-9.5156"/>
</g>
    <!-- Node13 -->
<g id="node14" class="node">
<title>Node13</title>
<polygon fill="none" stroke="#bfbfbf" points="916.5146,-.5 916.5146,-18.5 951.9678,-18.5 951.9678,-.5 916.5146,-.5"/>
<text text-anchor="middle" x="934.2412" y="-6.5" font-family="Helvetica,sans-Serif" font-size="10.00" fill="#000000">map</text>
</g>
    <!-- Node10&#45;&gt;Node13 -->
<g id="edge13" class="edge">
<title>Node10&#45;&gt;Node13</title>
<path fill="none" stroke="#191970" d="M1108.4596,-165.4264C1171.0125,-148.1081 1288.4536,-107.3574 1243.2412,-55 1224.954,-33.8228 1035.2851,-17.2165 962.4811,-11.577"/>
<polygon fill="#191970" stroke="#191970" points="962.469,-8.066 952.2319,-10.7961 961.9371,-15.0458 962.469,-8.066"/>
</g>
    <!-- Node14 -->
<g id="node15" class="node">
<title>Node14</title>
<polygon fill="none" stroke="#bfbfbf" points="1100.3301,-55.5 1100.3301,-73.5 1234.1523,-73.5 1234.1523,-55.5 1100.3301,-55.5"/>
<text text-anchor="middle" x="1167.2412" y="-61.5" font-family="Helvetica,sans-Serif" font-size="10.00" fill="#000000">gtkmm/treemodelcolumn.h</text>
</g>
    <!-- Node10&#45;&gt;Node14 -->
<g id="edge14" class="edge">
<title>Node10&#45;&gt;Node14</title>
<path fill="none" stroke="#191970" d="M1080.0155,-165.4982C1095.8813,-147.1273 1132.2105,-105.0619 1152.6256,-81.4233"/>
<polygon fill="#191970" stroke="#191970" points="1155.4722,-83.4821 1159.3595,-73.6261 1150.1744,-78.9067 1155.4722,-83.4821"/>
</g>
    <!-- Node15 -->
<g id="node16" class="node">
<title>Node15</title>
<g id="a_node16"><a xlink:href="../../d3/d1b/_i_serializable_8hpp.html" target="_top" xlink:title="../interfaces/ISerializable.hpp">
<polygon fill="none" stroke="#000000" points="862.0396,-55.5 862.0396,-73.5 1006.4429,-73.5 1006.4429,-55.5 862.0396,-55.5"/>
<text text-anchor="middle" x="934.2412" y="-61.5" font-family="Helvetica,sans-Serif" font-size="10.00" fill="#000000">../interfaces/ISerializable.hpp</text>
</a>
</g>
</g>
    <!-- Node10&#45;&gt;Node15 -->
<g id="edge15" class="edge">
<title>Node10&#45;&gt;Node15</title>
<path fill="none" stroke="#191970" d="M1060.9481,-165.4982C1037.3955,-146.7244 982.799,-103.2055 953.5552,-79.8952"/>
<polygon fill="#191970" stroke="#191970" points="955.6917,-77.1224 945.6904,-73.6261 951.3285,-82.5962 955.6917,-77.1224"/>
</g>
    <!-- Node16 -->
<g id="node17" class="node">
<title>Node16</title>
<g id="a_node17"><a xlink:href="../../dd/df9/_drug_8hpp.html" target="_top" xlink:title="Drug.hpp">
<polygon fill="none" stroke="#000000" points="764.6724,-110.5 764.6724,-128.5 821.8101,-128.5 821.8101,-110.5 764.6724,-110.5"/>
<text text-anchor="middle" x="793.2412" y="-116.5" font-family="Helvetica,sans-Serif" font-size="10.00" fill="#000000">Drug.hpp</text>
</a>
</g>
</g>
    <!-- Node10&#45;&gt;Node16 -->
<g id="edge19" class="edge">
<title>Node10&#45;&gt;Node16</title>
<path fill="none" stroke="#191970" d="M1026.4825,-165.4795C972.2466,-154.7878 882.8259,-137.1601 831.9035,-127.1216"/>
<polygon fill="#191970" stroke="#191970" points="832.4392,-123.6599 821.951,-125.1596 831.0853,-130.5277 832.4392,-123.6599"/>
</g>
    <!-- Node15&#45;&gt;Node11 -->
<g id="edge18" class="edge">
<title>Node15&#45;&gt;Node11</title>
<path fill="none" stroke="#191970" d="M885.6943,-55.4795C824.6246,-44.1321 721.5067,-24.9716 669.7976,-15.3635"/>
<polygon fill="#191970" stroke="#191970" points="670.344,-11.9052 659.8728,-13.5194 669.0651,-18.7874 670.344,-11.9052"/>
</g>
    <!-- Node15&#45;&gt;Node12 -->
<g id="edge16" class="edge">
<title>Node15&#45;&gt;Node12</title>
<path fill="none" stroke="#191970" d="M972.4555,-55.4795C1018.5155,-44.6069 1094.9621,-26.5616 1137.084,-16.6187"/>
<polygon fill="#191970" stroke="#191970" points="1138.0856,-19.9785 1147.014,-14.2747 1136.4773,-13.1657 1138.0856,-19.9785"/>
</g>
    <!-- Node15&#45;&gt;Node13 -->
<g id="edge17" class="edge">
<title>Node15&#45;&gt;Node13</title>
<path fill="none" stroke="#191970" d="M934.2412,-55.4179C934.2412,-48.2164 934.2412,-37.8962 934.2412,-28.8632"/>
<polygon fill="#191970" stroke="#191970" points="937.7413,-28.7794 934.2412,-18.7795 930.7413,-28.7795 937.7413,-28.7794"/>
</g>
    <!-- Node16&#45;&gt;Node1 -->
<g id="edge25" class="edge">
<title>Node16&#45;&gt;Node1</title>
<path fill="none" stroke="#191970" d="M764.3071,-113.0832C719.2163,-103.0832 632.2115,-83.7878 582.4929,-72.7615"/>
<polygon fill="#191970" stroke="#191970" points="582.9986,-69.2886 572.478,-70.5404 581.4829,-76.1226 582.9986,-69.2886"/>
</g>
    <!-- Node16&#45;&gt;Node11 -->
<g id="edge21" class="edge">
<title>Node16&#45;&gt;Node11</title>
<path fill="none" stroke="#191970" d="M778.7992,-110.3379C764.72,-101.3217 742.7819,-87.0479 724.2412,-74 701.2364,-57.8105 675.5085,-38.3256 658.2388,-25.038"/>
<polygon fill="#191970" stroke="#191970" points="660.0919,-22.0469 650.0381,-18.7046 655.8133,-27.5871 660.0919,-22.0469"/>
</g>
    <!-- Node16&#45;&gt;Node12 -->
<g id="edge20" class="edge">
<title>Node16&#45;&gt;Node12</title>
<path fill="none" stroke="#191970" d="M822.0867,-115.4684C864.8825,-109.0675 947.4356,-95.1036 1015.2412,-74 1059.9977,-60.0701 1109.5922,-37.6205 1139.5846,-23.2179"/>
<polygon fill="#191970" stroke="#191970" points="1141.4992,-26.1793 1148.9692,-18.666 1138.4442,-19.8811 1141.4992,-26.1793"/>
</g>
    <!-- Node16&#45;&gt;Node13 -->
<g id="edge22" class="edge">
<title>Node16&#45;&gt;Node13</title>
<path fill="none" stroke="#191970" d="M774.0046,-110.4945C750.7076,-98.3731 716.5354,-75.9102 733.2412,-55 754.5673,-28.3068 855.945,-16.1178 906.0612,-11.6483"/>
<polygon fill="#191970" stroke="#191970" points="906.5452,-15.1199 916.2132,-10.7865 905.953,-8.145 906.5452,-15.1199"/>
</g>
    <!-- Node16&#45;&gt;Node14 -->
<g id="edge23" class="edge">
<title>Node16&#45;&gt;Node14</title>
<path fill="none" stroke="#191970" d="M821.9674,-115.2756C880.012,-106.7396 1012.7878,-87.2137 1095.7352,-75.0156"/>
<polygon fill="#191970" stroke="#191970" points="1096.4608,-78.4466 1105.8451,-73.5288 1095.4423,-71.5211 1096.4608,-78.4466"/>
</g>
    <!-- Node16&#45;&gt;Node15 -->
<g id="edge26" class="edge">
<title>Node16&#45;&gt;Node15</title>
<path fill="none" stroke="#191970" d="M816.5245,-110.4179C839.6901,-101.3817 875.4435,-87.4353 901.4708,-77.2828"/>
<polygon fill="#191970" stroke="#191970" points="902.8789,-80.4904 910.9233,-73.5956 900.3351,-73.969 902.8789,-80.4904"/>
</g>
    <!-- Node17 -->
<g id="node18" class="node">
<title>Node17</title>
<polygon fill="none" stroke="#bfbfbf" points="742.4482,-55.5 742.4482,-73.5 844.0342,-73.5 844.0342,-55.5 742.4482,-55.5"/>
<text text-anchor="middle" x="793.2412" y="-61.5" font-family="Helvetica,sans-Serif" font-size="10.00" fill="#000000">gtkmm/treemodel.h</text>
</g>
    <!-- Node16&#45;&gt;Node17 -->
<g id="edge24" class="edge">
<title>Node16&#45;&gt;Node17</title>
<path fill="none" stroke="#191970" d="M793.2412,-110.4179C793.2412,-103.2164 793.2412,-92.8962 793.2412,-83.8632"/>
<polygon fill="#191970" stroke="#191970" points="796.7413,-83.7794 793.2412,-73.7795 789.7413,-83.7795 796.7413,-83.7794"/>
</g>
    <!-- Node19 -->
<g id="node20" class="node">
<title>Node19</title>
<polygon fill="none" stroke="#bfbfbf" points="291.0664,-220.5 291.0664,-238.5 395.416,-238.5 395.416,-220.5 291.0664,-220.5"/>
<text text-anchor="middle" x="343.2412" y="-226.5" font-family="Helvetica,sans-Serif" font-size="10.00" fill="#000000">gtkmm&#45;3.0/gtkmm.h</text>
</g>
    <!-- Node18&#45;&gt;Node19 -->
<g id="edge28" class="edge">
<title>Node18&#45;&gt;Node19</title>
<path fill="none" stroke="#191970" d="M348.2504,-275.4179C347.4648,-268.2164 346.339,-257.8962 345.3536,-248.8632"/>
<polygon fill="#191970" stroke="#191970" points="348.8174,-248.3409 344.2535,-238.7795 341.8587,-249.1001 348.8174,-248.3409"/>
</g>
    <!-- Node20&#45;&gt;Node11 -->
<g id="edge33" class="edge">
<title>Node20&#45;&gt;Node11</title>
<path fill="none" stroke="#191970" d="M386.9987,-110.2391C384.2364,-96.345 381.4514,-70.1258 395.2412,-55 423.0758,-24.4687 546.4714,-14.1259 605.9586,-10.8738"/>
<polygon fill="#191970" stroke="#191970" points="606.4768,-14.3519 616.285,-10.3458 606.1193,-7.3611 606.4768,-14.3519"/>
</g>
    <!-- Node20&#45;&gt;Node12 -->
<g id="edge31" class="edge">
<title>Node20&#45;&gt;Node12</title>
<path fill="none" stroke="#191970" d="M405.978,-110.2628C437.6585,-92.8118 503.7307,-56.5912 509.2412,-55 569.9785,-37.4612 1015.5727,-16.3232 1136.8434,-10.8469"/>
<polygon fill="#191970" stroke="#191970" points="1137.085,-14.3397 1146.9178,-10.3944 1136.7708,-7.3467 1137.085,-14.3397"/>
</g>
    <!-- Node20&#45;&gt;Node15 -->
<g id="edge34" class="edge">
<title>Node20&#45;&gt;Node15</title>
<path fill="none" stroke="#191970" d="M433.4139,-115.4502C514.2478,-107.978 691.6568,-91.2948 851.7909,-74.1403"/>
<polygon fill="#191970" stroke="#191970" points="852.2565,-77.6105 861.8254,-73.0623 851.5087,-70.6506 852.2565,-77.6105"/>
</g>
    <!-- Node21 -->
<g id="node22" class="node">
<title>Node21</title>
<polygon fill="none" stroke="#bfbfbf" points="294.6182,-55.5 294.6182,-73.5 347.8643,-73.5 347.8643,-55.5 294.6182,-55.5"/>
<text text-anchor="middle" x="321.2412" y="-61.5" font-family="Helvetica,sans-Serif" font-size="10.00" fill="#000000">sqlite3.h</text>
</g>
    <!-- Node20&#45;&gt;Node21 -->
<g id="edge30" class="edge">
<title>Node20&#45;&gt;Node21</title>
<path fill="none" stroke="#191970" d="M378.0124,-110.4179C367.8368,-102.1876 352.6249,-89.8839 340.5081,-80.0836"/>
<polygon fill="#191970" stroke="#191970" points="342.6902,-77.3469 332.714,-73.7795 338.2881,-82.7895 342.6902,-77.3469"/>
</g>
    <!-- Node22 -->
<g id="node23" class="node">
<title>Node22</title>
<polygon fill="none" stroke="#bfbfbf" points="403.8398,-55.5 403.8398,-73.5 462.6426,-73.5 462.6426,-55.5 403.8398,-55.5"/>
<text text-anchor="middle" x="433.2412" y="-61.5" font-family="Helvetica,sans-Serif" font-size="10.00" fill="#000000">stdexcept</text>
</g>
    <!-- Node20&#45;&gt;Node22 -->
<g id="edge32" class="edge">
<title>Node20&#45;&gt;Node22</title>
<path fill="none" stroke="#191970" d="M396.5069,-110.4179C402.7113,-102.6624 411.8092,-91.29 419.3984,-81.8035"/>
<polygon fill="#191970" stroke="#191970" points="422.3037,-83.7746 425.8176,-73.7795 416.8376,-79.4017 422.3037,-83.7746"/>
</g>
    <!-- Node23&#45;&gt;Node1 -->
<g id="edge36" class="edge">
<title>Node23&#45;&gt;Node1</title>
<path fill="none" stroke="#191970" d="M532.9774,-220.1561C535.0421,-193.9504 540.9192,-119.3557 543.7204,-83.8021"/>
<polygon fill="#191970" stroke="#191970" points="547.2168,-83.9854 544.5131,-73.7414 540.2384,-83.4356 547.2168,-83.9854"/>
</g>
    <!-- Node24&#45;&gt;Node5 -->
<g id="edge39" class="edge">
<title>Node24&#45;&gt;Node5</title>
<path fill="none" stroke="#191970" d="M235.0317,-165.4179C203.0638,-156.115 153.2124,-141.608 118.1142,-131.3943"/>
<polygon fill="#191970" stroke="#191970" points="118.7626,-127.9378 108.183,-128.5042 116.8067,-134.659 118.7626,-127.9378"/>
</g>
    <!-- Node24&#45;&gt;Node11 -->
<g id="edge40" class="edge">
<title>Node24&#45;&gt;Node11</title>
<path fill="none" stroke="#191970" d="M264.4688,-165.4065C260.6854,-143.0113 254.495,-84.8527 285.2412,-55 308.1491,-32.7579 524.1755,-16.7716 606.5461,-11.4384"/>
<polygon fill="#191970" stroke="#191970" points="606.8228,-14.9279 616.5798,-10.7988 606.3774,-7.9421 606.8228,-14.9279"/>
</g>
    <!-- Node24&#45;&gt;Node20 -->
<g id="edge38" class="edge">
<title>Node24&#45;&gt;Node20</title>
<path fill="none" stroke="#191970" d="M286.5522,-165.4179C306.4933,-156.5011 337.1271,-142.803 359.7497,-132.6873"/>
<polygon fill="#191970" stroke="#191970" points="361.1999,-135.8728 368.9001,-128.5956 358.3424,-129.4826 361.1999,-135.8728"/>
</g>
    <!-- Node25 -->
<g id="node26" class="node">
<title>Node25</title>
<polygon fill="none" stroke="#bfbfbf" points="200.3989,-110.5 200.3989,-128.5 238.0835,-128.5 238.0835,-110.5 200.3989,-110.5"/>
<text text-anchor="middle" x="219.2412" y="-116.5" font-family="Helvetica,sans-Serif" font-size="10.00" fill="#000000">tuple</text>
</g>
    <!-- Node24&#45;&gt;Node25 -->
<g id="edge41" class="edge">
<title>Node24&#45;&gt;Node25</title>
<path fill="none" stroke="#191970" d="M258.4801,-165.4179C251.7851,-157.5833 241.9358,-146.0575 233.7802,-136.5137"/>
<polygon fill="#191970" stroke="#191970" points="236.3283,-134.108 227.1709,-128.7795 231.0067,-138.6556 236.3283,-134.108"/>
</g>
    <!-- Node26&#45;&gt;Node10 -->
<g id="edge45" class="edge">
<title>Node26&#45;&gt;Node10</title>
<path fill="none" stroke="#191970" d="M739.8652,-275.4982C804.7781,-255.7733 959.5851,-208.7325 1032.7047,-186.5139"/>
<polygon fill="#191970" stroke="#191970" points="1033.9118,-189.8052 1042.4622,-183.5489 1031.8766,-183.1075 1033.9118,-189.8052"/>
</g>
    <!-- Node26&#45;&gt;Node11 -->
<g id="edge44" class="edge">
<title>Node26&#45;&gt;Node11</title>
<path fill="none" stroke="#191970" d="M673.4761,-275.3766C654.6626,-268.6426 633.4198,-257.3642 622.2412,-239 580.7847,-170.895 613.7107,-69.4553 630.2234,-28.0797"/>
<polygon fill="#191970" stroke="#191970" points="633.5144,-29.2801 634.1026,-18.7016 627.046,-26.6044 633.5144,-29.2801"/>
</g>
    <!-- Node26&#45;&gt;Node12 -->
<g id="edge43" class="edge">
<title>Node26&#45;&gt;Node12</title>
<path fill="none" stroke="#191970" d="M761.6708,-281.4263C917.8872,-271.4104 1376.2412,-236.7214 1376.2412,-174.5 1376.2412,-174.5 1376.2412,-174.5 1376.2412,-119.5 1376.2412,-39.7891 1255.7208,-17.7076 1197.7207,-11.6961"/>
<polygon fill="#191970" stroke="#191970" points="1197.9453,-8.2019 1187.6615,-10.7504 1197.29,-15.1712 1197.9453,-8.2019"/>
</g>
    <!-- Node26&#45;&gt;Node16 -->
<g id="edge52" class="edge">
<title>Node26&#45;&gt;Node16</title>
<path fill="none" stroke="#191970" d="M714.9415,-275.1561C728.2379,-248.7235 766.2987,-173.0604 783.9918,-137.8875"/>
<polygon fill="#191970" stroke="#191970" points="787.2254,-139.2477 788.5925,-128.7414 780.972,-136.102 787.2254,-139.2477"/>
</g>
    <!-- Node26&#45;&gt;Node23 -->
<g id="edge53" class="edge">
<title>Node26&#45;&gt;Node23</title>
<path fill="none" stroke="#191970" d="M680.8481,-275.4179C650.87,-266.155 604.1935,-251.7325 571.1617,-241.526"/>
<polygon fill="#191970" stroke="#191970" points="571.9697,-238.1124 561.3821,-238.5042 569.9031,-244.8005 571.9697,-238.1124"/>
</g>
    <!-- Node27 -->
<g id="node28" class="node">
<title>Node27</title>
<g id="a_node28"><a xlink:href="../../d0/da9/_patient_8hpp.html" target="_top" xlink:title="Patient.hpp">
<polygon fill="none" stroke="#000000" points="969.9434,-220.5 969.9434,-238.5 1036.5391,-238.5 1036.5391,-220.5 969.9434,-220.5"/>
<text text-anchor="middle" x="1003.2412" y="-226.5" font-family="Helvetica,sans-Serif" font-size="10.00" fill="#000000">Patient.hpp</text>
</a>
</g>
</g>
    <!-- Node26&#45;&gt;Node27 -->
<g id="edge46" class="edge">
<title>Node26&#45;&gt;Node27</title>
<path fill="none" stroke="#191970" d="M758.2961,-275.4795C814.2711,-264.9722 905.933,-247.766 959.8363,-237.6477"/>
<polygon fill="#191970" stroke="#191970" points="960.5855,-241.0683 969.7681,-235.7833 959.294,-234.1884 960.5855,-241.0683"/>
</g>
    <!-- Node28 -->
<g id="node29" class="node">
<title>Node28</title>
<g id="a_node29"><a xlink:href="../../d8/d3a/_time_8hpp.html" target="_top" xlink:title="../utils/Time.hpp">
<polygon fill="none" stroke="#000000" points="631.1338,-220.5 631.1338,-238.5 717.3486,-238.5 717.3486,-220.5 631.1338,-220.5"/>
<text text-anchor="middle" x="674.2412" y="-226.5" font-family="Helvetica,sans-Serif" font-size="10.00" fill="#000000">../utils/Time.hpp</text>
</a>
</g>
</g>
    <!-- Node26&#45;&gt;Node28 -->
<g id="edge54" class="edge">
<title>Node26&#45;&gt;Node28</title>
<path fill="none" stroke="#191970" d="M704.2965,-275.4179C699.3238,-267.8207 692.0793,-256.7527 685.9488,-247.3866"/>
<polygon fill="#191970" stroke="#191970" points="688.7201,-245.2297 680.315,-238.7795 682.8632,-249.0633 688.7201,-245.2297"/>
</g>
    <!-- Node27&#45;&gt;Node10 -->
<g id="edge51" class="edge">
<title>Node27&#45;&gt;Node10</title>
<path fill="none" stroke="#191970" d="M1014.6352,-220.4179C1024.9604,-212.1876 1040.396,-199.8839 1052.6909,-190.0836"/>
<polygon fill="#191970" stroke="#191970" points="1054.9616,-192.7495 1060.5997,-183.7795 1050.5984,-187.2757 1054.9616,-192.7495"/>
</g>
    <!-- Node27&#45;&gt;Node11 -->
<g id="edge47" class="edge">
<title>Node27&#45;&gt;Node11</title>
<path fill="none" stroke="#191970" d="M970.5191,-220.4382C921.2794,-205.9039 826.3349,-174.3356 755.2412,-129 710.7866,-100.6518 670.5291,-52.3932 650.882,-26.734"/>
<polygon fill="#191970" stroke="#191970" points="653.6262,-24.5597 644.8191,-18.6702 648.0312,-28.7664 653.6262,-24.5597"/>
</g>
    <!-- Node27&#45;&gt;Node12 -->
<g id="edge48" class="edge">
<title>Node27&#45;&gt;Node12</title>
<path fill="none" stroke="#191970" d="M1036.6153,-223.2151C1106.8237,-209.2217 1265.7623,-173.2184 1295.2412,-129 1313.4847,-101.6348 1314.2068,-81.8698 1295.2412,-55 1283.7481,-38.7169 1231.6373,-24.1017 1197.5516,-16.0497"/>
<polygon fill="#191970" stroke="#191970" points="1198.1467,-12.5953 1187.6169,-13.7669 1196.5791,-19.4175 1198.1467,-12.5953"/>
</g>
    <!-- Node27&#45;&gt;Node14 -->
<g id="edge49" class="edge">
<title>Node27&#45;&gt;Node14</title>
<path fill="none" stroke="#191970" d="M1036.6943,-222.803C1073.6737,-214.7198 1129.9229,-200.1812 1144.2412,-184 1168.999,-156.0212 1170.528,-109.6774 1169.106,-83.6896"/>
<polygon fill="#191970" stroke="#191970" points="1172.5884,-83.3237 1168.3465,-73.6151 1165.6082,-83.85 1172.5884,-83.3237"/>
</g>
    <!-- Node27&#45;&gt;Node15 -->
<g id="edge50" class="edge">
<title>Node27&#45;&gt;Node15</title>
<path fill="none" stroke="#191970" d="M999.3338,-220.1561C988.3276,-193.837 956.9104,-118.709 942.1208,-83.3426"/>
<polygon fill="#191970" stroke="#191970" points="945.1929,-81.6169 938.1058,-73.7414 938.7349,-84.3175 945.1929,-81.6169"/>
</g>
</g>
</svg>
        <g id="navigator" transform="translate(0 0)" fill="#404254">
                <rect fill="#f2f5e9" fill-opacity="0.5" stroke="#606060" stroke-width=".5" x="0" y="0" width="60" height="60"/>
                <use id="zoomplus" xlink:href="#zoomPlus" x="17" y="9" onmousedown="handleZoom(evt,'in')"/>
                <use id="zoomminus" xlink:href="#zoomMin" x="42" y="9" onmousedown="handleZoom(evt,'out')"/>
                <use id="reset" xlink:href="#resetDef" x="30" y="36" onmousedown="handleReset()"/>
                <g id="arrowUp" xlink:href="#dirArrow" transform="translate(30 24)" onmousedown="handlePan(0,-1)">
                  <use xlink:href="#rim" fill="#404040">
                        <set attributeName="fill" to="#808080" begin="arrowUp.mouseover" end="arrowUp.mouseout"/>
                  </use>
                  <path fill="none" stroke="white" stroke-width="1.5" d="M0,-3.0v7 M-2.5,-0.5L0,-3.0L2.5,-0.5"/>
                </g>
                <g id="arrowRight" xlink:href="#dirArrow" transform="rotate(90) translate(36 -43)" onmousedown="handlePan(1,0)">
                  <use xlink:href="#rim" fill="#404040">
                        <set attributeName="fill" to="#808080" begin="arrowRight.mouseover" end="arrowRight.mouseout"/>
                  </use>
                  <path fill="none" stroke="white" stroke-width="1.5" d="M0,-3.0v7 M-2.5,-0.5L0,-3.0L2.5,-0.5"/>
                </g>
                <g id="arrowDown" xlink:href="#dirArrow" transform="rotate(180) translate(-30 -48)" onmousedown="handlePan(0,1)">
                  <use xlink:href="#rim" fill="#404040">
                        <set attributeName="fill" to="#808080" begin="arrowDown.mouseover" end="arrowDown.mouseout"/>
                  </use>
                  <path fill="none" stroke="white" stroke-width="1.5" d="M0,-3.0v7 M-2.5,-0.5L0,-3.0L2.5,-0.5"/>
                </g>
                <g id="arrowLeft" xlink:href="#dirArrow" transform="rotate(270) translate(-36 17)" onmousedown="handlePan(-1,0)">
                  <use xlink:href="#rim" fill="#404040">
                        <set attributeName="fill" to="#808080" begin="arrowLeft.mouseover" end="arrowLeft.mouseout"/>
                  </use>
                  <path fill="none" stroke="white" stroke-width="1.5" d="M0,-3.0v7 M-2.5,-0.5L0,-3.0L2.5,-0.5"/>
                </g>
        </g>
        <svg viewBox="0 0 15 15" width="100%" height="30px" preserveAspectRatio="xMaxYMin meet">
         <g id="arrow_out" transform="scale(0.3 0.3)">
          <a xlink:href="_prescription_window_8cpp__incl_org.svg" target="_base">
           <rect id="button" ry="5" rx="5" y="6" x="6" height="38" width="38"
                fill="#f2f5e9" fill-opacity="0.5" stroke="#606060" stroke-width="1.0"/>
           <path id="arrow"
             d="M 11.500037,31.436501 C 11.940474,20.09759 22.043105,11.32322 32.158766,21.979434 L 37.068811,17.246167 C 37.068811,17.246167 37.088388,32 37.088388,32 L 22.160133,31.978069 C 22.160133,31.978069 26.997745,27.140456 26.997745,27.140456 C 18.528582,18.264221 13.291696,25.230495 11.500037,31.436501 z"
             style="fill:#404040;"/>
          </a>
         </g>
        </svg>
</svg>
