<?xml version="1.0" encoding="UTF-8" standalone="no"?>
<!DOCTYPE svg PUBLIC "-//W3C//DTD SVG 1.1//EN"
        "http://www.w3.org/Graphics/SVG/1.1/DTD/svg11.dtd">
<!-- Generated by graphviz version 2.40.1 (20161225.0304)
 -->
<!-- Title: code/interfaces/IObserver.hpp Pages: 1 -->
<svg width="157pt" height="82pt"
     viewBox="0.00 0.00 157.41 82.00" xmlns="http://www.w3.org/2000/svg" xmlns:xlink="http://www.w3.org/1999/xlink">
    <g id="graph0" class="graph" transform="scale(1 1) rotate(0) translate(4 78)">
        <title>code/interfaces/IObserver.hpp</title>
        <!-- Node0 -->
        <g id="node1" class="node">
            <title>Node0</title>
            <polygon fill="#bfbfbf" stroke="#000000" points="0,-55.5 0,-73.5 149.4131,-73.5 149.4131,-55.5 0,-55.5"/>
            <text text-anchor="middle" x="74.7065" y="-61.5" font-family="Helvetica,sans-Serif" font-size="10.00"
                  fill="#000000">code/interfaces/IObserver.hpp
            </text>
        </g>
        <!-- Node1 -->
        <g id="node2" class="node">
            <title>Node1</title>
            <polygon fill="none" stroke="#bfbfbf"
                     points="22.0908,-.5 22.0908,-18.5 65.3223,-18.5 65.3223,-.5 22.0908,-.5"/>
            <text text-anchor="middle" x="43.7065" y="-6.5" font-family="Helvetica,sans-Serif" font-size="10.00"
                  fill="#000000">mutex
            </text>
        </g>
        <!-- Node0&#45;&gt;Node1 -->
        <g id="edge1" class="edge">
            <title>Node0&#45;&gt;Node1</title>
            <path fill="none" stroke="#191970"
                  d="M69.5875,-55.4179C65.3501,-47.8998 59.1969,-36.9829 53.9534,-27.6799"/>
            <polygon fill="#191970" stroke="#191970"
                     points="56.896,-25.7724 48.9368,-18.7795 50.7979,-29.2096 56.896,-25.7724"/>
        </g>
        <!-- Node2 -->
        <g id="node3" class="node">
            <title>Node2</title>
            <polygon fill="none" stroke="#bfbfbf"
                     points="83.5293,-.5 83.5293,-18.5 127.8838,-18.5 127.8838,-.5 83.5293,-.5"/>
            <text text-anchor="middle" x="105.7065" y="-6.5" font-family="Helvetica,sans-Serif" font-size="10.00"
                  fill="#000000">thread
            </text>
        </g>
        <!-- Node0&#45;&gt;Node2 -->
        <g id="edge2" class="edge">
            <title>Node0&#45;&gt;Node2</title>
            <path fill="none" stroke="#191970" d="M79.8256,-55.4179C84.063,-47.8998 90.2162,-36.9829 95.4597,-27.6799"/>
            <polygon fill="#191970" stroke="#191970"
                     points="98.6152,-29.2096 100.4763,-18.7795 92.5171,-25.7724 98.6152,-29.2096"/>
        </g>
    </g>
</svg>
