<?xml version="1.0" encoding="UTF-8" standalone="no"?>
<!DOCTYPE svg PUBLIC "-//W3C//DTD SVG 1.1//EN"
        "http://www.w3.org/Graphics/SVG/1.1/DTD/svg11.dtd">
<!-- Generated by graphviz version 2.40.1 (20161225.0304)
 -->
<!-- Title: code/interfaces/ISerializable.hpp Pages: 1 -->
<!--zoomable 312 -->
<svg id="main" version="1.1" xmlns="http://www.w3.org/2000/svg" xmlns:xlink="http://www.w3.org/1999/xlink" xml:space="preserve" onload="initDrugComboBox(evt)">
<style type="text/css"><![CDATA[
.edge:hover path { stroke: red; }
.edge:hover polygon { stroke: red; fill: red; }
]]></style>
<script type="text/javascript"><![CDATA[
var edges = document.getElementsByTagName('g');
if (edges && edges.length) {
  for (var i=0;i<edges.length;i++) {
    if (edges[i].id.substr(0,4)=='edge') {
      edges[i].setAttribute('class','edge');
    }
  }
}
]]></script>
        <defs>
                <circle id="rim" cx="0" cy="0" r="7"/>
                <circle id="rim2" cx="0" cy="0" r="3.5"/>
                <g id="zoomPlus">
                        <use xlink:href="#rim" fill="#404040">
                                <set attributeName="fill" to="#808080" begin="zoomplus.mouseover" end="zoomplus.mouseout"/>
                        </use>
                        <path d="M-4,0h8M0,-4v8" fill="none" stroke="white" stroke-width="1.5" pointer-events="none"/>
                </g>
                <g id="zoomMin">
                        <use xlink:href="#rim" fill="#404040">
                                <set attributeName="fill" to="#808080" begin="zoomminus.mouseover" end="zoomminus.mouseout"/>
                        </use>
                        <path d="M-4,0h8" fill="none" stroke="white" stroke-width="1.5" pointer-events="none"/>
                </g>
                <g id="dirArrow">
                        <path fill="none" stroke="white" stroke-width="1.5" d="M0,-3.0v7 M-2.5,-0.5L0,-3.0L2.5,-0.5"/>
                </g>
               <g id="resetDef">
                       <use xlink:href="#rim2" fill="#404040">
                               <set attributeName="fill" to="#808080" begin="reset.mouseover" end="reset.mouseout"/>
                       </use>
               </g>
        </defs>

<script type="text/javascript">
var viewWidth = 1340;
var viewHeight = 312;
var sectionId = 'dynsection-1';
</script>
<script xlink:href="../../svgpan.js"/>
<svg id="graph" class="graph">
<g id="viewport">
<title>code/interfaces/ISerializable.hpp</title>
    <!-- Node3 -->
<g id="node1" class="node">
<title>Node3</title>
<polygon fill="#bfbfbf" stroke="#000000" points="815.8804,-285.5 815.8804,-303.5 976.4116,-303.5 976.4116,-285.5 815.8804,-285.5"/>
<text text-anchor="middle" x="896.146" y="-291.5" font-family="Helvetica,sans-Serif" font-size="10.00" fill="#000000">code/interfaces/ISerializable.hpp</text>
</g>
    <!-- Node4 -->
<g id="node2" class="node">
<title>Node4</title>
<g id="a_node2"><a xlink:href="../../d7/d0f/_d_b_master_8hpp.html" target="_top" xlink:title="code/DBMaster.hpp">
<polygon fill="none" stroke="#000000" points="404.23,-175.5 404.23,-193.5 508.062,-193.5 508.062,-175.5 404.23,-175.5"/>
<text text-anchor="middle" x="456.146" y="-181.5" font-family="Helvetica,sans-Serif" font-size="10.00" fill="#000000">code/DBMaster.hpp</text>
</a>
</g>
</g>
    <!-- Node3&#45;&gt;Node4 -->
<g id="edge1" class="edge">
<title>Node3&#45;&gt;Node4</title>
<path fill="none" stroke="#191970" d="M850.192,-283.0115C762.285,-261.0348 571.9807,-213.4587 492.3415,-193.5489"/>
<polygon fill="#191970" stroke="#191970" points="849.5886,-286.4683 860.1389,-285.4982 851.2864,-279.6773 849.5886,-286.4683"/>
</g>
    <!-- Node16 -->
<g id="node14" class="node">
<title>Node16</title>
<g id="a_node14"><a xlink:href="../../d0/da9/_patient_8hpp.html" target="_top" xlink:title="code/model/Patient.hpp">
<polygon fill="none" stroke="#000000" points="868.6094,-115.5 868.6094,-133.5 989.6826,-133.5 989.6826,-115.5 868.6094,-115.5"/>
<text text-anchor="middle" x="929.146" y="-121.5" font-family="Helvetica,sans-Serif" font-size="10.00" fill="#000000">code/model/Patient.hpp</text>
</a>
</g>
</g>
    <!-- Node3&#45;&gt;Node16 -->
<g id="edge16" class="edge">
<title>Node3&#45;&gt;Node16</title>
<path fill="none" stroke="#191970" d="M887.2042,-276.0261C876.8394,-251.8822 862.8934,-208.7091 877.146,-175 884.6932,-157.15 901.9778,-142.5009 914.5533,-133.6612"/>
<polygon fill="#191970" stroke="#191970" points="884.1422,-277.7477 891.4674,-285.4022 890.5144,-274.8503 884.1422,-277.7477"/>
</g>
    <!-- Node18 -->
<g id="node16" class="node">
<title>Node18</title>
<g id="a_node16"><a xlink:href="../../de/d01/_prescription_8hpp.html" target="_top" xlink:title="code/model/Prescription.hpp">
<polygon fill="none" stroke="#000000" points="885.7769,-175.5 885.7769,-193.5 1028.5151,-193.5 1028.5151,-175.5 885.7769,-175.5"/>
<text text-anchor="middle" x="957.146" y="-181.5" font-family="Helvetica,sans-Serif" font-size="10.00" fill="#000000">code/model/Prescription.hpp</text>
</a>
</g>
</g>
    <!-- Node3&#45;&gt;Node18 -->
<g id="edge22" class="edge">
<title>Node3&#45;&gt;Node18</title>
<path fill="none" stroke="#191970" d="M899.4041,-275.2593C902.2227,-261.9328 907.137,-244.1205 915.146,-230 923.3137,-215.5997 936.8535,-202.0593 946.3464,-193.5554"/>
<polygon fill="#191970" stroke="#191970" points="895.9401,-274.7409 897.5076,-285.2191 902.8165,-276.0503 895.9401,-274.7409"/>
</g>
    <!-- Node23 -->
<g id="node21" class="node">
<title>Node23</title>
<g id="a_node21"><a xlink:href="../../dd/df9/_drug_8hpp.html" target="_top" xlink:title="code/model/Drug.hpp">
<polygon fill="none" stroke="#000000" points="924.3384,-230.5 924.3384,-248.5 1035.9536,-248.5 1035.9536,-230.5 924.3384,-230.5"/>
<text text-anchor="middle" x="980.146" y="-236.5" font-family="Helvetica,sans-Serif" font-size="10.00" fill="#000000">code/model/Drug.hpp</text>
</a>
</g>
</g>
    <!-- Node3&#45;&gt;Node23 -->
<g id="edge31" class="edge">
<title>Node3&#45;&gt;Node23</title>
<path fill="none" stroke="#191970" d="M918.7904,-279.6733C933.9279,-269.7619 953.3587,-257.0393 966.2545,-248.5956"/>
<polygon fill="#191970" stroke="#191970" points="916.4658,-277.0118 910.0169,-285.4179 920.3004,-282.8681 916.4658,-277.0118"/>
</g>
    <!-- Node25 -->
<g id="node23" class="node">
<title>Node25</title>
<g id="a_node23"><a xlink:href="../../d8/d8a/_i_serializable_8cpp.html" target="_top" xlink:title="code/interfaces/ISerializable.cpp">
<polygon fill="none" stroke="#000000" points="1054.1611,-230.5 1054.1611,-248.5 1214.1309,-248.5 1214.1309,-230.5 1054.1611,-230.5"/>
<text text-anchor="middle" x="1134.146" y="-236.5" font-family="Helvetica,sans-Serif" font-size="10.00" fill="#000000">code/interfaces/ISerializable.cpp</text>
</a>
</g>
</g>
    <!-- Node3&#45;&gt;Node25 -->
<g id="edge36" class="edge">
<title>Node3&#45;&gt;Node25</title>
<path fill="none" stroke="#191970" d="M945.1661,-283.1718C989.5561,-272.9136 1054.0966,-257.9988 1095.0903,-248.5255"/>
<polygon fill="#191970" stroke="#191970" points="944.1355,-279.8177 935.1803,-285.4795 945.7117,-286.6379 944.1355,-279.8177"/>
</g>
    <!-- Node5 -->
<g id="node3" class="node">
<title>Node5</title>
<g id="a_node3"><a xlink:href="../../d7/d71/_d_b_master_8cpp.html" target="_top" xlink:title="code/DBMaster.cpp">
<polygon fill="none" stroke="#000000" points="364.5107,-115.5 364.5107,-133.5 467.7812,-133.5 467.7812,-115.5 364.5107,-115.5"/>
<text text-anchor="middle" x="416.146" y="-121.5" font-family="Helvetica,sans-Serif" font-size="10.00" fill="#000000">code/DBMaster.cpp</text>
</a>
</g>
</g>
    <!-- Node4&#45;&gt;Node5 -->
<g id="edge2" class="edge">
<title>Node4&#45;&gt;Node5</title>
<path fill="none" stroke="#191970" d="M444.4977,-167.0276C437.2315,-156.1282 428.1724,-142.5397 422.2783,-133.6985"/>
<polygon fill="#191970" stroke="#191970" points="441.6116,-169.0082 450.0709,-175.3873 447.436,-165.1253 441.6116,-169.0082"/>
</g>
    <!-- Node6 -->
<g id="node4" class="node">
<title>Node6</title>
<g id="a_node4"><a xlink:href="../../db/db5/_add_patient_dialog_8cpp.html" target="_top" xlink:title="code/gui/AddPatientDialog.cpp">
<polygon fill="none" stroke="#000000" points="484.7646,-55.5 484.7646,-73.5 637.5273,-73.5 637.5273,-55.5 484.7646,-55.5"/>
<text text-anchor="middle" x="561.146" y="-61.5" font-family="Helvetica,sans-Serif" font-size="10.00" fill="#000000">code/gui/AddPatientDialog.cpp</text>
</a>
</g>
</g>
    <!-- Node4&#45;&gt;Node6 -->
<g id="edge3" class="edge">
<title>Node4&#45;&gt;Node6</title>
<path fill="none" stroke="#191970" d="M400.0654,-172.0488C382.6793,-165.2697 365.4072,-154.8771 355.146,-139 348.1499,-128.1751 347.0746,-120.0487 355.146,-110 364.5068,-98.346 445.6999,-83.0526 503.3045,-73.5006"/>
<polygon fill="#191970" stroke="#191970" points="399.0975,-175.4189 409.6923,-175.4551 401.4326,-168.8198 399.0975,-175.4189"/>
</g>
    <!-- Node7 -->
<g id="node5" class="node">
<title>Node7</title>
<g id="a_node5"><a xlink:href="../../dc/d00/_authentication_8hpp.html" target="_top" xlink:title="code/model/Authentication.hpp">
<polygon fill="none" stroke="#000000" points="154.4863,-115.5 154.4863,-133.5 307.8057,-133.5 307.8057,-115.5 154.4863,-115.5"/>
<text text-anchor="middle" x="231.146" y="-121.5" font-family="Helvetica,sans-Serif" font-size="10.00" fill="#000000">code/model/Authentication.hpp</text>
</a>
</g>
</g>
    <!-- Node4&#45;&gt;Node7 -->
<g id="edge4" class="edge">
<title>Node4&#45;&gt;Node7</title>
<path fill="none" stroke="#191970" d="M412.3095,-172.8103C369.1593,-161.3036 304.1847,-143.977 264.903,-133.5019"/>
<polygon fill="#191970" stroke="#191970" points="411.4091,-176.1924 421.9733,-175.3873 413.2128,-169.4288 411.4091,-176.1924"/>
</g>
    <!-- Node9 -->
<g id="node7" class="node">
<title>Node9</title>
<g id="a_node7"><a xlink:href="../../d8/d35/_patient_window_8cpp.html" target="_top" xlink:title="code/gui/PatientWindow.cpp">
<polygon fill="none" stroke="#000000" points="383.3262,-.5 383.3262,-18.5 524.9658,-18.5 524.9658,-.5 383.3262,-.5"/>
<text text-anchor="middle" x="454.146" y="-6.5" font-family="Helvetica,sans-Serif" font-size="10.00" fill="#000000">code/gui/PatientWindow.cpp</text>
</a>
</g>
</g>
    <!-- Node4&#45;&gt;Node9 -->
<g id="edge11" class="edge">
<title>Node4&#45;&gt;Node9</title>
<path fill="none" stroke="#191970" d="M393.9366,-180.1353C306.9818,-173.4177 153.936,-159.1745 102.146,-139 50.5536,-118.9025 -26.9562,-96.0987 10.146,-55 34.615,-27.8953 263.7771,-16.0373 382.9231,-11.6685"/>
<polygon fill="#191970" stroke="#191970" points="393.707,-183.6278 403.944,-180.8977 394.2388,-176.6481 393.707,-183.6278"/>
</g>
    <!-- Node10 -->
<g id="node8" class="node">
<title>Node10</title>
<g id="a_node8"><a xlink:href="../../d7/daf/_med_h_8cpp.html" target="_top" xlink:title="code/MedH.cpp">
<polygon fill="none" stroke="#000000" points="19.1265,-55.5 19.1265,-73.5 105.1655,-73.5 105.1655,-55.5 19.1265,-55.5"/>
<text text-anchor="middle" x="62.146" y="-61.5" font-family="Helvetica,sans-Serif" font-size="10.00" fill="#000000">code/MedH.cpp</text>
</a>
</g>
</g>
    <!-- Node4&#45;&gt;Node10 -->
<g id="edge12" class="edge">
<title>Node4&#45;&gt;Node10</title>
<path fill="none" stroke="#191970" d="M394.0125,-179.6814C316.2697,-172.9199 188.1162,-159.1444 145.146,-139 111.8349,-123.3838 82.2501,-89.9101 69.2095,-73.6883"/>
<polygon fill="#191970" stroke="#191970" points="393.905,-183.1848 404.1668,-180.5496 394.5014,-176.2103 393.905,-183.1848"/>
</g>
    <!-- Node12 -->
<g id="node10" class="node">
<title>Node12</title>
<g id="a_node10"><a xlink:href="../../df/de8/_add_prescription_dialog_8cpp.html" target="_top" xlink:title="code/gui/AddPrescription\lDialog.cpp">
<polygon fill="none" stroke="#000000" points="562.5576,-110.5 562.5576,-138.5 689.7344,-138.5 689.7344,-110.5 562.5576,-110.5"/>
<text text-anchor="start" x="570.5576" y="-126.5" font-family="Helvetica,sans-Serif" font-size="10.00" fill="#000000">code/gui/AddPrescription</text>
<text text-anchor="middle" x="626.146" y="-116.5" font-family="Helvetica,sans-Serif" font-size="10.00" fill="#000000">Dialog.cpp</text>
</a>
</g>
</g>
    <!-- Node4&#45;&gt;Node12 -->
<g id="edge10" class="edge">
<title>Node4&#45;&gt;Node12</title>
<path fill="none" stroke="#191970" d="M491.6408,-171.9724C519.3266,-162.2009 557.7685,-148.6332 586.4679,-138.504"/>
<polygon fill="#191970" stroke="#191970" points="490.2303,-168.7586 481.9653,-175.3873 492.5601,-175.3595 490.2303,-168.7586"/>
</g>
    <!-- Node13 -->
<g id="node11" class="node">
<title>Node13</title>
<g id="a_node11"><a xlink:href="../../d3/da6/_doctor_8cpp.html" target="_top" xlink:title="code/model/Doctor.cpp">
<polygon fill="none" stroke="#000000" points="735.0034,-.5 735.0034,-18.5 853.2886,-18.5 853.2886,-.5 735.0034,-.5"/>
<text text-anchor="middle" x="794.146" y="-6.5" font-family="Helvetica,sans-Serif" font-size="10.00" fill="#000000">code/model/Doctor.cpp</text>
</a>
</g>
</g>
    <!-- Node4&#45;&gt;Node13 -->
<g id="edge13" class="edge">
<title>Node4&#45;&gt;Node13</title>
<path fill="none" stroke="#191970" d="M464.6783,-166.3796C473.642,-149.3061 489.3329,-124.2752 510.146,-110 561.7093,-74.6339 587.0931,-94.5497 646.146,-74 694.0594,-57.3267 748.2045,-31.9874 775.8176,-18.5712"/>
<polygon fill="#191970" stroke="#191970" points="461.5247,-164.8608 460.1901,-175.3712 467.7878,-167.9871 461.5247,-164.8608"/>
</g>
    <!-- Node14 -->
<g id="node12" class="node">
<title>Node14</title>
<g id="a_node12"><a xlink:href="../../d0/d77/_patient_8cpp.html" target="_top" xlink:title="code/model/Patient.cpp">
<polygon fill="none" stroke="#000000" points="714.8901,-55.5 714.8901,-73.5 835.4019,-73.5 835.4019,-55.5 714.8901,-55.5"/>
<text text-anchor="middle" x="775.146" y="-61.5" font-family="Helvetica,sans-Serif" font-size="10.00" fill="#000000">code/model/Patient.cpp</text>
</a>
</g>
</g>
    <!-- Node4&#45;&gt;Node14 -->
<g id="edge14" class="edge">
<title>Node4&#45;&gt;Node14</title>
<path fill="none" stroke="#191970" d="M474.586,-168.7181C497.7161,-149.2158 536.3747,-117.6623 553.146,-110 604.6764,-86.4573 668.4773,-75.0037 714.4398,-69.488"/>
<polygon fill="#191970" stroke="#191970" points="472.1984,-166.1537 466.8362,-175.2914 476.7264,-171.4921 472.1984,-166.1537"/>
</g>
    <!-- Node15 -->
<g id="node13" class="node">
<title>Node15</title>
<g id="a_node13"><a xlink:href="../../d5/db1/_prescription_8cpp.html" target="_top" xlink:title="code/model/Prescription.cpp">
<polygon fill="none" stroke="#000000" points="708.0576,-115.5 708.0576,-133.5 850.2344,-133.5 850.2344,-115.5 708.0576,-115.5"/>
<text text-anchor="middle" x="779.146" y="-121.5" font-family="Helvetica,sans-Serif" font-size="10.00" fill="#000000">code/model/Prescription.cpp</text>
</a>
</g>
</g>
    <!-- Node4&#45;&gt;Node15 -->
<g id="edge15" class="edge">
<title>Node4&#45;&gt;Node15</title>
<path fill="none" stroke="#191970" d="M514.8439,-173.5964C576.661,-162.1133 672.8693,-144.2418 730.5725,-133.5229"/>
<polygon fill="#191970" stroke="#191970" points="514.0446,-170.1849 504.8521,-175.4524 515.3231,-177.0671 514.0446,-170.1849"/>
</g>
    <!-- Node7&#45;&gt;Node6 -->
<g id="edge5" class="edge">
<title>Node7&#45;&gt;Node6</title>
<path fill="none" stroke="#191970" d="M291.1159,-113.5964C354.2728,-102.1133 452.5661,-84.2418 511.5199,-73.5229"/>
<polygon fill="#191970" stroke="#191970" points="290.1202,-110.22 280.9076,-115.4524 291.3725,-117.107 290.1202,-110.22"/>
</g>
    <!-- Node8 -->
<g id="node6" class="node">
<title>Node8</title>
<g id="a_node6"><a xlink:href="../../d9/d07/_login_window_8cpp.html" target="_top" xlink:title="code/gui/LoginWindow.cpp">
<polygon fill="none" stroke="#000000" points="331.6587,-55.5 331.6587,-73.5 466.6333,-73.5 466.6333,-55.5 331.6587,-55.5"/>
<text text-anchor="middle" x="399.146" y="-61.5" font-family="Helvetica,sans-Serif" font-size="10.00" fill="#000000">code/gui/LoginWindow.cpp</text>
</a>
</g>
</g>
    <!-- Node7&#45;&gt;Node8 -->
<g id="edge6" class="edge">
<title>Node7&#45;&gt;Node8</title>
<path fill="none" stroke="#191970" d="M266.1413,-112.0017C298.3327,-100.5047 345.2897,-83.7344 373.9407,-73.5019"/>
<polygon fill="#191970" stroke="#191970" points="264.9018,-108.7278 256.6616,-115.3873 267.2562,-115.32 264.9018,-108.7278"/>
</g>
    <!-- Node7&#45;&gt;Node9 -->
<g id="edge7" class="edge">
<title>Node7&#45;&gt;Node9</title>
<path fill="none" stroke="#191970" d="M197.2014,-111.4507C167.9822,-98.3207 133.2757,-76.9264 152.146,-55 167.04,-37.6939 298.6153,-23.0775 383.1106,-15.3662"/>
<polygon fill="#191970" stroke="#191970" points="195.851,-114.6799 206.4204,-115.4135 198.6155,-108.2489 195.851,-114.6799"/>
</g>
    <!-- Node7&#45;&gt;Node10 -->
<g id="edge8" class="edge">
<title>Node7&#45;&gt;Node10</title>
<path fill="none" stroke="#191970" d="M195.9423,-112.0017C163.5593,-100.5047 116.3229,-83.7344 87.5013,-73.5019"/>
<polygon fill="#191970" stroke="#191970" points="194.8838,-115.3398 205.4785,-115.3873 197.2258,-108.7432 194.8838,-115.3398"/>
</g>
    <!-- Node11 -->
<g id="node9" class="node">
<title>Node11</title>
<g id="a_node9"><a xlink:href="../../d6/d6e/_authentication_8cpp.html" target="_top" xlink:title="code/model/Authentication.cpp">
<polygon fill="none" stroke="#000000" points="160.7671,-55.5 160.7671,-73.5 313.5249,-73.5 313.5249,-55.5 160.7671,-55.5"/>
<text text-anchor="middle" x="237.146" y="-61.5" font-family="Helvetica,sans-Serif" font-size="10.00" fill="#000000">code/model/Authentication.cpp</text>
</a>
</g>
</g>
    <!-- Node7&#45;&gt;Node11 -->
<g id="edge9" class="edge">
<title>Node7&#45;&gt;Node11</title>
<path fill="none" stroke="#191970" d="M233.0586,-105.3734C234.1179,-94.7812 235.3862,-82.0976 236.2261,-73.6985"/>
<polygon fill="#191970" stroke="#191970" points="229.5698,-105.0886 232.0573,-115.3873 236.535,-105.7852 229.5698,-105.0886"/>
</g>
    <!-- Node16&#45;&gt;Node6 -->
<g id="edge17" class="edge">
<title>Node16&#45;&gt;Node6</title>
<path fill="none" stroke="#191970" d="M877.2356,-113.4293C871.1465,-112.225 865.0149,-111.0551 859.146,-110 779.5633,-95.6923 687.4985,-82.0819 627.0044,-73.5385"/>
<polygon fill="#191970" stroke="#191970" points="876.8946,-116.9308 887.3889,-115.4744 878.2769,-110.0687 876.8946,-116.9308"/>
</g>
    <!-- Node16&#45;&gt;Node14 -->
<g id="edge21" class="edge">
<title>Node16&#45;&gt;Node14</title>
<path fill="none" stroke="#191970" d="M896.3008,-111.7032C866.8173,-100.2161 824.2879,-83.6462 798.2508,-73.5019"/>
<polygon fill="#191970" stroke="#191970" points="895.1683,-115.0182 905.7567,-115.3873 897.7096,-108.4957 895.1683,-115.0182"/>
</g>
    <!-- Node17 -->
<g id="node15" class="node">
<title>Node17</title>
<g id="a_node15"><a xlink:href="../../dd/dc5/_doctor_8hpp.html" target="_top" xlink:title="code/model/Doctor.hpp">
<polygon fill="none" stroke="#000000" points="864.7227,-55.5 864.7227,-73.5 983.5693,-73.5 983.5693,-55.5 864.7227,-55.5"/>
<text text-anchor="middle" x="924.146" y="-61.5" font-family="Helvetica,sans-Serif" font-size="10.00" fill="#000000">code/model/Doctor.hpp</text>
</a>
</g>
</g>
    <!-- Node16&#45;&gt;Node17 -->
<g id="edge18" class="edge">
<title>Node16&#45;&gt;Node17</title>
<path fill="none" stroke="#191970" d="M927.5521,-105.3734C926.6694,-94.7812 925.6125,-82.0976 924.9125,-73.6985"/>
<polygon fill="#191970" stroke="#191970" points="924.0681,-105.7125 928.3866,-115.3873 931.044,-105.1311 924.0681,-105.7125"/>
</g>
    <!-- Node17&#45;&gt;Node9 -->
<g id="edge19" class="edge">
<title>Node17&#45;&gt;Node9</title>
<path fill="none" stroke="#191970" d="M854.1221,-56.1762C850.7494,-55.778 847.4103,-55.3842 844.146,-55 732.7792,-41.8912 603.5025,-26.842 525.3171,-17.7588"/>
<polygon fill="#191970" stroke="#191970" points="853.9579,-59.6811 864.2997,-57.3797 854.7799,-52.7296 853.9579,-59.6811"/>
</g>
    <!-- Node17&#45;&gt;Node13 -->
<g id="edge20" class="edge">
<title>Node17&#45;&gt;Node13</title>
<path fill="none" stroke="#191970" d="M893.3319,-51.4633C869.4001,-41.3383 836.8263,-27.5571 815.6447,-18.5956"/>
<polygon fill="#191970" stroke="#191970" points="892.1057,-54.7448 902.6791,-55.4179 894.8332,-48.298 892.1057,-54.7448"/>
</g>
    <!-- Node18&#45;&gt;Node15 -->
<g id="edge30" class="edge">
<title>Node18&#45;&gt;Node15</title>
<path fill="none" stroke="#191970" d="M920.5078,-172.15C886.3893,-160.6494 836.3389,-143.7785 805.8516,-133.5019"/>
<polygon fill="#191970" stroke="#191970" points="919.5175,-175.5097 930.1116,-175.3873 921.7535,-168.8764 919.5175,-175.5097"/>
</g>
    <!-- Node18&#45;&gt;Node16 -->
<g id="edge23" class="edge">
<title>Node18&#45;&gt;Node16</title>
<path fill="none" stroke="#191970" d="M948.5311,-166.0396C943.5273,-155.3172 937.4407,-142.2744 933.4386,-133.6985"/>
<polygon fill="#191970" stroke="#191970" points="945.4928,-167.8056 952.8934,-175.3873 951.8361,-164.8453 945.4928,-167.8056"/>
</g>
    <!-- Node18&#45;&gt;Node17 -->
<g id="edge29" class="edge">
<title>Node18&#45;&gt;Node17</title>
<path fill="none" stroke="#191970" d="M977.531,-168.4997C985.9172,-160.6259 994.6962,-150.381 999.146,-139 1003.8394,-126.996 1005.4689,-121.2314 999.146,-110 989.1346,-92.2167 969.0549,-80.5839 952.1901,-73.5352"/>
<polygon fill="#191970" stroke="#191970" points="974.9948,-166.0678 969.7651,-175.282 979.5994,-171.3402 974.9948,-166.0678"/>
</g>
    <!-- Node19 -->
<g id="node17" class="node">
<title>Node19</title>
<g id="a_node17"><a xlink:href="../../d5/d46/_custom_widgets_8hpp.html" target="_top" xlink:title="code/gui/view/CustomWidgets.hpp">
<polygon fill="none" stroke="#000000" points="1084.4419,-115.5 1084.4419,-133.5 1253.8501,-133.5 1253.8501,-115.5 1084.4419,-115.5"/>
<text text-anchor="middle" x="1169.146" y="-121.5" font-family="Helvetica,sans-Serif" font-size="10.00" fill="#000000">code/gui/view/CustomWidgets.hpp</text>
</a>
</g>
</g>
    <!-- Node18&#45;&gt;Node19 -->
<g id="edge24" class="edge">
<title>Node18&#45;&gt;Node19</title>
<path fill="none" stroke="#191970" d="M999.2225,-172.5916C1039.8791,-161.085 1100.5611,-143.9108 1137.3394,-133.5019"/>
<polygon fill="#191970" stroke="#191970" points="998.0131,-169.2963 989.3442,-175.3873 999.9194,-176.0317 998.0131,-169.2963"/>
</g>
    <!-- Node20 -->
<g id="node18" class="node">
<title>Node20</title>
<g id="a_node18"><a xlink:href="../../dd/de0/_patient_window_8hpp.html" target="_top" xlink:title="code/gui/PatientWindow.hpp">
<polygon fill="none" stroke="#000000" points="1002.0454,-55.5 1002.0454,-73.5 1144.2466,-73.5 1144.2466,-55.5 1002.0454,-55.5"/>
<text text-anchor="middle" x="1073.146" y="-61.5" font-family="Helvetica,sans-Serif" font-size="10.00" fill="#000000">code/gui/PatientWindow.hpp</text>
</a>
</g>
</g>
    <!-- Node19&#45;&gt;Node20 -->
<g id="edge25" class="edge">
<title>Node19&#45;&gt;Node20</title>
<path fill="none" stroke="#191970" d="M1145.7305,-109.8653C1127.5533,-98.5045 1102.9331,-83.1169 1087.549,-73.5019"/>
<polygon fill="#191970" stroke="#191970" points="1144.2306,-113.0553 1154.5657,-115.3873 1147.9407,-107.1193 1144.2306,-113.0553"/>
</g>
    <!-- Node22 -->
<g id="node20" class="node">
<title>Node22</title>
<g id="a_node20"><a xlink:href="../../d1/dea/_custom_widgets_8cpp.html" target="_top" xlink:title="code/gui/view/CustomWidgets.cpp">
<polygon fill="none" stroke="#000000" points="1162.7227,-55.5 1162.7227,-73.5 1331.5693,-73.5 1331.5693,-55.5 1162.7227,-55.5"/>
<text text-anchor="middle" x="1247.146" y="-61.5" font-family="Helvetica,sans-Serif" font-size="10.00" fill="#000000">code/gui/view/CustomWidgets.cpp</text>
</a>
</g>
</g>
    <!-- Node19&#45;&gt;Node22 -->
<g id="edge28" class="edge">
<title>Node19&#45;&gt;Node22</title>
<path fill="none" stroke="#191970" d="M1188.9893,-109.2359C1203.6717,-97.9418 1223.1734,-82.9405 1235.4436,-73.5019"/>
<polygon fill="#191970" stroke="#191970" points="1186.7848,-106.516 1180.9925,-115.3873 1191.0528,-112.0643 1186.7848,-106.516"/>
</g>
    <!-- Node20&#45;&gt;Node9 -->
<g id="edge27" class="edge">
<title>Node20&#45;&gt;Node9</title>
<path fill="none" stroke="#191970" d="M991.9056,-55.0089C817.5102,-37.5424 626.1788,-22.4296 525.1436,-14.7684"/>
<polygon fill="#191970" stroke="#191970" points="991.7419,-58.51 1002.0421,-56.0287 992.4427,-51.5452 991.7419,-58.51"/>
</g>
    <!-- Node21 -->
<g id="node19" class="node">
<title>Node21</title>
<g id="a_node19"><a xlink:href="../../d5/da5/_main_window_8cpp.html" target="_top" xlink:title="code/gui/MainWindow.cpp">
<polygon fill="none" stroke="#000000" points="1007.0552,-.5 1007.0552,-18.5 1139.2368,-18.5 1139.2368,-.5 1007.0552,-.5"/>
<text text-anchor="middle" x="1073.146" y="-6.5" font-family="Helvetica,sans-Serif" font-size="10.00" fill="#000000">code/gui/MainWindow.cpp</text>
</a>
</g>
</g>
    <!-- Node20&#45;&gt;Node21 -->
<g id="edge26" class="edge">
<title>Node20&#45;&gt;Node21</title>
<path fill="none" stroke="#191970" d="M1073.146,-45.383C1073.146,-36.3738 1073.146,-26.0373 1073.146,-18.7795"/>
<polygon fill="#191970" stroke="#191970" points="1069.6461,-45.4178 1073.146,-55.4179 1076.6461,-45.4179 1069.6461,-45.4178"/>
</g>
    <!-- Node23&#45;&gt;Node12 -->
<g id="edge33" class="edge">
<title>Node23&#45;&gt;Node12</title>
<path fill="none" stroke="#191970" d="M942.7679,-227.3574C876.6605,-205.8818 739.4952,-161.3225 669.4094,-138.5545"/>
<polygon fill="#191970" stroke="#191970" points="941.7761,-230.7152 952.3682,-230.4761 943.9389,-224.0577 941.7761,-230.7152"/>
</g>
    <!-- Node23&#45;&gt;Node17 -->
<g id="edge34" class="edge">
<title>Node23&#45;&gt;Node17</title>
<path fill="none" stroke="#191970" d="M1007.6373,-224.9631C1018.9769,-217.3833 1030.9067,-206.9639 1037.146,-194 1040.8081,-186.391 1038.5178,-183.3323 1037.146,-175 1032.1913,-144.9064 1035.1819,-132.9943 1015.146,-110 999.7129,-92.2882 975.7537,-80.699 956.2932,-73.6513"/>
<polygon fill="#191970" stroke="#191970" points="1005.4586,-222.1949 998.7896,-230.4275 1009.1369,-228.1506 1005.4586,-222.1949"/>
</g>
    <!-- Node23&#45;&gt;Node18 -->
<g id="edge32" class="edge">
<title>Node23&#45;&gt;Node18</title>
<path fill="none" stroke="#191970" d="M972.3992,-220.9751C968.5748,-211.8297 964.1283,-201.1969 961.0265,-193.7795"/>
<polygon fill="#191970" stroke="#191970" points="969.2609,-222.5424 976.348,-230.4179 975.7189,-219.8417 969.2609,-222.5424"/>
</g>
    <!-- Node24 -->
<g id="node22" class="node">
<title>Node24</title>
<g id="a_node22"><a xlink:href="../../d1/d9e/_drug_8cpp.html" target="_top" xlink:title="code/model/Drug.cpp">
<polygon fill="none" stroke="#000000" points="1084.6191,-175.5 1084.6191,-193.5 1195.6728,-193.5 1195.6728,-175.5 1084.6191,-175.5"/>
<text text-anchor="middle" x="1140.146" y="-181.5" font-family="Helvetica,sans-Serif" font-size="10.00" fill="#000000">code/model/Drug.cpp</text>
</a>
</g>
</g>
    <!-- Node23&#45;&gt;Node24 -->
<g id="edge35" class="edge">
<title>Node23&#45;&gt;Node24</title>
<path fill="none" stroke="#191970" d="M1016.1535,-227.1224C1045.8635,-216.9096 1087.3214,-202.6584 1113.9519,-193.5042"/>
<polygon fill="#191970" stroke="#191970" points="1014.8858,-223.8571 1006.5667,-230.4179 1017.1614,-230.4769 1014.8858,-223.8571"/>
</g>
</g>
</svg>
        <g id="navigator" transform="translate(0 0)" fill="#404254">
                <rect fill="#f2f5e9" fill-opacity="0.5" stroke="#606060" stroke-width=".5" x="0" y="0" width="60" height="60"/>
                <use id="zoomplus" xlink:href="#zoomPlus" x="17" y="9" onmousedown="handleZoom(evt,'in')"/>
                <use id="zoomminus" xlink:href="#zoomMin" x="42" y="9" onmousedown="handleZoom(evt,'out')"/>
                <use id="reset" xlink:href="#resetDef" x="30" y="36" onmousedown="handleReset()"/>
                <g id="arrowUp" xlink:href="#dirArrow" transform="translate(30 24)" onmousedown="handlePan(0,-1)">
                  <use xlink:href="#rim" fill="#404040">
                        <set attributeName="fill" to="#808080" begin="arrowUp.mouseover" end="arrowUp.mouseout"/>
                  </use>
                  <path fill="none" stroke="white" stroke-width="1.5" d="M0,-3.0v7 M-2.5,-0.5L0,-3.0L2.5,-0.5"/>
                </g>
                <g id="arrowRight" xlink:href="#dirArrow" transform="rotate(90) translate(36 -43)" onmousedown="handlePan(1,0)">
                  <use xlink:href="#rim" fill="#404040">
                        <set attributeName="fill" to="#808080" begin="arrowRight.mouseover" end="arrowRight.mouseout"/>
                  </use>
                  <path fill="none" stroke="white" stroke-width="1.5" d="M0,-3.0v7 M-2.5,-0.5L0,-3.0L2.5,-0.5"/>
                </g>
                <g id="arrowDown" xlink:href="#dirArrow" transform="rotate(180) translate(-30 -48)" onmousedown="handlePan(0,1)">
                  <use xlink:href="#rim" fill="#404040">
                        <set attributeName="fill" to="#808080" begin="arrowDown.mouseover" end="arrowDown.mouseout"/>
                  </use>
                  <path fill="none" stroke="white" stroke-width="1.5" d="M0,-3.0v7 M-2.5,-0.5L0,-3.0L2.5,-0.5"/>
                </g>
                <g id="arrowLeft" xlink:href="#dirArrow" transform="rotate(270) translate(-36 17)" onmousedown="handlePan(-1,0)">
                  <use xlink:href="#rim" fill="#404040">
                        <set attributeName="fill" to="#808080" begin="arrowLeft.mouseover" end="arrowLeft.mouseout"/>
                  </use>
                  <path fill="none" stroke="white" stroke-width="1.5" d="M0,-3.0v7 M-2.5,-0.5L0,-3.0L2.5,-0.5"/>
                </g>
        </g>
        <svg viewBox="0 0 15 15" width="100%" height="30px" preserveAspectRatio="xMaxYMin meet">
         <g id="arrow_out" transform="scale(0.3 0.3)">
          <a xlink:href="_i_serializable_8hpp__dep__incl_org.svg" target="_base">
           <rect id="button" ry="5" rx="5" y="6" x="6" height="38" width="38"
                fill="#f2f5e9" fill-opacity="0.5" stroke="#606060" stroke-width="1.0"/>
           <path id="arrow"
             d="M 11.500037,31.436501 C 11.940474,20.09759 22.043105,11.32322 32.158766,21.979434 L 37.068811,17.246167 C 37.068811,17.246167 37.088388,32 37.088388,32 L 22.160133,31.978069 C 22.160133,31.978069 26.997745,27.140456 26.997745,27.140456 C 18.528582,18.264221 13.291696,25.230495 11.500037,31.436501 z"
             style="fill:#404040;"/>
          </a>
         </g>
        </svg>
</svg>
