<?xml version="1.0" encoding="UTF-8" standalone="no"?>
<!DOCTYPE svg PUBLIC "-//W3C//DTD SVG 1.1//EN"
        "http://www.w3.org/Graphics/SVG/1.1/DTD/svg11.dtd">
<!-- Generated by graphviz version 2.40.1 (20161225.0304)
 -->
<!-- Title: code/interfaces/ISerializable.hpp Pages: 1 -->
<!--zoomable 377 -->
<svg id="main" version="1.1" xmlns="http://www.w3.org/2000/svg" xmlns:xlink="http://www.w3.org/1999/xlink" xml:space="preserve" onload="init(evt)">
<style type="text/css"><![CDATA[
.edge:hover path { stroke: red; }
.edge:hover polygon { stroke: red; fill: red; }
]]></style>
<script type="text/javascript"><![CDATA[
var edges = document.getElementsByTagName('g');
if (edges && edges.length) {
  for (var i=0;i<edges.length;i++) {
    if (edges[i].id.substr(0,4)=='edge') {
      edges[i].setAttribute('class','edge');
    }
  }
}
]]></script>
        <defs>
                <circle id="rim" cx="0" cy="0" r="7"/>
                <circle id="rim2" cx="0" cy="0" r="3.5"/>
                <g id="zoomPlus">
                        <use xlink:href="#rim" fill="#404040">
                                <set attributeName="fill" to="#808080" begin="zoomplus.mouseover" end="zoomplus.mouseout"/>
                        </use>
                        <path d="M-4,0h8M0,-4v8" fill="none" stroke="white" stroke-width="1.5" pointer-events="none"/>
                </g>
                <g id="zoomMin">
                        <use xlink:href="#rim" fill="#404040">
                                <set attributeName="fill" to="#808080" begin="zoomminus.mouseover" end="zoomminus.mouseout"/>
                        </use>
                        <path d="M-4,0h8" fill="none" stroke="white" stroke-width="1.5" pointer-events="none"/>
                </g>
                <g id="dirArrow">
                        <path fill="none" stroke="white" stroke-width="1.5" d="M0,-3.0v7 M-2.5,-0.5L0,-3.0L2.5,-0.5"/>
                </g>
               <g id="resetDef">
                       <use xlink:href="#rim2" fill="#404040">
                               <set attributeName="fill" to="#808080" begin="reset.mouseover" end="reset.mouseout"/>
                       </use>
               </g>
        </defs>

<script type="text/javascript">
var viewWidth = 1833;
var viewHeight = 377;
var sectionId = 'dynsection-1';
</script>
<script xlink:href="../../svgpan.js"/>
<svg id="graph" class="graph">
<g id="viewport">
<title>code/interfaces/ISerializable.hpp</title>
    <!-- Node4 -->
<g id="node1" class="node">
<title>Node4</title>
<polygon fill="#bfbfbf" stroke="#000000" points="1094.6462,-350.5 1094.6462,-368.5 1255.1774,-368.5 1255.1774,-350.5 1094.6462,-350.5"/>
<text text-anchor="middle" x="1174.9118" y="-356.5" font-family="Helvetica,sans-Serif" font-size="10.00" fill="#000000">code/interfaces/ISerializable.hpp</text>
</g>
    <!-- Node5 -->
<g id="node2" class="node">
<title>Node5</title>
<g id="a_node2"><a xlink:href="../../d7/d0f/_d_b_master_8hpp.html" target="_top" xlink:title="code/DBMaster.hpp">
<polygon fill="none" stroke="#000000" points="601.9958,-185.5 601.9958,-203.5 705.8278,-203.5 705.8278,-185.5 601.9958,-185.5"/>
<text text-anchor="middle" x="653.9118" y="-191.5" font-family="Helvetica,sans-Serif" font-size="10.00" fill="#000000">code/DBMaster.hpp</text>
</a>
</g>
</g>
    <!-- Node4&#45;&gt;Node5 -->
<g id="edge1" class="edge">
<title>Node4&#45;&gt;Node5</title>
<path fill="none" stroke="#191970" d="M1136.4692,-347.3253C1036.584,-315.6918 770.5213,-231.4301 682.5763,-203.578"/>
<polygon fill="#191970" stroke="#191970" points="1135.5684,-350.7113 1146.1584,-350.3939 1137.6818,-344.0379 1135.5684,-350.7113"/>
</g>
    <!-- Node19 -->
<g id="node16" class="node">
<title>Node19</title>
<g id="a_node16"><a xlink:href="../../d0/da9/_patient_8hpp.html" target="_top" xlink:title="code/model/Patient.hpp">
<polygon fill="none" stroke="#000000" points="1011.3752,-185.5 1011.3752,-203.5 1132.4484,-203.5 1132.4484,-185.5 1011.3752,-185.5"/>
<text text-anchor="middle" x="1071.9118" y="-191.5" font-family="Helvetica,sans-Serif" font-size="10.00" fill="#000000">code/model/Patient.hpp</text>
</a>
</g>
</g>
    <!-- Node4&#45;&gt;Node19 -->
<g id="edge20" class="edge">
<title>Node4&#45;&gt;Node19</title>
<path fill="none" stroke="#191970" d="M1146.8353,-345.4044C1133.9752,-337.6924 1119.4979,-327.0385 1109.9118,-314 1083.9916,-278.745 1075.3483,-225.1832 1072.8309,-203.7956"/>
<polygon fill="#191970" stroke="#191970" points="1145.3941,-348.6105 1155.8205,-350.492 1148.8432,-342.5191 1145.3941,-348.6105"/>
</g>
    <!-- Node27 -->
<g id="node24" class="node">
<title>Node27</title>
<g id="a_node24"><a xlink:href="../../de/d01/_prescription_8hpp.html" target="_top" xlink:title="code/model/Prescription.hpp">
<polygon fill="none" stroke="#000000" points="1267.5427,-240.5 1267.5427,-258.5 1410.2809,-258.5 1410.2809,-240.5 1267.5427,-240.5"/>
<text text-anchor="middle" x="1338.9118" y="-246.5" font-family="Helvetica,sans-Serif" font-size="10.00" fill="#000000">code/model/Prescription.hpp</text>
</a>
</g>
</g>
    <!-- Node4&#45;&gt;Node27 -->
<g id="edge40" class="edge">
<title>Node4&#45;&gt;Node27</title>
<path fill="none" stroke="#191970" d="M1196.7507,-344.8519C1231.1392,-321.7865 1296.9117,-277.6708 1325.3055,-258.6261"/>
<polygon fill="#191970" stroke="#191970" points="1194.6879,-342.0211 1188.3326,-350.4982 1198.5871,-347.8346 1194.6879,-342.0211"/>
</g>
    <!-- Node28 -->
<g id="node25" class="node">
<title>Node28</title>
<g id="a_node25"><a xlink:href="../../dd/df9/_drug_8hpp.html" target="_top" xlink:title="code/model/Drug.hpp">
<polygon fill="none" stroke="#000000" points="1119.1042,-295.5 1119.1042,-313.5 1230.7194,-313.5 1230.7194,-295.5 1119.1042,-295.5"/>
<text text-anchor="middle" x="1174.9118" y="-301.5" font-family="Helvetica,sans-Serif" font-size="10.00" fill="#000000">code/model/Drug.hpp</text>
</a>
</g>
</g>
    <!-- Node4&#45;&gt;Node28 -->
<g id="edge46" class="edge">
<title>Node4&#45;&gt;Node28</title>
<path fill="none" stroke="#191970" d="M1174.9118,-340.383C1174.9118,-331.3738 1174.9118,-321.0373 1174.9118,-313.7795"/>
<polygon fill="#191970" stroke="#191970" points="1171.4119,-340.4178 1174.9118,-350.4179 1178.4119,-340.4179 1171.4119,-340.4178"/>
</g>
    <!-- Node30 -->
<g id="node27" class="node">
<title>Node30</title>
<g id="a_node27"><a xlink:href="../../d8/d8a/_i_serializable_8cpp.html" target="_top" xlink:title="code/interfaces/ISerializable.cpp">
<polygon fill="none" stroke="#000000" points="1286.9269,-295.5 1286.9269,-313.5 1446.8967,-313.5 1446.8967,-295.5 1286.9269,-295.5"/>
<text text-anchor="middle" x="1366.9118" y="-301.5" font-family="Helvetica,sans-Serif" font-size="10.00" fill="#000000">code/interfaces/ISerializable.cpp</text>
</a>
</g>
</g>
    <!-- Node4&#45;&gt;Node30 -->
<g id="edge50" class="edge">
<title>Node4&#45;&gt;Node30</title>
<path fill="none" stroke="#191970" d="M1216.2737,-347.6515C1252.037,-337.4068 1302.9665,-322.8177 1335.4789,-313.5042"/>
<polygon fill="#191970" stroke="#191970" points="1215.2662,-344.2993 1206.6167,-350.4179 1217.1939,-351.0286 1215.2662,-344.2993"/>
</g>
    <!-- Node6 -->
<g id="node3" class="node">
<title>Node6</title>
<g id="a_node3"><a xlink:href="../../d7/d71/_d_b_master_8cpp.html" target="_top" xlink:title="code/DBMaster.cpp">
<polygon fill="none" stroke="#000000" points="255.2765,-130.5 255.2765,-148.5 358.547,-148.5 358.547,-130.5 255.2765,-130.5"/>
<text text-anchor="middle" x="306.9118" y="-136.5" font-family="Helvetica,sans-Serif" font-size="10.00" fill="#000000">code/DBMaster.cpp</text>
</a>
</g>
</g>
    <!-- Node5&#45;&gt;Node6 -->
<g id="edge2" class="edge">
<title>Node5&#45;&gt;Node6</title>
<path fill="none" stroke="#191970" d="M592.0298,-184.6916C525.5108,-174.1483 420.9552,-157.5761 358.6488,-147.7004"/>
<polygon fill="#191970" stroke="#191970" points="591.5377,-188.1572 601.9624,-186.2659 592.6336,-181.2435 591.5377,-188.1572"/>
</g>
    <!-- Node7 -->
<g id="node4" class="node">
<title>Node7</title>
<g id="a_node4"><a xlink:href="../../db/db5/_add_patient_dialog_8cpp.html" target="_top" xlink:title="code/gui/AddPatientDialog.cpp">
<polygon fill="none" stroke="#000000" points="520.5304,-70.5 520.5304,-88.5 673.2931,-88.5 673.2931,-70.5 520.5304,-70.5"/>
<text text-anchor="middle" x="596.9118" y="-76.5" font-family="Helvetica,sans-Serif" font-size="10.00" fill="#000000">code/gui/AddPatientDialog.cpp</text>
</a>
</g>
</g>
    <!-- Node5&#45;&gt;Node7 -->
<g id="edge3" class="edge">
<title>Node5&#45;&gt;Node7</title>
<path fill="none" stroke="#191970" d="M639.5504,-177.2611C633.2248,-169.069 626.0741,-158.9159 620.9118,-149 610.3015,-128.6192 602.7467,-102.5392 599.1962,-88.8504"/>
<polygon fill="#191970" stroke="#191970" points="636.9797,-179.6507 645.9573,-185.2768 642.4476,-175.2801 636.9797,-179.6507"/>
</g>
    <!-- Node8 -->
<g id="node5" class="node">
<title>Node8</title>
<g id="a_node5"><a xlink:href="../../dc/d00/_authentication_8hpp.html" target="_top" xlink:title="code/model/Authentication.hpp">
<polygon fill="none" stroke="#000000" points="415.2521,-130.5 415.2521,-148.5 568.5715,-148.5 568.5715,-130.5 415.2521,-130.5"/>
<text text-anchor="middle" x="491.9118" y="-136.5" font-family="Helvetica,sans-Serif" font-size="10.00" fill="#000000">code/model/Authentication.hpp</text>
</a>
</g>
</g>
    <!-- Node5&#45;&gt;Node8 -->
<g id="edge4" class="edge">
<title>Node5&#45;&gt;Node8</title>
<path fill="none" stroke="#191970" d="M617.4542,-182.1224C587.3728,-171.9096 545.3967,-157.6584 518.4333,-148.5042"/>
<polygon fill="#191970" stroke="#191970" points="616.5664,-185.5172 627.1608,-185.4179 618.8168,-178.8888 616.5664,-185.5172"/>
</g>
    <!-- Node9 -->
<g id="node6" class="node">
<title>Node9</title>
<g id="a_node6"><a xlink:href="../../d6/d9e/_drug_window_8cpp.html" target="_top" xlink:title="code/gui/DrugWindow.cpp">
<polygon fill="none" stroke="#000000" points="1021.821,-5.5 1021.821,-23.5 1154.0026,-23.5 1154.0026,-5.5 1021.821,-5.5"/>
<text text-anchor="middle" x="1087.9118" y="-11.5" font-family="Helvetica,sans-Serif" font-size="10.00" fill="#000000">code/gui/DrugWindow.cpp</text>
</a>
</g>
</g>
    <!-- Node5&#45;&gt;Node9 -->
<g id="edge13" class="edge">
<title>Node5&#45;&gt;Node9</title>
<path fill="none" stroke="#191970" d="M651.9508,-174.8851C651.4394,-161.6158 652.3929,-144.0213 658.9118,-130 667.5903,-111.3336 706.3854,-73.9735 724.9118,-65 841.0064,-8.7681 885.5157,-49.2542 1012.9118,-29 1022.9968,-27.3966 1033.8003,-25.446 1043.9776,-23.502"/>
<polygon fill="#191970" stroke="#191970" points="648.4853,-175.5026 652.6741,-185.2342 655.4682,-175.0145 648.4853,-175.5026"/>
</g>
    <!-- Node11 -->
<g id="node8" class="node">
<title>Node11</title>
<g id="a_node8"><a xlink:href="../../d8/d35/_patient_window_8cpp.html" target="_top" xlink:title="code/gui/PatientWindow.cpp">
<polygon fill="none" stroke="#000000" points="1172.092,-5.5 1172.092,-23.5 1313.7316,-23.5 1313.7316,-5.5 1172.092,-5.5"/>
<text text-anchor="middle" x="1242.9118" y="-11.5" font-family="Helvetica,sans-Serif" font-size="10.00" fill="#000000">code/gui/PatientWindow.cpp</text>
</a>
</g>
</g>
    <!-- Node5&#45;&gt;Node11 -->
<g id="edge14" class="edge">
<title>Node5&#45;&gt;Node11</title>
<path fill="none" stroke="#191970" d="M665.5621,-176.7195C687.1638,-144.3592 733.4518,-77.9745 757.9118,-65 837.7324,-22.6601 1073.3667,-41.0695 1162.9118,-29 1173.9629,-27.5105 1185.8117,-25.5594 1196.9137,-23.5735"/>
<polygon fill="#191970" stroke="#191970" points="662.5337,-174.9536 659.9314,-185.2239 668.3703,-178.818 662.5337,-174.9536"/>
</g>
    <!-- Node12 -->
<g id="node9" class="node">
<title>Node12</title>
<g id="a_node9"><a xlink:href="../../d1/d16/_prescription_window_8cpp.html" target="_top" xlink:title="code/gui/PrescriptionWindow.cpp">
<polygon fill="none" stroke="#000000" points="767.2594,-70.5 767.2594,-88.5 930.5641,-88.5 930.5641,-70.5 767.2594,-70.5"/>
<text text-anchor="middle" x="848.9118" y="-76.5" font-family="Helvetica,sans-Serif" font-size="10.00" fill="#000000">code/gui/PrescriptionWindow.cpp</text>
</a>
</g>
</g>
    <!-- Node5&#45;&gt;Node12 -->
<g id="edge15" class="edge">
<title>Node5&#45;&gt;Node12</title>
<path fill="none" stroke="#191970" d="M671.6231,-178.19C687.4085,-164.2101 711.5619,-144.1475 734.9118,-130 763.7929,-112.5012 799.8077,-97.5765 823.5373,-88.5867"/>
<polygon fill="#191970" stroke="#191970" points="668.8648,-175.9637 663.7727,-185.2546 673.5473,-181.167 668.8648,-175.9637"/>
</g>
    <!-- Node13 -->
<g id="node10" class="node">
<title>Node13</title>
<g id="a_node10"><a xlink:href="../../d7/daf/_med_h_8cpp.html" target="_top" xlink:title="code/MedH.cpp">
<polygon fill="none" stroke="#000000" points="18.8923,-70.5 18.8923,-88.5 104.9313,-88.5 104.9313,-70.5 18.8923,-70.5"/>
<text text-anchor="middle" x="61.9118" y="-76.5" font-family="Helvetica,sans-Serif" font-size="10.00" fill="#000000">code/MedH.cpp</text>
</a>
</g>
</g>
    <!-- Node5&#45;&gt;Node13 -->
<g id="edge16" class="edge">
<title>Node5&#45;&gt;Node13</title>
<path fill="none" stroke="#191970" d="M591.3558,-187.9795C540.4627,-181.505 467.2804,-169.5106 405.9118,-149 388.0032,-143.0146 385.9384,-135.6202 367.9118,-130 259.0622,-96.0638 225.5097,-117.3627 113.9118,-94 106.6649,-92.4829 98.9387,-90.5213 91.7192,-88.534"/>
<polygon fill="#191970" stroke="#191970" points="591.1919,-191.4858 601.5459,-189.24 592.0513,-184.5388 591.1919,-191.4858"/>
</g>
    <!-- Node15 -->
<g id="node12" class="node">
<title>Node15</title>
<g id="a_node12"><a xlink:href="../../df/de8/_add_prescription_dialog_8cpp.html" target="_top" xlink:title="code/gui/AddPrescription\lDialog.cpp">
<polygon fill="none" stroke="#000000" points="876.3234,-.5 876.3234,-28.5 1003.5002,-28.5 1003.5002,-.5 876.3234,-.5"/>
<text text-anchor="start" x="884.3234" y="-16.5" font-family="Helvetica,sans-Serif" font-size="10.00" fill="#000000">code/gui/AddPrescription</text>
<text text-anchor="middle" x="939.9118" y="-6.5" font-family="Helvetica,sans-Serif" font-size="10.00" fill="#000000">Dialog.cpp</text>
</a>
</g>
</g>
    <!-- Node5&#45;&gt;Node15 -->
<g id="edge12" class="edge">
<title>Node5&#45;&gt;Node15</title>
<path fill="none" stroke="#191970" d="M591.504,-191.9027C414.5453,-183.4419 -72.5075,-152.0161 9.9118,-65 39.6908,-33.5601 671.0203,-19.3737 876.1501,-15.5827"/>
<polygon fill="#191970" stroke="#191970" points="591.5501,-195.4087 601.7032,-192.3813 591.8782,-188.4164 591.5501,-195.4087"/>
</g>
    <!-- Node16 -->
<g id="node13" class="node">
<title>Node16</title>
<g id="a_node13"><a xlink:href="../../d3/da6/_doctor_8cpp.html" target="_top" xlink:title="code/model/Doctor.cpp">
<polygon fill="none" stroke="#000000" points="986.7692,-70.5 986.7692,-88.5 1105.0544,-88.5 1105.0544,-70.5 986.7692,-70.5"/>
<text text-anchor="middle" x="1045.9118" y="-76.5" font-family="Helvetica,sans-Serif" font-size="10.00" fill="#000000">code/model/Doctor.cpp</text>
</a>
</g>
</g>
    <!-- Node5&#45;&gt;Node16 -->
<g id="edge17" class="edge">
<title>Node5&#45;&gt;Node16</title>
<path fill="none" stroke="#191970" d="M678.8556,-180.5781C694.8916,-171.6057 716.1595,-159.6649 734.9118,-149 749.623,-140.6334 752.02,-135.8199 767.9118,-130 807.1797,-115.6194 917.4559,-97.9936 986.7368,-87.8242"/>
<polygon fill="#191970" stroke="#191970" points="677.0976,-177.551 670.0769,-185.4858 680.5134,-183.661 677.0976,-177.551"/>
</g>
    <!-- Node17 -->
<g id="node14" class="node">
<title>Node17</title>
<g id="a_node14"><a xlink:href="../../d0/d77/_patient_8cpp.html" target="_top" xlink:title="code/model/Patient.cpp">
<polygon fill="none" stroke="#000000" points="936.6559,-130.5 936.6559,-148.5 1057.1677,-148.5 1057.1677,-130.5 936.6559,-130.5"/>
<text text-anchor="middle" x="996.9118" y="-136.5" font-family="Helvetica,sans-Serif" font-size="10.00" fill="#000000">code/model/Patient.cpp</text>
</a>
</g>
</g>
    <!-- Node5&#45;&gt;Node17 -->
<g id="edge18" class="edge">
<title>Node5&#45;&gt;Node17</title>
<path fill="none" stroke="#191970" d="M715.9637,-184.55C779.9431,-174.2909 878.8292,-158.4345 940.6129,-148.5275"/>
<polygon fill="#191970" stroke="#191970" points="715.3258,-181.1075 706.0061,-186.1467 716.4342,-188.0192 715.3258,-181.1075"/>
</g>
    <!-- Node18 -->
<g id="node15" class="node">
<title>Node18</title>
<g id="a_node15"><a xlink:href="../../d5/db1/_prescription_8cpp.html" target="_top" xlink:title="code/model/Prescription.cpp">
<polygon fill="none" stroke="#000000" points="776.8234,-130.5 776.8234,-148.5 919.0002,-148.5 919.0002,-130.5 776.8234,-130.5"/>
<text text-anchor="middle" x="847.9118" y="-136.5" font-family="Helvetica,sans-Serif" font-size="10.00" fill="#000000">code/model/Prescription.cpp</text>
</a>
</g>
</g>
    <!-- Node5&#45;&gt;Node18 -->
<g id="edge19" class="edge">
<title>Node5&#45;&gt;Node18</title>
<path fill="none" stroke="#191970" d="M695.7045,-182.6515C731.8404,-172.4068 783.3004,-157.8177 816.1515,-148.5042"/>
<polygon fill="#191970" stroke="#191970" points="694.6131,-179.3229 685.9469,-185.4179 696.5225,-186.0575 694.6131,-179.3229"/>
</g>
    <!-- Node8&#45;&gt;Node7 -->
<g id="edge5" class="edge">
<title>Node8&#45;&gt;Node7</title>
<path fill="none" stroke="#191970" d="M516.7058,-125.332C536.6608,-113.9291 564.1006,-98.2492 581.1585,-88.5019"/>
<polygon fill="#191970" stroke="#191970" points="514.805,-122.387 507.859,-130.3873 518.278,-128.4647 514.805,-122.387"/>
</g>
    <!-- Node8&#45;&gt;Node9 -->
<g id="edge6" class="edge">
<title>Node8&#45;&gt;Node9</title>
<path fill="none" stroke="#191970" d="M405.7272,-128.763C348.6404,-118.3159 289.7204,-98.9122 321.9118,-65 374.8424,-9.24 936.5968,-38.3193 1012.9118,-29 1023.9697,-27.6497 1035.8458,-25.6243 1046.8126,-23.5123"/>
<polygon fill="#191970" stroke="#191970" points="405.1453,-132.2143 415.5984,-130.4873 406.3499,-125.3187 405.1453,-132.2143"/>
</g>
    <!-- Node10 -->
<g id="node7" class="node">
<title>Node10</title>
<g id="a_node7"><a xlink:href="../../d9/d07/_login_window_8cpp.html" target="_top" xlink:title="code/gui/LoginWindow.cpp">
<polygon fill="none" stroke="#000000" points="330.4245,-70.5 330.4245,-88.5 465.3991,-88.5 465.3991,-70.5 330.4245,-70.5"/>
<text text-anchor="middle" x="397.9118" y="-76.5" font-family="Helvetica,sans-Serif" font-size="10.00" fill="#000000">code/gui/LoginWindow.cpp</text>
</a>
</g>
</g>
    <!-- Node8&#45;&gt;Node10 -->
<g id="edge7" class="edge">
<title>Node8&#45;&gt;Node10</title>
<path fill="none" stroke="#191970" d="M468.9841,-124.8653C451.1856,-113.5045 427.0783,-98.1169 412.0147,-88.5019"/>
<polygon fill="#191970" stroke="#191970" points="467.3228,-127.9571 477.6352,-130.3873 471.0891,-122.0567 467.3228,-127.9571"/>
</g>
    <!-- Node8&#45;&gt;Node11 -->
<g id="edge8" class="edge">
<title>Node8&#45;&gt;Node11</title>
<path fill="none" stroke="#191970" d="M491.2595,-120.2581C491.8202,-102.9067 495.7065,-78.1551 511.9118,-65 568.1563,-19.3418 1090.9655,-37.4763 1162.9118,-29 1174.5469,-27.6292 1187.0468,-25.6231 1198.6277,-23.5377"/>
<polygon fill="#191970" stroke="#191970" points="487.7596,-120.4011 491.2752,-130.3956 494.7596,-120.3902 487.7596,-120.4011"/>
</g>
    <!-- Node8&#45;&gt;Node12 -->
<g id="edge9" class="edge">
<title>Node8&#45;&gt;Node12</title>
<path fill="none" stroke="#191970" d="M555.9451,-128.7381C624.2349,-117.2608 731.1851,-99.286 795.2253,-88.5229"/>
<polygon fill="#191970" stroke="#191970" points="555.0264,-125.3433 545.7448,-130.4524 556.1867,-132.2465 555.0264,-125.3433"/>
</g>
    <!-- Node8&#45;&gt;Node13 -->
<g id="edge10" class="edge">
<title>Node8&#45;&gt;Node13</title>
<path fill="none" stroke="#191970" d="M405.1366,-129.7604C302.4305,-118.1218 141.7551,-99.5244 113.9118,-94 106.5574,-92.5408 98.7214,-90.5776 91.423,-88.5679"/>
<polygon fill="#191970" stroke="#191970" points="404.8667,-133.2521 415.1969,-130.8992 405.6541,-126.2965 404.8667,-133.2521"/>
</g>
    <!-- Node14 -->
<g id="node11" class="node">
<title>Node14</title>
<g id="a_node11"><a xlink:href="../../d6/d6e/_authentication_8cpp.html" target="_top" xlink:title="code/model/Authentication.cpp">
<polygon fill="none" stroke="#000000" points="122.5329,-70.5 122.5329,-88.5 275.2907,-88.5 275.2907,-70.5 122.5329,-70.5"/>
<text text-anchor="middle" x="198.9118" y="-76.5" font-family="Helvetica,sans-Serif" font-size="10.00" fill="#000000">code/model/Authentication.cpp</text>
</a>
</g>
</g>
    <!-- Node8&#45;&gt;Node14 -->
<g id="edge11" class="edge">
<title>Node8&#45;&gt;Node14</title>
<path fill="none" stroke="#191970" d="M437.6216,-128.3826C381.5118,-116.8925 294.9938,-99.1755 242.9738,-88.5229"/>
<polygon fill="#191970" stroke="#191970" points="437.2306,-131.875 447.7295,-130.4524 438.635,-125.0174 437.2306,-131.875"/>
</g>
    <!-- Node19&#45;&gt;Node7 -->
<g id="edge21" class="edge">
<title>Node19&#45;&gt;Node7</title>
<path fill="none" stroke="#191970" d="M1075.9609,-175.1969C1077.7635,-160.7726 1077.3612,-141.6167 1065.9118,-130 1059.0943,-123.0828 804.7176,-98.6755 673.5143,-86.506"/>
<polygon fill="#191970" stroke="#191970" points="1072.5021,-174.6604 1074.2992,-185.1017 1079.4056,-175.8187 1072.5021,-174.6604"/>
</g>
    <!-- Node19&#45;&gt;Node15 -->
<g id="edge33" class="edge">
<title>Node19&#45;&gt;Node15</title>
<path fill="none" stroke="#191970" d="M1082.1689,-176.1642C1088.4145,-162.2942 1093.5204,-143.4109 1083.9118,-130 1054.9343,-89.5555 1015.1144,-127.0367 977.9118,-94 958.123,-76.4272 947.7261,-46.299 943.0646,-28.61"/>
<polygon fill="#191970" stroke="#191970" points="1078.9771,-174.721 1077.6139,-185.2278 1085.2317,-177.8644 1078.9771,-174.721"/>
</g>
    <!-- Node19&#45;&gt;Node17 -->
<g id="edge39" class="edge">
<title>Node19&#45;&gt;Node17</title>
<path fill="none" stroke="#191970" d="M1051.31,-179.392C1037.8512,-169.5222 1020.7204,-156.9596 1009.3149,-148.5956"/>
<polygon fill="#191970" stroke="#191970" points="1049.3932,-182.3266 1059.5271,-185.4179 1053.5328,-176.6818 1049.3932,-182.3266"/>
</g>
    <!-- Node20 -->
<g id="node17" class="node">
<title>Node20</title>
<g id="a_node17"><a xlink:href="../../d5/d46/_custom_widgets_8hpp.html" target="_top" xlink:title="code/gui/view/CustomWidgets.hpp">
<polygon fill="none" stroke="#000000" points="1325.2077,-130.5 1325.2077,-148.5 1494.6159,-148.5 1494.6159,-130.5 1325.2077,-130.5"/>
<text text-anchor="middle" x="1409.9118" y="-136.5" font-family="Helvetica,sans-Serif" font-size="10.00" fill="#000000">code/gui/view/CustomWidgets.hpp</text>
</a>
</g>
</g>
    <!-- Node19&#45;&gt;Node20 -->
<g id="edge22" class="edge">
<title>Node19&#45;&gt;Node20</title>
<path fill="none" stroke="#191970" d="M1137.5857,-183.8134C1200.6957,-173.544 1295.0026,-158.1982 1354.4462,-148.5255"/>
<polygon fill="#191970" stroke="#191970" points="1136.6552,-180.4187 1127.3471,-185.4795 1137.7795,-187.3278 1136.6552,-180.4187"/>
</g>
    <!-- Node26 -->
<g id="node23" class="node">
<title>Node26</title>
<g id="a_node23"><a xlink:href="../../dd/dc5/_doctor_8hpp.html" target="_top" xlink:title="code/model/Doctor.hpp">
<polygon fill="none" stroke="#000000" points="1188.4885,-130.5 1188.4885,-148.5 1307.3351,-148.5 1307.3351,-130.5 1188.4885,-130.5"/>
<text text-anchor="middle" x="1247.9118" y="-136.5" font-family="Helvetica,sans-Serif" font-size="10.00" fill="#000000">code/model/Doctor.hpp</text>
</a>
</g>
</g>
    <!-- Node19&#45;&gt;Node26 -->
<g id="edge34" class="edge">
<title>Node19&#45;&gt;Node26</title>
<path fill="none" stroke="#191970" d="M1110.6705,-182.3879C1143.4067,-172.1578 1189.55,-157.7381 1219.0983,-148.5042"/>
<polygon fill="#191970" stroke="#191970" points="1109.4754,-179.0944 1100.9746,-185.4179 1111.5634,-185.7757 1109.4754,-179.0944"/>
</g>
    <!-- Node21 -->
<g id="node18" class="node">
<title>Node21</title>
<g id="a_node18"><a xlink:href="../../d0/d1e/_add_prescription_dialog_8hpp.html" target="_top" xlink:title="code/gui/AddPrescription\lDialog.hpp">
<polygon fill="none" stroke="#000000" points="1161.3234,-65.5 1161.3234,-93.5 1288.5002,-93.5 1288.5002,-65.5 1161.3234,-65.5"/>
<text text-anchor="start" x="1169.3234" y="-81.5" font-family="Helvetica,sans-Serif" font-size="10.00" fill="#000000">code/gui/AddPrescription</text>
<text text-anchor="middle" x="1224.9118" y="-71.5" font-family="Helvetica,sans-Serif" font-size="10.00" fill="#000000">Dialog.hpp</text>
</a>
</g>
</g>
    <!-- Node20&#45;&gt;Node21 -->
<g id="edge23" class="edge">
<title>Node20&#45;&gt;Node21</title>
<path fill="none" stroke="#191970" d="M1372.0753,-127.2287C1341.8911,-117.4392 1299.5966,-103.7221 1268.0909,-93.504"/>
<polygon fill="#191970" stroke="#191970" points="1371.2222,-130.6315 1381.8143,-130.3873 1373.3818,-123.9729 1371.2222,-130.6315"/>
</g>
    <!-- Node22 -->
<g id="node19" class="node">
<title>Node22</title>
<g id="a_node19"><a xlink:href="../../dd/d02/_drug_window_8hpp.html" target="_top" xlink:title="code/gui/DrugWindow.hpp">
<polygon fill="none" stroke="#000000" points="1344.5402,-70.5 1344.5402,-88.5 1477.2834,-88.5 1477.2834,-70.5 1344.5402,-70.5"/>
<text text-anchor="middle" x="1410.9118" y="-76.5" font-family="Helvetica,sans-Serif" font-size="10.00" fill="#000000">code/gui/DrugWindow.hpp</text>
</a>
</g>
</g>
    <!-- Node20&#45;&gt;Node22 -->
<g id="edge26" class="edge">
<title>Node20&#45;&gt;Node22</title>
<path fill="none" stroke="#191970" d="M1410.2306,-120.3734C1410.4071,-109.7812 1410.6185,-97.0976 1410.7585,-88.6985"/>
<polygon fill="#191970" stroke="#191970" points="1406.7309,-120.3303 1410.0637,-130.3873 1413.7299,-120.447 1406.7309,-120.3303"/>
</g>
    <!-- Node24 -->
<g id="node21" class="node">
<title>Node24</title>
<g id="a_node21"><a xlink:href="../../dd/de0/_patient_window_8hpp.html" target="_top" xlink:title="code/gui/PatientWindow.hpp">
<polygon fill="none" stroke="#000000" points="1682.8112,-70.5 1682.8112,-88.5 1825.0124,-88.5 1825.0124,-70.5 1682.8112,-70.5"/>
<text text-anchor="middle" x="1753.9118" y="-76.5" font-family="Helvetica,sans-Serif" font-size="10.00" fill="#000000">code/gui/PatientWindow.hpp</text>
</a>
</g>
</g>
    <!-- Node20&#45;&gt;Node24 -->
<g id="edge29" class="edge">
<title>Node20&#45;&gt;Node24</title>
<path fill="none" stroke="#191970" d="M1472.5513,-128.7687C1525.8475,-119.6129 1604.4216,-106.0547 1672.9118,-94 1682.9013,-92.2418 1693.5803,-90.3435 1703.7978,-88.5181"/>
<polygon fill="#191970" stroke="#191970" points="1471.8344,-125.3405 1462.5711,-130.4826 1473.0192,-132.2396 1471.8344,-125.3405"/>
</g>
    <!-- Node25 -->
<g id="node22" class="node">
<title>Node25</title>
<g id="a_node22"><a xlink:href="../../d1/dea/_custom_widgets_8cpp.html" target="_top" xlink:title="code/gui/view/CustomWidgets.cpp">
<polygon fill="none" stroke="#000000" points="1495.4885,-70.5 1495.4885,-88.5 1664.3351,-88.5 1664.3351,-70.5 1495.4885,-70.5"/>
<text text-anchor="middle" x="1579.9118" y="-76.5" font-family="Helvetica,sans-Serif" font-size="10.00" fill="#000000">code/gui/view/CustomWidgets.cpp</text>
</a>
</g>
</g>
    <!-- Node20&#45;&gt;Node25 -->
<g id="edge32" class="edge">
<title>Node20&#45;&gt;Node25</title>
<path fill="none" stroke="#191970" d="M1445.3238,-127.0017C1477.8984,-115.5047 1525.4143,-98.7344 1554.4065,-88.5019"/>
<polygon fill="#191970" stroke="#191970" points="1443.9961,-123.7586 1435.7311,-130.3873 1446.3259,-130.3595 1443.9961,-123.7586"/>
</g>
    <!-- Node21&#45;&gt;Node11 -->
<g id="edge25" class="edge">
<title>Node21&#45;&gt;Node11</title>
<path fill="none" stroke="#191970" d="M1231.4978,-55.7173C1234.5927,-44.5412 1238.0989,-31.88 1240.3989,-23.5743"/>
<polygon fill="#191970" stroke="#191970" points="1228.1133,-54.8246 1228.8175,-65.396 1234.8594,-56.6928 1228.1133,-54.8246"/>
</g>
    <!-- Node21&#45;&gt;Node15 -->
<g id="edge24" class="edge">
<title>Node21&#45;&gt;Node15</title>
<path fill="none" stroke="#191970" d="M1153.3794,-63.1856C1106.7039,-52.5403 1046.3882,-38.7841 1001.7827,-28.6109"/>
<polygon fill="#191970" stroke="#191970" points="1152.894,-66.6647 1163.4219,-65.476 1154.4506,-59.8399 1152.894,-66.6647"/>
</g>
    <!-- Node22&#45;&gt;Node9 -->
<g id="edge27" class="edge">
<title>Node22&#45;&gt;Node9</title>
<path fill="none" stroke="#191970" d="M1355.8607,-68.4216C1292.8979,-55.7511 1191.0146,-35.2482 1132.7016,-23.5134"/>
<polygon fill="#191970" stroke="#191970" points="1355.506,-71.9203 1366,-70.462 1356.8871,-65.0579 1355.506,-71.9203"/>
</g>
    <!-- Node23 -->
<g id="node20" class="node">
<title>Node23</title>
<g id="a_node20"><a xlink:href="../../d5/da5/_main_window_8cpp.html" target="_top" xlink:title="code/gui/MainWindow.cpp">
<polygon fill="none" stroke="#000000" points="1515.821,-5.5 1515.821,-23.5 1648.0026,-23.5 1648.0026,-5.5 1515.821,-5.5"/>
<text text-anchor="middle" x="1581.9118" y="-11.5" font-family="Helvetica,sans-Serif" font-size="10.00" fill="#000000">code/gui/MainWindow.cpp</text>
</a>
</g>
</g>
    <!-- Node22&#45;&gt;Node23 -->
<g id="edge28" class="edge">
<title>Node22&#45;&gt;Node23</title>
<path fill="none" stroke="#191970" d="M1444.0523,-66.9027C1477.5145,-54.1832 1528.3758,-34.8499 1558.0619,-23.5658"/>
<polygon fill="#191970" stroke="#191970" points="1442.7925,-63.6372 1434.6886,-70.462 1445.2797,-70.1804 1442.7925,-63.6372"/>
</g>
    <!-- Node24&#45;&gt;Node11 -->
<g id="edge31" class="edge">
<title>Node24&#45;&gt;Node11</title>
<path fill="none" stroke="#191970" d="M1695.9501,-68.6878C1688.2158,-67.3731 1680.3796,-66.1059 1672.9118,-65 1546.8802,-46.336 1399.2348,-30.2486 1313.8478,-21.5079"/>
<polygon fill="#191970" stroke="#191970" points="1695.5683,-72.1738 1706.0193,-70.4341 1696.7644,-65.2767 1695.5683,-72.1738"/>
</g>
    <!-- Node24&#45;&gt;Node23 -->
<g id="edge30" class="edge">
<title>Node24&#45;&gt;Node23</title>
<path fill="none" stroke="#191970" d="M1720.5775,-66.9027C1686.9196,-54.1832 1635.7609,-34.8499 1605.9012,-23.5658"/>
<polygon fill="#191970" stroke="#191970" points="1719.4043,-70.2009 1729.9959,-70.462 1721.8789,-63.6529 1719.4043,-70.2009"/>
</g>
    <!-- Node26&#45;&gt;Node9 -->
<g id="edge35" class="edge">
<title>Node26&#45;&gt;Node9</title>
<path fill="none" stroke="#191970" d="M1211.351,-126.7228C1192.4427,-119.0335 1169.6702,-108.0056 1151.9118,-94 1125.6171,-73.262 1103.2644,-39.8128 1093.3652,-23.7246"/>
<polygon fill="#191970" stroke="#191970" points="1210.2519,-130.0511 1220.8397,-130.4376 1212.8038,-123.5328 1210.2519,-130.0511"/>
</g>
    <!-- Node26&#45;&gt;Node11 -->
<g id="edge36" class="edge">
<title>Node26&#45;&gt;Node11</title>
<path fill="none" stroke="#191970" d="M1271.9871,-124.3408C1281.9836,-116.6101 1292.499,-106.2442 1297.9118,-94 1303.1231,-82.2116 1303.0968,-76.8 1297.9118,-65 1289.933,-46.8421 1271.8457,-32.3503 1258.5828,-23.6284"/>
<polygon fill="#191970" stroke="#191970" points="1269.9141,-121.5204 1263.8355,-130.1981 1273.9988,-127.2051 1269.9141,-121.5204"/>
</g>
    <!-- Node26&#45;&gt;Node12 -->
<g id="edge37" class="edge">
<title>Node26&#45;&gt;Node12</title>
<path fill="none" stroke="#191970" d="M1178.1945,-129.0162C1102.0136,-117.5604 981.2259,-99.3969 909.0545,-88.544"/>
<polygon fill="#191970" stroke="#191970" points="1177.7681,-132.4914 1188.1775,-130.5174 1178.8091,-125.5692 1177.7681,-132.4914"/>
</g>
    <!-- Node26&#45;&gt;Node16 -->
<g id="edge38" class="edge">
<title>Node26&#45;&gt;Node16</title>
<path fill="none" stroke="#191970" d="M1207.3266,-127.445C1168.5916,-115.9395 1111.1131,-98.8667 1076.2181,-88.5019"/>
<polygon fill="#191970" stroke="#191970" points="1206.6497,-130.895 1217.2323,-130.3873 1208.6429,-124.1848 1206.6497,-130.895"/>
</g>
    <!-- Node27&#45;&gt;Node12 -->
<g id="edge44" class="edge">
<title>Node27&#45;&gt;Node12</title>
<path fill="none" stroke="#191970" d="M1314.0671,-235.5209C1269.3444,-210.8952 1171.7526,-159.5934 1083.9118,-130 1025.7791,-110.4152 956.9223,-96.6711 908.8252,-88.5177"/>
<polygon fill="#191970" stroke="#191970" points="1312.5902,-238.704 1323.0331,-240.4917 1315.9843,-232.5819 1312.5902,-238.704"/>
</g>
    <!-- Node27&#45;&gt;Node18 -->
<g id="edge45" class="edge">
<title>Node27&#45;&gt;Node18</title>
<path fill="none" stroke="#191970" d="M1257.2003,-239.6057C1165.4,-228.3097 1026.0044,-210.5491 1001.9118,-204 950.4444,-190.0095 893.4047,-162.8096 865.3911,-148.6162"/>
<polygon fill="#191970" stroke="#191970" points="1256.963,-243.1027 1267.3151,-240.8479 1257.8163,-236.1549 1256.963,-243.1027"/>
</g>
    <!-- Node27&#45;&gt;Node19 -->
<g id="edge41" class="edge">
<title>Node27&#45;&gt;Node19</title>
<path fill="none" stroke="#191970" d="M1285.1719,-238.43C1235.3412,-228.1652 1162.1024,-213.0786 1115.7263,-203.5255"/>
<polygon fill="#191970" stroke="#191970" points="1284.6206,-241.8898 1295.1212,-240.4795 1286.033,-235.0338 1284.6206,-241.8898"/>
</g>
    <!-- Node27&#45;&gt;Node20 -->
<g id="edge42" class="edge">
<title>Node27&#45;&gt;Node20</title>
<path fill="none" stroke="#191970" d="M1350.3385,-231.7966C1365.6482,-208.0774 1392.2519,-166.8604 1404.0213,-148.6261"/>
<polygon fill="#191970" stroke="#191970" points="1347.2044,-230.1983 1344.722,-240.4982 1353.0857,-233.9944 1347.2044,-230.1983"/>
</g>
    <!-- Node27&#45;&gt;Node26 -->
<g id="edge43" class="edge">
<title>Node27&#45;&gt;Node26</title>
<path fill="none" stroke="#191970" d="M1325.0434,-232.736C1305.5566,-209.1806 1270.7474,-167.1035 1255.4616,-148.6261"/>
<polygon fill="#191970" stroke="#191970" points="1322.3938,-235.0241 1331.4649,-240.4982 1327.7874,-230.5621 1322.3938,-235.0241"/>
</g>
    <!-- Node28&#45;&gt;Node26 -->
<g id="edge48" class="edge">
<title>Node28&#45;&gt;Node26</title>
<path fill="none" stroke="#191970" d="M1152.0369,-289.0879C1136.5985,-276.6228 1120.4561,-258.2089 1128.9118,-240 1149.6403,-195.3622 1201.0419,-163.3978 1229.0264,-148.6483"/>
<polygon fill="#191970" stroke="#191970" points="1150.2846,-292.1493 1160.3807,-295.3618 1154.4915,-286.5545 1150.2846,-292.1493"/>
</g>
    <!-- Node28&#45;&gt;Node27 -->
<g id="edge47" class="edge">
<title>Node28&#45;&gt;Node27</title>
<path fill="none" stroke="#191970" d="M1211.8195,-292.1224C1242.2722,-281.9096 1284.7666,-267.6584 1312.0629,-258.5042"/>
<polygon fill="#191970" stroke="#191970" points="1210.3612,-288.9198 1201.9931,-295.4179 1212.587,-295.5566 1210.3612,-288.9198"/>
</g>
    <!-- Node29 -->
<g id="node26" class="node">
<title>Node29</title>
<g id="a_node26"><a xlink:href="../../d1/d9e/_drug_8cpp.html" target="_top" xlink:title="code/model/Drug.cpp">
<polygon fill="none" stroke="#000000" points="1138.3849,-240.5 1138.3849,-258.5 1249.4386,-258.5 1249.4386,-240.5 1138.3849,-240.5"/>
<text text-anchor="middle" x="1193.9118" y="-246.5" font-family="Helvetica,sans-Serif" font-size="10.00" fill="#000000">code/model/Drug.cpp</text>
</a>
</g>
</g>
    <!-- Node28&#45;&gt;Node29 -->
<g id="edge49" class="edge">
<title>Node28&#45;&gt;Node29</title>
<path fill="none" stroke="#191970" d="M1181.4134,-285.6796C1184.5495,-276.6014 1188.1713,-266.1171 1190.7062,-258.7795"/>
<polygon fill="#191970" stroke="#191970" points="1178.0064,-284.8231 1178.0493,-295.4179 1184.6227,-287.1088 1178.0064,-284.8231"/>
</g>
</g>
</svg>
        <g id="navigator" transform="translate(0 0)" fill="#404254">
                <rect fill="#f2f5e9" fill-opacity="0.5" stroke="#606060" stroke-width=".5" x="0" y="0" width="60" height="60"/>
                <use id="zoomplus" xlink:href="#zoomPlus" x="17" y="9" onmousedown="handleZoom(evt,'in')"/>
                <use id="zoomminus" xlink:href="#zoomMin" x="42" y="9" onmousedown="handleZoom(evt,'out')"/>
                <use id="reset" xlink:href="#resetDef" x="30" y="36" onmousedown="handleReset()"/>
                <g id="arrowUp" xlink:href="#dirArrow" transform="translate(30 24)" onmousedown="handlePan(0,-1)">
                  <use xlink:href="#rim" fill="#404040">
                        <set attributeName="fill" to="#808080" begin="arrowUp.mouseover" end="arrowUp.mouseout"/>
                  </use>
                  <path fill="none" stroke="white" stroke-width="1.5" d="M0,-3.0v7 M-2.5,-0.5L0,-3.0L2.5,-0.5"/>
                </g>
                <g id="arrowRight" xlink:href="#dirArrow" transform="rotate(90) translate(36 -43)" onmousedown="handlePan(1,0)">
                  <use xlink:href="#rim" fill="#404040">
                        <set attributeName="fill" to="#808080" begin="arrowRight.mouseover" end="arrowRight.mouseout"/>
                  </use>
                  <path fill="none" stroke="white" stroke-width="1.5" d="M0,-3.0v7 M-2.5,-0.5L0,-3.0L2.5,-0.5"/>
                </g>
                <g id="arrowDown" xlink:href="#dirArrow" transform="rotate(180) translate(-30 -48)" onmousedown="handlePan(0,1)">
                  <use xlink:href="#rim" fill="#404040">
                        <set attributeName="fill" to="#808080" begin="arrowDown.mouseover" end="arrowDown.mouseout"/>
                  </use>
                  <path fill="none" stroke="white" stroke-width="1.5" d="M0,-3.0v7 M-2.5,-0.5L0,-3.0L2.5,-0.5"/>
                </g>
                <g id="arrowLeft" xlink:href="#dirArrow" transform="rotate(270) translate(-36 17)" onmousedown="handlePan(-1,0)">
                  <use xlink:href="#rim" fill="#404040">
                        <set attributeName="fill" to="#808080" begin="arrowLeft.mouseover" end="arrowLeft.mouseout"/>
                  </use>
                  <path fill="none" stroke="white" stroke-width="1.5" d="M0,-3.0v7 M-2.5,-0.5L0,-3.0L2.5,-0.5"/>
                </g>
        </g>
        <svg viewBox="0 0 15 15" width="100%" height="30px" preserveAspectRatio="xMaxYMin meet">
         <g id="arrow_out" transform="scale(0.3 0.3)">
          <a xlink:href="_i_serializable_8hpp__dep__incl_org.svg" target="_base">
           <rect id="button" ry="5" rx="5" y="6" x="6" height="38" width="38"
                fill="#f2f5e9" fill-opacity="0.5" stroke="#606060" stroke-width="1.0"/>
           <path id="arrow"
             d="M 11.500037,31.436501 C 11.940474,20.09759 22.043105,11.32322 32.158766,21.979434 L 37.068811,17.246167 C 37.068811,17.246167 37.088388,32 37.088388,32 L 22.160133,31.978069 C 22.160133,31.978069 26.997745,27.140456 26.997745,27.140456 C 18.528582,18.264221 13.291696,25.230495 11.500037,31.436501 z"
             style="fill:#404040;"/>
          </a>
         </g>
        </svg>
</svg>
