<?xml version="1.0" encoding="UTF-8" standalone="no"?>
<!DOCTYPE svg PUBLIC "-//W3C//DTD SVG 1.1//EN"
        "http://www.w3.org/Graphics/SVG/1.1/DTD/svg11.dtd">
<!-- Generated by graphviz version 2.40.1 (20161225.0304)
 -->
<!-- Title: code/MedH.cpp Pages: 1 -->
<svg width="1243pt" height="302pt"
     viewBox="0.00 0.00 1242.68 302.00" xmlns="http://www.w3.org/2000/svg" xmlns:xlink="http://www.w3.org/1999/xlink">
    <g id="graph0" class="graph" transform="scale(1 1) rotate(0) translate(4 298)">
        <title>code/MedH.cpp</title>
        <!-- Node0 -->
        <g id="node1" class="node">
            <title>Node0</title>
            <polygon fill="#bfbfbf" stroke="#000000"
                     points="708.6504,-275.5 708.6504,-293.5 794.6895,-293.5 794.6895,-275.5 708.6504,-275.5"/>
            <text text-anchor="middle" x="751.6699" y="-281.5" font-family="Helvetica,sans-Serif" font-size="10.00"
                  fill="#000000">code/MedH.cpp
            </text>
        </g>
        <!-- Node1 -->
        <g id="node2" class="node">
            <title>Node1</title>
            <g id="a_node2">
                <a xlink:href="../../db/d45/_med_h_8hpp.html" target="_top" xlink:title="MedH.hpp">
                    <polygon fill="none" stroke="#000000"
                             points="769.6011,-220.5 769.6011,-238.5 831.7388,-238.5 831.7388,-220.5 769.6011,-220.5"/>
                    <text text-anchor="middle" x="800.6699" y="-226.5" font-family="Helvetica,sans-Serif"
                          font-size="10.00" fill="#000000">MedH.hpp
                    </text>
                </a>
            </g>
        </g>
        <!-- Node0&#45;&gt;Node1 -->
        <g id="edge1" class="edge">
            <title>Node0&#45;&gt;Node1</title>
            <path fill="none" stroke="#191970"
                  d="M759.7613,-275.4179C766.7412,-267.5833 777.0096,-256.0575 785.5123,-246.5137"/>
            <polygon fill="#191970" stroke="#191970"
                     points="788.364,-248.5743 792.4028,-238.7795 783.1374,-243.9178 788.364,-248.5743"/>
        </g>
        <!-- Node9 -->
        <g id="node10" class="node">
            <title>Node9</title>
            <g id="a_node10">
                <a xlink:href="../../d1/d32/_configuration_8hpp.html" target="_top" xlink:title="Configuration.hpp">
                    <polygon fill="none" stroke="#000000"
                             points="75.1973,-220.5 75.1973,-238.5 170.1426,-238.5 170.1426,-220.5 75.1973,-220.5"/>
                    <text text-anchor="middle" x="122.6699" y="-226.5" font-family="Helvetica,sans-Serif"
                          font-size="10.00" fill="#000000">Configuration.hpp
                    </text>
                </a>
            </g>
        </g>
        <!-- Node0&#45;&gt;Node9 -->
        <g id="edge10" class="edge">
            <title>Node0&#45;&gt;Node9</title>
            <path fill="none" stroke="#191970"
                  d="M708.4362,-280.7196C598.0196,-271.0648 305.5565,-245.4917 180.601,-234.5655"/>
            <polygon fill="#191970" stroke="#191970"
                     points="180.7344,-231.0639 170.4675,-233.6794 180.1245,-238.0373 180.7344,-231.0639"/>
        </g>
        <!-- Node13 -->
        <g id="node14" class="node">
            <title>Node13</title>
            <g id="a_node14">
                <a xlink:href="../../d7/d0f/_d_b_master_8hpp.html" target="_top" xlink:title="DBMaster.hpp">
                    <polygon fill="none" stroke="#000000"
                             points="391.9854,-165.5 391.9854,-183.5 471.3545,-183.5 471.3545,-165.5 391.9854,-165.5"/>
                    <text text-anchor="middle" x="431.6699" y="-171.5" font-family="Helvetica,sans-Serif"
                          font-size="10.00" fill="#000000">DBMaster.hpp
                    </text>
                </a>
            </g>
        </g>
        <!-- Node0&#45;&gt;Node13 -->
        <g id="edge14" class="edge">
            <title>Node0&#45;&gt;Node13</title>
            <path fill="none" stroke="#191970"
                  d="M708.51,-279.8023C646.2188,-272.5084 534.6394,-257.3693 498.6699,-239 476.5525,-227.7048 456.8259,-206.6983 444.6015,-191.7277"/>
            <polygon fill="#191970" stroke="#191970"
                     points="447.2434,-189.4252 438.3095,-183.7298 441.7418,-193.7533 447.2434,-189.4252"/>
        </g>
        <!-- Node19 -->
        <g id="node20" class="node">
            <title>Node19</title>
            <g id="a_node20">
                <a xlink:href="../../dc/db8/_ref_builder_8hpp.html" target="_top" xlink:title="gui/RefBuilder.hpp">
                    <polygon fill="none" stroke="#000000"
                             points="653.8057,-220.5 653.8057,-238.5 751.5342,-238.5 751.5342,-220.5 653.8057,-220.5"/>
                    <text text-anchor="middle" x="702.6699" y="-226.5" font-family="Helvetica,sans-Serif"
                          font-size="10.00" fill="#000000">gui/RefBuilder.hpp
                    </text>
                </a>
            </g>
        </g>
        <!-- Node0&#45;&gt;Node19 -->
        <g id="edge23" class="edge">
            <title>Node0&#45;&gt;Node19</title>
            <path fill="none" stroke="#191970"
                  d="M743.5786,-275.4179C736.5986,-267.5833 726.3303,-256.0575 717.8276,-246.5137"/>
            <polygon fill="#191970" stroke="#191970"
                     points="720.2025,-243.9178 710.9371,-238.7795 714.9758,-248.5743 720.2025,-243.9178"/>
        </g>
        <!-- Node20 -->
        <g id="node21" class="node">
            <title>Node20</title>
            <g id="a_node21">
                <a xlink:href="../../db/d18/_login_window_8hpp.html" target="_top" xlink:title="gui/LoginWindow.hpp">
                    <polygon fill="none" stroke="#000000"
                             points="850.1333,-220.5 850.1333,-238.5 961.2065,-238.5 961.2065,-220.5 850.1333,-220.5"/>
                    <text text-anchor="middle" x="905.6699" y="-226.5" font-family="Helvetica,sans-Serif"
                          font-size="10.00" fill="#000000">gui/LoginWindow.hpp
                    </text>
                </a>
            </g>
        </g>
        <!-- Node0&#45;&gt;Node20 -->
        <g id="edge25" class="edge">
            <title>Node0&#45;&gt;Node20</title>
            <path fill="none" stroke="#191970"
                  d="M777.0999,-275.4179C802.7006,-266.2748 842.3771,-252.1046 870.8826,-241.924"/>
            <polygon fill="#191970" stroke="#191970"
                     points="872.2179,-245.1637 880.4581,-238.5042 869.8635,-238.5715 872.2179,-245.1637"/>
        </g>
        <!-- Node21 -->
        <g id="node22" class="node">
            <title>Node21</title>
            <g id="a_node22">
                <a xlink:href="../../dc/d00/_authentication_8hpp.html" target="_top"
                   xlink:title="model/Authentication.hpp">
                    <polygon fill="none" stroke="#000000"
                             points="507.2417,-220.5 507.2417,-238.5 636.0981,-238.5 636.0981,-220.5 507.2417,-220.5"/>
                    <text text-anchor="middle" x="571.6699" y="-226.5" font-family="Helvetica,sans-Serif"
                          font-size="10.00" fill="#000000">model/Authentication.hpp
                    </text>
                </a>
            </g>
        </g>
        <!-- Node0&#45;&gt;Node21 -->
        <g id="edge27" class="edge">
            <title>Node0&#45;&gt;Node21</title>
            <path fill="none" stroke="#191970"
                  d="M721.9466,-275.4179C691.6317,-266.155 644.4307,-251.7325 611.0277,-241.526"/>
            <polygon fill="#191970" stroke="#191970"
                     points="611.7246,-238.0792 601.1382,-238.5042 609.679,-244.7737 611.7246,-238.0792"/>
        </g>
        <!-- Node23 -->
        <g id="node24" class="node">
            <title>Node23</title>
            <g id="a_node24">
                <a xlink:href="../../db/d41/_main_window_8hpp.html" target="_top" xlink:title="gui/MainWindow.hpp">
                    <polygon fill="none" stroke="#000000"
                             points="979.5298,-220.5 979.5298,-238.5 1087.8101,-238.5 1087.8101,-220.5 979.5298,-220.5"/>
                    <text text-anchor="middle" x="1033.6699" y="-226.5" font-family="Helvetica,sans-Serif"
                          font-size="10.00" fill="#000000">gui/MainWindow.hpp
                    </text>
                </a>
            </g>
        </g>
        <!-- Node0&#45;&gt;Node23 -->
        <g id="edge32" class="edge">
            <title>Node0&#45;&gt;Node23</title>
            <path fill="none" stroke="#191970"
                  d="M794.8066,-276.0868C843.6543,-266.5598 923.4232,-251.002 977.1957,-240.5145"/>
            <polygon fill="#191970" stroke="#191970"
                     points="978.1083,-243.9025 987.2533,-238.5529 976.7682,-237.032 978.1083,-243.9025"/>
        </g>
        <!-- Node30 -->
        <g id="node31" class="node">
            <title>Node30</title>
            <polygon fill="none" stroke="#bfbfbf"
                     points="1105.6431,-220.5 1105.6431,-238.5 1191.6968,-238.5 1191.6968,-220.5 1105.6431,-220.5"/>
            <text text-anchor="middle" x="1148.6699" y="-226.5" font-family="Helvetica,sans-Serif" font-size="10.00"
                  fill="#000000">spdlog/spdlog.h
            </text>
        </g>
        <!-- Node0&#45;&gt;Node30 -->
        <g id="edge41" class="edge">
            <title>Node0&#45;&gt;Node30</title>
            <path fill="none" stroke="#191970"
                  d="M794.7969,-279.5087C858.3533,-272.0001 981.14,-256.913 1095.584,-239.108"/>
            <polygon fill="#191970" stroke="#191970"
                     points="1096.2297,-242.5496 1105.5677,-237.5444 1095.1466,-235.6339 1096.2297,-242.5496"/>
        </g>
        <!-- Node2 -->
        <g id="node3" class="node">
            <title>Node2</title>
            <polygon fill="none" stroke="#bfbfbf"
                     points="687.4951,-165.5 687.4951,-183.5 791.8447,-183.5 791.8447,-165.5 687.4951,-165.5"/>
            <text text-anchor="middle" x="739.6699" y="-171.5" font-family="Helvetica,sans-Serif" font-size="10.00"
                  fill="#000000">gtkmm&#45;3.0/gtkmm.h
            </text>
        </g>
        <!-- Node1&#45;&gt;Node2 -->
        <g id="edge2" class="edge">
            <title>Node1&#45;&gt;Node2</title>
            <path fill="none" stroke="#191970"
                  d="M790.597,-220.4179C781.6444,-212.3458 768.3461,-200.3556 757.5836,-190.6517"/>
            <polygon fill="#191970" stroke="#191970"
                     points="759.7323,-187.8764 749.9617,-183.7795 755.0449,-193.0753 759.7323,-187.8764"/>
        </g>
        <!-- Node3 -->
        <g id="node4" class="node">
            <title>Node3</title>
            <g id="a_node4">
                <a xlink:href="../../d5/d40/_i_observer_8hpp.html" target="_top" xlink:title="interfaces/IObserver.hpp">
                    <polygon fill="none" stroke="#000000"
                             points="757.1948,-55.5 757.1948,-73.5 882.145,-73.5 882.145,-55.5 757.1948,-55.5"/>
                    <text text-anchor="middle" x="819.6699" y="-61.5" font-family="Helvetica,sans-Serif"
                          font-size="10.00" fill="#000000">interfaces/IObserver.hpp
                    </text>
                </a>
            </g>
        </g>
        <!-- Node1&#45;&gt;Node3 -->
        <g id="edge3" class="edge">
            <title>Node1&#45;&gt;Node3</title>
            <path fill="none" stroke="#191970"
                  d="M801.7459,-220.1561C804.7635,-193.9504 813.3532,-119.3557 817.4473,-83.8021"/>
            <polygon fill="#191970" stroke="#191970"
                     points="820.9387,-84.0762 818.6058,-73.7414 813.9847,-83.2753 820.9387,-84.0762"/>
        </g>
        <!-- Node6 -->
        <g id="node7" class="node">
            <title>Node6</title>
            <g id="a_node7">
                <a xlink:href="../../de/d0b/_window_8hpp.html" target="_top" xlink:title="gui/Window.hpp">
                    <polygon fill="none" stroke="#000000"
                             points="847.3672,-165.5 847.3672,-183.5 933.9727,-183.5 933.9727,-165.5 847.3672,-165.5"/>
                    <text text-anchor="middle" x="890.6699" y="-171.5" font-family="Helvetica,sans-Serif"
                          font-size="10.00" fill="#000000">gui/Window.hpp
                    </text>
                </a>
            </g>
        </g>
        <!-- Node1&#45;&gt;Node6 -->
        <g id="edge6" class="edge">
            <title>Node1&#45;&gt;Node6</title>
            <path fill="none" stroke="#191970"
                  d="M815.5316,-220.4179C829.4713,-211.8992 850.5519,-199.0166 866.84,-189.0627"/>
            <polygon fill="#191970" stroke="#191970"
                     points="869.0784,-191.7967 875.7862,-183.5956 865.4283,-185.8237 869.0784,-191.7967"/>
        </g>
        <!-- Node4 -->
        <g id="node5" class="node">
            <title>Node4</title>
            <polygon fill="none" stroke="#bfbfbf"
                     points="767.0542,-.5 767.0542,-18.5 810.2856,-18.5 810.2856,-.5 767.0542,-.5"/>
            <text text-anchor="middle" x="788.6699" y="-6.5" font-family="Helvetica,sans-Serif" font-size="10.00"
                  fill="#000000">mutex
            </text>
        </g>
        <!-- Node3&#45;&gt;Node4 -->
        <g id="edge4" class="edge">
            <title>Node3&#45;&gt;Node4</title>
            <path fill="none" stroke="#191970"
                  d="M814.5509,-55.4179C810.3135,-47.8998 804.1603,-36.9829 798.9167,-27.6799"/>
            <polygon fill="#191970" stroke="#191970"
                     points="801.8594,-25.7724 793.9002,-18.7795 795.7613,-29.2096 801.8594,-25.7724"/>
        </g>
        <!-- Node5 -->
        <g id="node6" class="node">
            <title>Node5</title>
            <polygon fill="none" stroke="#bfbfbf"
                     points="828.4927,-.5 828.4927,-18.5 872.8472,-18.5 872.8472,-.5 828.4927,-.5"/>
            <text text-anchor="middle" x="850.6699" y="-6.5" font-family="Helvetica,sans-Serif" font-size="10.00"
                  fill="#000000">thread
            </text>
        </g>
        <!-- Node3&#45;&gt;Node5 -->
        <g id="edge5" class="edge">
            <title>Node3&#45;&gt;Node5</title>
            <path fill="none" stroke="#191970"
                  d="M824.7889,-55.4179C829.0264,-47.8998 835.1796,-36.9829 840.4231,-27.6799"/>
            <polygon fill="#191970" stroke="#191970"
                     points="843.5785,-29.2096 845.4397,-18.7795 837.4805,-25.7724 843.5785,-29.2096"/>
        </g>
        <!-- Node7 -->
        <g id="node8" class="node">
            <title>Node7</title>
            <g id="a_node8">
                <a xlink:href="../../d1/d25/_i_subject_8hpp.html" target="_top"
                   xlink:title="../interfaces/ISubject.hpp">
                    <polygon fill="none" stroke="#000000"
                             points="847.6382,-110.5 847.6382,-128.5 973.7017,-128.5 973.7017,-110.5 847.6382,-110.5"/>
                    <text text-anchor="middle" x="910.6699" y="-116.5" font-family="Helvetica,sans-Serif"
                          font-size="10.00" fill="#000000">../interfaces/ISubject.hpp
                    </text>
                </a>
            </g>
        </g>
        <!-- Node6&#45;&gt;Node7 -->
        <g id="edge7" class="edge">
            <title>Node6&#45;&gt;Node7</title>
            <path fill="none" stroke="#191970"
                  d="M893.9725,-165.4179C896.6488,-158.0581 900.5095,-147.441 903.8446,-138.2695"/>
            <polygon fill="#191970" stroke="#191970"
                     points="907.1674,-139.3735 907.2956,-128.7795 900.5888,-136.9813 907.1674,-139.3735"/>
        </g>
        <!-- Node7&#45;&gt;Node3 -->
        <g id="edge9" class="edge">
            <title>Node7&#45;&gt;Node3</title>
            <path fill="none" stroke="#191970"
                  d="M895.6431,-110.4179C881.4168,-101.8195 859.8346,-88.7754 843.3041,-78.7844"/>
            <polygon fill="#191970" stroke="#191970"
                     points="845.0878,-75.7729 834.719,-73.5956 841.4669,-81.7637 845.0878,-75.7729"/>
        </g>
        <!-- Node8 -->
        <g id="node9" class="node">
            <title>Node8</title>
            <polygon fill="none" stroke="#bfbfbf" points="900,-55.5 900,-73.5 929.3398,-73.5 929.3398,-55.5 900,-55.5"/>
            <text text-anchor="middle" x="914.6699" y="-61.5" font-family="Helvetica,sans-Serif" font-size="10.00"
                  fill="#000000">set
            </text>
        </g>
        <!-- Node7&#45;&gt;Node8 -->
        <g id="edge8" class="edge">
            <title>Node7&#45;&gt;Node8</title>
            <path fill="none" stroke="#191970"
                  d="M911.3304,-110.4179C911.8542,-103.2164 912.6047,-92.8962 913.2617,-83.8632"/>
            <polygon fill="#191970" stroke="#191970"
                     points="916.7604,-84.007 913.9951,-73.7795 909.7788,-83.4992 916.7604,-84.007"/>
        </g>
        <!-- Node10 -->
        <g id="node11" class="node">
            <title>Node10</title>
            <polygon fill="none" stroke="#bfbfbf"
                     points="167.4434,-55.5 167.4434,-73.5 207.8965,-73.5 207.8965,-55.5 167.4434,-55.5"/>
            <text text-anchor="middle" x="187.6699" y="-61.5" font-family="Helvetica,sans-Serif" font-size="10.00"
                  fill="#000000">string
            </text>
        </g>
        <!-- Node9&#45;&gt;Node10 -->
        <g id="edge11" class="edge">
            <title>Node9&#45;&gt;Node10</title>
            <path fill="none" stroke="#191970"
                  d="M126.3508,-220.1561C136.719,-193.837 166.3149,-118.709 180.2471,-83.3426"/>
            <polygon fill="#191970" stroke="#191970"
                     points="183.6205,-84.3283 184.0294,-73.7414 177.1076,-81.7626 183.6205,-84.3283"/>
        </g>
        <!-- Node11 -->
        <g id="node12" class="node">
            <title>Node11</title>
            <polygon fill="none" stroke="#bfbfbf"
                     points="67.7661,-165.5 67.7661,-183.5 121.5737,-183.5 121.5737,-165.5 67.7661,-165.5"/>
            <text text-anchor="middle" x="94.6699" y="-171.5" font-family="Helvetica,sans-Serif" font-size="10.00"
                  fill="#000000">json.hpp
            </text>
        </g>
        <!-- Node9&#45;&gt;Node11 -->
        <g id="edge12" class="edge">
            <title>Node9&#45;&gt;Node11</title>
            <path fill="none" stroke="#191970"
                  d="M118.0463,-220.4179C114.2592,-212.9789 108.778,-202.2123 104.0749,-192.9742"/>
            <polygon fill="#191970" stroke="#191970"
                     points="107.05,-191.1032 99.394,-183.7795 100.8118,-194.279 107.05,-191.1032"/>
        </g>
        <!-- Node12 -->
        <g id="node13" class="node">
            <title>Node12</title>
            <polygon fill="none" stroke="#bfbfbf" points="0,-165.5 0,-183.5 49.3398,-183.5 49.3398,-165.5 0,-165.5"/>
            <text text-anchor="middle" x="24.6699" y="-171.5" font-family="Helvetica,sans-Serif" font-size="10.00"
                  fill="#000000">fstream
            </text>
        </g>
        <!-- Node9&#45;&gt;Node12 -->
        <g id="edge13" class="edge">
            <title>Node9&#45;&gt;Node12</title>
            <path fill="none" stroke="#191970"
                  d="M106.4872,-220.4179C91.0247,-211.7399 67.4931,-198.5334 49.6291,-188.5077"/>
            <polygon fill="#191970" stroke="#191970"
                     points="51.3102,-185.4377 40.8767,-183.5956 47.8842,-191.542 51.3102,-185.4377"/>
        </g>
        <!-- Node13&#45;&gt;Node10 -->
        <g id="edge16" class="edge">
            <title>Node13&#45;&gt;Node10</title>
            <path fill="none" stroke="#191970"
                  d="M391.8958,-171.3477C334.7245,-166.025 233.2574,-153.371 206.6699,-129 194.3117,-117.6721 189.8396,-98.7559 188.2949,-84.3298"/>
            <polygon fill="#191970" stroke="#191970"
                     points="191.7597,-83.6932 187.5889,-73.9539 184.7759,-84.1684 191.7597,-83.6932"/>
        </g>
        <!-- Node14 -->
        <g id="node15" class="node">
            <title>Node14</title>
            <polygon fill="none" stroke="#bfbfbf"
                     points="216.0469,-110.5 216.0469,-128.5 269.293,-128.5 269.293,-110.5 216.0469,-110.5"/>
            <text text-anchor="middle" x="242.6699" y="-116.5" font-family="Helvetica,sans-Serif" font-size="10.00"
                  fill="#000000">sqlite3.h
            </text>
        </g>
        <!-- Node13&#45;&gt;Node14 -->
        <g id="edge15" class="edge">
            <title>Node13&#45;&gt;Node14</title>
            <path fill="none" stroke="#191970"
                  d="M400.4604,-165.4179C367.1566,-155.7263 314.4432,-140.3864 279.2222,-130.1369"/>
            <polygon fill="#191970" stroke="#191970"
                     points="279.9185,-126.6944 269.3388,-127.2608 277.9625,-133.4156 279.9185,-126.6944"/>
        </g>
        <!-- Node15 -->
        <g id="node16" class="node">
            <title>Node15</title>
            <polygon fill="none" stroke="#bfbfbf"
                     points="287.2686,-110.5 287.2686,-128.5 346.0713,-128.5 346.0713,-110.5 287.2686,-110.5"/>
            <text text-anchor="middle" x="316.6699" y="-116.5" font-family="Helvetica,sans-Serif" font-size="10.00"
                  fill="#000000">stdexcept
            </text>
        </g>
        <!-- Node13&#45;&gt;Node15 -->
        <g id="edge17" class="edge">
            <title>Node13&#45;&gt;Node15</title>
            <path fill="none" stroke="#191970"
                  d="M412.68,-165.4179C394.2023,-156.5807 365.9051,-143.0473 344.8116,-132.9591"/>
            <polygon fill="#191970" stroke="#191970"
                     points="346.2195,-129.7528 335.688,-128.5956 343.1993,-136.0677 346.2195,-129.7528"/>
        </g>
        <!-- Node16 -->
        <g id="node17" class="node">
            <title>Node16</title>
            <polygon fill="none" stroke="#bfbfbf"
                     points="506.0542,-55.5 506.0542,-73.5 549.2856,-73.5 549.2856,-55.5 506.0542,-55.5"/>
            <text text-anchor="middle" x="527.6699" y="-61.5" font-family="Helvetica,sans-Serif" font-size="10.00"
                  fill="#000000">vector
            </text>
        </g>
        <!-- Node13&#45;&gt;Node16 -->
        <g id="edge18" class="edge">
            <title>Node13&#45;&gt;Node16</title>
            <path fill="none" stroke="#191970"
                  d="M456.908,-165.3451C473.8456,-157.9779 495.4065,-146.027 508.6699,-129 518.758,-116.0494 523.4962,-97.8639 525.718,-84.1027"/>
            <polygon fill="#191970" stroke="#191970"
                     points="529.2394,-84.1629 527.0547,-73.7958 522.2975,-83.2626 529.2394,-84.1629"/>
        </g>
        <!-- Node17 -->
        <g id="node18" class="node">
            <title>Node17</title>
            <g id="a_node18">
                <a xlink:href="../../d3/d1b/_i_serializable_8hpp.html" target="_top"
                   xlink:title="interfaces/ISerializable.hpp">
                    <polygon fill="none" stroke="#000000"
                             points="363.6357,-110.5 363.6357,-128.5 499.7041,-128.5 499.7041,-110.5 363.6357,-110.5"/>
                    <text text-anchor="middle" x="431.6699" y="-116.5" font-family="Helvetica,sans-Serif"
                          font-size="10.00" fill="#000000">interfaces/ISerializable.hpp
                    </text>
                </a>
            </g>
        </g>
        <!-- Node13&#45;&gt;Node17 -->
        <g id="edge19" class="edge">
            <title>Node13&#45;&gt;Node17</title>
            <path fill="none" stroke="#191970"
                  d="M431.6699,-165.4179C431.6699,-158.2164 431.6699,-147.8962 431.6699,-138.8632"/>
            <polygon fill="#191970" stroke="#191970"
                     points="435.17,-138.7794 431.6699,-128.7795 428.17,-138.7795 435.17,-138.7794"/>
        </g>
        <!-- Node17&#45;&gt;Node10 -->
        <g id="edge20" class="edge">
            <title>Node17&#45;&gt;Node10</title>
            <path fill="none" stroke="#191970"
                  d="M391.6515,-110.4795C342.8371,-99.4762 261.4319,-81.1267 217.6757,-71.2636"/>
            <polygon fill="#191970" stroke="#191970"
                     points="218.4391,-67.8479 207.9142,-69.0633 216.8998,-74.6766 218.4391,-67.8479"/>
        </g>
        <!-- Node17&#45;&gt;Node16 -->
        <g id="edge22" class="edge">
            <title>Node17&#45;&gt;Node16</title>
            <path fill="none" stroke="#191970"
                  d="M447.5224,-110.4179C462.5304,-101.8195 485.2983,-88.7754 502.7371,-78.7844"/>
            <polygon fill="#191970" stroke="#191970"
                     points="504.857,-81.6037 511.7939,-73.5956 501.3771,-75.5299 504.857,-81.6037"/>
        </g>
        <!-- Node18 -->
        <g id="node19" class="node">
            <title>Node18</title>
            <polygon fill="none" stroke="#bfbfbf"
                     points="413.9434,-55.5 413.9434,-73.5 449.3965,-73.5 449.3965,-55.5 413.9434,-55.5"/>
            <text text-anchor="middle" x="431.6699" y="-61.5" font-family="Helvetica,sans-Serif" font-size="10.00"
                  fill="#000000">map
            </text>
        </g>
        <!-- Node17&#45;&gt;Node18 -->
        <g id="edge21" class="edge">
            <title>Node17&#45;&gt;Node18</title>
            <path fill="none" stroke="#191970"
                  d="M431.6699,-110.4179C431.6699,-103.2164 431.6699,-92.8962 431.6699,-83.8632"/>
            <polygon fill="#191970" stroke="#191970"
                     points="435.17,-83.7794 431.6699,-73.7795 428.17,-83.7795 435.17,-83.7794"/>
        </g>
        <!-- Node19&#45;&gt;Node2 -->
        <g id="edge24" class="edge">
            <title>Node19&#45;&gt;Node2</title>
            <path fill="none" stroke="#191970"
                  d="M708.7797,-220.4179C713.9438,-212.7415 721.4917,-201.5217 727.8336,-192.0945"/>
            <polygon fill="#191970" stroke="#191970"
                     points="730.7496,-194.0303 733.4274,-183.7795 724.9415,-190.1231 730.7496,-194.0303"/>
        </g>
        <!-- Node20&#45;&gt;Node6 -->
        <g id="edge26" class="edge">
            <title>Node20&#45;&gt;Node6</title>
            <path fill="none" stroke="#191970"
                  d="M903.193,-220.4179C901.2073,-213.1372 898.3524,-202.669 895.8697,-193.5659"/>
            <polygon fill="#191970" stroke="#191970"
                     points="899.2086,-192.5062 893.2007,-183.7795 892.4553,-194.348 899.2086,-192.5062"/>
        </g>
        <!-- Node21&#45;&gt;Node7 -->
        <g id="edge29" class="edge">
            <title>Node21&#45;&gt;Node7</title>
            <path fill="none" stroke="#191970"
                  d="M585.5051,-220.3276C609.8165,-204.3523 659.4441,-172.4143 678.6699,-165 729.868,-145.2557 790.8635,-133.7246 837.4606,-127.2131"/>
            <polygon fill="#191970" stroke="#191970"
                     points="838.0346,-130.6674 847.4757,-125.8595 837.097,-123.7305 838.0346,-130.6674"/>
        </g>
        <!-- Node21&#45;&gt;Node13 -->
        <g id="edge28" class="edge">
            <title>Node21&#45;&gt;Node13</title>
            <path fill="none" stroke="#191970"
                  d="M548.5518,-220.4179C525.5505,-211.3817 490.0506,-197.4353 464.2079,-187.2828"/>
            <polygon fill="#191970" stroke="#191970"
                     points="465.4097,-183.9946 454.8224,-183.5956 462.8501,-190.5098 465.4097,-183.9946"/>
        </g>
        <!-- Node21&#45;&gt;Node16 -->
        <g id="edge30" class="edge">
            <title>Node21&#45;&gt;Node16</title>
            <path fill="none" stroke="#191970"
                  d="M569.1782,-220.1561C562.19,-193.9504 542.2981,-119.3557 532.8172,-83.8021"/>
            <polygon fill="#191970" stroke="#191970"
                     points="536.0928,-82.5019 530.1343,-73.7414 529.3292,-84.3056 536.0928,-82.5019"/>
        </g>
        <!-- Node22 -->
        <g id="node23" class="node">
            <title>Node22</title>
            <polygon fill="none" stroke="#bfbfbf"
                     points="593.8276,-165.5 593.8276,-183.5 631.5122,-183.5 631.5122,-165.5 593.8276,-165.5"/>
            <text text-anchor="middle" x="612.6699" y="-171.5" font-family="Helvetica,sans-Serif" font-size="10.00"
                  fill="#000000">tuple
            </text>
        </g>
        <!-- Node21&#45;&gt;Node22 -->
        <g id="edge31" class="edge">
            <title>Node21&#45;&gt;Node22</title>
            <path fill="none" stroke="#191970"
                  d="M578.4402,-220.4179C584.2216,-212.6624 592.6992,-201.29 599.771,-191.8035"/>
            <polygon fill="#191970" stroke="#191970"
                     points="602.5819,-193.8888 605.7525,-183.7795 596.9697,-189.7051 602.5819,-193.8888"/>
        </g>
        <!-- Node23&#45;&gt;Node6 -->
        <g id="edge36" class="edge">
            <title>Node23&#45;&gt;Node6</title>
            <path fill="none" stroke="#191970"
                  d="M1010.0564,-220.4179C986.5622,-211.3817 950.3016,-197.4353 923.9051,-187.2828"/>
            <polygon fill="#191970" stroke="#191970"
                     points="924.9085,-183.9188 914.3185,-183.5956 922.3956,-190.4522 924.9085,-183.9188"/>
        </g>
        <!-- Node24 -->
        <g id="node25" class="node">
            <title>Node24</title>
            <polygon fill="none" stroke="#bfbfbf"
                     points="1090.7168,-165.5 1090.7168,-183.5 1130.623,-183.5 1130.623,-165.5 1090.7168,-165.5"/>
            <text text-anchor="middle" x="1110.6699" y="-171.5" font-family="Helvetica,sans-Serif" font-size="10.00"
                  fill="#000000">glib.h
            </text>
        </g>
        <!-- Node23&#45;&gt;Node24 -->
        <g id="edge33" class="edge">
            <title>Node23&#45;&gt;Node24</title>
            <path fill="none" stroke="#191970"
                  d="M1046.3849,-220.4179C1058.0882,-212.0584 1075.6746,-199.4966 1089.4965,-189.6239"/>
            <polygon fill="#191970" stroke="#191970"
                     points="1091.833,-192.2561 1097.936,-183.5956 1087.7643,-186.56 1091.833,-192.2561"/>
        </g>
        <!-- Node25 -->
        <g id="node26" class="node">
            <title>Node25</title>
            <polygon fill="none" stroke="#bfbfbf"
                     points="1148.6577,-165.5 1148.6577,-183.5 1234.6821,-183.5 1234.6821,-165.5 1148.6577,-165.5"/>
            <text text-anchor="middle" x="1191.6699" y="-171.5" font-family="Helvetica,sans-Serif" font-size="10.00"
                  fill="#000000">gtkmm/widget.h
            </text>
        </g>
        <!-- Node23&#45;&gt;Node25 -->
        <g id="edge34" class="edge">
            <title>Node23&#45;&gt;Node25</title>
            <path fill="none" stroke="#191970"
                  d="M1059.7604,-220.4179C1086.0261,-211.2748 1126.7331,-197.1046 1155.9791,-186.924"/>
            <polygon fill="#191970" stroke="#191970"
                     points="1157.5098,-190.0973 1165.8033,-183.5042 1155.2085,-183.4863 1157.5098,-190.0973"/>
        </g>
        <!-- Node26 -->
        <g id="node27" class="node">
            <title>Node26</title>
            <polygon fill="none" stroke="#bfbfbf"
                     points="952.2783,-165.5 952.2783,-183.5 991.0615,-183.5 991.0615,-165.5 952.2783,-165.5"/>
            <text text-anchor="middle" x="971.6699" y="-171.5" font-family="Helvetica,sans-Serif" font-size="10.00"
                  fill="#000000">array
            </text>
        </g>
        <!-- Node23&#45;&gt;Node26 -->
        <g id="edge35" class="edge">
            <title>Node23&#45;&gt;Node26</title>
            <path fill="none" stroke="#191970"
                  d="M1023.4319,-220.4179C1014.3325,-212.3458 1000.8162,-200.3556 989.8773,-190.6517"/>
            <polygon fill="#191970" stroke="#191970"
                     points="991.9338,-187.7974 982.1304,-183.7795 987.2885,-193.0339 991.9338,-187.7974"/>
        </g>
        <!-- Node27 -->
        <g id="node28" class="node">
            <title>Node27</title>
            <g id="a_node28">
                <a xlink:href="../../dc/de6/_dialog_8hpp.html" target="_top" xlink:title="Dialog.hpp">
                    <polygon fill="none" stroke="#000000"
                             points="1008.7637,-165.5 1008.7637,-183.5 1072.5762,-183.5 1072.5762,-165.5 1008.7637,-165.5"/>
                    <text text-anchor="middle" x="1040.6699" y="-171.5" font-family="Helvetica,sans-Serif"
                          font-size="10.00" fill="#000000">Dialog.hpp
                    </text>
                </a>
            </g>
        </g>
        <!-- Node23&#45;&gt;Node27 -->
        <g id="edge37" class="edge">
            <title>Node23&#45;&gt;Node27</title>
            <path fill="none" stroke="#191970"
                  d="M1034.8258,-220.4179C1035.7424,-213.2164 1037.0559,-202.8962 1038.2055,-193.8632"/>
            <polygon fill="#191970" stroke="#191970"
                     points="1041.6983,-194.1414 1039.4889,-183.7795 1034.7543,-193.2575 1041.6983,-194.1414"/>
        </g>
        <!-- Node27&#45;&gt;Node7 -->
        <g id="edge40" class="edge">
            <title>Node27&#45;&gt;Node7</title>
            <path fill="none" stroke="#191970"
                  d="M1019.2031,-165.4179C998.0329,-156.4613 965.4605,-142.6806 941.5201,-132.552"/>
            <polygon fill="#191970" stroke="#191970"
                     points="942.7421,-129.2687 932.1687,-128.5956 940.0146,-135.7155 942.7421,-129.2687"/>
        </g>
        <!-- Node28 -->
        <g id="node29" class="node">
            <title>Node28</title>
            <polygon fill="none" stroke="#bfbfbf"
                     points="1096.0913,-110.5 1096.0913,-128.5 1193.2485,-128.5 1193.2485,-110.5 1096.0913,-110.5"/>
            <text text-anchor="middle" x="1144.6699" y="-116.5" font-family="Helvetica,sans-Serif" font-size="10.00"
                  fill="#000000">sigc++/trackable.h
            </text>
        </g>
        <!-- Node27&#45;&gt;Node28 -->
        <g id="edge38" class="edge">
            <title>Node27&#45;&gt;Node28</title>
            <path fill="none" stroke="#191970"
                  d="M1057.8434,-165.4179C1074.3279,-156.7001 1099.4542,-143.4122 1118.4432,-133.3699"/>
            <polygon fill="#191970" stroke="#191970"
                     points="1120.2672,-136.3646 1127.4709,-128.5956 1116.9947,-130.1767 1120.2672,-136.3646"/>
        </g>
        <!-- Node29 -->
        <g id="node30" class="node">
            <title>Node29</title>
            <polygon fill="none" stroke="#bfbfbf"
                     points="994.7661,-110.5 994.7661,-128.5 1078.5737,-128.5 1078.5737,-110.5 994.7661,-110.5"/>
            <text text-anchor="middle" x="1036.6699" y="-116.5" font-family="Helvetica,sans-Serif" font-size="10.00"
                  fill="#000000">gtkmm/dialog.h
            </text>
        </g>
        <!-- Node27&#45;&gt;Node29 -->
        <g id="edge39" class="edge">
            <title>Node27&#45;&gt;Node29</title>
            <path fill="none" stroke="#191970"
                  d="M1040.0094,-165.4179C1039.4857,-158.2164 1038.7351,-147.8962 1038.0782,-138.8632"/>
            <polygon fill="#191970" stroke="#191970"
                     points="1041.561,-138.4992 1037.3448,-128.7795 1034.5795,-139.007 1041.561,-138.4992"/>
        </g>
    </g>
</svg>
