<?xml version="1.0" encoding="UTF-8" standalone="no"?>
<!DOCTYPE svg PUBLIC "-//W3C//DTD SVG 1.1//EN"
        "http://www.w3.org/Graphics/SVG/1.1/DTD/svg11.dtd">
<!-- Generated by graphviz version 2.40.1 (20161225.0304)
 -->
<!-- Title: code/MedH.cpp Pages: 1 -->
<!--zoomable 302 -->
<svg id="main" version="1.1" xmlns="http://www.w3.org/2000/svg" xmlns:xlink="http://www.w3.org/1999/xlink" xml:space="preserve" onload="initDrugComboBox(evt)">
<style type="text/css"><![CDATA[
.edge:hover path { stroke: red; }
.edge:hover polygon { stroke: red; fill: red; }
]]></style>
<script type="text/javascript"><![CDATA[
var edges = document.getElementsByTagName('g');
if (edges && edges.length) {
  for (var i=0;i<edges.length;i++) {
    if (edges[i].id.substr(0,4)=='edge') {
      edges[i].setAttribute('class','edge');
    }
  }
}
]]></script>
        <defs>
                <circle id="rim" cx="0" cy="0" r="7"/>
                <circle id="rim2" cx="0" cy="0" r="3.5"/>
                <g id="zoomPlus">
                        <use xlink:href="#rim" fill="#404040">
                                <set attributeName="fill" to="#808080" begin="zoomplus.mouseover" end="zoomplus.mouseout"/>
                        </use>
                        <path d="M-4,0h8M0,-4v8" fill="none" stroke="white" stroke-width="1.5" pointer-events="none"/>
                </g>
                <g id="zoomMin">
                        <use xlink:href="#rim" fill="#404040">
                                <set attributeName="fill" to="#808080" begin="zoomminus.mouseover" end="zoomminus.mouseout"/>
                        </use>
                        <path d="M-4,0h8" fill="none" stroke="white" stroke-width="1.5" pointer-events="none"/>
                </g>
                <g id="dirArrow">
                        <path fill="none" stroke="white" stroke-width="1.5" d="M0,-3.0v7 M-2.5,-0.5L0,-3.0L2.5,-0.5"/>
                </g>
               <g id="resetDef">
                       <use xlink:href="#rim2" fill="#404040">
                               <set attributeName="fill" to="#808080" begin="reset.mouseover" end="reset.mouseout"/>
                       </use>
               </g>
        </defs>

<script type="text/javascript">
var viewWidth = 984;
var viewHeight = 302;
var sectionId = 'dynsection-0';
</script>
<script xlink:href="../../svgpan.js"/>
<svg id="graph" class="graph">
<g id="viewport">
<title>code/MedH.cpp</title>
    <!-- Node0 -->
<g id="node1" class="node">
<title>Node0</title>
<polygon fill="#bfbfbf" stroke="#000000" points="492.6504,-275.5 492.6504,-293.5 578.6895,-293.5 578.6895,-275.5 492.6504,-275.5"/>
<text text-anchor="middle" x="535.6699" y="-281.5" font-family="Helvetica,sans-Serif" font-size="10.00" fill="#000000">code/MedH.cpp</text>
</g>
    <!-- Node1 -->
<g id="node2" class="node">
<title>Node1</title>
<g id="a_node2"><a xlink:href="../../db/d45/_med_h_8hpp.html" target="_top" xlink:title="MedH.hpp">
<polygon fill="none" stroke="#000000" points="553.6011,-220.5 553.6011,-238.5 615.7388,-238.5 615.7388,-220.5 553.6011,-220.5"/>
<text text-anchor="middle" x="584.6699" y="-226.5" font-family="Helvetica,sans-Serif" font-size="10.00" fill="#000000">MedH.hpp</text>
</a>
</g>
</g>
    <!-- Node0&#45;&gt;Node1 -->
<g id="edge1" class="edge">
<title>Node0&#45;&gt;Node1</title>
<path fill="none" stroke="#191970" d="M543.7613,-275.4179C550.7412,-267.5833 561.0096,-256.0575 569.5123,-246.5137"/>
<polygon fill="#191970" stroke="#191970" points="572.364,-248.5743 576.4028,-238.7795 567.1374,-243.9178 572.364,-248.5743"/>
</g>
    <!-- Node9 -->
<g id="node10" class="node">
<title>Node9</title>
<g id="a_node10"><a xlink:href="../../d1/d32/_configuration_8hpp.html" target="_top" xlink:title="Configuration.hpp">
<polygon fill="none" stroke="#000000" points="58.1973,-220.5 58.1973,-238.5 153.1426,-238.5 153.1426,-220.5 58.1973,-220.5"/>
<text text-anchor="middle" x="105.6699" y="-226.5" font-family="Helvetica,sans-Serif" font-size="10.00" fill="#000000">Configuration.hpp</text>
</a>
</g>
</g>
    <!-- Node0&#45;&gt;Node9 -->
<g id="edge10" class="edge">
<title>Node0&#45;&gt;Node9</title>
<path fill="none" stroke="#191970" d="M492.4711,-278.9746C414.6237,-269.0173 250.7842,-248.0611 163.4131,-236.8858"/>
<polygon fill="#191970" stroke="#191970" points="163.768,-233.4027 153.4047,-235.6056 162.8798,-240.3462 163.768,-233.4027"/>
</g>
    <!-- Node13 -->
<g id="node14" class="node">
<title>Node13</title>
<g id="a_node14"><a xlink:href="../../d7/d0f/_d_b_master_8hpp.html" target="_top" xlink:title="DBMaster.hpp">
<polygon fill="none" stroke="#000000" points="223.9854,-165.5 223.9854,-183.5 303.3545,-183.5 303.3545,-165.5 223.9854,-165.5"/>
<text text-anchor="middle" x="263.6699" y="-171.5" font-family="Helvetica,sans-Serif" font-size="10.00" fill="#000000">DBMaster.hpp</text>
</a>
</g>
</g>
    <!-- Node0&#45;&gt;Node13 -->
<g id="edge14" class="edge">
<title>Node0&#45;&gt;Node13</title>
<path fill="none" stroke="#191970" d="M492.5765,-282.1261C428.6554,-277.7376 312.9851,-266.1915 282.6699,-239 270.053,-227.6831 265.6359,-208.4566 264.1759,-193.9321"/>
<polygon fill="#191970" stroke="#191970" points="267.6438,-193.3 263.5389,-183.5328 260.6569,-193.7281 267.6438,-193.3"/>
</g>
    <!-- Node19 -->
<g id="node20" class="node">
<title>Node19</title>
<g id="a_node20"><a xlink:href="../../dc/db8/_ref_builder_8hpp.html" target="_top" xlink:title="gui/RefBuilder.hpp">
<polygon fill="none" stroke="#000000" points="437.8057,-220.5 437.8057,-238.5 535.5342,-238.5 535.5342,-220.5 437.8057,-220.5"/>
<text text-anchor="middle" x="486.6699" y="-226.5" font-family="Helvetica,sans-Serif" font-size="10.00" fill="#000000">gui/RefBuilder.hpp</text>
</a>
</g>
</g>
    <!-- Node0&#45;&gt;Node19 -->
<g id="edge22" class="edge">
<title>Node0&#45;&gt;Node19</title>
<path fill="none" stroke="#191970" d="M527.5786,-275.4179C520.5986,-267.5833 510.3303,-256.0575 501.8276,-246.5137"/>
<polygon fill="#191970" stroke="#191970" points="504.2025,-243.9178 494.9371,-238.7795 498.9758,-248.5743 504.2025,-243.9178"/>
</g>
    <!-- Node20 -->
<g id="node21" class="node">
<title>Node20</title>
<g id="a_node21"><a xlink:href="../../db/d18/_login_window_8hpp.html" target="_top" xlink:title="gui/LoginWindow.hpp">
<polygon fill="none" stroke="#000000" points="634.1333,-220.5 634.1333,-238.5 745.2065,-238.5 745.2065,-220.5 634.1333,-220.5"/>
<text text-anchor="middle" x="689.6699" y="-226.5" font-family="Helvetica,sans-Serif" font-size="10.00" fill="#000000">gui/LoginWindow.hpp</text>
</a>
</g>
</g>
    <!-- Node0&#45;&gt;Node20 -->
<g id="edge24" class="edge">
<title>Node0&#45;&gt;Node20</title>
<path fill="none" stroke="#191970" d="M561.0999,-275.4179C586.7006,-266.2748 626.3771,-252.1046 654.8826,-241.924"/>
<polygon fill="#191970" stroke="#191970" points="656.2179,-245.1637 664.4581,-238.5042 653.8635,-238.5715 656.2179,-245.1637"/>
</g>
    <!-- Node21 -->
<g id="node22" class="node">
<title>Node21</title>
<g id="a_node22"><a xlink:href="../../dc/d00/_authentication_8hpp.html" target="_top" xlink:title="model/Authentication.hpp">
<polygon fill="none" stroke="#000000" points="291.2417,-220.5 291.2417,-238.5 420.0981,-238.5 420.0981,-220.5 291.2417,-220.5"/>
<text text-anchor="middle" x="355.6699" y="-226.5" font-family="Helvetica,sans-Serif" font-size="10.00" fill="#000000">model/Authentication.hpp</text>
</a>
</g>
</g>
    <!-- Node0&#45;&gt;Node21 -->
<g id="edge26" class="edge">
<title>Node0&#45;&gt;Node21</title>
<path fill="none" stroke="#191970" d="M505.9466,-275.4179C475.6317,-266.155 428.4307,-251.7325 395.0277,-241.526"/>
<polygon fill="#191970" stroke="#191970" points="395.7246,-238.0792 385.1382,-238.5042 393.679,-244.7737 395.7246,-238.0792"/>
</g>
    <!-- Node23 -->
<g id="node24" class="node">
<title>Node23</title>
<g id="a_node24"><a xlink:href="../../db/d41/_main_window_8hpp.html" target="_top" xlink:title="gui/MainWindow.hpp">
<polygon fill="none" stroke="#000000" points="763.5298,-220.5 763.5298,-238.5 871.8101,-238.5 871.8101,-220.5 763.5298,-220.5"/>
<text text-anchor="middle" x="817.6699" y="-226.5" font-family="Helvetica,sans-Serif" font-size="10.00" fill="#000000">gui/MainWindow.hpp</text>
</a>
</g>
</g>
    <!-- Node0&#45;&gt;Node23 -->
<g id="edge31" class="edge">
<title>Node0&#45;&gt;Node23</title>
<path fill="none" stroke="#191970" d="M578.8066,-276.0868C627.6543,-266.5598 707.4232,-251.002 761.1957,-240.5145"/>
<polygon fill="#191970" stroke="#191970" points="762.1083,-243.9025 771.2533,-238.5529 760.7682,-237.032 762.1083,-243.9025"/>
</g>
    <!-- Node28 -->
<g id="node29" class="node">
<title>Node28</title>
<polygon fill="none" stroke="#bfbfbf" points="889.6431,-220.5 889.6431,-238.5 975.6968,-238.5 975.6968,-220.5 889.6431,-220.5"/>
<text text-anchor="middle" x="932.6699" y="-226.5" font-family="Helvetica,sans-Serif" font-size="10.00" fill="#000000">spdlog/spdlog.h</text>
</g>
    <!-- Node0&#45;&gt;Node28 -->
<g id="edge38" class="edge">
<title>Node0&#45;&gt;Node28</title>
<path fill="none" stroke="#191970" d="M578.7969,-279.5087C642.3533,-272.0001 765.14,-256.913 879.584,-239.108"/>
<polygon fill="#191970" stroke="#191970" points="880.2297,-242.5496 889.5677,-237.5444 879.1466,-235.6339 880.2297,-242.5496"/>
</g>
    <!-- Node2 -->
<g id="node3" class="node">
<title>Node2</title>
<polygon fill="none" stroke="#bfbfbf" points="453.4951,-165.5 453.4951,-183.5 557.8447,-183.5 557.8447,-165.5 453.4951,-165.5"/>
<text text-anchor="middle" x="505.6699" y="-171.5" font-family="Helvetica,sans-Serif" font-size="10.00" fill="#000000">gtkmm&#45;3.0/gtkmm.h</text>
</g>
    <!-- Node1&#45;&gt;Node2 -->
<g id="edge2" class="edge">
<title>Node1&#45;&gt;Node2</title>
<path fill="none" stroke="#191970" d="M571.6247,-220.4179C559.5031,-211.9788 541.2299,-199.257 526.9892,-189.3426"/>
<polygon fill="#191970" stroke="#191970" points="528.9413,-186.4369 518.7345,-183.5956 524.9417,-192.1818 528.9413,-186.4369"/>
</g>
    <!-- Node3 -->
<g id="node4" class="node">
<title>Node3</title>
<g id="a_node4"><a xlink:href="../../d5/d40/_i_observer_8hpp.html" target="_top" xlink:title="interfaces/IObserver.hpp">
<polygon fill="none" stroke="#000000" points="523.1948,-55.5 523.1948,-73.5 648.145,-73.5 648.145,-55.5 523.1948,-55.5"/>
<text text-anchor="middle" x="585.6699" y="-61.5" font-family="Helvetica,sans-Serif" font-size="10.00" fill="#000000">interfaces/IObserver.hpp</text>
</a>
</g>
</g>
    <!-- Node1&#45;&gt;Node3 -->
<g id="edge3" class="edge">
<title>Node1&#45;&gt;Node3</title>
<path fill="none" stroke="#191970" d="M584.7266,-220.1561C584.8854,-193.9504 585.3375,-119.3557 585.5529,-83.8021"/>
<polygon fill="#191970" stroke="#191970" points="589.0531,-83.7625 585.6139,-73.7414 582.0533,-83.72 589.0531,-83.7625"/>
</g>
    <!-- Node6 -->
<g id="node7" class="node">
<title>Node6</title>
<g id="a_node7"><a xlink:href="../../de/d0b/_window_8hpp.html" target="_top" xlink:title="gui/Window.hpp">
<polygon fill="none" stroke="#000000" points="623.3672,-165.5 623.3672,-183.5 709.9727,-183.5 709.9727,-165.5 623.3672,-165.5"/>
<text text-anchor="middle" x="666.6699" y="-171.5" font-family="Helvetica,sans-Serif" font-size="10.00" fill="#000000">gui/Window.hpp</text>
</a>
</g>
</g>
    <!-- Node1&#45;&gt;Node6 -->
<g id="edge6" class="edge">
<title>Node1&#45;&gt;Node6</title>
<path fill="none" stroke="#191970" d="M598.2106,-220.4179C610.7925,-211.9788 629.7595,-199.257 644.541,-189.3426"/>
<polygon fill="#191970" stroke="#191970" points="646.7539,-192.0727 653.1092,-183.5956 642.8546,-186.2593 646.7539,-192.0727"/>
</g>
    <!-- Node4 -->
<g id="node5" class="node">
<title>Node4</title>
<polygon fill="none" stroke="#bfbfbf" points="533.0542,-.5 533.0542,-18.5 576.2856,-18.5 576.2856,-.5 533.0542,-.5"/>
<text text-anchor="middle" x="554.6699" y="-6.5" font-family="Helvetica,sans-Serif" font-size="10.00" fill="#000000">mutex</text>
</g>
    <!-- Node3&#45;&gt;Node4 -->
<g id="edge4" class="edge">
<title>Node3&#45;&gt;Node4</title>
<path fill="none" stroke="#191970" d="M580.5509,-55.4179C576.3135,-47.8998 570.1603,-36.9829 564.9167,-27.6799"/>
<polygon fill="#191970" stroke="#191970" points="567.8594,-25.7724 559.9002,-18.7795 561.7613,-29.2096 567.8594,-25.7724"/>
</g>
    <!-- Node5 -->
<g id="node6" class="node">
<title>Node5</title>
<polygon fill="none" stroke="#bfbfbf" points="594.4927,-.5 594.4927,-18.5 638.8472,-18.5 638.8472,-.5 594.4927,-.5"/>
<text text-anchor="middle" x="616.6699" y="-6.5" font-family="Helvetica,sans-Serif" font-size="10.00" fill="#000000">thread</text>
</g>
    <!-- Node3&#45;&gt;Node5 -->
<g id="edge5" class="edge">
<title>Node3&#45;&gt;Node5</title>
<path fill="none" stroke="#191970" d="M590.7889,-55.4179C595.0264,-47.8998 601.1796,-36.9829 606.4231,-27.6799"/>
<polygon fill="#191970" stroke="#191970" points="609.5785,-29.2096 611.4397,-18.7795 603.4805,-25.7724 609.5785,-29.2096"/>
</g>
    <!-- Node7 -->
<g id="node8" class="node">
<title>Node7</title>
<g id="a_node8"><a xlink:href="../../d1/d25/_i_subject_8hpp.html" target="_top" xlink:title="../interfaces/ISubject.hpp">
<polygon fill="none" stroke="#000000" points="613.6382,-110.5 613.6382,-128.5 739.7017,-128.5 739.7017,-110.5 613.6382,-110.5"/>
<text text-anchor="middle" x="676.6699" y="-116.5" font-family="Helvetica,sans-Serif" font-size="10.00" fill="#000000">../interfaces/ISubject.hpp</text>
</a>
</g>
</g>
    <!-- Node6&#45;&gt;Node7 -->
<g id="edge7" class="edge">
<title>Node6&#45;&gt;Node7</title>
<path fill="none" stroke="#191970" d="M668.3212,-165.4179C669.6306,-158.2164 671.507,-147.8962 673.1493,-138.8632"/>
<polygon fill="#191970" stroke="#191970" points="676.6374,-139.2443 674.9827,-128.7795 669.7503,-137.992 676.6374,-139.2443"/>
</g>
    <!-- Node7&#45;&gt;Node3 -->
<g id="edge9" class="edge">
<title>Node7&#45;&gt;Node3</title>
<path fill="none" stroke="#191970" d="M661.6431,-110.4179C647.4168,-101.8195 625.8346,-88.7754 609.3041,-78.7844"/>
<polygon fill="#191970" stroke="#191970" points="611.0878,-75.7729 600.719,-73.5956 607.4669,-81.7637 611.0878,-75.7729"/>
</g>
    <!-- Node8 -->
<g id="node9" class="node">
<title>Node8</title>
<polygon fill="none" stroke="#bfbfbf" points="666,-55.5 666,-73.5 695.3398,-73.5 695.3398,-55.5 666,-55.5"/>
<text text-anchor="middle" x="680.6699" y="-61.5" font-family="Helvetica,sans-Serif" font-size="10.00" fill="#000000">set</text>
</g>
    <!-- Node7&#45;&gt;Node8 -->
<g id="edge8" class="edge">
<title>Node7&#45;&gt;Node8</title>
<path fill="none" stroke="#191970" d="M677.3304,-110.4179C677.8542,-103.2164 678.6047,-92.8962 679.2617,-83.8632"/>
<polygon fill="#191970" stroke="#191970" points="682.7604,-84.007 679.9951,-73.7795 675.7788,-83.4992 682.7604,-84.007"/>
</g>
    <!-- Node10 -->
<g id="node11" class="node">
<title>Node10</title>
<polygon fill="none" stroke="#bfbfbf" points="243.4434,-55.5 243.4434,-73.5 283.8965,-73.5 283.8965,-55.5 243.4434,-55.5"/>
<text text-anchor="middle" x="263.6699" y="-61.5" font-family="Helvetica,sans-Serif" font-size="10.00" fill="#000000">string</text>
</g>
    <!-- Node9&#45;&gt;Node10 -->
<g id="edge11" class="edge">
<title>Node9&#45;&gt;Node10</title>
<path fill="none" stroke="#191970" d="M101.2318,-220.2496C91.5097,-198.4918 71.1558,-143.3956 96.6699,-110 113.1864,-88.3815 189.8855,-74.582 233.3693,-68.3559"/>
<polygon fill="#191970" stroke="#191970" points="233.9689,-71.8064 243.3955,-66.9702 233.0105,-64.8723 233.9689,-71.8064"/>
</g>
    <!-- Node11 -->
<g id="node12" class="node">
<title>Node11</title>
<polygon fill="none" stroke="#bfbfbf" points="105.7661,-165.5 105.7661,-183.5 159.5737,-183.5 159.5737,-165.5 105.7661,-165.5"/>
<text text-anchor="middle" x="132.6699" y="-171.5" font-family="Helvetica,sans-Serif" font-size="10.00" fill="#000000">json.hpp</text>
</g>
    <!-- Node9&#45;&gt;Node11 -->
<g id="edge12" class="edge">
<title>Node9&#45;&gt;Node11</title>
<path fill="none" stroke="#191970" d="M110.1284,-220.4179C113.7803,-212.9789 119.0657,-202.2123 123.6008,-192.9742"/>
<polygon fill="#191970" stroke="#191970" points="126.8496,-194.2985 128.1146,-183.7795 120.5659,-191.2138 126.8496,-194.2985"/>
</g>
    <!-- Node12 -->
<g id="node13" class="node">
<title>Node12</title>
<polygon fill="none" stroke="#bfbfbf" points="0,-165.5 0,-183.5 49.3398,-183.5 49.3398,-165.5 0,-165.5"/>
<text text-anchor="middle" x="24.6699" y="-171.5" font-family="Helvetica,sans-Serif" font-size="10.00" fill="#000000">fstream</text>
</g>
    <!-- Node9&#45;&gt;Node12 -->
<g id="edge13" class="edge">
<title>Node9&#45;&gt;Node12</title>
<path fill="none" stroke="#191970" d="M92.2944,-220.4179C79.8659,-211.9788 61.1302,-199.257 46.529,-189.3426"/>
<polygon fill="#191970" stroke="#191970" points="48.3045,-186.3176 38.0653,-183.5956 44.3722,-192.1088 48.3045,-186.3176"/>
</g>
    <!-- Node13&#45;&gt;Node10 -->
<g id="edge16" class="edge">
<title>Node13&#45;&gt;Node10</title>
<path fill="none" stroke="#191970" d="M263.6699,-165.4982C263.6699,-147.6913 263.6699,-107.6225 263.6699,-83.6515"/>
<polygon fill="#191970" stroke="#191970" points="267.17,-83.6261 263.6699,-73.6261 260.17,-83.6262 267.17,-83.6261"/>
</g>
    <!-- Node14 -->
<g id="node15" class="node">
<title>Node14</title>
<polygon fill="none" stroke="#bfbfbf" points="106.0469,-110.5 106.0469,-128.5 159.293,-128.5 159.293,-110.5 106.0469,-110.5"/>
<text text-anchor="middle" x="132.6699" y="-116.5" font-family="Helvetica,sans-Serif" font-size="10.00" fill="#000000">sqlite3.h</text>
</g>
    <!-- Node13&#45;&gt;Node14 -->
<g id="edge15" class="edge">
<title>Node13&#45;&gt;Node14</title>
<path fill="none" stroke="#191970" d="M242.0379,-165.4179C220.705,-156.4613 187.882,-142.6806 163.7574,-132.552"/>
<polygon fill="#191970" stroke="#191970" points="164.9093,-129.2397 154.334,-128.5956 162.1995,-135.6939 164.9093,-129.2397"/>
</g>
    <!-- Node15 -->
<g id="node16" class="node">
<title>Node15</title>
<polygon fill="none" stroke="#bfbfbf" points="177.2686,-110.5 177.2686,-128.5 236.0713,-128.5 236.0713,-110.5 177.2686,-110.5"/>
<text text-anchor="middle" x="206.6699" y="-116.5" font-family="Helvetica,sans-Serif" font-size="10.00" fill="#000000">stdexcept</text>
</g>
    <!-- Node13&#45;&gt;Node15 -->
<g id="edge17" class="edge">
<title>Node13&#45;&gt;Node15</title>
<path fill="none" stroke="#191970" d="M254.2575,-165.4179C245.974,-157.425 233.709,-145.5903 223.7054,-135.9377"/>
<polygon fill="#191970" stroke="#191970" points="225.9133,-133.2045 216.2868,-128.7795 221.0527,-138.2419 225.9133,-133.2045"/>
</g>
    <!-- Node16 -->
<g id="node17" class="node">
<title>Node16</title>
<polygon fill="none" stroke="#bfbfbf" points="446.0542,-110.5 446.0542,-128.5 489.2856,-128.5 489.2856,-110.5 446.0542,-110.5"/>
<text text-anchor="middle" x="467.6699" y="-116.5" font-family="Helvetica,sans-Serif" font-size="10.00" fill="#000000">vector</text>
</g>
    <!-- Node13&#45;&gt;Node16 -->
<g id="edge18" class="edge">
<title>Node13&#45;&gt;Node16</title>
<path fill="none" stroke="#191970" d="M299.9017,-165.4221C332.9287,-157.0471 383.2887,-144.0279 436.1306,-129.07"/>
<polygon fill="#191970" stroke="#191970" points="437.3624,-132.3585 446.0226,-126.2551 435.4465,-125.6258 437.3624,-132.3585"/>
</g>
    <!-- Node17 -->
<g id="node18" class="node">
<title>Node17</title>
<g id="a_node18"><a xlink:href="../../d3/d1b/_i_serializable_8hpp.html" target="_top" xlink:title="interfaces/ISerializable.hpp">
<polygon fill="none" stroke="#000000" points="291.6357,-110.5 291.6357,-128.5 427.7041,-128.5 427.7041,-110.5 291.6357,-110.5"/>
<text text-anchor="middle" x="359.6699" y="-116.5" font-family="Helvetica,sans-Serif" font-size="10.00" fill="#000000">interfaces/ISerializable.hpp</text>
</a>
</g>
</g>
    <!-- Node13&#45;&gt;Node17 -->
<g id="edge19" class="edge">
<title>Node13&#45;&gt;Node17</title>
<path fill="none" stroke="#191970" d="M279.5224,-165.4179C294.5304,-156.8195 317.2983,-143.7754 334.7371,-133.7844"/>
<polygon fill="#191970" stroke="#191970" points="336.857,-136.6037 343.7939,-128.5956 333.3771,-130.5299 336.857,-136.6037"/>
</g>
    <!-- Node17&#45;&gt;Node10 -->
<g id="edge20" class="edge">
<title>Node17&#45;&gt;Node10</title>
<path fill="none" stroke="#191970" d="M343.8175,-110.4179C328.8095,-101.8195 306.0415,-88.7754 288.6027,-78.7844"/>
<polygon fill="#191970" stroke="#191970" points="289.9627,-75.5299 279.5459,-73.5956 286.4829,-81.6037 289.9627,-75.5299"/>
</g>
    <!-- Node18 -->
<g id="node19" class="node">
<title>Node18</title>
<polygon fill="none" stroke="#bfbfbf" points="341.9434,-55.5 341.9434,-73.5 377.3965,-73.5 377.3965,-55.5 341.9434,-55.5"/>
<text text-anchor="middle" x="359.6699" y="-61.5" font-family="Helvetica,sans-Serif" font-size="10.00" fill="#000000">map</text>
</g>
    <!-- Node17&#45;&gt;Node18 -->
<g id="edge21" class="edge">
<title>Node17&#45;&gt;Node18</title>
<path fill="none" stroke="#191970" d="M359.6699,-110.4179C359.6699,-103.2164 359.6699,-92.8962 359.6699,-83.8632"/>
<polygon fill="#191970" stroke="#191970" points="363.17,-83.7794 359.6699,-73.7795 356.17,-83.7795 363.17,-83.7794"/>
</g>
    <!-- Node19&#45;&gt;Node2 -->
<g id="edge23" class="edge">
<title>Node19&#45;&gt;Node2</title>
<path fill="none" stroke="#191970" d="M489.8074,-220.4179C492.3499,-213.0581 496.0176,-202.441 499.1859,-193.2695"/>
<polygon fill="#191970" stroke="#191970" points="502.5072,-194.3742 502.4643,-183.7795 495.8909,-192.0885 502.5072,-194.3742"/>
</g>
    <!-- Node20&#45;&gt;Node6 -->
<g id="edge25" class="edge">
<title>Node20&#45;&gt;Node6</title>
<path fill="none" stroke="#191970" d="M685.8719,-220.4179C682.7942,-213.0581 678.3544,-202.441 674.519,-193.2695"/>
<polygon fill="#191970" stroke="#191970" points="677.6376,-191.6549 670.5504,-183.7795 671.1795,-194.3556 677.6376,-191.6549"/>
</g>
    <!-- Node21&#45;&gt;Node7 -->
<g id="edge28" class="edge">
<title>Node21&#45;&gt;Node7</title>
<path fill="none" stroke="#191970" d="M357.586,-220.2874C361.0819,-205.9621 369.9318,-178.5846 388.6699,-165 422.0386,-140.8087 529.4862,-128.9832 603.2684,-123.5801"/>
<polygon fill="#191970" stroke="#191970" points="603.7169,-127.0572 613.4447,-122.8597 603.2225,-120.0747 603.7169,-127.0572"/>
</g>
    <!-- Node21&#45;&gt;Node13 -->
<g id="edge27" class="edge">
<title>Node21&#45;&gt;Node13</title>
<path fill="none" stroke="#191970" d="M340.478,-220.4179C326.0953,-211.8195 304.276,-198.7754 287.5639,-188.7844"/>
<polygon fill="#191970" stroke="#191970" points="289.2635,-185.7228 278.8844,-183.5956 285.6716,-191.731 289.2635,-185.7228"/>
</g>
    <!-- Node21&#45;&gt;Node16 -->
<g id="edge29" class="edge">
<title>Node21&#45;&gt;Node16</title>
<path fill="none" stroke="#191970" d="M352.694,-220.2423C348.9871,-206.8159 344.4147,-181.721 355.6699,-165 360.4551,-157.891 404.7214,-141.3332 436.1443,-130.2766"/>
<polygon fill="#191970" stroke="#191970" points="437.5393,-133.4969 445.829,-126.899 435.2341,-126.8873 437.5393,-133.4969"/>
</g>
    <!-- Node22 -->
<g id="node23" class="node">
<title>Node22</title>
<polygon fill="none" stroke="#bfbfbf" points="397.8276,-165.5 397.8276,-183.5 435.5122,-183.5 435.5122,-165.5 397.8276,-165.5"/>
<text text-anchor="middle" x="416.6699" y="-171.5" font-family="Helvetica,sans-Serif" font-size="10.00" fill="#000000">tuple</text>
</g>
    <!-- Node21&#45;&gt;Node22 -->
<g id="edge30" class="edge">
<title>Node21&#45;&gt;Node22</title>
<path fill="none" stroke="#191970" d="M365.7428,-220.4179C374.6954,-212.3458 387.9937,-200.3556 398.7562,-190.6517"/>
<polygon fill="#191970" stroke="#191970" points="401.295,-193.0753 406.3782,-183.7795 396.6075,-187.8764 401.295,-193.0753"/>
</g>
    <!-- Node23&#45;&gt;Node6 -->
<g id="edge34" class="edge">
<title>Node23&#45;&gt;Node6</title>
<path fill="none" stroke="#191970" d="M792.7353,-220.4179C767.7429,-211.3147 729.0693,-197.2283 701.1463,-187.0576"/>
<polygon fill="#191970" stroke="#191970" points="701.9846,-183.6381 691.3906,-183.5042 699.5888,-190.2153 701.9846,-183.6381"/>
</g>
    <!-- Node24 -->
<g id="node25" class="node">
<title>Node24</title>
<polygon fill="none" stroke="#bfbfbf" points="727.7168,-165.5 727.7168,-183.5 767.623,-183.5 767.623,-165.5 727.7168,-165.5"/>
<text text-anchor="middle" x="747.6699" y="-171.5" font-family="Helvetica,sans-Serif" font-size="10.00" fill="#000000">glib.h</text>
</g>
    <!-- Node23&#45;&gt;Node24 -->
<g id="edge32" class="edge">
<title>Node23&#45;&gt;Node24</title>
<path fill="none" stroke="#191970" d="M806.1108,-220.4179C795.6359,-212.1876 779.9767,-199.8839 767.5035,-190.0836"/>
<polygon fill="#191970" stroke="#191970" points="769.5057,-187.2056 759.4801,-183.7795 765.181,-192.7098 769.5057,-187.2056"/>
</g>
    <!-- Node25 -->
<g id="node26" class="node">
<title>Node25</title>
<polygon fill="none" stroke="#bfbfbf" points="785.6577,-165.5 785.6577,-183.5 871.6821,-183.5 871.6821,-165.5 785.6577,-165.5"/>
<text text-anchor="middle" x="828.6699" y="-171.5" font-family="Helvetica,sans-Serif" font-size="10.00" fill="#000000">gtkmm/widget.h</text>
</g>
    <!-- Node23&#45;&gt;Node25 -->
<g id="edge33" class="edge">
<title>Node23&#45;&gt;Node25</title>
<path fill="none" stroke="#191970" d="M819.4863,-220.4179C820.9266,-213.2164 822.9907,-202.8962 824.7973,-193.8632"/>
<polygon fill="#191970" stroke="#191970" points="828.2848,-194.2717 826.814,-183.7795 821.4208,-192.8988 828.2848,-194.2717"/>
</g>
    <!-- Node26 -->
<g id="node27" class="node">
<title>Node26</title>
<g id="a_node27"><a xlink:href="../../dc/de6/_dialog_8hpp.html" target="_top" xlink:title="Dialog.hpp">
<polygon fill="none" stroke="#000000" points="889.7637,-165.5 889.7637,-183.5 953.5762,-183.5 953.5762,-165.5 889.7637,-165.5"/>
<text text-anchor="middle" x="921.6699" y="-171.5" font-family="Helvetica,sans-Serif" font-size="10.00" fill="#000000">Dialog.hpp</text>
</a>
</g>
</g>
    <!-- Node23&#45;&gt;Node26 -->
<g id="edge35" class="edge">
<title>Node23&#45;&gt;Node26</title>
<path fill="none" stroke="#191970" d="M834.8434,-220.4179C851.3279,-211.7001 876.4542,-198.4122 895.4432,-188.3699"/>
<polygon fill="#191970" stroke="#191970" points="897.2672,-191.3646 904.4709,-183.5956 893.9947,-185.1767 897.2672,-191.3646"/>
</g>
    <!-- Node26&#45;&gt;Node7 -->
<g id="edge37" class="edge">
<title>Node26&#45;&gt;Node7</title>
<path fill="none" stroke="#191970" d="M889.4467,-167.0072C886.4801,-166.3254 883.5198,-165.648 880.6699,-165 828.5317,-153.1454 768.8282,-139.8633 727.5419,-130.7244"/>
<polygon fill="#191970" stroke="#191970" points="728.2395,-127.2942 717.7196,-128.5515 726.7275,-134.129 728.2395,-127.2942"/>
</g>
    <!-- Node27 -->
<g id="node28" class="node">
<title>Node27</title>
<polygon fill="none" stroke="#bfbfbf" points="873.0913,-110.5 873.0913,-128.5 970.2485,-128.5 970.2485,-110.5 873.0913,-110.5"/>
<text text-anchor="middle" x="921.6699" y="-116.5" font-family="Helvetica,sans-Serif" font-size="10.00" fill="#000000">sigc++/trackable.h</text>
</g>
    <!-- Node26&#45;&gt;Node27 -->
<g id="edge36" class="edge">
<title>Node26&#45;&gt;Node27</title>
<path fill="none" stroke="#191970" d="M921.6699,-165.4179C921.6699,-158.2164 921.6699,-147.8962 921.6699,-138.8632"/>
<polygon fill="#191970" stroke="#191970" points="925.17,-138.7794 921.6699,-128.7795 918.17,-138.7795 925.17,-138.7794"/>
</g>
</g>
</svg>
        <g id="navigator" transform="translate(0 0)" fill="#404254">
                <rect fill="#f2f5e9" fill-opacity="0.5" stroke="#606060" stroke-width=".5" x="0" y="0" width="60" height="60"/>
                <use id="zoomplus" xlink:href="#zoomPlus" x="17" y="9" onmousedown="handleZoom(evt,'in')"/>
                <use id="zoomminus" xlink:href="#zoomMin" x="42" y="9" onmousedown="handleZoom(evt,'out')"/>
                <use id="reset" xlink:href="#resetDef" x="30" y="36" onmousedown="handleReset()"/>
                <g id="arrowUp" xlink:href="#dirArrow" transform="translate(30 24)" onmousedown="handlePan(0,-1)">
                  <use xlink:href="#rim" fill="#404040">
                        <set attributeName="fill" to="#808080" begin="arrowUp.mouseover" end="arrowUp.mouseout"/>
                  </use>
                  <path fill="none" stroke="white" stroke-width="1.5" d="M0,-3.0v7 M-2.5,-0.5L0,-3.0L2.5,-0.5"/>
                </g>
                <g id="arrowRight" xlink:href="#dirArrow" transform="rotate(90) translate(36 -43)" onmousedown="handlePan(1,0)">
                  <use xlink:href="#rim" fill="#404040">
                        <set attributeName="fill" to="#808080" begin="arrowRight.mouseover" end="arrowRight.mouseout"/>
                  </use>
                  <path fill="none" stroke="white" stroke-width="1.5" d="M0,-3.0v7 M-2.5,-0.5L0,-3.0L2.5,-0.5"/>
                </g>
                <g id="arrowDown" xlink:href="#dirArrow" transform="rotate(180) translate(-30 -48)" onmousedown="handlePan(0,1)">
                  <use xlink:href="#rim" fill="#404040">
                        <set attributeName="fill" to="#808080" begin="arrowDown.mouseover" end="arrowDown.mouseout"/>
                  </use>
                  <path fill="none" stroke="white" stroke-width="1.5" d="M0,-3.0v7 M-2.5,-0.5L0,-3.0L2.5,-0.5"/>
                </g>
                <g id="arrowLeft" xlink:href="#dirArrow" transform="rotate(270) translate(-36 17)" onmousedown="handlePan(-1,0)">
                  <use xlink:href="#rim" fill="#404040">
                        <set attributeName="fill" to="#808080" begin="arrowLeft.mouseover" end="arrowLeft.mouseout"/>
                  </use>
                  <path fill="none" stroke="white" stroke-width="1.5" d="M0,-3.0v7 M-2.5,-0.5L0,-3.0L2.5,-0.5"/>
                </g>
        </g>
        <svg viewBox="0 0 15 15" width="100%" height="30px" preserveAspectRatio="xMaxYMin meet">
         <g id="arrow_out" transform="scale(0.3 0.3)">
          <a xlink:href="_med_h_8cpp__incl_org.svg" target="_base">
           <rect id="button" ry="5" rx="5" y="6" x="6" height="38" width="38"
                fill="#f2f5e9" fill-opacity="0.5" stroke="#606060" stroke-width="1.0"/>
           <path id="arrow"
             d="M 11.500037,31.436501 C 11.940474,20.09759 22.043105,11.32322 32.158766,21.979434 L 37.068811,17.246167 C 37.068811,17.246167 37.088388,32 37.088388,32 L 22.160133,31.978069 C 22.160133,31.978069 26.997745,27.140456 26.997745,27.140456 C 18.528582,18.264221 13.291696,25.230495 11.500037,31.436501 z"
             style="fill:#404040;"/>
          </a>
         </g>
        </svg>
</svg>
