<?xml version="1.0" encoding="UTF-8" standalone="no"?>
<!DOCTYPE svg PUBLIC "-//W3C//DTD SVG 1.1//EN"
        "http://www.w3.org/Graphics/SVG/1.1/DTD/svg11.dtd">
<!-- Generated by graphviz version 2.40.1 (20161225.0304)
 -->
<!-- Title: code/model/Drug.cpp Pages: 1 -->
<svg width="485pt" height="192pt"
     viewBox="0.00 0.00 484.76 192.00" xmlns="http://www.w3.org/2000/svg" xmlns:xlink="http://www.w3.org/1999/xlink">
    <g id="graph0" class="graph" transform="scale(1 1) rotate(0) translate(4 188)">
        <title>code/model/Drug.cpp</title>
        <!-- Node0 -->
        <g id="node1" class="node">
            <title>Node0</title>
            <polygon fill="#bfbfbf" stroke="#000000"
                     points="76.2539,-165.5 76.2539,-183.5 187.3076,-183.5 187.3076,-165.5 76.2539,-165.5"/>
            <text text-anchor="middle" x="131.7808" y="-171.5" font-family="Helvetica,sans-Serif" font-size="10.00"
                  fill="#000000">code/model/Drug.cpp
            </text>
        </g>
        <!-- Node1 -->
        <g id="node2" class="node">
            <title>Node1</title>
            <polygon fill="none" stroke="#bfbfbf" points="0,-110.5 0,-128.5 51.5615,-128.5 51.5615,-110.5 0,-110.5"/>
            <text text-anchor="middle" x="25.7808" y="-116.5" font-family="Helvetica,sans-Serif" font-size="10.00"
                  fill="#000000">sstream
            </text>
        </g>
        <!-- Node0&#45;&gt;Node1 -->
        <g id="edge1" class="edge">
            <title>Node0&#45;&gt;Node1</title>
            <path fill="none" stroke="#191970"
                  d="M114.277,-165.4179C97.3988,-156.6603 71.632,-143.2907 52.2471,-133.2326"/>
            <polygon fill="#191970" stroke="#191970"
                     points="53.7988,-130.0946 43.3105,-128.5956 50.5748,-136.308 53.7988,-130.0946"/>
        </g>
        <!-- Node2 -->
        <g id="node3" class="node">
            <title>Node2</title>
            <polygon fill="none" stroke="#bfbfbf"
                     points="69.6084,-110.5 69.6084,-128.5 123.9531,-128.5 123.9531,-110.5 69.6084,-110.5"/>
            <text text-anchor="middle" x="96.7808" y="-116.5" font-family="Helvetica,sans-Serif" font-size="10.00"
                  fill="#000000">iostream
            </text>
        </g>
        <!-- Node0&#45;&gt;Node2 -->
        <g id="edge2" class="edge">
            <title>Node0&#45;&gt;Node2</title>
            <path fill="none" stroke="#191970"
                  d="M126.0012,-165.4179C121.1666,-157.8207 114.1234,-146.7527 108.1632,-137.3866"/>
            <polygon fill="#191970" stroke="#191970"
                     points="111.0075,-135.337 102.6859,-128.7795 105.1019,-139.0952 111.0075,-135.337"/>
        </g>
        <!-- Node3 -->
        <g id="node4" class="node">
            <title>Node3</title>
            <polygon fill="none" stroke="#bfbfbf"
                     points="142.271,-110.5 142.271,-128.5 193.2905,-128.5 193.2905,-110.5 142.271,-110.5"/>
            <text text-anchor="middle" x="167.7808" y="-116.5" font-family="Helvetica,sans-Serif" font-size="10.00"
                  fill="#000000">iomanip
            </text>
        </g>
        <!-- Node0&#45;&gt;Node3 -->
        <g id="edge3" class="edge">
            <title>Node0&#45;&gt;Node3</title>
            <path fill="none" stroke="#191970"
                  d="M137.7254,-165.4179C142.6981,-157.8207 149.9427,-146.7527 156.0732,-137.3866"/>
            <polygon fill="#191970" stroke="#191970"
                     points="159.1588,-139.0633 161.7069,-128.7795 153.3018,-135.2297 159.1588,-139.0633"/>
        </g>
        <!-- Node4 -->
        <g id="node5" class="node">
            <title>Node4</title>
            <g id="a_node5">
                <a xlink:href="../../dd/df9/_drug_8hpp.html" target="_top" xlink:title="Drug.hpp">
                    <polygon fill="none" stroke="#000000"
                             points="211.2119,-110.5 211.2119,-128.5 268.3496,-128.5 268.3496,-110.5 211.2119,-110.5"/>
                    <text text-anchor="middle" x="239.7808" y="-116.5" font-family="Helvetica,sans-Serif"
                          font-size="10.00" fill="#000000">Drug.hpp
                    </text>
                </a>
            </g>
        </g>
        <!-- Node0&#45;&gt;Node4 -->
        <g id="edge4" class="edge">
            <title>Node0&#45;&gt;Node4</title>
            <path fill="none" stroke="#191970"
                  d="M149.6148,-165.4179C166.8114,-156.6603 193.0644,-143.2907 212.815,-133.2326"/>
            <polygon fill="#191970" stroke="#191970"
                     points="214.5976,-136.2526 221.9203,-128.5956 211.4209,-130.0148 214.5976,-136.2526"/>
        </g>
        <!-- Node5 -->
        <g id="node6" class="node">
            <title>Node5</title>
            <polygon fill="none" stroke="#bfbfbf"
                     points="164.5542,-.5 164.5542,-18.5 205.0073,-18.5 205.0073,-.5 164.5542,-.5"/>
            <text text-anchor="middle" x="184.7808" y="-6.5" font-family="Helvetica,sans-Serif" font-size="10.00"
                  fill="#000000">string
            </text>
        </g>
        <!-- Node4&#45;&gt;Node5 -->
        <g id="edge5" class="edge">
            <title>Node4&#45;&gt;Node5</title>
            <path fill="none" stroke="#191970"
                  d="M211.0469,-111.2975C170.3041,-99.5331 100.26,-78.7581 96.7808,-74 77.8331,-48.0875 122.5356,-28.2168 154.9205,-17.7443"/>
            <polygon fill="#191970" stroke="#191970"
                     points="155.9628,-21.0856 164.4915,-14.7997 153.9043,-14.3951 155.9628,-21.0856"/>
        </g>
        <!-- Node6 -->
        <g id="node7" class="node">
            <title>Node6</title>
            <polygon fill="none" stroke="#bfbfbf"
                     points="106.165,-55.5 106.165,-73.5 149.3965,-73.5 149.3965,-55.5 106.165,-55.5"/>
            <text text-anchor="middle" x="127.7808" y="-61.5" font-family="Helvetica,sans-Serif" font-size="10.00"
                  fill="#000000">vector
            </text>
        </g>
        <!-- Node4&#45;&gt;Node6 -->
        <g id="edge6" class="edge">
            <title>Node4&#45;&gt;Node6</title>
            <path fill="none" stroke="#191970"
                  d="M221.2862,-110.4179C203.3716,-101.6205 175.9797,-88.1691 155.4664,-78.0956"/>
            <polygon fill="#191970" stroke="#191970"
                     points="156.8217,-74.8619 146.3028,-73.5956 153.7361,-81.1452 156.8217,-74.8619"/>
        </g>
        <!-- Node7 -->
        <g id="node8" class="node">
            <title>Node7</title>
            <polygon fill="none" stroke="#bfbfbf"
                     points="276.0542,-.5 276.0542,-18.5 311.5073,-18.5 311.5073,-.5 276.0542,-.5"/>
            <text text-anchor="middle" x="293.7808" y="-6.5" font-family="Helvetica,sans-Serif" font-size="10.00"
                  fill="#000000">map
            </text>
        </g>
        <!-- Node4&#45;&gt;Node7 -->
        <g id="edge7" class="edge">
            <title>Node4&#45;&gt;Node7</title>
            <path fill="none" stroke="#191970"
                  d="M268.3783,-118.2881C324.7903,-115.2342 447.1678,-105.0984 472.7808,-74 478.1493,-67.4817 477.9645,-61.6662 472.7808,-55 454.3762,-31.332 367.3411,-17.9628 321.7657,-12.4758"/>
            <polygon fill="#191970" stroke="#191970"
                     points="321.9967,-8.9792 311.6607,-11.3069 321.1922,-15.9329 321.9967,-8.9792"/>
        </g>
        <!-- Node8 -->
        <g id="node9" class="node">
            <title>Node8</title>
            <polygon fill="none" stroke="#bfbfbf"
                     points="329.8696,-55.5 329.8696,-73.5 463.6919,-73.5 463.6919,-55.5 329.8696,-55.5"/>
            <text text-anchor="middle" x="396.7808" y="-61.5" font-family="Helvetica,sans-Serif" font-size="10.00"
                  fill="#000000">gtkmm/treemodelcolumn.h
            </text>
        </g>
        <!-- Node4&#45;&gt;Node8 -->
        <g id="edge8" class="edge">
            <title>Node4&#45;&gt;Node8</title>
            <path fill="none" stroke="#191970"
                  d="M265.7061,-110.4179C291.8056,-101.2748 332.2549,-87.1046 361.3158,-76.924"/>
            <polygon fill="#191970" stroke="#191970"
                     points="362.7974,-80.1136 371.0778,-73.5042 360.483,-73.5073 362.7974,-80.1136"/>
        </g>
        <!-- Node9 -->
        <g id="node10" class="node">
            <title>Node9</title>
            <g id="a_node10">
                <a xlink:href="../../d3/d1b/_i_serializable_8hpp.html" target="_top"
                   xlink:title="../interfaces/ISerializable.hpp">
                    <polygon fill="none" stroke="#000000"
                             points="167.5791,-55.5 167.5791,-73.5 311.9824,-73.5 311.9824,-55.5 167.5791,-55.5"/>
                    <text text-anchor="middle" x="239.7808" y="-61.5" font-family="Helvetica,sans-Serif"
                          font-size="10.00" fill="#000000">../interfaces/ISerializable.hpp
                    </text>
                </a>
            </g>
        </g>
        <!-- Node4&#45;&gt;Node9 -->
        <g id="edge9" class="edge">
            <title>Node4&#45;&gt;Node9</title>
            <path fill="none" stroke="#191970"
                  d="M239.7808,-110.4179C239.7808,-103.2164 239.7808,-92.8962 239.7808,-83.8632"/>
            <polygon fill="#191970" stroke="#191970"
                     points="243.2809,-83.7794 239.7808,-73.7795 236.2809,-83.7795 243.2809,-83.7794"/>
        </g>
        <!-- Node9&#45;&gt;Node5 -->
        <g id="edge10" class="edge">
            <title>Node9&#45;&gt;Node5</title>
            <path fill="none" stroke="#191970"
                  d="M230.6986,-55.4179C222.7057,-47.425 210.8711,-35.5903 201.2185,-25.9377"/>
            <polygon fill="#191970" stroke="#191970"
                     points="203.6062,-23.3757 194.0602,-18.7795 198.6564,-28.3254 203.6062,-23.3757"/>
        </g>
        <!-- Node9&#45;&gt;Node7 -->
        <g id="edge11" class="edge">
            <title>Node9&#45;&gt;Node7</title>
            <path fill="none" stroke="#191970"
                  d="M248.6978,-55.4179C256.5453,-47.425 268.1648,-35.5903 277.6419,-25.9377"/>
            <polygon fill="#191970" stroke="#191970"
                     points="280.1616,-28.3672 284.67,-18.7795 275.1666,-23.463 280.1616,-28.3672"/>
        </g>
    </g>
</svg>
