<?xml version="1.0" encoding="UTF-8" standalone="no"?>
<!DOCTYPE svg PUBLIC "-//W3C//DTD SVG 1.1//EN"
        "http://www.w3.org/Graphics/SVG/1.1/DTD/svg11.dtd">
<!-- Generated by graphviz version 2.40.1 (20161225.0304)
 -->
<!-- Title: code/model/Drug.cpp Pages: 1 -->
<svg width="586pt" height="192pt"
     viewBox="0.00 0.00 586.45 192.00" xmlns="http://www.w3.org/2000/svg" xmlns:xlink="http://www.w3.org/1999/xlink">
    <g id="graph0" class="graph" transform="scale(1 1) rotate(0) translate(4 188)">
        <title>code/model/Drug.cpp</title>
        <!-- Node0 -->
        <g id="node1" class="node">
            <title>Node0</title>
            <polygon fill="#bfbfbf" stroke="#000000"
                     points="160.6455,-165.5 160.6455,-183.5 271.6992,-183.5 271.6992,-165.5 160.6455,-165.5"/>
            <text text-anchor="middle" x="216.1724" y="-171.5" font-family="Helvetica,sans-Serif" font-size="10.00"
                  fill="#000000">code/model/Drug.cpp
            </text>
        </g>
        <!-- Node1 -->
        <g id="node2" class="node">
            <title>Node1</title>
            <polygon fill="none" stroke="#bfbfbf"
                     points="108.3916,-110.5 108.3916,-128.5 159.9531,-128.5 159.9531,-110.5 108.3916,-110.5"/>
            <text text-anchor="middle" x="134.1724" y="-116.5" font-family="Helvetica,sans-Serif" font-size="10.00"
                  fill="#000000">sstream
            </text>
        </g>
        <!-- Node0&#45;&gt;Node1 -->
        <g id="edge1" class="edge">
            <title>Node0&#45;&gt;Node1</title>
            <path fill="none" stroke="#191970"
                  d="M202.6317,-165.4179C190.0498,-156.9788 171.0828,-144.257 156.3013,-134.3426"/>
            <polygon fill="#191970" stroke="#191970"
                     points="157.9877,-131.2593 147.7331,-128.5956 154.0884,-137.0727 157.9877,-131.2593"/>
        </g>
        <!-- Node2 -->
        <g id="node3" class="node">
            <title>Node2</title>
            <polygon fill="none" stroke="#bfbfbf" points="0,-55.5 0,-73.5 54.3447,-73.5 54.3447,-55.5 0,-55.5"/>
            <text text-anchor="middle" x="27.1724" y="-61.5" font-family="Helvetica,sans-Serif" font-size="10.00"
                  fill="#000000">iostream
            </text>
        </g>
        <!-- Node0&#45;&gt;Node2 -->
        <g id="edge2" class="edge">
            <title>Node0&#45;&gt;Node2</title>
            <path fill="none" stroke="#191970"
                  d="M211.7853,-165.149C204.7454,-151.1371 189.6138,-124.7663 169.1724,-110 138.0114,-87.4902 95.2235,-75.7852 64.7812,-69.924"/>
            <polygon fill="#191970" stroke="#191970"
                     points="65.0294,-66.4125 54.5676,-68.0863 63.7898,-73.3019 65.0294,-66.4125"/>
        </g>
        <!-- Node3 -->
        <g id="node4" class="node">
            <title>Node3</title>
            <polygon fill="none" stroke="#bfbfbf"
                     points="291.6626,-110.5 291.6626,-128.5 342.6821,-128.5 342.6821,-110.5 291.6626,-110.5"/>
            <text text-anchor="middle" x="317.1724" y="-116.5" font-family="Helvetica,sans-Serif" font-size="10.00"
                  fill="#000000">iomanip
            </text>
        </g>
        <!-- Node0&#45;&gt;Node3 -->
        <g id="edge3" class="edge">
            <title>Node0&#45;&gt;Node3</title>
            <path fill="none" stroke="#191970"
                  d="M232.8505,-165.4179C248.7863,-156.7399 273.0382,-143.5334 291.4492,-133.5077"/>
            <polygon fill="#191970" stroke="#191970"
                     points="293.3611,-136.4519 300.4695,-128.5956 290.0133,-130.3043 293.3611,-136.4519"/>
        </g>
        <!-- Node4 -->
        <g id="node5" class="node">
            <title>Node4</title>
            <g id="a_node5">
                <a xlink:href="../../dd/df9/_drug_8hpp.html" target="_top" xlink:title="Drug.hpp">
                    <polygon fill="none" stroke="#000000"
                             points="216.6035,-110.5 216.6035,-128.5 273.7412,-128.5 273.7412,-110.5 216.6035,-110.5"/>
                    <text text-anchor="middle" x="245.1724" y="-116.5" font-family="Helvetica,sans-Serif"
                          font-size="10.00" fill="#000000">Drug.hpp
                    </text>
                </a>
            </g>
        </g>
        <!-- Node0&#45;&gt;Node4 -->
        <g id="edge4" class="edge">
            <title>Node0&#45;&gt;Node4</title>
            <path fill="none" stroke="#191970"
                  d="M220.9611,-165.4179C224.9252,-157.8998 230.6814,-146.9829 235.5866,-137.6799"/>
            <polygon fill="#191970" stroke="#191970"
                     points="238.7114,-139.2576 240.2796,-128.7795 232.5194,-135.9927 238.7114,-139.2576"/>
        </g>
        <!-- Node4&#45;&gt;Node2 -->
        <g id="edge10" class="edge">
            <title>Node4&#45;&gt;Node2</title>
            <path fill="none" stroke="#191970"
                  d="M216.2236,-112.1964C177.0866,-102.3224 107.263,-84.7064 64.305,-73.8683"/>
            <polygon fill="#191970" stroke="#191970"
                     points="65.0734,-70.4526 54.521,-71.3999 63.361,-77.2399 65.0734,-70.4526"/>
        </g>
        <!-- Node5 -->
        <g id="node6" class="node">
            <title>Node5</title>
            <polygon fill="none" stroke="#bfbfbf"
                     points="207.9458,-.5 207.9458,-18.5 248.3989,-18.5 248.3989,-.5 207.9458,-.5"/>
            <text text-anchor="middle" x="228.1724" y="-6.5" font-family="Helvetica,sans-Serif" font-size="10.00"
                  fill="#000000">string
            </text>
        </g>
        <!-- Node4&#45;&gt;Node5 -->
        <g id="edge5" class="edge">
            <title>Node4&#45;&gt;Node5</title>
            <path fill="none" stroke="#191970"
                  d="M216.4775,-112.3669C176.5043,-102.1451 108.1459,-83.5168 101.1724,-74 74.1875,-37.1736 152.1746,-19.9179 197.7631,-13.1581"/>
            <polygon fill="#191970" stroke="#191970"
                     points="198.3403,-16.6116 207.7617,-11.7652 197.3744,-9.6785 198.3403,-16.6116"/>
        </g>
        <!-- Node6 -->
        <g id="node7" class="node">
            <title>Node6</title>
            <polygon fill="none" stroke="#bfbfbf"
                     points="391.5566,-.5 391.5566,-18.5 434.7881,-18.5 434.7881,-.5 391.5566,-.5"/>
            <text text-anchor="middle" x="413.1724" y="-6.5" font-family="Helvetica,sans-Serif" font-size="10.00"
                  fill="#000000">vector
            </text>
        </g>
        <!-- Node4&#45;&gt;Node6 -->
        <g id="edge6" class="edge">
            <title>Node4&#45;&gt;Node6</title>
            <path fill="none" stroke="#191970"
                  d="M273.8087,-111.7236C306.5438,-102.4255 357.613,-86.5466 373.1724,-74 388.1942,-61.8868 399.1197,-42.5236 405.7195,-28.1701"/>
            <polygon fill="#191970" stroke="#191970"
                     points="409.0226,-29.3484 409.7573,-18.7791 402.5918,-26.5834 409.0226,-29.3484"/>
        </g>
        <!-- Node7 -->
        <g id="node8" class="node">
            <title>Node7</title>
            <polygon fill="none" stroke="#bfbfbf"
                     points="524.4458,-.5 524.4458,-18.5 559.8989,-18.5 559.8989,-.5 524.4458,-.5"/>
            <text text-anchor="middle" x="542.1724" y="-6.5" font-family="Helvetica,sans-Serif" font-size="10.00"
                  fill="#000000">map
            </text>
        </g>
        <!-- Node4&#45;&gt;Node7 -->
        <g id="edge7" class="edge">
            <title>Node4&#45;&gt;Node7</title>
            <path fill="none" stroke="#191970"
                  d="M273.7741,-111.77C276.6009,-111.1224 279.4356,-110.5184 282.1724,-110 346.1935,-97.8728 530.0186,-122.8214 573.1724,-74 585.5533,-59.9931 572.6703,-40.1689 559.9449,-26.2048"/>
            <polygon fill="#191970" stroke="#191970"
                     points="562.1537,-23.4571 552.6627,-18.7484 557.1458,-28.3481 562.1537,-23.4571"/>
        </g>
        <!-- Node8 -->
        <g id="node9" class="node">
            <title>Node8</title>
            <polygon fill="none" stroke="#bfbfbf"
                     points="110.2612,-55.5 110.2612,-73.5 244.0835,-73.5 244.0835,-55.5 110.2612,-55.5"/>
            <text text-anchor="middle" x="177.1724" y="-61.5" font-family="Helvetica,sans-Serif" font-size="10.00"
                  fill="#000000">gtkmm/treemodelcolumn.h
            </text>
        </g>
        <!-- Node4&#45;&gt;Node8 -->
        <g id="edge8" class="edge">
            <title>Node4&#45;&gt;Node8</title>
            <path fill="none" stroke="#191970"
                  d="M233.9435,-110.4179C223.7679,-102.1876 208.5561,-89.8839 196.4393,-80.0836"/>
            <polygon fill="#191970" stroke="#191970"
                     points="198.6213,-77.3469 188.6451,-73.7795 194.2192,-82.7895 198.6213,-77.3469"/>
        </g>
        <!-- Node9 -->
        <g id="node10" class="node">
            <title>Node9</title>
            <polygon fill="none" stroke="#bfbfbf"
                     points="262.3794,-55.5 262.3794,-73.5 363.9653,-73.5 363.9653,-55.5 262.3794,-55.5"/>
            <text text-anchor="middle" x="313.1724" y="-61.5" font-family="Helvetica,sans-Serif" font-size="10.00"
                  fill="#000000">gtkmm/treemodel.h
            </text>
        </g>
        <!-- Node4&#45;&gt;Node9 -->
        <g id="edge9" class="edge">
            <title>Node4&#45;&gt;Node9</title>
            <path fill="none" stroke="#191970"
                  d="M256.4012,-110.4179C266.5768,-102.1876 281.7886,-89.8839 293.9054,-80.0836"/>
            <polygon fill="#191970" stroke="#191970"
                     points="296.1255,-82.7895 301.6996,-73.7795 291.7234,-77.3469 296.1255,-82.7895"/>
        </g>
        <!-- Node10 -->
        <g id="node11" class="node">
            <title>Node10</title>
            <g id="a_node11">
                <a xlink:href="../../d3/d1b/_i_serializable_8hpp.html" target="_top"
                   xlink:title="../interfaces/ISerializable.hpp">
                    <polygon fill="none" stroke="#000000"
                             points="419.9707,-55.5 419.9707,-73.5 564.374,-73.5 564.374,-55.5 419.9707,-55.5"/>
                    <text text-anchor="middle" x="492.1724" y="-61.5" font-family="Helvetica,sans-Serif"
                          font-size="10.00" fill="#000000">../interfaces/ISerializable.hpp
                    </text>
                </a>
            </g>
        </g>
        <!-- Node4&#45;&gt;Node10 -->
        <g id="edge11" class="edge">
            <title>Node4&#45;&gt;Node10</title>
            <path fill="none" stroke="#191970"
                  d="M273.829,-112.0278C276.6447,-111.328 279.4618,-110.6414 282.1724,-110 335.1043,-97.4752 395.8658,-84.4571 438.366,-75.571"/>
            <polygon fill="#191970" stroke="#191970"
                     points="439.1471,-78.9835 448.222,-73.5158 437.7181,-72.1309 439.1471,-78.9835"/>
        </g>
        <!-- Node10&#45;&gt;Node5 -->
        <g id="edge12" class="edge">
            <title>Node10&#45;&gt;Node5</title>
            <path fill="none" stroke="#191970"
                  d="M448.8738,-55.4795C395.1553,-44.2881 304.9589,-25.4972 258.2459,-15.7653"/>
            <polygon fill="#191970" stroke="#191970"
                     points="258.9316,-12.3331 248.4279,-13.7199 257.5039,-19.186 258.9316,-12.3331"/>
        </g>
        <!-- Node10&#45;&gt;Node6 -->
        <g id="edge14" class="edge">
            <title>Node10&#45;&gt;Node6</title>
            <path fill="none" stroke="#191970"
                  d="M479.1271,-55.4179C467.0055,-46.9788 448.7324,-34.257 434.4917,-24.3426"/>
            <polygon fill="#191970" stroke="#191970"
                     points="436.4437,-21.4369 426.237,-18.5956 432.4441,-27.1818 436.4437,-21.4369"/>
        </g>
        <!-- Node10&#45;&gt;Node7 -->
        <g id="edge13" class="edge">
            <title>Node10&#45;&gt;Node7</title>
            <path fill="none" stroke="#191970"
                  d="M500.4288,-55.4179C507.6232,-47.5041 518.2412,-35.8243 526.9677,-26.2251"/>
            <polygon fill="#191970" stroke="#191970"
                     points="529.5995,-28.5332 533.7365,-18.7795 524.4199,-23.8245 529.5995,-28.5332"/>
        </g>
    </g>
</svg>
