<?xml version="1.0" encoding="UTF-8" standalone="no"?>
<!DOCTYPE svg PUBLIC "-//W3C//DTD SVG 1.1//EN"
        "http://www.w3.org/Graphics/SVG/1.1/DTD/svg11.dtd">
<!-- Generated by graphviz version 2.40.1 (20161225.0304)
 -->
<!-- Title: code/model/Prescription.hpp Pages: 1 -->
<svg width="1235pt" height="267pt"
     viewBox="0.00 0.00 1235.03 267.00" xmlns="http://www.w3.org/2000/svg" xmlns:xlink="http://www.w3.org/1999/xlink">
    <g id="graph0" class="graph" transform="scale(1 1) rotate(0) translate(4 263)">
        <title>code/model/Prescription.hpp</title>
        <!-- Node9 -->
        <g id="node1" class="node">
            <title>Node9</title>
            <polygon fill="#bfbfbf" stroke="#000000"
                     points="765.0122,-240.5 765.0122,-258.5 907.7505,-258.5 907.7505,-240.5 765.0122,-240.5"/>
            <text text-anchor="middle" x="836.3813" y="-246.5" font-family="Helvetica,sans-Serif" font-size="10.00"
                  fill="#000000">code/model/Prescription.hpp
            </text>
        </g>
        <!-- Node10 -->
        <g id="node2" class="node">
            <title>Node10</title>
            <g id="a_node2">
                <a xlink:href="../../d0/da9/_patient_8hpp.html" target="_top" xlink:title="code/model/Patient.hpp">
                    <polygon fill="none" stroke="#000000"
                             points="470.8447,-185.5 470.8447,-203.5 591.918,-203.5 591.918,-185.5 470.8447,-185.5"/>
                    <text text-anchor="middle" x="531.3813" y="-191.5" font-family="Helvetica,sans-Serif"
                          font-size="10.00" fill="#000000">code/model/Patient.hpp
                    </text>
                </a>
            </g>
        </g>
        <!-- Node9&#45;&gt;Node10 -->
        <g id="edge1" class="edge">
            <title>Node9&#45;&gt;Node10</title>
            <path fill="none" stroke="#191970"
                  d="M776.4134,-238.6861C719.4697,-228.4176 634.8504,-213.1584 581.4317,-203.5255"/>
            <polygon fill="#191970" stroke="#191970"
                     points="775.8959,-242.1492 786.3583,-240.4795 777.1382,-235.2603 775.8959,-242.1492"/>
        </g>
        <!-- Node12 -->
        <g id="node4" class="node">
            <title>Node12</title>
            <g id="a_node4">
                <a xlink:href="../../d5/d46/_custom_widgets_8hpp.html" target="_top"
                   xlink:title="code/gui/view/CustomWidgets.hpp">
                    <polygon fill="none" stroke="#000000"
                             points="527.6772,-130.5 527.6772,-148.5 697.0854,-148.5 697.0854,-130.5 527.6772,-130.5"/>
                    <text text-anchor="middle" x="612.3813" y="-136.5" font-family="Helvetica,sans-Serif"
                          font-size="10.00" fill="#000000">code/gui/view/CustomWidgets.hpp
                    </text>
                </a>
            </g>
        </g>
        <!-- Node9&#45;&gt;Node12 -->
        <g id="edge21" class="edge">
            <title>Node9&#45;&gt;Node12</title>
            <path fill="none" stroke="#191970"
                  d="M808.9133,-236.0112C762.656,-213.2956 670.4074,-167.995 630.9655,-148.6261"/>
            <polygon fill="#191970" stroke="#191970"
                     points="807.5316,-239.2319 818.0505,-240.4982 810.6172,-232.9486 807.5316,-239.2319"/>
        </g>
        <!-- Node21 -->
        <g id="node13" class="node">
            <title>Node21</title>
            <g id="a_node13">
                <a xlink:href="../../dd/dc5/_doctor_8hpp.html" target="_top" xlink:title="code/model/Doctor.hpp">
                    <polygon fill="none" stroke="#000000"
                             points="776.958,-130.5 776.958,-148.5 895.8047,-148.5 895.8047,-130.5 776.958,-130.5"/>
                    <text text-anchor="middle" x="836.3813" y="-136.5" font-family="Helvetica,sans-Serif"
                          font-size="10.00" fill="#000000">code/model/Doctor.hpp
                    </text>
                </a>
            </g>
        </g>
        <!-- Node9&#45;&gt;Node21 -->
        <g id="edge22" class="edge">
            <title>Node9&#45;&gt;Node21</title>
            <path fill="none" stroke="#191970"
                  d="M836.3813,-230.1899C836.3813,-206.2569 836.3813,-166.4552 836.3813,-148.6261"/>
            <polygon fill="#191970" stroke="#191970"
                     points="832.8814,-230.4982 836.3813,-240.4982 839.8814,-230.4983 832.8814,-230.4982"/>
        </g>
        <!-- Node22 -->
        <g id="node14" class="node">
            <title>Node22</title>
            <g id="a_node14">
                <a xlink:href="../../d1/d16/_prescription_window_8cpp.html" target="_top"
                   xlink:title="code/gui/PrescriptionWindow.cpp">
                    <polygon fill="none" stroke="#000000"
                             points="1063.729,-70.5 1063.729,-88.5 1227.0337,-88.5 1227.0337,-70.5 1063.729,-70.5"/>
                    <text text-anchor="middle" x="1145.3813" y="-76.5" font-family="Helvetica,sans-Serif"
                          font-size="10.00" fill="#000000">code/gui/PrescriptionWindow.cpp
                    </text>
                </a>
            </g>
        </g>
        <!-- Node9&#45;&gt;Node22 -->
        <g id="edge23" class="edge">
            <title>Node9&#45;&gt;Node22</title>
            <path fill="none" stroke="#191970"
                  d="M859.2528,-234.9688C880.5436,-221.5894 913.2785,-201.3923 942.3813,-185 1009.3447,-147.2826 1091.0569,-106.3087 1126.9642,-88.55"/>
            <polygon fill="#191970" stroke="#191970"
                     points="857.1919,-232.1306 850.6015,-240.4263 860.9267,-238.0511 857.1919,-232.1306"/>
        </g>
        <!-- Node25 -->
        <g id="node17" class="node">
            <title>Node25</title>
            <g id="a_node17">
                <a xlink:href="../../d5/db1/_prescription_8cpp.html" target="_top"
                   xlink:title="code/model/Prescription.cpp">
                    <polygon fill="none" stroke="#000000"
                             points="951.293,-185.5 951.293,-203.5 1093.4697,-203.5 1093.4697,-185.5 951.293,-185.5"/>
                    <text text-anchor="middle" x="1022.3813" y="-191.5" font-family="Helvetica,sans-Serif"
                          font-size="10.00" fill="#000000">code/model/Prescription.cpp
                    </text>
                </a>
            </g>
        </g>
        <!-- Node9&#45;&gt;Node25 -->
        <g id="edge24" class="edge">
            <title>Node9&#45;&gt;Node25</title>
            <path fill="none" stroke="#191970"
                  d="M876.8957,-237.52C911.5178,-227.2822 960.569,-212.7779 991.9307,-203.5042"/>
            <polygon fill="#191970" stroke="#191970"
                     points="875.6925,-234.2258 867.0955,-240.4179 877.6775,-240.9385 875.6925,-234.2258"/>
        </g>
        <!-- Node11 -->
        <g id="node3" class="node">
            <title>Node11</title>
            <g id="a_node3">
                <a xlink:href="../../db/db5/_add_patient_dialog_8cpp.html" target="_top"
                   xlink:title="code/gui/AddPatientDialog.cpp">
                    <polygon fill="none" stroke="#000000"
                             points="0,-130.5 0,-148.5 152.7627,-148.5 152.7627,-130.5 0,-130.5"/>
                    <text text-anchor="middle" x="76.3813" y="-136.5" font-family="Helvetica,sans-Serif"
                          font-size="10.00" fill="#000000">code/gui/AddPatientDialog.cpp
                    </text>
                </a>
            </g>
        </g>
        <!-- Node10&#45;&gt;Node11 -->
        <g id="edge2" class="edge">
            <title>Node10&#45;&gt;Node11</title>
            <path fill="none" stroke="#191970"
                  d="M460.509,-185.933C376.3435,-175.7592 236.5981,-158.8669 150.8752,-148.5048"/>
            <polygon fill="#191970" stroke="#191970"
                     points="460.1424,-189.4141 470.4901,-187.1395 460.9825,-182.4647 460.1424,-189.4141"/>
        </g>
        <!-- Node10&#45;&gt;Node12 -->
        <g id="edge3" class="edge">
            <title>Node10&#45;&gt;Node12</title>
            <path fill="none" stroke="#191970"
                  d="M553.2171,-179.6733C567.8139,-169.7619 586.5508,-157.0393 598.986,-148.5956"/>
            <polygon fill="#191970" stroke="#191970"
                     points="551.0638,-176.9047 544.7569,-185.4179 554.9961,-182.6959 551.0638,-176.9047"/>
        </g>
        <!-- Node14 -->
        <g id="node6" class="node">
            <title>Node14</title>
            <g id="a_node6">
                <a xlink:href="../../df/de8/_add_prescription_dialog_8cpp.html" target="_top"
                   xlink:title="code/gui/AddPrescription\lDialog.cpp">
                    <polygon fill="none" stroke="#000000"
                             points="162.793,-.5 162.793,-28.5 289.9697,-28.5 289.9697,-.5 162.793,-.5"/>
                    <text text-anchor="start" x="170.793" y="-16.5" font-family="Helvetica,sans-Serif" font-size="10.00"
                          fill="#000000">code/gui/AddPrescription
                    </text>
                    <text text-anchor="middle" x="226.3813" y="-6.5" font-family="Helvetica,sans-Serif"
                          font-size="10.00" fill="#000000">Dialog.cpp
                    </text>
                </a>
            </g>
        </g>
        <!-- Node10&#45;&gt;Node14 -->
        <g id="edge14" class="edge">
            <title>Node10&#45;&gt;Node14</title>
            <path fill="none" stroke="#191970"
                  d="M463.937,-183.7188C376.3724,-168.1854 230.9779,-136.6242 199.3813,-94 184.6248,-74.0932 201.3732,-45.5673 214.2914,-28.648"/>
            <polygon fill="#191970" stroke="#191970"
                     points="463.3401,-187.1674 473.7936,-185.443 464.5463,-180.2721 463.3401,-187.1674"/>
        </g>
        <!-- Node10&#45;&gt;Node21 -->
        <g id="edge15" class="edge">
            <title>Node10&#45;&gt;Node21</title>
            <path fill="none" stroke="#191970"
                  d="M591.3493,-183.6861C648.293,-173.4176 732.9123,-158.1584 786.331,-148.5255"/>
            <polygon fill="#191970" stroke="#191970"
                     points="590.6245,-180.2603 581.4044,-185.4795 591.8668,-187.1492 590.6245,-180.2603"/>
        </g>
        <!-- Node24 -->
        <g id="node16" class="node">
            <title>Node24</title>
            <g id="a_node16">
                <a xlink:href="../../d0/d77/_patient_8cpp.html" target="_top" xlink:title="code/model/Patient.cpp">
                    <polygon fill="none" stroke="#000000"
                             points="389.1255,-130.5 389.1255,-148.5 509.6372,-148.5 509.6372,-130.5 389.1255,-130.5"/>
                    <text text-anchor="middle" x="449.3813" y="-136.5" font-family="Helvetica,sans-Serif"
                          font-size="10.00" fill="#000000">code/model/Patient.cpp
                    </text>
                </a>
            </g>
        </g>
        <!-- Node10&#45;&gt;Node24 -->
        <g id="edge20" class="edge">
            <title>Node10&#45;&gt;Node24</title>
            <path fill="none" stroke="#191970"
                  d="M509.2761,-179.6733C494.499,-169.7619 475.5308,-157.0393 462.9421,-148.5956"/>
            <polygon fill="#191970" stroke="#191970"
                     points="507.5862,-182.7542 517.8407,-185.4179 511.4854,-176.9408 507.5862,-182.7542"/>
        </g>
        <!-- Node13 -->
        <g id="node5" class="node">
            <title>Node13</title>
            <g id="a_node5">
                <a xlink:href="../../d0/d1e/_add_prescription_dialog_8hpp.html" target="_top"
                   xlink:title="code/gui/AddPrescription\lDialog.hpp">
                    <polygon fill="none" stroke="#000000"
                             points="208.793,-65.5 208.793,-93.5 335.9697,-93.5 335.9697,-65.5 208.793,-65.5"/>
                    <text text-anchor="start" x="216.793" y="-81.5" font-family="Helvetica,sans-Serif" font-size="10.00"
                          fill="#000000">code/gui/AddPrescription
                    </text>
                    <text text-anchor="middle" x="272.3813" y="-71.5" font-family="Helvetica,sans-Serif"
                          font-size="10.00" fill="#000000">Dialog.hpp
                    </text>
                </a>
            </g>
        </g>
        <!-- Node12&#45;&gt;Node13 -->
        <g id="edge4" class="edge">
            <title>Node12&#45;&gt;Node13</title>
            <path fill="none" stroke="#191970"
                  d="M546.6752,-128.8159C492.5761,-119.896 413.9115,-106.6428 345.3813,-94 342.3317,-93.4374 339.2123,-92.8528 336.063,-92.2554"/>
            <polygon fill="#191970" stroke="#191970"
                     points="546.3841,-132.315 556.8197,-130.4853 547.5207,-125.4079 546.3841,-132.315"/>
        </g>
        <!-- Node16 -->
        <g id="node8" class="node">
            <title>Node16</title>
            <g id="a_node8">
                <a xlink:href="../../dd/d02/_drug_window_8hpp.html" target="_top" xlink:title="code/gui/DrugWindow.hpp">
                    <polygon fill="none" stroke="#000000"
                             points="739.0098,-70.5 739.0098,-88.5 871.7529,-88.5 871.7529,-70.5 739.0098,-70.5"/>
                    <text text-anchor="middle" x="805.3813" y="-76.5" font-family="Helvetica,sans-Serif"
                          font-size="10.00" fill="#000000">code/gui/DrugWindow.hpp
                    </text>
                </a>
            </g>
        </g>
        <!-- Node12&#45;&gt;Node16 -->
        <g id="edge7" class="edge">
            <title>Node12&#45;&gt;Node16</title>
            <path fill="none" stroke="#191970"
                  d="M651.6317,-127.2978C688.6345,-115.7944 743.227,-98.8226 776.4253,-88.5019"/>
            <polygon fill="#191970" stroke="#191970"
                     points="650.204,-124.0763 641.6939,-130.3873 652.2821,-130.7608 650.204,-124.0763"/>
        </g>
        <!-- Node19 -->
        <g id="node11" class="node">
            <title>Node19</title>
            <g id="a_node11">
                <a xlink:href="../../dd/de0/_patient_window_8hpp.html" target="_top"
                   xlink:title="code/gui/PatientWindow.hpp">
                    <polygon fill="none" stroke="#000000"
                             points="541.2808,-70.5 541.2808,-88.5 683.4819,-88.5 683.4819,-70.5 541.2808,-70.5"/>
                    <text text-anchor="middle" x="612.3813" y="-76.5" font-family="Helvetica,sans-Serif"
                          font-size="10.00" fill="#000000">code/gui/PatientWindow.hpp
                    </text>
                </a>
            </g>
        </g>
        <!-- Node12&#45;&gt;Node19 -->
        <g id="edge10" class="edge">
            <title>Node12&#45;&gt;Node19</title>
            <path fill="none" stroke="#191970"
                  d="M612.3813,-120.3734C612.3813,-109.7812 612.3813,-97.0976 612.3813,-88.6985"/>
            <polygon fill="#191970" stroke="#191970"
                     points="608.8814,-120.3873 612.3813,-130.3873 615.8814,-120.3873 608.8814,-120.3873"/>
        </g>
        <!-- Node20 -->
        <g id="node12" class="node">
            <title>Node20</title>
            <g id="a_node12">
                <a xlink:href="../../d1/dea/_custom_widgets_8cpp.html" target="_top"
                   xlink:title="code/gui/view/CustomWidgets.cpp">
                    <polygon fill="none" stroke="#000000"
                             points="353.958,-70.5 353.958,-88.5 522.8047,-88.5 522.8047,-70.5 353.958,-70.5"/>
                    <text text-anchor="middle" x="438.3813" y="-76.5" font-family="Helvetica,sans-Serif"
                          font-size="10.00" fill="#000000">code/gui/view/CustomWidgets.cpp
                    </text>
                </a>
            </g>
        </g>
        <!-- Node12&#45;&gt;Node20 -->
        <g id="edge13" class="edge">
            <title>Node12&#45;&gt;Node20</title>
            <path fill="none" stroke="#191970"
                  d="M576.1362,-127.0017C542.7951,-115.5047 494.1611,-98.7344 464.4868,-88.5019"/>
            <polygon fill="#191970" stroke="#191970"
                     points="575.3598,-130.4361 585.9545,-130.3873 577.6417,-123.8185 575.3598,-130.4361"/>
        </g>
        <!-- Node13&#45;&gt;Node14 -->
        <g id="edge5" class="edge">
            <title>Node13&#45;&gt;Node14</title>
            <path fill="none" stroke="#191970"
                  d="M256.5697,-57.1575C249.8617,-47.6788 242.2468,-36.9186 236.3432,-28.5765"/>
            <polygon fill="#191970" stroke="#191970"
                     points="253.7663,-59.2551 262.4,-65.396 259.4803,-55.2114 253.7663,-59.2551"/>
        </g>
        <!-- Node15 -->
        <g id="node7" class="node">
            <title>Node15</title>
            <g id="a_node7">
                <a xlink:href="../../d8/d35/_patient_window_8cpp.html" target="_top"
                   xlink:title="code/gui/PatientWindow.cpp">
                    <polygon fill="none" stroke="#000000"
                             points="523.5615,-5.5 523.5615,-23.5 665.2012,-23.5 665.2012,-5.5 523.5615,-5.5"/>
                    <text text-anchor="middle" x="594.3813" y="-11.5" font-family="Helvetica,sans-Serif"
                          font-size="10.00" fill="#000000">code/gui/PatientWindow.cpp
                    </text>
                </a>
            </g>
        </g>
        <!-- Node13&#45;&gt;Node15 -->
        <g id="edge6" class="edge">
            <title>Node13&#45;&gt;Node15</title>
            <path fill="none" stroke="#191970"
                  d="M345.8409,-64.6712C408.5906,-52.0043 496.8325,-34.1915 549.5451,-23.5508"/>
            <polygon fill="#191970" stroke="#191970"
                     points="345.1079,-61.2485 335.9982,-66.6581 346.493,-68.1101 345.1079,-61.2485"/>
        </g>
        <!-- Node17 -->
        <g id="node9" class="node">
            <title>Node17</title>
            <g id="a_node9">
                <a xlink:href="../../d6/d9e/_drug_window_8cpp.html" target="_top" xlink:title="code/gui/DrugWindow.cpp">
                    <polygon fill="none" stroke="#000000"
                             points="833.2905,-5.5 833.2905,-23.5 965.4722,-23.5 965.4722,-5.5 833.2905,-5.5"/>
                    <text text-anchor="middle" x="899.3813" y="-11.5" font-family="Helvetica,sans-Serif"
                          font-size="10.00" fill="#000000">code/gui/DrugWindow.cpp
                    </text>
                </a>
            </g>
        </g>
        <!-- Node16&#45;&gt;Node17 -->
        <g id="edge8" class="edge">
            <title>Node16&#45;&gt;Node17</title>
            <path fill="none" stroke="#191970"
                  d="M826.7381,-64.732C844.9932,-52.1088 870.6866,-34.3421 886.119,-23.6708"/>
            <polygon fill="#191970" stroke="#191970"
                     points="824.6861,-61.8957 818.4516,-70.462 828.6674,-67.6532 824.6861,-61.8957"/>
        </g>
        <!-- Node18 -->
        <g id="node10" class="node">
            <title>Node18</title>
            <g id="a_node10">
                <a xlink:href="../../d5/da5/_main_window_8cpp.html" target="_top" xlink:title="code/gui/MainWindow.cpp">
                    <polygon fill="none" stroke="#000000"
                             points="683.2905,-5.5 683.2905,-23.5 815.4722,-23.5 815.4722,-5.5 683.2905,-5.5"/>
                    <text text-anchor="middle" x="749.3813" y="-11.5" font-family="Helvetica,sans-Serif"
                          font-size="10.00" fill="#000000">code/gui/MainWindow.cpp
                    </text>
                </a>
            </g>
        </g>
        <!-- Node16&#45;&gt;Node18 -->
        <g id="edge9" class="edge">
            <title>Node16&#45;&gt;Node18</title>
            <path fill="none" stroke="#191970"
                  d="M790.8826,-62.6711C780.2425,-50.321 766.1828,-34.0016 757.4644,-23.8821"/>
            <polygon fill="#191970" stroke="#191970"
                     points="788.416,-65.1704 797.5948,-70.462 793.7193,-60.6014 788.416,-65.1704"/>
        </g>
        <!-- Node19&#45;&gt;Node15 -->
        <g id="edge12" class="edge">
            <title>Node19&#45;&gt;Node15</title>
            <path fill="none" stroke="#191970"
                  d="M607.1187,-60.4959C603.7853,-48.4586 599.6201,-33.4178 596.9795,-23.8821"/>
            <polygon fill="#191970" stroke="#191970"
                     points="603.8366,-61.7588 609.8785,-70.462 610.5827,-59.8906 603.8366,-61.7588"/>
        </g>
        <!-- Node19&#45;&gt;Node18 -->
        <g id="edge11" class="edge">
            <title>Node19&#45;&gt;Node18</title>
            <path fill="none" stroke="#191970"
                  d="M640.6495,-66.0881C667.3704,-53.4103 706.7424,-34.7302 730.0522,-23.6708"/>
            <polygon fill="#191970" stroke="#191970"
                     points="638.965,-63.0133 631.4306,-70.462 641.9656,-69.3376 638.965,-63.0133"/>
        </g>
        <!-- Node21&#45;&gt;Node15 -->
        <g id="edge17" class="edge">
            <title>Node21&#45;&gt;Node15</title>
            <path fill="none" stroke="#191970"
                  d="M800.7132,-126.7304C779.6342,-118.5693 752.7738,-107.08 730.3813,-94 712.0365,-83.2843 710.3379,-76.3542 692.3813,-65 666.4977,-48.6334 634.6874,-32.9985 614.4695,-23.5738"/>
            <polygon fill="#191970" stroke="#191970"
                     points="799.661,-130.0746 810.2523,-130.3505 802.1448,-123.5301 799.661,-130.0746"/>
        </g>
        <!-- Node21&#45;&gt;Node17 -->
        <g id="edge16" class="edge">
            <title>Node21&#45;&gt;Node17</title>
            <path fill="none" stroke="#191970"
                  d="M855.8826,-123.6657C864.5811,-115.6337 874.2323,-105.2127 880.3813,-94 893.0731,-70.8568 897.3521,-39.3761 898.7433,-23.8904"/>
            <polygon fill="#191970" stroke="#191970"
                     points="853.5004,-121.0995 848.2898,-130.3245 858.1159,-126.3624 853.5004,-121.0995"/>
        </g>
        <!-- Node21&#45;&gt;Node22 -->
        <g id="edge18" class="edge">
            <title>Node21&#45;&gt;Node22</title>
            <path fill="none" stroke="#191970"
                  d="M892.9012,-128.5253C952.0522,-117.0396 1043.8249,-99.2197 1098.9132,-88.5229"/>
            <polygon fill="#191970" stroke="#191970"
                     points="892.1258,-125.1104 882.9763,-130.4524 893.4602,-131.982 892.1258,-125.1104"/>
        </g>
        <!-- Node23 -->
        <g id="node15" class="node">
            <title>Node23</title>
            <g id="a_node15">
                <a xlink:href="../../d3/da6/_doctor_8cpp.html" target="_top" xlink:title="code/model/Doctor.cpp">
                    <polygon fill="none" stroke="#000000"
                             points="927.2388,-70.5 927.2388,-88.5 1045.5239,-88.5 1045.5239,-70.5 927.2388,-70.5"/>
                    <text text-anchor="middle" x="986.3813" y="-76.5" font-family="Helvetica,sans-Serif"
                          font-size="10.00" fill="#000000">code/model/Doctor.cpp
                    </text>
                </a>
            </g>
        </g>
        <!-- Node21&#45;&gt;Node23 -->
        <g id="edge19" class="edge">
            <title>Node21&#45;&gt;Node23</title>
            <path fill="none" stroke="#191970"
                  d="M868.7488,-126.553C897.4511,-115.0721 938.6262,-98.6021 963.8767,-88.5019"/>
            <polygon fill="#191970" stroke="#191970"
                     points="867.148,-123.4237 859.1631,-130.3873 869.7478,-129.923 867.148,-123.4237"/>
        </g>
    </g>
</svg>
