<?xml version="1.0" encoding="UTF-8" standalone="no"?>
<!DOCTYPE svg PUBLIC "-//W3C//DTD SVG 1.1//EN"
        "http://www.w3.org/Graphics/SVG/1.1/DTD/svg11.dtd">
<!-- Generated by graphviz version 2.40.1 (20161225.0304)
 -->
<!-- Title: code/gui/PrescriptionWindow.hpp Pages: 1 -->
<svg width="242pt" height="247pt"
     viewBox="0.00 0.00 241.96 247.00" xmlns="http://www.w3.org/2000/svg" xmlns:xlink="http://www.w3.org/1999/xlink">
    <g id="graph0" class="graph" transform="scale(1 1) rotate(0) translate(4 243)">
        <title>code/gui/PrescriptionWindow.hpp</title>
        <!-- Node0 -->
        <g id="node1" class="node">
            <title>Node0</title>
            <polygon fill="#bfbfbf" stroke="#000000"
                     points="12.8525,-220.5 12.8525,-238.5 176.7188,-238.5 176.7188,-220.5 12.8525,-220.5"/>
            <text text-anchor="middle" x="94.7856" y="-226.5" font-family="Helvetica,sans-Serif" font-size="10.00"
                  fill="#000000">code/gui/PrescriptionWindow.hpp
            </text>
        </g>
        <!-- Node1 -->
        <g id="node2" class="node">
            <title>Node1</title>
            <polygon fill="none" stroke="#bfbfbf" points="0,-165.5 0,-183.5 91.5713,-183.5 91.5713,-165.5 0,-165.5"/>
            <text text-anchor="middle" x="45.7856" y="-171.5" font-family="Helvetica,sans-Serif" font-size="10.00"
                  fill="#000000">gtkmm/liststore.h
            </text>
        </g>
        <!-- Node0&#45;&gt;Node1 -->
        <g id="edge1" class="edge">
            <title>Node0&#45;&gt;Node1</title>
            <path fill="none" stroke="#191970"
                  d="M86.6943,-220.4179C79.7144,-212.5833 69.446,-201.0575 60.9433,-191.5137"/>
            <polygon fill="#191970" stroke="#191970"
                     points="63.3182,-188.9178 54.0528,-183.7795 58.0916,-193.5743 63.3182,-188.9178"/>
        </g>
        <!-- Node2 -->
        <g id="node3" class="node">
            <title>Node2</title>
            <g id="a_node3">
                <a xlink:href="../../de/d0b/_window_8hpp.html" target="_top" xlink:title="Window.hpp">
                    <polygon fill="none" stroke="#000000"
                             points="109.5444,-165.5 109.5444,-183.5 180.0269,-183.5 180.0269,-165.5 109.5444,-165.5"/>
                    <text text-anchor="middle" x="144.7856" y="-171.5" font-family="Helvetica,sans-Serif"
                          font-size="10.00" fill="#000000">Window.hpp
                    </text>
                </a>
            </g>
        </g>
        <!-- Node0&#45;&gt;Node2 -->
        <g id="edge2" class="edge">
            <title>Node0&#45;&gt;Node2</title>
            <path fill="none" stroke="#191970"
                  d="M103.0421,-220.4179C110.2364,-212.5041 120.8545,-200.8243 129.581,-191.2251"/>
            <polygon fill="#191970" stroke="#191970"
                     points="132.2128,-193.5332 136.3498,-183.7795 127.0332,-188.8245 132.2128,-193.5332"/>
        </g>
        <!-- Node3 -->
        <g id="node4" class="node">
            <title>Node3</title>
            <g id="a_node4">
                <a xlink:href="../../d1/d25/_i_subject_8hpp.html" target="_top"
                   xlink:title="../interfaces/ISubject.hpp">
                    <polygon fill="none" stroke="#000000"
                             points="81.7539,-110.5 81.7539,-128.5 207.8174,-128.5 207.8174,-110.5 81.7539,-110.5"/>
                    <text text-anchor="middle" x="144.7856" y="-116.5" font-family="Helvetica,sans-Serif"
                          font-size="10.00" fill="#000000">../interfaces/ISubject.hpp
                    </text>
                </a>
            </g>
        </g>
        <!-- Node2&#45;&gt;Node3 -->
        <g id="edge3" class="edge">
            <title>Node2&#45;&gt;Node3</title>
            <path fill="none" stroke="#191970"
                  d="M144.7856,-165.4179C144.7856,-158.2164 144.7856,-147.8962 144.7856,-138.8632"/>
            <polygon fill="#191970" stroke="#191970"
                     points="148.2857,-138.7794 144.7856,-128.7795 141.2857,-138.7795 148.2857,-138.7794"/>
        </g>
        <!-- Node4 -->
        <g id="node5" class="node">
            <title>Node4</title>
            <polygon fill="none" stroke="#bfbfbf"
                     points="94.1157,-55.5 94.1157,-73.5 123.4556,-73.5 123.4556,-55.5 94.1157,-55.5"/>
            <text text-anchor="middle" x="108.7856" y="-61.5" font-family="Helvetica,sans-Serif" font-size="10.00"
                  fill="#000000">set
            </text>
        </g>
        <!-- Node3&#45;&gt;Node4 -->
        <g id="edge4" class="edge">
            <title>Node3&#45;&gt;Node4</title>
            <path fill="none" stroke="#191970"
                  d="M138.841,-110.4179C133.8683,-102.8207 126.6238,-91.7527 120.4932,-82.3866"/>
            <polygon fill="#191970" stroke="#191970"
                     points="123.2646,-80.2297 114.8595,-73.7795 117.4076,-84.0633 123.2646,-80.2297"/>
        </g>
        <!-- Node5 -->
        <g id="node6" class="node">
            <title>Node5</title>
            <g id="a_node6">
                <a xlink:href="../../d5/d40/_i_observer_8hpp.html" target="_top" xlink:title="IObserver.hpp">
                    <polygon fill="none" stroke="#000000"
                             points="141.377,-55.5 141.377,-73.5 220.1943,-73.5 220.1943,-55.5 141.377,-55.5"/>
                    <text text-anchor="middle" x="180.7856" y="-61.5" font-family="Helvetica,sans-Serif"
                          font-size="10.00" fill="#000000">IObserver.hpp
                    </text>
                </a>
            </g>
        </g>
        <!-- Node3&#45;&gt;Node5 -->
        <g id="edge5" class="edge">
            <title>Node3&#45;&gt;Node5</title>
            <path fill="none" stroke="#191970"
                  d="M150.7303,-110.4179C155.703,-102.8207 162.9475,-91.7527 169.078,-82.3866"/>
            <polygon fill="#191970" stroke="#191970"
                     points="172.1636,-84.0633 174.7118,-73.7795 166.3067,-80.2297 172.1636,-84.0633"/>
        </g>
        <!-- Node6 -->
        <g id="node7" class="node">
            <title>Node6</title>
            <polygon fill="none" stroke="#bfbfbf"
                     points="128.1699,-.5 128.1699,-18.5 171.4014,-18.5 171.4014,-.5 128.1699,-.5"/>
            <text text-anchor="middle" x="149.7856" y="-6.5" font-family="Helvetica,sans-Serif" font-size="10.00"
                  fill="#000000">mutex
            </text>
        </g>
        <!-- Node5&#45;&gt;Node6 -->
        <g id="edge6" class="edge">
            <title>Node5&#45;&gt;Node6</title>
            <path fill="none" stroke="#191970"
                  d="M175.6666,-55.4179C171.4292,-47.8998 165.276,-36.9829 160.0325,-27.6799"/>
            <polygon fill="#191970" stroke="#191970"
                     points="162.9751,-25.7724 155.0159,-18.7795 156.877,-29.2096 162.9751,-25.7724"/>
        </g>
        <!-- Node7 -->
        <g id="node8" class="node">
            <title>Node7</title>
            <polygon fill="none" stroke="#bfbfbf"
                     points="189.6084,-.5 189.6084,-18.5 233.9629,-18.5 233.9629,-.5 189.6084,-.5"/>
            <text text-anchor="middle" x="211.7856" y="-6.5" font-family="Helvetica,sans-Serif" font-size="10.00"
                  fill="#000000">thread
            </text>
        </g>
        <!-- Node5&#45;&gt;Node7 -->
        <g id="edge7" class="edge">
            <title>Node5&#45;&gt;Node7</title>
            <path fill="none" stroke="#191970"
                  d="M185.9047,-55.4179C190.1421,-47.8998 196.2953,-36.9829 201.5388,-27.6799"/>
            <polygon fill="#191970" stroke="#191970"
                     points="204.6943,-29.2096 206.5554,-18.7795 198.5962,-25.7724 204.6943,-29.2096"/>
        </g>
    </g>
</svg>
