<?xml version="1.0" encoding="UTF-8" standalone="no"?>
<!DOCTYPE svg PUBLIC "-//W3C//DTD SVG 1.1//EN"
        "http://www.w3.org/Graphics/SVG/1.1/DTD/svg11.dtd">
<!-- Generated by graphviz version 2.40.1 (20161225.0304)
 -->
<!-- Title: code/gui/AddPatientDialog.cpp Pages: 1 -->
<svg width="1524pt" height="302pt"
     viewBox="0.00 0.00 1523.86 302.00" xmlns="http://www.w3.org/2000/svg" xmlns:xlink="http://www.w3.org/1999/xlink">
    <g id="graph0" class="graph" transform="scale(1 1) rotate(0) translate(4 298)">
        <title>code/gui/AddPatientDialog.cpp</title>
        <!-- Node0 -->
        <g id="node1" class="node">
            <title>Node0</title>
            <polygon fill="#bfbfbf" stroke="#000000"
                     points="698.3057,-275.5 698.3057,-293.5 851.0684,-293.5 851.0684,-275.5 698.3057,-275.5"/>
            <text text-anchor="middle" x="774.687" y="-281.5" font-family="Helvetica,sans-Serif" font-size="10.00"
                  fill="#000000">code/gui/AddPatientDialog.cpp
            </text>
        </g>
        <!-- Node1 -->
        <g id="node2" class="node">
            <title>Node1</title>
            <polygon fill="none" stroke="#bfbfbf"
                     points="206.6602,-220.5 206.6602,-238.5 292.7139,-238.5 292.7139,-220.5 206.6602,-220.5"/>
            <text text-anchor="middle" x="249.687" y="-226.5" font-family="Helvetica,sans-Serif" font-size="10.00"
                  fill="#000000">spdlog/spdlog.h
            </text>
        </g>
        <!-- Node0&#45;&gt;Node1 -->
        <g id="edge1" class="edge">
            <title>Node0&#45;&gt;Node1</title>
            <path fill="none" stroke="#191970"
                  d="M698.2664,-279.1531C606.6614,-272.2929 448.3135,-259.0049 302.7822,-239.0481"/>
            <polygon fill="#191970" stroke="#191970"
                     points="303.1574,-235.5668 292.7718,-237.6619 302.1972,-242.5006 303.1574,-235.5668"/>
        </g>
        <!-- Node2 -->
        <g id="node3" class="node">
            <title>Node2</title>
            <g id="a_node3">
                <a xlink:href="../../d2/dac/_add_patient_dialog_8hpp.html" target="_top"
                   xlink:title="AddPatientDialog.hpp">
                    <polygon fill="none" stroke="#000000"
                             points="310.3179,-220.5 310.3179,-238.5 423.0562,-238.5 423.0562,-220.5 310.3179,-220.5"/>
                    <text text-anchor="middle" x="366.687" y="-226.5" font-family="Helvetica,sans-Serif"
                          font-size="10.00" fill="#000000">AddPatientDialog.hpp
                    </text>
                </a>
            </g>
        </g>
        <!-- Node0&#45;&gt;Node2 -->
        <g id="edge2" class="edge">
            <title>Node0&#45;&gt;Node2</title>
            <path fill="none" stroke="#191970"
                  d="M707.771,-275.4795C631.9846,-265.2631 509.2183,-248.7138 433.482,-238.5042"/>
            <polygon fill="#191970" stroke="#191970"
                     points="433.4952,-234.9744 423.1172,-237.107 432.5599,-241.9117 433.4952,-234.9744"/>
        </g>
        <!-- Node17 -->
        <g id="node18" class="node">
            <title>Node17</title>
            <g id="a_node18">
                <a xlink:href="../../dc/db8/_ref_builder_8hpp.html" target="_top" xlink:title="RefBuilder.hpp">
                    <polygon fill="none" stroke="#000000"
                             points="1362.8843,-220.5 1362.8843,-238.5 1444.4897,-238.5 1444.4897,-220.5 1362.8843,-220.5"/>
                    <text text-anchor="middle" x="1403.687" y="-226.5" font-family="Helvetica,sans-Serif"
                          font-size="10.00" fill="#000000">RefBuilder.hpp
                    </text>
                </a>
            </g>
        </g>
        <!-- Node0&#45;&gt;Node17 -->
        <g id="edge19" class="edge">
            <title>Node0&#45;&gt;Node17</title>
            <path fill="none" stroke="#191970"
                  d="M851.1859,-277.8109C981.2257,-266.4402 1242.0014,-243.6379 1352.4167,-233.9831"/>
            <polygon fill="#191970" stroke="#191970"
                     points="1352.9661,-237.4485 1362.6232,-233.0906 1352.3563,-230.4751 1352.9661,-237.4485"/>
        </g>
        <!-- Node19 -->
        <g id="node20" class="node">
            <title>Node19</title>
            <g id="a_node20">
                <a xlink:href="../../d0/da9/_patient_8hpp.html" target="_top" xlink:title="../model/Patient.hpp">
                    <polygon fill="none" stroke="#000000"
                             points="1120.2144,-220.5 1120.2144,-238.5 1225.1597,-238.5 1225.1597,-220.5 1120.2144,-220.5"/>
                    <text text-anchor="middle" x="1172.687" y="-226.5" font-family="Helvetica,sans-Serif"
                          font-size="10.00" fill="#000000">../model/Patient.hpp
                    </text>
                </a>
            </g>
        </g>
        <!-- Node0&#45;&gt;Node19 -->
        <g id="edge21" class="edge">
            <title>Node0&#45;&gt;Node19</title>
            <path fill="none" stroke="#191970"
                  d="M839.9629,-275.4795C914.7344,-265.1467 1036.3846,-248.3358 1110.037,-238.1577"/>
            <polygon fill="#191970" stroke="#191970"
                     points="1110.6745,-241.6029 1120.1012,-236.7669 1109.7162,-234.6688 1110.6745,-241.6029"/>
        </g>
        <!-- Node27 -->
        <g id="node28" class="node">
            <title>Node27</title>
            <g id="a_node28">
                <a xlink:href="../../d7/d0f/_d_b_master_8hpp.html" target="_top" xlink:title="../DBMaster.hpp">
                    <polygon fill="none" stroke="#000000"
                             points="739.835,-110.5 739.835,-128.5 827.5391,-128.5 827.5391,-110.5 739.835,-110.5"/>
                    <text text-anchor="middle" x="783.687" y="-116.5" font-family="Helvetica,sans-Serif"
                          font-size="10.00" fill="#000000">../DBMaster.hpp
                    </text>
                </a>
            </g>
        </g>
        <!-- Node0&#45;&gt;Node27 -->
        <g id="edge40" class="edge">
            <title>Node0&#45;&gt;Node27</title>
            <path fill="none" stroke="#191970"
                  d="M775.2733,-275.3567C776.3963,-257.702 778.8981,-217.687 780.687,-184 781.488,-168.9157 782.277,-151.8407 782.8446,-139.0499"/>
            <polygon fill="#191970" stroke="#191970"
                     points="786.3575,-138.8311 783.2977,-128.6877 779.3641,-138.5252 786.3575,-138.8311"/>
        </g>
        <!-- Node30 -->
        <g id="node31" class="node">
            <title>Node30</title>
            <g id="a_node31">
                <a xlink:href="../../dc/d00/_authentication_8hpp.html" target="_top"
                   xlink:title="../model/Authentication.hpp">
                    <polygon fill="none" stroke="#000000"
                             points="634.0913,-165.5 634.0913,-183.5 771.2827,-183.5 771.2827,-165.5 634.0913,-165.5"/>
                    <text text-anchor="middle" x="702.687" y="-171.5" font-family="Helvetica,sans-Serif"
                          font-size="10.00" fill="#000000">../model/Authentication.hpp
                    </text>
                </a>
            </g>
        </g>
        <!-- Node0&#45;&gt;Node30 -->
        <g id="edge46" class="edge">
            <title>Node0&#45;&gt;Node30</title>
            <path fill="none" stroke="#191970"
                  d="M768.7949,-275.4982C756.8758,-257.2885 729.7185,-215.798 714.174,-192.0496"/>
            <polygon fill="#191970" stroke="#191970"
                     points="717.0656,-190.0764 708.6605,-183.6261 711.2087,-193.91 717.0656,-190.0764"/>
        </g>
        <!-- Node3 -->
        <g id="node4" class="node">
            <title>Node3</title>
            <polygon fill="none" stroke="#bfbfbf"
                     points="327.3809,-110.5 327.3809,-128.5 405.9932,-128.5 405.9932,-110.5 327.3809,-110.5"/>
            <text text-anchor="middle" x="366.687" y="-116.5" font-family="Helvetica,sans-Serif" font-size="10.00"
                  fill="#000000">gtkmm/entry.h
            </text>
        </g>
        <!-- Node2&#45;&gt;Node3 -->
        <g id="edge3" class="edge">
            <title>Node2&#45;&gt;Node3</title>
            <path fill="none" stroke="#191970"
                  d="M366.687,-220.4982C366.687,-202.6913 366.687,-162.6225 366.687,-138.6515"/>
            <polygon fill="#191970" stroke="#191970"
                     points="370.1871,-138.6261 366.687,-128.6261 363.1871,-138.6262 370.1871,-138.6261"/>
        </g>
        <!-- Node4 -->
        <g id="node5" class="node">
            <title>Node4</title>
            <polygon fill="none" stroke="#bfbfbf"
                     points="146.2266,-165.5 146.2266,-183.5 231.1475,-183.5 231.1475,-165.5 146.2266,-165.5"/>
            <text text-anchor="middle" x="188.687" y="-171.5" font-family="Helvetica,sans-Serif" font-size="10.00"
                  fill="#000000">gtkmm/button.h
            </text>
        </g>
        <!-- Node2&#45;&gt;Node4 -->
        <g id="edge4" class="edge">
            <title>Node2&#45;&gt;Node4</title>
            <path fill="none" stroke="#191970"
                  d="M337.2939,-220.4179C307.3158,-211.155 260.6393,-196.7325 227.6075,-186.526"/>
            <polygon fill="#191970" stroke="#191970"
                     points="228.4155,-183.1124 217.8279,-183.5042 226.3489,-189.8005 228.4155,-183.1124"/>
        </g>
        <!-- Node5 -->
        <g id="node6" class="node">
            <title>Node5</title>
            <polygon fill="none" stroke="#bfbfbf" points="0,-110.5 0,-128.5 119.374,-128.5 119.374,-110.5 0,-110.5"/>
            <text text-anchor="middle" x="59.687" y="-116.5" font-family="Helvetica,sans-Serif" font-size="10.00"
                  fill="#000000">gtkmm/comboboxtext.h
            </text>
        </g>
        <!-- Node2&#45;&gt;Node5 -->
        <g id="edge5" class="edge">
            <title>Node2&#45;&gt;Node5</title>
            <path fill="none" stroke="#191970"
                  d="M314.2584,-220.4822C251.6777,-209.5003 153.453,-191.4906 137.687,-184 113.0464,-172.293 89.6056,-151.0637 74.9717,-136.1673"/>
            <polygon fill="#191970" stroke="#191970"
                     points="77.2306,-133.4645 67.796,-128.6436 72.165,-138.2957 77.2306,-133.4645"/>
        </g>
        <!-- Node6 -->
        <g id="node7" class="node">
            <title>Node6</title>
            <g id="a_node7">
                <a xlink:href="../../dc/de6/_dialog_8hpp.html" target="_top" xlink:title="Dialog.hpp">
                    <polygon fill="none" stroke="#000000"
                             points="440.7808,-165.5 440.7808,-183.5 504.5933,-183.5 504.5933,-165.5 440.7808,-165.5"/>
                    <text text-anchor="middle" x="472.687" y="-171.5" font-family="Helvetica,sans-Serif"
                          font-size="10.00" fill="#000000">Dialog.hpp
                    </text>
                </a>
            </g>
        </g>
        <!-- Node2&#45;&gt;Node6 -->
        <g id="edge6" class="edge">
            <title>Node2&#45;&gt;Node6</title>
            <path fill="none" stroke="#191970"
                  d="M384.1908,-220.4179C401.069,-211.6603 426.8358,-198.2907 446.2206,-188.2326"/>
            <polygon fill="#191970" stroke="#191970"
                     points="447.893,-191.308 455.1573,-183.5956 444.669,-185.0946 447.893,-191.308"/>
        </g>
        <!-- Node13 -->
        <g id="node14" class="node">
            <title>Node13</title>
            <g id="a_node14">
                <a xlink:href="../../dc/d55/_widgets_8hpp.html" target="_top" xlink:title="Widgets.hpp">
                    <polygon fill="none" stroke="#000000"
                             points="248.894,-165.5 248.894,-183.5 320.48,-183.5 320.48,-165.5 248.894,-165.5"/>
                    <text text-anchor="middle" x="284.687" y="-171.5" font-family="Helvetica,sans-Serif"
                          font-size="10.00" fill="#000000">Widgets.hpp
                    </text>
                </a>
            </g>
        </g>
        <!-- Node2&#45;&gt;Node13 -->
        <g id="edge13" class="edge">
            <title>Node2&#45;&gt;Node13</title>
            <path fill="none" stroke="#191970"
                  d="M353.1464,-220.4179C340.5644,-211.9788 321.5974,-199.257 306.8159,-189.3426"/>
            <polygon fill="#191970" stroke="#191970"
                     points="308.5023,-186.2593 298.2478,-183.5956 304.603,-192.0727 308.5023,-186.2593"/>
        </g>
        <!-- Node7 -->
        <g id="node8" class="node">
            <title>Node7</title>
            <polygon fill="none" stroke="#bfbfbf"
                     points="424.1084,-110.5 424.1084,-128.5 521.2656,-128.5 521.2656,-110.5 424.1084,-110.5"/>
            <text text-anchor="middle" x="472.687" y="-116.5" font-family="Helvetica,sans-Serif" font-size="10.00"
                  fill="#000000">sigc++/trackable.h
            </text>
        </g>
        <!-- Node6&#45;&gt;Node7 -->
        <g id="edge7" class="edge">
            <title>Node6&#45;&gt;Node7</title>
            <path fill="none" stroke="#191970"
                  d="M472.687,-165.4179C472.687,-158.2164 472.687,-147.8962 472.687,-138.8632"/>
            <polygon fill="#191970" stroke="#191970"
                     points="476.1871,-138.7794 472.687,-128.7795 469.1871,-138.7795 476.1871,-138.7794"/>
        </g>
        <!-- Node8 -->
        <g id="node9" class="node">
            <title>Node8</title>
            <g id="a_node9">
                <a xlink:href="../../d1/d25/_i_subject_8hpp.html" target="_top"
                   xlink:title="../interfaces/ISubject.hpp">
                    <polygon fill="none" stroke="#000000"
                             points="539.6553,-110.5 539.6553,-128.5 665.7188,-128.5 665.7188,-110.5 539.6553,-110.5"/>
                    <text text-anchor="middle" x="602.687" y="-116.5" font-family="Helvetica,sans-Serif"
                          font-size="10.00" fill="#000000">../interfaces/ISubject.hpp
                    </text>
                </a>
            </g>
        </g>
        <!-- Node6&#45;&gt;Node8 -->
        <g id="edge8" class="edge">
            <title>Node6&#45;&gt;Node8</title>
            <path fill="none" stroke="#191970"
                  d="M494.1539,-165.4179C515.324,-156.4613 547.8964,-142.6806 571.8368,-132.552"/>
            <polygon fill="#191970" stroke="#191970"
                     points="573.3423,-135.7155 581.1883,-128.5956 570.6148,-129.2687 573.3423,-135.7155"/>
        </g>
        <!-- Node9 -->
        <g id="node10" class="node">
            <title>Node9</title>
            <polygon fill="none" stroke="#bfbfbf"
                     points="516.0171,-55.5 516.0171,-73.5 545.3569,-73.5 545.3569,-55.5 516.0171,-55.5"/>
            <text text-anchor="middle" x="530.687" y="-61.5" font-family="Helvetica,sans-Serif" font-size="10.00"
                  fill="#000000">set
            </text>
        </g>
        <!-- Node8&#45;&gt;Node9 -->
        <g id="edge9" class="edge">
            <title>Node8&#45;&gt;Node9</title>
            <path fill="none" stroke="#191970"
                  d="M590.7977,-110.4179C580.0235,-102.1876 563.9168,-89.8839 551.0873,-80.0836"/>
            <polygon fill="#191970" stroke="#191970"
                     points="552.906,-77.0685 542.8347,-73.7795 548.6567,-82.6313 552.906,-77.0685"/>
        </g>
        <!-- Node10 -->
        <g id="node11" class="node">
            <title>Node10</title>
            <g id="a_node11">
                <a xlink:href="../../d5/d40/_i_observer_8hpp.html" target="_top" xlink:title="IObserver.hpp">
                    <polygon fill="none" stroke="#000000"
                             points="563.2783,-55.5 563.2783,-73.5 642.0957,-73.5 642.0957,-55.5 563.2783,-55.5"/>
                    <text text-anchor="middle" x="602.687" y="-61.5" font-family="Helvetica,sans-Serif"
                          font-size="10.00" fill="#000000">IObserver.hpp
                    </text>
                </a>
            </g>
        </g>
        <!-- Node8&#45;&gt;Node10 -->
        <g id="edge10" class="edge">
            <title>Node8&#45;&gt;Node10</title>
            <path fill="none" stroke="#191970"
                  d="M602.687,-110.4179C602.687,-103.2164 602.687,-92.8962 602.687,-83.8632"/>
            <polygon fill="#191970" stroke="#191970"
                     points="606.1871,-83.7794 602.687,-73.7795 599.1871,-83.7795 606.1871,-83.7794"/>
        </g>
        <!-- Node11 -->
        <g id="node12" class="node">
            <title>Node11</title>
            <polygon fill="none" stroke="#bfbfbf"
                     points="550.0713,-.5 550.0713,-18.5 593.3027,-18.5 593.3027,-.5 550.0713,-.5"/>
            <text text-anchor="middle" x="571.687" y="-6.5" font-family="Helvetica,sans-Serif" font-size="10.00"
                  fill="#000000">mutex
            </text>
        </g>
        <!-- Node10&#45;&gt;Node11 -->
        <g id="edge11" class="edge">
            <title>Node10&#45;&gt;Node11</title>
            <path fill="none" stroke="#191970"
                  d="M597.568,-55.4179C593.3305,-47.8998 587.1774,-36.9829 581.9338,-27.6799"/>
            <polygon fill="#191970" stroke="#191970"
                     points="584.8765,-25.7724 576.9173,-18.7795 578.7784,-29.2096 584.8765,-25.7724"/>
        </g>
        <!-- Node12 -->
        <g id="node13" class="node">
            <title>Node12</title>
            <polygon fill="none" stroke="#bfbfbf"
                     points="611.5098,-.5 611.5098,-18.5 655.8643,-18.5 655.8643,-.5 611.5098,-.5"/>
            <text text-anchor="middle" x="633.687" y="-6.5" font-family="Helvetica,sans-Serif" font-size="10.00"
                  fill="#000000">thread
            </text>
        </g>
        <!-- Node10&#45;&gt;Node12 -->
        <g id="edge12" class="edge">
            <title>Node10&#45;&gt;Node12</title>
            <path fill="none" stroke="#191970"
                  d="M607.806,-55.4179C612.0435,-47.8998 618.1967,-36.9829 623.4402,-27.6799"/>
            <polygon fill="#191970" stroke="#191970"
                     points="626.5956,-29.2096 628.4568,-18.7795 620.4976,-25.7724 626.5956,-29.2096"/>
        </g>
        <!-- Node13&#45;&gt;Node3 -->
        <g id="edge14" class="edge">
            <title>Node13&#45;&gt;Node3</title>
            <path fill="none" stroke="#191970"
                  d="M298.2276,-165.4179C310.8096,-156.9788 329.7766,-144.257 344.5581,-134.3426"/>
            <polygon fill="#191970" stroke="#191970"
                     points="346.771,-137.0727 353.1263,-128.5956 342.8717,-131.2593 346.771,-137.0727"/>
        </g>
        <!-- Node13&#45;&gt;Node5 -->
        <g id="edge15" class="edge">
            <title>Node13&#45;&gt;Node5</title>
            <path fill="none" stroke="#191970"
                  d="M248.5369,-165.6633C210.0107,-156.2458 148.8659,-141.2993 106.6401,-130.9774"/>
            <polygon fill="#191970" stroke="#191970"
                     points="107.4159,-127.5641 96.8708,-128.5894 105.7536,-134.3639 107.4159,-127.5641"/>
        </g>
        <!-- Node14 -->
        <g id="node15" class="node">
            <title>Node14</title>
            <polygon fill="none" stroke="#bfbfbf"
                     points="137.0146,-110.5 137.0146,-128.5 206.3594,-128.5 206.3594,-110.5 137.0146,-110.5"/>
            <text text-anchor="middle" x="171.687" y="-116.5" font-family="Helvetica,sans-Serif" font-size="10.00"
                  fill="#000000">fmt/format.h
            </text>
        </g>
        <!-- Node13&#45;&gt;Node14 -->
        <g id="edge16" class="edge">
            <title>Node13&#45;&gt;Node14</title>
            <path fill="none" stroke="#191970"
                  d="M266.0274,-165.4179C247.9528,-156.6205 220.3163,-143.1691 199.6198,-133.0956"/>
            <polygon fill="#191970" stroke="#191970"
                     points="200.8977,-129.825 190.3744,-128.5956 197.8341,-136.1191 200.8977,-129.825"/>
        </g>
        <!-- Node15 -->
        <g id="node16" class="node">
            <title>Node15</title>
            <g id="a_node16">
                <a xlink:href="../../d8/d63/_date_8hpp.html" target="_top" xlink:title="../utils/Date.hpp">
                    <polygon fill="none" stroke="#000000"
                             points="223.9458,-110.5 223.9458,-128.5 309.4282,-128.5 309.4282,-110.5 223.9458,-110.5"/>
                    <text text-anchor="middle" x="266.687" y="-116.5" font-family="Helvetica,sans-Serif"
                          font-size="10.00" fill="#000000">../utils/Date.hpp
                    </text>
                </a>
            </g>
        </g>
        <!-- Node13&#45;&gt;Node15 -->
        <g id="edge17" class="edge">
            <title>Node13&#45;&gt;Node15</title>
            <path fill="none" stroke="#191970"
                  d="M281.7147,-165.4179C279.3319,-158.1372 275.906,-147.669 272.9267,-138.5659"/>
            <polygon fill="#191970" stroke="#191970"
                     points="276.1608,-137.1948 269.7239,-128.7795 269.508,-139.3721 276.1608,-137.1948"/>
        </g>
        <!-- Node16 -->
        <g id="node17" class="node">
            <title>Node16</title>
            <polygon fill="none" stroke="#bfbfbf"
                     points="239.5146,-55.5 239.5146,-73.5 293.8594,-73.5 293.8594,-55.5 239.5146,-55.5"/>
            <text text-anchor="middle" x="266.687" y="-61.5" font-family="Helvetica,sans-Serif" font-size="10.00"
                  fill="#000000">iostream
            </text>
        </g>
        <!-- Node15&#45;&gt;Node16 -->
        <g id="edge18" class="edge">
            <title>Node15&#45;&gt;Node16</title>
            <path fill="none" stroke="#191970"
                  d="M266.687,-110.4179C266.687,-103.2164 266.687,-92.8962 266.687,-83.8632"/>
            <polygon fill="#191970" stroke="#191970"
                     points="270.1871,-83.7794 266.687,-73.7795 263.1871,-83.7795 270.1871,-83.7794"/>
        </g>
        <!-- Node18 -->
        <g id="node19" class="node">
            <title>Node18</title>
            <polygon fill="none" stroke="#bfbfbf"
                     points="1411.5122,-165.5 1411.5122,-183.5 1515.8618,-183.5 1515.8618,-165.5 1411.5122,-165.5"/>
            <text text-anchor="middle" x="1463.687" y="-171.5" font-family="Helvetica,sans-Serif" font-size="10.00"
                  fill="#000000">gtkmm&#45;3.0/gtkmm.h
            </text>
        </g>
        <!-- Node17&#45;&gt;Node18 -->
        <g id="edge20" class="edge">
            <title>Node17&#45;&gt;Node18</title>
            <path fill="none" stroke="#191970"
                  d="M1413.5948,-220.4179C1422.4006,-212.3458 1435.4809,-200.3556 1446.067,-190.6517"/>
            <polygon fill="#191970" stroke="#191970"
                     points="1448.5574,-193.1168 1453.564,-183.7795 1443.8274,-187.9567 1448.5574,-193.1168"/>
        </g>
        <!-- Node20 -->
        <g id="node21" class="node">
            <title>Node20</title>
            <polygon fill="none" stroke="#bfbfbf"
                     points="846.0713,-55.5 846.0713,-73.5 889.3027,-73.5 889.3027,-55.5 846.0713,-55.5"/>
            <text text-anchor="middle" x="867.687" y="-61.5" font-family="Helvetica,sans-Serif" font-size="10.00"
                  fill="#000000">vector
            </text>
        </g>
        <!-- Node19&#45;&gt;Node20 -->
        <g id="edge22" class="edge">
            <title>Node19&#45;&gt;Node20</title>
            <path fill="none" stroke="#191970"
                  d="M1134.0668,-220.3973C1082.1267,-206.8094 988.5718,-177.4919 921.687,-129 904.0346,-116.2019 888.6056,-96.394 878.8105,-82.1053"/>
            <polygon fill="#191970" stroke="#191970"
                     points="881.6522,-80.0571 873.2205,-73.6417 875.8112,-83.9149 881.6522,-80.0571"/>
        </g>
        <!-- Node21 -->
        <g id="node22" class="node">
            <title>Node21</title>
            <polygon fill="none" stroke="#bfbfbf"
                     points="1135.4604,-.5 1135.4604,-18.5 1175.9136,-18.5 1175.9136,-.5 1135.4604,-.5"/>
            <text text-anchor="middle" x="1155.687" y="-6.5" font-family="Helvetica,sans-Serif" font-size="10.00"
                  fill="#000000">string
            </text>
        </g>
        <!-- Node19&#45;&gt;Node21 -->
        <g id="edge23" class="edge">
            <title>Node19&#45;&gt;Node21</title>
            <path fill="none" stroke="#191970"
                  d="M1208.0148,-220.4443C1231.2035,-213.2621 1261.273,-201.4874 1283.687,-184 1337.0624,-142.3566 1407.1616,-107.7164 1364.687,-55 1342.6177,-27.6092 1238.754,-15.8406 1186.2431,-11.5728"/>
            <polygon fill="#191970" stroke="#191970"
                     points="1186.4046,-8.075 1176.1649,-10.7949 1185.8658,-15.0542 1186.4046,-8.075"/>
        </g>
        <!-- Node22 -->
        <g id="node23" class="node">
            <title>Node22</title>
            <polygon fill="none" stroke="#bfbfbf"
                     points="1221.7759,-55.5 1221.7759,-73.5 1355.5981,-73.5 1355.5981,-55.5 1221.7759,-55.5"/>
            <text text-anchor="middle" x="1288.687" y="-61.5" font-family="Helvetica,sans-Serif" font-size="10.00"
                  fill="#000000">gtkmm/treemodelcolumn.h
            </text>
        </g>
        <!-- Node19&#45;&gt;Node22 -->
        <g id="edge24" class="edge">
            <title>Node19&#45;&gt;Node22</title>
            <path fill="none" stroke="#191970"
                  d="M1207.8117,-220.4773C1227.436,-213.6423 1250.6874,-202.2313 1264.687,-184 1287.2629,-154.6002 1290.1802,-109.4827 1289.7719,-83.9233"/>
            <polygon fill="#191970" stroke="#191970"
                     points="1293.2611,-83.5524 1289.4089,-73.6827 1286.2654,-83.8005 1293.2611,-83.5524"/>
        </g>
        <!-- Node23 -->
        <g id="node24" class="node">
            <title>Node23</title>
            <g id="a_node24">
                <a xlink:href="../../d3/d1b/_i_serializable_8hpp.html" target="_top"
                   xlink:title="../interfaces/ISerializable.hpp">
                    <polygon fill="none" stroke="#000000"
                             points="983.4854,-55.5 983.4854,-73.5 1127.8887,-73.5 1127.8887,-55.5 983.4854,-55.5"/>
                    <text text-anchor="middle" x="1055.687" y="-61.5" font-family="Helvetica,sans-Serif"
                          font-size="10.00" fill="#000000">../interfaces/ISerializable.hpp
                    </text>
                </a>
            </g>
        </g>
        <!-- Node19&#45;&gt;Node23 -->
        <g id="edge25" class="edge">
            <title>Node19&#45;&gt;Node23</title>
            <path fill="none" stroke="#191970"
                  d="M1173.4992,-220.2433C1174.2474,-207.25 1174.1813,-183.161 1165.687,-165 1147.6486,-126.4335 1107.3341,-95.9148 1080.8447,-79.0378"/>
            <polygon fill="#191970" stroke="#191970"
                     points="1082.4586,-75.921 1072.1108,-73.6463 1078.7816,-81.8775 1082.4586,-75.921"/>
        </g>
        <!-- Node25 -->
        <g id="node26" class="node">
            <title>Node25</title>
            <g id="a_node26">
                <a xlink:href="../../de/d01/_prescription_8hpp.html" target="_top" xlink:title="Prescription.hpp">
                    <polygon fill="none" stroke="#000000"
                             points="1068.5566,-165.5 1068.5566,-183.5 1156.8174,-183.5 1156.8174,-165.5 1068.5566,-165.5"/>
                    <text text-anchor="middle" x="1112.687" y="-171.5" font-family="Helvetica,sans-Serif"
                          font-size="10.00" fill="#000000">Prescription.hpp
                    </text>
                </a>
            </g>
        </g>
        <!-- Node19&#45;&gt;Node25 -->
        <g id="edge28" class="edge">
            <title>Node19&#45;&gt;Node25</title>
            <path fill="none" stroke="#191970"
                  d="M1162.7792,-220.4179C1153.9734,-212.3458 1140.8931,-200.3556 1130.307,-190.6517"/>
            <polygon fill="#191970" stroke="#191970"
                     points="1132.5467,-187.9567 1122.8101,-183.7795 1127.8166,-193.1168 1132.5467,-187.9567"/>
        </g>
        <!-- Node23&#45;&gt;Node21 -->
        <g id="edge26" class="edge">
            <title>Node23&#45;&gt;Node21</title>
            <path fill="none" stroke="#191970"
                  d="M1072.2,-55.4179C1087.9781,-46.7399 1111.9898,-33.5334 1130.2185,-23.5077"/>
            <polygon fill="#191970" stroke="#191970"
                     points="1132.0741,-26.4816 1139.1495,-18.5956 1128.7006,-20.3481 1132.0741,-26.4816"/>
        </g>
        <!-- Node24 -->
        <g id="node25" class="node">
            <title>Node24</title>
            <polygon fill="none" stroke="#bfbfbf"
                     points="937.9604,-.5 937.9604,-18.5 973.4136,-18.5 973.4136,-.5 937.9604,-.5"/>
            <text text-anchor="middle" x="955.687" y="-6.5" font-family="Helvetica,sans-Serif" font-size="10.00"
                  fill="#000000">map
            </text>
        </g>
        <!-- Node23&#45;&gt;Node24 -->
        <g id="edge27" class="edge">
            <title>Node23&#45;&gt;Node24</title>
            <path fill="none" stroke="#191970"
                  d="M1039.174,-55.4179C1023.396,-46.7399 999.3842,-33.5334 981.1555,-23.5077"/>
            <polygon fill="#191970" stroke="#191970"
                     points="982.6734,-20.3481 972.2245,-18.5956 979.2999,-26.4816 982.6734,-20.3481"/>
        </g>
        <!-- Node25&#45;&gt;Node20 -->
        <g id="edge29" class="edge">
            <title>Node25&#45;&gt;Node20</title>
            <path fill="none" stroke="#191970"
                  d="M1068.5247,-166.0523C1036.1948,-158.8455 991.844,-146.7921 955.687,-129 929.2014,-115.9669 902.3521,-94.9003 885.3964,-80.4102"/>
            <polygon fill="#191970" stroke="#191970"
                     points="887.3224,-77.4457 877.4858,-73.5096 882.7208,-82.7208 887.3224,-77.4457"/>
        </g>
        <!-- Node25&#45;&gt;Node21 -->
        <g id="edge30" class="edge">
            <title>Node25&#45;&gt;Node21</title>
            <path fill="none" stroke="#191970"
                  d="M1118.0341,-165.4898C1127.8417,-148.3791 1148.3714,-109.6956 1155.687,-74 1158.7474,-59.0672 1158.5531,-41.778 1157.7002,-28.8606"/>
            <polygon fill="#191970" stroke="#191970"
                     points="1161.1798,-28.4714 1156.8463,-18.8034 1154.2049,-29.0636 1161.1798,-28.4714"/>
        </g>
        <!-- Node25&#45;&gt;Node22 -->
        <g id="edge32" class="edge">
            <title>Node25&#45;&gt;Node22</title>
            <path fill="none" stroke="#191970"
                  d="M1128.2079,-165.4129C1143.6323,-156.3342 1167.9205,-141.9085 1188.687,-129 1215.6183,-112.2595 1246.2042,-92.4061 1266.3806,-79.1907"/>
            <polygon fill="#191970" stroke="#191970"
                     points="1268.4277,-82.0338 1274.8678,-73.621 1264.587,-76.1814 1268.4277,-82.0338"/>
        </g>
        <!-- Node25&#45;&gt;Node23 -->
        <g id="edge33" class="edge">
            <title>Node25&#45;&gt;Node23</title>
            <path fill="none" stroke="#191970"
                  d="M1111.1997,-165.2883C1108.8447,-152.3486 1103.4872,-128.3229 1093.687,-110 1088.0806,-99.518 1079.798,-89.2326 1072.3952,-81.1"/>
            <polygon fill="#191970" stroke="#191970"
                     points="1074.8433,-78.5953 1065.4175,-73.7575 1069.7691,-83.4174 1074.8433,-78.5953"/>
        </g>
        <!-- Node25&#45;&gt;Node24 -->
        <g id="edge31" class="edge">
            <title>Node25&#45;&gt;Node24</title>
            <path fill="none" stroke="#191970"
                  d="M1083.3725,-165.4051C1046.5104,-152.1337 985.2033,-123.491 961.687,-74 955.0421,-60.0155 953.8089,-42.4183 954.0886,-29.1384"/>
            <polygon fill="#191970" stroke="#191970"
                     points="957.6032,-28.9469 954.6259,-18.779 950.6126,-28.5843 957.6032,-28.9469"/>
        </g>
        <!-- Node26 -->
        <g id="node27" class="node">
            <title>Node26</title>
            <g id="a_node27">
                <a xlink:href="../../dd/df9/_drug_8hpp.html" target="_top" xlink:title="Drug.hpp">
                    <polygon fill="none" stroke="#000000"
                             points="1027.1182,-110.5 1027.1182,-128.5 1084.2559,-128.5 1084.2559,-110.5 1027.1182,-110.5"/>
                    <text text-anchor="middle" x="1055.687" y="-116.5" font-family="Helvetica,sans-Serif"
                          font-size="10.00" fill="#000000">Drug.hpp
                    </text>
                </a>
            </g>
        </g>
        <!-- Node25&#45;&gt;Node26 -->
        <g id="edge34" class="edge">
            <title>Node25&#45;&gt;Node26</title>
            <path fill="none" stroke="#191970"
                  d="M1103.2746,-165.4179C1094.9911,-157.425 1082.7261,-145.5903 1072.7225,-135.9377"/>
            <polygon fill="#191970" stroke="#191970"
                     points="1074.9304,-133.2045 1065.3039,-128.7795 1070.0698,-138.2419 1074.9304,-133.2045"/>
        </g>
        <!-- Node26&#45;&gt;Node20 -->
        <g id="edge36" class="edge">
            <title>Node26&#45;&gt;Node20</title>
            <path fill="none" stroke="#191970"
                  d="M1026.724,-111.0268C992.2258,-100.9342 934.8043,-84.1354 899.2145,-73.7235"/>
            <polygon fill="#191970" stroke="#191970"
                     points="899.9367,-70.2881 889.3562,-70.8394 897.9712,-77.0065 899.9367,-70.2881"/>
        </g>
        <!-- Node26&#45;&gt;Node21 -->
        <g id="edge35" class="edge">
            <title>Node26&#45;&gt;Node21</title>
            <path fill="none" stroke="#191970"
                  d="M1082.9968,-110.3487C1100.6881,-103.0983 1122.9178,-91.2826 1136.687,-74 1147.0186,-61.0322 1151.7345,-42.5998 1153.8858,-28.758"/>
            <polygon fill="#191970" stroke="#191970"
                     points="1157.3591,-29.1889 1155.1196,-18.8335 1150.4126,-28.3253 1157.3591,-29.1889"/>
        </g>
        <!-- Node26&#45;&gt;Node22 -->
        <g id="edge38" class="edge">
            <title>Node26&#45;&gt;Node22</title>
            <path fill="none" stroke="#191970"
                  d="M1084.2574,-112.7559C1123.0891,-103.5896 1193.0813,-87.0679 1240.2115,-75.9427"/>
            <polygon fill="#191970" stroke="#191970"
                     points="1241.2671,-79.2898 1250.1955,-73.586 1239.6588,-72.4771 1241.2671,-79.2898"/>
        </g>
        <!-- Node26&#45;&gt;Node23 -->
        <g id="edge39" class="edge">
            <title>Node26&#45;&gt;Node23</title>
            <path fill="none" stroke="#191970"
                  d="M1055.687,-110.4179C1055.687,-103.2164 1055.687,-92.8962 1055.687,-83.8632"/>
            <polygon fill="#191970" stroke="#191970"
                     points="1059.1871,-83.7794 1055.687,-73.7795 1052.1871,-83.7795 1059.1871,-83.7794"/>
        </g>
        <!-- Node26&#45;&gt;Node24 -->
        <g id="edge37" class="edge">
            <title>Node26&#45;&gt;Node24</title>
            <path fill="none" stroke="#191970"
                  d="M1028.3772,-110.3487C1010.6859,-103.0983 988.4563,-91.2826 974.687,-74 964.3554,-61.0322 959.6395,-42.5998 957.4882,-28.758"/>
            <polygon fill="#191970" stroke="#191970"
                     points="960.9615,-28.3253 956.2545,-18.8335 954.0149,-29.1889 960.9615,-28.3253"/>
        </g>
        <!-- Node27&#45;&gt;Node20 -->
        <g id="edge44" class="edge">
            <title>Node27&#45;&gt;Node20</title>
            <path fill="none" stroke="#191970"
                  d="M797.5579,-110.4179C810.4467,-101.9788 829.8764,-89.257 845.0184,-79.3426"/>
            <polygon fill="#191970" stroke="#191970"
                     points="847.3466,-82.0017 853.7955,-73.5956 843.512,-76.1454 847.3466,-82.0017"/>
        </g>
        <!-- Node27&#45;&gt;Node21 -->
        <g id="edge42" class="edge">
            <title>Node27&#45;&gt;Node21</title>
            <path fill="none" stroke="#191970"
                  d="M788.39,-110.1659C796.2324,-95.6741 813.443,-68.0726 836.687,-55 885.748,-27.4078 1054.791,-15.0796 1124.8718,-11.0677"/>
            <polygon fill="#191970" stroke="#191970"
                     points="1125.4449,-14.5415 1135.2362,-10.4942 1125.058,-7.5522 1125.4449,-14.5415"/>
        </g>
        <!-- Node27&#45;&gt;Node23 -->
        <g id="edge45" class="edge">
            <title>Node27&#45;&gt;Node23</title>
            <path fill="none" stroke="#191970"
                  d="M827.6908,-110.6022C874.9118,-101.0538 949.9884,-85.8729 1000.9797,-75.5621"/>
            <polygon fill="#191970" stroke="#191970"
                     points="1001.7335,-78.9806 1010.8414,-73.568 1000.3461,-72.1195 1001.7335,-78.9806"/>
        </g>
        <!-- Node28 -->
        <g id="node29" class="node">
            <title>Node28</title>
            <polygon fill="none" stroke="#bfbfbf"
                     points="660.064,-55.5 660.064,-73.5 713.3101,-73.5 713.3101,-55.5 660.064,-55.5"/>
            <text text-anchor="middle" x="686.687" y="-61.5" font-family="Helvetica,sans-Serif" font-size="10.00"
                  fill="#000000">sqlite3.h
            </text>
        </g>
        <!-- Node27&#45;&gt;Node28 -->
        <g id="edge41" class="edge">
            <title>Node27&#45;&gt;Node28</title>
            <path fill="none" stroke="#191970"
                  d="M767.6694,-110.4179C752.5051,-101.8195 729.5,-88.7754 711.8795,-78.7844"/>
            <polygon fill="#191970" stroke="#191970"
                     points="713.1537,-75.4834 702.7284,-73.5956 709.701,-81.5727 713.1537,-75.4834"/>
        </g>
        <!-- Node29 -->
        <g id="node30" class="node">
            <title>Node29</title>
            <polygon fill="none" stroke="#bfbfbf"
                     points="731.2856,-55.5 731.2856,-73.5 790.0884,-73.5 790.0884,-55.5 731.2856,-55.5"/>
            <text text-anchor="middle" x="760.687" y="-61.5" font-family="Helvetica,sans-Serif" font-size="10.00"
                  fill="#000000">stdexcept
            </text>
        </g>
        <!-- Node27&#45;&gt;Node29 -->
        <g id="edge43" class="edge">
            <title>Node27&#45;&gt;Node29</title>
            <path fill="none" stroke="#191970"
                  d="M779.889,-110.4179C776.8113,-103.0581 772.3714,-92.441 768.5361,-83.2695"/>
            <polygon fill="#191970" stroke="#191970"
                     points="771.6547,-81.6549 764.5675,-73.7795 765.1966,-84.3556 771.6547,-81.6549"/>
        </g>
        <!-- Node30&#45;&gt;Node8 -->
        <g id="edge48" class="edge">
            <title>Node30&#45;&gt;Node8</title>
            <path fill="none" stroke="#191970"
                  d="M686.174,-165.4179C670.396,-156.7399 646.3842,-143.5334 628.1555,-133.5077"/>
            <polygon fill="#191970" stroke="#191970"
                     points="629.6734,-130.3481 619.2245,-128.5956 626.2999,-136.4816 629.6734,-130.3481"/>
        </g>
        <!-- Node30&#45;&gt;Node20 -->
        <g id="edge49" class="edge">
            <title>Node30&#45;&gt;Node20</title>
            <path fill="none" stroke="#191970"
                  d="M760.2781,-165.4333C786.0976,-158.9182 815.4482,-147.8186 836.687,-129 850.1735,-117.0503 858.3286,-97.9388 862.8645,-83.6154"/>
            <polygon fill="#191970" stroke="#191970"
                     points="866.2888,-84.3695 865.6561,-73.7936 859.5555,-82.4557 866.2888,-84.3695"/>
        </g>
        <!-- Node30&#45;&gt;Node27 -->
        <g id="edge47" class="edge">
            <title>Node30&#45;&gt;Node27</title>
            <path fill="none" stroke="#191970"
                  d="M716.0625,-165.4179C728.491,-156.9788 747.2267,-144.257 761.828,-134.3426"/>
            <polygon fill="#191970" stroke="#191970"
                     points="763.9847,-137.1088 770.2916,-128.5956 760.0524,-131.3176 763.9847,-137.1088"/>
        </g>
        <!-- Node31 -->
        <g id="node32" class="node">
            <title>Node31</title>
            <polygon fill="none" stroke="#bfbfbf"
                     points="683.8447,-110.5 683.8447,-128.5 721.5293,-128.5 721.5293,-110.5 683.8447,-110.5"/>
            <text text-anchor="middle" x="702.687" y="-116.5" font-family="Helvetica,sans-Serif" font-size="10.00"
                  fill="#000000">tuple
            </text>
        </g>
        <!-- Node30&#45;&gt;Node31 -->
        <g id="edge50" class="edge">
            <title>Node30&#45;&gt;Node31</title>
            <path fill="none" stroke="#191970"
                  d="M702.687,-165.4179C702.687,-158.2164 702.687,-147.8962 702.687,-138.8632"/>
            <polygon fill="#191970" stroke="#191970"
                     points="706.1871,-138.7794 702.687,-128.7795 699.1871,-138.7795 706.1871,-138.7794"/>
        </g>
    </g>
</svg>
