<?xml version="1.0" encoding="UTF-8" standalone="no"?>
<!DOCTYPE svg PUBLIC "-//W3C//DTD SVG 1.1//EN"
        "http://www.w3.org/Graphics/SVG/1.1/DTD/svg11.dtd">
<!-- Generated by graphviz version 2.40.1 (20161225.0304)
 -->
<!-- Title: code/gui/AddPatientDialog.cpp Pages: 1 -->
<svg width="1868pt" height="302pt"
     viewBox="0.00 0.00 1867.95 302.00" xmlns="http://www.w3.org/2000/svg" xmlns:xlink="http://www.w3.org/1999/xlink">
    <g id="graph0" class="graph" transform="scale(1 1) rotate(0) translate(4 298)">
        <title>code/gui/AddPatientDialog.cpp</title>
        <!-- Node0 -->
        <g id="node1" class="node">
            <title>Node0</title>
            <polygon fill="#bfbfbf" stroke="#000000"
                     points="1399.7266,-275.5 1399.7266,-293.5 1552.4893,-293.5 1552.4893,-275.5 1399.7266,-275.5"/>
            <text text-anchor="middle" x="1476.108" y="-281.5" font-family="Helvetica,sans-Serif" font-size="10.00"
                  fill="#000000">code/gui/AddPatientDialog.cpp
            </text>
        </g>
        <!-- Node1 -->
        <g id="node2" class="node">
            <title>Node1</title>
            <polygon fill="none" stroke="#bfbfbf"
                     points="255.0811,-220.5 255.0811,-238.5 341.1348,-238.5 341.1348,-220.5 255.0811,-220.5"/>
            <text text-anchor="middle" x="298.108" y="-226.5" font-family="Helvetica,sans-Serif" font-size="10.00"
                  fill="#000000">spdlog/spdlog.h
            </text>
        </g>
        <!-- Node0&#45;&gt;Node1 -->
        <g id="edge1" class="edge">
            <title>Node0&#45;&gt;Node1</title>
            <path fill="none" stroke="#191970"
                  d="M1399.4918,-282.8068C1183.7522,-277.8193 573.0267,-262.1336 351.1227,-238.9232"/>
            <polygon fill="#191970" stroke="#191970"
                     points="351.4877,-235.4423 341.1695,-237.8477 350.7356,-242.4018 351.4877,-235.4423"/>
        </g>
        <!-- Node2 -->
        <g id="node3" class="node">
            <title>Node2</title>
            <g id="a_node3">
                <a xlink:href="../../d2/dac/_add_patient_dialog_8hpp.html" target="_top"
                   xlink:title="AddPatientDialog.hpp">
                    <polygon fill="none" stroke="#000000"
                             points="358.7388,-220.5 358.7388,-238.5 471.4771,-238.5 471.4771,-220.5 358.7388,-220.5"/>
                    <text text-anchor="middle" x="415.108" y="-226.5" font-family="Helvetica,sans-Serif"
                          font-size="10.00" fill="#000000">AddPatientDialog.hpp
                    </text>
                </a>
            </g>
        </g>
        <!-- Node0&#45;&gt;Node2 -->
        <g id="edge2" class="edge">
            <title>Node0&#45;&gt;Node2</title>
            <path fill="none" stroke="#191970"
                  d="M1399.3767,-280.5224C1200.2424,-270.1997 669.4174,-242.6829 481.8758,-232.9611"/>
            <polygon fill="#191970" stroke="#191970"
                     points="481.7796,-229.4515 471.6118,-232.429 481.4172,-236.4421 481.7796,-229.4515"/>
        </g>
        <!-- Node23 -->
        <g id="node24" class="node">
            <title>Node23</title>
            <g id="a_node24">
                <a xlink:href="../../dc/db8/_ref_builder_8hpp.html" target="_top" xlink:title="RefBuilder.hpp">
                    <polygon fill="none" stroke="#000000"
                             points="1715.3052,-220.5 1715.3052,-238.5 1796.9107,-238.5 1796.9107,-220.5 1715.3052,-220.5"/>
                    <text text-anchor="middle" x="1756.108" y="-226.5" font-family="Helvetica,sans-Serif"
                          font-size="10.00" fill="#000000">RefBuilder.hpp
                    </text>
                </a>
            </g>
        </g>
        <!-- Node0&#45;&gt;Node23 -->
        <g id="edge25" class="edge">
            <title>Node0&#45;&gt;Node23</title>
            <path fill="none" stroke="#191970"
                  d="M1522.0308,-275.4795C1572.3565,-265.594 1652.8688,-249.7791 1705.1188,-239.5157"/>
            <polygon fill="#191970" stroke="#191970"
                     points="1706.0368,-242.9024 1715.1746,-237.5405 1704.6875,-236.0336 1706.0368,-242.9024"/>
        </g>
        <!-- Node25 -->
        <g id="node26" class="node">
            <title>Node25</title>
            <g id="a_node26">
                <a xlink:href="../../d0/da9/_patient_8hpp.html" target="_top" xlink:title="../model/Patient.hpp">
                    <polygon fill="none" stroke="#000000"
                             points="1285.6353,-220.5 1285.6353,-238.5 1390.5806,-238.5 1390.5806,-220.5 1285.6353,-220.5"/>
                    <text text-anchor="middle" x="1338.108" y="-226.5" font-family="Helvetica,sans-Serif"
                          font-size="10.00" fill="#000000">../model/Patient.hpp
                    </text>
                </a>
            </g>
        </g>
        <!-- Node0&#45;&gt;Node25 -->
        <g id="edge27" class="edge">
            <title>Node0&#45;&gt;Node25</title>
            <path fill="none" stroke="#191970"
                  d="M1453.3201,-275.4179C1430.7473,-266.4215 1395.9627,-252.5581 1370.5183,-242.4172"/>
            <polygon fill="#191970" stroke="#191970"
                     points="1371.515,-239.0467 1360.9297,-238.5956 1368.9233,-245.5493 1371.515,-239.0467"/>
        </g>
        <!-- Node32 -->
        <g id="node33" class="node">
            <title>Node32</title>
            <g id="a_node33">
                <a xlink:href="../../d7/d0f/_d_b_master_8hpp.html" target="_top" xlink:title="../DBMaster.hpp">
                    <polygon fill="none" stroke="#000000"
                             points="1583.2559,-110.5 1583.2559,-128.5 1670.96,-128.5 1670.96,-110.5 1583.2559,-110.5"/>
                    <text text-anchor="middle" x="1627.108" y="-116.5" font-family="Helvetica,sans-Serif"
                          font-size="10.00" fill="#000000">../DBMaster.hpp
                    </text>
                </a>
            </g>
        </g>
        <!-- Node0&#45;&gt;Node32 -->
        <g id="edge49" class="edge">
            <title>Node0&#45;&gt;Node32</title>
            <path fill="none" stroke="#191970"
                  d="M1484.659,-275.1561C1509.1603,-248.3832 1579.8827,-171.1038 1611.5054,-136.5492"/>
            <polygon fill="#191970" stroke="#191970"
                     points="1614.4815,-138.4814 1618.6507,-128.7414 1609.3175,-133.7556 1614.4815,-138.4814"/>
        </g>
        <!-- Node35 -->
        <g id="node36" class="node">
            <title>Node35</title>
            <g id="a_node36">
                <a xlink:href="../../dc/d00/_authentication_8hpp.html" target="_top"
                   xlink:title="../model/Authentication.hpp">
                    <polygon fill="none" stroke="#000000"
                             points="1598.5123,-165.5 1598.5123,-183.5 1735.7037,-183.5 1735.7037,-165.5 1598.5123,-165.5"/>
                    <text text-anchor="middle" x="1667.108" y="-171.5" font-family="Helvetica,sans-Serif"
                          font-size="10.00" fill="#000000">../model/Authentication.hpp
                    </text>
                </a>
            </g>
        </g>
        <!-- Node0&#45;&gt;Node35 -->
        <g id="edge55" class="edge">
            <title>Node0&#45;&gt;Node35</title>
            <path fill="none" stroke="#191970"
                  d="M1502.7769,-275.4886C1525.2188,-267.3908 1557.7709,-254.4199 1584.108,-239 1608.2475,-224.8667 1633.2358,-204.5344 1649.4023,-190.4934"/>
            <polygon fill="#191970" stroke="#191970"
                     points="1651.817,-193.0305 1657.001,-183.7905 1647.1864,-187.781 1651.817,-193.0305"/>
        </g>
        <!-- Node3 -->
        <g id="node4" class="node">
            <title>Node3</title>
            <polygon fill="none" stroke="#bfbfbf"
                     points="340.8018,-110.5 340.8018,-128.5 419.4141,-128.5 419.4141,-110.5 340.8018,-110.5"/>
            <text text-anchor="middle" x="380.108" y="-116.5" font-family="Helvetica,sans-Serif" font-size="10.00"
                  fill="#000000">gtkmm/entry.h
            </text>
        </g>
        <!-- Node2&#45;&gt;Node3 -->
        <g id="edge3" class="edge">
            <title>Node2&#45;&gt;Node3</title>
            <path fill="none" stroke="#191970"
                  d="M411.7821,-220.4822C408.4453,-211.3356 403.2244,-196.7495 399.108,-184 394.2255,-168.8779 389.1632,-151.6007 385.4929,-138.736"/>
            <polygon fill="#191970" stroke="#191970"
                     points="388.7532,-137.4027 382.6653,-128.7317 382.0171,-139.3066 388.7532,-137.4027"/>
        </g>
        <!-- Node4 -->
        <g id="node5" class="node">
            <title>Node4</title>
            <polygon fill="none" stroke="#bfbfbf"
                     points="407.6475,-165.5 407.6475,-183.5 492.5684,-183.5 492.5684,-165.5 407.6475,-165.5"/>
            <text text-anchor="middle" x="450.108" y="-171.5" font-family="Helvetica,sans-Serif" font-size="10.00"
                  fill="#000000">gtkmm/button.h
            </text>
        </g>
        <!-- Node2&#45;&gt;Node4 -->
        <g id="edge4" class="edge">
            <title>Node2&#45;&gt;Node4</title>
            <path fill="none" stroke="#191970"
                  d="M420.8875,-220.4179C425.7221,-212.8207 432.7654,-201.7527 438.7256,-192.3866"/>
            <polygon fill="#191970" stroke="#191970"
                     points="441.7869,-194.0952 444.2029,-183.7795 435.8813,-190.337 441.7869,-194.0952"/>
        </g>
        <!-- Node5 -->
        <g id="node6" class="node">
            <title>Node5</title>
            <polygon fill="none" stroke="#bfbfbf"
                     points="13.421,-110.5 13.421,-128.5 132.795,-128.5 132.795,-110.5 13.421,-110.5"/>
            <text text-anchor="middle" x="73.108" y="-116.5" font-family="Helvetica,sans-Serif" font-size="10.00"
                  fill="#000000">gtkmm/comboboxtext.h
            </text>
        </g>
        <!-- Node2&#45;&gt;Node5 -->
        <g id="edge5" class="edge">
            <title>Node2&#45;&gt;Node5</title>
            <path fill="none" stroke="#191970"
                  d="M372.8378,-220.4671C336.0756,-212.2204 281.5645,-199.048 235.108,-184 187.8684,-168.6984 134.6559,-146.5248 102.5192,-132.5678"/>
            <polygon fill="#191970" stroke="#191970"
                     points="103.8171,-129.3154 93.2524,-128.5168 101.0132,-135.7293 103.8171,-129.3154"/>
        </g>
        <!-- Node6 -->
        <g id="node7" class="node">
            <title>Node6</title>
            <g id="a_node7">
                <a xlink:href="../../dc/de6/_dialog_8hpp.html" target="_top" xlink:title="Dialog.hpp">
                    <polygon fill="none" stroke="#000000"
                             points="536.2017,-165.5 536.2017,-183.5 600.0142,-183.5 600.0142,-165.5 536.2017,-165.5"/>
                    <text text-anchor="middle" x="568.108" y="-171.5" font-family="Helvetica,sans-Serif"
                          font-size="10.00" fill="#000000">Dialog.hpp
                    </text>
                </a>
            </g>
        </g>
        <!-- Node2&#45;&gt;Node6 -->
        <g id="edge6" class="edge">
            <title>Node2&#45;&gt;Node6</title>
            <path fill="none" stroke="#191970"
                  d="M440.3728,-220.4179C465.8073,-211.2748 505.2261,-197.1046 533.5466,-186.924"/>
            <polygon fill="#191970" stroke="#191970"
                     points="534.8335,-190.1808 543.0599,-183.5042 532.4654,-183.5935 534.8335,-190.1808"/>
        </g>
        <!-- Node14 -->
        <g id="node15" class="node">
            <title>Node14</title>
            <g id="a_node15">
                <a xlink:href="../../dc/d55/_widgets_8hpp.html" target="_top" xlink:title="Widgets.hpp">
                    <polygon fill="none" stroke="#000000"
                             points="244.315,-165.5 244.315,-183.5 315.901,-183.5 315.901,-165.5 244.315,-165.5"/>
                    <text text-anchor="middle" x="280.108" y="-171.5" font-family="Helvetica,sans-Serif"
                          font-size="10.00" fill="#000000">Widgets.hpp
                    </text>
                </a>
            </g>
        </g>
        <!-- Node2&#45;&gt;Node14 -->
        <g id="edge14" class="edge">
            <title>Node2&#45;&gt;Node14</title>
            <path fill="none" stroke="#191970"
                  d="M392.8155,-220.4179C370.7334,-211.4215 336.705,-197.5581 311.8137,-187.4172"/>
            <polygon fill="#191970" stroke="#191970"
                     points="313.0151,-184.1273 302.4336,-183.5956 310.374,-190.61 313.0151,-184.1273"/>
        </g>
        <!-- Node18 -->
        <g id="node19" class="node">
            <title>Node18</title>
            <g id="a_node19">
                <a xlink:href="../../d2/dce/string_utils_8hpp.html" target="_top"
                   xlink:title="../utils/stringUtils.hpp">
                    <polygon fill="none" stroke="#000000"
                             points="478.9801,-55.5 478.9801,-73.5 587.2359,-73.5 587.2359,-55.5 478.9801,-55.5"/>
                    <text text-anchor="middle" x="533.108" y="-61.5" font-family="Helvetica,sans-Serif"
                          font-size="10.00" fill="#000000">../utils/stringUtils.hpp
                    </text>
                </a>
            </g>
        </g>
        <!-- Node2&#45;&gt;Node18 -->
        <g id="edge20" class="edge">
            <title>Node2&#45;&gt;Node18</title>
            <path fill="none" stroke="#191970"
                  d="M362.2935,-220.4428C256.2169,-201.711 25.5292,-158.0395 4.108,-129 -.9049,-122.2044 -1.6016,-116.2217 4.108,-110 34.935,-76.4077 334.0713,-67.5621 468.3873,-65.2767"/>
            <polygon fill="#191970" stroke="#191970"
                     points="468.6001,-68.7738 478.5417,-65.1111 468.4859,-61.7747 468.6001,-68.7738"/>
        </g>
        <!-- Node7 -->
        <g id="node8" class="node">
            <title>Node7</title>
            <polygon fill="none" stroke="#bfbfbf"
                     points="437.5294,-110.5 437.5294,-128.5 534.6866,-128.5 534.6866,-110.5 437.5294,-110.5"/>
            <text text-anchor="middle" x="486.108" y="-116.5" font-family="Helvetica,sans-Serif" font-size="10.00"
                  fill="#000000">sigc++/trackable.h
            </text>
        </g>
        <!-- Node6&#45;&gt;Node7 -->
        <g id="edge7" class="edge">
            <title>Node6&#45;&gt;Node7</title>
            <path fill="none" stroke="#191970"
                  d="M554.5674,-165.4179C541.9854,-156.9788 523.0184,-144.257 508.2369,-134.3426"/>
            <polygon fill="#191970" stroke="#191970"
                     points="509.9233,-131.2593 499.6687,-128.5956 506.024,-137.0727 509.9233,-131.2593"/>
        </g>
        <!-- Node8 -->
        <g id="node9" class="node">
            <title>Node8</title>
            <polygon fill="none" stroke="#bfbfbf"
                     points="552.2042,-110.5 552.2042,-128.5 636.0118,-128.5 636.0118,-110.5 552.2042,-110.5"/>
            <text text-anchor="middle" x="594.108" y="-116.5" font-family="Helvetica,sans-Serif" font-size="10.00"
                  fill="#000000">gtkmm/dialog.h
            </text>
        </g>
        <!-- Node6&#45;&gt;Node8 -->
        <g id="edge8" class="edge">
            <title>Node6&#45;&gt;Node8</title>
            <path fill="none" stroke="#191970"
                  d="M572.4014,-165.4179C575.9179,-157.9789 581.0076,-147.2123 585.3747,-137.9742"/>
            <polygon fill="#191970" stroke="#191970"
                     points="588.6117,-139.316 589.7213,-128.7795 582.2832,-136.3243 588.6117,-139.316"/>
        </g>
        <!-- Node9 -->
        <g id="node10" class="node">
            <title>Node9</title>
            <g id="a_node10">
                <a xlink:href="../../d1/d25/_i_subject_8hpp.html" target="_top"
                   xlink:title="../interfaces/ISubject.hpp">
                    <polygon fill="none" stroke="#000000"
                             points="654.0762,-110.5 654.0762,-128.5 780.1397,-128.5 780.1397,-110.5 654.0762,-110.5"/>
                    <text text-anchor="middle" x="717.108" y="-116.5" font-family="Helvetica,sans-Serif"
                          font-size="10.00" fill="#000000">../interfaces/ISubject.hpp
                    </text>
                </a>
            </g>
        </g>
        <!-- Node6&#45;&gt;Node9 -->
        <g id="edge9" class="edge">
            <title>Node6&#45;&gt;Node9</title>
            <path fill="none" stroke="#191970"
                  d="M592.7123,-165.4179C617.3001,-156.3419 655.3074,-142.3123 682.8412,-132.1488"/>
            <polygon fill="#191970" stroke="#191970"
                     points="684.2979,-135.342 692.4671,-128.5956 681.8738,-128.7751 684.2979,-135.342"/>
        </g>
        <!-- Node10 -->
        <g id="node11" class="node">
            <title>Node10</title>
            <polygon fill="none" stroke="#bfbfbf"
                     points="702.4381,-55.5 702.4381,-73.5 731.7779,-73.5 731.7779,-55.5 702.4381,-55.5"/>
            <text text-anchor="middle" x="717.108" y="-61.5" font-family="Helvetica,sans-Serif" font-size="10.00"
                  fill="#000000">set
            </text>
        </g>
        <!-- Node9&#45;&gt;Node10 -->
        <g id="edge10" class="edge">
            <title>Node9&#45;&gt;Node10</title>
            <path fill="none" stroke="#191970"
                  d="M717.108,-110.4179C717.108,-103.2164 717.108,-92.8962 717.108,-83.8632"/>
            <polygon fill="#191970" stroke="#191970"
                     points="720.6081,-83.7794 717.108,-73.7795 713.6081,-83.7795 720.6081,-83.7794"/>
        </g>
        <!-- Node11 -->
        <g id="node12" class="node">
            <title>Node11</title>
            <g id="a_node12">
                <a xlink:href="../../d5/d40/_i_observer_8hpp.html" target="_top" xlink:title="IObserver.hpp">
                    <polygon fill="none" stroke="#000000"
                             points="605.6993,-55.5 605.6993,-73.5 684.5167,-73.5 684.5167,-55.5 605.6993,-55.5"/>
                    <text text-anchor="middle" x="645.108" y="-61.5" font-family="Helvetica,sans-Serif"
                          font-size="10.00" fill="#000000">IObserver.hpp
                    </text>
                </a>
            </g>
        </g>
        <!-- Node9&#45;&gt;Node11 -->
        <g id="edge11" class="edge">
            <title>Node9&#45;&gt;Node11</title>
            <path fill="none" stroke="#191970"
                  d="M705.2186,-110.4179C694.4444,-102.1876 678.3378,-89.8839 665.5083,-80.0836"/>
            <polygon fill="#191970" stroke="#191970"
                     points="667.327,-77.0685 657.2556,-73.7795 663.0777,-82.6313 667.327,-77.0685"/>
        </g>
        <!-- Node12 -->
        <g id="node13" class="node">
            <title>Node12</title>
            <polygon fill="none" stroke="#bfbfbf"
                     points="673.4923,-.5 673.4923,-18.5 716.7237,-18.5 716.7237,-.5 673.4923,-.5"/>
            <text text-anchor="middle" x="695.108" y="-6.5" font-family="Helvetica,sans-Serif" font-size="10.00"
                  fill="#000000">mutex
            </text>
        </g>
        <!-- Node11&#45;&gt;Node12 -->
        <g id="edge12" class="edge">
            <title>Node11&#45;&gt;Node12</title>
            <path fill="none" stroke="#191970"
                  d="M653.3645,-55.4179C660.5588,-47.5041 671.1768,-35.8243 679.9034,-26.2251"/>
            <polygon fill="#191970" stroke="#191970"
                     points="682.5352,-28.5332 686.6721,-18.7795 677.3556,-23.8245 682.5352,-28.5332"/>
        </g>
        <!-- Node13 -->
        <g id="node14" class="node">
            <title>Node13</title>
            <polygon fill="none" stroke="#bfbfbf"
                     points="610.9307,-.5 610.9307,-18.5 655.2852,-18.5 655.2852,-.5 610.9307,-.5"/>
            <text text-anchor="middle" x="633.108" y="-6.5" font-family="Helvetica,sans-Serif" font-size="10.00"
                  fill="#000000">thread
            </text>
        </g>
        <!-- Node11&#45;&gt;Node13 -->
        <g id="edge13" class="edge">
            <title>Node11&#45;&gt;Node13</title>
            <path fill="none" stroke="#191970"
                  d="M643.1264,-55.4179C641.5379,-48.1372 639.2539,-37.669 637.2678,-28.5659"/>
            <polygon fill="#191970" stroke="#191970"
                     points="640.6839,-27.8035 635.1326,-18.7795 633.8448,-29.2957 640.6839,-27.8035"/>
        </g>
        <!-- Node14&#45;&gt;Node3 -->
        <g id="edge15" class="edge">
            <title>Node14&#45;&gt;Node3</title>
            <path fill="none" stroke="#191970"
                  d="M296.6209,-165.4179C312.399,-156.7399 336.4108,-143.5334 354.6395,-133.5077"/>
            <polygon fill="#191970" stroke="#191970"
                     points="356.495,-136.4816 363.5705,-128.5956 353.1216,-130.3481 356.495,-136.4816"/>
        </g>
        <!-- Node14&#45;&gt;Node5 -->
        <g id="edge16" class="edge">
            <title>Node14&#45;&gt;Node5</title>
            <path fill="none" stroke="#191970"
                  d="M245.9261,-165.4179C210.6132,-156.0352 155.3758,-141.3586 116.8873,-131.1322"/>
            <polygon fill="#191970" stroke="#191970"
                     points="117.56,-127.6896 106.9966,-128.5042 115.7624,-134.4548 117.56,-127.6896"/>
        </g>
        <!-- Node15 -->
        <g id="node16" class="node">
            <title>Node15</title>
            <polygon fill="none" stroke="#bfbfbf"
                     points="150.4356,-110.5 150.4356,-128.5 219.7803,-128.5 219.7803,-110.5 150.4356,-110.5"/>
            <text text-anchor="middle" x="185.108" y="-116.5" font-family="Helvetica,sans-Serif" font-size="10.00"
                  fill="#000000">fmt/format.h
            </text>
        </g>
        <!-- Node14&#45;&gt;Node15 -->
        <g id="edge17" class="edge">
            <title>Node14&#45;&gt;Node15</title>
            <path fill="none" stroke="#191970"
                  d="M264.4207,-165.4179C249.569,-156.8195 227.0382,-143.7754 209.7811,-133.7844"/>
            <polygon fill="#191970" stroke="#191970"
                     points="211.2265,-130.577 200.8186,-128.5956 207.7192,-136.635 211.2265,-130.577"/>
        </g>
        <!-- Node16 -->
        <g id="node17" class="node">
            <title>Node16</title>
            <g id="a_node17">
                <a xlink:href="../../d8/d63/_date_8hpp.html" target="_top" xlink:title="../utils/Date.hpp">
                    <polygon fill="none" stroke="#000000"
                             points="237.3668,-110.5 237.3668,-128.5 322.8492,-128.5 322.8492,-110.5 237.3668,-110.5"/>
                    <text text-anchor="middle" x="280.108" y="-116.5" font-family="Helvetica,sans-Serif"
                          font-size="10.00" fill="#000000">../utils/Date.hpp
                    </text>
                </a>
            </g>
        </g>
        <!-- Node14&#45;&gt;Node16 -->
        <g id="edge18" class="edge">
            <title>Node14&#45;&gt;Node16</title>
            <path fill="none" stroke="#191970"
                  d="M280.108,-165.4179C280.108,-158.2164 280.108,-147.8962 280.108,-138.8632"/>
            <polygon fill="#191970" stroke="#191970"
                     points="283.6081,-138.7794 280.108,-128.7795 276.6081,-138.7795 283.6081,-138.7794"/>
        </g>
        <!-- Node17 -->
        <g id="node18" class="node">
            <title>Node17</title>
            <polygon fill="none" stroke="#bfbfbf"
                     points="787.9356,-55.5 787.9356,-73.5 842.2803,-73.5 842.2803,-55.5 787.9356,-55.5"/>
            <text text-anchor="middle" x="815.108" y="-61.5" font-family="Helvetica,sans-Serif" font-size="10.00"
                  fill="#000000">iostream
            </text>
        </g>
        <!-- Node16&#45;&gt;Node17 -->
        <g id="edge19" class="edge">
            <title>Node16&#45;&gt;Node17</title>
            <path fill="none" stroke="#191970"
                  d="M322.9065,-111.3556C326.0152,-110.864 329.1068,-110.4053 332.108,-110 512.9467,-85.5762 559.6854,-93.6218 741.108,-74 753.06,-72.7073 766.0723,-71.1033 777.8051,-69.5835"/>
            <polygon fill="#191970" stroke="#191970"
                     points="778.2688,-73.0528 787.7275,-68.2796 777.3568,-66.1124 778.2688,-73.0528"/>
        </g>
        <!-- Node19 -->
        <g id="node20" class="node">
            <title>Node19</title>
            <polygon fill="none" stroke="#bfbfbf"
                     points="944.8814,-.5 944.8814,-18.5 985.3345,-18.5 985.3345,-.5 944.8814,-.5"/>
            <text text-anchor="middle" x="965.108" y="-6.5" font-family="Helvetica,sans-Serif" font-size="10.00"
                  fill="#000000">string
            </text>
        </g>
        <!-- Node18&#45;&gt;Node19 -->
        <g id="edge21" class="edge">
            <title>Node18&#45;&gt;Node19</title>
            <path fill="none" stroke="#191970"
                  d="M587.5624,-56.3248C590.7911,-55.8687 593.9915,-55.4239 597.108,-55 722.2297,-37.9811 871.6602,-20.3299 934.6896,-13.007"/>
            <polygon fill="#191970" stroke="#191970"
                     points="935.2092,-16.4703 944.7396,-11.842 934.4031,-9.5169 935.2092,-16.4703"/>
        </g>
        <!-- Node20 -->
        <g id="node21" class="node">
            <title>Node20</title>
            <polygon fill="none" stroke="#bfbfbf"
                     points="452.3272,-.5 452.3272,-18.5 503.8887,-18.5 503.8887,-.5 452.3272,-.5"/>
            <text text-anchor="middle" x="478.108" y="-6.5" font-family="Helvetica,sans-Serif" font-size="10.00"
                  fill="#000000">sstream
            </text>
        </g>
        <!-- Node18&#45;&gt;Node20 -->
        <g id="edge22" class="edge">
            <title>Node18&#45;&gt;Node20</title>
            <path fill="none" stroke="#191970"
                  d="M524.0259,-55.4179C516.033,-47.425 504.1983,-35.5903 494.5457,-25.9377"/>
            <polygon fill="#191970" stroke="#191970"
                     points="496.9334,-23.3757 487.3874,-18.7795 491.9837,-28.3254 496.9334,-23.3757"/>
        </g>
        <!-- Node21 -->
        <g id="node22" class="node">
            <title>Node21</title>
            <polygon fill="none" stroke="#bfbfbf"
                     points="1472.4923,-.5 1472.4923,-18.5 1515.7237,-18.5 1515.7237,-.5 1472.4923,-.5"/>
            <text text-anchor="middle" x="1494.108" y="-6.5" font-family="Helvetica,sans-Serif" font-size="10.00"
                  fill="#000000">vector
            </text>
        </g>
        <!-- Node18&#45;&gt;Node21 -->
        <g id="edge23" class="edge">
            <title>Node18&#45;&gt;Node21</title>
            <path fill="none" stroke="#191970"
                  d="M587.5304,-56.0523C590.7671,-55.6647 593.978,-55.3094 597.108,-55 917.721,-23.3099 999.3727,-35.8326 1321.108,-19 1370.3811,-16.4221 1427.5374,-13.2475 1462.2451,-11.2992"/>
            <polygon fill="#191970" stroke="#191970"
                     points="1462.4745,-14.7919 1472.2622,-10.736 1462.0815,-7.803 1462.4745,-14.7919"/>
        </g>
        <!-- Node22 -->
        <g id="node23" class="node">
            <title>Node22</title>
            <polygon fill="none" stroke="#bfbfbf"
                     points="521.5465,-.5 521.5465,-18.5 568.6695,-18.5 568.6695,-.5 521.5465,-.5"/>
            <text text-anchor="middle" x="545.108" y="-6.5" font-family="Helvetica,sans-Serif" font-size="10.00"
                  fill="#000000">iterator
            </text>
        </g>
        <!-- Node18&#45;&gt;Node22 -->
        <g id="edge24" class="edge">
            <title>Node18&#45;&gt;Node22</title>
            <path fill="none" stroke="#191970"
                  d="M535.0895,-55.4179C536.678,-48.1372 538.962,-37.669 540.9482,-28.5659"/>
            <polygon fill="#191970" stroke="#191970"
                     points="544.3712,-29.2957 543.0834,-18.7795 537.5321,-27.8035 544.3712,-29.2957"/>
        </g>
        <!-- Node24 -->
        <g id="node25" class="node">
            <title>Node24</title>
            <polygon fill="none" stroke="#bfbfbf"
                     points="1753.9332,-165.5 1753.9332,-183.5 1858.2828,-183.5 1858.2828,-165.5 1753.9332,-165.5"/>
            <text text-anchor="middle" x="1806.108" y="-171.5" font-family="Helvetica,sans-Serif" font-size="10.00"
                  fill="#000000">gtkmm&#45;3.0/gtkmm.h
            </text>
        </g>
        <!-- Node23&#45;&gt;Node24 -->
        <g id="edge26" class="edge">
            <title>Node23&#45;&gt;Node24</title>
            <path fill="none" stroke="#191970"
                  d="M1764.3645,-220.4179C1771.5588,-212.5041 1782.1768,-200.8243 1790.9034,-191.2251"/>
            <polygon fill="#191970" stroke="#191970"
                     points="1793.5352,-193.5332 1797.6721,-183.7795 1788.3556,-188.8245 1793.5352,-193.5332"/>
        </g>
        <!-- Node25&#45;&gt;Node19 -->
        <g id="edge29" class="edge">
            <title>Node25&#45;&gt;Node19</title>
            <path fill="none" stroke="#191970"
                  d="M1285.3424,-223.0501C1157.9949,-206.2733 839.8277,-156.7312 779.108,-74 774.1116,-67.1923 773.8943,-61.6428 779.108,-55 798.0944,-30.8093 886.7817,-17.8196 934.5099,-12.4755"/>
            <polygon fill="#191970" stroke="#191970"
                     points="935.0195,-15.941 944.5883,-11.3927 934.2716,-8.9811 935.0195,-15.941"/>
        </g>
        <!-- Node25&#45;&gt;Node21 -->
        <g id="edge28" class="edge">
            <title>Node25&#45;&gt;Node21</title>
            <path fill="none" stroke="#191970"
                  d="M1353.2756,-220.4163C1386.4569,-199.5366 1464.8567,-144.4587 1494.108,-74 1500.0787,-59.618 1499.5627,-41.8283 1497.8454,-28.577"/>
            <polygon fill="#191970" stroke="#191970"
                     points="1501.297,-27.9958 1496.2365,-18.6877 1494.3878,-29.12 1501.297,-27.9958"/>
        </g>
        <!-- Node26 -->
        <g id="node27" class="node">
            <title>Node26</title>
            <polygon fill="none" stroke="#bfbfbf"
                     points="898.1969,-55.5 898.1969,-73.5 1032.0191,-73.5 1032.0191,-55.5 898.1969,-55.5"/>
            <text text-anchor="middle" x="965.108" y="-61.5" font-family="Helvetica,sans-Serif" font-size="10.00"
                  fill="#000000">gtkmm/treemodelcolumn.h
            </text>
        </g>
        <!-- Node25&#45;&gt;Node26 -->
        <g id="edge30" class="edge">
            <title>Node25&#45;&gt;Node26</title>
            <path fill="none" stroke="#191970"
                  d="M1300.815,-220.3807C1244.5743,-205.7721 1135.645,-174.109 1051.108,-129 1025.5887,-115.3829 999.448,-94.6132 982.7915,-80.3422"/>
            <polygon fill="#191970" stroke="#191970"
                     points="984.8357,-77.4808 974.9994,-73.5441 980.2338,-82.7556 984.8357,-77.4808"/>
        </g>
        <!-- Node27 -->
        <g id="node28" class="node">
            <title>Node27</title>
            <g id="a_node28">
                <a xlink:href="../../d3/d1b/_i_serializable_8hpp.html" target="_top"
                   xlink:title="../interfaces/ISerializable.hpp">
                    <polygon fill="none" stroke="#000000"
                             points="1321.9063,-55.5 1321.9063,-73.5 1466.3096,-73.5 1466.3096,-55.5 1321.9063,-55.5"/>
                    <text text-anchor="middle" x="1394.108" y="-61.5" font-family="Helvetica,sans-Serif"
                          font-size="10.00" fill="#000000">../interfaces/ISerializable.hpp
                    </text>
                </a>
            </g>
        </g>
        <!-- Node25&#45;&gt;Node27 -->
        <g id="edge31" class="edge">
            <title>Node25&#45;&gt;Node27</title>
            <path fill="none" stroke="#191970"
                  d="M1341.2792,-220.1561C1350.2118,-193.837 1375.7098,-118.709 1387.7129,-83.3426"/>
            <polygon fill="#191970" stroke="#191970"
                     points="1391.0719,-84.3358 1390.9715,-73.7414 1384.4432,-82.086 1391.0719,-84.3358"/>
        </g>
        <!-- Node29 -->
        <g id="node30" class="node">
            <title>Node29</title>
            <g id="a_node30">
                <a xlink:href="../../de/d01/_prescription_8hpp.html" target="_top" xlink:title="Prescription.hpp">
                    <polygon fill="none" stroke="#000000"
                             points="1249.9776,-165.5 1249.9776,-183.5 1338.2384,-183.5 1338.2384,-165.5 1249.9776,-165.5"/>
                    <text text-anchor="middle" x="1294.108" y="-171.5" font-family="Helvetica,sans-Serif"
                          font-size="10.00" fill="#000000">Prescription.hpp
                    </text>
                </a>
            </g>
        </g>
        <!-- Node25&#45;&gt;Node29 -->
        <g id="edge35" class="edge">
            <title>Node25&#45;&gt;Node29</title>
            <path fill="none" stroke="#191970"
                  d="M1330.8423,-220.4179C1324.6379,-212.6624 1315.54,-201.29 1307.9508,-191.8035"/>
            <polygon fill="#191970" stroke="#191970"
                     points="1310.5116,-189.4017 1301.5315,-183.7795 1305.0455,-193.7746 1310.5116,-189.4017"/>
        </g>
        <!-- Node27&#45;&gt;Node19 -->
        <g id="edge32" class="edge">
            <title>Node27&#45;&gt;Node19</title>
            <path fill="none" stroke="#191970"
                  d="M1323.7477,-55.4795C1228.7549,-43.3009 1063.5659,-22.1228 995.6276,-13.4128"/>
            <polygon fill="#191970" stroke="#191970"
                     points="995.9485,-9.9254 985.5846,-12.1252 995.0583,-16.8685 995.9485,-9.9254"/>
        </g>
        <!-- Node27&#45;&gt;Node21 -->
        <g id="edge34" class="edge">
            <title>Node27&#45;&gt;Node21</title>
            <path fill="none" stroke="#191970"
                  d="M1410.6209,-55.4179C1426.399,-46.7399 1450.4108,-33.5334 1468.6395,-23.5077"/>
            <polygon fill="#191970" stroke="#191970"
                     points="1470.495,-26.4816 1477.5705,-18.5956 1467.1216,-20.3481 1470.495,-26.4816"/>
        </g>
        <!-- Node28 -->
        <g id="node29" class="node">
            <title>Node28</title>
            <polygon fill="none" stroke="#bfbfbf"
                     points="1276.3814,-.5 1276.3814,-18.5 1311.8345,-18.5 1311.8345,-.5 1276.3814,-.5"/>
            <text text-anchor="middle" x="1294.108" y="-6.5" font-family="Helvetica,sans-Serif" font-size="10.00"
                  fill="#000000">map
            </text>
        </g>
        <!-- Node27&#45;&gt;Node28 -->
        <g id="edge33" class="edge">
            <title>Node27&#45;&gt;Node28</title>
            <path fill="none" stroke="#191970"
                  d="M1377.595,-55.4179C1361.8169,-46.7399 1337.8051,-33.5334 1319.5765,-23.5077"/>
            <polygon fill="#191970" stroke="#191970"
                     points="1321.0944,-20.3481 1310.6455,-18.5956 1317.7209,-26.4816 1321.0944,-20.3481"/>
        </g>
        <!-- Node29&#45;&gt;Node19 -->
        <g id="edge37" class="edge">
            <title>Node29&#45;&gt;Node19</title>
            <path fill="none" stroke="#191970"
                  d="M1249.784,-170.5585C1153.6451,-160.9624 931.1987,-132.7404 889.108,-74 872.7877,-51.2239 907.5119,-31.4573 935.2415,-20.0041"/>
            <polygon fill="#191970" stroke="#191970"
                     points="936.6317,-23.2185 944.6629,-16.3083 934.0754,-16.7019 936.6317,-23.2185"/>
        </g>
        <!-- Node29&#45;&gt;Node21 -->
        <g id="edge36" class="edge">
            <title>Node29&#45;&gt;Node21</title>
            <path fill="none" stroke="#191970"
                  d="M1325.1944,-165.429C1365.6471,-152.0337 1435.7923,-123.0982 1475.108,-74 1485.4715,-61.0578 1490.184,-42.6225 1492.3258,-28.7732"/>
            <polygon fill="#191970" stroke="#191970"
                     points="1495.8002,-29.1954 1493.5513,-18.842 1488.8529,-28.3381 1495.8002,-29.1954"/>
        </g>
        <!-- Node29&#45;&gt;Node26 -->
        <g id="edge39" class="edge">
            <title>Node29&#45;&gt;Node26</title>
            <path fill="none" stroke="#191970"
                  d="M1249.8045,-166.9282C1209.974,-159.4612 1150.2052,-146.611 1100.108,-129 1060.3867,-115.0365 1016.8432,-92.8968 990.2426,-78.533"/>
            <polygon fill="#191970" stroke="#191970"
                     points="991.7018,-75.342 981.2475,-73.6224 988.3477,-81.4861 991.7018,-75.342"/>
        </g>
        <!-- Node29&#45;&gt;Node27 -->
        <g id="edge40" class="edge">
            <title>Node29&#45;&gt;Node27</title>
            <path fill="none" stroke="#191970"
                  d="M1302.2914,-165.4982C1319.0655,-147.0467 1357.5694,-104.6924 1379.0049,-81.1134"/>
            <polygon fill="#191970" stroke="#191970"
                     points="1381.6745,-83.3799 1385.8115,-73.6261 1376.4949,-78.6712 1381.6745,-83.3799"/>
        </g>
        <!-- Node29&#45;&gt;Node28 -->
        <g id="edge38" class="edge">
            <title>Node29&#45;&gt;Node28</title>
            <path fill="none" stroke="#191970"
                  d="M1294.108,-165.1561C1294.108,-138.9504 1294.108,-64.3557 1294.108,-28.8021"/>
            <polygon fill="#191970" stroke="#191970"
                     points="1297.6081,-28.7414 1294.108,-18.7414 1290.6081,-28.7414 1297.6081,-28.7414"/>
        </g>
        <!-- Node30 -->
        <g id="node31" class="node">
            <title>Node30</title>
            <g id="a_node31">
                <a xlink:href="../../dd/df9/_drug_8hpp.html" target="_top" xlink:title="Drug.hpp">
                    <polygon fill="none" stroke="#000000"
                             points="1109.5391,-110.5 1109.5391,-128.5 1166.6768,-128.5 1166.6768,-110.5 1109.5391,-110.5"/>
                    <text text-anchor="middle" x="1138.108" y="-116.5" font-family="Helvetica,sans-Serif"
                          font-size="10.00" fill="#000000">Drug.hpp
                    </text>
                </a>
            </g>
        </g>
        <!-- Node29&#45;&gt;Node30 -->
        <g id="edge41" class="edge">
            <title>Node29&#45;&gt;Node30</title>
            <path fill="none" stroke="#191970"
                  d="M1268.3478,-165.4179C1242.4146,-156.2748 1202.2228,-142.1046 1173.3471,-131.924"/>
            <polygon fill="#191970" stroke="#191970"
                     points="1174.242,-128.5285 1163.6472,-128.5042 1171.9144,-135.1302 1174.242,-128.5285"/>
        </g>
        <!-- Node30&#45;&gt;Node17 -->
        <g id="edge47" class="edge">
            <title>Node30&#45;&gt;Node17</title>
            <path fill="none" stroke="#191970"
                  d="M1109.4439,-114.6191C1050.9427,-104.6576 917.8286,-81.9911 852.576,-70.88"/>
            <polygon fill="#191970" stroke="#191970"
                     points="852.7793,-67.3643 842.3337,-69.136 851.6043,-74.265 852.7793,-67.3643"/>
        </g>
        <!-- Node30&#45;&gt;Node19 -->
        <g id="edge42" class="edge">
            <title>Node30&#45;&gt;Node19</title>
            <path fill="none" stroke="#191970"
                  d="M1124.7445,-110.3232C1106.1593,-97.6276 1071.3762,-74.109 1041.108,-55 1023.9858,-44.1904 1004.3712,-32.4635 989.3578,-23.6226"/>
            <polygon fill="#191970" stroke="#191970"
                     points="991.0643,-20.5659 980.6679,-18.5248 987.5223,-26.6037 991.0643,-20.5659"/>
        </g>
        <!-- Node30&#45;&gt;Node21 -->
        <g id="edge43" class="edge">
            <title>Node30&#45;&gt;Node21</title>
            <path fill="none" stroke="#191970"
                  d="M1160.2229,-110.4812C1193.1722,-97.2431 1257.2675,-72.2552 1313.108,-55 1364.8104,-39.0235 1426.0894,-24.5273 1462.4438,-16.3798"/>
            <polygon fill="#191970" stroke="#191970"
                     points="1463.445,-19.7428 1472.4479,-14.1573 1461.9268,-12.9094 1463.445,-19.7428"/>
        </g>
        <!-- Node30&#45;&gt;Node26 -->
        <g id="edge45" class="edge">
            <title>Node30&#45;&gt;Node26</title>
            <path fill="none" stroke="#191970"
                  d="M1109.5406,-110.4179C1080.5301,-101.1949 1035.43,-86.8567 1003.3511,-76.6582"/>
            <polygon fill="#191970" stroke="#191970"
                     points="1004.0207,-73.1985 993.4303,-73.5042 1001.8999,-79.8695 1004.0207,-73.1985"/>
        </g>
        <!-- Node30&#45;&gt;Node27 -->
        <g id="edge48" class="edge">
            <title>Node30&#45;&gt;Node27</title>
            <path fill="none" stroke="#191970"
                  d="M1166.9768,-113.2977C1209.3585,-104.1923 1289.1,-87.0603 1341.9181,-75.7127"/>
            <polygon fill="#191970" stroke="#191970"
                     points="1342.7359,-79.1169 1351.7776,-73.5944 1341.2655,-72.2731 1342.7359,-79.1169"/>
        </g>
        <!-- Node30&#45;&gt;Node28 -->
        <g id="edge44" class="edge">
            <title>Node30&#45;&gt;Node28</title>
            <path fill="none" stroke="#191970"
                  d="M1130.2199,-110.2503C1119.7774,-96.8339 1104.1182,-71.7513 1117.108,-55 1135.2428,-31.6138 1220.9336,-18.1501 1266.0961,-12.566"/>
            <polygon fill="#191970" stroke="#191970"
                     points="1266.6042,-16.0303 1276.1208,-11.3738 1265.7775,-9.0793 1266.6042,-16.0303"/>
        </g>
        <!-- Node31 -->
        <g id="node32" class="node">
            <title>Node31</title>
            <polygon fill="none" stroke="#bfbfbf"
                     points="1126.315,-55.5 1126.315,-73.5 1227.901,-73.5 1227.901,-55.5 1126.315,-55.5"/>
            <text text-anchor="middle" x="1177.108" y="-61.5" font-family="Helvetica,sans-Serif" font-size="10.00"
                  fill="#000000">gtkmm/treemodel.h
            </text>
        </g>
        <!-- Node30&#45;&gt;Node31 -->
        <g id="edge46" class="edge">
            <title>Node30&#45;&gt;Node31</title>
            <path fill="none" stroke="#191970"
                  d="M1144.548,-110.4179C1149.9913,-102.7415 1157.9471,-91.5217 1164.6319,-82.0945"/>
            <polygon fill="#191970" stroke="#191970"
                     points="1167.5987,-83.9613 1170.528,-73.7795 1161.8886,-79.9123 1167.5987,-83.9613"/>
        </g>
        <!-- Node32&#45;&gt;Node19 -->
        <g id="edge51" class="edge">
            <title>Node32&#45;&gt;Node19</title>
            <path fill="none" stroke="#191970"
                  d="M1610.3899,-110.3381C1583.0245,-95.8234 1526.5554,-67.871 1475.108,-55 1383.25,-32.0191 1091.0859,-15.7767 995.6142,-10.9725"/>
            <polygon fill="#191970" stroke="#191970"
                     points="995.6366,-7.4693 985.4751,-10.4682 995.2889,-14.4607 995.6366,-7.4693"/>
        </g>
        <!-- Node32&#45;&gt;Node21 -->
        <g id="edge53" class="edge">
            <title>Node32&#45;&gt;Node21</title>
            <path fill="none" stroke="#191970"
                  d="M1639.4681,-110.2935C1655.3283,-97.3599 1679.2072,-73.3414 1665.108,-55 1648.2516,-33.0719 1570.5076,-19.4806 1525.8694,-13.347"/>
            <polygon fill="#191970" stroke="#191970"
                     points="1526.1936,-9.8594 1515.8204,-12.0151 1525.2738,-16.7987 1526.1936,-9.8594"/>
        </g>
        <!-- Node32&#45;&gt;Node27 -->
        <g id="edge54" class="edge">
            <title>Node32&#45;&gt;Node27</title>
            <path fill="none" stroke="#191970"
                  d="M1588.8937,-110.4795C1548.7692,-101.008 1485.5851,-86.0933 1442.1209,-75.8335"/>
            <polygon fill="#191970" stroke="#191970"
                     points="1442.8798,-72.4165 1432.3432,-73.5255 1441.2716,-79.2293 1442.8798,-72.4165"/>
        </g>
        <!-- Node33 -->
        <g id="node34" class="node">
            <title>Node33</title>
            <polygon fill="none" stroke="#bfbfbf"
                     points="1712.4849,-55.5 1712.4849,-73.5 1765.731,-73.5 1765.731,-55.5 1712.4849,-55.5"/>
            <text text-anchor="middle" x="1739.108" y="-61.5" font-family="Helvetica,sans-Serif" font-size="10.00"
                  fill="#000000">sqlite3.h
            </text>
        </g>
        <!-- Node32&#45;&gt;Node33 -->
        <g id="edge50" class="edge">
            <title>Node32&#45;&gt;Node33</title>
            <path fill="none" stroke="#191970"
                  d="M1645.6025,-110.4179C1663.5171,-101.6205 1690.9091,-88.1691 1711.4224,-78.0956"/>
            <polygon fill="#191970" stroke="#191970"
                     points="1713.1527,-81.1452 1720.586,-73.5956 1710.0671,-74.8619 1713.1527,-81.1452"/>
        </g>
        <!-- Node34 -->
        <g id="node35" class="node">
            <title>Node34</title>
            <polygon fill="none" stroke="#bfbfbf"
                     points="1597.7066,-55.5 1597.7066,-73.5 1656.5094,-73.5 1656.5094,-55.5 1597.7066,-55.5"/>
            <text text-anchor="middle" x="1627.108" y="-61.5" font-family="Helvetica,sans-Serif" font-size="10.00"
                  fill="#000000">stdexcept
            </text>
        </g>
        <!-- Node32&#45;&gt;Node34 -->
        <g id="edge52" class="edge">
            <title>Node32&#45;&gt;Node34</title>
            <path fill="none" stroke="#191970"
                  d="M1627.108,-110.4179C1627.108,-103.2164 1627.108,-92.8962 1627.108,-83.8632"/>
            <polygon fill="#191970" stroke="#191970"
                     points="1630.6081,-83.7794 1627.108,-73.7795 1623.6081,-83.7795 1630.6081,-83.7794"/>
        </g>
        <!-- Node35&#45;&gt;Node9 -->
        <g id="edge57" class="edge">
            <title>Node35&#45;&gt;Node9</title>
            <path fill="none" stroke="#191970"
                  d="M1598.4042,-170.5224C1424.6862,-160.4651 969.0504,-134.0861 790.4389,-123.7455"/>
            <polygon fill="#191970" stroke="#191970"
                     points="790.5398,-120.2455 780.3542,-123.1616 790.1352,-127.2338 790.5398,-120.2455"/>
        </g>
        <!-- Node35&#45;&gt;Node21 -->
        <g id="edge58" class="edge">
            <title>Node35&#45;&gt;Node21</title>
            <path fill="none" stroke="#191970"
                  d="M1686.7533,-165.3704C1726.7628,-145.5914 1810.9943,-97.1645 1775.108,-55 1759.0748,-36.1618 1596.232,-18.9583 1526.0315,-12.3559"/>
            <polygon fill="#191970" stroke="#191970"
                     points="1526.2656,-8.8627 1515.9851,-11.4241 1525.6191,-15.8328 1526.2656,-8.8627"/>
        </g>
        <!-- Node35&#45;&gt;Node32 -->
        <g id="edge56" class="edge">
            <title>Node35&#45;&gt;Node32</title>
            <path fill="none" stroke="#191970"
                  d="M1660.5028,-165.4179C1654.92,-157.7415 1646.7601,-146.5217 1639.904,-137.0945"/>
            <polygon fill="#191970" stroke="#191970"
                     points="1642.569,-134.8082 1633.8567,-128.7795 1636.9079,-138.9255 1642.569,-134.8082"/>
        </g>
        <!-- Node36 -->
        <g id="node37" class="node">
            <title>Node36</title>
            <polygon fill="none" stroke="#bfbfbf"
                     points="1822.2657,-110.5 1822.2657,-128.5 1859.9503,-128.5 1859.9503,-110.5 1822.2657,-110.5"/>
            <text text-anchor="middle" x="1841.108" y="-116.5" font-family="Helvetica,sans-Serif" font-size="10.00"
                  fill="#000000">tuple
            </text>
        </g>
        <!-- Node35&#45;&gt;Node36 -->
        <g id="edge59" class="edge">
            <title>Node35&#45;&gt;Node36</title>
            <path fill="none" stroke="#191970"
                  d="M1695.8405,-165.4179C1728.0671,-155.2313 1780.0346,-138.8048 1812.2942,-128.6078"/>
            <polygon fill="#191970" stroke="#191970"
                     points="1813.5456,-131.883 1822.0257,-125.5318 1811.4358,-125.2085 1813.5456,-131.883"/>
        </g>
    </g>
</svg>
