<?xml version="1.0" encoding="UTF-8" standalone="no"?>
<!DOCTYPE svg PUBLIC "-//W3C//DTD SVG 1.1//EN"
        "http://www.w3.org/Graphics/SVG/1.1/DTD/svg11.dtd">
<!-- Generated by graphviz version 2.40.1 (20161225.0304)
 -->
<!-- Title: code/model/Prescription.hpp Pages: 1 -->
<svg width="467pt" height="192pt"
     viewBox="0.00 0.00 466.61 192.00" xmlns="http://www.w3.org/2000/svg" xmlns:xlink="http://www.w3.org/1999/xlink">
    <g id="graph0" class="graph" transform="scale(1 1) rotate(0) translate(4 188)">
        <title>code/model/Prescription.hpp</title>
        <!-- Node0 -->
        <g id="node1" class="node">
            <title>Node0</title>
            <polygon fill="#bfbfbf" stroke="#000000"
                     points="111.3483,-165.5 111.3483,-183.5 254.0866,-183.5 254.0866,-165.5 111.3483,-165.5"/>
            <text text-anchor="middle" x="182.7175" y="-171.5" font-family="Helvetica,sans-Serif" font-size="10.00"
                  fill="#000000">code/model/Prescription.hpp
            </text>
        </g>
        <!-- Node1 -->
        <g id="node2" class="node">
            <title>Node1</title>
            <polygon fill="none" stroke="#bfbfbf"
                     points="12.1018,-55.5 12.1018,-73.5 55.3332,-73.5 55.3332,-55.5 12.1018,-55.5"/>
            <text text-anchor="middle" x="33.7175" y="-61.5" font-family="Helvetica,sans-Serif" font-size="10.00"
                  fill="#000000">vector
            </text>
        </g>
        <!-- Node0&#45;&gt;Node1 -->
        <g id="edge1" class="edge">
            <title>Node0&#45;&gt;Node1</title>
            <path fill="none" stroke="#191970"
                  d="M160.1791,-165.3755C141.6439,-157.2967 115.1921,-144.4115 94.7175,-129 76.3619,-115.1835 58.7006,-95.5887 47.1484,-81.629"/>
            <polygon fill="#191970" stroke="#191970"
                     points="49.8019,-79.3441 40.7934,-73.7675 44.3581,-83.7446 49.8019,-79.3441"/>
        </g>
        <!-- Node2 -->
        <g id="node3" class="node">
            <title>Node2</title>
            <polygon fill="none" stroke="#bfbfbf"
                     points="63.4909,-.5 63.4909,-18.5 103.944,-18.5 103.944,-.5 63.4909,-.5"/>
            <text text-anchor="middle" x="83.7175" y="-6.5" font-family="Helvetica,sans-Serif" font-size="10.00"
                  fill="#000000">string
            </text>
        </g>
        <!-- Node0&#45;&gt;Node2 -->
        <g id="edge2" class="edge">
            <title>Node0&#45;&gt;Node2</title>
            <path fill="none" stroke="#191970"
                  d="M139.4819,-165.4143C94.7632,-153.3188 28.0026,-126.9719 2.7175,-74 -9.8204,-47.7335 25.9018,-28.8916 53.854,-18.5896"/>
            <polygon fill="#191970" stroke="#191970"
                     points="55.0249,-21.8881 63.3252,-15.3036 52.7304,-15.2748 55.0249,-21.8881"/>
        </g>
        <!-- Node3 -->
        <g id="node4" class="node">
            <title>Node3</title>
            <polygon fill="none" stroke="#bfbfbf"
                     points="203.9909,-.5 203.9909,-18.5 239.444,-18.5 239.444,-.5 203.9909,-.5"/>
            <text text-anchor="middle" x="221.7175" y="-6.5" font-family="Helvetica,sans-Serif" font-size="10.00"
                  fill="#000000">map
            </text>
        </g>
        <!-- Node0&#45;&gt;Node3 -->
        <g id="edge3" class="edge">
            <title>Node0&#45;&gt;Node3</title>
            <path fill="none" stroke="#191970"
                  d="M223.2708,-165.4731C292.2279,-149.2115 427.5251,-113.0363 454.7175,-74 459.5442,-67.071 460.086,-61.5183 454.7175,-55 429.0472,-23.832 306.1788,-13.7205 249.9372,-10.6915"/>
            <polygon fill="#191970" stroke="#191970"
                     points="249.7882,-7.1798 239.6258,-10.176 249.4386,-14.171 249.7882,-7.1798"/>
        </g>
        <!-- Node4 -->
        <g id="node5" class="node">
            <title>Node4</title>
            <polygon fill="none" stroke="#bfbfbf"
                     points="311.8063,-55.5 311.8063,-73.5 445.6286,-73.5 445.6286,-55.5 311.8063,-55.5"/>
            <text text-anchor="middle" x="378.7175" y="-61.5" font-family="Helvetica,sans-Serif" font-size="10.00"
                  fill="#000000">gtkmm/treemodelcolumn.h
            </text>
        </g>
        <!-- Node0&#45;&gt;Node4 -->
        <g id="edge4" class="edge">
            <title>Node0&#45;&gt;Node4</title>
            <path fill="none" stroke="#191970"
                  d="M198.757,-165.4982C232.8545,-146.3619 312.763,-101.5153 353.6517,-78.5675"/>
            <polygon fill="#191970" stroke="#191970"
                     points="355.4488,-81.5725 362.4563,-73.6261 352.0229,-75.4682 355.4488,-81.5725"/>
        </g>
        <!-- Node5 -->
        <g id="node6" class="node">
            <title>Node5</title>
            <g id="a_node6">
                <a xlink:href="../../d3/d1b/_i_serializable_8hpp.html" target="_top"
                   xlink:title="../interfaces/ISerializable.hpp">
                    <polygon fill="none" stroke="#000000"
                             points="149.5158,-55.5 149.5158,-73.5 293.9191,-73.5 293.9191,-55.5 149.5158,-55.5"/>
                    <text text-anchor="middle" x="221.7175" y="-61.5" font-family="Helvetica,sans-Serif"
                          font-size="10.00" fill="#000000">../interfaces/ISerializable.hpp
                    </text>
                </a>
            </g>
        </g>
        <!-- Node0&#45;&gt;Node5 -->
        <g id="edge5" class="edge">
            <title>Node0&#45;&gt;Node5</title>
            <path fill="none" stroke="#191970"
                  d="M185.909,-165.4982C192.2509,-147.6108 206.5573,-107.2594 215.0424,-83.3271"/>
            <polygon fill="#191970" stroke="#191970"
                     points="218.4389,-84.2209 218.4818,-73.6261 211.8413,-81.8817 218.4389,-84.2209"/>
        </g>
        <!-- Node6 -->
        <g id="node7" class="node">
            <title>Node6</title>
            <g id="a_node7">
                <a xlink:href="../../dd/df9/_drug_8hpp.html" target="_top" xlink:title="Drug.hpp">
                    <polygon fill="none" stroke="#000000"
                             points="104.1486,-110.5 104.1486,-128.5 161.2863,-128.5 161.2863,-110.5 104.1486,-110.5"/>
                    <text text-anchor="middle" x="132.7175" y="-116.5" font-family="Helvetica,sans-Serif"
                          font-size="10.00" fill="#000000">Drug.hpp
                    </text>
                </a>
            </g>
        </g>
        <!-- Node0&#45;&gt;Node6 -->
        <g id="edge8" class="edge">
            <title>Node0&#45;&gt;Node6</title>
            <path fill="none" stroke="#191970"
                  d="M174.461,-165.4179C167.2667,-157.5041 156.6487,-145.8243 147.9221,-136.2251"/>
            <polygon fill="#191970" stroke="#191970"
                     points="150.4699,-133.8245 141.1533,-128.7795 145.2903,-138.5332 150.4699,-133.8245"/>
        </g>
        <!-- Node5&#45;&gt;Node2 -->
        <g id="edge6" class="edge">
            <title>Node5&#45;&gt;Node2</title>
            <path fill="none" stroke="#191970"
                  d="M198.9296,-55.4179C175.681,-46.1521 139.4784,-31.7236 113.8681,-21.5165"/>
            <polygon fill="#191970" stroke="#191970"
                     points="114.8695,-18.148 104.2843,-17.6969 112.2779,-24.6506 114.8695,-18.148"/>
        </g>
        <!-- Node5&#45;&gt;Node3 -->
        <g id="edge7" class="edge">
            <title>Node5&#45;&gt;Node3</title>
            <path fill="none" stroke="#191970"
                  d="M221.7175,-55.4179C221.7175,-48.2164 221.7175,-37.8962 221.7175,-28.8632"/>
            <polygon fill="#191970" stroke="#191970"
                     points="225.2176,-28.7794 221.7175,-18.7795 218.2176,-28.7795 225.2176,-28.7794"/>
        </g>
        <!-- Node6&#45;&gt;Node1 -->
        <g id="edge10" class="edge">
            <title>Node6&#45;&gt;Node1</title>
            <path fill="none" stroke="#191970"
                  d="M116.3696,-110.4179C100.7493,-101.7399 76.9777,-88.5334 58.9313,-78.5077"/>
            <polygon fill="#191970" stroke="#191970"
                     points="60.531,-75.3925 50.0896,-73.5956 57.1314,-81.5117 60.531,-75.3925"/>
        </g>
        <!-- Node6&#45;&gt;Node2 -->
        <g id="edge9" class="edge">
            <title>Node6&#45;&gt;Node2</title>
            <path fill="none" stroke="#191970"
                  d="M127.1376,-110.2942C121.7789,-101.2455 113.6452,-86.9484 107.7175,-74 100.8791,-59.0624 94.4629,-41.5637 89.9882,-28.5643"/>
            <polygon fill="#191970" stroke="#191970"
                     points="93.2281,-27.2181 86.7195,-18.8581 86.5942,-29.4522 93.2281,-27.2181"/>
        </g>
        <!-- Node6&#45;&gt;Node3 -->
        <g id="edge11" class="edge">
            <title>Node6&#45;&gt;Node3</title>
            <path fill="none" stroke="#191970"
                  d="M131.4209,-110.28C130.041,-96.9005 129.3972,-71.8634 140.7175,-55 153.2329,-36.3562 176.0912,-24.534 194.3416,-17.6276"/>
            <polygon fill="#191970" stroke="#191970"
                     points="195.6255,-20.8866 203.9117,-14.2843 193.3169,-14.2782 195.6255,-20.8866"/>
        </g>
        <!-- Node6&#45;&gt;Node4 -->
        <g id="edge12" class="edge">
            <title>Node6&#45;&gt;Node4</title>
            <path fill="none" stroke="#191970"
                  d="M161.4182,-113.0832C202.3261,-103.9371 278.0125,-87.0153 328.372,-75.7561"/>
            <polygon fill="#191970" stroke="#191970"
                     points="329.4047,-79.1117 338.4001,-73.5141 327.8773,-72.2804 329.4047,-79.1117"/>
        </g>
        <!-- Node6&#45;&gt;Node5 -->
        <g id="edge13" class="edge">
            <title>Node6&#45;&gt;Node5</title>
            <path fill="none" stroke="#191970"
                  d="M147.414,-110.4179C161.1988,-101.8992 182.0452,-89.0166 198.1523,-79.0627"/>
            <polygon fill="#191970" stroke="#191970"
                     points="200.3323,-81.83 206.9991,-73.5956 196.6524,-75.8753 200.3323,-81.83"/>
        </g>
    </g>
</svg>
