<?xml version="1.0" encoding="UTF-8" standalone="no"?>
<!DOCTYPE svg PUBLIC "-//W3C//DTD SVG 1.1//EN"
        "http://www.w3.org/Graphics/SVG/1.1/DTD/svg11.dtd">
<!-- Generated by graphviz version 2.40.1 (20161225.0304)
 -->
<!-- Title: code/model/Prescription.hpp Pages: 1 -->
<svg width="679pt" height="192pt"
     viewBox="0.00 0.00 679.12 192.00" xmlns="http://www.w3.org/2000/svg" xmlns:xlink="http://www.w3.org/1999/xlink">
    <g id="graph0" class="graph" transform="scale(1 1) rotate(0) translate(4 188)">
        <title>code/model/Prescription.hpp</title>
        <!-- Node0 -->
        <g id="node1" class="node">
            <title>Node0</title>
            <polygon fill="#bfbfbf" stroke="#000000"
                     points="162.1346,-165.5 162.1346,-183.5 304.8729,-183.5 304.8729,-165.5 162.1346,-165.5"/>
            <text text-anchor="middle" x="233.5037" y="-171.5" font-family="Helvetica,sans-Serif" font-size="10.00"
                  fill="#000000">code/model/Prescription.hpp
            </text>
        </g>
        <!-- Node1 -->
        <g id="node2" class="node">
            <title>Node1</title>
            <polygon fill="none" stroke="#bfbfbf"
                     points="627.888,-.5 627.888,-18.5 671.1195,-18.5 671.1195,-.5 627.888,-.5"/>
            <text text-anchor="middle" x="649.5037" y="-6.5" font-family="Helvetica,sans-Serif" font-size="10.00"
                  fill="#000000">vector
            </text>
        </g>
        <!-- Node0&#45;&gt;Node1 -->
        <g id="edge1" class="edge">
            <title>Node0&#45;&gt;Node1</title>
            <path fill="none" stroke="#191970"
                  d="M302.8252,-165.454C404.0023,-150.8893 585.1449,-119.223 631.5037,-74 643.4549,-62.3417 647.6619,-43.4657 649.0524,-29.1388"/>
            <polygon fill="#191970" stroke="#191970"
                     points="652.5643,-29.0372 649.6578,-18.8489 645.5764,-28.626 652.5643,-29.0372"/>
        </g>
        <!-- Node2 -->
        <g id="node3" class="node">
            <title>Node2</title>
            <polygon fill="none" stroke="#bfbfbf"
                     points="199.2772,-.5 199.2772,-18.5 239.7303,-18.5 239.7303,-.5 199.2772,-.5"/>
            <text text-anchor="middle" x="219.5037" y="-6.5" font-family="Helvetica,sans-Serif" font-size="10.00"
                  fill="#000000">string
            </text>
        </g>
        <!-- Node0&#45;&gt;Node2 -->
        <g id="edge2" class="edge">
            <title>Node0&#45;&gt;Node2</title>
            <path fill="none" stroke="#191970"
                  d="M162.0169,-169.1602C105.7335,-163.2943 33.8241,-151.5389 15.5037,-129 -5.2409,-103.4786 -5.0658,-80.6627 15.5037,-55 36.9032,-28.3018 137.4797,-16.2471 188.9665,-11.7497"/>
            <polygon fill="#191970" stroke="#191970"
                     points="189.4864,-15.2187 199.162,-10.9022 188.9064,-8.2427 189.4864,-15.2187"/>
        </g>
        <!-- Node3 -->
        <g id="node4" class="node">
            <title>Node3</title>
            <polygon fill="none" stroke="#bfbfbf"
                     points="301.7772,-.5 301.7772,-18.5 337.2303,-18.5 337.2303,-.5 301.7772,-.5"/>
            <text text-anchor="middle" x="319.5037" y="-6.5" font-family="Helvetica,sans-Serif" font-size="10.00"
                  fill="#000000">map
            </text>
        </g>
        <!-- Node0&#45;&gt;Node3 -->
        <g id="edge3" class="edge">
            <title>Node0&#45;&gt;Node3</title>
            <path fill="none" stroke="#191970"
                  d="M192.2605,-165.4992C124.5814,-148.9089 1.8876,-110.0953 48.5037,-55 56.3647,-45.7092 223.9183,-22.3154 291.5562,-13.2088"/>
            <polygon fill="#191970" stroke="#191970"
                     points="292.0676,-16.6716 301.5141,-11.8742 291.1377,-9.7336 292.0676,-16.6716"/>
        </g>
        <!-- Node4 -->
        <g id="node5" class="node">
            <title>Node4</title>
            <polygon fill="none" stroke="#bfbfbf"
                     points="57.5926,-55.5 57.5926,-73.5 191.4149,-73.5 191.4149,-55.5 57.5926,-55.5"/>
            <text text-anchor="middle" x="124.5037" y="-61.5" font-family="Helvetica,sans-Serif" font-size="10.00"
                  fill="#000000">gtkmm/treemodelcolumn.h
            </text>
        </g>
        <!-- Node0&#45;&gt;Node4 -->
        <g id="edge4" class="edge">
            <title>Node0&#45;&gt;Node4</title>
            <path fill="none" stroke="#191970"
                  d="M224.5838,-165.4982C206.2202,-146.9662 163.9638,-104.3221 140.6611,-80.8056"/>
            <polygon fill="#191970" stroke="#191970"
                     points="143.0718,-78.2659 133.5469,-73.6261 138.0995,-83.193 143.0718,-78.2659"/>
        </g>
        <!-- Node5 -->
        <g id="node6" class="node">
            <title>Node5</title>
            <g id="a_node6">
                <a xlink:href="../../d3/d1b/_i_serializable_8hpp.html" target="_top"
                   xlink:title="../interfaces/ISerializable.hpp">
                    <polygon fill="none" stroke="#000000"
                             points="247.3021,-55.5 247.3021,-73.5 391.7054,-73.5 391.7054,-55.5 247.3021,-55.5"/>
                    <text text-anchor="middle" x="319.5037" y="-61.5" font-family="Helvetica,sans-Serif"
                          font-size="10.00" fill="#000000">../interfaces/ISerializable.hpp
                    </text>
                </a>
            </g>
        </g>
        <!-- Node0&#45;&gt;Node5 -->
        <g id="edge5" class="edge">
            <title>Node0&#45;&gt;Node5</title>
            <path fill="none" stroke="#191970"
                  d="M240.5415,-165.4982C254.8412,-147.2079 287.5036,-105.4304 306.0288,-81.7354"/>
            <polygon fill="#191970" stroke="#191970"
                     points="308.9668,-83.66 312.3688,-73.6261 303.4522,-79.3485 308.9668,-83.66"/>
        </g>
        <!-- Node6 -->
        <g id="node7" class="node">
            <title>Node6</title>
            <g id="a_node7">
                <a xlink:href="../../dd/df9/_drug_8hpp.html" target="_top" xlink:title="Drug.hpp">
                    <polygon fill="none" stroke="#000000"
                             points="335.9349,-110.5 335.9349,-128.5 393.0726,-128.5 393.0726,-110.5 335.9349,-110.5"/>
                    <text text-anchor="middle" x="364.5037" y="-116.5" font-family="Helvetica,sans-Serif"
                          font-size="10.00" fill="#000000">Drug.hpp
                    </text>
                </a>
            </g>
        </g>
        <!-- Node0&#45;&gt;Node6 -->
        <g id="edge9" class="edge">
            <title>Node0&#45;&gt;Node6</title>
            <path fill="none" stroke="#191970"
                  d="M255.1357,-165.4179C276.4687,-156.4613 309.2916,-142.6806 333.4163,-132.552"/>
            <polygon fill="#191970" stroke="#191970"
                     points="334.9742,-135.6939 342.8396,-128.5956 332.2644,-129.2397 334.9742,-135.6939"/>
        </g>
        <!-- Node5&#45;&gt;Node1 -->
        <g id="edge8" class="edge">
            <title>Node5&#45;&gt;Node1</title>
            <path fill="none" stroke="#191970"
                  d="M373.627,-55.4795C443.0264,-43.9129 561.1321,-24.2286 617.598,-14.8176"/>
            <polygon fill="#191970" stroke="#191970"
                     points="618.4294,-18.2274 627.7179,-13.131 617.2785,-11.3227 618.4294,-18.2274"/>
        </g>
        <!-- Node5&#45;&gt;Node2 -->
        <g id="edge6" class="edge">
            <title>Node5&#45;&gt;Node2</title>
            <path fill="none" stroke="#191970"
                  d="M302.9908,-55.4179C287.2127,-46.7399 263.2009,-33.5334 244.9723,-23.5077"/>
            <polygon fill="#191970" stroke="#191970"
                     points="246.4901,-20.3481 236.0412,-18.5956 243.1167,-26.4816 246.4901,-20.3481"/>
        </g>
        <!-- Node5&#45;&gt;Node3 -->
        <g id="edge7" class="edge">
            <title>Node5&#45;&gt;Node3</title>
            <path fill="none" stroke="#191970"
                  d="M319.5037,-55.4179C319.5037,-48.2164 319.5037,-37.8962 319.5037,-28.8632"/>
            <polygon fill="#191970" stroke="#191970"
                     points="323.0038,-28.7794 319.5037,-18.7795 316.0038,-28.7795 323.0038,-28.7794"/>
        </g>
        <!-- Node6&#45;&gt;Node1 -->
        <g id="edge11" class="edge">
            <title>Node6&#45;&gt;Node1</title>
            <path fill="none" stroke="#191970"
                  d="M393.0986,-117.0302C449.7105,-111.6857 573.608,-97.5909 608.5037,-74 624.7795,-62.9969 635.9434,-43.1456 642.4641,-28.3618"/>
            <polygon fill="#191970" stroke="#191970"
                     points="645.8718,-29.2732 646.3983,-18.6914 639.3879,-26.6353 645.8718,-29.2732"/>
        </g>
        <!-- Node6&#45;&gt;Node2 -->
        <g id="edge10" class="edge">
            <title>Node6&#45;&gt;Node2</title>
            <path fill="none" stroke="#191970"
                  d="M335.9325,-116.6151C307.3919,-112.2287 264.1741,-101.2606 238.5037,-74 227.0108,-61.7951 222.4332,-42.9858 220.629,-28.8227"/>
            <polygon fill="#191970" stroke="#191970"
                     points="224.0971,-28.3134 219.6976,-18.6753 217.1264,-28.9533 224.0971,-28.3134"/>
        </g>
        <!-- Node6&#45;&gt;Node3 -->
        <g id="edge12" class="edge">
            <title>Node6&#45;&gt;Node3</title>
            <path fill="none" stroke="#191970"
                  d="M393.347,-118.1389C448.9319,-114.8475 567.6108,-104.3514 592.5037,-74 597.8588,-67.4707 597.962,-61.4433 592.5037,-55 576.7271,-36.3764 414.0133,-18.6525 347.5506,-12.1325"/>
            <polygon fill="#191970" stroke="#191970"
                     points="347.6781,-8.6285 337.3875,-11.1495 347.0041,-15.596 347.6781,-8.6285"/>
        </g>
        <!-- Node6&#45;&gt;Node4 -->
        <g id="edge13" class="edge">
            <title>Node6&#45;&gt;Node4</title>
            <path fill="none" stroke="#191970"
                  d="M335.5541,-112.8657C295.5145,-103.69 222.6669,-86.9957 173.9231,-75.8253"/>
            <polygon fill="#191970" stroke="#191970"
                     points="174.4372,-72.3524 163.9081,-73.5302 172.8735,-79.1756 174.4372,-72.3524"/>
        </g>
        <!-- Node6&#45;&gt;Node5 -->
        <g id="edge16" class="edge">
            <title>Node6&#45;&gt;Node5</title>
            <path fill="none" stroke="#191970"
                  d="M357.0729,-110.4179C350.7275,-102.6624 341.4228,-91.29 333.6611,-81.8035"/>
            <polygon fill="#191970" stroke="#191970"
                     points="336.1373,-79.3027 327.096,-73.7795 330.7196,-83.7354 336.1373,-79.3027"/>
        </g>
        <!-- Node7 -->
        <g id="node8" class="node">
            <title>Node7</title>
            <polygon fill="none" stroke="#bfbfbf"
                     points="409.7108,-55.5 409.7108,-73.5 511.2967,-73.5 511.2967,-55.5 409.7108,-55.5"/>
            <text text-anchor="middle" x="460.5037" y="-61.5" font-family="Helvetica,sans-Serif" font-size="10.00"
                  fill="#000000">gtkmm/treemodel.h
            </text>
        </g>
        <!-- Node6&#45;&gt;Node7 -->
        <g id="edge14" class="edge">
            <title>Node6&#45;&gt;Node7</title>
            <path fill="none" stroke="#191970"
                  d="M380.3562,-110.4179C395.3642,-101.8195 418.1322,-88.7754 435.5709,-78.7844"/>
            <polygon fill="#191970" stroke="#191970"
                     points="437.6908,-81.6037 444.6277,-73.5956 434.211,-75.5299 437.6908,-81.6037"/>
        </g>
        <!-- Node8 -->
        <g id="node9" class="node">
            <title>Node8</title>
            <polygon fill="none" stroke="#bfbfbf"
                     points="529.3314,-55.5 529.3314,-73.5 583.6761,-73.5 583.6761,-55.5 529.3314,-55.5"/>
            <text text-anchor="middle" x="556.5037" y="-61.5" font-family="Helvetica,sans-Serif" font-size="10.00"
                  fill="#000000">iostream
            </text>
        </g>
        <!-- Node6&#45;&gt;Node8 -->
        <g id="edge15" class="edge">
            <title>Node6&#45;&gt;Node8</title>
            <path fill="none" stroke="#191970"
                  d="M393.2481,-111.2659C426.8115,-101.6514 482.4164,-85.7229 519.2597,-75.1689"/>
            <polygon fill="#191970" stroke="#191970"
                     points="520.4704,-78.4629 529.1199,-72.3443 518.5427,-71.7335 520.4704,-78.4629"/>
        </g>
    </g>
</svg>
