<?xml version="1.0" encoding="UTF-8" standalone="no"?>
<!DOCTYPE svg PUBLIC "-//W3C//DTD SVG 1.1//EN"
        "http://www.w3.org/Graphics/SVG/1.1/DTD/svg11.dtd">
<!-- Generated by graphviz version 2.40.1 (20161225.0304)
 -->
<!-- Title: code/gui/AddPrescriptionDialog.hpp Pages: 1 -->
<!--zoomable 367 -->
<svg id="main" version="1.1" xmlns="http://www.w3.org/2000/svg" xmlns:xlink="http://www.w3.org/1999/xlink" xml:space="preserve" onload="init(evt)">
<style type="text/css"><![CDATA[
.edge:hover path { stroke: red; }
.edge:hover polygon { stroke: red; fill: red; }
]]></style>
<script type="text/javascript"><![CDATA[
var edges = document.getElementsByTagName('g');
if (edges && edges.length) {
  for (var i=0;i<edges.length;i++) {
    if (edges[i].id.substr(0,4)=='edge') {
      edges[i].setAttribute('class','edge');
    }
  }
}
]]></script>
        <defs>
                <circle id="rim" cx="0" cy="0" r="7"/>
                <circle id="rim2" cx="0" cy="0" r="3.5"/>
                <g id="zoomPlus">
                        <use xlink:href="#rim" fill="#404040">
                                <set attributeName="fill" to="#808080" begin="zoomplus.mouseover" end="zoomplus.mouseout"/>
                        </use>
                        <path d="M-4,0h8M0,-4v8" fill="none" stroke="white" stroke-width="1.5" pointer-events="none"/>
                </g>
                <g id="zoomMin">
                        <use xlink:href="#rim" fill="#404040">
                                <set attributeName="fill" to="#808080" begin="zoomminus.mouseover" end="zoomminus.mouseout"/>
                        </use>
                        <path d="M-4,0h8" fill="none" stroke="white" stroke-width="1.5" pointer-events="none"/>
                </g>
                <g id="dirArrow">
                        <path fill="none" stroke="white" stroke-width="1.5" d="M0,-3.0v7 M-2.5,-0.5L0,-3.0L2.5,-0.5"/>
                </g>
               <g id="resetDef">
                       <use xlink:href="#rim2" fill="#404040">
                               <set attributeName="fill" to="#808080" begin="reset.mouseover" end="reset.mouseout"/>
                       </use>
               </g>
        </defs>

<script type="text/javascript">
var viewWidth = 2206;
var viewHeight = 367;
var sectionId = 'dynsection-0';
</script>
<script xlink:href="../../svgpan.js"/>
<svg id="graph" class="graph">
<g id="viewport">
<title>code/gui/AddPrescriptionDialog.hpp</title>
    <!-- Node0 -->
<g id="node1" class="node">
<title>Node0</title>
<polygon fill="#bfbfbf" stroke="#000000" points="699.7178,-330.5 699.7178,-358.5 826.8945,-358.5 826.8945,-330.5 699.7178,-330.5"/>
<text text-anchor="start" x="707.7178" y="-346.5" font-family="Helvetica,sans-Serif" font-size="10.00" fill="#000000">code/gui/AddPrescription</text>
<text text-anchor="middle" x="763.3062" y="-336.5" font-family="Helvetica,sans-Serif" font-size="10.00" fill="#000000">Dialog.hpp</text>
</g>
    <!-- Node1 -->
<g id="node2" class="node">
<title>Node1</title>
<polygon fill="none" stroke="#bfbfbf" points="0,-220.5 0,-238.5 78.6123,-238.5 78.6123,-220.5 0,-220.5"/>
<text text-anchor="middle" x="39.3062" y="-226.5" font-family="Helvetica,sans-Serif" font-size="10.00" fill="#000000">gtkmm/entry.h</text>
</g>
    <!-- Node0&#45;&gt;Node1 -->
<g id="edge1" class="edge">
<title>Node0&#45;&gt;Node1</title>
<path fill="none" stroke="#191970" d="M699.5088,-341.3546C571.3828,-334.6283 286.9555,-317.5224 192.3062,-294 145.6058,-282.394 94.7529,-258.4979 65.0206,-243.2751"/>
<polygon fill="#191970" stroke="#191970" points="66.6292,-240.1666 56.1415,-238.6639 63.403,-246.3789 66.6292,-240.1666"/>
</g>
    <!-- Node2 -->
<g id="node3" class="node">
<title>Node2</title>
<polygon fill="none" stroke="#bfbfbf" points="96.6191,-220.5 96.6191,-238.5 215.9932,-238.5 215.9932,-220.5 96.6191,-220.5"/>
<text text-anchor="middle" x="156.3062" y="-226.5" font-family="Helvetica,sans-Serif" font-size="10.00" fill="#000000">gtkmm/comboboxtext.h</text>
</g>
    <!-- Node0&#45;&gt;Node2 -->
<g id="edge2" class="edge">
<title>Node0&#45;&gt;Node2</title>
<path fill="none" stroke="#191970" d="M699.6758,-343.7721C575.7028,-341.5083 306.6538,-332.2066 223.3062,-294 200.485,-283.5388 180.6698,-261.9918 168.6275,-246.6842"/>
<polygon fill="#191970" stroke="#191970" points="171.2878,-244.3989 162.4715,-238.5233 165.6994,-248.6144 171.2878,-244.3989"/>
</g>
    <!-- Node3 -->
<g id="node4" class="node">
<title>Node3</title>
<polygon fill="none" stroke="#bfbfbf" points="946.9146,-275.5 946.9146,-293.5 985.6978,-293.5 985.6978,-275.5 946.9146,-275.5"/>
<text text-anchor="middle" x="966.3062" y="-281.5" font-family="Helvetica,sans-Serif" font-size="10.00" fill="#000000">array</text>
</g>
    <!-- Node0&#45;&gt;Node3 -->
<g id="edge3" class="edge">
<title>Node0&#45;&gt;Node3</title>
<path fill="none" stroke="#191970" d="M813.3178,-330.4739C845.9198,-321.2187 889.6084,-308.6079 936.8644,-294.0629"/>
<polygon fill="#191970" stroke="#191970" points="938.1589,-297.3263 946.6796,-291.0297 936.092,-290.6383 938.1589,-297.3263"/>
</g>
    <!-- Node4 -->
<g id="node5" class="node">
<title>Node4</title>
<polygon fill="none" stroke="#bfbfbf" points="424.4097,-220.5 424.4097,-238.5 498.2026,-238.5 498.2026,-220.5 424.4097,-220.5"/>
<text text-anchor="middle" x="461.3062" y="-226.5" font-family="Helvetica,sans-Serif" font-size="10.00" fill="#000000">gtkmm/grid.h</text>
</g>
    <!-- Node0&#45;&gt;Node4 -->
<g id="edge4" class="edge">
<title>Node0&#45;&gt;Node4</title>
<path fill="none" stroke="#191970" d="M726.275,-330.3987C666.99,-307.8233 551.6686,-263.9095 494.7428,-242.2325"/>
<polygon fill="#191970" stroke="#191970" points="495.7364,-238.8657 485.1454,-238.5779 493.2453,-245.4075 495.7364,-238.8657"/>
</g>
    <!-- Node5 -->
<g id="node6" class="node">
<title>Node5</title>
<polygon fill="none" stroke="#bfbfbf" points="1003.5747,-275.5 1003.5747,-293.5 1089.0376,-293.5 1089.0376,-275.5 1003.5747,-275.5"/>
<text text-anchor="middle" x="1046.3062" y="-281.5" font-family="Helvetica,sans-Serif" font-size="10.00" fill="#000000">gtkmm/listbox.h</text>
</g>
    <!-- Node0&#45;&gt;Node5 -->
<g id="edge5" class="edge">
<title>Node0&#45;&gt;Node5</title>
<path fill="none" stroke="#191970" d="M827.1697,-330.96C877.4417,-320.3016 946.6497,-305.6286 993.7473,-295.6432"/>
<polygon fill="#191970" stroke="#191970" points="994.6848,-299.0223 1003.7414,-293.5243 993.2329,-292.1746 994.6848,-299.0223"/>
</g>
    <!-- Node6 -->
<g id="node7" class="node">
<title>Node6</title>
<g id="a_node7"><a xlink:href="../../dc/de6/_dialog_8hpp.html" target="_top" xlink:title="Dialog.hpp">
<polygon fill="none" stroke="#000000" points="1900.3999,-275.5 1900.3999,-293.5 1964.2124,-293.5 1964.2124,-275.5 1900.3999,-275.5"/>
<text text-anchor="middle" x="1932.3062" y="-281.5" font-family="Helvetica,sans-Serif" font-size="10.00" fill="#000000">Dialog.hpp</text>
</a>
</g>
</g>
    <!-- Node0&#45;&gt;Node6 -->
<g id="edge6" class="edge">
<title>Node0&#45;&gt;Node6</title>
<path fill="none" stroke="#191970" d="M826.9868,-341.2315C1038.4993,-330.3755 1714.1847,-295.6953 1890.1069,-286.6659"/>
<polygon fill="#191970" stroke="#191970" points="1890.4471,-290.1532 1900.2545,-286.1451 1890.0882,-283.1624 1890.4471,-290.1532"/>
</g>
    <!-- Node14 -->
<g id="node15" class="node">
<title>Node14</title>
<g id="a_node15"><a xlink:href="../../dc/d55/_widgets_8hpp.html" target="_top" xlink:title="Widgets.hpp">
<polygon fill="none" stroke="#000000" points="232.5132,-275.5 232.5132,-293.5 304.0991,-293.5 304.0991,-275.5 232.5132,-275.5"/>
<text text-anchor="middle" x="268.3062" y="-281.5" font-family="Helvetica,sans-Serif" font-size="10.00" fill="#000000">Widgets.hpp</text>
</a>
</g>
</g>
    <!-- Node0&#45;&gt;Node14 -->
<g id="edge14" class="edge">
<title>Node0&#45;&gt;Node14</title>
<path fill="none" stroke="#191970" d="M699.6069,-336.7789C598.3848,-324.5095 403.1972,-300.8504 314.358,-290.082"/>
<polygon fill="#191970" stroke="#191970" points="314.6666,-286.5939 304.3181,-288.8651 313.8243,-293.5431 314.6666,-286.5939"/>
</g>
    <!-- Node18 -->
<g id="node19" class="node">
<title>Node18</title>
<g id="a_node19"><a xlink:href="../../d5/d46/_custom_widgets_8hpp.html" target="_top" xlink:title="view/CustomWidgets.hpp">
<polygon fill="none" stroke="#000000" points="799.895,-275.5 799.895,-293.5 928.7173,-293.5 928.7173,-275.5 799.895,-275.5"/>
<text text-anchor="middle" x="864.3062" y="-281.5" font-family="Helvetica,sans-Serif" font-size="10.00" fill="#000000">view/CustomWidgets.hpp</text>
</a>
</g>
</g>
    <!-- Node0&#45;&gt;Node18 -->
<g id="edge20" class="edge">
<title>Node0&#45;&gt;Node18</title>
<path fill="none" stroke="#191970" d="M786.9862,-330.4327C802.9729,-320.9356 824.0113,-308.4376 840.106,-298.8763"/>
<polygon fill="#191970" stroke="#191970" points="842.1257,-301.7475 848.9355,-293.6311 838.5506,-295.7294 842.1257,-301.7475"/>
</g>
    <!-- Node7 -->
<g id="node8" class="node">
<title>Node7</title>
<polygon fill="none" stroke="#bfbfbf" points="1829.7275,-220.5 1829.7275,-238.5 1926.8848,-238.5 1926.8848,-220.5 1829.7275,-220.5"/>
<text text-anchor="middle" x="1878.3062" y="-226.5" font-family="Helvetica,sans-Serif" font-size="10.00" fill="#000000">sigc++/trackable.h</text>
</g>
    <!-- Node6&#45;&gt;Node7 -->
<g id="edge7" class="edge">
<title>Node6&#45;&gt;Node7</title>
<path fill="none" stroke="#191970" d="M1923.3892,-275.4179C1915.5416,-267.425 1903.9221,-255.5903 1894.445,-245.9377"/>
<polygon fill="#191970" stroke="#191970" points="1896.9203,-243.463 1887.4169,-238.7795 1891.9253,-248.3672 1896.9203,-243.463"/>
</g>
    <!-- Node8 -->
<g id="node9" class="node">
<title>Node8</title>
<polygon fill="none" stroke="#bfbfbf" points="1944.4023,-220.5 1944.4023,-238.5 2028.21,-238.5 2028.21,-220.5 1944.4023,-220.5"/>
<text text-anchor="middle" x="1986.3062" y="-226.5" font-family="Helvetica,sans-Serif" font-size="10.00" fill="#000000">gtkmm/dialog.h</text>
</g>
    <!-- Node6&#45;&gt;Node8 -->
<g id="edge8" class="edge">
<title>Node6&#45;&gt;Node8</title>
<path fill="none" stroke="#191970" d="M1941.2232,-275.4179C1949.0707,-267.425 1960.6902,-255.5903 1970.1673,-245.9377"/>
<polygon fill="#191970" stroke="#191970" points="1972.687,-248.3672 1977.1954,-238.7795 1967.692,-243.463 1972.687,-248.3672"/>
</g>
    <!-- Node9 -->
<g id="node10" class="node">
<title>Node9</title>
<g id="a_node10"><a xlink:href="../../d1/d25/_i_subject_8hpp.html" target="_top" xlink:title="../interfaces/ISubject.hpp">
<polygon fill="none" stroke="#000000" points="2046.2744,-220.5 2046.2744,-238.5 2172.3379,-238.5 2172.3379,-220.5 2046.2744,-220.5"/>
<text text-anchor="middle" x="2109.3062" y="-226.5" font-family="Helvetica,sans-Serif" font-size="10.00" fill="#000000">../interfaces/ISubject.hpp</text>
</a>
</g>
</g>
    <!-- Node6&#45;&gt;Node9 -->
<g id="edge9" class="edge">
<title>Node6&#45;&gt;Node9</title>
<path fill="none" stroke="#191970" d="M1961.5341,-275.4179C1991.3438,-266.155 2037.7581,-251.7325 2070.6043,-241.526"/>
<polygon fill="#191970" stroke="#191970" points="2071.818,-244.814 2080.329,-238.5042 2069.7408,-238.1293 2071.818,-244.814"/>
</g>
    <!-- Node10 -->
<g id="node11" class="node">
<title>Node10</title>
<polygon fill="none" stroke="#bfbfbf" points="2058.6362,-165.5 2058.6362,-183.5 2087.9761,-183.5 2087.9761,-165.5 2058.6362,-165.5"/>
<text text-anchor="middle" x="2073.3062" y="-171.5" font-family="Helvetica,sans-Serif" font-size="10.00" fill="#000000">set</text>
</g>
    <!-- Node9&#45;&gt;Node10 -->
<g id="edge10" class="edge">
<title>Node9&#45;&gt;Node10</title>
<path fill="none" stroke="#191970" d="M2103.3615,-220.4179C2098.3888,-212.8207 2091.1443,-201.7527 2085.0138,-192.3866"/>
<polygon fill="#191970" stroke="#191970" points="2087.7851,-190.2297 2079.38,-183.7795 2081.9282,-194.0633 2087.7851,-190.2297"/>
</g>
    <!-- Node11 -->
<g id="node12" class="node">
<title>Node11</title>
<g id="a_node12"><a xlink:href="../../d5/d40/_i_observer_8hpp.html" target="_top" xlink:title="IObserver.hpp">
<polygon fill="none" stroke="#000000" points="2105.8975,-165.5 2105.8975,-183.5 2184.7148,-183.5 2184.7148,-165.5 2105.8975,-165.5"/>
<text text-anchor="middle" x="2145.3062" y="-171.5" font-family="Helvetica,sans-Serif" font-size="10.00" fill="#000000">IObserver.hpp</text>
</a>
</g>
</g>
    <!-- Node9&#45;&gt;Node11 -->
<g id="edge11" class="edge">
<title>Node9&#45;&gt;Node11</title>
<path fill="none" stroke="#191970" d="M2115.2508,-220.4179C2120.2235,-212.8207 2127.468,-201.7527 2133.5986,-192.3866"/>
<polygon fill="#191970" stroke="#191970" points="2136.6842,-194.0633 2139.2323,-183.7795 2130.8272,-190.2297 2136.6842,-194.0633"/>
</g>
    <!-- Node12 -->
<g id="node13" class="node">
<title>Node12</title>
<polygon fill="none" stroke="#bfbfbf" points="2154.6904,-110.5 2154.6904,-128.5 2197.9219,-128.5 2197.9219,-110.5 2154.6904,-110.5"/>
<text text-anchor="middle" x="2176.3062" y="-116.5" font-family="Helvetica,sans-Serif" font-size="10.00" fill="#000000">mutex</text>
</g>
    <!-- Node11&#45;&gt;Node12 -->
<g id="edge12" class="edge">
<title>Node11&#45;&gt;Node12</title>
<path fill="none" stroke="#191970" d="M2150.4252,-165.4179C2154.6626,-157.8998 2160.8158,-146.9829 2166.0593,-137.6799"/>
<polygon fill="#191970" stroke="#191970" points="2169.2148,-139.2096 2171.0759,-128.7795 2163.1167,-135.7724 2169.2148,-139.2096"/>
</g>
    <!-- Node13 -->
<g id="node14" class="node">
<title>Node13</title>
<polygon fill="none" stroke="#bfbfbf" points="2092.1289,-110.5 2092.1289,-128.5 2136.4834,-128.5 2136.4834,-110.5 2092.1289,-110.5"/>
<text text-anchor="middle" x="2114.3062" y="-116.5" font-family="Helvetica,sans-Serif" font-size="10.00" fill="#000000">thread</text>
</g>
    <!-- Node11&#45;&gt;Node13 -->
<g id="edge13" class="edge">
<title>Node11&#45;&gt;Node13</title>
<path fill="none" stroke="#191970" d="M2140.1871,-165.4179C2135.9497,-157.8998 2129.7965,-146.9829 2124.553,-137.6799"/>
<polygon fill="#191970" stroke="#191970" points="2127.4956,-135.7724 2119.5364,-128.7795 2121.3975,-139.2096 2127.4956,-135.7724"/>
</g>
    <!-- Node14&#45;&gt;Node1 -->
<g id="edge15" class="edge">
<title>Node14&#45;&gt;Node1</title>
<path fill="none" stroke="#191970" d="M232.273,-275.8457C193.0101,-266.4158 130.0289,-251.2893 86.7636,-240.8981"/>
<polygon fill="#191970" stroke="#191970" points="87.5735,-237.4931 77.0326,-238.5609 85.9387,-244.2996 87.5735,-237.4931"/>
</g>
    <!-- Node14&#45;&gt;Node2 -->
<g id="edge16" class="edge">
<title>Node14&#45;&gt;Node2</title>
<path fill="none" stroke="#191970" d="M249.8116,-275.4179C231.897,-266.6205 204.5051,-253.1691 183.9917,-243.0956"/>
<polygon fill="#191970" stroke="#191970" points="185.347,-239.8619 174.8282,-238.5956 182.2615,-246.1452 185.347,-239.8619"/>
</g>
    <!-- Node15 -->
<g id="node16" class="node">
<title>Node15</title>
<polygon fill="none" stroke="#bfbfbf" points="233.6338,-220.5 233.6338,-238.5 302.9785,-238.5 302.9785,-220.5 233.6338,-220.5"/>
<text text-anchor="middle" x="268.3062" y="-226.5" font-family="Helvetica,sans-Serif" font-size="10.00" fill="#000000">fmt/format.h</text>
</g>
    <!-- Node14&#45;&gt;Node15 -->
<g id="edge17" class="edge">
<title>Node14&#45;&gt;Node15</title>
<path fill="none" stroke="#191970" d="M268.3062,-275.4179C268.3062,-268.2164 268.3062,-257.8962 268.3062,-248.8632"/>
<polygon fill="#191970" stroke="#191970" points="271.8063,-248.7794 268.3062,-238.7795 264.8063,-248.7795 271.8063,-248.7794"/>
</g>
    <!-- Node16 -->
<g id="node17" class="node">
<title>Node16</title>
<g id="a_node17"><a xlink:href="../../d8/d63/_date_8hpp.html" target="_top" xlink:title="../utils/Date.hpp">
<polygon fill="none" stroke="#000000" points="320.5649,-220.5 320.5649,-238.5 406.0474,-238.5 406.0474,-220.5 320.5649,-220.5"/>
<text text-anchor="middle" x="363.3062" y="-226.5" font-family="Helvetica,sans-Serif" font-size="10.00" fill="#000000">../utils/Date.hpp</text>
</a>
</g>
</g>
    <!-- Node14&#45;&gt;Node16 -->
<g id="edge18" class="edge">
<title>Node14&#45;&gt;Node16</title>
<path fill="none" stroke="#191970" d="M283.9935,-275.4179C298.8451,-266.8195 321.3759,-253.7754 338.6331,-243.7844"/>
<polygon fill="#191970" stroke="#191970" points="340.6949,-246.635 347.5955,-238.5956 337.1876,-240.577 340.6949,-246.635"/>
</g>
    <!-- Node17 -->
<g id="node18" class="node">
<title>Node17</title>
<polygon fill="none" stroke="#bfbfbf" points="29.1338,-55.5 29.1338,-73.5 83.4785,-73.5 83.4785,-55.5 29.1338,-55.5"/>
<text text-anchor="middle" x="56.3062" y="-61.5" font-family="Helvetica,sans-Serif" font-size="10.00" fill="#000000">iostream</text>
</g>
    <!-- Node16&#45;&gt;Node17 -->
<g id="edge19" class="edge">
<title>Node16&#45;&gt;Node17</title>
<path fill="none" stroke="#191970" d="M346.3632,-220.3939C295.4143,-193.0109 143.3571,-111.2863 82.2019,-78.4179"/>
<polygon fill="#191970" stroke="#191970" points="83.6621,-75.2293 73.1967,-73.578 80.3482,-81.3951 83.6621,-75.2293"/>
</g>
    <!-- Node18&#45;&gt;Node4 -->
<g id="edge28" class="edge">
<title>Node18&#45;&gt;Node4</title>
<path fill="none" stroke="#191970" d="M799.5983,-277.2292C728.8699,-269.0272 612.2816,-254.7604 512.3062,-239 511.03,-238.7988 509.7368,-238.5904 508.4324,-238.3761"/>
<polygon fill="#191970" stroke="#191970" points="508.7591,-234.8812 498.3118,-236.6431 507.5776,-241.7807 508.7591,-234.8812"/>
</g>
    <!-- Node18&#45;&gt;Node16 -->
<g id="edge49" class="edge">
<title>Node18&#45;&gt;Node16</title>
<path fill="none" stroke="#191970" d="M799.795,-279.5884C714.4519,-272.7288 559.1391,-258.9938 416.3676,-239.0463"/>
<polygon fill="#191970" stroke="#191970" points="416.5018,-235.5306 406.1109,-237.5993 415.5239,-242.462 416.5018,-235.5306"/>
</g>
    <!-- Node19 -->
<g id="node20" class="node">
<title>Node19</title>
<polygon fill="none" stroke="#bfbfbf" points="686.1709,-220.5 686.1709,-238.5 784.4414,-238.5 784.4414,-220.5 686.1709,-220.5"/>
<text text-anchor="middle" x="735.3062" y="-226.5" font-family="Helvetica,sans-Serif" font-size="10.00" fill="#000000">gtkmm/expander.h</text>
</g>
    <!-- Node18&#45;&gt;Node19 -->
<g id="edge21" class="edge">
<title>Node18&#45;&gt;Node19</title>
<path fill="none" stroke="#191970" d="M843.0044,-275.4179C821.9971,-266.4613 789.6753,-252.6806 765.919,-242.552"/>
<polygon fill="#191970" stroke="#191970" points="767.2111,-239.2981 756.6395,-238.5956 764.4656,-245.7372 767.2111,-239.2981"/>
</g>
    <!-- Node20 -->
<g id="node21" class="node">
<title>Node20</title>
<polygon fill="none" stroke="#bfbfbf" points="802.1167,-220.5 802.1167,-238.5 926.4956,-238.5 926.4956,-220.5 802.1167,-220.5"/>
<text text-anchor="middle" x="864.3062" y="-226.5" font-family="Helvetica,sans-Serif" font-size="10.00" fill="#000000">gtkmm/scrolledwindow.h</text>
</g>
    <!-- Node18&#45;&gt;Node20 -->
<g id="edge22" class="edge">
<title>Node18&#45;&gt;Node20</title>
<path fill="none" stroke="#191970" d="M864.3062,-275.4179C864.3062,-268.2164 864.3062,-257.8962 864.3062,-248.8632"/>
<polygon fill="#191970" stroke="#191970" points="867.8063,-248.7794 864.3062,-238.7795 860.8063,-248.7795 867.8063,-248.7794"/>
</g>
    <!-- Node21 -->
<g id="node22" class="node">
<title>Node21</title>
<polygon fill="none" stroke="#bfbfbf" points="944.7842,-220.5 944.7842,-238.5 1055.8281,-238.5 1055.8281,-220.5 944.7842,-220.5"/>
<text text-anchor="middle" x="1000.3062" y="-226.5" font-family="Helvetica,sans-Serif" font-size="10.00" fill="#000000">gtkmm/checkbutton.h</text>
</g>
    <!-- Node18&#45;&gt;Node21 -->
<g id="edge23" class="edge">
<title>Node18&#45;&gt;Node21</title>
<path fill="none" stroke="#191970" d="M886.7638,-275.4179C909.0094,-266.4215 943.2899,-252.5581 968.3655,-242.4172"/>
<polygon fill="#191970" stroke="#191970" points="969.8568,-245.5895 977.8152,-238.5956 967.2323,-239.1001 969.8568,-245.5895"/>
</g>
    <!-- Node22 -->
<g id="node23" class="node">
<title>Node22</title>
<polygon fill="none" stroke="#bfbfbf" points="1073.4023,-220.5 1073.4023,-238.5 1167.21,-238.5 1167.21,-220.5 1073.4023,-220.5"/>
<text text-anchor="middle" x="1120.3062" y="-226.5" font-family="Helvetica,sans-Serif" font-size="10.00" fill="#000000">gtkmm/treeview.h</text>
</g>
    <!-- Node18&#45;&gt;Node22 -->
<g id="edge24" class="edge">
<title>Node18&#45;&gt;Node22</title>
<path fill="none" stroke="#191970" d="M906.2927,-275.4795C950.6564,-265.9482 1020.677,-250.9047 1068.456,-240.6397"/>
<polygon fill="#191970" stroke="#191970" points="1069.255,-244.048 1078.2967,-238.5255 1067.7846,-237.2041 1069.255,-244.048"/>
</g>
    <!-- Node23 -->
<g id="node24" class="node">
<title>Node23</title>
<polygon fill="none" stroke="#bfbfbf" points="1185.5205,-220.5 1185.5205,-238.5 1277.0918,-238.5 1277.0918,-220.5 1185.5205,-220.5"/>
<text text-anchor="middle" x="1231.3062" y="-226.5" font-family="Helvetica,sans-Serif" font-size="10.00" fill="#000000">gtkmm/liststore.h</text>
</g>
    <!-- Node18&#45;&gt;Node23 -->
<g id="edge25" class="edge">
<title>Node18&#45;&gt;Node23</title>
<path fill="none" stroke="#191970" d="M928.9163,-275.5816C989.8451,-267.0566 1083.9891,-253.59 1175.4228,-239.1079"/>
<polygon fill="#191970" stroke="#191970" points="1176.0786,-242.5477 1185.405,-237.521 1174.9795,-235.6345 1176.0786,-242.5477"/>
</g>
    <!-- Node24 -->
<g id="node25" class="node">
<title>Node24</title>
<polygon fill="none" stroke="#bfbfbf" points="1294.6855,-220.5 1294.6855,-238.5 1367.9268,-238.5 1367.9268,-220.5 1294.6855,-220.5"/>
<text text-anchor="middle" x="1331.3062" y="-226.5" font-family="Helvetica,sans-Serif" font-size="10.00" fill="#000000">gtkmm/box.h</text>
</g>
    <!-- Node18&#45;&gt;Node24 -->
<g id="edge26" class="edge">
<title>Node18&#45;&gt;Node24</title>
<path fill="none" stroke="#191970" d="M928.8686,-276.1166C932.0588,-275.7322 935.2182,-275.3579 938.3062,-275 1089.4459,-257.4836 1130.9234,-262.8458 1284.263,-239.1933"/>
<polygon fill="#191970" stroke="#191970" points="1285.186,-242.5917 1294.5273,-237.5928 1284.1075,-235.6753 1285.186,-242.5917"/>
</g>
    <!-- Node25 -->
<g id="node26" class="node">
<title>Node25</title>
<polygon fill="none" stroke="#bfbfbf" points="1385.9663,-220.5 1385.9663,-238.5 1468.646,-238.5 1468.646,-220.5 1385.9663,-220.5"/>
<text text-anchor="middle" x="1427.3062" y="-226.5" font-family="Helvetica,sans-Serif" font-size="10.00" fill="#000000">gtkmm/frame.h</text>
</g>
    <!-- Node18&#45;&gt;Node25 -->
<g id="edge27" class="edge">
<title>Node18&#45;&gt;Node25</title>
<path fill="none" stroke="#191970" d="M928.8596,-276.0357C932.0522,-275.6726 935.2146,-275.325 938.3062,-275 1129.7669,-254.8707 1181.6054,-264.9586 1375.9254,-239.0617"/>
<polygon fill="#191970" stroke="#191970" points="1376.447,-242.5231 1385.89,-237.7191 1375.5122,-235.5858 1376.447,-242.5231"/>
</g>
    <!-- Node26 -->
<g id="node27" class="node">
<title>Node26</title>
<polygon fill="none" stroke="#bfbfbf" points="1486.959,-220.5 1486.959,-238.5 1579.6533,-238.5 1579.6533,-220.5 1486.959,-220.5"/>
<text text-anchor="middle" x="1533.3062" y="-226.5" font-family="Helvetica,sans-Serif" font-size="10.00" fill="#000000">gtkmm/textview.h</text>
</g>
    <!-- Node18&#45;&gt;Node26 -->
<g id="edge29" class="edge">
<title>Node18&#45;&gt;Node26</title>
<path fill="none" stroke="#191970" d="M928.8538,-275.978C932.0479,-275.6302 935.2122,-275.3016 938.3062,-275 1173.9955,-252.022 1237.1509,-266.6998 1476.8405,-238.9228"/>
<polygon fill="#191970" stroke="#191970" points="1477.3857,-242.383 1486.9105,-237.7431 1476.5711,-235.4306 1477.3857,-242.383"/>
</g>
    <!-- Node27 -->
<g id="node28" class="node">
<title>Node27</title>
<polygon fill="none" stroke="#bfbfbf" points="1597.5625,-220.5 1597.5625,-238.5 1693.0498,-238.5 1693.0498,-220.5 1597.5625,-220.5"/>
<text text-anchor="middle" x="1645.3062" y="-226.5" font-family="Helvetica,sans-Serif" font-size="10.00" fill="#000000">gtkmm/hvpaned.h</text>
</g>
    <!-- Node18&#45;&gt;Node27 -->
<g id="edge30" class="edge">
<title>Node18&#45;&gt;Node27</title>
<path fill="none" stroke="#191970" d="M928.8497,-275.9347C932.0449,-275.5983 935.2105,-275.2841 938.3062,-275 1223.0509,-248.8717 1298.9599,-270.3156 1587.1241,-239.0014"/>
<polygon fill="#191970" stroke="#191970" points="1587.9074,-242.4365 1597.4652,-237.865 1587.1427,-235.4784 1587.9074,-242.4365"/>
</g>
    <!-- Node28 -->
<g id="node29" class="node">
<title>Node28</title>
<polygon fill="none" stroke="#bfbfbf" points="1710.7915,-220.5 1710.7915,-238.5 1811.8208,-238.5 1811.8208,-220.5 1710.7915,-220.5"/>
<text text-anchor="middle" x="1761.3062" y="-226.5" font-family="Helvetica,sans-Serif" font-size="10.00" fill="#000000">gtkmm/listboxrow.h</text>
</g>
    <!-- Node18&#45;&gt;Node28 -->
<g id="edge31" class="edge">
<title>Node18&#45;&gt;Node28</title>
<path fill="none" stroke="#191970" d="M928.8469,-275.9033C932.0429,-275.5752 935.2094,-275.2713 938.3062,-275 1273.6345,-245.6233 1362.4602,-273.5192 1700.4332,-239.0889"/>
<polygon fill="#191970" stroke="#191970" points="1700.9166,-242.5577 1710.5056,-238.0519 1700.1997,-235.5945 1700.9166,-242.5577"/>
</g>
    <!-- Node29 -->
<g id="node30" class="node">
<title>Node29</title>
<g id="a_node30"><a xlink:href="../../de/d01/_prescription_8hpp.html" target="_top" xlink:title="../../model/Prescription.hpp">
<polygon fill="none" stroke="#000000" points="422.8335,-165.5 422.8335,-183.5 557.7788,-183.5 557.7788,-165.5 422.8335,-165.5"/>
<text text-anchor="middle" x="490.3062" y="-171.5" font-family="Helvetica,sans-Serif" font-size="10.00" fill="#000000">../../model/Prescription.hpp</text>
</a>
</g>
</g>
    <!-- Node18&#45;&gt;Node29 -->
<g id="edge32" class="edge">
<title>Node18&#45;&gt;Node29</title>
<path fill="none" stroke="#191970" d="M799.8627,-280.6855C719.6112,-275.0194 587.8818,-262.4366 545.3062,-239 525.8471,-228.2884 510.2147,-207.7859 500.661,-192.7616"/>
<polygon fill="#191970" stroke="#191970" points="503.4417,-190.5949 495.2815,-183.8375 497.4466,-194.2088 503.4417,-190.5949"/>
</g>
    <!-- Node37 -->
<g id="node38" class="node">
<title>Node37</title>
<g id="a_node38"><a xlink:href="../../d0/da9/_patient_8hpp.html" target="_top" xlink:title="../../model/Patient.hpp">
<polygon fill="none" stroke="#000000" points="554.666,-220.5 554.666,-238.5 667.9463,-238.5 667.9463,-220.5 554.666,-220.5"/>
<text text-anchor="middle" x="611.3062" y="-226.5" font-family="Helvetica,sans-Serif" font-size="10.00" fill="#000000">../../model/Patient.hpp</text>
</a>
</g>
</g>
    <!-- Node18&#45;&gt;Node37 -->
<g id="edge50" class="edge">
<title>Node18&#45;&gt;Node37</title>
<path fill="none" stroke="#191970" d="M822.8117,-275.4795C779.0595,-265.9681 710.0572,-250.9676 662.8453,-240.7042"/>
<polygon fill="#191970" stroke="#191970" points="663.3386,-237.2297 652.8233,-238.5255 661.8515,-244.07 663.3386,-237.2297"/>
</g>
    <!-- Node30 -->
<g id="node31" class="node">
<title>Node30</title>
<polygon fill="none" stroke="#bfbfbf" points="324.6904,-.5 324.6904,-18.5 367.9219,-18.5 367.9219,-.5 324.6904,-.5"/>
<text text-anchor="middle" x="346.3062" y="-6.5" font-family="Helvetica,sans-Serif" font-size="10.00" fill="#000000">vector</text>
</g>
    <!-- Node29&#45;&gt;Node30 -->
<g id="edge33" class="edge">
<title>Node29&#45;&gt;Node30</title>
<path fill="none" stroke="#191970" d="M432.7078,-165.4657C348.1084,-150.8132 197.1268,-118.9131 168.3062,-74 163.7456,-66.893 163.1269,-61.6697 168.3062,-55 186.0471,-32.1538 267.9968,-18.8412 314.2684,-13.0211"/>
<polygon fill="#191970" stroke="#191970" points="314.8779,-16.4729 324.3847,-11.7964 314.0365,-9.5237 314.8779,-16.4729"/>
</g>
    <!-- Node31 -->
<g id="node32" class="node">
<title>Node31</title>
<polygon fill="none" stroke="#bfbfbf" points="551.0796,-.5 551.0796,-18.5 591.5327,-18.5 591.5327,-.5 551.0796,-.5"/>
<text text-anchor="middle" x="571.3062" y="-6.5" font-family="Helvetica,sans-Serif" font-size="10.00" fill="#000000">string</text>
</g>
    <!-- Node29&#45;&gt;Node31 -->
<g id="edge34" class="edge">
<title>Node29&#45;&gt;Node31</title>
<path fill="none" stroke="#191970" d="M532.3739,-165.3982C577.4699,-153.149 646.818,-126.5377 678.3062,-74 697.9265,-41.2636 640.0259,-23.0573 601.9005,-14.8726"/>
<polygon fill="#191970" stroke="#191970" points="602.247,-11.3721 591.7525,-12.8261 600.8632,-18.234 602.247,-11.3721"/>
</g>
    <!-- Node32 -->
<g id="node33" class="node">
<title>Node32</title>
<polygon fill="none" stroke="#bfbfbf" points="93.5796,-.5 93.5796,-18.5 129.0327,-18.5 129.0327,-.5 93.5796,-.5"/>
<text text-anchor="middle" x="111.3062" y="-6.5" font-family="Helvetica,sans-Serif" font-size="10.00" fill="#000000">map</text>
</g>
    <!-- Node29&#45;&gt;Node32 -->
<g id="edge35" class="edge">
<title>Node29&#45;&gt;Node32</title>
<path fill="none" stroke="#191970" d="M422.7347,-170.5162C304.5772,-161.9494 68.3784,-137.1608 20.3062,-74 -.2069,-47.0484 49.789,-26.8164 83.522,-16.7029"/>
<polygon fill="#191970" stroke="#191970" points="84.7165,-20.0019 93.3727,-13.8929 82.7962,-13.2704 84.7165,-20.0019"/>
</g>
    <!-- Node33 -->
<g id="node34" class="node">
<title>Node33</title>
<polygon fill="none" stroke="#bfbfbf" points="535.395,-55.5 535.395,-73.5 669.2173,-73.5 669.2173,-55.5 535.395,-55.5"/>
<text text-anchor="middle" x="602.3062" y="-61.5" font-family="Helvetica,sans-Serif" font-size="10.00" fill="#000000">gtkmm/treemodelcolumn.h</text>
</g>
    <!-- Node29&#45;&gt;Node33 -->
<g id="edge36" class="edge">
<title>Node29&#45;&gt;Node33</title>
<path fill="none" stroke="#191970" d="M499.4716,-165.4982C518.3406,-146.9662 561.7601,-104.3221 585.7041,-80.8056"/>
<polygon fill="#191970" stroke="#191970" points="588.3321,-83.1303 593.0141,-73.6261 583.4271,-78.1362 588.3321,-83.1303"/>
</g>
    <!-- Node34 -->
<g id="node35" class="node">
<title>Node34</title>
<g id="a_node35"><a xlink:href="../../d3/d1b/_i_serializable_8hpp.html" target="_top" xlink:title="../interfaces/ISerializable.hpp">
<polygon fill="none" stroke="#000000" points="373.1045,-55.5 373.1045,-73.5 517.5078,-73.5 517.5078,-55.5 373.1045,-55.5"/>
<text text-anchor="middle" x="445.3062" y="-61.5" font-family="Helvetica,sans-Serif" font-size="10.00" fill="#000000">../interfaces/ISerializable.hpp</text>
</a>
</g>
</g>
    <!-- Node29&#45;&gt;Node34 -->
<g id="edge37" class="edge">
<title>Node29&#45;&gt;Node34</title>
<path fill="none" stroke="#191970" d="M486.6236,-165.4982C479.273,-147.5302 462.6497,-106.8954 452.8762,-83.0046"/>
<polygon fill="#191970" stroke="#191970" points="456.0654,-81.5564 449.0396,-73.6261 449.5865,-84.2069 456.0654,-81.5564"/>
</g>
    <!-- Node35 -->
<g id="node36" class="node">
<title>Node35</title>
<g id="a_node36"><a xlink:href="../../dd/df9/_drug_8hpp.html" target="_top" xlink:title="Drug.hpp">
<polygon fill="none" stroke="#000000" points="297.7373,-110.5 297.7373,-128.5 354.875,-128.5 354.875,-110.5 297.7373,-110.5"/>
<text text-anchor="middle" x="326.3062" y="-116.5" font-family="Helvetica,sans-Serif" font-size="10.00" fill="#000000">Drug.hpp</text>
</a>
</g>
</g>
    <!-- Node29&#45;&gt;Node35 -->
<g id="edge41" class="edge">
<title>Node29&#45;&gt;Node35</title>
<path fill="none" stroke="#191970" d="M463.2249,-165.4179C435.8427,-156.2348 393.3396,-141.9807 362.9554,-131.7909"/>
<polygon fill="#191970" stroke="#191970" points="363.749,-128.3655 353.1551,-128.5042 361.5232,-135.0023 363.749,-128.3655"/>
</g>
    <!-- Node34&#45;&gt;Node30 -->
<g id="edge40" class="edge">
<title>Node34&#45;&gt;Node30</title>
<path fill="none" stroke="#191970" d="M428.9583,-55.4179C413.338,-46.7399 389.5663,-33.5334 371.52,-23.5077"/>
<polygon fill="#191970" stroke="#191970" points="373.1196,-20.3925 362.6783,-18.5956 369.7201,-26.5117 373.1196,-20.3925"/>
</g>
    <!-- Node34&#45;&gt;Node31 -->
<g id="edge38" class="edge">
<title>Node34&#45;&gt;Node31</title>
<path fill="none" stroke="#191970" d="M466.1125,-55.4179C486.6624,-46.4477 518.2972,-32.6388 541.5108,-22.5059"/>
<polygon fill="#191970" stroke="#191970" points="543.1223,-25.6215 550.887,-18.4131 540.3218,-19.206 543.1223,-25.6215"/>
</g>
    <!-- Node34&#45;&gt;Node32 -->
<g id="edge39" class="edge">
<title>Node34&#45;&gt;Node32</title>
<path fill="none" stroke="#191970" d="M390.5269,-55.4795C318.5238,-43.6227 194.719,-23.2356 139.4161,-14.1289"/>
<polygon fill="#191970" stroke="#191970" points="139.7404,-10.6352 129.3046,-12.4638 138.603,-17.5422 139.7404,-10.6352"/>
</g>
    <!-- Node35&#45;&gt;Node17 -->
<g id="edge47" class="edge">
<title>Node35&#45;&gt;Node17</title>
<path fill="none" stroke="#191970" d="M297.6857,-114.114C254.2769,-105.8772 169.2298,-89.4738 97.3062,-74 96.0606,-73.732 94.7944,-73.4565 93.5163,-73.1756"/>
<polygon fill="#191970" stroke="#191970" points="94.1501,-69.7309 83.6264,-70.9567 92.6176,-76.5611 94.1501,-69.7309"/>
</g>
    <!-- Node35&#45;&gt;Node30 -->
<g id="edge43" class="edge">
<title>Node35&#45;&gt;Node30</title>
<path fill="none" stroke="#191970" d="M326.3272,-110.2185C326.5137,-97.5998 327.4195,-74.3816 331.3062,-55 333.1028,-46.0408 336.1198,-36.3918 338.9789,-28.295"/>
<polygon fill="#191970" stroke="#191970" points="342.3293,-29.3266 342.5306,-18.7336 335.7674,-26.889 342.3293,-29.3266"/>
</g>
    <!-- Node35&#45;&gt;Node31 -->
<g id="edge42" class="edge">
<title>Node35&#45;&gt;Node31</title>
<path fill="none" stroke="#191970" d="M329.0387,-110.3951C333.7852,-96.2173 344.9461,-69.0382 364.3062,-55 392.2555,-34.7337 490.4541,-19.7307 540.8966,-13.1642"/>
<polygon fill="#191970" stroke="#191970" points="541.415,-16.6265 550.8932,-11.8922 540.5313,-9.6825 541.415,-16.6265"/>
</g>
    <!-- Node35&#45;&gt;Node32 -->
<g id="edge44" class="edge">
<title>Node35&#45;&gt;Node32</title>
<path fill="none" stroke="#191970" d="M297.5017,-116.1506C264.2196,-111.2121 208.8422,-99.6245 168.3062,-74 149.4474,-62.0786 133.1988,-42.1249 122.93,-27.5622"/>
<polygon fill="#191970" stroke="#191970" points="125.5795,-25.2323 117.0781,-18.9096 119.7811,-29.1538 125.5795,-25.2323"/>
</g>
    <!-- Node35&#45;&gt;Node33 -->
<g id="edge45" class="edge">
<title>Node35&#45;&gt;Node33</title>
<path fill="none" stroke="#191970" d="M355.0619,-113.7697C400.2577,-104.7633 488.7266,-87.1336 546.6611,-75.5887"/>
<polygon fill="#191970" stroke="#191970" points="547.6272,-78.9651 556.7503,-73.5782 546.2591,-72.1001 547.6272,-78.9651"/>
</g>
    <!-- Node35&#45;&gt;Node34 -->
<g id="edge48" class="edge">
<title>Node35&#45;&gt;Node34</title>
<path fill="none" stroke="#191970" d="M345.9566,-110.4179C365.1631,-101.5409 394.6224,-87.9253 416.4801,-77.823"/>
<polygon fill="#191970" stroke="#191970" points="418.0176,-80.9682 425.6265,-73.5956 415.0807,-74.614 418.0176,-80.9682"/>
</g>
    <!-- Node36 -->
<g id="node37" class="node">
<title>Node36</title>
<polygon fill="none" stroke="#bfbfbf" points="177.5132,-55.5 177.5132,-73.5 279.0991,-73.5 279.0991,-55.5 177.5132,-55.5"/>
<text text-anchor="middle" x="228.3062" y="-61.5" font-family="Helvetica,sans-Serif" font-size="10.00" fill="#000000">gtkmm/treemodel.h</text>
</g>
    <!-- Node35&#45;&gt;Node36 -->
<g id="edge46" class="edge">
<title>Node35&#45;&gt;Node36</title>
<path fill="none" stroke="#191970" d="M310.1234,-110.4179C294.6609,-101.7399 271.1294,-88.5334 253.2653,-78.5077"/>
<polygon fill="#191970" stroke="#191970" points="254.9464,-75.4377 244.5129,-73.5956 251.5204,-81.542 254.9464,-75.4377"/>
</g>
    <!-- Node37&#45;&gt;Node29 -->
<g id="edge55" class="edge">
<title>Node37&#45;&gt;Node29</title>
<path fill="none" stroke="#191970" d="M591.3255,-220.4179C571.7961,-211.5409 541.8417,-197.9253 519.6166,-187.823"/>
<polygon fill="#191970" stroke="#191970" points="520.8685,-184.5474 510.3165,-183.5956 517.9719,-190.92 520.8685,-184.5474"/>
</g>
    <!-- Node37&#45;&gt;Node30 -->
<g id="edge51" class="edge">
<title>Node37&#45;&gt;Node30</title>
<path fill="none" stroke="#191970" d="M620.5714,-220.4019C647.9039,-192.4921 723.53,-106.8444 678.3062,-55 658.7195,-32.546 457.868,-16.8914 378.4097,-11.5333"/>
<polygon fill="#191970" stroke="#191970" points="378.2445,-8.0148 368.0349,-10.846 377.7817,-14.9995 378.2445,-8.0148"/>
</g>
    <!-- Node37&#45;&gt;Node31 -->
<g id="edge52" class="edge">
<title>Node37&#45;&gt;Node31</title>
<path fill="none" stroke="#191970" d="M656.9893,-220.4428C692.7454,-212.317 738.2183,-199.3308 749.3062,-184 782.9054,-137.5436 784.4703,-100.2834 749.3062,-55 731.3384,-31.8616 647.5091,-18.5023 601.5865,-12.8015"/>
<polygon fill="#191970" stroke="#191970" points="601.9387,-9.3187 591.5941,-11.6077 601.1083,-16.2693 601.9387,-9.3187"/>
</g>
    <!-- Node37&#45;&gt;Node33 -->
<g id="edge53" class="edge">
<title>Node37&#45;&gt;Node33</title>
<path fill="none" stroke="#191970" d="M615.0366,-220.2787C618.4866,-211.2185 623.3644,-196.9132 625.3062,-184 630.1966,-151.4767 632.9326,-141.9924 625.3062,-110 623.0298,-100.4511 618.4091,-90.6361 613.9024,-82.5779"/>
<polygon fill="#191970" stroke="#191970" points="616.7632,-80.5422 608.6272,-73.7558 610.7554,-84.1347 616.7632,-80.5422"/>
</g>
    <!-- Node37&#45;&gt;Node34 -->
<g id="edge54" class="edge">
<title>Node37&#45;&gt;Node34</title>
<path fill="none" stroke="#191970" d="M605.9004,-220.1682C598.0856,-207.0857 582.7554,-182.8914 566.3062,-165 535.0587,-131.0128 492.3099,-98.084 466.8796,-79.6391"/>
<polygon fill="#191970" stroke="#191970" points="468.8203,-76.724 458.654,-73.741 464.7412,-82.4126 468.8203,-76.724"/>
</g>
</g>
</svg>
        <g id="navigator" transform="translate(0 0)" fill="#404254">
                <rect fill="#f2f5e9" fill-opacity="0.5" stroke="#606060" stroke-width=".5" x="0" y="0" width="60" height="60"/>
                <use id="zoomplus" xlink:href="#zoomPlus" x="17" y="9" onmousedown="handleZoom(evt,'in')"/>
                <use id="zoomminus" xlink:href="#zoomMin" x="42" y="9" onmousedown="handleZoom(evt,'out')"/>
                <use id="reset" xlink:href="#resetDef" x="30" y="36" onmousedown="handleReset()"/>
                <g id="arrowUp" xlink:href="#dirArrow" transform="translate(30 24)" onmousedown="handlePan(0,-1)">
                  <use xlink:href="#rim" fill="#404040">
                        <set attributeName="fill" to="#808080" begin="arrowUp.mouseover" end="arrowUp.mouseout"/>
                  </use>
                  <path fill="none" stroke="white" stroke-width="1.5" d="M0,-3.0v7 M-2.5,-0.5L0,-3.0L2.5,-0.5"/>
                </g>
                <g id="arrowRight" xlink:href="#dirArrow" transform="rotate(90) translate(36 -43)" onmousedown="handlePan(1,0)">
                  <use xlink:href="#rim" fill="#404040">
                        <set attributeName="fill" to="#808080" begin="arrowRight.mouseover" end="arrowRight.mouseout"/>
                  </use>
                  <path fill="none" stroke="white" stroke-width="1.5" d="M0,-3.0v7 M-2.5,-0.5L0,-3.0L2.5,-0.5"/>
                </g>
                <g id="arrowDown" xlink:href="#dirArrow" transform="rotate(180) translate(-30 -48)" onmousedown="handlePan(0,1)">
                  <use xlink:href="#rim" fill="#404040">
                        <set attributeName="fill" to="#808080" begin="arrowDown.mouseover" end="arrowDown.mouseout"/>
                  </use>
                  <path fill="none" stroke="white" stroke-width="1.5" d="M0,-3.0v7 M-2.5,-0.5L0,-3.0L2.5,-0.5"/>
                </g>
                <g id="arrowLeft" xlink:href="#dirArrow" transform="rotate(270) translate(-36 17)" onmousedown="handlePan(-1,0)">
                  <use xlink:href="#rim" fill="#404040">
                        <set attributeName="fill" to="#808080" begin="arrowLeft.mouseover" end="arrowLeft.mouseout"/>
                  </use>
                  <path fill="none" stroke="white" stroke-width="1.5" d="M0,-3.0v7 M-2.5,-0.5L0,-3.0L2.5,-0.5"/>
                </g>
        </g>
        <svg viewBox="0 0 15 15" width="100%" height="30px" preserveAspectRatio="xMaxYMin meet">
         <g id="arrow_out" transform="scale(0.3 0.3)">
          <a xlink:href="_add_prescription_dialog_8hpp__incl_org.svg" target="_base">
           <rect id="button" ry="5" rx="5" y="6" x="6" height="38" width="38"
                fill="#f2f5e9" fill-opacity="0.5" stroke="#606060" stroke-width="1.0"/>
           <path id="arrow"
             d="M 11.500037,31.436501 C 11.940474,20.09759 22.043105,11.32322 32.158766,21.979434 L 37.068811,17.246167 C 37.068811,17.246167 37.088388,32 37.088388,32 L 22.160133,31.978069 C 22.160133,31.978069 26.997745,27.140456 26.997745,27.140456 C 18.528582,18.264221 13.291696,25.230495 11.500037,31.436501 z"
             style="fill:#404040;"/>
          </a>
         </g>
        </svg>
</svg>
