<?xml version="1.0" encoding="UTF-8" standalone="no"?>
<!DOCTYPE svg PUBLIC "-//W3C//DTD SVG 1.1//EN"
        "http://www.w3.org/Graphics/SVG/1.1/DTD/svg11.dtd">
<!-- Generated by graphviz version 2.40.1 (20161225.0304)
 -->
<!-- Title: code/gui/AddPrescriptionDialog.hpp Pages: 1 -->
<svg width="673pt" height="257pt"
     viewBox="0.00 0.00 673.34 257.00" xmlns="http://www.w3.org/2000/svg" xmlns:xlink="http://www.w3.org/1999/xlink">
    <g id="graph0" class="graph" transform="scale(1 1) rotate(0) translate(4 253)">
        <title>code/gui/AddPrescriptionDialog.hpp</title>
        <!-- Node0 -->
        <g id="node1" class="node">
            <title>Node0</title>
            <polygon fill="#bfbfbf" stroke="#000000"
                     points="124.7178,-220.5 124.7178,-248.5 251.8945,-248.5 251.8945,-220.5 124.7178,-220.5"/>
            <text text-anchor="start" x="132.7178" y="-236.5" font-family="Helvetica,sans-Serif" font-size="10.00"
                  fill="#000000">code/gui/AddPrescription
            </text>
            <text text-anchor="middle" x="188.3062" y="-226.5" font-family="Helvetica,sans-Serif" font-size="10.00"
                  fill="#000000">Dialog.hpp
            </text>
        </g>
        <!-- Node1 -->
        <g id="node2" class="node">
            <title>Node1</title>
            <polygon fill="none" stroke="#bfbfbf" points="0,-110.5 0,-128.5 78.6123,-128.5 78.6123,-110.5 0,-110.5"/>
            <text text-anchor="middle" x="39.3062" y="-116.5" font-family="Helvetica,sans-Serif" font-size="10.00"
                  fill="#000000">gtkmm/entry.h
            </text>
        </g>
        <!-- Node0&#45;&gt;Node1 -->
        <g id="edge1" class="edge">
            <title>Node0&#45;&gt;Node1</title>
            <path fill="none" stroke="#191970"
                  d="M170.0358,-220.3987C142.007,-198.7657 88.5911,-157.5387 59.4669,-135.0603"/>
            <polygon fill="#191970" stroke="#191970"
                     points="61.3181,-132.0679 51.2633,-128.7286 57.0411,-137.6093 61.3181,-132.0679"/>
        </g>
        <!-- Node2 -->
        <g id="node3" class="node">
            <title>Node2</title>
            <polygon fill="none" stroke="#bfbfbf"
                     points="96.6191,-110.5 96.6191,-128.5 215.9932,-128.5 215.9932,-110.5 96.6191,-110.5"/>
            <text text-anchor="middle" x="156.3062" y="-116.5" font-family="Helvetica,sans-Serif" font-size="10.00"
                  fill="#000000">gtkmm/comboboxtext.h
            </text>
        </g>
        <!-- Node0&#45;&gt;Node2 -->
        <g id="edge2" class="edge">
            <title>Node0&#45;&gt;Node2</title>
            <path fill="none" stroke="#191970"
                  d="M184.3823,-220.3987C178.6481,-199.7914 167.9664,-161.4041 161.5597,-138.38"/>
            <polygon fill="#191970" stroke="#191970"
                     points="164.9268,-137.4243 158.8741,-128.7286 158.1831,-139.3009 164.9268,-137.4243"/>
        </g>
        <!-- Node3 -->
        <g id="node4" class="node">
            <title>Node3</title>
            <g id="a_node4">
                <a xlink:href="../../dc/de6/_dialog_8hpp.html" target="_top" xlink:title="Dialog.hpp">
                    <polygon fill="none" stroke="#000000"
                             points="440.3999,-165.5 440.3999,-183.5 504.2124,-183.5 504.2124,-165.5 440.3999,-165.5"/>
                    <text text-anchor="middle" x="472.3062" y="-171.5" font-family="Helvetica,sans-Serif"
                          font-size="10.00" fill="#000000">Dialog.hpp
                    </text>
                </a>
            </g>
        </g>
        <!-- Node0&#45;&gt;Node3 -->
        <g id="edge3" class="edge">
            <title>Node0&#45;&gt;Node3</title>
            <path fill="none" stroke="#191970"
                  d="M252.0413,-221.0348C306.4341,-209.5434 383.1073,-193.3448 430.1615,-183.4038"/>
            <polygon fill="#191970" stroke="#191970"
                     points="430.9599,-186.8125 440.0204,-181.3209 429.5129,-179.9636 430.9599,-186.8125"/>
        </g>
        <!-- Node10 -->
        <g id="node11" class="node">
            <title>Node10</title>
            <g id="a_node11">
                <a xlink:href="../../dc/d55/_widgets_8hpp.html" target="_top" xlink:title="Widgets.hpp">
                    <polygon fill="none" stroke="#000000"
                             points="184.5132,-165.5 184.5132,-183.5 256.0991,-183.5 256.0991,-165.5 184.5132,-165.5"/>
                    <text text-anchor="middle" x="220.3062" y="-171.5" font-family="Helvetica,sans-Serif"
                          font-size="10.00" fill="#000000">Widgets.hpp
                    </text>
                </a>
            </g>
        </g>
        <!-- Node0&#45;&gt;Node10 -->
        <g id="edge10" class="edge">
            <title>Node0&#45;&gt;Node10</title>
            <path fill="none" stroke="#191970"
                  d="M195.8897,-220.2808C200.2942,-212.0224 205.8883,-201.5335 210.6103,-192.6796"/>
            <polygon fill="#191970" stroke="#191970"
                     points="213.8436,-194.0548 215.4613,-183.5842 207.6671,-190.7607 213.8436,-194.0548"/>
        </g>
        <!-- Node4 -->
        <g id="node5" class="node">
            <title>Node4</title>
            <polygon fill="none" stroke="#bfbfbf"
                     points="423.7275,-110.5 423.7275,-128.5 520.8848,-128.5 520.8848,-110.5 423.7275,-110.5"/>
            <text text-anchor="middle" x="472.3062" y="-116.5" font-family="Helvetica,sans-Serif" font-size="10.00"
                  fill="#000000">sigc++/trackable.h
            </text>
        </g>
        <!-- Node3&#45;&gt;Node4 -->
        <g id="edge4" class="edge">
            <title>Node3&#45;&gt;Node4</title>
            <path fill="none" stroke="#191970"
                  d="M472.3062,-165.4179C472.3062,-158.2164 472.3062,-147.8962 472.3062,-138.8632"/>
            <polygon fill="#191970" stroke="#191970"
                     points="475.8063,-138.7794 472.3062,-128.7795 468.8063,-138.7795 475.8063,-138.7794"/>
        </g>
        <!-- Node5 -->
        <g id="node6" class="node">
            <title>Node5</title>
            <g id="a_node6">
                <a xlink:href="../../d1/d25/_i_subject_8hpp.html" target="_top"
                   xlink:title="../interfaces/ISubject.hpp">
                    <polygon fill="none" stroke="#000000"
                             points="539.2744,-110.5 539.2744,-128.5 665.3379,-128.5 665.3379,-110.5 539.2744,-110.5"/>
                    <text text-anchor="middle" x="602.3062" y="-116.5" font-family="Helvetica,sans-Serif"
                          font-size="10.00" fill="#000000">../interfaces/ISubject.hpp
                    </text>
                </a>
            </g>
        </g>
        <!-- Node3&#45;&gt;Node5 -->
        <g id="edge5" class="edge">
            <title>Node3&#45;&gt;Node5</title>
            <path fill="none" stroke="#191970"
                  d="M493.773,-165.4179C514.9431,-156.4613 547.5155,-142.6806 571.456,-132.552"/>
            <polygon fill="#191970" stroke="#191970"
                     points="572.9615,-135.7155 580.8074,-128.5956 570.234,-129.2687 572.9615,-135.7155"/>
        </g>
        <!-- Node6 -->
        <g id="node7" class="node">
            <title>Node6</title>
            <polygon fill="none" stroke="#bfbfbf"
                     points="623.6362,-55.5 623.6362,-73.5 652.9761,-73.5 652.9761,-55.5 623.6362,-55.5"/>
            <text text-anchor="middle" x="638.3062" y="-61.5" font-family="Helvetica,sans-Serif" font-size="10.00"
                  fill="#000000">set
            </text>
        </g>
        <!-- Node5&#45;&gt;Node6 -->
        <g id="edge6" class="edge">
            <title>Node5&#45;&gt;Node6</title>
            <path fill="none" stroke="#191970"
                  d="M608.2508,-110.4179C613.2235,-102.8207 620.468,-91.7527 626.5986,-82.3866"/>
            <polygon fill="#191970" stroke="#191970"
                     points="629.6842,-84.0633 632.2323,-73.7795 623.8272,-80.2297 629.6842,-84.0633"/>
        </g>
        <!-- Node7 -->
        <g id="node8" class="node">
            <title>Node7</title>
            <g id="a_node8">
                <a xlink:href="../../d5/d40/_i_observer_8hpp.html" target="_top" xlink:title="IObserver.hpp">
                    <polygon fill="none" stroke="#000000"
                             points="526.8975,-55.5 526.8975,-73.5 605.7148,-73.5 605.7148,-55.5 526.8975,-55.5"/>
                    <text text-anchor="middle" x="566.3062" y="-61.5" font-family="Helvetica,sans-Serif"
                          font-size="10.00" fill="#000000">IObserver.hpp
                    </text>
                </a>
            </g>
        </g>
        <!-- Node5&#45;&gt;Node7 -->
        <g id="edge7" class="edge">
            <title>Node5&#45;&gt;Node7</title>
            <path fill="none" stroke="#191970"
                  d="M596.3615,-110.4179C591.3888,-102.8207 584.1443,-91.7527 578.0138,-82.3866"/>
            <polygon fill="#191970" stroke="#191970"
                     points="580.7851,-80.2297 572.38,-73.7795 574.9282,-84.0633 580.7851,-80.2297"/>
        </g>
        <!-- Node8 -->
        <g id="node9" class="node">
            <title>Node8</title>
            <polygon fill="none" stroke="#bfbfbf"
                     points="513.6904,-.5 513.6904,-18.5 556.9219,-18.5 556.9219,-.5 513.6904,-.5"/>
            <text text-anchor="middle" x="535.3062" y="-6.5" font-family="Helvetica,sans-Serif" font-size="10.00"
                  fill="#000000">mutex
            </text>
        </g>
        <!-- Node7&#45;&gt;Node8 -->
        <g id="edge8" class="edge">
            <title>Node7&#45;&gt;Node8</title>
            <path fill="none" stroke="#191970"
                  d="M561.1871,-55.4179C556.9497,-47.8998 550.7965,-36.9829 545.553,-27.6799"/>
            <polygon fill="#191970" stroke="#191970"
                     points="548.4956,-25.7724 540.5364,-18.7795 542.3975,-29.2096 548.4956,-25.7724"/>
        </g>
        <!-- Node9 -->
        <g id="node10" class="node">
            <title>Node9</title>
            <polygon fill="none" stroke="#bfbfbf"
                     points="575.1289,-.5 575.1289,-18.5 619.4834,-18.5 619.4834,-.5 575.1289,-.5"/>
            <text text-anchor="middle" x="597.3062" y="-6.5" font-family="Helvetica,sans-Serif" font-size="10.00"
                  fill="#000000">thread
            </text>
        </g>
        <!-- Node7&#45;&gt;Node9 -->
        <g id="edge9" class="edge">
            <title>Node7&#45;&gt;Node9</title>
            <path fill="none" stroke="#191970"
                  d="M571.4252,-55.4179C575.6626,-47.8998 581.8158,-36.9829 587.0593,-27.6799"/>
            <polygon fill="#191970" stroke="#191970"
                     points="590.2148,-29.2096 592.0759,-18.7795 584.1167,-25.7724 590.2148,-29.2096"/>
        </g>
        <!-- Node10&#45;&gt;Node1 -->
        <g id="edge11" class="edge">
            <title>Node10&#45;&gt;Node1</title>
            <path fill="none" stroke="#191970"
                  d="M190.4177,-165.4179C159.9343,-156.155 112.4712,-141.7325 78.8826,-131.526"/>
            <polygon fill="#191970" stroke="#191970"
                     points="79.5238,-128.0629 68.9382,-128.5042 77.4886,-134.7605 79.5238,-128.0629"/>
        </g>
        <!-- Node10&#45;&gt;Node2 -->
        <g id="edge12" class="edge">
            <title>Node10&#45;&gt;Node2</title>
            <path fill="none" stroke="#191970"
                  d="M209.7379,-165.4179C200.2529,-157.2667 186.1187,-145.1201 174.7695,-135.3669"/>
            <polygon fill="#191970" stroke="#191970"
                     points="176.9695,-132.6427 167.1041,-128.7795 172.4071,-137.9516 176.9695,-132.6427"/>
        </g>
        <!-- Node11 -->
        <g id="node12" class="node">
            <title>Node11</title>
            <polygon fill="none" stroke="#bfbfbf"
                     points="233.6338,-110.5 233.6338,-128.5 302.9785,-128.5 302.9785,-110.5 233.6338,-110.5"/>
            <text text-anchor="middle" x="268.3062" y="-116.5" font-family="Helvetica,sans-Serif" font-size="10.00"
                  fill="#000000">fmt/format.h
            </text>
        </g>
        <!-- Node10&#45;&gt;Node11 -->
        <g id="edge13" class="edge">
            <title>Node10&#45;&gt;Node11</title>
            <path fill="none" stroke="#191970"
                  d="M228.2324,-165.4179C235.0699,-157.5833 245.1287,-146.0575 253.4578,-136.5137"/>
            <polygon fill="#191970" stroke="#191970"
                     points="256.2693,-138.6151 260.2077,-128.7795 250.9953,-134.0123 256.2693,-138.6151"/>
        </g>
        <!-- Node12 -->
        <g id="node13" class="node">
            <title>Node12</title>
            <g id="a_node13">
                <a xlink:href="../../d8/d63/_date_8hpp.html" target="_top" xlink:title="../utils/Date.hpp">
                    <polygon fill="none" stroke="#000000"
                             points="320.5649,-110.5 320.5649,-128.5 406.0474,-128.5 406.0474,-110.5 320.5649,-110.5"/>
                    <text text-anchor="middle" x="363.3062" y="-116.5" font-family="Helvetica,sans-Serif"
                          font-size="10.00" fill="#000000">../utils/Date.hpp
                    </text>
                </a>
            </g>
        </g>
        <!-- Node10&#45;&gt;Node12 -->
        <g id="edge14" class="edge">
            <title>Node10&#45;&gt;Node12</title>
            <path fill="none" stroke="#191970"
                  d="M243.9197,-165.4179C267.4138,-156.3817 303.6744,-142.4353 330.071,-132.2828"/>
            <polygon fill="#191970" stroke="#191970"
                     points="331.5805,-135.4522 339.6575,-128.5956 329.0676,-128.9188 331.5805,-135.4522"/>
        </g>
        <!-- Node13 -->
        <g id="node14" class="node">
            <title>Node13</title>
            <polygon fill="none" stroke="#bfbfbf"
                     points="336.1338,-55.5 336.1338,-73.5 390.4785,-73.5 390.4785,-55.5 336.1338,-55.5"/>
            <text text-anchor="middle" x="363.3062" y="-61.5" font-family="Helvetica,sans-Serif" font-size="10.00"
                  fill="#000000">iostream
            </text>
        </g>
        <!-- Node12&#45;&gt;Node13 -->
        <g id="edge15" class="edge">
            <title>Node12&#45;&gt;Node13</title>
            <path fill="none" stroke="#191970"
                  d="M363.3062,-110.4179C363.3062,-103.2164 363.3062,-92.8962 363.3062,-83.8632"/>
            <polygon fill="#191970" stroke="#191970"
                     points="366.8063,-83.7794 363.3062,-73.7795 359.8063,-83.7795 366.8063,-83.7794"/>
        </g>
    </g>
</svg>
