<?xml version="1.0" encoding="UTF-8" standalone="no"?>
<!DOCTYPE svg PUBLIC "-//W3C//DTD SVG 1.1//EN"
        "http://www.w3.org/Graphics/SVG/1.1/DTD/svg11.dtd">
<!-- Generated by graphviz version 2.40.1 (20161225.0304)
 -->
<!-- Title: code/model/Patient.hpp Pages: 1 -->
<!--zoomable 212 -->
<svg id="main" version="1.1" xmlns="http://www.w3.org/2000/svg" xmlns:xlink="http://www.w3.org/1999/xlink" xml:space="preserve" onload="init(evt)">
<style type="text/css"><![CDATA[
.edge:hover path { stroke: red; }
.edge:hover polygon { stroke: red; fill: red; }
]]></style>
<script type="text/javascript"><![CDATA[
var edges = document.getElementsByTagName('g');
if (edges && edges.length) {
  for (var i=0;i<edges.length;i++) {
    if (edges[i].id.substr(0,4)=='edge') {
      edges[i].setAttribute('class','edge');
    }
  }
}
]]></script>
        <defs>
                <circle id="rim" cx="0" cy="0" r="7"/>
                <circle id="rim2" cx="0" cy="0" r="3.5"/>
                <g id="zoomPlus">
                        <use xlink:href="#rim" fill="#404040">
                                <set attributeName="fill" to="#808080" begin="zoomplus.mouseover" end="zoomplus.mouseout"/>
                        </use>
                        <path d="M-4,0h8M0,-4v8" fill="none" stroke="white" stroke-width="1.5" pointer-events="none"/>
                </g>
                <g id="zoomMin">
                        <use xlink:href="#rim" fill="#404040">
                                <set attributeName="fill" to="#808080" begin="zoomminus.mouseover" end="zoomminus.mouseout"/>
                        </use>
                        <path d="M-4,0h8" fill="none" stroke="white" stroke-width="1.5" pointer-events="none"/>
                </g>
                <g id="dirArrow">
                        <path fill="none" stroke="white" stroke-width="1.5" d="M0,-3.0v7 M-2.5,-0.5L0,-3.0L2.5,-0.5"/>
                </g>
               <g id="resetDef">
                       <use xlink:href="#rim2" fill="#404040">
                               <set attributeName="fill" to="#808080" begin="reset.mouseover" end="reset.mouseout"/>
                       </use>
               </g>
        </defs>

<script type="text/javascript">
var viewWidth = 1134;
var viewHeight = 212;
var sectionId = 'dynsection-1';
</script>
<script xlink:href="../../svgpan.js"/>
<svg id="graph" class="graph">
<g id="viewport">
<title>code/model/Patient.hpp</title>
    <!-- Node10 -->
<g id="node1" class="node">
<title>Node10</title>
<polygon fill="#bfbfbf" stroke="#000000" points="364.8447,-185.5 364.8447,-203.5 485.918,-203.5 485.918,-185.5 364.8447,-185.5"/>
<text text-anchor="middle" x="425.3813" y="-191.5" font-family="Helvetica,sans-Serif" font-size="10.00" fill="#000000">code/model/Patient.hpp</text>
</g>
    <!-- Node11 -->
<g id="node2" class="node">
<title>Node11</title>
<g id="a_node2"><a xlink:href="../../db/db5/_add_patient_dialog_8cpp.html" target="_top" xlink:title="code/gui/AddPatientDialog.cpp">
<polygon fill="none" stroke="#000000" points="0,-130.5 0,-148.5 152.7627,-148.5 152.7627,-130.5 0,-130.5"/>
<text text-anchor="middle" x="76.3813" y="-136.5" font-family="Helvetica,sans-Serif" font-size="10.00" fill="#000000">code/gui/AddPatientDialog.cpp</text>
</a>
</g>
</g>
    <!-- Node10&#45;&gt;Node11 -->
<g id="edge1" class="edge">
<title>Node10&#45;&gt;Node11</title>
<path fill="none" stroke="#191970" d="M357.9728,-183.8769C292.808,-173.6074 195.1568,-158.2182 133.6521,-148.5255"/>
<polygon fill="#191970" stroke="#191970" points="357.7189,-187.38 368.1419,-185.4795 358.8087,-180.4653 357.7189,-187.38"/>
</g>
    <!-- Node12 -->
<g id="node3" class="node">
<title>Node12</title>
<g id="a_node3"><a xlink:href="../../d5/d46/_custom_widgets_8hpp.html" target="_top" xlink:title="code/gui/view/CustomWidgets.hpp">
<polygon fill="none" stroke="#000000" points="340.6772,-130.5 340.6772,-148.5 510.0854,-148.5 510.0854,-130.5 340.6772,-130.5"/>
<text text-anchor="middle" x="425.3813" y="-136.5" font-family="Helvetica,sans-Serif" font-size="10.00" fill="#000000">code/gui/view/CustomWidgets.hpp</text>
</a>
</g>
</g>
    <!-- Node10&#45;&gt;Node12 -->
<g id="edge2" class="edge">
<title>Node10&#45;&gt;Node12</title>
<path fill="none" stroke="#191970" d="M425.3813,-175.383C425.3813,-166.3738 425.3813,-156.0373 425.3813,-148.7795"/>
<polygon fill="#191970" stroke="#191970" points="421.8814,-175.4178 425.3813,-185.4179 428.8814,-175.4179 421.8814,-175.4178"/>
</g>
    <!-- Node14 -->
<g id="node5" class="node">
<title>Node14</title>
<g id="a_node5"><a xlink:href="../../df/de8/_add_prescription_dialog_8cpp.html" target="_top" xlink:title="code/gui/AddPrescription\lDialog.cpp">
<polygon fill="none" stroke="#000000" points="162.793,-.5 162.793,-28.5 289.9697,-28.5 289.9697,-.5 162.793,-.5"/>
<text text-anchor="start" x="170.793" y="-16.5" font-family="Helvetica,sans-Serif" font-size="10.00" fill="#000000">code/gui/AddPrescription</text>
<text text-anchor="middle" x="226.3813" y="-6.5" font-family="Helvetica,sans-Serif" font-size="10.00" fill="#000000">Dialog.cpp</text>
</a>
</g>
</g>
    <!-- Node10&#45;&gt;Node14 -->
<g id="edge13" class="edge">
<title>Node10&#45;&gt;Node14</title>
<path fill="none" stroke="#191970" d="M354.8171,-183.8616C302.102,-171.8149 233.5034,-146.5175 199.3813,-94 185.96,-73.3432 202.0258,-45.3132 214.4956,-28.6473"/>
<polygon fill="#191970" stroke="#191970" points="354.2829,-187.3272 364.798,-186.0295 355.7687,-180.4866 354.2829,-187.3272"/>
</g>
    <!-- Node21 -->
<g id="node12" class="node">
<title>Node21</title>
<g id="a_node12"><a xlink:href="../../dd/dc5/_doctor_8hpp.html" target="_top" xlink:title="code/model/Doctor.hpp">
<polygon fill="none" stroke="#000000" points="851.958,-70.5 851.958,-88.5 970.8047,-88.5 970.8047,-70.5 851.958,-70.5"/>
<text text-anchor="middle" x="911.3813" y="-76.5" font-family="Helvetica,sans-Serif" font-size="10.00" fill="#000000">code/model/Doctor.hpp</text>
</a>
</g>
</g>
    <!-- Node10&#45;&gt;Node21 -->
<g id="edge14" class="edge">
<title>Node10&#45;&gt;Node21</title>
<path fill="none" stroke="#191970" d="M453.6452,-180.9357C472.3323,-171.9388 497.3542,-159.8373 519.3813,-149 536.3241,-140.6642 539.3127,-135.4835 557.3813,-130 679.5524,-92.9232 716.4715,-115.1457 842.3813,-94 851.6766,-92.4389 861.6226,-90.5051 870.9869,-88.5641"/>
<polygon fill="#191970" stroke="#191970" points="451.9946,-177.8458 444.4999,-185.3344 455.0288,-184.154 451.9946,-177.8458"/>
</g>
    <!-- Node24 -->
<g id="node15" class="node">
<title>Node24</title>
<g id="a_node15"><a xlink:href="../../d0/d77/_patient_8cpp.html" target="_top" xlink:title="code/model/Patient.cpp">
<polygon fill="none" stroke="#000000" points="566.1255,-130.5 566.1255,-148.5 686.6372,-148.5 686.6372,-130.5 566.1255,-130.5"/>
<text text-anchor="middle" x="626.3813" y="-136.5" font-family="Helvetica,sans-Serif" font-size="10.00" fill="#000000">code/model/Patient.cpp</text>
</a>
</g>
</g>
    <!-- Node10&#45;&gt;Node24 -->
<g id="edge19" class="edge">
<title>Node10&#45;&gt;Node24</title>
<path fill="none" stroke="#191970" d="M468.6821,-182.6515C506.1218,-172.4068 559.4387,-157.8177 593.4751,-148.5042"/>
<polygon fill="#191970" stroke="#191970" points="467.2941,-179.4026 458.5724,-185.4179 469.1416,-186.1544 467.2941,-179.4026"/>
</g>
    <!-- Node13 -->
<g id="node4" class="node">
<title>Node13</title>
<g id="a_node4"><a xlink:href="../../d0/d1e/_add_prescription_dialog_8hpp.html" target="_top" xlink:title="code/gui/AddPrescription\lDialog.hpp">
<polygon fill="none" stroke="#000000" points="208.793,-65.5 208.793,-93.5 335.9697,-93.5 335.9697,-65.5 208.793,-65.5"/>
<text text-anchor="start" x="216.793" y="-81.5" font-family="Helvetica,sans-Serif" font-size="10.00" fill="#000000">code/gui/AddPrescription</text>
<text text-anchor="middle" x="272.3813" y="-71.5" font-family="Helvetica,sans-Serif" font-size="10.00" fill="#000000">Dialog.hpp</text>
</a>
</g>
</g>
    <!-- Node12&#45;&gt;Node13 -->
<g id="edge3" class="edge">
<title>Node12&#45;&gt;Node13</title>
<path fill="none" stroke="#191970" d="M392.7781,-126.7144C367.9125,-116.9632 333.6945,-103.5444 308.0916,-93.504"/>
<polygon fill="#191970" stroke="#191970" points="391.5564,-129.9948 402.1439,-130.3873 394.112,-123.4779 391.5564,-129.9948"/>
</g>
    <!-- Node16 -->
<g id="node7" class="node">
<title>Node16</title>
<g id="a_node7"><a xlink:href="../../dd/d02/_drug_window_8hpp.html" target="_top" xlink:title="code/gui/DrugWindow.hpp">
<polygon fill="none" stroke="#000000" points="514.0098,-70.5 514.0098,-88.5 646.7529,-88.5 646.7529,-70.5 514.0098,-70.5"/>
<text text-anchor="middle" x="580.3813" y="-76.5" font-family="Helvetica,sans-Serif" font-size="10.00" fill="#000000">code/gui/DrugWindow.hpp</text>
</a>
</g>
</g>
    <!-- Node12&#45;&gt;Node16 -->
<g id="edge6" class="edge">
<title>Node12&#45;&gt;Node16</title>
<path fill="none" stroke="#191970" d="M458.4399,-126.7032C488.1148,-115.2161 530.9204,-98.6462 557.1265,-88.5019"/>
<polygon fill="#191970" stroke="#191970" points="456.9847,-123.5133 448.9225,-130.3873 459.5117,-130.0413 456.9847,-123.5133"/>
</g>
    <!-- Node19 -->
<g id="node10" class="node">
<title>Node19</title>
<g id="a_node10"><a xlink:href="../../dd/de0/_patient_window_8hpp.html" target="_top" xlink:title="code/gui/PatientWindow.hpp">
<polygon fill="none" stroke="#000000" points="354.2808,-70.5 354.2808,-88.5 496.4819,-88.5 496.4819,-70.5 354.2808,-70.5"/>
<text text-anchor="middle" x="425.3813" y="-76.5" font-family="Helvetica,sans-Serif" font-size="10.00" fill="#000000">code/gui/PatientWindow.hpp</text>
</a>
</g>
</g>
    <!-- Node12&#45;&gt;Node19 -->
<g id="edge9" class="edge">
<title>Node12&#45;&gt;Node19</title>
<path fill="none" stroke="#191970" d="M425.3813,-120.3734C425.3813,-109.7812 425.3813,-97.0976 425.3813,-88.6985"/>
<polygon fill="#191970" stroke="#191970" points="421.8814,-120.3873 425.3813,-130.3873 428.8814,-120.3873 421.8814,-120.3873"/>
</g>
    <!-- Node20 -->
<g id="node11" class="node">
<title>Node20</title>
<g id="a_node11"><a xlink:href="../../d1/dea/_custom_widgets_8cpp.html" target="_top" xlink:title="code/gui/view/CustomWidgets.cpp">
<polygon fill="none" stroke="#000000" points="664.958,-70.5 664.958,-88.5 833.8047,-88.5 833.8047,-70.5 664.958,-70.5"/>
<text text-anchor="middle" x="749.3813" y="-76.5" font-family="Helvetica,sans-Serif" font-size="10.00" fill="#000000">code/gui/view/CustomWidgets.cpp</text>
</a>
</g>
</g>
    <!-- Node12&#45;&gt;Node20 -->
<g id="edge12" class="edge">
<title>Node12&#45;&gt;Node20</title>
<path fill="none" stroke="#191970" d="M484.2609,-128.5964C546.2695,-117.1133 642.7756,-99.2418 700.6575,-88.5229"/>
<polygon fill="#191970" stroke="#191970" points="483.4337,-125.19 474.2382,-130.4524 484.7084,-132.0729 483.4337,-125.19"/>
</g>
    <!-- Node13&#45;&gt;Node14 -->
<g id="edge4" class="edge">
<title>Node13&#45;&gt;Node14</title>
<path fill="none" stroke="#191970" d="M256.5697,-57.1575C249.8617,-47.6788 242.2468,-36.9186 236.3432,-28.5765"/>
<polygon fill="#191970" stroke="#191970" points="253.7663,-59.2551 262.4,-65.396 259.4803,-55.2114 253.7663,-59.2551"/>
</g>
    <!-- Node15 -->
<g id="node6" class="node">
<title>Node15</title>
<g id="a_node6"><a xlink:href="../../d8/d35/_patient_window_8cpp.html" target="_top" xlink:title="code/gui/PatientWindow.cpp">
<polygon fill="none" stroke="#000000" points="354.5615,-5.5 354.5615,-23.5 496.2012,-23.5 496.2012,-5.5 354.5615,-5.5"/>
<text text-anchor="middle" x="425.3813" y="-11.5" font-family="Helvetica,sans-Serif" font-size="10.00" fill="#000000">code/gui/PatientWindow.cpp</text>
</a>
</g>
</g>
    <!-- Node13&#45;&gt;Node15 -->
<g id="edge5" class="edge">
<title>Node13&#45;&gt;Node15</title>
<path fill="none" stroke="#191970" d="M315.0593,-61.3688C344.0209,-49.0649 381.0802,-33.3208 404.0218,-23.5743"/>
<polygon fill="#191970" stroke="#191970" points="313.4154,-58.2644 305.5801,-65.396 316.1525,-64.7071 313.4154,-58.2644"/>
</g>
    <!-- Node17 -->
<g id="node8" class="node">
<title>Node17</title>
<g id="a_node8"><a xlink:href="../../d6/d9e/_drug_window_8cpp.html" target="_top" xlink:title="code/gui/DrugWindow.cpp">
<polygon fill="none" stroke="#000000" points="671.2905,-5.5 671.2905,-23.5 803.4722,-23.5 803.4722,-5.5 671.2905,-5.5"/>
<text text-anchor="middle" x="737.3813" y="-11.5" font-family="Helvetica,sans-Serif" font-size="10.00" fill="#000000">code/gui/DrugWindow.cpp</text>
</a>
</g>
</g>
    <!-- Node16&#45;&gt;Node17 -->
<g id="edge7" class="edge">
<title>Node16&#45;&gt;Node17</title>
<path fill="none" stroke="#191970" d="M611.6032,-66.5737C642.3314,-53.8519 688.4624,-34.7531 715.4841,-23.5658"/>
<polygon fill="#191970" stroke="#191970" points="610.1121,-63.4029 602.2115,-70.462 612.7898,-69.8705 610.1121,-63.4029"/>
</g>
    <!-- Node18 -->
<g id="node9" class="node">
<title>Node18</title>
<g id="a_node9"><a xlink:href="../../d5/da5/_main_window_8cpp.html" target="_top" xlink:title="code/gui/MainWindow.cpp">
<polygon fill="none" stroke="#000000" points="514.2905,-5.5 514.2905,-23.5 646.4722,-23.5 646.4722,-5.5 514.2905,-5.5"/>
<text text-anchor="middle" x="580.3813" y="-11.5" font-family="Helvetica,sans-Serif" font-size="10.00" fill="#000000">code/gui/MainWindow.cpp</text>
</a>
</g>
</g>
    <!-- Node16&#45;&gt;Node18 -->
<g id="edge8" class="edge">
<title>Node16&#45;&gt;Node18</title>
<path fill="none" stroke="#191970" d="M580.3813,-60.1265C580.3813,-48.1522 580.3813,-33.3205 580.3813,-23.8821"/>
<polygon fill="#191970" stroke="#191970" points="576.8814,-60.462 580.3813,-70.462 583.8814,-60.4621 576.8814,-60.462"/>
</g>
    <!-- Node19&#45;&gt;Node15 -->
<g id="edge11" class="edge">
<title>Node19&#45;&gt;Node15</title>
<path fill="none" stroke="#191970" d="M425.3813,-60.1265C425.3813,-48.1522 425.3813,-33.3205 425.3813,-23.8821"/>
<polygon fill="#191970" stroke="#191970" points="421.8814,-60.462 425.3813,-70.462 428.8814,-60.4621 421.8814,-60.462"/>
</g>
    <!-- Node19&#45;&gt;Node18 -->
<g id="edge10" class="edge">
<title>Node19&#45;&gt;Node18</title>
<path fill="none" stroke="#191970" d="M456.1778,-66.5854C486.4198,-53.9032 531.7932,-34.8757 558.5126,-23.6708"/>
<polygon fill="#191970" stroke="#191970" points="454.8018,-63.367 446.9334,-70.462 457.5089,-69.8224 454.8018,-63.367"/>
</g>
    <!-- Node21&#45;&gt;Node15 -->
<g id="edge16" class="edge">
<title>Node21&#45;&gt;Node15</title>
<path fill="none" stroke="#191970" d="M861.6842,-68.4337C855.2089,-67.175 848.6496,-65.9908 842.3813,-65 693.5988,-41.4814 654.4768,-50.4462 505.3813,-29 494.4837,-27.4325 482.8,-25.474 471.821,-23.5084"/>
<polygon fill="#191970" stroke="#191970" points="861.243,-71.9149 871.7368,-70.4556 862.6233,-65.0524 861.243,-71.9149"/>
</g>
    <!-- Node21&#45;&gt;Node17 -->
<g id="edge15" class="edge">
<title>Node21&#45;&gt;Node17</title>
<path fill="none" stroke="#191970" d="M877.6594,-66.9027C843.6102,-54.1832 791.8566,-34.8499 761.6497,-23.5658"/>
<polygon fill="#191970" stroke="#191970" points="876.5949,-70.2412 887.1874,-70.462 879.0445,-63.6838 876.5949,-70.2412"/>
</g>
    <!-- Node22 -->
<g id="node13" class="node">
<title>Node22</title>
<g id="a_node13"><a xlink:href="../../d1/d16/_prescription_window_8cpp.html" target="_top" xlink:title="code/gui/PrescriptionWindow.cpp">
<polygon fill="none" stroke="#000000" points="825.729,-5.5 825.729,-23.5 989.0337,-23.5 989.0337,-5.5 825.729,-5.5"/>
<text text-anchor="middle" x="907.3813" y="-11.5" font-family="Helvetica,sans-Serif" font-size="10.00" fill="#000000">code/gui/PrescriptionWindow.cpp</text>
</a>
</g>
</g>
    <!-- Node21&#45;&gt;Node22 -->
<g id="edge17" class="edge">
<title>Node21&#45;&gt;Node22</title>
<path fill="none" stroke="#191970" d="M910.1891,-60.1265C909.4523,-48.1522 908.5395,-33.3205 907.9587,-23.8821"/>
<polygon fill="#191970" stroke="#191970" points="906.7175,-60.6959 910.8252,-70.462 913.7042,-60.2659 906.7175,-60.6959"/>
</g>
    <!-- Node23 -->
<g id="node14" class="node">
<title>Node23</title>
<g id="a_node14"><a xlink:href="../../d3/da6/_doctor_8cpp.html" target="_top" xlink:title="code/model/Doctor.cpp">
<polygon fill="none" stroke="#000000" points="1007.2388,-5.5 1007.2388,-23.5 1125.5239,-23.5 1125.5239,-5.5 1007.2388,-5.5"/>
<text text-anchor="middle" x="1066.3813" y="-11.5" font-family="Helvetica,sans-Serif" font-size="10.00" fill="#000000">code/model/Doctor.cpp</text>
</a>
</g>
</g>
    <!-- Node21&#45;&gt;Node23 -->
<g id="edge18" class="edge">
<title>Node21&#45;&gt;Node23</title>
<path fill="none" stroke="#191970" d="M942.1778,-66.5854C972.4198,-53.9032 1017.7932,-34.8757 1044.5126,-23.6708"/>
<polygon fill="#191970" stroke="#191970" points="940.8018,-63.367 932.9334,-70.462 943.5089,-69.8224 940.8018,-63.367"/>
</g>
</g>
</svg>
        <g id="navigator" transform="translate(0 0)" fill="#404254">
                <rect fill="#f2f5e9" fill-opacity="0.5" stroke="#606060" stroke-width=".5" x="0" y="0" width="60" height="60"/>
                <use id="zoomplus" xlink:href="#zoomPlus" x="17" y="9" onmousedown="handleZoom(evt,'in')"/>
                <use id="zoomminus" xlink:href="#zoomMin" x="42" y="9" onmousedown="handleZoom(evt,'out')"/>
                <use id="reset" xlink:href="#resetDef" x="30" y="36" onmousedown="handleReset()"/>
                <g id="arrowUp" xlink:href="#dirArrow" transform="translate(30 24)" onmousedown="handlePan(0,-1)">
                  <use xlink:href="#rim" fill="#404040">
                        <set attributeName="fill" to="#808080" begin="arrowUp.mouseover" end="arrowUp.mouseout"/>
                  </use>
                  <path fill="none" stroke="white" stroke-width="1.5" d="M0,-3.0v7 M-2.5,-0.5L0,-3.0L2.5,-0.5"/>
                </g>
                <g id="arrowRight" xlink:href="#dirArrow" transform="rotate(90) translate(36 -43)" onmousedown="handlePan(1,0)">
                  <use xlink:href="#rim" fill="#404040">
                        <set attributeName="fill" to="#808080" begin="arrowRight.mouseover" end="arrowRight.mouseout"/>
                  </use>
                  <path fill="none" stroke="white" stroke-width="1.5" d="M0,-3.0v7 M-2.5,-0.5L0,-3.0L2.5,-0.5"/>
                </g>
                <g id="arrowDown" xlink:href="#dirArrow" transform="rotate(180) translate(-30 -48)" onmousedown="handlePan(0,1)">
                  <use xlink:href="#rim" fill="#404040">
                        <set attributeName="fill" to="#808080" begin="arrowDown.mouseover" end="arrowDown.mouseout"/>
                  </use>
                  <path fill="none" stroke="white" stroke-width="1.5" d="M0,-3.0v7 M-2.5,-0.5L0,-3.0L2.5,-0.5"/>
                </g>
                <g id="arrowLeft" xlink:href="#dirArrow" transform="rotate(270) translate(-36 17)" onmousedown="handlePan(-1,0)">
                  <use xlink:href="#rim" fill="#404040">
                        <set attributeName="fill" to="#808080" begin="arrowLeft.mouseover" end="arrowLeft.mouseout"/>
                  </use>
                  <path fill="none" stroke="white" stroke-width="1.5" d="M0,-3.0v7 M-2.5,-0.5L0,-3.0L2.5,-0.5"/>
                </g>
        </g>
        <svg viewBox="0 0 15 15" width="100%" height="30px" preserveAspectRatio="xMaxYMin meet">
         <g id="arrow_out" transform="scale(0.3 0.3)">
          <a xlink:href="_patient_8hpp__dep__incl_org.svg" target="_base">
           <rect id="button" ry="5" rx="5" y="6" x="6" height="38" width="38"
                fill="#f2f5e9" fill-opacity="0.5" stroke="#606060" stroke-width="1.0"/>
           <path id="arrow"
             d="M 11.500037,31.436501 C 11.940474,20.09759 22.043105,11.32322 32.158766,21.979434 L 37.068811,17.246167 C 37.068811,17.246167 37.088388,32 37.088388,32 L 22.160133,31.978069 C 22.160133,31.978069 26.997745,27.140456 26.997745,27.140456 C 18.528582,18.264221 13.291696,25.230495 11.500037,31.436501 z"
             style="fill:#404040;"/>
          </a>
         </g>
        </svg>
</svg>
