<?xml version="1.0" encoding="UTF-8" standalone="no"?>
<!DOCTYPE svg PUBLIC "-//W3C//DTD SVG 1.1//EN"
        "http://www.w3.org/Graphics/SVG/1.1/DTD/svg11.dtd">
<!-- Generated by graphviz version 2.40.1 (20161225.0304)
 -->
<!-- Title: code/interfaces/ISerializable.cpp Pages: 1 -->
<svg width="338pt" height="137pt"
     viewBox="0.00 0.00 337.79 137.00" xmlns="http://www.w3.org/2000/svg" xmlns:xlink="http://www.w3.org/1999/xlink">
    <g id="graph0" class="graph" transform="scale(1 1) rotate(0) translate(4 133)">
        <title>code/interfaces/ISerializable.cpp</title>
        <!-- Node0 -->
        <g id="node1" class="node">
            <title>Node0</title>
            <polygon fill="#bfbfbf" stroke="#000000"
                     points="51.1875,-110.5 51.1875,-128.5 211.1572,-128.5 211.1572,-110.5 51.1875,-110.5"/>
            <text text-anchor="middle" x="131.1724" y="-116.5" font-family="Helvetica,sans-Serif" font-size="10.00"
                  fill="#000000">code/interfaces/ISerializable.cpp
            </text>
        </g>
        <!-- Node1 -->
        <g id="node2" class="node">
            <title>Node1</title>
            <polygon fill="none" stroke="#bfbfbf" points="0,-55.5 0,-73.5 54.3447,-73.5 54.3447,-55.5 0,-55.5"/>
            <text text-anchor="middle" x="27.1724" y="-61.5" font-family="Helvetica,sans-Serif" font-size="10.00"
                  fill="#000000">iostream
            </text>
        </g>
        <!-- Node0&#45;&gt;Node1 -->
        <g id="edge1" class="edge">
            <title>Node0&#45;&gt;Node1</title>
            <path fill="none" stroke="#191970"
                  d="M113.9989,-110.4179C97.5144,-101.7001 72.3881,-88.4122 53.3991,-78.3699"/>
            <polygon fill="#191970" stroke="#191970"
                     points="54.8476,-75.1767 44.3714,-73.5956 51.5751,-81.3646 54.8476,-75.1767"/>
        </g>
        <!-- Node2 -->
        <g id="node3" class="node">
            <title>Node2</title>
            <polygon fill="none" stroke="#bfbfbf"
                     points="72.3916,-55.5 72.3916,-73.5 123.9531,-73.5 123.9531,-55.5 72.3916,-55.5"/>
            <text text-anchor="middle" x="98.1724" y="-61.5" font-family="Helvetica,sans-Serif" font-size="10.00"
                  fill="#000000">sstream
            </text>
        </g>
        <!-- Node0&#45;&gt;Node2 -->
        <g id="edge2" class="edge">
            <title>Node0&#45;&gt;Node2</title>
            <path fill="none" stroke="#191970"
                  d="M125.7231,-110.4179C121.1648,-102.8207 114.524,-91.7527 108.9043,-82.3866"/>
            <polygon fill="#191970" stroke="#191970"
                     points="111.8863,-80.5536 103.74,-73.7795 105.8838,-84.1552 111.8863,-80.5536"/>
        </g>
        <!-- Node3 -->
        <g id="node4" class="node">
            <title>Node3</title>
            <polygon fill="none" stroke="#bfbfbf"
                     points="142.4458,-55.5 142.4458,-73.5 187.8989,-73.5 187.8989,-55.5 142.4458,-55.5"/>
            <text text-anchor="middle" x="165.1724" y="-61.5" font-family="Helvetica,sans-Serif" font-size="10.00"
                  fill="#000000">cstring
            </text>
        </g>
        <!-- Node0&#45;&gt;Node3 -->
        <g id="edge3" class="edge">
            <title>Node0&#45;&gt;Node3</title>
            <path fill="none" stroke="#191970"
                  d="M136.7868,-110.4179C141.4832,-102.8207 148.3253,-91.7527 154.1152,-82.3866"/>
            <polygon fill="#191970" stroke="#191970"
                     points="157.1548,-84.1258 159.436,-73.7795 151.2006,-80.445 157.1548,-84.1258"/>
        </g>
        <!-- Node4 -->
        <g id="node5" class="node">
            <title>Node4</title>
            <g id="a_node5">
                <a xlink:href="../../d3/d1b/_i_serializable_8hpp.html" target="_top" xlink:title="ISerializable.hpp">
                    <polygon fill="none" stroke="#000000"
                             points="206.2046,-55.5 206.2046,-73.5 296.1401,-73.5 296.1401,-55.5 206.2046,-55.5"/>
                    <text text-anchor="middle" x="251.1724" y="-61.5" font-family="Helvetica,sans-Serif"
                          font-size="10.00" fill="#000000">ISerializable.hpp
                    </text>
                </a>
            </g>
        </g>
        <!-- Node0&#45;&gt;Node4 -->
        <g id="edge4" class="edge">
            <title>Node0&#45;&gt;Node4</title>
            <path fill="none" stroke="#191970"
                  d="M150.9879,-110.4179C170.3559,-101.5409 200.0627,-87.9253 222.1041,-77.823"/>
            <polygon fill="#191970" stroke="#191970"
                     points="223.695,-80.944 231.3274,-73.5956 220.7784,-74.5805 223.695,-80.944"/>
        </g>
        <!-- Node5 -->
        <g id="node6" class="node">
            <title>Node5</title>
            <polygon fill="none" stroke="#bfbfbf"
                     points="174.9458,-.5 174.9458,-18.5 215.3989,-18.5 215.3989,-.5 174.9458,-.5"/>
            <text text-anchor="middle" x="195.1724" y="-6.5" font-family="Helvetica,sans-Serif" font-size="10.00"
                  fill="#000000">string
            </text>
        </g>
        <!-- Node4&#45;&gt;Node5 -->
        <g id="edge5" class="edge">
            <title>Node4&#45;&gt;Node5</title>
            <path fill="none" stroke="#191970"
                  d="M241.9251,-55.4179C233.7869,-47.425 221.7371,-35.5903 211.909,-25.9377"/>
            <polygon fill="#191970" stroke="#191970"
                     points="214.2075,-23.2895 204.6205,-18.7795 209.3026,-28.2836 214.2075,-23.2895"/>
        </g>
        <!-- Node6 -->
        <g id="node7" class="node">
            <title>Node6</title>
            <polygon fill="none" stroke="#bfbfbf"
                     points="233.4458,-.5 233.4458,-18.5 268.8989,-18.5 268.8989,-.5 233.4458,-.5"/>
            <text text-anchor="middle" x="251.1724" y="-6.5" font-family="Helvetica,sans-Serif" font-size="10.00"
                  fill="#000000">map
            </text>
        </g>
        <!-- Node4&#45;&gt;Node6 -->
        <g id="edge6" class="edge">
            <title>Node4&#45;&gt;Node6</title>
            <path fill="none" stroke="#191970"
                  d="M251.1724,-55.4179C251.1724,-48.2164 251.1724,-37.8962 251.1724,-28.8632"/>
            <polygon fill="#191970" stroke="#191970"
                     points="254.6725,-28.7794 251.1724,-18.7795 247.6725,-28.7795 254.6725,-28.7794"/>
        </g>
        <!-- Node7 -->
        <g id="node8" class="node">
            <title>Node7</title>
            <polygon fill="none" stroke="#bfbfbf"
                     points="286.5566,-.5 286.5566,-18.5 329.7881,-18.5 329.7881,-.5 286.5566,-.5"/>
            <text text-anchor="middle" x="308.1724" y="-6.5" font-family="Helvetica,sans-Serif" font-size="10.00"
                  fill="#000000">vector
            </text>
        </g>
        <!-- Node4&#45;&gt;Node7 -->
        <g id="edge7" class="edge">
            <title>Node4&#45;&gt;Node7</title>
            <path fill="none" stroke="#191970"
                  d="M260.5848,-55.4179C268.8683,-47.425 281.1333,-35.5903 291.1369,-25.9377"/>
            <polygon fill="#191970" stroke="#191970"
                     points="293.7896,-28.2419 298.5555,-18.7795 288.929,-23.2045 293.7896,-28.2419"/>
        </g>
    </g>
</svg>
