<?xml version="1.0" encoding="UTF-8" standalone="no"?>
<!DOCTYPE svg PUBLIC "-//W3C//DTD SVG 1.1//EN"
        "http://www.w3.org/Graphics/SVG/1.1/DTD/svg11.dtd">
<!-- Generated by graphviz version 2.40.1 (20161225.0304)
 -->
<!-- Title: code/interfaces/ISerializable.cpp Pages: 1 -->
<svg width="241pt" height="137pt"
     viewBox="0.00 0.00 240.90 137.00" xmlns="http://www.w3.org/2000/svg" xmlns:xlink="http://www.w3.org/1999/xlink">
    <g id="graph0" class="graph" transform="scale(1 1) rotate(0) translate(4 133)">
        <title>code/interfaces/ISerializable.cpp</title>
        <!-- Node0 -->
        <g id="node1" class="node">
            <title>Node0</title>
            <polygon fill="#bfbfbf" stroke="#000000"
                     points="18.1875,-110.5 18.1875,-128.5 178.1572,-128.5 178.1572,-110.5 18.1875,-110.5"/>
            <text text-anchor="middle" x="98.1724" y="-116.5" font-family="Helvetica,sans-Serif" font-size="10.00"
                  fill="#000000">code/interfaces/ISerializable.cpp
            </text>
        </g>
        <!-- Node1 -->
        <g id="node2" class="node">
            <title>Node1</title>
            <polygon fill="none" stroke="#bfbfbf" points="0,-55.5 0,-73.5 54.3447,-73.5 54.3447,-55.5 0,-55.5"/>
            <text text-anchor="middle" x="27.1724" y="-61.5" font-family="Helvetica,sans-Serif" font-size="10.00"
                  fill="#000000">iostream
            </text>
        </g>
        <!-- Node0&#45;&gt;Node1 -->
        <g id="edge1" class="edge">
            <title>Node0&#45;&gt;Node1</title>
            <path fill="none" stroke="#191970"
                  d="M86.4482,-110.4179C75.8236,-102.1876 59.9407,-89.8839 47.2893,-80.0836"/>
            <polygon fill="#191970" stroke="#191970"
                     points="49.2002,-77.1365 39.1513,-73.7795 44.9134,-82.6704 49.2002,-77.1365"/>
        </g>
        <!-- Node2 -->
        <g id="node3" class="node">
            <title>Node2</title>
            <polygon fill="none" stroke="#bfbfbf"
                     points="72.3916,-55.5 72.3916,-73.5 123.9531,-73.5 123.9531,-55.5 72.3916,-55.5"/>
            <text text-anchor="middle" x="98.1724" y="-61.5" font-family="Helvetica,sans-Serif" font-size="10.00"
                  fill="#000000">sstream
            </text>
        </g>
        <!-- Node0&#45;&gt;Node2 -->
        <g id="edge2" class="edge">
            <title>Node0&#45;&gt;Node2</title>
            <path fill="none" stroke="#191970"
                  d="M98.1724,-110.4179C98.1724,-103.2164 98.1724,-92.8962 98.1724,-83.8632"/>
            <polygon fill="#191970" stroke="#191970"
                     points="101.6725,-83.7794 98.1724,-73.7795 94.6725,-83.7795 101.6725,-83.7794"/>
        </g>
        <!-- Node3 -->
        <g id="node4" class="node">
            <title>Node3</title>
            <g id="a_node4">
                <a xlink:href="../../d3/d1b/_i_serializable_8hpp.html" target="_top" xlink:title="ISerializable.hpp">
                    <polygon fill="none" stroke="#000000"
                             points="142.2046,-55.5 142.2046,-73.5 232.1401,-73.5 232.1401,-55.5 142.2046,-55.5"/>
                    <text text-anchor="middle" x="187.1724" y="-61.5" font-family="Helvetica,sans-Serif"
                          font-size="10.00" fill="#000000">ISerializable.hpp
                    </text>
                </a>
            </g>
        </g>
        <!-- Node0&#45;&gt;Node3 -->
        <g id="edge3" class="edge">
            <title>Node0&#45;&gt;Node3</title>
            <path fill="none" stroke="#191970"
                  d="M112.8689,-110.4179C126.6537,-101.8992 147.5001,-89.0166 163.6072,-79.0627"/>
            <polygon fill="#191970" stroke="#191970"
                     points="165.7872,-81.83 172.454,-73.5956 162.1073,-75.8753 165.7872,-81.83"/>
        </g>
        <!-- Node4 -->
        <g id="node5" class="node">
            <title>Node4</title>
            <polygon fill="none" stroke="#bfbfbf"
                     points="138.9458,-.5 138.9458,-18.5 179.3989,-18.5 179.3989,-.5 138.9458,-.5"/>
            <text text-anchor="middle" x="159.1724" y="-6.5" font-family="Helvetica,sans-Serif" font-size="10.00"
                  fill="#000000">string
            </text>
        </g>
        <!-- Node3&#45;&gt;Node4 -->
        <g id="edge4" class="edge">
            <title>Node3&#45;&gt;Node4</title>
            <path fill="none" stroke="#191970"
                  d="M182.5487,-55.4179C178.7616,-47.9789 173.2805,-37.2123 168.5774,-27.9742"/>
            <polygon fill="#191970" stroke="#191970"
                     points="171.5524,-26.1032 163.8965,-18.7795 165.3143,-29.279 171.5524,-26.1032"/>
        </g>
        <!-- Node5 -->
        <g id="node6" class="node">
            <title>Node5</title>
            <polygon fill="none" stroke="#bfbfbf"
                     points="197.4458,-.5 197.4458,-18.5 232.8989,-18.5 232.8989,-.5 197.4458,-.5"/>
            <text text-anchor="middle" x="215.1724" y="-6.5" font-family="Helvetica,sans-Serif" font-size="10.00"
                  fill="#000000">map
            </text>
        </g>
        <!-- Node3&#45;&gt;Node5 -->
        <g id="edge5" class="edge">
            <title>Node3&#45;&gt;Node5</title>
            <path fill="none" stroke="#191970"
                  d="M191.796,-55.4179C195.5831,-47.9789 201.0643,-37.2123 205.7673,-27.9742"/>
            <polygon fill="#191970" stroke="#191970"
                     points="209.0305,-29.279 210.4483,-18.7795 202.7923,-26.1032 209.0305,-29.279"/>
        </g>
    </g>
</svg>
