<?xml version="1.0" encoding="UTF-8" standalone="no"?>
<!DOCTYPE svg PUBLIC "-//W3C//DTD SVG 1.1//EN"
        "http://www.w3.org/Graphics/SVG/1.1/DTD/svg11.dtd">
<!-- Generated by graphviz version 2.40.1 (20161225.0304)
 -->
<!-- Title: code/gui/RefBuilder.hpp Pages: 1 -->
<!--zoomable 92 -->
<svg id="main" version="1.1" xmlns="http://www.w3.org/2000/svg" xmlns:xlink="http://www.w3.org/1999/xlink" xml:space="preserve" onload="init(evt)">
<style type="text/css"><![CDATA[
.edge:hover path { stroke: red; }
.edge:hover polygon { stroke: red; fill: red; }
]]></style>
<script type="text/javascript"><![CDATA[
var edges = document.getElementsByTagName('g');
if (edges && edges.length) {
  for (var i=0;i<edges.length;i++) {
    if (edges[i].id.substr(0,4)=='edge') {
      edges[i].setAttribute('class','edge');
    }
  }
}
]]></script>
        <defs>
                <circle id="rim" cx="0" cy="0" r="7"/>
                <circle id="rim2" cx="0" cy="0" r="3.5"/>
                <g id="zoomPlus">
                        <use xlink:href="#rim" fill="#404040">
                                <set attributeName="fill" to="#808080" begin="zoomplus.mouseover" end="zoomplus.mouseout"/>
                        </use>
                        <path d="M-4,0h8M0,-4v8" fill="none" stroke="white" stroke-width="1.5" pointer-events="none"/>
                </g>
                <g id="zoomMin">
                        <use xlink:href="#rim" fill="#404040">
                                <set attributeName="fill" to="#808080" begin="zoomminus.mouseover" end="zoomminus.mouseout"/>
                        </use>
                        <path d="M-4,0h8" fill="none" stroke="white" stroke-width="1.5" pointer-events="none"/>
                </g>
                <g id="dirArrow">
                        <path fill="none" stroke="white" stroke-width="1.5" d="M0,-3.0v7 M-2.5,-0.5L0,-3.0L2.5,-0.5"/>
                </g>
               <g id="resetDef">
                       <use xlink:href="#rim2" fill="#404040">
                               <set attributeName="fill" to="#808080" begin="reset.mouseover" end="reset.mouseout"/>
                       </use>
               </g>
        </defs>

<script type="text/javascript">
var viewWidth = 1622;
var viewHeight = 92;
var sectionId = 'dynsection-1';
</script>
<script xlink:href="../../svgpan.js"/>
<svg id="graph" class="graph">
<g id="viewport">
<title>code/gui/RefBuilder.hpp</title>
    <!-- Node2 -->
<g id="node1" class="node">
<title>Node2</title>
<polygon fill="#bfbfbf" stroke="#000000" points="772.8892,-65.5 772.8892,-83.5 895.0806,-83.5 895.0806,-65.5 772.8892,-65.5"/>
<text text-anchor="middle" x="833.9849" y="-71.5" font-family="Helvetica,sans-Serif" font-size="10.00" fill="#000000">code/gui/RefBuilder.hpp</text>
</g>
    <!-- Node3 -->
<g id="node2" class="node">
<title>Node3</title>
<g id="a_node2"><a xlink:href="../../d1/d21/_about_dialog_8cpp.html" target="_top" xlink:title="code/gui/AboutDialog.cpp">
<polygon fill="none" stroke="#000000" points="0,-5.5 0,-23.5 129.9697,-23.5 129.9697,-5.5 0,-5.5"/>
<text text-anchor="middle" x="64.9849" y="-11.5" font-family="Helvetica,sans-Serif" font-size="10.00" fill="#000000">code/gui/AboutDialog.cpp</text>
</a>
</g>
</g>
    <!-- Node2&#45;&gt;Node3 -->
<g id="edge1" class="edge">
<title>Node2&#45;&gt;Node3</title>
<path fill="none" stroke="#191970" d="M762.5331,-72.8395C636.2479,-69.2334 365.5345,-58.4882 138.9849,-29 128.3396,-27.6144 116.9216,-25.6287 106.318,-23.5696"/>
<polygon fill="#191970" stroke="#191970" points="762.7433,-76.3467 772.8371,-73.127 762.9386,-69.3494 762.7433,-76.3467"/>
</g>
    <!-- Node4 -->
<g id="node3" class="node">
<title>Node4</title>
<g id="a_node3"><a xlink:href="../../db/db5/_add_patient_dialog_8cpp.html" target="_top" xlink:title="code/gui/AddPatientDialog.cpp">
<polygon fill="none" stroke="#000000" points="147.6035,-5.5 147.6035,-23.5 300.3662,-23.5 300.3662,-5.5 147.6035,-5.5"/>
<text text-anchor="middle" x="223.9849" y="-11.5" font-family="Helvetica,sans-Serif" font-size="10.00" fill="#000000">code/gui/AddPatientDialog.cpp</text>
</a>
</g>
</g>
    <!-- Node2&#45;&gt;Node4 -->
<g id="edge2" class="edge">
<title>Node2&#45;&gt;Node4</title>
<path fill="none" stroke="#191970" d="M762.6803,-70.1929C661.5119,-63.6566 470.6266,-49.7556 308.9849,-29 297.2548,-27.4938 284.6698,-25.5364 272.8746,-23.5496"/>
<polygon fill="#191970" stroke="#191970" points="762.578,-73.6934 772.7814,-70.8402 763.0258,-66.7077 762.578,-73.6934"/>
</g>
    <!-- Node5 -->
<g id="node4" class="node">
<title>Node5</title>
<g id="a_node4"><a xlink:href="../../df/de8/_add_prescription_dialog_8cpp.html" target="_top" xlink:title="code/gui/AddPrescription\lDialog.cpp">
<polygon fill="none" stroke="#000000" points="318.3965,-.5 318.3965,-28.5 445.5732,-28.5 445.5732,-.5 318.3965,-.5"/>
<text text-anchor="start" x="326.3965" y="-16.5" font-family="Helvetica,sans-Serif" font-size="10.00" fill="#000000">code/gui/AddPrescription</text>
<text text-anchor="middle" x="381.9849" y="-6.5" font-family="Helvetica,sans-Serif" font-size="10.00" fill="#000000">Dialog.cpp</text>
</a>
</g>
</g>
    <!-- Node2&#45;&gt;Node5 -->
<g id="edge3" class="edge">
<title>Node2&#45;&gt;Node5</title>
<path fill="none" stroke="#191970" d="M762.7533,-67.5934C686.4108,-59.8076 561.7787,-45.9911 454.9849,-29 451.9223,-28.5127 448.7924,-27.9894 445.6346,-27.441"/>
<polygon fill="#191970" stroke="#191970" points="762.4361,-71.0791 772.7381,-68.6053 763.142,-64.1147 762.4361,-71.0791"/>
</g>
    <!-- Node6 -->
<g id="node5" class="node">
<title>Node6</title>
<g id="a_node5"><a xlink:href="../../d6/d9e/_drug_window_8cpp.html" target="_top" xlink:title="code/gui/DrugWindow.cpp">
<polygon fill="none" stroke="#000000" points="463.894,-5.5 463.894,-23.5 596.0757,-23.5 596.0757,-5.5 463.894,-5.5"/>
<text text-anchor="middle" x="529.9849" y="-11.5" font-family="Helvetica,sans-Serif" font-size="10.00" fill="#000000">code/gui/DrugWindow.cpp</text>
</a>
</g>
</g>
    <!-- Node2&#45;&gt;Node6 -->
<g id="edge4" class="edge">
<title>Node2&#45;&gt;Node6</title>
<path fill="none" stroke="#191970" d="M778.0184,-63.454C719.8128,-51.966 629.786,-34.1976 575.7011,-23.5229"/>
<polygon fill="#191970" stroke="#191970" points="777.6554,-66.9498 788.1438,-65.4524 779.0108,-60.0823 777.6554,-66.9498"/>
</g>
    <!-- Node7 -->
<g id="node6" class="node">
<title>Node7</title>
<g id="a_node6"><a xlink:href="../../d9/d07/_login_window_8cpp.html" target="_top" xlink:title="code/gui/LoginWindow.cpp">
<polygon fill="none" stroke="#000000" points="614.4976,-5.5 614.4976,-23.5 749.4722,-23.5 749.4722,-5.5 614.4976,-5.5"/>
<text text-anchor="middle" x="681.9849" y="-11.5" font-family="Helvetica,sans-Serif" font-size="10.00" fill="#000000">code/gui/LoginWindow.cpp</text>
</a>
</g>
</g>
    <!-- Node2&#45;&gt;Node7 -->
<g id="edge5" class="edge">
<title>Node2&#45;&gt;Node7</title>
<path fill="none" stroke="#191970" d="M801.5662,-61.7032C772.4656,-50.2161 730.4885,-33.6462 704.7896,-23.5019"/>
<polygon fill="#191970" stroke="#191970" points="800.3127,-64.9711 810.8993,-65.3873 802.8829,-58.46 800.3127,-64.9711"/>
</g>
    <!-- Node8 -->
<g id="node7" class="node">
<title>Node8</title>
<g id="a_node7"><a xlink:href="../../d5/da5/_main_window_8cpp.html" target="_top" xlink:title="code/gui/MainWindow.cpp">
<polygon fill="none" stroke="#000000" points="767.894,-5.5 767.894,-23.5 900.0757,-23.5 900.0757,-5.5 767.894,-5.5"/>
<text text-anchor="middle" x="833.9849" y="-11.5" font-family="Helvetica,sans-Serif" font-size="10.00" fill="#000000">code/gui/MainWindow.cpp</text>
</a>
</g>
</g>
    <!-- Node2&#45;&gt;Node8 -->
<g id="edge6" class="edge">
<title>Node2&#45;&gt;Node8</title>
<path fill="none" stroke="#191970" d="M833.9849,-55.3734C833.9849,-44.7812 833.9849,-32.0976 833.9849,-23.6985"/>
<polygon fill="#191970" stroke="#191970" points="830.485,-55.3873 833.9849,-65.3873 837.485,-55.3873 830.485,-55.3873"/>
</g>
    <!-- Node9 -->
<g id="node8" class="node">
<title>Node9</title>
<g id="a_node8"><a xlink:href="../../d8/d35/_patient_window_8cpp.html" target="_top" xlink:title="code/gui/PatientWindow.cpp">
<polygon fill="none" stroke="#000000" points="918.165,-5.5 918.165,-23.5 1059.8047,-23.5 1059.8047,-5.5 918.165,-5.5"/>
<text text-anchor="middle" x="988.9849" y="-11.5" font-family="Helvetica,sans-Serif" font-size="10.00" fill="#000000">code/gui/PatientWindow.cpp</text>
</a>
</g>
</g>
    <!-- Node2&#45;&gt;Node9 -->
<g id="edge7" class="edge">
<title>Node2&#45;&gt;Node9</title>
<path fill="none" stroke="#191970" d="M867.0434,-61.7032C896.7183,-50.2161 939.5239,-33.6462 965.73,-23.5019"/>
<polygon fill="#191970" stroke="#191970" points="865.5882,-58.5133 857.526,-65.3873 868.1152,-65.0413 865.5882,-58.5133"/>
</g>
    <!-- Node10 -->
<g id="node9" class="node">
<title>Node10</title>
<g id="a_node9"><a xlink:href="../../d1/d16/_prescription_window_8cpp.html" target="_top" xlink:title="code/gui/PrescriptionWindow.cpp">
<polygon fill="none" stroke="#000000" points="1077.3325,-5.5 1077.3325,-23.5 1240.6372,-23.5 1240.6372,-5.5 1077.3325,-5.5"/>
<text text-anchor="middle" x="1158.9849" y="-11.5" font-family="Helvetica,sans-Serif" font-size="10.00" fill="#000000">code/gui/PrescriptionWindow.cpp</text>
</a>
</g>
</g>
    <!-- Node2&#45;&gt;Node10 -->
<g id="edge8" class="edge">
<title>Node2&#45;&gt;Node10</title>
<path fill="none" stroke="#191970" d="M893.0462,-63.5964C955.2461,-52.1133 1052.0501,-34.2418 1110.1106,-23.5229"/>
<polygon fill="#191970" stroke="#191970" points="892.1909,-60.195 882.9925,-65.4524 893.4618,-67.0787 892.1909,-60.195"/>
</g>
    <!-- Node11 -->
<g id="node10" class="node">
<title>Node11</title>
<g id="a_node10"><a xlink:href="../../d9/d0c/_ref_builder_8cpp.html" target="_top" xlink:title="code/gui/RefBuilder.cpp">
<polygon fill="none" stroke="#000000" points="1258.1699,-5.5 1258.1699,-23.5 1379.7998,-23.5 1379.7998,-5.5 1258.1699,-5.5"/>
<text text-anchor="middle" x="1318.9849" y="-11.5" font-family="Helvetica,sans-Serif" font-size="10.00" fill="#000000">code/gui/RefBuilder.cpp</text>
</a>
</g>
</g>
    <!-- Node2&#45;&gt;Node11 -->
<g id="edge9" class="edge">
<title>Node2&#45;&gt;Node11</title>
<path fill="none" stroke="#191970" d="M905.296,-68.8452C988.3759,-61.7616 1129.6261,-48.181 1249.9849,-29 1259.5346,-27.4781 1269.7612,-25.5147 1279.3376,-23.5271"/>
<polygon fill="#191970" stroke="#191970" points="904.8795,-65.3679 895.2098,-69.6976 905.469,-72.343 904.8795,-65.3679"/>
</g>
    <!-- Node12 -->
<g id="node11" class="node">
<title>Node12</title>
<g id="a_node11"><a xlink:href="../../d7/d49/_widgets_8cpp.html" target="_top" xlink:title="code/gui/Widgets.cpp">
<polygon fill="none" stroke="#000000" points="1398.1797,-5.5 1398.1797,-23.5 1509.79,-23.5 1509.79,-5.5 1398.1797,-5.5"/>
<text text-anchor="middle" x="1453.9849" y="-11.5" font-family="Helvetica,sans-Serif" font-size="10.00" fill="#000000">code/gui/Widgets.cpp</text>
</a>
</g>
</g>
    <!-- Node2&#45;&gt;Node12 -->
<g id="edge10" class="edge">
<title>Node2&#45;&gt;Node12</title>
<path fill="none" stroke="#191970" d="M905.7574,-71.7753C1011.8844,-67.0332 1216.6994,-55.1514 1388.9849,-29 1398.3584,-27.5772 1408.396,-25.5782 1417.7106,-23.518"/>
<polygon fill="#191970" stroke="#191970" points="905.3257,-68.2907 895.4886,-72.2255 905.6323,-75.284 905.3257,-68.2907"/>
</g>
    <!-- Node13 -->
<g id="node12" class="node">
<title>Node13</title>
<g id="a_node12"><a xlink:href="../../d7/daf/_med_h_8cpp.html" target="_top" xlink:title="code/MedH.cpp">
<polygon fill="none" stroke="#000000" points="1527.9653,-5.5 1527.9653,-23.5 1614.0044,-23.5 1614.0044,-5.5 1527.9653,-5.5"/>
<text text-anchor="middle" x="1570.9849" y="-11.5" font-family="Helvetica,sans-Serif" font-size="10.00" fill="#000000">code/MedH.cpp</text>
</a>
</g>
</g>
    <!-- Node2&#45;&gt;Node13 -->
<g id="edge11" class="edge">
<title>Node2&#45;&gt;Node13</title>
<path fill="none" stroke="#191970" d="M905.1782,-71.6291C1055.8253,-65.2505 1402.5595,-48.8812 1518.9849,-29 1526.7452,-27.6748 1535.0114,-25.6581 1542.616,-23.5464"/>
<polygon fill="#191970" stroke="#191970" points="904.9537,-68.1354 895.1097,-72.0529 905.2481,-75.1292 904.9537,-68.1354"/>
</g>
</g>
</svg>
        <g id="navigator" transform="translate(0 0)" fill="#404254">
                <rect fill="#f2f5e9" fill-opacity="0.5" stroke="#606060" stroke-width=".5" x="0" y="0" width="60" height="60"/>
                <use id="zoomplus" xlink:href="#zoomPlus" x="17" y="9" onmousedown="handleZoom(evt,'in')"/>
                <use id="zoomminus" xlink:href="#zoomMin" x="42" y="9" onmousedown="handleZoom(evt,'out')"/>
                <use id="reset" xlink:href="#resetDef" x="30" y="36" onmousedown="handleReset()"/>
                <g id="arrowUp" xlink:href="#dirArrow" transform="translate(30 24)" onmousedown="handlePan(0,-1)">
                  <use xlink:href="#rim" fill="#404040">
                        <set attributeName="fill" to="#808080" begin="arrowUp.mouseover" end="arrowUp.mouseout"/>
                  </use>
                  <path fill="none" stroke="white" stroke-width="1.5" d="M0,-3.0v7 M-2.5,-0.5L0,-3.0L2.5,-0.5"/>
                </g>
                <g id="arrowRight" xlink:href="#dirArrow" transform="rotate(90) translate(36 -43)" onmousedown="handlePan(1,0)">
                  <use xlink:href="#rim" fill="#404040">
                        <set attributeName="fill" to="#808080" begin="arrowRight.mouseover" end="arrowRight.mouseout"/>
                  </use>
                  <path fill="none" stroke="white" stroke-width="1.5" d="M0,-3.0v7 M-2.5,-0.5L0,-3.0L2.5,-0.5"/>
                </g>
                <g id="arrowDown" xlink:href="#dirArrow" transform="rotate(180) translate(-30 -48)" onmousedown="handlePan(0,1)">
                  <use xlink:href="#rim" fill="#404040">
                        <set attributeName="fill" to="#808080" begin="arrowDown.mouseover" end="arrowDown.mouseout"/>
                  </use>
                  <path fill="none" stroke="white" stroke-width="1.5" d="M0,-3.0v7 M-2.5,-0.5L0,-3.0L2.5,-0.5"/>
                </g>
                <g id="arrowLeft" xlink:href="#dirArrow" transform="rotate(270) translate(-36 17)" onmousedown="handlePan(-1,0)">
                  <use xlink:href="#rim" fill="#404040">
                        <set attributeName="fill" to="#808080" begin="arrowLeft.mouseover" end="arrowLeft.mouseout"/>
                  </use>
                  <path fill="none" stroke="white" stroke-width="1.5" d="M0,-3.0v7 M-2.5,-0.5L0,-3.0L2.5,-0.5"/>
                </g>
        </g>
        <svg viewBox="0 0 15 15" width="100%" height="30px" preserveAspectRatio="xMaxYMin meet">
         <g id="arrow_out" transform="scale(0.3 0.3)">
          <a xlink:href="_ref_builder_8hpp__dep__incl_org.svg" target="_base">
           <rect id="button" ry="5" rx="5" y="6" x="6" height="38" width="38"
                fill="#f2f5e9" fill-opacity="0.5" stroke="#606060" stroke-width="1.0"/>
           <path id="arrow"
             d="M 11.500037,31.436501 C 11.940474,20.09759 22.043105,11.32322 32.158766,21.979434 L 37.068811,17.246167 C 37.068811,17.246167 37.088388,32 37.088388,32 L 22.160133,31.978069 C 22.160133,31.978069 26.997745,27.140456 26.997745,27.140456 C 18.528582,18.264221 13.291696,25.230495 11.500037,31.436501 z"
             style="fill:#404040;"/>
          </a>
         </g>
        </svg>
</svg>
