<?xml version="1.0" encoding="UTF-8" standalone="no"?>
<!DOCTYPE svg PUBLIC "-//W3C//DTD SVG 1.1//EN"
        "http://www.w3.org/Graphics/SVG/1.1/DTD/svg11.dtd">
<!-- Generated by graphviz version 2.40.1 (20161225.0304)
 -->
<!-- Title: code/gui/RefBuilder.hpp Pages: 1 -->
<svg width="1291pt" height="92pt"
     viewBox="0.00 0.00 1291.00 92.00" xmlns="http://www.w3.org/2000/svg" xmlns:xlink="http://www.w3.org/1999/xlink">
    <g id="graph0" class="graph" transform="scale(1 1) rotate(0) translate(4 88)">
        <title>code/gui/RefBuilder.hpp</title>
        <!-- Node2 -->
        <g id="node1" class="node">
            <title>Node2</title>
            <polygon fill="#bfbfbf" stroke="#000000"
                     points="621.8892,-65.5 621.8892,-83.5 744.0806,-83.5 744.0806,-65.5 621.8892,-65.5"/>
            <text text-anchor="middle" x="682.9849" y="-71.5" font-family="Helvetica,sans-Serif" font-size="10.00"
                  fill="#000000">code/gui/RefBuilder.hpp
            </text>
        </g>
        <!-- Node3 -->
        <g id="node2" class="node">
            <title>Node3</title>
            <g id="a_node2">
                <a xlink:href="../../d1/d21/_about_dialog_8cpp.html" target="_top"
                   xlink:title="code/gui/AboutDialog.cpp">
                    <polygon fill="none" stroke="#000000" points="0,-5.5 0,-23.5 129.9697,-23.5 129.9697,-5.5 0,-5.5"/>
                    <text text-anchor="middle" x="64.9849" y="-11.5" font-family="Helvetica,sans-Serif"
                          font-size="10.00" fill="#000000">code/gui/AboutDialog.cpp
                    </text>
                </a>
            </g>
        </g>
        <!-- Node2&#45;&gt;Node3 -->
        <g id="edge1" class="edge">
            <title>Node2&#45;&gt;Node3</title>
            <path fill="none" stroke="#191970"
                  d="M611.4595,-71.0317C507.1869,-65.4066 307.4969,-52.4841 138.9849,-29 128.4822,-27.5363 117.2174,-25.5473 106.7242,-23.5118"/>
            <polygon fill="#191970" stroke="#191970"
                     points="611.382,-74.5324 621.5541,-71.5695 611.7545,-67.5423 611.382,-74.5324"/>
        </g>
        <!-- Node4 -->
        <g id="node3" class="node">
            <title>Node4</title>
            <g id="a_node3">
                <a xlink:href="../../db/db5/_add_patient_dialog_8cpp.html" target="_top"
                   xlink:title="code/gui/AddPatientDialog.cpp">
                    <polygon fill="none" stroke="#000000"
                             points="147.6035,-5.5 147.6035,-23.5 300.3662,-23.5 300.3662,-5.5 147.6035,-5.5"/>
                    <text text-anchor="middle" x="223.9849" y="-11.5" font-family="Helvetica,sans-Serif"
                          font-size="10.00" fill="#000000">code/gui/AddPatientDialog.cpp
                    </text>
                </a>
            </g>
        </g>
        <!-- Node2&#45;&gt;Node4 -->
        <g id="edge2" class="edge">
            <title>Node2&#45;&gt;Node4</title>
            <path fill="none" stroke="#191970"
                  d="M611.3242,-66.8139C535.9411,-58.4872 413.9163,-44.3239 308.9849,-29 297.8751,-27.3776 285.9794,-25.4612 274.7117,-23.5625"/>
            <polygon fill="#191970" stroke="#191970"
                     points="611.322,-70.3347 621.6449,-67.9496 612.0878,-63.3767 611.322,-70.3347"/>
        </g>
        <!-- Node5 -->
        <g id="node4" class="node">
            <title>Node5</title>
            <g id="a_node4">
                <a xlink:href="../../df/de8/_add_prescription_dialog_8cpp.html" target="_top"
                   xlink:title="code/gui/AddPrescription\lDialog.cpp">
                    <polygon fill="none" stroke="#000000"
                             points="318.3965,-.5 318.3965,-28.5 445.5732,-28.5 445.5732,-.5 318.3965,-.5"/>
                    <text text-anchor="start" x="326.3965" y="-16.5" font-family="Helvetica,sans-Serif"
                          font-size="10.00" fill="#000000">code/gui/AddPrescription
                    </text>
                    <text text-anchor="middle" x="381.9849" y="-6.5" font-family="Helvetica,sans-Serif"
                          font-size="10.00" fill="#000000">Dialog.cpp
                    </text>
                </a>
            </g>
        </g>
        <!-- Node2&#45;&gt;Node5 -->
        <g id="edge3" class="edge">
            <title>Node2&#45;&gt;Node5</title>
            <path fill="none" stroke="#191970"
                  d="M627.6555,-63.4709C576.2034,-53.2147 499.585,-37.9419 445.6216,-27.1851"/>
            <polygon fill="#191970" stroke="#191970"
                     points="627.1049,-66.9299 637.5962,-65.4524 628.4734,-60.065 627.1049,-66.9299"/>
        </g>
        <!-- Node6 -->
        <g id="node5" class="node">
            <title>Node6</title>
            <g id="a_node5">
                <a xlink:href="../../d9/d07/_login_window_8cpp.html" target="_top"
                   xlink:title="code/gui/LoginWindow.cpp">
                    <polygon fill="none" stroke="#000000"
                             points="463.4976,-5.5 463.4976,-23.5 598.4722,-23.5 598.4722,-5.5 463.4976,-5.5"/>
                    <text text-anchor="middle" x="530.9849" y="-11.5" font-family="Helvetica,sans-Serif"
                          font-size="10.00" fill="#000000">code/gui/LoginWindow.cpp
                    </text>
                </a>
            </g>
        </g>
        <!-- Node2&#45;&gt;Node6 -->
        <g id="edge4" class="edge">
            <title>Node2&#45;&gt;Node6</title>
            <path fill="none" stroke="#191970"
                  d="M650.5662,-61.7032C621.4656,-50.2161 579.4885,-33.6462 553.7896,-23.5019"/>
            <polygon fill="#191970" stroke="#191970"
                     points="649.3127,-64.9711 659.8993,-65.3873 651.8829,-58.46 649.3127,-64.9711"/>
        </g>
        <!-- Node7 -->
        <g id="node6" class="node">
            <title>Node7</title>
            <g id="a_node6">
                <a xlink:href="../../d5/da5/_main_window_8cpp.html" target="_top" xlink:title="code/gui/MainWindow.cpp">
                    <polygon fill="none" stroke="#000000"
                             points="616.894,-5.5 616.894,-23.5 749.0757,-23.5 749.0757,-5.5 616.894,-5.5"/>
                    <text text-anchor="middle" x="682.9849" y="-11.5" font-family="Helvetica,sans-Serif"
                          font-size="10.00" fill="#000000">code/gui/MainWindow.cpp
                    </text>
                </a>
            </g>
        </g>
        <!-- Node2&#45;&gt;Node7 -->
        <g id="edge5" class="edge">
            <title>Node2&#45;&gt;Node7</title>
            <path fill="none" stroke="#191970"
                  d="M682.9849,-55.3734C682.9849,-44.7812 682.9849,-32.0976 682.9849,-23.6985"/>
            <polygon fill="#191970" stroke="#191970"
                     points="679.485,-55.3873 682.9849,-65.3873 686.485,-55.3873 679.485,-55.3873"/>
        </g>
        <!-- Node8 -->
        <g id="node7" class="node">
            <title>Node8</title>
            <g id="a_node7">
                <a xlink:href="../../d8/d35/_patient_window_8cpp.html" target="_top"
                   xlink:title="code/gui/PatientWindow.cpp">
                    <polygon fill="none" stroke="#000000"
                             points="767.165,-5.5 767.165,-23.5 908.8047,-23.5 908.8047,-5.5 767.165,-5.5"/>
                    <text text-anchor="middle" x="837.9849" y="-11.5" font-family="Helvetica,sans-Serif"
                          font-size="10.00" fill="#000000">code/gui/PatientWindow.cpp
                    </text>
                </a>
            </g>
        </g>
        <!-- Node2&#45;&gt;Node8 -->
        <g id="edge6" class="edge">
            <title>Node2&#45;&gt;Node8</title>
            <path fill="none" stroke="#191970"
                  d="M716.0434,-61.7032C745.7183,-50.2161 788.5239,-33.6462 814.73,-23.5019"/>
            <polygon fill="#191970" stroke="#191970"
                     points="714.5882,-58.5133 706.526,-65.3873 717.1152,-65.0413 714.5882,-58.5133"/>
        </g>
        <!-- Node9 -->
        <g id="node8" class="node">
            <title>Node9</title>
            <g id="a_node8">
                <a xlink:href="../../d9/d0c/_ref_builder_8cpp.html" target="_top" xlink:title="code/gui/RefBuilder.cpp">
                    <polygon fill="none" stroke="#000000"
                             points="927.1699,-5.5 927.1699,-23.5 1048.7998,-23.5 1048.7998,-5.5 927.1699,-5.5"/>
                    <text text-anchor="middle" x="987.9849" y="-11.5" font-family="Helvetica,sans-Serif"
                          font-size="10.00" fill="#000000">code/gui/RefBuilder.cpp
                    </text>
                </a>
            </g>
        </g>
        <!-- Node2&#45;&gt;Node9 -->
        <g id="edge7" class="edge">
            <title>Node2&#45;&gt;Node9</title>
            <path fill="none" stroke="#191970"
                  d="M740.8449,-63.5144C788.4369,-54.4262 857.6269,-41.094 917.9849,-29 926.6248,-27.2688 935.8566,-25.3826 944.6874,-23.5604"/>
            <polygon fill="#191970" stroke="#191970"
                     points="739.8965,-60.1322 730.7296,-65.4443 741.2084,-67.0082 739.8965,-60.1322"/>
        </g>
        <!-- Node10 -->
        <g id="node9" class="node">
            <title>Node10</title>
            <g id="a_node9">
                <a xlink:href="../../d7/d49/_widgets_8cpp.html" target="_top" xlink:title="code/gui/Widgets.cpp">
                    <polygon fill="none" stroke="#000000"
                             points="1067.1797,-5.5 1067.1797,-23.5 1178.79,-23.5 1178.79,-5.5 1067.1797,-5.5"/>
                    <text text-anchor="middle" x="1122.9849" y="-11.5" font-family="Helvetica,sans-Serif"
                          font-size="10.00" fill="#000000">code/gui/Widgets.cpp
                    </text>
                </a>
            </g>
        </g>
        <!-- Node2&#45;&gt;Node10 -->
        <g id="edge8" class="edge">
            <title>Node2&#45;&gt;Node10</title>
            <path fill="none" stroke="#191970"
                  d="M754.6735,-67.9263C830.3712,-60.4894 953.0413,-47.0265 1057.9849,-29 1066.8731,-27.4732 1076.3793,-25.5307 1085.3018,-23.5676"/>
            <polygon fill="#191970" stroke="#191970"
                     points="753.9243,-64.4826 744.3107,-68.9356 754.6029,-71.4497 753.9243,-64.4826"/>
        </g>
        <!-- Node11 -->
        <g id="node10" class="node">
            <title>Node11</title>
            <g id="a_node10">
                <a xlink:href="../../d7/daf/_med_h_8cpp.html" target="_top" xlink:title="code/MedH.cpp">
                    <polygon fill="none" stroke="#000000"
                             points="1196.9653,-5.5 1196.9653,-23.5 1283.0044,-23.5 1283.0044,-5.5 1196.9653,-5.5"/>
                    <text text-anchor="middle" x="1239.9849" y="-11.5" font-family="Helvetica,sans-Serif"
                          font-size="10.00" fill="#000000">code/MedH.cpp
                    </text>
                </a>
            </g>
        </g>
        <!-- Node2&#45;&gt;Node11 -->
        <g id="edge9" class="edge">
            <title>Node2&#45;&gt;Node11</title>
            <path fill="none" stroke="#191970"
                  d="M754.2146,-72.166C852.5042,-68.0204 1034.9371,-56.9919 1187.9849,-29 1195.5447,-27.6173 1203.5967,-25.6327 1211.0499,-23.5737"/>
            <polygon fill="#191970" stroke="#191970"
                     points="753.9487,-68.6739 744.1005,-72.5807 754.2356,-75.668 753.9487,-68.6739"/>
        </g>
    </g>
</svg>
