<?xml version="1.0" encoding="UTF-8" standalone="no"?>
<!DOCTYPE svg PUBLIC "-//W3C//DTD SVG 1.1//EN"
        "http://www.w3.org/Graphics/SVG/1.1/DTD/svg11.dtd">
<!-- Generated by graphviz version 2.40.1 (20161225.0304)
 -->
<!-- Title: code/utils/Date.cpp Pages: 1 -->
<svg width="316pt" height="137pt"
     viewBox="0.00 0.00 315.73 137.00" xmlns="http://www.w3.org/2000/svg" xmlns:xlink="http://www.w3.org/1999/xlink">
    <g id="graph0" class="graph" transform="scale(1 1) rotate(0) translate(4 133)">
        <title>code/utils/Date.cpp</title>
        <!-- Node0 -->
        <g id="node1" class="node">
            <title>Node0</title>
            <polygon fill="#bfbfbf" stroke="#000000"
                     points="105.6479,-110.5 105.6479,-128.5 206.6968,-128.5 206.6968,-110.5 105.6479,-110.5"/>
            <text text-anchor="middle" x="156.1724" y="-116.5" font-family="Helvetica,sans-Serif" font-size="10.00"
                  fill="#000000">code/utils/Date.cpp
            </text>
        </g>
        <!-- Node1 -->
        <g id="node2" class="node">
            <title>Node1</title>
            <g id="a_node2">
                <a xlink:href="../../d8/d63/_date_8hpp.html" target="_top" xlink:title="Date.hpp">
                    <polygon fill="none" stroke="#000000"
                             points="20.8794,-55.5 20.8794,-73.5 77.4653,-73.5 77.4653,-55.5 20.8794,-55.5"/>
                    <text text-anchor="middle" x="49.1724" y="-61.5" font-family="Helvetica,sans-Serif"
                          font-size="10.00" fill="#000000">Date.hpp
                    </text>
                </a>
            </g>
        </g>
        <!-- Node0&#45;&gt;Node1 -->
        <g id="edge1" class="edge">
            <title>Node0&#45;&gt;Node1</title>
            <path fill="none" stroke="#191970"
                  d="M138.5035,-110.4179C121.4661,-101.6603 95.4562,-88.2907 75.8884,-78.2326"/>
            <polygon fill="#191970" stroke="#191970"
                     points="77.3614,-75.0544 66.8675,-73.5956 74.1613,-81.2801 77.3614,-75.0544"/>
        </g>
        <!-- Node3 -->
        <g id="node4" class="node">
            <title>Node3</title>
            <g id="a_node4">
                <a xlink:href="../../d2/dce/string_utils_8hpp.html" target="_top" xlink:title="stringUtils.hpp">
                    <polygon fill="none" stroke="#000000"
                             points="116.4927,-55.5 116.4927,-73.5 195.8521,-73.5 195.8521,-55.5 116.4927,-55.5"/>
                    <text text-anchor="middle" x="156.1724" y="-61.5" font-family="Helvetica,sans-Serif"
                          font-size="10.00" fill="#000000">stringUtils.hpp
                    </text>
                </a>
            </g>
        </g>
        <!-- Node0&#45;&gt;Node3 -->
        <g id="edge3" class="edge">
            <title>Node0&#45;&gt;Node3</title>
            <path fill="none" stroke="#191970"
                  d="M156.1724,-110.4179C156.1724,-103.2164 156.1724,-92.8962 156.1724,-83.8632"/>
            <polygon fill="#191970" stroke="#191970"
                     points="159.6725,-83.7794 156.1724,-73.7795 152.6725,-83.7795 159.6725,-83.7794"/>
        </g>
        <!-- Node8 -->
        <g id="node9" class="node">
            <title>Node8</title>
            <polygon fill="none" stroke="#bfbfbf"
                     points="214.2266,-55.5 214.2266,-73.5 254.1182,-73.5 254.1182,-55.5 214.2266,-55.5"/>
            <text text-anchor="middle" x="234.1724" y="-61.5" font-family="Helvetica,sans-Serif" font-size="10.00"
                  fill="#000000">ctime
            </text>
        </g>
        <!-- Node0&#45;&gt;Node8 -->
        <g id="edge8" class="edge">
            <title>Node0&#45;&gt;Node8</title>
            <path fill="none" stroke="#191970"
                  d="M169.0525,-110.4179C180.9078,-102.0584 198.7226,-89.4966 212.7239,-79.6239"/>
            <polygon fill="#191970" stroke="#191970"
                     points="215.1175,-82.2188 221.2731,-73.5956 211.0836,-76.498 215.1175,-82.2188"/>
        </g>
        <!-- Node2 -->
        <g id="node3" class="node">
            <title>Node2</title>
            <polygon fill="none" stroke="#bfbfbf" points="0,-.5 0,-18.5 54.3447,-18.5 54.3447,-.5 0,-.5"/>
            <text text-anchor="middle" x="27.1724" y="-6.5" font-family="Helvetica,sans-Serif" font-size="10.00"
                  fill="#000000">iostream
            </text>
        </g>
        <!-- Node1&#45;&gt;Node2 -->
        <g id="edge2" class="edge">
            <title>Node1&#45;&gt;Node2</title>
            <path fill="none" stroke="#191970" d="M45.5395,-55.4179C42.5956,-48.0581 38.3488,-37.441 34.6802,-28.2695"/>
            <polygon fill="#191970" stroke="#191970"
                     points="37.8478,-26.7643 30.8841,-18.7795 31.3484,-29.3641 37.8478,-26.7643"/>
        </g>
        <!-- Node4 -->
        <g id="node5" class="node">
            <title>Node4</title>
            <polygon fill="none" stroke="#bfbfbf"
                     points="71.9458,-.5 71.9458,-18.5 112.3989,-18.5 112.3989,-.5 71.9458,-.5"/>
            <text text-anchor="middle" x="92.1724" y="-6.5" font-family="Helvetica,sans-Serif" font-size="10.00"
                  fill="#000000">string
            </text>
        </g>
        <!-- Node3&#45;&gt;Node4 -->
        <g id="edge4" class="edge">
            <title>Node3&#45;&gt;Node4</title>
            <path fill="none" stroke="#191970"
                  d="M145.6041,-55.4179C136.1191,-47.2667 121.9849,-35.1201 110.6357,-25.3669"/>
            <polygon fill="#191970" stroke="#191970"
                     points="112.8357,-22.6427 102.9703,-18.7795 108.2733,-27.9516 112.8357,-22.6427"/>
        </g>
        <!-- Node5 -->
        <g id="node6" class="node">
            <title>Node5</title>
            <polygon fill="none" stroke="#bfbfbf"
                     points="130.3916,-.5 130.3916,-18.5 181.9531,-18.5 181.9531,-.5 130.3916,-.5"/>
            <text text-anchor="middle" x="156.1724" y="-6.5" font-family="Helvetica,sans-Serif" font-size="10.00"
                  fill="#000000">sstream
            </text>
        </g>
        <!-- Node3&#45;&gt;Node5 -->
        <g id="edge5" class="edge">
            <title>Node3&#45;&gt;Node5</title>
            <path fill="none" stroke="#191970"
                  d="M156.1724,-55.4179C156.1724,-48.2164 156.1724,-37.8962 156.1724,-28.8632"/>
            <polygon fill="#191970" stroke="#191970"
                     points="159.6725,-28.7794 156.1724,-18.7795 152.6725,-28.7795 159.6725,-28.7794"/>
        </g>
        <!-- Node6 -->
        <g id="node7" class="node">
            <title>Node6</title>
            <polygon fill="none" stroke="#bfbfbf"
                     points="199.5566,-.5 199.5566,-18.5 242.7881,-18.5 242.7881,-.5 199.5566,-.5"/>
            <text text-anchor="middle" x="221.1724" y="-6.5" font-family="Helvetica,sans-Serif" font-size="10.00"
                  fill="#000000">vector
            </text>
        </g>
        <!-- Node3&#45;&gt;Node6 -->
        <g id="edge6" class="edge">
            <title>Node3&#45;&gt;Node6</title>
            <path fill="none" stroke="#191970"
                  d="M166.9058,-55.4179C176.539,-47.2667 190.894,-35.1201 202.4205,-25.3669"/>
            <polygon fill="#191970" stroke="#191970"
                     points="204.8327,-27.9108 210.2057,-18.7795 200.311,-22.5671 204.8327,-27.9108"/>
        </g>
        <!-- Node7 -->
        <g id="node8" class="node">
            <title>Node7</title>
            <polygon fill="none" stroke="#bfbfbf"
                     points="260.6108,-.5 260.6108,-18.5 307.7339,-18.5 307.7339,-.5 260.6108,-.5"/>
            <text text-anchor="middle" x="284.1724" y="-6.5" font-family="Helvetica,sans-Serif" font-size="10.00"
                  fill="#000000">iterator
            </text>
        </g>
        <!-- Node3&#45;&gt;Node7 -->
        <g id="edge7" class="edge">
            <title>Node3&#45;&gt;Node7</title>
            <path fill="none" stroke="#191970"
                  d="M177.309,-55.4179C198.1534,-46.4613 230.2247,-32.6806 253.7968,-22.552"/>
            <polygon fill="#191970" stroke="#191970"
                     points="255.1984,-25.7592 263.0044,-18.5956 252.4349,-19.3278 255.1984,-25.7592"/>
        </g>
    </g>
</svg>
