<?xml version="1.0" encoding="UTF-8" standalone="no"?>
<!DOCTYPE svg PUBLIC "-//W3C//DTD SVG 1.1//EN"
        "http://www.w3.org/Graphics/SVG/1.1/DTD/svg11.dtd">
<!-- Generated by graphviz version 2.40.1 (20161225.0304)
 -->
<!-- Title: code/model/Doctor.cpp Pages: 1 -->
<svg width="760pt" height="357pt"
     viewBox="0.00 0.00 759.89 357.00" xmlns="http://www.w3.org/2000/svg" xmlns:xlink="http://www.w3.org/1999/xlink">
    <g id="graph0" class="graph" transform="scale(1 1) rotate(0) translate(4 353)">
        <title>code/model/Doctor.cpp</title>
        <!-- Node0 -->
        <g id="node1" class="node">
            <title>Node0</title>
            <polygon fill="#bfbfbf" stroke="#000000"
                     points="633.609,-330.5 633.609,-348.5 751.8942,-348.5 751.8942,-330.5 633.609,-330.5"/>
            <text text-anchor="middle" x="692.7516" y="-336.5" font-family="Helvetica,sans-Serif" font-size="10.00"
                  fill="#000000">code/model/Doctor.cpp
            </text>
        </g>
        <!-- Node1 -->
        <g id="node2" class="node">
            <title>Node1</title>
            <polygon fill="none" stroke="#bfbfbf"
                     points="621.5793,-165.5 621.5793,-183.5 675.924,-183.5 675.924,-165.5 621.5793,-165.5"/>
            <text text-anchor="middle" x="648.7516" y="-171.5" font-family="Helvetica,sans-Serif" font-size="10.00"
                  fill="#000000">iostream
            </text>
        </g>
        <!-- Node0&#45;&gt;Node1 -->
        <g id="edge1" class="edge">
            <title>Node0&#45;&gt;Node1</title>
            <path fill="none" stroke="#191970"
                  d="M692.3603,-330.2471C691.2658,-309.8206 687.2999,-259.5479 673.7516,-220 670.4764,-210.4395 665.2743,-200.5253 660.4616,-192.4013"/>
            <polygon fill="#191970" stroke="#191970"
                     points="663.3785,-190.4639 655.1295,-183.8152 657.4319,-194.1569 663.3785,-190.4639"/>
        </g>
        <!-- Node2 -->
        <g id="node3" class="node">
            <title>Node2</title>
            <g id="a_node3">
                <a xlink:href="../../dd/dc5/_doctor_8hpp.html" target="_top" xlink:title="Doctor.hpp">
                    <polygon fill="none" stroke="#000000"
                             points="412.567,-275.5 412.567,-293.5 476.9362,-293.5 476.9362,-275.5 412.567,-275.5"/>
                    <text text-anchor="middle" x="444.7516" y="-281.5" font-family="Helvetica,sans-Serif"
                          font-size="10.00" fill="#000000">Doctor.hpp
                    </text>
                </a>
            </g>
        </g>
        <!-- Node0&#45;&gt;Node2 -->
        <g id="edge2" class="edge">
            <title>Node0&#45;&gt;Node2</title>
            <path fill="none" stroke="#191970"
                  d="M652.0772,-330.4795C606.5968,-320.3931 533.2819,-304.1337 487.1228,-293.8968"/>
            <polygon fill="#191970" stroke="#191970"
                     points="487.6601,-290.431 477.1395,-291.6828 486.1444,-297.265 487.6601,-290.431"/>
        </g>
        <!-- Node13 -->
        <g id="node14" class="node">
            <title>Node13</title>
            <g id="a_node14">
                <a xlink:href="../../d7/d0f/_d_b_master_8hpp.html" target="_top" xlink:title="../DBMaster.hpp">
                    <polygon fill="none" stroke="#000000"
                             points="589.8996,-110.5 589.8996,-128.5 677.6037,-128.5 677.6037,-110.5 589.8996,-110.5"/>
                    <text text-anchor="middle" x="633.7516" y="-116.5" font-family="Helvetica,sans-Serif"
                          font-size="10.00" fill="#000000">../DBMaster.hpp
                    </text>
                </a>
            </g>
        </g>
        <!-- Node0&#45;&gt;Node13 -->
        <g id="edge29" class="edge">
            <title>Node0&#45;&gt;Node13</title>
            <path fill="none" stroke="#191970"
                  d="M695.1533,-330.1683C697.3737,-321.0263 700.5113,-306.6621 701.7516,-294 706.3882,-246.6649 687.9572,-170.8982 684.7516,-165 678.2001,-152.9456 667.1629,-142.4983 657.0285,-134.6655"/>
            <polygon fill="#191970" stroke="#191970"
                     points="658.9942,-131.7674 648.8462,-128.7229 654.8807,-137.4313 658.9942,-131.7674"/>
        </g>
        <!-- Node3 -->
        <g id="node4" class="node">
            <title>Node3</title>
            <polygon fill="none" stroke="#bfbfbf"
                     points="442.5251,-.5 442.5251,-18.5 482.9782,-18.5 482.9782,-.5 442.5251,-.5"/>
            <text text-anchor="middle" x="462.7516" y="-6.5" font-family="Helvetica,sans-Serif" font-size="10.00"
                  fill="#000000">string
            </text>
        </g>
        <!-- Node2&#45;&gt;Node3 -->
        <g id="edge3" class="edge">
            <title>Node2&#45;&gt;Node3</title>
            <path fill="none" stroke="#191970"
                  d="M475.3171,-275.3733C494.0962,-268.2881 517.2534,-256.649 531.7516,-239 550.7212,-215.908 550.7516,-204.3846 550.7516,-174.5 550.7516,-174.5 550.7516,-174.5 550.7516,-119.5 550.7516,-77.9719 512.0346,-43.1387 485.9625,-24.3898"/>
            <polygon fill="#191970" stroke="#191970"
                     points="487.8952,-21.471 477.6796,-18.6617 483.9136,-27.2284 487.8952,-21.471"/>
        </g>
        <!-- Node4 -->
        <g id="node5" class="node">
            <title>Node4</title>
            <polygon fill="none" stroke="#bfbfbf"
                     points="441.1359,-55.5 441.1359,-73.5 484.3673,-73.5 484.3673,-55.5 441.1359,-55.5"/>
            <text text-anchor="middle" x="462.7516" y="-61.5" font-family="Helvetica,sans-Serif" font-size="10.00"
                  fill="#000000">vector
            </text>
        </g>
        <!-- Node2&#45;&gt;Node4 -->
        <g id="edge4" class="edge">
            <title>Node2&#45;&gt;Node4</title>
            <path fill="none" stroke="#191970"
                  d="M440.2268,-275.3658C436.0413,-266.3702 430.121,-252.1112 427.7516,-239 417.4339,-181.9056 441.0824,-114.6852 454.4203,-82.9107"/>
            <polygon fill="#191970" stroke="#191970"
                     points="457.7083,-84.1261 458.4843,-73.5597 451.2884,-81.3359 457.7083,-84.1261"/>
        </g>
        <!-- Node5 -->
        <g id="node6" class="node">
            <title>Node5</title>
            <g id="a_node6">
                <a xlink:href="../../de/d01/_prescription_8hpp.html" target="_top" xlink:title="Prescription.hpp">
                    <polygon fill="none" stroke="#000000"
                             points="206.6212,-165.5 206.6212,-183.5 294.882,-183.5 294.882,-165.5 206.6212,-165.5"/>
                    <text text-anchor="middle" x="250.7516" y="-171.5" font-family="Helvetica,sans-Serif"
                          font-size="10.00" fill="#000000">Prescription.hpp
                    </text>
                </a>
            </g>
        </g>
        <!-- Node2&#45;&gt;Node5 -->
        <g id="edge5" class="edge">
            <title>Node2&#45;&gt;Node5</title>
            <path fill="none" stroke="#191970"
                  d="M412.4689,-281.3702C379.545,-276.7809 328.3748,-265.6466 292.7516,-239 277.0806,-227.2779 265.5941,-207.8583 258.6332,-193.3849"/>
            <polygon fill="#191970" stroke="#191970"
                     points="261.6621,-191.5863 254.3692,-183.9009 255.2776,-194.4568 261.6621,-191.5863"/>
        </g>
        <!-- Node9 -->
        <g id="node10" class="node">
            <title>Node9</title>
            <g id="a_node10">
                <a xlink:href="../../dd/df9/_drug_8hpp.html" target="_top" xlink:title="Drug.hpp">
                    <polygon fill="none" stroke="#000000"
                             points="199.1828,-110.5 199.1828,-128.5 256.3205,-128.5 256.3205,-110.5 199.1828,-110.5"/>
                    <text text-anchor="middle" x="227.7516" y="-116.5" font-family="Helvetica,sans-Serif"
                          font-size="10.00" fill="#000000">Drug.hpp
                    </text>
                </a>
            </g>
        </g>
        <!-- Node2&#45;&gt;Node9 -->
        <g id="edge25" class="edge">
            <title>Node2&#45;&gt;Node9</title>
            <path fill="none" stroke="#191970"
                  d="M412.3296,-279.9014C376.3611,-273.9324 317.2666,-261.5111 270.7516,-239 234.1862,-221.3041 215.8787,-220.3536 197.7516,-184 189.7952,-168.0435 200.3547,-149.5702 211.0761,-136.4939"/>
            <polygon fill="#191970" stroke="#191970"
                     points="213.9228,-138.5597 217.952,-128.761 208.6916,-133.9083 213.9228,-138.5597"/>
        </g>
        <!-- Node10 -->
        <g id="node11" class="node">
            <title>Node10</title>
            <g id="a_node11">
                <a xlink:href="../../d0/da9/_patient_8hpp.html" target="_top" xlink:title="Patient.hpp">
                    <polygon fill="none" stroke="#000000"
                             points="301.4538,-220.5 301.4538,-238.5 368.0495,-238.5 368.0495,-220.5 301.4538,-220.5"/>
                    <text text-anchor="middle" x="334.7516" y="-226.5" font-family="Helvetica,sans-Serif"
                          font-size="10.00" fill="#000000">Patient.hpp
                    </text>
                </a>
            </g>
        </g>
        <!-- Node2&#45;&gt;Node10 -->
        <g id="edge19" class="edge">
            <title>Node2&#45;&gt;Node10</title>
            <path fill="none" stroke="#191970"
                  d="M426.5874,-275.4179C408.9926,-266.6205 382.0898,-253.1691 361.9428,-243.0956"/>
            <polygon fill="#191970" stroke="#191970"
                     points="363.4524,-239.9373 352.9429,-238.5956 360.3219,-246.1983 363.4524,-239.9373"/>
        </g>
        <!-- Node11 -->
        <g id="node12" class="node">
            <title>Node11</title>
            <g id="a_node12">
                <a xlink:href="../../d8/d63/_date_8hpp.html" target="_top" xlink:title="../utils/Date.hpp">
                    <polygon fill="none" stroke="#000000"
                             points="579.0104,-220.5 579.0104,-238.5 664.4928,-238.5 664.4928,-220.5 579.0104,-220.5"/>
                    <text text-anchor="middle" x="621.7516" y="-226.5" font-family="Helvetica,sans-Serif"
                          font-size="10.00" fill="#000000">../utils/Date.hpp
                    </text>
                </a>
            </g>
        </g>
        <!-- Node2&#45;&gt;Node11 -->
        <g id="edge26" class="edge">
            <title>Node2&#45;&gt;Node11</title>
            <path fill="none" stroke="#191970"
                  d="M473.9796,-275.4179C503.7892,-266.155 550.2035,-251.7325 583.0498,-241.526"/>
            <polygon fill="#191970" stroke="#191970"
                     points="584.2634,-244.814 592.7744,-238.5042 582.1862,-238.1293 584.2634,-244.814"/>
        </g>
        <!-- Node12 -->
        <g id="node13" class="node">
            <title>Node12</title>
            <g id="a_node13">
                <a xlink:href="../../d8/d3a/_time_8hpp.html" target="_top" xlink:title="../utils/Time.hpp">
                    <polygon fill="none" stroke="#000000"
                             points="436.6442,-220.5 436.6442,-238.5 522.859,-238.5 522.859,-220.5 436.6442,-220.5"/>
                    <text text-anchor="middle" x="479.7516" y="-226.5" font-family="Helvetica,sans-Serif"
                          font-size="10.00" fill="#000000">../utils/Time.hpp
                    </text>
                </a>
            </g>
        </g>
        <!-- Node2&#45;&gt;Node12 -->
        <g id="edge28" class="edge">
            <title>Node2&#45;&gt;Node12</title>
            <path fill="none" stroke="#191970"
                  d="M450.5312,-275.4179C455.3657,-267.8207 462.409,-256.7527 468.3692,-247.3866"/>
            <polygon fill="#191970" stroke="#191970"
                     points="471.4305,-249.0952 473.8465,-238.7795 465.5249,-245.337 471.4305,-249.0952"/>
        </g>
        <!-- Node5&#45;&gt;Node3 -->
        <g id="edge7" class="edge">
            <title>Node5&#45;&gt;Node3</title>
            <path fill="none" stroke="#191970"
                  d="M265.0262,-165.42C291.3045,-148.4995 348.7638,-110.5403 393.7516,-74 412.6911,-58.6169 432.9247,-39.3257 446.5495,-25.8666"/>
            <polygon fill="#191970" stroke="#191970"
                     points="449.1376,-28.2286 453.7482,-18.6895 444.1953,-23.2714 449.1376,-28.2286"/>
        </g>
        <!-- Node5&#45;&gt;Node4 -->
        <g id="edge6" class="edge">
            <title>Node5&#45;&gt;Node4</title>
            <path fill="none" stroke="#191970"
                  d="M282.8903,-165.4402C308.5661,-157.565 345.0423,-144.9265 374.7516,-129 400.4834,-115.2057 427.1301,-94.6406 444.2622,-80.4583"/>
            <polygon fill="#191970" stroke="#191970"
                     points="446.9023,-82.811 452.2986,-73.6934 442.3943,-77.4557 446.9023,-82.811"/>
        </g>
        <!-- Node6 -->
        <g id="node7" class="node">
            <title>Node6</title>
            <polygon fill="none" stroke="#bfbfbf"
                     points="157.0251,-.5 157.0251,-18.5 192.4782,-18.5 192.4782,-.5 157.0251,-.5"/>
            <text text-anchor="middle" x="174.7516" y="-6.5" font-family="Helvetica,sans-Serif" font-size="10.00"
                  fill="#000000">map
            </text>
        </g>
        <!-- Node5&#45;&gt;Node6 -->
        <g id="edge8" class="edge">
            <title>Node5&#45;&gt;Node6</title>
            <path fill="none" stroke="#191970"
                  d="M206.2942,-170.9351C148.357,-163.6296 49.1028,-141.4141 3.7516,-74 -.9619,-66.9935 -1.3949,-61.6949 3.7516,-55 21.0914,-32.4431 102.8604,-18.708 146.7461,-12.8377"/>
            <polygon fill="#191970" stroke="#191970"
                     points="147.3011,-16.2952 156.7716,-11.5455 146.4062,-9.3527 147.3011,-16.2952"/>
        </g>
        <!-- Node7 -->
        <g id="node8" class="node">
            <title>Node7</title>
            <polygon fill="none" stroke="#bfbfbf"
                     points="12.8405,-55.5 12.8405,-73.5 146.6627,-73.5 146.6627,-55.5 12.8405,-55.5"/>
            <text text-anchor="middle" x="79.7516" y="-61.5" font-family="Helvetica,sans-Serif" font-size="10.00"
                  fill="#000000">gtkmm/treemodelcolumn.h
            </text>
        </g>
        <!-- Node5&#45;&gt;Node7 -->
        <g id="edge9" class="edge">
            <title>Node5&#45;&gt;Node7</title>
            <path fill="none" stroke="#191970"
                  d="M236.758,-165.4982C207.3227,-146.5633 138.7568,-102.4566 102.758,-79.2994"/>
            <polygon fill="#191970" stroke="#191970"
                     points="104.2424,-76.0927 93.9386,-73.6261 100.4553,-81.9798 104.2424,-76.0927"/>
        </g>
        <!-- Node8 -->
        <g id="node9" class="node">
            <title>Node8</title>
            <g id="a_node9">
                <a xlink:href="../../d3/d1b/_i_serializable_8hpp.html" target="_top"
                   xlink:title="../interfaces/ISerializable.hpp">
                    <polygon fill="none" stroke="#000000"
                             points="240.55,-55.5 240.55,-73.5 384.9533,-73.5 384.9533,-55.5 240.55,-55.5"/>
                    <text text-anchor="middle" x="312.7516" y="-61.5" font-family="Helvetica,sans-Serif"
                          font-size="10.00" fill="#000000">../interfaces/ISerializable.hpp
                    </text>
                </a>
            </g>
        </g>
        <!-- Node5&#45;&gt;Node8 -->
        <g id="edge10" class="edge">
            <title>Node5&#45;&gt;Node8</title>
            <path fill="none" stroke="#191970"
                  d="M255.8253,-165.4982C266.0436,-147.369 289.2678,-106.1647 302.6817,-82.3659"/>
            <polygon fill="#191970" stroke="#191970"
                     points="305.7466,-84.0562 307.6078,-73.6261 299.6486,-80.6191 305.7466,-84.0562"/>
        </g>
        <!-- Node5&#45;&gt;Node9 -->
        <g id="edge13" class="edge">
            <title>Node5&#45;&gt;Node9</title>
            <path fill="none" stroke="#191970"
                  d="M246.9536,-165.4179C243.8759,-158.0581 239.436,-147.441 235.6007,-138.2695"/>
            <polygon fill="#191970" stroke="#191970"
                     points="238.7193,-136.6549 231.6321,-128.7795 232.2612,-139.3556 238.7193,-136.6549"/>
        </g>
        <!-- Node8&#45;&gt;Node3 -->
        <g id="edge11" class="edge">
            <title>Node8&#45;&gt;Node3</title>
            <path fill="none" stroke="#191970"
                  d="M337.5211,-55.4179C363.6078,-45.8527 404.6996,-30.7858 432.6407,-20.5407"/>
            <polygon fill="#191970" stroke="#191970"
                     points="434.1038,-23.7321 442.2876,-17.0035 431.6939,-17.16 434.1038,-23.7321"/>
        </g>
        <!-- Node8&#45;&gt;Node6 -->
        <g id="edge12" class="edge">
            <title>Node8&#45;&gt;Node6</title>
            <path fill="none" stroke="#191970"
                  d="M289.9637,-55.4179C265.9041,-45.8289 227.971,-30.7106 202.2617,-20.4642"/>
            <polygon fill="#191970" stroke="#191970"
                     points="203.316,-17.1167 192.7308,-16.6656 200.7243,-23.6193 203.316,-17.1167"/>
        </g>
        <!-- Node9&#45;&gt;Node3 -->
        <g id="edge14" class="edge">
            <title>Node9&#45;&gt;Node3</title>
            <path fill="none" stroke="#191970"
                  d="M225.1893,-110.2986C221.9536,-96.4822 218.3008,-70.3632 231.7516,-55 257.6791,-25.3863 375.3307,-14.5785 432.0253,-11.0412"/>
            <polygon fill="#191970" stroke="#191970"
                     points="432.4089,-14.5248 442.1866,-10.4448 431.9987,-7.5368 432.4089,-14.5248"/>
        </g>
        <!-- Node9&#45;&gt;Node4 -->
        <g id="edge15" class="edge">
            <title>Node9&#45;&gt;Node4</title>
            <path fill="none" stroke="#191970"
                  d="M256.5672,-112.7559C300.7985,-102.4039 385.1143,-82.6704 431.0312,-71.9239"/>
            <polygon fill="#191970" stroke="#191970"
                     points="432.086,-75.2717 441.0253,-69.5849 430.4908,-68.4559 432.086,-75.2717"/>
        </g>
        <!-- Node9&#45;&gt;Node6 -->
        <g id="edge16" class="edge">
            <title>Node9&#45;&gt;Node6</title>
            <path fill="none" stroke="#191970"
                  d="M221.1553,-110.4267C214.8475,-101.4763 205.3465,-87.2499 198.7516,-74 191.3481,-59.1255 184.906,-41.3783 180.5655,-28.2686"/>
            <polygon fill="#191970" stroke="#191970"
                     points="183.8237,-26.9668 177.4388,-18.5121 177.1577,-29.1032 183.8237,-26.9668"/>
        </g>
        <!-- Node9&#45;&gt;Node7 -->
        <g id="edge17" class="edge">
            <title>Node9&#45;&gt;Node7</title>
            <path fill="none" stroke="#191970"
                  d="M203.3124,-110.4179C178.8897,-101.3419 141.1375,-87.3123 113.7884,-77.1488"/>
            <polygon fill="#191970" stroke="#191970"
                     points="114.82,-73.7984 104.2271,-73.5956 112.3815,-80.3599 114.82,-73.7984"/>
        </g>
        <!-- Node9&#45;&gt;Node8 -->
        <g id="edge18" class="edge">
            <title>Node9&#45;&gt;Node8</title>
            <path fill="none" stroke="#191970"
                  d="M241.7876,-110.4179C254.9529,-101.8992 274.8624,-89.0166 290.2456,-79.0627"/>
            <polygon fill="#191970" stroke="#191970"
                     points="292.2004,-81.9667 298.6947,-73.5956 288.3976,-76.0897 292.2004,-81.9667"/>
        </g>
        <!-- Node10&#45;&gt;Node3 -->
        <g id="edge21" class="edge">
            <title>Node10&#45;&gt;Node3</title>
            <path fill="none" stroke="#191970"
                  d="M350.6899,-220.4339C385.1009,-199.7851 465.5178,-145.4603 493.7516,-74 500.3428,-57.3176 489.6398,-38.9371 479.053,-26.0798"/>
            <polygon fill="#191970" stroke="#191970"
                     points="481.5632,-23.636 472.2956,-18.5017 476.3386,-28.2948 481.5632,-23.636"/>
        </g>
        <!-- Node10&#45;&gt;Node4 -->
        <g id="edge20" class="edge">
            <title>Node10&#45;&gt;Node4</title>
            <path fill="none" stroke="#191970"
                  d="M342.0002,-220.1561C362.6815,-193.4967 422.2122,-116.7578 449.183,-81.9907"/>
            <polygon fill="#191970" stroke="#191970"
                     points="452.2185,-83.788 455.5825,-73.7414 446.6876,-79.4973 452.2185,-83.788"/>
        </g>
        <!-- Node10&#45;&gt;Node5 -->
        <g id="edge24" class="edge">
            <title>Node10&#45;&gt;Node5</title>
            <path fill="none" stroke="#191970"
                  d="M320.8807,-220.4179C307.9919,-211.9788 288.5623,-199.257 273.4203,-189.3426"/>
            <polygon fill="#191970" stroke="#191970"
                     points="274.9266,-186.1454 264.6431,-183.5956 271.092,-192.0017 274.9266,-186.1454"/>
        </g>
        <!-- Node10&#45;&gt;Node7 -->
        <g id="edge22" class="edge">
            <title>Node10&#45;&gt;Node7</title>
            <path fill="none" stroke="#191970"
                  d="M301.3099,-223.0312C272.3361,-216.3815 230.1043,-204.112 197.7516,-184 152.7866,-156.0476 112.2396,-107.6232 92.4674,-81.8343"/>
            <polygon fill="#191970" stroke="#191970"
                     points="95.1763,-79.6132 86.367,-73.7271 89.583,-83.8221 95.1763,-79.6132"/>
        </g>
        <!-- Node10&#45;&gt;Node8 -->
        <g id="edge23" class="edge">
            <title>Node10&#45;&gt;Node8</title>
            <path fill="none" stroke="#191970"
                  d="M333.5058,-220.1561C330.0117,-193.9504 320.0657,-119.3557 315.3252,-83.8021"/>
            <polygon fill="#191970" stroke="#191970"
                     points="318.7748,-83.1911 313.9838,-73.7414 311.8362,-84.1163 318.7748,-83.1911"/>
        </g>
        <!-- Node11&#45;&gt;Node1 -->
        <g id="edge27" class="edge">
            <title>Node11&#45;&gt;Node1</title>
            <path fill="none" stroke="#191970"
                  d="M626.2101,-220.4179C629.8619,-212.9789 635.1474,-202.2123 639.6825,-192.9742"/>
            <polygon fill="#191970" stroke="#191970"
                     points="642.9313,-194.2985 644.1962,-183.7795 636.6476,-191.2138 642.9313,-194.2985"/>
        </g>
        <!-- Node13&#45;&gt;Node3 -->
        <g id="edge31" class="edge">
            <title>Node13&#45;&gt;Node3</title>
            <path fill="none" stroke="#191970"
                  d="M625.6222,-110.1349C613.469,-96.5747 589.3492,-71.3148 564.7516,-55 542.153,-40.0111 513.8047,-27.8199 492.733,-19.8431"/>
            <polygon fill="#191970" stroke="#191970"
                     points="493.9143,-16.5483 483.3209,-16.3758 491.4946,-23.1168 493.9143,-16.5483"/>
        </g>
        <!-- Node13&#45;&gt;Node4 -->
        <g id="edge33" class="edge">
            <title>Node13&#45;&gt;Node4</title>
            <path fill="none" stroke="#191970"
                  d="M605.5144,-110.4179C574.8707,-100.5617 526.0644,-84.8638 494.213,-74.6192"/>
            <polygon fill="#191970" stroke="#191970"
                     points="495.1033,-71.229 484.5119,-71.4989 492.96,-77.8928 495.1033,-71.229"/>
        </g>
        <!-- Node13&#45;&gt;Node8 -->
        <g id="edge34" class="edge">
            <title>Node13&#45;&gt;Node8</title>
            <path fill="none" stroke="#191970"
                  d="M589.791,-111.9678C534.408,-102.4785 438.8582,-86.107 375.7285,-75.2904"/>
            <polygon fill="#191970" stroke="#191970"
                     points="375.9466,-71.7769 365.4991,-73.5377 374.7644,-78.6763 375.9466,-71.7769"/>
        </g>
        <!-- Node14 -->
        <g id="node15" class="node">
            <title>Node14</title>
            <polygon fill="none" stroke="#bfbfbf"
                     points="617.1286,-55.5 617.1286,-73.5 670.3747,-73.5 670.3747,-55.5 617.1286,-55.5"/>
            <text text-anchor="middle" x="643.7516" y="-61.5" font-family="Helvetica,sans-Serif" font-size="10.00"
                  fill="#000000">sqlite3.h
            </text>
        </g>
        <!-- Node13&#45;&gt;Node14 -->
        <g id="edge30" class="edge">
            <title>Node13&#45;&gt;Node14</title>
            <path fill="none" stroke="#191970"
                  d="M635.4029,-110.4179C636.7123,-103.2164 638.5887,-92.8962 640.231,-83.8632"/>
            <polygon fill="#191970" stroke="#191970"
                     points="643.7191,-84.2443 642.0644,-73.7795 636.832,-82.992 643.7191,-84.2443"/>
        </g>
        <!-- Node15 -->
        <g id="node16" class="node">
            <title>Node15</title>
            <polygon fill="none" stroke="#bfbfbf"
                     points="688.3502,-55.5 688.3502,-73.5 747.153,-73.5 747.153,-55.5 688.3502,-55.5"/>
            <text text-anchor="middle" x="717.7516" y="-61.5" font-family="Helvetica,sans-Serif" font-size="10.00"
                  fill="#000000">stdexcept
            </text>
        </g>
        <!-- Node13&#45;&gt;Node15 -->
        <g id="edge32" class="edge">
            <title>Node13&#45;&gt;Node15</title>
            <path fill="none" stroke="#191970"
                  d="M647.6225,-110.4179C660.5113,-101.9788 679.941,-89.257 695.083,-79.3426"/>
            <polygon fill="#191970" stroke="#191970"
                     points="697.4112,-82.0017 703.8601,-73.5956 693.5766,-76.1454 697.4112,-82.0017"/>
        </g>
    </g>
</svg>
