<?xml version="1.0" encoding="UTF-8" standalone="no"?>
<!DOCTYPE svg PUBLIC "-//W3C//DTD SVG 1.1//EN"
        "http://www.w3.org/Graphics/SVG/1.1/DTD/svg11.dtd">
<!-- Generated by graphviz version 2.40.1 (20161225.0304)
 -->
<!-- Title: code/model/Doctor.cpp Pages: 1 -->
<svg width="1101pt" height="357pt"
     viewBox="0.00 0.00 1100.57 357.00" xmlns="http://www.w3.org/2000/svg" xmlns:xlink="http://www.w3.org/1999/xlink">
    <g id="graph0" class="graph" transform="scale(1 1) rotate(0) translate(4 353)">
        <title>code/model/Doctor.cpp</title>
        <!-- Node0 -->
        <g id="node1" class="node">
            <title>Node0</title>
            <polygon fill="#bfbfbf" stroke="#000000"
                     points="377.0298,-330.5 377.0298,-348.5 495.3149,-348.5 495.3149,-330.5 377.0298,-330.5"/>
            <text text-anchor="middle" x="436.1724" y="-336.5" font-family="Helvetica,sans-Serif" font-size="10.00"
                  fill="#000000">code/model/Doctor.cpp
            </text>
        </g>
        <!-- Node1 -->
        <g id="node2" class="node">
            <title>Node1</title>
            <polygon fill="none" stroke="#bfbfbf" points="0,-55.5 0,-73.5 54.3447,-73.5 54.3447,-55.5 0,-55.5"/>
            <text text-anchor="middle" x="27.1724" y="-61.5" font-family="Helvetica,sans-Serif" font-size="10.00"
                  fill="#000000">iostream
            </text>
        </g>
        <!-- Node0&#45;&gt;Node1 -->
        <g id="edge1" class="edge">
            <title>Node0&#45;&gt;Node1</title>
            <path fill="none" stroke="#191970"
                  d="M376.8342,-336.6773C258.8739,-329.44 6.1724,-305.1119 6.1724,-229.5 6.1724,-229.5 6.1724,-229.5 6.1724,-174.5 6.1724,-141.901 15.181,-104.8165 21.3976,-83.1066"/>
            <polygon fill="#191970" stroke="#191970"
                     points="24.7541,-84.0982 24.2524,-73.5153 18.045,-82.1012 24.7541,-84.0982"/>
        </g>
        <!-- Node2 -->
        <g id="node3" class="node">
            <title>Node2</title>
            <polygon fill="none" stroke="#bfbfbf"
                     points="368.6084,-275.5 368.6084,-293.5 425.7363,-293.5 425.7363,-275.5 368.6084,-275.5"/>
            <text text-anchor="middle" x="397.1724" y="-281.5" font-family="Helvetica,sans-Serif" font-size="10.00"
                  fill="#000000">algorithm
            </text>
        </g>
        <!-- Node0&#45;&gt;Node2 -->
        <g id="edge2" class="edge">
            <title>Node0&#45;&gt;Node2</title>
            <path fill="none" stroke="#191970"
                  d="M429.7323,-330.4179C424.2891,-322.7415 416.3332,-311.5217 409.6485,-302.0945"/>
            <polygon fill="#191970" stroke="#191970"
                     points="412.3917,-299.9123 403.7523,-293.7795 406.6816,-303.9613 412.3917,-299.9123"/>
        </g>
        <!-- Node3 -->
        <g id="node4" class="node">
            <title>Node3</title>
            <g id="a_node4">
                <a xlink:href="../../dd/dc5/_doctor_8hpp.html" target="_top" xlink:title="Doctor.hpp">
                    <polygon fill="none" stroke="#000000"
                             points="443.9878,-275.5 443.9878,-293.5 508.3569,-293.5 508.3569,-275.5 443.9878,-275.5"/>
                    <text text-anchor="middle" x="476.1724" y="-281.5" font-family="Helvetica,sans-Serif"
                          font-size="10.00" fill="#000000">Doctor.hpp
                    </text>
                </a>
            </g>
        </g>
        <!-- Node0&#45;&gt;Node3 -->
        <g id="edge3" class="edge">
            <title>Node0&#45;&gt;Node3</title>
            <path fill="none" stroke="#191970"
                  d="M442.7775,-330.4179C448.3603,-322.7415 456.5202,-311.5217 463.3764,-302.0945"/>
            <polygon fill="#191970" stroke="#191970"
                     points="466.3725,-303.9255 469.4237,-293.7795 460.7113,-299.8082 466.3725,-303.9255"/>
        </g>
        <!-- Node15 -->
        <g id="node16" class="node">
            <title>Node15</title>
            <g id="a_node16">
                <a xlink:href="../../d7/d0f/_d_b_master_8hpp.html" target="_top" xlink:title="../DBMaster.hpp">
                    <polygon fill="none" stroke="#000000"
                             points="924.3203,-110.5 924.3203,-128.5 1012.0244,-128.5 1012.0244,-110.5 924.3203,-110.5"/>
                    <text text-anchor="middle" x="968.1724" y="-116.5" font-family="Helvetica,sans-Serif"
                          font-size="10.00" fill="#000000">../DBMaster.hpp
                    </text>
                </a>
            </g>
        </g>
        <!-- Node0&#45;&gt;Node15 -->
        <g id="edge33" class="edge">
            <title>Node0&#45;&gt;Node15</title>
            <path fill="none" stroke="#191970"
                  d="M495.6733,-333.4221C608.067,-320.9064 846.0739,-289.1522 910.1724,-239 942.5921,-213.634 957.9999,-165.5432 964.3576,-138.7505"/>
            <polygon fill="#191970" stroke="#191970"
                     points="967.8382,-139.2167 966.5515,-128.7003 960.9993,-137.7237 967.8382,-139.2167"/>
        </g>
        <!-- Node4 -->
        <g id="node5" class="node">
            <title>Node4</title>
            <polygon fill="none" stroke="#bfbfbf"
                     points="635.9458,-.5 635.9458,-18.5 676.3989,-18.5 676.3989,-.5 635.9458,-.5"/>
            <text text-anchor="middle" x="656.1724" y="-6.5" font-family="Helvetica,sans-Serif" font-size="10.00"
                  fill="#000000">string
            </text>
        </g>
        <!-- Node3&#45;&gt;Node4 -->
        <g id="edge4" class="edge">
            <title>Node3&#45;&gt;Node4</title>
            <path fill="none" stroke="#191970"
                  d="M508.63,-279.9C587.3828,-267.8313 782.1724,-232.1529 782.1724,-174.5 782.1724,-174.5 782.1724,-174.5 782.1724,-119.5 782.1724,-68.5867 723.0689,-35.8152 685.8208,-20.2174"/>
            <polygon fill="#191970" stroke="#191970"
                     points="687.0007,-16.9197 676.4164,-16.4466 684.3955,-23.4168 687.0007,-16.9197"/>
        </g>
        <!-- Node5 -->
        <g id="node6" class="node">
            <title>Node5</title>
            <polygon fill="none" stroke="#bfbfbf"
                     points="760.5566,-.5 760.5566,-18.5 803.7881,-18.5 803.7881,-.5 760.5566,-.5"/>
            <text text-anchor="middle" x="782.1724" y="-6.5" font-family="Helvetica,sans-Serif" font-size="10.00"
                  fill="#000000">vector
            </text>
        </g>
        <!-- Node3&#45;&gt;Node5 -->
        <g id="edge5" class="edge">
            <title>Node3&#45;&gt;Node5</title>
            <path fill="none" stroke="#191970"
                  d="M508.4317,-282.9883C606.7799,-277.5103 896.1724,-254.587 896.1724,-174.5 896.1724,-174.5 896.1724,-174.5 896.1724,-119.5 896.1724,-73.1177 846.6992,-40.1085 812.9356,-22.9816"/>
            <polygon fill="#191970" stroke="#191970"
                     points="814.4063,-19.8049 803.8832,-18.5742 811.342,-26.0986 814.4063,-19.8049"/>
        </g>
        <!-- Node6 -->
        <g id="node7" class="node">
            <title>Node6</title>
            <g id="a_node7">
                <a xlink:href="../../de/d01/_prescription_8hpp.html" target="_top" xlink:title="Prescription.hpp">
                    <polygon fill="none" stroke="#000000"
                             points="406.042,-165.5 406.042,-183.5 494.3027,-183.5 494.3027,-165.5 406.042,-165.5"/>
                    <text text-anchor="middle" x="450.1724" y="-171.5" font-family="Helvetica,sans-Serif"
                          font-size="10.00" fill="#000000">Prescription.hpp
                    </text>
                </a>
            </g>
        </g>
        <!-- Node3&#45;&gt;Node6 -->
        <g id="edge6" class="edge">
            <title>Node3&#45;&gt;Node6</title>
            <path fill="none" stroke="#191970"
                  d="M474.0447,-275.4982C469.8358,-257.6913 460.365,-217.6225 454.6991,-193.6515"/>
            <polygon fill="#191970" stroke="#191970"
                     points="458.0359,-192.5529 452.3295,-183.6261 451.2236,-194.1631 458.0359,-192.5529"/>
        </g>
        <!-- Node10 -->
        <g id="node11" class="node">
            <title>Node10</title>
            <g id="a_node11">
                <a xlink:href="../../dd/df9/_drug_8hpp.html" target="_top" xlink:title="Drug.hpp">
                    <polygon fill="none" stroke="#000000"
                             points="268.6035,-110.5 268.6035,-128.5 325.7412,-128.5 325.7412,-110.5 268.6035,-110.5"/>
                    <text text-anchor="middle" x="297.1724" y="-116.5" font-family="Helvetica,sans-Serif"
                          font-size="10.00" fill="#000000">Drug.hpp
                    </text>
                </a>
            </g>
        </g>
        <!-- Node3&#45;&gt;Node10 -->
        <g id="edge29" class="edge">
            <title>Node3&#45;&gt;Node10</title>
            <path fill="none" stroke="#191970"
                  d="M443.7975,-275.5642C412.1165,-266.2952 366.7068,-251.4437 353.1724,-239 323.2137,-211.4556 307.8687,-164.6042 301.281,-138.4986"/>
            <polygon fill="#191970" stroke="#191970"
                     points="304.6725,-137.6309 298.9767,-128.6974 297.8583,-139.233 304.6725,-137.6309"/>
        </g>
        <!-- Node12 -->
        <g id="node13" class="node">
            <title>Node12</title>
            <g id="a_node13">
                <a xlink:href="../../d0/da9/_patient_8hpp.html" target="_top" xlink:title="Patient.hpp">
                    <polygon fill="none" stroke="#000000"
                             points="530.8745,-220.5 530.8745,-238.5 597.4702,-238.5 597.4702,-220.5 530.8745,-220.5"/>
                    <text text-anchor="middle" x="564.1724" y="-226.5" font-family="Helvetica,sans-Serif"
                          font-size="10.00" fill="#000000">Patient.hpp
                    </text>
                </a>
            </g>
        </g>
        <!-- Node3&#45;&gt;Node12 -->
        <g id="edge23" class="edge">
            <title>Node3&#45;&gt;Node12</title>
            <path fill="none" stroke="#191970"
                  d="M490.7038,-275.4179C504.3337,-266.8992 524.9459,-254.0166 540.872,-244.0627"/>
            <polygon fill="#191970" stroke="#191970"
                     points="542.9944,-246.8637 549.6194,-238.5956 539.2844,-240.9277 542.9944,-246.8637"/>
        </g>
        <!-- Node13 -->
        <g id="node14" class="node">
            <title>Node13</title>
            <g id="a_node14">
                <a xlink:href="../../d8/d63/_date_8hpp.html" target="_top" xlink:title="../utils/Date.hpp">
                    <polygon fill="none" stroke="#000000"
                             points="114.4312,-165.5 114.4312,-183.5 199.9136,-183.5 199.9136,-165.5 114.4312,-165.5"/>
                    <text text-anchor="middle" x="157.1724" y="-171.5" font-family="Helvetica,sans-Serif"
                          font-size="10.00" fill="#000000">../utils/Date.hpp
                    </text>
                </a>
            </g>
        </g>
        <!-- Node3&#45;&gt;Node13 -->
        <g id="edge30" class="edge">
            <title>Node3&#45;&gt;Node13</title>
            <path fill="none" stroke="#191970"
                  d="M443.7545,-276.8498C391.9472,-264.596 295.5331,-241.6659 288.1724,-239 249.537,-225.0069 207.3079,-202.875 181.5256,-188.521"/>
            <polygon fill="#191970" stroke="#191970"
                     points="183.2392,-185.4692 172.808,-183.6141 179.8056,-191.5693 183.2392,-185.4692"/>
        </g>
        <!-- Node14 -->
        <g id="node15" class="node">
            <title>Node14</title>
            <g id="a_node15">
                <a xlink:href="../../d8/d3a/_time_8hpp.html" target="_top" xlink:title="../utils/Time.hpp">
                    <polygon fill="none" stroke="#000000"
                             points="362.0649,-220.5 362.0649,-238.5 448.2798,-238.5 448.2798,-220.5 362.0649,-220.5"/>
                    <text text-anchor="middle" x="405.1724" y="-226.5" font-family="Helvetica,sans-Serif"
                          font-size="10.00" fill="#000000">../utils/Time.hpp
                    </text>
                </a>
            </g>
        </g>
        <!-- Node3&#45;&gt;Node14 -->
        <g id="edge32" class="edge">
            <title>Node3&#45;&gt;Node14</title>
            <path fill="none" stroke="#191970"
                  d="M464.4482,-275.4179C453.8236,-267.1876 437.9407,-254.8839 425.2893,-245.0836"/>
            <polygon fill="#191970" stroke="#191970"
                     points="427.2002,-242.1365 417.1513,-238.7795 422.9134,-247.6704 427.2002,-242.1365"/>
        </g>
        <!-- Node6&#45;&gt;Node4 -->
        <g id="edge8" class="edge">
            <title>Node6&#45;&gt;Node4</title>
            <path fill="none" stroke="#191970"
                  d="M436.135,-165.2405C406.1635,-144.3746 341.1589,-92.5717 373.1724,-55 389.4474,-35.8993 555.7694,-18.6508 625.5827,-12.194"/>
            <polygon fill="#191970" stroke="#191970"
                     points="626.2799,-15.645 635.9209,-11.2517 625.6445,-8.6739 626.2799,-15.645"/>
        </g>
        <!-- Node6&#45;&gt;Node5 -->
        <g id="edge7" class="edge">
            <title>Node6&#45;&gt;Node5</title>
            <path fill="none" stroke="#191970"
                  d="M476.191,-165.3737C520.6537,-149.3635 613.5828,-114.0839 687.1724,-74 714.3761,-59.1823 743.5568,-38.5886 762.2915,-24.6903"/>
            <polygon fill="#191970" stroke="#191970"
                     points="764.4576,-27.4408 770.3572,-18.6404 760.2573,-21.841 764.4576,-27.4408"/>
        </g>
        <!-- Node7 -->
        <g id="node8" class="node">
            <title>Node7</title>
            <polygon fill="none" stroke="#bfbfbf"
                     points="222.4458,-.5 222.4458,-18.5 257.8989,-18.5 257.8989,-.5 222.4458,-.5"/>
            <text text-anchor="middle" x="240.1724" y="-6.5" font-family="Helvetica,sans-Serif" font-size="10.00"
                  fill="#000000">map
            </text>
        </g>
        <!-- Node6&#45;&gt;Node7 -->
        <g id="edge9" class="edge">
            <title>Node6&#45;&gt;Node7</title>
            <path fill="none" stroke="#191970"
                  d="M405.9059,-168.5881C320.1692,-156.1093 136.7417,-124.0445 101.1724,-74 71.7272,-32.572 163.6478,-17.0554 212.185,-11.8486"/>
            <polygon fill="#191970" stroke="#191970"
                     points="212.7762,-15.3073 222.3819,-10.8374 212.0853,-8.3414 212.7762,-15.3073"/>
        </g>
        <!-- Node8 -->
        <g id="node9" class="node">
            <title>Node8</title>
            <polygon fill="none" stroke="#bfbfbf"
                     points="382.2612,-55.5 382.2612,-73.5 516.0835,-73.5 516.0835,-55.5 382.2612,-55.5"/>
            <text text-anchor="middle" x="449.1724" y="-61.5" font-family="Helvetica,sans-Serif" font-size="10.00"
                  fill="#000000">gtkmm/treemodelcolumn.h
            </text>
        </g>
        <!-- Node6&#45;&gt;Node8 -->
        <g id="edge10" class="edge">
            <title>Node6&#45;&gt;Node8</title>
            <path fill="none" stroke="#191970"
                  d="M450.0905,-165.4982C449.9286,-147.6913 449.5644,-107.6225 449.3465,-83.6515"/>
            <polygon fill="#191970" stroke="#191970"
                     points="452.8462,-83.5939 449.2553,-73.6261 445.8465,-83.6576 452.8462,-83.5939"/>
        </g>
        <!-- Node9 -->
        <g id="node10" class="node">
            <title>Node9</title>
            <g id="a_node10">
                <a xlink:href="../../d3/d1b/_i_serializable_8hpp.html" target="_top"
                   xlink:title="../interfaces/ISerializable.hpp">
                    <polygon fill="none" stroke="#000000"
                             points="533.9707,-55.5 533.9707,-73.5 678.374,-73.5 678.374,-55.5 533.9707,-55.5"/>
                    <text text-anchor="middle" x="606.1724" y="-61.5" font-family="Helvetica,sans-Serif"
                          font-size="10.00" fill="#000000">../interfaces/ISerializable.hpp
                    </text>
                </a>
            </g>
        </g>
        <!-- Node6&#45;&gt;Node9 -->
        <g id="edge11" class="edge">
            <title>Node6&#45;&gt;Node9</title>
            <path fill="none" stroke="#191970"
                  d="M462.9385,-165.4982C489.6774,-146.6439 551.8113,-102.8315 584.7632,-79.5962"/>
            <polygon fill="#191970" stroke="#191970"
                     points="587.0742,-82.2493 593.2298,-73.6261 583.0403,-76.5285 587.0742,-82.2493"/>
        </g>
        <!-- Node6&#45;&gt;Node10 -->
        <g id="edge15" class="edge">
            <title>Node6&#45;&gt;Node10</title>
            <path fill="none" stroke="#191970"
                  d="M424.9075,-165.4179C399.473,-156.2748 360.0542,-142.1046 331.7338,-131.924"/>
            <polygon fill="#191970" stroke="#191970"
                     points="332.8149,-128.5935 322.2204,-128.5042 330.4469,-135.1808 332.8149,-128.5935"/>
        </g>
        <!-- Node9&#45;&gt;Node4 -->
        <g id="edge12" class="edge">
            <title>Node9&#45;&gt;Node4</title>
            <path fill="none" stroke="#191970"
                  d="M614.4288,-55.4179C621.6232,-47.5041 632.2412,-35.8243 640.9677,-26.2251"/>
            <polygon fill="#191970" stroke="#191970"
                     points="643.5995,-28.5332 647.7365,-18.7795 638.4199,-23.8245 643.5995,-28.5332"/>
        </g>
        <!-- Node9&#45;&gt;Node5 -->
        <g id="edge14" class="edge">
            <title>Node9&#45;&gt;Node5</title>
            <path fill="none" stroke="#191970"
                  d="M635.2352,-55.4179C666.9512,-45.5066 717.5702,-29.6882 750.3388,-19.448"/>
            <polygon fill="#191970" stroke="#191970"
                     points="751.8034,-22.6573 760.3042,-16.3338 749.7154,-15.9759 751.8034,-22.6573"/>
        </g>
        <!-- Node9&#45;&gt;Node7 -->
        <g id="edge13" class="edge">
            <title>Node9&#45;&gt;Node7</title>
            <path fill="none" stroke="#191970"
                  d="M546.1447,-55.4795C465.9598,-43.4298 327.1486,-22.5702 268.0786,-13.6936"/>
            <polygon fill="#191970" stroke="#191970"
                     points="268.4182,-10.2054 258.009,-12.1804 267.3779,-17.1276 268.4182,-10.2054"/>
        </g>
        <!-- Node10&#45;&gt;Node1 -->
        <g id="edge21" class="edge">
            <title>Node10&#45;&gt;Node1</title>
            <path fill="none" stroke="#191970"
                  d="M268.5333,-113.6661C219.4454,-103.6667 119.2635,-83.2593 64.6724,-72.1389"/>
            <polygon fill="#191970" stroke="#191970"
                     points="65.2088,-68.6764 54.7114,-70.1098 63.8115,-75.5355 65.2088,-68.6764"/>
        </g>
        <!-- Node10&#45;&gt;Node4 -->
        <g id="edge16" class="edge">
            <title>Node10&#45;&gt;Node4</title>
            <path fill="none" stroke="#191970"
                  d="M294.6535,-110.161C291.5023,-96.1649 288.0874,-69.8143 302.1724,-55 324.3395,-31.685 543.5085,-16.2543 625.4622,-11.2594"/>
            <polygon fill="#191970" stroke="#191970"
                     points="625.8679,-14.7415 635.6408,-10.65 625.4494,-7.754 625.8679,-14.7415"/>
        </g>
        <!-- Node10&#45;&gt;Node5 -->
        <g id="edge17" class="edge">
            <title>Node10&#45;&gt;Node5</title>
            <path fill="none" stroke="#191970"
                  d="M304.8876,-110.0568C317.4642,-95.4154 343.9343,-67.6127 373.1724,-55 381.848,-51.2575 655.6005,-22.6172 750.3076,-12.7942"/>
            <polygon fill="#191970" stroke="#191970"
                     points="750.8483,-16.257 760.4343,-11.7448 750.1267,-9.2943 750.8483,-16.257"/>
        </g>
        <!-- Node10&#45;&gt;Node7 -->
        <g id="edge18" class="edge">
            <title>Node10&#45;&gt;Node7</title>
            <path fill="none" stroke="#191970"
                  d="M289.291,-110.2382C282.043,-101.3789 271.3615,-87.4183 264.1724,-74 256.3257,-59.3544 249.9219,-41.5875 245.7088,-28.412"/>
            <polygon fill="#191970" stroke="#191970"
                     points="248.9768,-27.1302 242.7015,-18.5937 242.2837,-29.1803 248.9768,-27.1302"/>
        </g>
        <!-- Node10&#45;&gt;Node8 -->
        <g id="edge19" class="edge">
            <title>Node10&#45;&gt;Node8</title>
            <path fill="none" stroke="#191970"
                  d="M322.2721,-110.4179C347.5403,-101.2748 386.7015,-87.1046 414.8369,-76.924"/>
            <polygon fill="#191970" stroke="#191970"
                     points="416.0756,-80.198 424.288,-73.5042 413.6937,-73.6156 416.0756,-80.198"/>
        </g>
        <!-- Node10&#45;&gt;Node9 -->
        <g id="edge22" class="edge">
            <title>Node10&#45;&gt;Node9</title>
            <path fill="none" stroke="#191970"
                  d="M325.9649,-114.3751C375.8424,-105.4972 479.3237,-87.0782 545.6136,-75.2791"/>
            <polygon fill="#191970" stroke="#191970"
                     points="546.2844,-78.7148 555.5163,-73.5165 545.0576,-71.8231 546.2844,-78.7148"/>
        </g>
        <!-- Node11 -->
        <g id="node12" class="node">
            <title>Node11</title>
            <polygon fill="none" stroke="#bfbfbf"
                     points="110.3794,-55.5 110.3794,-73.5 211.9653,-73.5 211.9653,-55.5 110.3794,-55.5"/>
            <text text-anchor="middle" x="161.1724" y="-61.5" font-family="Helvetica,sans-Serif" font-size="10.00"
                  fill="#000000">gtkmm/treemodel.h
            </text>
        </g>
        <!-- Node10&#45;&gt;Node11 -->
        <g id="edge20" class="edge">
            <title>Node10&#45;&gt;Node11</title>
            <path fill="none" stroke="#191970"
                  d="M274.7147,-110.4179C252.4691,-101.4215 218.1887,-87.5581 193.113,-77.4172"/>
            <polygon fill="#191970" stroke="#191970"
                     points="194.2462,-74.1001 183.6634,-73.5956 191.6217,-80.5895 194.2462,-74.1001"/>
        </g>
        <!-- Node12&#45;&gt;Node4 -->
        <g id="edge25" class="edge">
            <title>Node12&#45;&gt;Node4</title>
            <path fill="none" stroke="#191970"
                  d="M575.234,-220.4286C600.957,-198.5237 664.3382,-139.6743 687.1724,-74 692.9406,-57.4096 682.8837,-39.4722 672.7211,-26.7353"/>
            <polygon fill="#191970" stroke="#191970"
                     points="675.0587,-24.0887 665.8618,-18.8287 669.7711,-28.6759 675.0587,-24.0887"/>
        </g>
        <!-- Node12&#45;&gt;Node5 -->
        <g id="edge24" class="edge">
            <title>Node12&#45;&gt;Node5</title>
            <path fill="none" stroke="#191970"
                  d="M592.6782,-220.4988C644.5079,-202.3925 752.8245,-156.1159 796.1724,-74 803.76,-59.6264 798.6413,-41.3794 792.5675,-27.964"/>
            <polygon fill="#191970" stroke="#191970"
                     points="795.5659,-26.1371 787.9313,-18.7911 789.3185,-29.2948 795.5659,-26.1371"/>
        </g>
        <!-- Node12&#45;&gt;Node6 -->
        <g id="edge28" class="edge">
            <title>Node12&#45;&gt;Node6</title>
            <path fill="none" stroke="#191970"
                  d="M545.3476,-220.4179C527.0305,-211.5807 498.9794,-198.0473 478.0693,-187.9591"/>
            <polygon fill="#191970" stroke="#191970"
                     points="479.5526,-184.7887 469.0251,-183.5956 476.5108,-191.0933 479.5526,-184.7887"/>
        </g>
        <!-- Node12&#45;&gt;Node8 -->
        <g id="edge26" class="edge">
            <title>Node12&#45;&gt;Node8</title>
            <path fill="none" stroke="#191970"
                  d="M557.66,-220.1561C539.0791,-193.4967 485.5945,-116.7578 461.3629,-81.9907"/>
            <polygon fill="#191970" stroke="#191970"
                     points="464.2027,-79.9441 455.6133,-73.7414 458.4599,-83.9467 464.2027,-79.9441"/>
        </g>
        <!-- Node12&#45;&gt;Node9 -->
        <g id="edge27" class="edge">
            <title>Node12&#45;&gt;Node9</title>
            <path fill="none" stroke="#191970"
                  d="M566.5508,-220.1561C573.2213,-193.9504 592.2091,-119.3557 601.2591,-83.8021"/>
            <polygon fill="#191970" stroke="#191970"
                     points="604.745,-84.2958 603.82,-73.7414 597.9613,-82.569 604.745,-84.2958"/>
        </g>
        <!-- Node13&#45;&gt;Node1 -->
        <g id="edge31" class="edge">
            <title>Node13&#45;&gt;Node1</title>
            <path fill="none" stroke="#191970"
                  d="M131.1843,-165.4962C112.1417,-157.9462 86.5216,-145.7068 68.1724,-129 53.9614,-116.061 42.7063,-97.1156 35.6116,-83.1027"/>
            <polygon fill="#191970" stroke="#191970"
                     points="38.6869,-81.4217 31.198,-73.9273 32.3788,-84.4561 38.6869,-81.4217"/>
        </g>
        <!-- Node15&#45;&gt;Node4 -->
        <g id="edge35" class="edge">
            <title>Node15&#45;&gt;Node4</title>
            <path fill="none" stroke="#191970"
                  d="M944.9232,-110.4056C911.9798,-97.6051 849.7558,-73.7438 796.1724,-55 758.5734,-41.8477 714.8633,-27.8449 686.42,-18.9023"/>
            <polygon fill="#191970" stroke="#191970"
                     points="687.2603,-15.4979 676.6712,-15.8476 685.1672,-22.1777 687.2603,-15.4979"/>
        </g>
        <!-- Node15&#45;&gt;Node5 -->
        <g id="edge37" class="edge">
            <title>Node15&#45;&gt;Node5</title>
            <path fill="none" stroke="#191970"
                  d="M962.1442,-110.2698C952.6542,-96.4158 932.9473,-70.2483 910.1724,-55 880.4567,-35.1048 841.0373,-22.8152 813.8341,-16.1012"/>
            <polygon fill="#191970" stroke="#191970"
                     points="814.5881,-12.6831 804.052,-13.7967 812.983,-19.4966 814.5881,-12.6831"/>
        </g>
        <!-- Node15&#45;&gt;Node9 -->
        <g id="edge38" class="edge">
            <title>Node15&#45;&gt;Node9</title>
            <path fill="none" stroke="#191970"
                  d="M924.146,-112.8109C862.2395,-103.4052 748.8509,-86.1777 675.5429,-75.0397"/>
            <polygon fill="#191970" stroke="#191970"
                     points="675.8867,-71.5519 665.4744,-73.51 674.8352,-78.4724 675.8867,-71.5519"/>
        </g>
        <!-- Node16 -->
        <g id="node17" class="node">
            <title>Node16</title>
            <polygon fill="none" stroke="#bfbfbf"
                     points="962.5493,-55.5 962.5493,-73.5 1015.7954,-73.5 1015.7954,-55.5 962.5493,-55.5"/>
            <text text-anchor="middle" x="989.1724" y="-61.5" font-family="Helvetica,sans-Serif" font-size="10.00"
                  fill="#000000">sqlite3.h
            </text>
        </g>
        <!-- Node15&#45;&gt;Node16 -->
        <g id="edge34" class="edge">
            <title>Node15&#45;&gt;Node16</title>
            <path fill="none" stroke="#191970"
                  d="M971.6401,-110.4179C974.4502,-103.0581 978.504,-92.441 982.0058,-83.2695"/>
            <polygon fill="#191970" stroke="#191970"
                     points="985.332,-84.3701 985.6293,-73.7795 978.7925,-81.8732 985.332,-84.3701"/>
        </g>
        <!-- Node17 -->
        <g id="node18" class="node">
            <title>Node17</title>
            <polygon fill="none" stroke="#bfbfbf"
                     points="1033.771,-55.5 1033.771,-73.5 1092.5737,-73.5 1092.5737,-55.5 1033.771,-55.5"/>
            <text text-anchor="middle" x="1063.1724" y="-61.5" font-family="Helvetica,sans-Serif" font-size="10.00"
                  fill="#000000">stdexcept
            </text>
        </g>
        <!-- Node15&#45;&gt;Node17 -->
        <g id="edge36" class="edge">
            <title>Node15&#45;&gt;Node17</title>
            <path fill="none" stroke="#191970"
                  d="M983.8597,-110.4179C998.7113,-101.8195 1021.2422,-88.7754 1038.4993,-78.7844"/>
            <polygon fill="#191970" stroke="#191970"
                     points="1040.5611,-81.635 1047.4617,-73.5956 1037.0538,-75.577 1040.5611,-81.635"/>
        </g>
    </g>
</svg>
