<?xml version="1.0" encoding="UTF-8" standalone="no"?>
<!DOCTYPE svg PUBLIC "-//W3C//DTD SVG 1.1//EN"
        "http://www.w3.org/Graphics/SVG/1.1/DTD/svg11.dtd">
<!-- Generated by graphviz version 2.40.1 (20161225.0304)
 -->
<!-- Title: code/gui/view/CustomWidgets.cpp Pages: 1 -->
<svg width="2104pt" height="357pt"
     viewBox="0.00 0.00 2103.65 357.00" xmlns="http://www.w3.org/2000/svg" xmlns:xlink="http://www.w3.org/1999/xlink">
    <g id="graph0" class="graph" transform="scale(1 1) rotate(0) translate(4 353)">
        <title>code/gui/view/CustomWidgets.cpp</title>
        <!-- Node0 -->
        <g id="node1" class="node">
            <title>Node0</title>
            <polygon fill="#bfbfbf" stroke="#000000"
                     points="1408.1973,-330.5 1408.1973,-348.5 1577.0439,-348.5 1577.0439,-330.5 1408.1973,-330.5"/>
            <text text-anchor="middle" x="1492.6206" y="-336.5" font-family="Helvetica,sans-Serif" font-size="10.00"
                  fill="#000000">code/gui/view/CustomWidgets.cpp
            </text>
        </g>
        <!-- Node1 -->
        <g id="node2" class="node">
            <title>Node1</title>
            <polygon fill="none" stroke="#bfbfbf" points="0,-220.5 0,-238.5 73.2412,-238.5 73.2412,-220.5 0,-220.5"/>
            <text text-anchor="middle" x="36.6206" y="-226.5" font-family="Helvetica,sans-Serif" font-size="10.00"
                  fill="#000000">gtkmm/box.h
            </text>
        </g>
        <!-- Node0&#45;&gt;Node1 -->
        <g id="edge1" class="edge">
            <title>Node0&#45;&gt;Node1</title>
            <path fill="none" stroke="#191970"
                  d="M1408.0632,-338.0865C1177.6872,-333.9307 542.3256,-320.3552 334.6206,-294 242.4787,-282.3083 136.6504,-256.3426 79.1842,-241.1626"/>
            <polygon fill="#191970" stroke="#191970"
                     points="79.9335,-237.7402 69.3697,-238.5503 78.133,-244.5047 79.9335,-237.7402"/>
        </g>
        <!-- Node2 -->
        <g id="node3" class="node">
            <title>Node2</title>
            <polygon fill="none" stroke="#bfbfbf"
                     points="1520.4976,-275.5 1520.4976,-293.5 1598.7437,-293.5 1598.7437,-275.5 1520.4976,-275.5"/>
            <text text-anchor="middle" x="1559.6206" y="-281.5" font-family="Helvetica,sans-Serif" font-size="10.00"
                  fill="#000000">gtkmm/label.h
            </text>
        </g>
        <!-- Node0&#45;&gt;Node2 -->
        <g id="edge2" class="edge">
            <title>Node0&#45;&gt;Node2</title>
            <path fill="none" stroke="#191970"
                  d="M1503.6843,-330.4179C1513.6139,-322.2667 1528.4106,-310.1201 1540.2918,-300.3669"/>
            <polygon fill="#191970" stroke="#191970"
                     points="1542.808,-302.8297 1548.3165,-293.7795 1538.3665,-297.4192 1542.808,-302.8297"/>
        </g>
        <!-- Node3 -->
        <g id="node4" class="node">
            <title>Node3</title>
            <polygon fill="none" stroke="#bfbfbf"
                     points="1617.1602,-275.5 1617.1602,-293.5 1702.0811,-293.5 1702.0811,-275.5 1617.1602,-275.5"/>
            <text text-anchor="middle" x="1659.6206" y="-281.5" font-family="Helvetica,sans-Serif" font-size="10.00"
                  fill="#000000">gtkmm/button.h
            </text>
        </g>
        <!-- Node0&#45;&gt;Node3 -->
        <g id="edge3" class="edge">
            <title>Node0&#45;&gt;Node3</title>
            <path fill="none" stroke="#191970"
                  d="M1520.1973,-330.4179C1548.2015,-321.1949 1591.7375,-306.8567 1622.7038,-296.6582"/>
            <polygon fill="#191970" stroke="#191970"
                     points="1623.8773,-299.9568 1632.2805,-293.5042 1621.6875,-293.3081 1623.8773,-299.9568"/>
        </g>
        <!-- Node4 -->
        <g id="node5" class="node">
            <title>Node4</title>
            <polygon fill="none" stroke="#bfbfbf"
                     points="91.7241,-220.5 91.7241,-238.5 165.5171,-238.5 165.5171,-220.5 91.7241,-220.5"/>
            <text text-anchor="middle" x="128.6206" y="-226.5" font-family="Helvetica,sans-Serif" font-size="10.00"
                  fill="#000000">gtkmm/grid.h
            </text>
        </g>
        <!-- Node0&#45;&gt;Node4 -->
        <g id="edge4" class="edge">
            <title>Node0&#45;&gt;Node4</title>
            <path fill="none" stroke="#191970"
                  d="M1407.9434,-337.3951C1194.9349,-331.84 640.809,-315.7066 457.6206,-294 356.054,-281.965 238.9119,-256.063 175.4286,-241.0007"/>
            <polygon fill="#191970" stroke="#191970"
                     points="175.8766,-237.5093 165.3371,-238.5902 174.2502,-244.3178 175.8766,-237.5093"/>
        </g>
        <!-- Node5 -->
        <g id="node6" class="node">
            <title>Node5</title>
            <polygon fill="none" stroke="#bfbfbf"
                     points="183.2808,-220.5 183.2808,-238.5 265.9604,-238.5 265.9604,-220.5 183.2808,-220.5"/>
            <text text-anchor="middle" x="224.6206" y="-226.5" font-family="Helvetica,sans-Serif" font-size="10.00"
                  fill="#000000">gtkmm/frame.h
            </text>
        </g>
        <!-- Node0&#45;&gt;Node5 -->
        <g id="edge5" class="edge">
            <title>Node0&#45;&gt;Node5</title>
            <path fill="none" stroke="#191970"
                  d="M1408.1612,-338.5978C1248.6873,-336.1463 892.504,-327.105 594.6206,-294 480.0408,-281.2663 347.2429,-255.3557 276.0446,-240.5432"/>
            <polygon fill="#191970" stroke="#191970"
                     points="276.5012,-237.063 265.9964,-238.4411 275.0678,-243.9147 276.5012,-237.063"/>
        </g>
        <!-- Node6 -->
        <g id="node7" class="node">
            <title>Node6</title>
            <polygon fill="none" stroke="#bfbfbf"
                     points="284.2734,-220.5 284.2734,-238.5 376.9678,-238.5 376.9678,-220.5 284.2734,-220.5"/>
            <text text-anchor="middle" x="330.6206" y="-226.5" font-family="Helvetica,sans-Serif" font-size="10.00"
                  fill="#000000">gtkmm/textview.h
            </text>
        </g>
        <!-- Node0&#45;&gt;Node6 -->
        <g id="edge6" class="edge">
            <title>Node0&#45;&gt;Node6</title>
            <path fill="none" stroke="#191970"
                  d="M1407.9346,-337.144C1267.1818,-332.6218 976.3466,-320.7019 731.6206,-294 608.0167,-280.5136 464.4367,-255.0043 387.0431,-240.4334"/>
            <polygon fill="#191970" stroke="#191970"
                     points="387.503,-236.9584 377.0267,-238.539 386.2021,-243.8365 387.503,-236.9584"/>
        </g>
        <!-- Node7 -->
        <g id="node8" class="node">
            <title>Node7</title>
            <polygon fill="none" stroke="#bfbfbf"
                     points="1349.4482,-55.5 1349.4482,-73.5 1403.793,-73.5 1403.793,-55.5 1349.4482,-55.5"/>
            <text text-anchor="middle" x="1376.6206" y="-61.5" font-family="Helvetica,sans-Serif" font-size="10.00"
                  fill="#000000">iostream
            </text>
        </g>
        <!-- Node0&#45;&gt;Node7 -->
        <g id="edge7" class="edge">
            <title>Node0&#45;&gt;Node7</title>
            <path fill="none" stroke="#191970"
                  d="M1487.1761,-330.4507C1476.6688,-312.0998 1454.6206,-268.899 1454.6206,-229.5 1454.6206,-229.5 1454.6206,-229.5 1454.6206,-174.5 1454.6206,-134.6755 1420.18,-99.2068 1397.0696,-79.8895"/>
            <polygon fill="#191970" stroke="#191970"
                     points="1399.1395,-77.0628 1389.1527,-73.5252 1394.7537,-82.5185 1399.1395,-77.0628"/>
        </g>
        <!-- Node8 -->
        <g id="node9" class="node">
            <title>Node8</title>
            <polygon fill="none" stroke="#bfbfbf"
                     points="1720.3916,-275.5 1720.3916,-293.5 1800.8496,-293.5 1800.8496,-275.5 1720.3916,-275.5"/>
            <text text-anchor="middle" x="1760.6206" y="-281.5" font-family="Helvetica,sans-Serif" font-size="10.00"
                  fill="#000000">gtkmm/stock.h
            </text>
        </g>
        <!-- Node0&#45;&gt;Node8 -->
        <g id="edge8" class="edge">
            <title>Node0&#45;&gt;Node8</title>
            <path fill="none" stroke="#191970"
                  d="M1536.5753,-330.4795C1584.2271,-320.7002 1660.1546,-305.118 1710.1966,-294.8482"/>
            <polygon fill="#191970" stroke="#191970"
                     points="1711.0609,-298.2439 1720.1531,-292.8049 1709.6536,-291.3868 1711.0609,-298.2439"/>
        </g>
        <!-- Node9 -->
        <g id="node10" class="node">
            <title>Node9</title>
            <polygon fill="none" stroke="#bfbfbf"
                     points="1818.8892,-275.5 1818.8892,-293.5 1904.3521,-293.5 1904.3521,-275.5 1818.8892,-275.5"/>
            <text text-anchor="middle" x="1861.6206" y="-281.5" font-family="Helvetica,sans-Serif" font-size="10.00"
                  fill="#000000">gtkmm/listbox.h
            </text>
        </g>
        <!-- Node0&#45;&gt;Node9 -->
        <g id="edge9" class="edge">
            <title>Node0&#45;&gt;Node9</title>
            <path fill="none" stroke="#191970"
                  d="M1560.7561,-330.4852C1622.7691,-322.1057 1717.0998,-308.9248 1808.7843,-294.0862"/>
            <polygon fill="#191970" stroke="#191970"
                     points="1809.4861,-297.5181 1818.7943,-292.4577 1808.362,-290.6089 1809.4861,-297.5181"/>
        </g>
        <!-- Node10 -->
        <g id="node11" class="node">
            <title>Node10</title>
            <polygon fill="none" stroke="#bfbfbf"
                     points="1921.9482,-275.5 1921.9482,-293.5 1991.293,-293.5 1991.293,-275.5 1921.9482,-275.5"/>
            <text text-anchor="middle" x="1956.6206" y="-281.5" font-family="Helvetica,sans-Serif" font-size="10.00"
                  fill="#000000">fmt/format.h
            </text>
        </g>
        <!-- Node0&#45;&gt;Node10 -->
        <g id="edge10" class="edge">
            <title>Node0&#45;&gt;Node10</title>
            <path fill="none" stroke="#191970"
                  d="M1577.2585,-333.1009C1660.2027,-326.2034 1790.371,-313.7126 1911.3055,-294.2507"/>
            <polygon fill="#191970" stroke="#191970"
                     points="1912.1746,-297.6553 1921.4816,-292.5927 1911.0489,-290.7464 1912.1746,-297.6553"/>
        </g>
        <!-- Node11 -->
        <g id="node12" class="node">
            <title>Node11</title>
            <polygon fill="none" stroke="#bfbfbf"
                     points="2009.5938,-275.5 2009.5938,-293.5 2095.6475,-293.5 2095.6475,-275.5 2009.5938,-275.5"/>
            <text text-anchor="middle" x="2052.6206" y="-281.5" font-family="Helvetica,sans-Serif" font-size="10.00"
                  fill="#000000">spdlog/spdlog.h
            </text>
        </g>
        <!-- Node0&#45;&gt;Node11 -->
        <g id="edge11" class="edge">
            <title>Node0&#45;&gt;Node11</title>
            <path fill="none" stroke="#191970"
                  d="M1577.3778,-334.286C1676.2733,-327.6654 1844.8989,-314.7146 1999.3845,-294.0558"/>
            <polygon fill="#191970" stroke="#191970"
                     points="2000.0975,-297.4913 2009.5388,-292.6839 1999.1602,-290.5544 2000.0975,-297.4913"/>
        </g>
        <!-- Node12 -->
        <g id="node13" class="node">
            <title>Node12</title>
            <g id="a_node13">
                <a xlink:href="../../d5/d46/_custom_widgets_8hpp.html" target="_top" xlink:title="CustomWidgets.hpp">
                    <polygon fill="none" stroke="#000000"
                             points="740.6011,-275.5 740.6011,-293.5 846.6401,-293.5 846.6401,-275.5 740.6011,-275.5"/>
                    <text text-anchor="middle" x="793.6206" y="-281.5" font-family="Helvetica,sans-Serif"
                          font-size="10.00" fill="#000000">CustomWidgets.hpp
                    </text>
                </a>
            </g>
        </g>
        <!-- Node0&#45;&gt;Node12 -->
        <g id="edge12" class="edge">
            <title>Node0&#45;&gt;Node12</title>
            <path fill="none" stroke="#191970"
                  d="M1407.9569,-332.8383C1266.0121,-321.6696 983.1992,-299.4168 856.9879,-289.486"/>
            <polygon fill="#191970" stroke="#191970"
                     points="856.9652,-285.9735 846.7214,-288.6782 856.416,-292.9519 856.9652,-285.9735"/>
        </g>
        <!-- Node30 -->
        <g id="node31" class="node">
            <title>Node30</title>
            <g id="a_node31">
                <a xlink:href="../../d2/dce/string_utils_8hpp.html" target="_top"
                   xlink:title="../../utils/stringUtils.hpp">
                    <polygon fill="none" stroke="#000000"
                             points="1421.3252,-55.5 1421.3252,-73.5 1537.916,-73.5 1537.916,-55.5 1421.3252,-55.5"/>
                    <text text-anchor="middle" x="1479.6206" y="-61.5" font-family="Helvetica,sans-Serif"
                          font-size="10.00" fill="#000000">../../utils/stringUtils.hpp
                    </text>
                </a>
            </g>
        </g>
        <!-- Node0&#45;&gt;Node30 -->
        <g id="edge49" class="edge">
            <title>Node0&#45;&gt;Node30</title>
            <path fill="none" stroke="#191970"
                  d="M1492.6206,-330.3733C1492.6206,-311.5256 1492.6206,-266.9306 1492.6206,-229.5 1492.6206,-229.5 1492.6206,-229.5 1492.6206,-174.5 1492.6206,-142.4037 1487.0946,-105.4013 1483.2483,-83.5335"/>
            <polygon fill="#191970" stroke="#191970"
                     points="1486.6706,-82.7907 1481.4282,-73.5837 1479.7849,-84.0503 1486.6706,-82.7907"/>
        </g>
        <!-- Node12&#45;&gt;Node1 -->
        <g id="edge18" class="edge">
            <title>Node12&#45;&gt;Node1</title>
            <path fill="none" stroke="#191970"
                  d="M740.3006,-283.6298C623.1872,-281.1704 334.6119,-272.1159 83.4946,-238.9218"/>
            <polygon fill="#191970" stroke="#191970"
                     points="83.8264,-235.4351 73.4506,-237.5785 82.8983,-242.3733 83.8264,-235.4351"/>
        </g>
        <!-- Node12&#45;&gt;Node4 -->
        <g id="edge20" class="edge">
            <title>Node12&#45;&gt;Node4</title>
            <path fill="none" stroke="#191970"
                  d="M740.3812,-282.9228C634.63,-279.2838 390.5152,-268.361 175.9022,-239.0032"/>
            <polygon fill="#191970" stroke="#191970"
                     points="176.0911,-235.496 165.7055,-237.5912 175.1309,-242.4298 176.0911,-235.496"/>
        </g>
        <!-- Node12&#45;&gt;Node5 -->
        <g id="edge19" class="edge">
            <title>Node12&#45;&gt;Node5</title>
            <path fill="none" stroke="#191970"
                  d="M740.4871,-281.5313C648.1934,-276.0037 452.1216,-262.6232 276.0051,-238.9167"/>
            <polygon fill="#191970" stroke="#191970"
                     points="276.4192,-235.4409 266.0386,-237.5611 275.4757,-242.377 276.4192,-235.4409"/>
        </g>
        <!-- Node12&#45;&gt;Node6 -->
        <g id="edge21" class="edge">
            <title>Node12&#45;&gt;Node6</title>
            <path fill="none" stroke="#191970"
                  d="M740.3528,-279.5883C664.2335,-272.3422 519.7355,-257.7456 387.0392,-239.1347"/>
            <polygon fill="#191970" stroke="#191970"
                     points="387.4919,-235.664 377.1005,-237.73 386.5122,-242.5951 387.4919,-235.664"/>
        </g>
        <!-- Node13 -->
        <g id="node14" class="node">
            <title>Node13</title>
            <polygon fill="none" stroke="#bfbfbf"
                     points="1148.4854,-220.5 1148.4854,-238.5 1246.7559,-238.5 1246.7559,-220.5 1148.4854,-220.5"/>
            <text text-anchor="middle" x="1197.6206" y="-226.5" font-family="Helvetica,sans-Serif" font-size="10.00"
                  fill="#000000">gtkmm/expander.h
            </text>
        </g>
        <!-- Node12&#45;&gt;Node13 -->
        <g id="edge13" class="edge">
            <title>Node12&#45;&gt;Node13</title>
            <path fill="none" stroke="#191970"
                  d="M846.7441,-278.0432C912.6652,-269.9132 1028.7804,-255.2083 1138.0629,-239.1946"/>
            <polygon fill="#191970" stroke="#191970"
                     points="1138.8925,-242.6103 1148.2762,-237.6911 1137.873,-235.6849 1138.8925,-242.6103"/>
        </g>
        <!-- Node14 -->
        <g id="node15" class="node">
            <title>Node14</title>
            <polygon fill="none" stroke="#bfbfbf"
                     points="1264.4312,-220.5 1264.4312,-238.5 1388.8101,-238.5 1388.8101,-220.5 1264.4312,-220.5"/>
            <text text-anchor="middle" x="1326.6206" y="-226.5" font-family="Helvetica,sans-Serif" font-size="10.00"
                  fill="#000000">gtkmm/scrolledwindow.h
            </text>
        </g>
        <!-- Node12&#45;&gt;Node14 -->
        <g id="edge14" class="edge">
            <title>Node12&#45;&gt;Node14</title>
            <path fill="none" stroke="#191970"
                  d="M846.6905,-279.8792C930.8221,-272.4205 1100.2322,-256.8605 1254.181,-239.1345"/>
            <polygon fill="#191970" stroke="#191970"
                     points="1254.7665,-242.5902 1264.2979,-237.9639 1253.9618,-235.6366 1254.7665,-242.5902"/>
        </g>
        <!-- Node15 -->
        <g id="node16" class="node">
            <title>Node15</title>
            <polygon fill="none" stroke="#bfbfbf"
                     points="395.0986,-220.5 395.0986,-238.5 506.1426,-238.5 506.1426,-220.5 395.0986,-220.5"/>
            <text text-anchor="middle" x="450.6206" y="-226.5" font-family="Helvetica,sans-Serif" font-size="10.00"
                  fill="#000000">gtkmm/checkbutton.h
            </text>
        </g>
        <!-- Node12&#45;&gt;Node15 -->
        <g id="edge15" class="edge">
            <title>Node12&#45;&gt;Node15</title>
            <path fill="none" stroke="#191970"
                  d="M740.4032,-275.9666C680.0319,-266.2861 581.5334,-250.4918 516.3971,-240.0472"/>
            <polygon fill="#191970" stroke="#191970"
                     points="516.6685,-236.5461 506.2405,-238.4186 515.5602,-243.4578 516.6685,-236.5461"/>
        </g>
        <!-- Node16 -->
        <g id="node17" class="node">
            <title>Node16</title>
            <polygon fill="none" stroke="#bfbfbf"
                     points="523.7168,-220.5 523.7168,-238.5 617.5244,-238.5 617.5244,-220.5 523.7168,-220.5"/>
            <text text-anchor="middle" x="570.6206" y="-226.5" font-family="Helvetica,sans-Serif" font-size="10.00"
                  fill="#000000">gtkmm/treeview.h
            </text>
        </g>
        <!-- Node12&#45;&gt;Node16 -->
        <g id="edge16" class="edge">
            <title>Node12&#45;&gt;Node16</title>
            <path fill="none" stroke="#191970"
                  d="M756.7967,-275.4179C718.5114,-265.9753 658.4868,-251.171 616.9921,-240.9369"/>
            <polygon fill="#191970" stroke="#191970"
                     points="617.6758,-237.5007 607.1286,-238.5042 615.9995,-244.2971 617.6758,-237.5007"/>
        </g>
        <!-- Node17 -->
        <g id="node18" class="node">
            <title>Node17</title>
            <polygon fill="none" stroke="#bfbfbf"
                     points="635.835,-220.5 635.835,-238.5 727.4063,-238.5 727.4063,-220.5 635.835,-220.5"/>
            <text text-anchor="middle" x="681.6206" y="-226.5" font-family="Helvetica,sans-Serif" font-size="10.00"
                  fill="#000000">gtkmm/liststore.h
            </text>
        </g>
        <!-- Node12&#45;&gt;Node17 -->
        <g id="edge17" class="edge">
            <title>Node12&#45;&gt;Node17</title>
            <path fill="none" stroke="#191970"
                  d="M775.1261,-275.4179C757.2114,-266.6205 729.8195,-253.1691 709.3062,-243.0956"/>
            <polygon fill="#191970" stroke="#191970"
                     points="710.6615,-239.8619 700.1426,-238.5956 707.5759,-246.1452 710.6615,-239.8619"/>
        </g>
        <!-- Node18 -->
        <g id="node19" class="node">
            <title>Node18</title>
            <polygon fill="none" stroke="#bfbfbf"
                     points="745.877,-220.5 745.877,-238.5 841.3643,-238.5 841.3643,-220.5 745.877,-220.5"/>
            <text text-anchor="middle" x="793.6206" y="-226.5" font-family="Helvetica,sans-Serif" font-size="10.00"
                  fill="#000000">gtkmm/hvpaned.h
            </text>
        </g>
        <!-- Node12&#45;&gt;Node18 -->
        <g id="edge22" class="edge">
            <title>Node12&#45;&gt;Node18</title>
            <path fill="none" stroke="#191970"
                  d="M793.6206,-275.4179C793.6206,-268.2164 793.6206,-257.8962 793.6206,-248.8632"/>
            <polygon fill="#191970" stroke="#191970"
                     points="797.1207,-248.7794 793.6206,-238.7795 790.1207,-248.7795 797.1207,-248.7794"/>
        </g>
        <!-- Node19 -->
        <g id="node20" class="node">
            <title>Node19</title>
            <polygon fill="none" stroke="#bfbfbf"
                     points="859.106,-220.5 859.106,-238.5 960.1353,-238.5 960.1353,-220.5 859.106,-220.5"/>
            <text text-anchor="middle" x="909.6206" y="-226.5" font-family="Helvetica,sans-Serif" font-size="10.00"
                  fill="#000000">gtkmm/listboxrow.h
            </text>
        </g>
        <!-- Node12&#45;&gt;Node19 -->
        <g id="edge23" class="edge">
            <title>Node12&#45;&gt;Node19</title>
            <path fill="none" stroke="#191970"
                  d="M812.7756,-275.4179C831.4141,-266.5807 859.9573,-253.0473 881.2342,-242.9591"/>
            <polygon fill="#191970" stroke="#191970"
                     points="882.9008,-246.0424 890.4371,-238.5956 879.9018,-239.7174 882.9008,-246.0424"/>
        </g>
        <!-- Node20 -->
        <g id="node21" class="node">
            <title>Node20</title>
            <g id="a_node21">
                <a xlink:href="../../de/d01/_prescription_8hpp.html" target="_top"
                   xlink:title="../../model/Prescription.hpp">
                    <polygon fill="none" stroke="#000000"
                             points="764.1479,-165.5 764.1479,-183.5 899.0933,-183.5 899.0933,-165.5 764.1479,-165.5"/>
                    <text text-anchor="middle" x="831.6206" y="-171.5" font-family="Helvetica,sans-Serif"
                          font-size="10.00" fill="#000000">../../model/Prescription.hpp
                    </text>
                </a>
            </g>
        </g>
        <!-- Node12&#45;&gt;Node20 -->
        <g id="edge24" class="edge">
            <title>Node12&#45;&gt;Node20</title>
            <path fill="none" stroke="#191970"
                  d="M846.7514,-277.939C892.8877,-271.0208 954.5972,-258.4013 969.6206,-239 991.5521,-210.6777 951.6433,-194.2695 909.1938,-185.0966"/>
            <polygon fill="#191970" stroke="#191970"
                     points="909.7518,-181.6386 899.2558,-183.0826 908.3614,-188.4992 909.7518,-181.6386"/>
        </g>
        <!-- Node28 -->
        <g id="node29" class="node">
            <title>Node28</title>
            <g id="a_node29">
                <a xlink:href="../../d8/d63/_date_8hpp.html" target="_top" xlink:title="../../utils/Date.hpp">
                    <polygon fill="none" stroke="#000000"
                             points="1332.7119,-165.5 1332.7119,-183.5 1426.5293,-183.5 1426.5293,-165.5 1332.7119,-165.5"/>
                    <text text-anchor="middle" x="1379.6206" y="-171.5" font-family="Helvetica,sans-Serif"
                          font-size="10.00" fill="#000000">../../utils/Date.hpp
                    </text>
                </a>
            </g>
        </g>
        <!-- Node12&#45;&gt;Node28 -->
        <g id="edge41" class="edge">
            <title>Node12&#45;&gt;Node28</title>
            <path fill="none" stroke="#191970"
                  d="M846.8798,-282.4363C990.9828,-276.5965 1379.0055,-259.0702 1397.6206,-239 1409.4238,-226.2742 1401.338,-206.4543 1392.5469,-192.143"/>
            <polygon fill="#191970" stroke="#191970"
                     points="1395.3418,-190.0262 1386.87,-183.6638 1389.525,-193.9206 1395.3418,-190.0262"/>
        </g>
        <!-- Node29 -->
        <g id="node30" class="node">
            <title>Node29</title>
            <g id="a_node30">
                <a xlink:href="../../d0/da9/_patient_8hpp.html" target="_top" xlink:title="../../model/Patient.hpp">
                    <polygon fill="none" stroke="#000000"
                             points="1016.9805,-220.5 1016.9805,-238.5 1130.2607,-238.5 1130.2607,-220.5 1016.9805,-220.5"/>
                    <text text-anchor="middle" x="1073.6206" y="-226.5" font-family="Helvetica,sans-Serif"
                          font-size="10.00" fill="#000000">../../model/Patient.hpp
                    </text>
                </a>
            </g>
        </g>
        <!-- Node12&#45;&gt;Node29 -->
        <g id="edge43" class="edge">
            <title>Node12&#45;&gt;Node29</title>
            <path fill="none" stroke="#191970"
                  d="M839.5434,-275.4795C888.2692,-265.9083 965.2926,-250.7787 1017.5642,-240.5111"/>
            <polygon fill="#191970" stroke="#191970"
                     points="1018.5349,-243.8874 1027.6728,-238.5255 1017.1856,-237.0186 1018.5349,-243.8874"/>
        </g>
        <!-- Node21 -->
        <g id="node22" class="node">
            <title>Node21</title>
            <polygon fill="none" stroke="#bfbfbf"
                     points="1114.0049,-.5 1114.0049,-18.5 1157.2363,-18.5 1157.2363,-.5 1114.0049,-.5"/>
            <text text-anchor="middle" x="1135.6206" y="-6.5" font-family="Helvetica,sans-Serif" font-size="10.00"
                  fill="#000000">vector
            </text>
        </g>
        <!-- Node20&#45;&gt;Node21 -->
        <g id="edge25" class="edge">
            <title>Node20&#45;&gt;Node21</title>
            <path fill="none" stroke="#191970"
                  d="M798.5967,-165.4629C738.8685,-147.6062 623.1152,-105.1545 668.6206,-55 697.8327,-22.8035 1003.0527,-12.6644 1103.6566,-10.1842"/>
            <polygon fill="#191970" stroke="#191970"
                     points="1103.9015,-13.6795 1113.8156,-9.9429 1103.7353,-6.6815 1103.9015,-13.6795"/>
        </g>
        <!-- Node22 -->
        <g id="node23" class="node">
            <title>Node22</title>
            <polygon fill="none" stroke="#bfbfbf"
                     points="1253.394,-.5 1253.394,-18.5 1293.8472,-18.5 1293.8472,-.5 1253.394,-.5"/>
            <text text-anchor="middle" x="1273.6206" y="-6.5" font-family="Helvetica,sans-Serif" font-size="10.00"
                  fill="#000000">string
            </text>
        </g>
        <!-- Node20&#45;&gt;Node22 -->
        <g id="edge26" class="edge">
            <title>Node20&#45;&gt;Node22</title>
            <path fill="none" stroke="#191970"
                  d="M899.3156,-170.1575C980.7515,-162.0985 1118.71,-139.1563 1216.6206,-74 1235.1946,-61.6396 1251.4906,-41.759 1261.8484,-27.3334"/>
            <polygon fill="#191970" stroke="#191970"
                     points="1264.9565,-28.9922 1267.7617,-18.7754 1259.1975,-25.0129 1264.9565,-28.9922"/>
        </g>
        <!-- Node23 -->
        <g id="node24" class="node">
            <title>Node23</title>
            <polygon fill="none" stroke="#bfbfbf"
                     points="821.894,-.5 821.894,-18.5 857.3472,-18.5 857.3472,-.5 821.894,-.5"/>
            <text text-anchor="middle" x="839.6206" y="-6.5" font-family="Helvetica,sans-Serif" font-size="10.00"
                  fill="#000000">map
            </text>
        </g>
        <!-- Node20&#45;&gt;Node23 -->
        <g id="edge27" class="edge">
            <title>Node20&#45;&gt;Node23</title>
            <path fill="none" stroke="#191970"
                  d="M763.9669,-167.7119C713.8476,-161.122 651.5918,-149.1035 635.6206,-129 615.1624,-103.2485 615.0511,-80.6627 635.6206,-55 657.3453,-27.896 760.672,-15.8841 811.3965,-11.5499"/>
            <polygon fill="#191970" stroke="#191970"
                     points="811.9756,-15.0145 821.6596,-10.7169 811.4092,-8.0374 811.9756,-15.0145"/>
        </g>
        <!-- Node24 -->
        <g id="node25" class="node">
            <title>Node24</title>
            <polygon fill="none" stroke="#bfbfbf"
                     points="677.7095,-55.5 677.7095,-73.5 811.5317,-73.5 811.5317,-55.5 677.7095,-55.5"/>
            <text text-anchor="middle" x="744.6206" y="-61.5" font-family="Helvetica,sans-Serif" font-size="10.00"
                  fill="#000000">gtkmm/treemodelcolumn.h
            </text>
        </g>
        <!-- Node20&#45;&gt;Node24 -->
        <g id="edge28" class="edge">
            <title>Node20&#45;&gt;Node24</title>
            <path fill="none" stroke="#191970"
                  d="M824.501,-165.4982C810.035,-147.2079 776.9928,-105.4304 758.2523,-81.7354"/>
            <polygon fill="#191970" stroke="#191970"
                     points="760.7871,-79.2983 751.8386,-73.6261 755.2968,-83.6407 760.7871,-79.2983"/>
        </g>
        <!-- Node25 -->
        <g id="node26" class="node">
            <title>Node25</title>
            <g id="a_node26">
                <a xlink:href="../../d3/d1b/_i_serializable_8hpp.html" target="_top"
                   xlink:title="../interfaces/ISerializable.hpp">
                    <polygon fill="none" stroke="#000000"
                             points="1063.4189,-55.5 1063.4189,-73.5 1207.8223,-73.5 1207.8223,-55.5 1063.4189,-55.5"/>
                    <text text-anchor="middle" x="1135.6206" y="-61.5" font-family="Helvetica,sans-Serif"
                          font-size="10.00" fill="#000000">../interfaces/ISerializable.hpp
                    </text>
                </a>
            </g>
        </g>
        <!-- Node20&#45;&gt;Node25 -->
        <g id="edge29" class="edge">
            <title>Node20&#45;&gt;Node25</title>
            <path fill="none" stroke="#191970"
                  d="M886.9135,-165.4956C925.5046,-158.1974 977.7493,-146.2672 1021.6206,-129 1055.6542,-115.6048 1091.9225,-93.581 1114.1831,-79.0585"/>
            <polygon fill="#191970" stroke="#191970"
                     points="1116.1364,-81.9629 1122.544,-73.5253 1112.2732,-76.1255 1116.1364,-81.9629"/>
        </g>
        <!-- Node26 -->
        <g id="node27" class="node">
            <title>Node26</title>
            <g id="a_node27">
                <a xlink:href="../../dd/df9/_drug_8hpp.html" target="_top" xlink:title="Drug.hpp">
                    <polygon fill="none" stroke="#000000"
                             points="955.0518,-110.5 955.0518,-128.5 1012.1895,-128.5 1012.1895,-110.5 955.0518,-110.5"/>
                    <text text-anchor="middle" x="983.6206" y="-116.5" font-family="Helvetica,sans-Serif"
                          font-size="10.00" fill="#000000">Drug.hpp
                    </text>
                </a>
            </g>
        </g>
        <!-- Node20&#45;&gt;Node26 -->
        <g id="edge33" class="edge">
            <title>Node20&#45;&gt;Node26</title>
            <path fill="none" stroke="#191970"
                  d="M856.7203,-165.4179C881.9886,-156.2748 921.1497,-142.1046 949.2851,-131.924"/>
            <polygon fill="#191970" stroke="#191970"
                     points="950.5238,-135.198 958.7362,-128.5042 948.142,-128.6156 950.5238,-135.198"/>
        </g>
        <!-- Node25&#45;&gt;Node21 -->
        <g id="edge32" class="edge">
            <title>Node25&#45;&gt;Node21</title>
            <path fill="none" stroke="#191970"
                  d="M1135.6206,-55.4179C1135.6206,-48.2164 1135.6206,-37.8962 1135.6206,-28.8632"/>
            <polygon fill="#191970" stroke="#191970"
                     points="1139.1207,-28.7794 1135.6206,-18.7795 1132.1207,-28.7795 1139.1207,-28.7794"/>
        </g>
        <!-- Node25&#45;&gt;Node22 -->
        <g id="edge30" class="edge">
            <title>Node25&#45;&gt;Node22</title>
            <path fill="none" stroke="#191970"
                  d="M1158.4085,-55.4179C1181.6571,-46.1521 1217.8597,-31.7236 1243.47,-21.5165"/>
            <polygon fill="#191970" stroke="#191970"
                     points="1245.0602,-24.6506 1253.0538,-17.6969 1242.4686,-18.148 1245.0602,-24.6506"/>
        </g>
        <!-- Node25&#45;&gt;Node23 -->
        <g id="edge31" class="edge">
            <title>Node25&#45;&gt;Node23</title>
            <path fill="none" stroke="#191970"
                  d="M1087.0737,-55.4795C1024.4472,-43.8428 917.6012,-23.9896 867.3241,-14.6476"/>
            <polygon fill="#191970" stroke="#191970"
                     points="867.9615,-11.2062 857.4904,-12.8204 866.6827,-18.0884 867.9615,-11.2062"/>
        </g>
        <!-- Node26&#45;&gt;Node7 -->
        <g id="edge39" class="edge">
            <title>Node26&#45;&gt;Node7</title>
            <path fill="none" stroke="#191970"
                  d="M1012.2008,-115.5002C1081.8731,-105.7496 1260.4854,-80.753 1338.8297,-69.7888"/>
            <polygon fill="#191970" stroke="#191970"
                     points="1339.7789,-73.1902 1349.1972,-68.3379 1338.8086,-66.2577 1339.7789,-73.1902"/>
        </g>
        <!-- Node26&#45;&gt;Node21 -->
        <g id="edge35" class="edge">
            <title>Node26&#45;&gt;Node21</title>
            <path fill="none" stroke="#191970"
                  d="M955.0069,-111.2713C922.3626,-100.4666 876.0017,-79.9146 896.6206,-55 922.5428,-23.6772 1044.6402,-13.7333 1103.6011,-10.7278"/>
            <polygon fill="#191970" stroke="#191970"
                     points="1104.0148,-14.2122 1113.8383,-10.2437 1103.6841,-7.22 1104.0148,-14.2122"/>
        </g>
        <!-- Node26&#45;&gt;Node22 -->
        <g id="edge34" class="edge">
            <title>Node26&#45;&gt;Node22</title>
            <path fill="none" stroke="#191970"
                  d="M990.8309,-110.3644C1002.5837,-96.1446 1027.3171,-68.909 1054.6206,-55 1116.6347,-23.4087 1199.1552,-13.7502 1243.0749,-10.7983"/>
            <polygon fill="#191970" stroke="#191970"
                     points="1243.3457,-14.2885 1253.1184,-10.1964 1242.9269,-7.301 1243.3457,-14.2885"/>
        </g>
        <!-- Node26&#45;&gt;Node23 -->
        <g id="edge36" class="edge">
            <title>Node26&#45;&gt;Node23</title>
            <path fill="none" stroke="#191970"
                  d="M954.9491,-111.6105C923.8055,-102.5379 876.735,-87.196 863.6206,-74 851.5254,-61.8296 845.4478,-43.0161 842.4426,-28.8427"/>
            <polygon fill="#191970" stroke="#191970"
                     points="845.8331,-27.9182 840.6349,-18.6862 838.9415,-29.1448 845.8331,-27.9182"/>
        </g>
        <!-- Node26&#45;&gt;Node24 -->
        <g id="edge37" class="edge">
            <title>Node26&#45;&gt;Node24</title>
            <path fill="none" stroke="#191970"
                  d="M954.7916,-112.8657C914.9189,-103.69 842.3747,-86.9957 793.8341,-75.8253"/>
            <polygon fill="#191970" stroke="#191970"
                     points="794.391,-72.362 783.8607,-73.5302 792.8211,-79.1837 794.391,-72.362"/>
        </g>
        <!-- Node26&#45;&gt;Node25 -->
        <g id="edge40" class="edge">
            <title>Node26&#45;&gt;Node25</title>
            <path fill="none" stroke="#191970"
                  d="M1008.7203,-110.4179C1033.9886,-101.2748 1073.1497,-87.1046 1101.2851,-76.924"/>
            <polygon fill="#191970" stroke="#191970"
                     points="1102.5238,-80.198 1110.7362,-73.5042 1100.142,-73.6156 1102.5238,-80.198"/>
        </g>
        <!-- Node27 -->
        <g id="node28" class="node">
            <title>Node27</title>
            <polygon fill="none" stroke="#bfbfbf"
                     points="905.8276,-55.5 905.8276,-73.5 1007.4136,-73.5 1007.4136,-55.5 905.8276,-55.5"/>
            <text text-anchor="middle" x="956.6206" y="-61.5" font-family="Helvetica,sans-Serif" font-size="10.00"
                  fill="#000000">gtkmm/treemodel.h
            </text>
        </g>
        <!-- Node26&#45;&gt;Node27 -->
        <g id="edge38" class="edge">
            <title>Node26&#45;&gt;Node27</title>
            <path fill="none" stroke="#191970"
                  d="M979.1621,-110.4179C975.5103,-102.9789 970.2248,-92.2123 965.6897,-82.9742"/>
            <polygon fill="#191970" stroke="#191970"
                     points="968.7246,-81.2138 961.176,-73.7795 962.4409,-84.2985 968.7246,-81.2138"/>
        </g>
        <!-- Node28&#45;&gt;Node7 -->
        <g id="edge42" class="edge">
            <title>Node28&#45;&gt;Node7</title>
            <path fill="none" stroke="#191970"
                  d="M1379.3751,-165.4982C1378.8895,-147.6913 1377.7967,-107.6225 1377.1429,-83.6515"/>
            <polygon fill="#191970" stroke="#191970"
                     points="1380.6409,-83.527 1376.8695,-73.6261 1373.6435,-83.7179 1380.6409,-83.527"/>
        </g>
        <!-- Node29&#45;&gt;Node20 -->
        <g id="edge48" class="edge">
            <title>Node29&#45;&gt;Node20</title>
            <path fill="none" stroke="#191970"
                  d="M1033.9302,-220.4795C992.1681,-210.9881 926.3547,-196.0305 881.2032,-185.7688"/>
            <polygon fill="#191970" stroke="#191970"
                     points="881.8597,-182.3288 871.3327,-183.5255 880.3083,-189.1547 881.8597,-182.3288"/>
        </g>
        <!-- Node29&#45;&gt;Node21 -->
        <g id="edge44" class="edge">
            <title>Node29&#45;&gt;Node21</title>
            <path fill="none" stroke="#191970"
                  d="M1087.3299,-220.2434C1117.6824,-198.8092 1189.9738,-142.3418 1216.6206,-74 1226.9149,-47.598 1193.8167,-29.2541 1166.8633,-19.0556"/>
            <polygon fill="#191970" stroke="#191970"
                     points="1167.8977,-15.7089 1157.3029,-15.6669 1165.5591,-22.3067 1167.8977,-15.7089"/>
        </g>
        <!-- Node29&#45;&gt;Node22 -->
        <g id="edge45" class="edge">
            <title>Node29&#45;&gt;Node22</title>
            <path fill="none" stroke="#191970"
                  d="M1094.9999,-220.3409C1112.5542,-212.2415 1137.5411,-199.3456 1156.6206,-184 1211.2267,-140.0805 1249.7686,-63.7991 1265.6023,-28.4671"/>
            <polygon fill="#191970" stroke="#191970"
                     points="1268.9865,-29.4629 1269.7798,-18.8978 1262.5712,-26.6622 1268.9865,-29.4629"/>
        </g>
        <!-- Node29&#45;&gt;Node24 -->
        <g id="edge46" class="edge">
            <title>Node29&#45;&gt;Node24</title>
            <path fill="none" stroke="#191970"
                  d="M1055.4635,-220.3939C1000.7512,-192.9546 837.2387,-110.9498 771.9687,-78.2156"/>
            <polygon fill="#191970" stroke="#191970"
                     points="773.2295,-74.9325 762.7216,-73.578 770.0914,-81.1897 773.2295,-74.9325"/>
        </g>
        <!-- Node29&#45;&gt;Node25 -->
        <g id="edge47" class="edge">
            <title>Node29&#45;&gt;Node25</title>
            <path fill="none" stroke="#191970"
                  d="M1077.1316,-220.1561C1087.0213,-193.837 1115.2512,-118.709 1128.5404,-83.3426"/>
            <polygon fill="#191970" stroke="#191970"
                     points="1131.9069,-84.3335 1132.1481,-73.7414 1125.3542,-81.8712 1131.9069,-84.3335"/>
        </g>
        <!-- Node30&#45;&gt;Node21 -->
        <g id="edge52" class="edge">
            <title>Node30&#45;&gt;Node21</title>
            <path fill="none" stroke="#191970"
                  d="M1423.2012,-55.4795C1350.3483,-43.8315 1226.0054,-23.951 1167.6464,-14.6204"/>
            <polygon fill="#191970" stroke="#191970"
                     points="1167.9718,-11.1281 1157.5446,-13.0053 1166.8666,-18.0403 1167.9718,-11.1281"/>
        </g>
        <!-- Node30&#45;&gt;Node22 -->
        <g id="edge50" class="edge">
            <title>Node30&#45;&gt;Node22</title>
            <path fill="none" stroke="#191970"
                  d="M1445.6039,-55.4179C1406.1194,-44.8759 1341.6044,-27.651 1303.8231,-17.5638"/>
            <polygon fill="#191970" stroke="#191970"
                     points="1304.4832,-14.1175 1293.9187,-14.9194 1302.6774,-20.8806 1304.4832,-14.1175"/>
        </g>
        <!-- Node31 -->
        <g id="node32" class="node">
            <title>Node31</title>
            <polygon fill="none" stroke="#bfbfbf"
                     points="1419.8398,-.5 1419.8398,-18.5 1471.4014,-18.5 1471.4014,-.5 1419.8398,-.5"/>
            <text text-anchor="middle" x="1445.6206" y="-6.5" font-family="Helvetica,sans-Serif" font-size="10.00"
                  fill="#000000">sstream
            </text>
        </g>
        <!-- Node30&#45;&gt;Node31 -->
        <g id="edge51" class="edge">
            <title>Node30&#45;&gt;Node31</title>
            <path fill="none" stroke="#191970"
                  d="M1474.0062,-55.4179C1469.3097,-47.8207 1462.4677,-36.7527 1456.6778,-27.3866"/>
            <polygon fill="#191970" stroke="#191970"
                     points="1459.5924,-25.445 1451.357,-18.7795 1453.6382,-29.1258 1459.5924,-25.445"/>
        </g>
        <!-- Node32 -->
        <g id="node33" class="node">
            <title>Node32</title>
            <polygon fill="none" stroke="#bfbfbf"
                     points="1489.0591,-.5 1489.0591,-18.5 1536.1821,-18.5 1536.1821,-.5 1489.0591,-.5"/>
            <text text-anchor="middle" x="1512.6206" y="-6.5" font-family="Helvetica,sans-Serif" font-size="10.00"
                  fill="#000000">iterator
            </text>
        </g>
        <!-- Node30&#45;&gt;Node32 -->
        <g id="edge53" class="edge">
            <title>Node30&#45;&gt;Node32</title>
            <path fill="none" stroke="#191970"
                  d="M1485.0699,-55.4179C1489.6282,-47.8207 1496.269,-36.7527 1501.8886,-27.3866"/>
            <polygon fill="#191970" stroke="#191970"
                     points="1504.9092,-29.1552 1507.0529,-18.7795 1498.9067,-25.5536 1504.9092,-29.1552"/>
        </g>
    </g>
</svg>
