<?xml version="1.0" encoding="UTF-8" standalone="no"?>
<!DOCTYPE svg PUBLIC "-//W3C//DTD SVG 1.1//EN"
        "http://www.w3.org/Graphics/SVG/1.1/DTD/svg11.dtd">
<!-- Generated by graphviz version 2.40.1 (20161225.0304)
 -->
<!-- Title: code/gui/view/CustomWidgets.cpp Pages: 1 -->
<svg width="1260pt" height="302pt"
     viewBox="0.00 0.00 1260.41 302.00" xmlns="http://www.w3.org/2000/svg" xmlns:xlink="http://www.w3.org/1999/xlink">
    <g id="graph0" class="graph" transform="scale(1 1) rotate(0) translate(4 298)">
        <title>code/gui/view/CustomWidgets.cpp</title>
        <!-- Node0 -->
        <g id="node1" class="node">
            <title>Node0</title>
            <polygon fill="#bfbfbf" stroke="#000000"
                     points="246.1973,-275.5 246.1973,-293.5 415.0439,-293.5 415.0439,-275.5 246.1973,-275.5"/>
            <text text-anchor="middle" x="330.6206" y="-281.5" font-family="Helvetica,sans-Serif" font-size="10.00"
                  fill="#000000">code/gui/view/CustomWidgets.cpp
            </text>
        </g>
        <!-- Node1 -->
        <g id="node2" class="node">
            <title>Node1</title>
            <polygon fill="none" stroke="#bfbfbf" points="0,-165.5 0,-183.5 73.2412,-183.5 73.2412,-165.5 0,-165.5"/>
            <text text-anchor="middle" x="36.6206" y="-171.5" font-family="Helvetica,sans-Serif" font-size="10.00"
                  fill="#000000">gtkmm/box.h
            </text>
        </g>
        <!-- Node0&#45;&gt;Node1 -->
        <g id="edge1" class="edge">
            <title>Node0&#45;&gt;Node1</title>
            <path fill="none" stroke="#191970"
                  d="M306.5614,-275.4982C254.3382,-255.959 130.475,-209.6156 70.4247,-187.1478"/>
            <polygon fill="#191970" stroke="#191970"
                     points="71.6047,-183.8524 61.0123,-183.6261 69.1517,-190.4085 71.6047,-183.8524"/>
        </g>
        <!-- Node2 -->
        <g id="node3" class="node">
            <title>Node2</title>
            <polygon fill="none" stroke="#bfbfbf"
                     points="497.4976,-220.5 497.4976,-238.5 575.7437,-238.5 575.7437,-220.5 497.4976,-220.5"/>
            <text text-anchor="middle" x="536.6206" y="-226.5" font-family="Helvetica,sans-Serif" font-size="10.00"
                  fill="#000000">gtkmm/label.h
            </text>
        </g>
        <!-- Node0&#45;&gt;Node2 -->
        <g id="edge2" class="edge">
            <title>Node0&#45;&gt;Node2</title>
            <path fill="none" stroke="#191970"
                  d="M364.6373,-275.4179C399.7797,-266.0352 454.7502,-251.3586 493.0528,-241.1322"/>
            <polygon fill="#191970" stroke="#191970"
                     points="494.137,-244.4654 502.8957,-238.5042 492.3313,-237.7023 494.137,-244.4654"/>
        </g>
        <!-- Node3 -->
        <g id="node4" class="node">
            <title>Node3</title>
            <polygon fill="none" stroke="#bfbfbf"
                     points="594.1602,-220.5 594.1602,-238.5 679.0811,-238.5 679.0811,-220.5 594.1602,-220.5"/>
            <text text-anchor="middle" x="636.6206" y="-226.5" font-family="Helvetica,sans-Serif" font-size="10.00"
                  fill="#000000">gtkmm/button.h
            </text>
        </g>
        <!-- Node0&#45;&gt;Node3 -->
        <g id="edge3" class="edge">
            <title>Node0&#45;&gt;Node3</title>
            <path fill="none" stroke="#191970"
                  d="M381.2314,-275.4868C430.3987,-266.7188 507.4454,-252.9476 584.2098,-239.0695"/>
            <polygon fill="#191970" stroke="#191970"
                     points="584.8383,-242.5127 594.0556,-237.2886 583.5923,-235.6245 584.8383,-242.5127"/>
        </g>
        <!-- Node4 -->
        <g id="node5" class="node">
            <title>Node4</title>
            <polygon fill="none" stroke="#bfbfbf"
                     points="91.7241,-165.5 91.7241,-183.5 165.5171,-183.5 165.5171,-165.5 91.7241,-165.5"/>
            <text text-anchor="middle" x="128.6206" y="-171.5" font-family="Helvetica,sans-Serif" font-size="10.00"
                  fill="#000000">gtkmm/grid.h
            </text>
        </g>
        <!-- Node0&#45;&gt;Node4 -->
        <g id="edge4" class="edge">
            <title>Node0&#45;&gt;Node4</title>
            <path fill="none" stroke="#191970"
                  d="M314.0901,-275.4982C278.8748,-256.3216 196.2471,-211.3263 154.1881,-188.4229"/>
            <polygon fill="#191970" stroke="#191970"
                     points="155.8357,-185.3348 145.3795,-183.6261 152.4879,-191.4824 155.8357,-185.3348"/>
        </g>
        <!-- Node5 -->
        <g id="node6" class="node">
            <title>Node5</title>
            <polygon fill="none" stroke="#bfbfbf"
                     points="183.2808,-165.5 183.2808,-183.5 265.9604,-183.5 265.9604,-165.5 183.2808,-165.5"/>
            <text text-anchor="middle" x="224.6206" y="-171.5" font-family="Helvetica,sans-Serif" font-size="10.00"
                  fill="#000000">gtkmm/frame.h
            </text>
        </g>
        <!-- Node0&#45;&gt;Node5 -->
        <g id="edge5" class="edge">
            <title>Node0&#45;&gt;Node5</title>
            <path fill="none" stroke="#191970"
                  d="M321.9462,-275.4982C304.1656,-257.0467 263.3515,-214.6924 240.6299,-191.1134"/>
            <polygon fill="#191970" stroke="#191970"
                     points="242.8741,-188.3983 233.4149,-183.6261 237.8336,-193.2556 242.8741,-188.3983"/>
        </g>
        <!-- Node6 -->
        <g id="node7" class="node">
            <title>Node6</title>
            <polygon fill="none" stroke="#bfbfbf"
                     points="284.2734,-165.5 284.2734,-183.5 376.9678,-183.5 376.9678,-165.5 284.2734,-165.5"/>
            <text text-anchor="middle" x="330.6206" y="-171.5" font-family="Helvetica,sans-Serif" font-size="10.00"
                  fill="#000000">gtkmm/textview.h
            </text>
        </g>
        <!-- Node0&#45;&gt;Node6 -->
        <g id="edge6" class="edge">
            <title>Node0&#45;&gt;Node6</title>
            <path fill="none" stroke="#191970"
                  d="M330.6206,-275.4982C330.6206,-257.6913 330.6206,-217.6225 330.6206,-193.6515"/>
            <polygon fill="#191970" stroke="#191970"
                     points="334.1207,-193.6261 330.6206,-183.6261 327.1207,-193.6262 334.1207,-193.6261"/>
        </g>
        <!-- Node7 -->
        <g id="node8" class="node">
            <title>Node7</title>
            <g id="a_node8">
                <a xlink:href="../../d5/d46/_custom_widgets_8hpp.html" target="_top" xlink:title="CustomWidgets.hpp">
                    <polygon fill="none" stroke="#000000"
                             points="373.6011,-220.5 373.6011,-238.5 479.6401,-238.5 479.6401,-220.5 373.6011,-220.5"/>
                    <text text-anchor="middle" x="426.6206" y="-226.5" font-family="Helvetica,sans-Serif"
                          font-size="10.00" fill="#000000">CustomWidgets.hpp
                    </text>
                </a>
            </g>
        </g>
        <!-- Node0&#45;&gt;Node7 -->
        <g id="edge7" class="edge">
            <title>Node0&#45;&gt;Node7</title>
            <path fill="none" stroke="#191970"
                  d="M346.4731,-275.4179C361.4811,-266.8195 384.249,-253.7754 401.6878,-243.7844"/>
            <polygon fill="#191970" stroke="#191970"
                     points="403.8076,-246.6037 410.7446,-238.5956 400.3278,-240.5299 403.8076,-246.6037"/>
        </g>
        <!-- Node7&#45;&gt;Node1 -->
        <g id="edge13" class="edge">
            <title>Node7&#45;&gt;Node1</title>
            <path fill="none" stroke="#191970"
                  d="M373.4046,-223.668C307.7036,-216.1995 192.3346,-202.213 83.6426,-184.0685"/>
            <polygon fill="#191970" stroke="#191970"
                     points="83.9267,-180.5671 73.4842,-182.3571 82.7638,-187.4699 83.9267,-180.5671"/>
        </g>
        <!-- Node7&#45;&gt;Node4 -->
        <g id="edge15" class="edge">
            <title>Node7&#45;&gt;Node4</title>
            <path fill="none" stroke="#191970"
                  d="M374.4252,-220.4685C325.6046,-211.9323 250.3911,-198.5558 175.8022,-184.1937"/>
            <polygon fill="#191970" stroke="#191970"
                     points="176.2441,-180.7144 165.7617,-182.2536 174.916,-187.5873 176.2441,-180.7144"/>
        </g>
        <!-- Node7&#45;&gt;Node5 -->
        <g id="edge14" class="edge">
            <title>Node7&#45;&gt;Node5</title>
            <path fill="none" stroke="#191970"
                  d="M393.2644,-220.4179C358.8044,-211.0352 304.9013,-196.3586 267.3425,-186.1322"/>
            <polygon fill="#191970" stroke="#191970"
                     points="268.2589,-182.7544 257.6906,-183.5042 266.4198,-189.5085 268.2589,-182.7544"/>
        </g>
        <!-- Node7&#45;&gt;Node6 -->
        <g id="edge16" class="edge">
            <title>Node7&#45;&gt;Node6</title>
            <path fill="none" stroke="#191970"
                  d="M410.7682,-220.4179C395.7602,-211.8195 372.9922,-198.7754 355.5534,-188.7844"/>
            <polygon fill="#191970" stroke="#191970"
                     points="356.9134,-185.5299 346.4966,-183.5956 353.4336,-191.6037 356.9134,-185.5299"/>
        </g>
        <!-- Node8 -->
        <g id="node9" class="node">
            <title>Node8</title>
            <polygon fill="none" stroke="#bfbfbf"
                     points="661.4854,-165.5 661.4854,-183.5 759.7559,-183.5 759.7559,-165.5 661.4854,-165.5"/>
            <text text-anchor="middle" x="710.6206" y="-171.5" font-family="Helvetica,sans-Serif" font-size="10.00"
                  fill="#000000">gtkmm/expander.h
            </text>
        </g>
        <!-- Node7&#45;&gt;Node8 -->
        <g id="edge8" class="edge">
            <title>Node7&#45;&gt;Node8</title>
            <path fill="none" stroke="#191970"
                  d="M473.1994,-220.4795C522.7243,-210.8884 601.0707,-195.7156 654.0944,-185.447"/>
            <polygon fill="#191970" stroke="#191970"
                     points="654.8642,-188.863 664.0164,-183.5255 653.5333,-181.9907 654.8642,-188.863"/>
        </g>
        <!-- Node9 -->
        <g id="node10" class="node">
            <title>Node9</title>
            <polygon fill="none" stroke="#bfbfbf"
                     points="777.4312,-165.5 777.4312,-183.5 901.8101,-183.5 901.8101,-165.5 777.4312,-165.5"/>
            <text text-anchor="middle" x="839.6206" y="-171.5" font-family="Helvetica,sans-Serif" font-size="10.00"
                  fill="#000000">gtkmm/scrolledwindow.h
            </text>
        </g>
        <!-- Node7&#45;&gt;Node9 -->
        <g id="edge9" class="edge">
            <title>Node7&#45;&gt;Node9</title>
            <path fill="none" stroke="#191970"
                  d="M479.708,-221.2793C482.7222,-220.8395 485.7092,-220.4102 488.6206,-220 609.708,-202.9415 642.5656,-200.4404 767.3425,-184.1601"/>
            <polygon fill="#191970" stroke="#191970"
                     points="767.8236,-187.6271 777.2849,-182.8591 766.9153,-180.6862 767.8236,-187.6271"/>
        </g>
        <!-- Node10 -->
        <g id="node11" class="node">
            <title>Node10</title>
            <polygon fill="none" stroke="#bfbfbf"
                     points="920.0986,-165.5 920.0986,-183.5 1031.1426,-183.5 1031.1426,-165.5 920.0986,-165.5"/>
            <text text-anchor="middle" x="975.6206" y="-171.5" font-family="Helvetica,sans-Serif" font-size="10.00"
                  fill="#000000">gtkmm/checkbutton.h
            </text>
        </g>
        <!-- Node7&#45;&gt;Node10 -->
        <g id="edge10" class="edge">
            <title>Node7&#45;&gt;Node10</title>
            <path fill="none" stroke="#191970"
                  d="M479.6886,-221.1297C482.7077,-220.7279 485.7011,-220.3478 488.6206,-220 672.3413,-198.1131 721.9453,-205.3601 910.0419,-183.9968"/>
            <polygon fill="#191970" stroke="#191970"
                     points="910.4445,-187.4737 919.9802,-182.8562 909.6463,-180.5193 910.4445,-187.4737"/>
        </g>
        <!-- Node11 -->
        <g id="node12" class="node">
            <title>Node11</title>
            <polygon fill="none" stroke="#bfbfbf"
                     points="1048.7168,-165.5 1048.7168,-183.5 1142.5244,-183.5 1142.5244,-165.5 1048.7168,-165.5"/>
            <text text-anchor="middle" x="1095.6206" y="-171.5" font-family="Helvetica,sans-Serif" font-size="10.00"
                  fill="#000000">gtkmm/treeview.h
            </text>
        </g>
        <!-- Node7&#45;&gt;Node11 -->
        <g id="edge11" class="edge">
            <title>Node7&#45;&gt;Node11</title>
            <path fill="none" stroke="#191970"
                  d="M479.6806,-221.0596C482.7018,-220.6757 485.6978,-220.3186 488.6206,-220 729.6857,-193.7208 794.7093,-212.4362 1038.3292,-184.1682"/>
            <polygon fill="#191970" stroke="#191970"
                     points="1039.0407,-187.6087 1048.5638,-182.9654 1038.2236,-180.6566 1039.0407,-187.6087"/>
        </g>
        <!-- Node12 -->
        <g id="node13" class="node">
            <title>Node12</title>
            <polygon fill="none" stroke="#bfbfbf"
                     points="1160.835,-165.5 1160.835,-183.5 1252.4063,-183.5 1252.4063,-165.5 1160.835,-165.5"/>
            <text text-anchor="middle" x="1206.6206" y="-171.5" font-family="Helvetica,sans-Serif" font-size="10.00"
                  fill="#000000">gtkmm/liststore.h
            </text>
        </g>
        <!-- Node7&#45;&gt;Node12 -->
        <g id="edge12" class="edge">
            <title>Node7&#45;&gt;Node12</title>
            <path fill="none" stroke="#191970"
                  d="M479.6765,-221.0214C482.6987,-220.6473 485.6961,-220.3027 488.6206,-220 778.8565,-189.9572 856.6503,-216.559 1150.6596,-183.967"/>
            <polygon fill="#191970" stroke="#191970"
                     points="1151.2147,-187.4267 1160.762,-182.8333 1150.434,-180.4704 1151.2147,-187.4267"/>
        </g>
        <!-- Node13 -->
        <g id="node14" class="node">
            <title>Node13</title>
            <polygon fill="none" stroke="#bfbfbf"
                     points="394.877,-165.5 394.877,-183.5 490.3643,-183.5 490.3643,-165.5 394.877,-165.5"/>
            <text text-anchor="middle" x="442.6206" y="-171.5" font-family="Helvetica,sans-Serif" font-size="10.00"
                  fill="#000000">gtkmm/hvpaned.h
            </text>
        </g>
        <!-- Node7&#45;&gt;Node13 -->
        <g id="edge17" class="edge">
            <title>Node7&#45;&gt;Node13</title>
            <path fill="none" stroke="#191970"
                  d="M429.2627,-220.4179C431.3807,-213.1372 434.426,-202.669 437.0742,-193.5659"/>
            <polygon fill="#191970" stroke="#191970"
                     points="440.4884,-194.3591 439.9211,-183.7795 433.7671,-192.4037 440.4884,-194.3591"/>
        </g>
        <!-- Node14 -->
        <g id="node15" class="node">
            <title>Node14</title>
            <g id="a_node15">
                <a xlink:href="../../de/d01/_prescription_8hpp.html" target="_top"
                   xlink:title="../../model/Prescription.hpp">
                    <polygon fill="none" stroke="#000000"
                             points="508.1479,-165.5 508.1479,-183.5 643.0933,-183.5 643.0933,-165.5 508.1479,-165.5"/>
                    <text text-anchor="middle" x="575.6206" y="-171.5" font-family="Helvetica,sans-Serif"
                          font-size="10.00" fill="#000000">../../model/Prescription.hpp
                    </text>
                </a>
            </g>
        </g>
        <!-- Node7&#45;&gt;Node14 -->
        <g id="edge18" class="edge">
            <title>Node7&#45;&gt;Node14</title>
            <path fill="none" stroke="#191970"
                  d="M451.2249,-220.4179C475.8127,-211.3419 513.82,-197.3123 541.3538,-187.1488"/>
            <polygon fill="#191970" stroke="#191970"
                     points="542.8105,-190.342 550.9797,-183.5956 540.3864,-183.7751 542.8105,-190.342"/>
        </g>
        <!-- Node15 -->
        <g id="node16" class="node">
            <title>Node15</title>
            <polygon fill="none" stroke="#bfbfbf"
                     points="416.0049,-55.5 416.0049,-73.5 459.2363,-73.5 459.2363,-55.5 416.0049,-55.5"/>
            <text text-anchor="middle" x="437.6206" y="-61.5" font-family="Helvetica,sans-Serif" font-size="10.00"
                  fill="#000000">vector
            </text>
        </g>
        <!-- Node14&#45;&gt;Node15 -->
        <g id="edge19" class="edge">
            <title>Node14&#45;&gt;Node15</title>
            <path fill="none" stroke="#191970"
                  d="M556.9559,-165.3621C540.7554,-157.0013 517.0689,-143.721 498.6206,-129 480.6628,-114.6704 462.936,-95.16 451.2598,-81.3604"/>
            <polygon fill="#191970" stroke="#191970"
                     points="453.9027,-79.0645 444.8235,-73.6036 448.5156,-83.5344 453.9027,-79.0645"/>
        </g>
        <!-- Node16 -->
        <g id="node17" class="node">
            <title>Node16</title>
            <polygon fill="none" stroke="#bfbfbf"
                     points="467.394,-.5 467.394,-18.5 507.8472,-18.5 507.8472,-.5 467.394,-.5"/>
            <text text-anchor="middle" x="487.6206" y="-6.5" font-family="Helvetica,sans-Serif" font-size="10.00"
                  fill="#000000">string
            </text>
        </g>
        <!-- Node14&#45;&gt;Node16 -->
        <g id="edge20" class="edge">
            <title>Node14&#45;&gt;Node16</title>
            <path fill="none" stroke="#191970"
                  d="M538.6356,-165.465C496.901,-152.9639 431.5833,-125.8205 406.6206,-74 393.9892,-47.7783 429.7362,-28.9246 457.7193,-18.6077"/>
            <polygon fill="#191970" stroke="#191970"
                     points="458.902,-21.9021 467.2014,-15.3165 456.6066,-15.2892 458.902,-21.9021"/>
        </g>
        <!-- Node17 -->
        <g id="node18" class="node">
            <title>Node17</title>
            <polygon fill="none" stroke="#bfbfbf"
                     points="607.894,-.5 607.894,-18.5 643.3472,-18.5 643.3472,-.5 607.894,-.5"/>
            <text text-anchor="middle" x="625.6206" y="-6.5" font-family="Helvetica,sans-Serif" font-size="10.00"
                  fill="#000000">map
            </text>
        </g>
        <!-- Node14&#45;&gt;Node17 -->
        <g id="edge21" class="edge">
            <title>Node14&#45;&gt;Node17</title>
            <path fill="none" stroke="#191970"
                  d="M618.932,-165.4687C690.9795,-149.4695 830.3527,-114.036 858.6206,-74 863.4912,-67.1017 863.9891,-61.5183 858.6206,-55 832.9504,-23.832 710.0819,-13.7205 653.8404,-10.6915"/>
            <polygon fill="#191970" stroke="#191970"
                     points="653.6913,-7.1798 643.529,-10.176 653.3417,-14.171 653.6913,-7.1798"/>
        </g>
        <!-- Node18 -->
        <g id="node19" class="node">
            <title>Node18</title>
            <polygon fill="none" stroke="#bfbfbf"
                     points="715.7095,-55.5 715.7095,-73.5 849.5317,-73.5 849.5317,-55.5 715.7095,-55.5"/>
            <text text-anchor="middle" x="782.6206" y="-61.5" font-family="Helvetica,sans-Serif" font-size="10.00"
                  fill="#000000">gtkmm/treemodelcolumn.h
            </text>
        </g>
        <!-- Node14&#45;&gt;Node18 -->
        <g id="edge22" class="edge">
            <title>Node14&#45;&gt;Node18</title>
            <path fill="none" stroke="#191970"
                  d="M592.5603,-165.4982C628.6473,-146.3216 713.3201,-101.3263 756.4202,-78.4229"/>
            <polygon fill="#191970" stroke="#191970"
                     points="758.2587,-81.4095 765.4469,-73.6261 754.9738,-75.2281 758.2587,-81.4095"/>
        </g>
        <!-- Node19 -->
        <g id="node20" class="node">
            <title>Node19</title>
            <g id="a_node20">
                <a xlink:href="../../d3/d1b/_i_serializable_8hpp.html" target="_top"
                   xlink:title="../interfaces/ISerializable.hpp">
                    <polygon fill="none" stroke="#000000"
                             points="553.4189,-55.5 553.4189,-73.5 697.8223,-73.5 697.8223,-55.5 553.4189,-55.5"/>
                    <text text-anchor="middle" x="625.6206" y="-61.5" font-family="Helvetica,sans-Serif"
                          font-size="10.00" fill="#000000">../interfaces/ISerializable.hpp
                    </text>
                </a>
            </g>
        </g>
        <!-- Node14&#45;&gt;Node19 -->
        <g id="edge23" class="edge">
            <title>Node14&#45;&gt;Node19</title>
            <path fill="none" stroke="#191970"
                  d="M579.7123,-165.4982C587.8796,-147.5302 606.3499,-106.8954 617.2094,-83.0046"/>
            <polygon fill="#191970" stroke="#191970"
                     points="620.5206,-84.1781 621.4724,-73.6261 614.148,-81.2815 620.5206,-84.1781"/>
        </g>
        <!-- Node20 -->
        <g id="node21" class="node">
            <title>Node20</title>
            <g id="a_node21">
                <a xlink:href="../../dd/df9/_drug_8hpp.html" target="_top" xlink:title="Drug.hpp">
                    <polygon fill="none" stroke="#000000"
                             points="508.0518,-110.5 508.0518,-128.5 565.1895,-128.5 565.1895,-110.5 508.0518,-110.5"/>
                    <text text-anchor="middle" x="536.6206" y="-116.5" font-family="Helvetica,sans-Serif"
                          font-size="10.00" fill="#000000">Drug.hpp
                    </text>
                </a>
            </g>
        </g>
        <!-- Node14&#45;&gt;Node20 -->
        <g id="edge26" class="edge">
            <title>Node14&#45;&gt;Node20</title>
            <path fill="none" stroke="#191970"
                  d="M569.1805,-165.4179C563.7373,-157.7415 555.7815,-146.5217 549.0967,-137.0945"/>
            <polygon fill="#191970" stroke="#191970"
                     points="551.84,-134.9123 543.2006,-128.7795 546.1298,-138.9613 551.84,-134.9123"/>
        </g>
        <!-- Node19&#45;&gt;Node16 -->
        <g id="edge24" class="edge">
            <title>Node19&#45;&gt;Node16</title>
            <path fill="none" stroke="#191970"
                  d="M602.8327,-55.4179C579.5841,-46.1521 543.3815,-31.7236 517.7712,-21.5165"/>
            <polygon fill="#191970" stroke="#191970"
                     points="518.7727,-18.148 508.1874,-17.6969 516.181,-24.6506 518.7727,-18.148"/>
        </g>
        <!-- Node19&#45;&gt;Node17 -->
        <g id="edge25" class="edge">
            <title>Node19&#45;&gt;Node17</title>
            <path fill="none" stroke="#191970"
                  d="M625.6206,-55.4179C625.6206,-48.2164 625.6206,-37.8962 625.6206,-28.8632"/>
            <polygon fill="#191970" stroke="#191970"
                     points="629.1207,-28.7794 625.6206,-18.7795 622.1207,-28.7795 629.1207,-28.7794"/>
        </g>
        <!-- Node20&#45;&gt;Node15 -->
        <g id="edge28" class="edge">
            <title>Node20&#45;&gt;Node15</title>
            <path fill="none" stroke="#191970"
                  d="M520.2728,-110.4179C504.6525,-101.7399 480.8808,-88.5334 462.8344,-78.5077"/>
            <polygon fill="#191970" stroke="#191970"
                     points="464.4341,-75.3925 453.9927,-73.5956 461.0345,-81.5117 464.4341,-75.3925"/>
        </g>
        <!-- Node20&#45;&gt;Node16 -->
        <g id="edge27" class="edge">
            <title>Node20&#45;&gt;Node16</title>
            <path fill="none" stroke="#191970"
                  d="M531.0407,-110.2942C525.6821,-101.2455 517.5484,-86.9484 511.6206,-74 504.7822,-59.0624 498.3661,-41.5637 493.8914,-28.5643"/>
            <polygon fill="#191970" stroke="#191970"
                     points="497.1312,-27.2181 490.6226,-18.8581 490.4973,-29.4522 497.1312,-27.2181"/>
        </g>
        <!-- Node20&#45;&gt;Node17 -->
        <g id="edge29" class="edge">
            <title>Node20&#45;&gt;Node17</title>
            <path fill="none" stroke="#191970"
                  d="M535.3241,-110.28C533.9441,-96.9005 533.3003,-71.8634 544.6206,-55 557.136,-36.3562 579.9943,-24.534 598.2447,-17.6276"/>
            <polygon fill="#191970" stroke="#191970"
                     points="599.5287,-20.8866 607.8149,-14.2843 597.22,-14.2782 599.5287,-20.8866"/>
        </g>
        <!-- Node20&#45;&gt;Node18 -->
        <g id="edge30" class="edge">
            <title>Node20&#45;&gt;Node18</title>
            <path fill="none" stroke="#191970"
                  d="M565.3214,-113.0832C606.2292,-103.9371 681.9156,-87.0153 732.2751,-75.7561"/>
            <polygon fill="#191970" stroke="#191970"
                     points="733.3078,-79.1117 742.3032,-73.5141 731.7804,-72.2804 733.3078,-79.1117"/>
        </g>
        <!-- Node20&#45;&gt;Node19 -->
        <g id="edge31" class="edge">
            <title>Node20&#45;&gt;Node19</title>
            <path fill="none" stroke="#191970"
                  d="M551.3171,-110.4179C565.102,-101.8992 585.9484,-89.0166 602.0555,-79.0627"/>
            <polygon fill="#191970" stroke="#191970"
                     points="604.2354,-81.83 610.9022,-73.5956 600.5555,-75.8753 604.2354,-81.83"/>
        </g>
    </g>
</svg>
