<?xml version="1.0" encoding="UTF-8" standalone="no"?>
<!DOCTYPE svg PUBLIC "-//W3C//DTD SVG 1.1//EN"
        "http://www.w3.org/Graphics/SVG/1.1/DTD/svg11.dtd">
<!-- Generated by graphviz version 2.40.1 (20161225.0304)
 -->
<!-- Title: code/model/Authentication.hpp Pages: 1 -->
<!--zoomable 82 -->
<svg id="main" version="1.1" xmlns="http://www.w3.org/2000/svg" xmlns:xlink="http://www.w3.org/1999/xlink" xml:space="preserve" onload="init(evt)">
<style type="text/css"><![CDATA[
.edge:hover path { stroke: red; }
.edge:hover polygon { stroke: red; fill: red; }
]]></style>
<script type="text/javascript"><![CDATA[
var edges = document.getElementsByTagName('g');
if (edges && edges.length) {
  for (var i=0;i<edges.length;i++) {
    if (edges[i].id.substr(0,4)=='edge') {
      edges[i].setAttribute('class','edge');
    }
  }
}
]]></script>
        <defs>
                <circle id="rim" cx="0" cy="0" r="7"/>
                <circle id="rim2" cx="0" cy="0" r="3.5"/>
                <g id="zoomPlus">
                        <use xlink:href="#rim" fill="#404040">
                                <set attributeName="fill" to="#808080" begin="zoomplus.mouseover" end="zoomplus.mouseout"/>
                        </use>
                        <path d="M-4,0h8M0,-4v8" fill="none" stroke="white" stroke-width="1.5" pointer-events="none"/>
                </g>
                <g id="zoomMin">
                        <use xlink:href="#rim" fill="#404040">
                                <set attributeName="fill" to="#808080" begin="zoomminus.mouseover" end="zoomminus.mouseout"/>
                        </use>
                        <path d="M-4,0h8" fill="none" stroke="white" stroke-width="1.5" pointer-events="none"/>
                </g>
                <g id="dirArrow">
                        <path fill="none" stroke="white" stroke-width="1.5" d="M0,-3.0v7 M-2.5,-0.5L0,-3.0L2.5,-0.5"/>
                </g>
               <g id="resetDef">
                       <use xlink:href="#rim2" fill="#404040">
                               <set attributeName="fill" to="#808080" begin="reset.mouseover" end="reset.mouseout"/>
                       </use>
               </g>
        </defs>

<script type="text/javascript">
var viewWidth = 1079;
var viewHeight = 82;
var sectionId = 'dynsection-1';
</script>
<script xlink:href="../../svgpan.js"/>
<svg id="graph" class="graph">
<g id="viewport">
<title>code/model/Authentication.hpp</title>
    <!-- Node14 -->
<g id="node1" class="node">
<title>Node14</title>
<polygon fill="#bfbfbf" stroke="#000000" points="467.7217,-55.5 467.7217,-73.5 621.041,-73.5 621.041,-55.5 467.7217,-55.5"/>
<text text-anchor="middle" x="544.3813" y="-61.5" font-family="Helvetica,sans-Serif" font-size="10.00" fill="#000000">code/model/Authentication.hpp</text>
</g>
    <!-- Node15 -->
<g id="node2" class="node">
<title>Node15</title>
<g id="a_node2"><a xlink:href="../../db/db5/_add_patient_dialog_8cpp.html" target="_top" xlink:title="code/gui/AddPatientDialog.cpp">
<polygon fill="none" stroke="#000000" points="0,-.5 0,-18.5 152.7627,-18.5 152.7627,-.5 0,-.5"/>
<text text-anchor="middle" x="76.3813" y="-6.5" font-family="Helvetica,sans-Serif" font-size="10.00" fill="#000000">code/gui/AddPatientDialog.cpp</text>
</a>
</g>
</g>
    <!-- Node14&#45;&gt;Node15 -->
<g id="edge1" class="edge">
<title>Node14&#45;&gt;Node15</title>
<path fill="none" stroke="#191970" d="M457.4553,-54.2843C369.964,-44.0022 236.3403,-28.2986 152.7912,-18.4798"/>
<polygon fill="#191970" stroke="#191970" points="457.2845,-57.7883 467.6247,-55.4795 458.1016,-50.8361 457.2845,-57.7883"/>
</g>
    <!-- Node16 -->
<g id="node3" class="node">
<title>Node16</title>
<g id="a_node3"><a xlink:href="../../d6/d9e/_drug_window_8cpp.html" target="_top" xlink:title="code/gui/DrugWindow.cpp">
<polygon fill="none" stroke="#000000" points="170.2905,-.5 170.2905,-18.5 302.4722,-18.5 302.4722,-.5 170.2905,-.5"/>
<text text-anchor="middle" x="236.3813" y="-6.5" font-family="Helvetica,sans-Serif" font-size="10.00" fill="#000000">code/gui/DrugWindow.cpp</text>
</a>
</g>
</g>
    <!-- Node14&#45;&gt;Node16 -->
<g id="edge2" class="edge">
<title>Node14&#45;&gt;Node16</title>
<path fill="none" stroke="#191970" d="M483.8236,-53.6861C426.3198,-43.4176 340.8681,-28.1584 286.924,-18.5255"/>
<polygon fill="#191970" stroke="#191970" points="483.4067,-57.167 493.8663,-55.4795 484.6373,-50.276 483.4067,-57.167"/>
</g>
    <!-- Node17 -->
<g id="node4" class="node">
<title>Node17</title>
<g id="a_node4"><a xlink:href="../../d9/d07/_login_window_8cpp.html" target="_top" xlink:title="code/gui/LoginWindow.cpp">
<polygon fill="none" stroke="#000000" points="320.894,-.5 320.894,-18.5 455.8687,-18.5 455.8687,-.5 320.894,-.5"/>
<text text-anchor="middle" x="388.3813" y="-6.5" font-family="Helvetica,sans-Serif" font-size="10.00" fill="#000000">code/gui/LoginWindow.cpp</text>
</a>
</g>
</g>
    <!-- Node14&#45;&gt;Node17 -->
<g id="edge3" class="edge">
<title>Node14&#45;&gt;Node17</title>
<path fill="none" stroke="#191970" d="M508.8955,-51.989C479.9556,-41.7858 439.7724,-27.6186 413.9206,-18.5042"/>
<polygon fill="#191970" stroke="#191970" points="508.0263,-55.3936 518.6211,-55.4179 510.3539,-48.7919 508.0263,-55.3936"/>
</g>
    <!-- Node18 -->
<g id="node5" class="node">
<title>Node18</title>
<g id="a_node5"><a xlink:href="../../d8/d35/_patient_window_8cpp.html" target="_top" xlink:title="code/gui/PatientWindow.cpp">
<polygon fill="none" stroke="#000000" points="473.5615,-.5 473.5615,-18.5 615.2012,-18.5 615.2012,-.5 473.5615,-.5"/>
<text text-anchor="middle" x="544.3813" y="-6.5" font-family="Helvetica,sans-Serif" font-size="10.00" fill="#000000">code/gui/PatientWindow.cpp</text>
</a>
</g>
</g>
    <!-- Node14&#45;&gt;Node18 -->
<g id="edge4" class="edge">
<title>Node14&#45;&gt;Node18</title>
<path fill="none" stroke="#191970" d="M544.3813,-45.383C544.3813,-36.3738 544.3813,-26.0373 544.3813,-18.7795"/>
<polygon fill="#191970" stroke="#191970" points="540.8814,-45.4178 544.3813,-55.4179 547.8814,-45.4179 540.8814,-45.4178"/>
</g>
    <!-- Node19 -->
<g id="node6" class="node">
<title>Node19</title>
<g id="a_node6"><a xlink:href="../../d1/d16/_prescription_window_8cpp.html" target="_top" xlink:title="code/gui/PrescriptionWindow.cpp">
<polygon fill="none" stroke="#000000" points="632.729,-.5 632.729,-18.5 796.0337,-18.5 796.0337,-.5 632.729,-.5"/>
<text text-anchor="middle" x="714.3813" y="-6.5" font-family="Helvetica,sans-Serif" font-size="10.00" fill="#000000">code/gui/PrescriptionWindow.cpp</text>
</a>
</g>
</g>
    <!-- Node14&#45;&gt;Node19 -->
<g id="edge5" class="edge">
<title>Node14&#45;&gt;Node19</title>
<path fill="none" stroke="#191970" d="M582.2283,-52.2554C613.8229,-42.0336 658.1322,-27.6983 686.5502,-18.5042"/>
<polygon fill="#191970" stroke="#191970" points="580.8904,-49.0095 572.4534,-55.4179 583.0452,-55.6697 580.8904,-49.0095"/>
</g>
    <!-- Node20 -->
<g id="node7" class="node">
<title>Node20</title>
<g id="a_node7"><a xlink:href="../../d7/daf/_med_h_8cpp.html" target="_top" xlink:title="code/MedH.cpp">
<polygon fill="none" stroke="#000000" points="814.3618,-.5 814.3618,-18.5 900.4009,-18.5 900.4009,-.5 814.3618,-.5"/>
<text text-anchor="middle" x="857.3813" y="-6.5" font-family="Helvetica,sans-Serif" font-size="10.00" fill="#000000">code/MedH.cpp</text>
</a>
</g>
</g>
    <!-- Node14&#45;&gt;Node20 -->
<g id="edge6" class="edge">
<title>Node14&#45;&gt;Node20</title>
<path fill="none" stroke="#191970" d="M606.8002,-53.7648C659.6911,-44.6332 737.5324,-31.1116 805.3813,-19 808.2724,-18.4839 811.2531,-17.9484 814.256,-17.4065"/>
<polygon fill="#191970" stroke="#191970" points="606.1534,-50.3246 596.8942,-55.4741 607.3437,-57.2227 606.1534,-50.3246"/>
</g>
    <!-- Node21 -->
<g id="node8" class="node">
<title>Node21</title>
<g id="a_node8"><a xlink:href="../../d6/d6e/_authentication_8cpp.html" target="_top" xlink:title="code/model/Authentication.cpp">
<polygon fill="none" stroke="#000000" points="918.0024,-.5 918.0024,-18.5 1070.7603,-18.5 1070.7603,-.5 918.0024,-.5"/>
<text text-anchor="middle" x="994.3813" y="-6.5" font-family="Helvetica,sans-Serif" font-size="10.00" fill="#000000">code/model/Authentication.cpp</text>
</a>
</g>
</g>
    <!-- Node14&#45;&gt;Node21 -->
<g id="edge7" class="edge">
<title>Node14&#45;&gt;Node21</title>
<path fill="none" stroke="#191970" d="M628.2052,-54.2549C712.2052,-43.9882 840.2535,-28.3379 920.5366,-18.5255"/>
<polygon fill="#191970" stroke="#191970" points="627.6873,-50.792 618.1858,-55.4795 628.5366,-57.7403 627.6873,-50.792"/>
</g>
</g>
</svg>
        <g id="navigator" transform="translate(0 0)" fill="#404254">
                <rect fill="#f2f5e9" fill-opacity="0.5" stroke="#606060" stroke-width=".5" x="0" y="0" width="60" height="60"/>
                <use id="zoomplus" xlink:href="#zoomPlus" x="17" y="9" onmousedown="handleZoom(evt,'in')"/>
                <use id="zoomminus" xlink:href="#zoomMin" x="42" y="9" onmousedown="handleZoom(evt,'out')"/>
                <use id="reset" xlink:href="#resetDef" x="30" y="36" onmousedown="handleReset()"/>
                <g id="arrowUp" xlink:href="#dirArrow" transform="translate(30 24)" onmousedown="handlePan(0,-1)">
                  <use xlink:href="#rim" fill="#404040">
                        <set attributeName="fill" to="#808080" begin="arrowUp.mouseover" end="arrowUp.mouseout"/>
                  </use>
                  <path fill="none" stroke="white" stroke-width="1.5" d="M0,-3.0v7 M-2.5,-0.5L0,-3.0L2.5,-0.5"/>
                </g>
                <g id="arrowRight" xlink:href="#dirArrow" transform="rotate(90) translate(36 -43)" onmousedown="handlePan(1,0)">
                  <use xlink:href="#rim" fill="#404040">
                        <set attributeName="fill" to="#808080" begin="arrowRight.mouseover" end="arrowRight.mouseout"/>
                  </use>
                  <path fill="none" stroke="white" stroke-width="1.5" d="M0,-3.0v7 M-2.5,-0.5L0,-3.0L2.5,-0.5"/>
                </g>
                <g id="arrowDown" xlink:href="#dirArrow" transform="rotate(180) translate(-30 -48)" onmousedown="handlePan(0,1)">
                  <use xlink:href="#rim" fill="#404040">
                        <set attributeName="fill" to="#808080" begin="arrowDown.mouseover" end="arrowDown.mouseout"/>
                  </use>
                  <path fill="none" stroke="white" stroke-width="1.5" d="M0,-3.0v7 M-2.5,-0.5L0,-3.0L2.5,-0.5"/>
                </g>
                <g id="arrowLeft" xlink:href="#dirArrow" transform="rotate(270) translate(-36 17)" onmousedown="handlePan(-1,0)">
                  <use xlink:href="#rim" fill="#404040">
                        <set attributeName="fill" to="#808080" begin="arrowLeft.mouseover" end="arrowLeft.mouseout"/>
                  </use>
                  <path fill="none" stroke="white" stroke-width="1.5" d="M0,-3.0v7 M-2.5,-0.5L0,-3.0L2.5,-0.5"/>
                </g>
        </g>
        <svg viewBox="0 0 15 15" width="100%" height="30px" preserveAspectRatio="xMaxYMin meet">
         <g id="arrow_out" transform="scale(0.3 0.3)">
          <a xlink:href="_authentication_8hpp__dep__incl_org.svg" target="_base">
           <rect id="button" ry="5" rx="5" y="6" x="6" height="38" width="38"
                fill="#f2f5e9" fill-opacity="0.5" stroke="#606060" stroke-width="1.0"/>
           <path id="arrow"
             d="M 11.500037,31.436501 C 11.940474,20.09759 22.043105,11.32322 32.158766,21.979434 L 37.068811,17.246167 C 37.068811,17.246167 37.088388,32 37.088388,32 L 22.160133,31.978069 C 22.160133,31.978069 26.997745,27.140456 26.997745,27.140456 C 18.528582,18.264221 13.291696,25.230495 11.500037,31.436501 z"
             style="fill:#404040;"/>
          </a>
         </g>
        </svg>
</svg>
