<?xml version="1.0" encoding="UTF-8" standalone="no"?>
<!DOCTYPE svg PUBLIC "-//W3C//DTD SVG 1.1//EN"
        "http://www.w3.org/Graphics/SVG/1.1/DTD/svg11.dtd">
<!-- Generated by graphviz version 2.40.1 (20161225.0304)
 -->
<!-- Title: code/model/Authentication.hpp Pages: 1 -->
<!--zoomable 82 -->
<svg id="main" version="1.1" xmlns="http://www.w3.org/2000/svg" xmlns:xlink="http://www.w3.org/1999/xlink" xml:space="preserve" onload="initDrugComboBox(evt)">
<style type="text/css"><![CDATA[
.edge:hover path { stroke: red; }
.edge:hover polygon { stroke: red; fill: red; }
]]></style>
<script type="text/javascript"><![CDATA[
var edges = document.getElementsByTagName('g');
if (edges && edges.length) {
  for (var i=0;i<edges.length;i++) {
    if (edges[i].id.substr(0,4)=='edge') {
      edges[i].setAttribute('class','edge');
    }
  }
}
]]></script>
        <defs>
                <circle id="rim" cx="0" cy="0" r="7"/>
                <circle id="rim2" cx="0" cy="0" r="3.5"/>
                <g id="zoomPlus">
                        <use xlink:href="#rim" fill="#404040">
                                <set attributeName="fill" to="#808080" begin="zoomplus.mouseover" end="zoomplus.mouseout"/>
                        </use>
                        <path d="M-4,0h8M0,-4v8" fill="none" stroke="white" stroke-width="1.5" pointer-events="none"/>
                </g>
                <g id="zoomMin">
                        <use xlink:href="#rim" fill="#404040">
                                <set attributeName="fill" to="#808080" begin="zoomminus.mouseover" end="zoomminus.mouseout"/>
                        </use>
                        <path d="M-4,0h8" fill="none" stroke="white" stroke-width="1.5" pointer-events="none"/>
                </g>
                <g id="dirArrow">
                        <path fill="none" stroke="white" stroke-width="1.5" d="M0,-3.0v7 M-2.5,-0.5L0,-3.0L2.5,-0.5"/>
                </g>
               <g id="resetDef">
                       <use xlink:href="#rim2" fill="#404040">
                               <set attributeName="fill" to="#808080" begin="reset.mouseover" end="reset.mouseout"/>
                       </use>
               </g>
        </defs>

<script type="text/javascript">
var viewWidth = 748;
var viewHeight = 82;
var sectionId = 'dynsection-1';
</script>
<script xlink:href="../../svgpan.js"/>
<svg id="graph" class="graph">
<g id="viewport">
<title>code/model/Authentication.hpp</title>
    <!-- Node14 -->
<g id="node1" class="node">
<title>Node14</title>
<polygon fill="#bfbfbf" stroke="#000000" points="317.7217,-55.5 317.7217,-73.5 471.041,-73.5 471.041,-55.5 317.7217,-55.5"/>
<text text-anchor="middle" x="394.3813" y="-61.5" font-family="Helvetica,sans-Serif" font-size="10.00" fill="#000000">code/model/Authentication.hpp</text>
</g>
    <!-- Node15 -->
<g id="node2" class="node">
<title>Node15</title>
<g id="a_node2"><a xlink:href="../../db/db5/_add_patient_dialog_8cpp.html" target="_top" xlink:title="code/gui/AddPatientDialog.cpp">
<polygon fill="none" stroke="#000000" points="0,-.5 0,-18.5 152.7627,-18.5 152.7627,-.5 0,-.5"/>
<text text-anchor="middle" x="76.3813" y="-6.5" font-family="Helvetica,sans-Serif" font-size="10.00" fill="#000000">code/gui/AddPatientDialog.cpp</text>
</a>
</g>
</g>
    <!-- Node14&#45;&gt;Node15 -->
<g id="edge1" class="edge">
<title>Node14&#45;&gt;Node15</title>
<path fill="none" stroke="#191970" d="M332.2258,-53.7498C272.8521,-43.4808 184.3759,-28.1783 128.565,-18.5255"/>
<polygon fill="#191970" stroke="#191970" points="331.776,-57.2239 342.2262,-55.4795 332.969,-50.3263 331.776,-57.2239"/>
</g>
    <!-- Node16 -->
<g id="node3" class="node">
<title>Node16</title>
<g id="a_node3"><a xlink:href="../../d9/d07/_login_window_8cpp.html" target="_top" xlink:title="code/gui/LoginWindow.cpp">
<polygon fill="none" stroke="#000000" points="170.894,-.5 170.894,-18.5 305.8687,-18.5 305.8687,-.5 170.894,-.5"/>
<text text-anchor="middle" x="238.3813" y="-6.5" font-family="Helvetica,sans-Serif" font-size="10.00" fill="#000000">code/gui/LoginWindow.cpp</text>
</a>
</g>
</g>
    <!-- Node14&#45;&gt;Node16 -->
<g id="edge2" class="edge">
<title>Node14&#45;&gt;Node16</title>
<path fill="none" stroke="#191970" d="M358.8955,-51.989C329.9556,-41.7858 289.7724,-27.6186 263.9206,-18.5042"/>
<polygon fill="#191970" stroke="#191970" points="358.0263,-55.3936 368.6211,-55.4179 360.3539,-48.7919 358.0263,-55.3936"/>
</g>
    <!-- Node17 -->
<g id="node4" class="node">
<title>Node17</title>
<g id="a_node4"><a xlink:href="../../d8/d35/_patient_window_8cpp.html" target="_top" xlink:title="code/gui/PatientWindow.cpp">
<polygon fill="none" stroke="#000000" points="323.5615,-.5 323.5615,-18.5 465.2012,-18.5 465.2012,-.5 323.5615,-.5"/>
<text text-anchor="middle" x="394.3813" y="-6.5" font-family="Helvetica,sans-Serif" font-size="10.00" fill="#000000">code/gui/PatientWindow.cpp</text>
</a>
</g>
</g>
    <!-- Node14&#45;&gt;Node17 -->
<g id="edge3" class="edge">
<title>Node14&#45;&gt;Node17</title>
<path fill="none" stroke="#191970" d="M394.3813,-45.383C394.3813,-36.3738 394.3813,-26.0373 394.3813,-18.7795"/>
<polygon fill="#191970" stroke="#191970" points="390.8814,-45.4178 394.3813,-55.4179 397.8814,-45.4179 390.8814,-45.4178"/>
</g>
    <!-- Node18 -->
<g id="node5" class="node">
<title>Node18</title>
<g id="a_node5"><a xlink:href="../../d7/daf/_med_h_8cpp.html" target="_top" xlink:title="code/MedH.cpp">
<polygon fill="none" stroke="#000000" points="483.3618,-.5 483.3618,-18.5 569.4009,-18.5 569.4009,-.5 483.3618,-.5"/>
<text text-anchor="middle" x="526.3813" y="-6.5" font-family="Helvetica,sans-Serif" font-size="10.00" fill="#000000">code/MedH.cpp</text>
</a>
</g>
</g>
    <!-- Node14&#45;&gt;Node18 -->
<g id="edge4" class="edge">
<title>Node14&#45;&gt;Node18</title>
<path fill="none" stroke="#191970" d="M425.6695,-51.4633C449.9695,-41.3383 483.0444,-27.5571 504.5518,-18.5956"/>
<polygon fill="#191970" stroke="#191970" points="424.0631,-48.3409 416.1785,-55.4179 426.7554,-54.8024 424.0631,-48.3409"/>
</g>
    <!-- Node19 -->
<g id="node6" class="node">
<title>Node19</title>
<g id="a_node6"><a xlink:href="../../d6/d6e/_authentication_8cpp.html" target="_top" xlink:title="code/model/Authentication.cpp">
<polygon fill="none" stroke="#000000" points="587.0024,-.5 587.0024,-18.5 739.7603,-18.5 739.7603,-.5 587.0024,-.5"/>
<text text-anchor="middle" x="663.3813" y="-6.5" font-family="Helvetica,sans-Serif" font-size="10.00" fill="#000000">code/model/Authentication.cpp</text>
</a>
</g>
</g>
    <!-- Node14&#45;&gt;Node19 -->
<g id="edge5" class="edge">
<title>Node14&#45;&gt;Node19</title>
<path fill="none" stroke="#191970" d="M448.5238,-53.43C498.7278,-43.1652 572.5152,-28.0786 619.2386,-18.5255"/>
<polygon fill="#191970" stroke="#191970" points="447.5962,-50.0472 438.5,-55.4795 448.9985,-56.9053 447.5962,-50.0472"/>
</g>
</g>
</svg>
        <g id="navigator" transform="translate(0 0)" fill="#404254">
                <rect fill="#f2f5e9" fill-opacity="0.5" stroke="#606060" stroke-width=".5" x="0" y="0" width="60" height="60"/>
                <use id="zoomplus" xlink:href="#zoomPlus" x="17" y="9" onmousedown="handleZoom(evt,'in')"/>
                <use id="zoomminus" xlink:href="#zoomMin" x="42" y="9" onmousedown="handleZoom(evt,'out')"/>
                <use id="reset" xlink:href="#resetDef" x="30" y="36" onmousedown="handleReset()"/>
                <g id="arrowUp" xlink:href="#dirArrow" transform="translate(30 24)" onmousedown="handlePan(0,-1)">
                  <use xlink:href="#rim" fill="#404040">
                        <set attributeName="fill" to="#808080" begin="arrowUp.mouseover" end="arrowUp.mouseout"/>
                  </use>
                  <path fill="none" stroke="white" stroke-width="1.5" d="M0,-3.0v7 M-2.5,-0.5L0,-3.0L2.5,-0.5"/>
                </g>
                <g id="arrowRight" xlink:href="#dirArrow" transform="rotate(90) translate(36 -43)" onmousedown="handlePan(1,0)">
                  <use xlink:href="#rim" fill="#404040">
                        <set attributeName="fill" to="#808080" begin="arrowRight.mouseover" end="arrowRight.mouseout"/>
                  </use>
                  <path fill="none" stroke="white" stroke-width="1.5" d="M0,-3.0v7 M-2.5,-0.5L0,-3.0L2.5,-0.5"/>
                </g>
                <g id="arrowDown" xlink:href="#dirArrow" transform="rotate(180) translate(-30 -48)" onmousedown="handlePan(0,1)">
                  <use xlink:href="#rim" fill="#404040">
                        <set attributeName="fill" to="#808080" begin="arrowDown.mouseover" end="arrowDown.mouseout"/>
                  </use>
                  <path fill="none" stroke="white" stroke-width="1.5" d="M0,-3.0v7 M-2.5,-0.5L0,-3.0L2.5,-0.5"/>
                </g>
                <g id="arrowLeft" xlink:href="#dirArrow" transform="rotate(270) translate(-36 17)" onmousedown="handlePan(-1,0)">
                  <use xlink:href="#rim" fill="#404040">
                        <set attributeName="fill" to="#808080" begin="arrowLeft.mouseover" end="arrowLeft.mouseout"/>
                  </use>
                  <path fill="none" stroke="white" stroke-width="1.5" d="M0,-3.0v7 M-2.5,-0.5L0,-3.0L2.5,-0.5"/>
                </g>
        </g>
        <svg viewBox="0 0 15 15" width="100%" height="30px" preserveAspectRatio="xMaxYMin meet">
         <g id="arrow_out" transform="scale(0.3 0.3)">
          <a xlink:href="_authentication_8hpp__dep__incl_org.svg" target="_base">
           <rect id="button" ry="5" rx="5" y="6" x="6" height="38" width="38"
                fill="#f2f5e9" fill-opacity="0.5" stroke="#606060" stroke-width="1.0"/>
           <path id="arrow"
             d="M 11.500037,31.436501 C 11.940474,20.09759 22.043105,11.32322 32.158766,21.979434 L 37.068811,17.246167 C 37.068811,17.246167 37.088388,32 37.088388,32 L 22.160133,31.978069 C 22.160133,31.978069 26.997745,27.140456 26.997745,27.140456 C 18.528582,18.264221 13.291696,25.230495 11.500037,31.436501 z"
             style="fill:#404040;"/>
          </a>
         </g>
        </svg>
</svg>
