<?xml version="1.0" encoding="UTF-8" standalone="no"?>
<!DOCTYPE svg PUBLIC "-//W3C//DTD SVG 1.1//EN"
        "http://www.w3.org/Graphics/SVG/1.1/DTD/svg11.dtd">
<!-- Generated by graphviz version 2.40.1 (20161225.0304)
 -->
<!-- Title: code/gui/DrugWindow.cpp Pages: 1 -->
<!--zoomable 412 -->
<svg id="main" version="1.1" xmlns="http://www.w3.org/2000/svg" xmlns:xlink="http://www.w3.org/1999/xlink" xml:space="preserve" onload="init(evt)">
<style type="text/css"><![CDATA[
.edge:hover path { stroke: red; }
.edge:hover polygon { stroke: red; fill: red; }
]]></style>
<script type="text/javascript"><![CDATA[
var edges = document.getElementsByTagName('g');
if (edges && edges.length) {
  for (var i=0;i<edges.length;i++) {
    if (edges[i].id.substr(0,4)=='edge') {
      edges[i].setAttribute('class','edge');
    }
  }
}
]]></script>
        <defs>
                <circle id="rim" cx="0" cy="0" r="7"/>
                <circle id="rim2" cx="0" cy="0" r="3.5"/>
                <g id="zoomPlus">
                        <use xlink:href="#rim" fill="#404040">
                                <set attributeName="fill" to="#808080" begin="zoomplus.mouseover" end="zoomplus.mouseout"/>
                        </use>
                        <path d="M-4,0h8M0,-4v8" fill="none" stroke="white" stroke-width="1.5" pointer-events="none"/>
                </g>
                <g id="zoomMin">
                        <use xlink:href="#rim" fill="#404040">
                                <set attributeName="fill" to="#808080" begin="zoomminus.mouseover" end="zoomminus.mouseout"/>
                        </use>
                        <path d="M-4,0h8" fill="none" stroke="white" stroke-width="1.5" pointer-events="none"/>
                </g>
                <g id="dirArrow">
                        <path fill="none" stroke="white" stroke-width="1.5" d="M0,-3.0v7 M-2.5,-0.5L0,-3.0L2.5,-0.5"/>
                </g>
               <g id="resetDef">
                       <use xlink:href="#rim2" fill="#404040">
                               <set attributeName="fill" to="#808080" begin="reset.mouseover" end="reset.mouseout"/>
                       </use>
               </g>
        </defs>

<script type="text/javascript">
var viewWidth = 2184;
var viewHeight = 412;
var sectionId = 'dynsection-0';
</script>
<script xlink:href="../../svgpan.js"/>
<svg id="graph" class="graph">
<g id="viewport">
<title>code/gui/DrugWindow.cpp</title>
    <!-- Node0 -->
<g id="node1" class="node">
<title>Node0</title>
<polygon fill="#bfbfbf" stroke="#000000" points="1704.0444,-385.5 1704.0444,-403.5 1836.2261,-403.5 1836.2261,-385.5 1704.0444,-385.5"/>
<text text-anchor="middle" x="1770.1353" y="-391.5" font-family="Helvetica,sans-Serif" font-size="10.00" fill="#000000">code/gui/DrugWindow.cpp</text>
</g>
    <!-- Node1 -->
<g id="node2" class="node">
<title>Node1</title>
<polygon fill="none" stroke="#bfbfbf" points="1527.1084,-330.5 1527.1084,-348.5 1613.1621,-348.5 1613.1621,-330.5 1527.1084,-330.5"/>
<text text-anchor="middle" x="1570.1353" y="-336.5" font-family="Helvetica,sans-Serif" font-size="10.00" fill="#000000">spdlog/spdlog.h</text>
</g>
    <!-- Node0&#45;&gt;Node1 -->
<g id="edge1" class="edge">
<title>Node0&#45;&gt;Node1</title>
<path fill="none" stroke="#191970" d="M1737.1093,-385.4179C1703.1357,-376.0751 1650.0749,-361.4834 1612.9097,-351.263"/>
<polygon fill="#191970" stroke="#191970" points="1613.448,-347.7811 1602.8778,-348.5042 1611.5918,-354.5306 1613.448,-347.7811"/>
</g>
    <!-- Node2 -->
<g id="node3" class="node">
<title>Node2</title>
<g id="a_node3"><a xlink:href="../../dd/d02/_drug_window_8hpp.html" target="_top" xlink:title="DrugWindow.hpp">
<polygon fill="none" stroke="#000000" points="1631.0566,-330.5 1631.0566,-348.5 1723.2139,-348.5 1723.2139,-330.5 1631.0566,-330.5"/>
<text text-anchor="middle" x="1677.1353" y="-336.5" font-family="Helvetica,sans-Serif" font-size="10.00" fill="#000000">DrugWindow.hpp</text>
</a>
</g>
</g>
    <!-- Node0&#45;&gt;Node2 -->
<g id="edge2" class="edge">
<title>Node0&#45;&gt;Node2</title>
<path fill="none" stroke="#191970" d="M1754.7782,-385.4179C1740.2392,-376.8195 1718.1827,-363.7754 1701.2889,-353.7844"/>
<polygon fill="#191970" stroke="#191970" points="1702.9042,-350.6735 1692.5151,-348.5956 1699.3409,-356.6987 1702.9042,-350.6735"/>
</g>
    <!-- Node32 -->
<g id="node33" class="node">
<title>Node32</title>
<g id="a_node33"><a xlink:href="../../dc/db8/_ref_builder_8hpp.html" target="_top" xlink:title="RefBuilder.hpp">
<polygon fill="none" stroke="#000000" points="1948.3325,-330.5 1948.3325,-348.5 2029.938,-348.5 2029.938,-330.5 1948.3325,-330.5"/>
<text text-anchor="middle" x="1989.1353" y="-336.5" font-family="Helvetica,sans-Serif" font-size="10.00" fill="#000000">RefBuilder.hpp</text>
</a>
</g>
</g>
    <!-- Node0&#45;&gt;Node32 -->
<g id="edge47" class="edge">
<title>Node0&#45;&gt;Node32</title>
<path fill="none" stroke="#191970" d="M1806.2986,-385.4179C1843.8177,-375.9953 1902.596,-361.2336 1943.3368,-351.0019"/>
<polygon fill="#191970" stroke="#191970" points="1944.4359,-354.3346 1953.2821,-348.5042 1942.7308,-347.5455 1944.4359,-354.3346"/>
</g>
    <!-- Node34 -->
<g id="node35" class="node">
<title>Node34</title>
<g id="a_node35"><a xlink:href="../../d7/d0f/_d_b_master_8hpp.html" target="_top" xlink:title="../DBMaster.hpp">
<polygon fill="none" stroke="#000000" points="1778.2832,-110.5 1778.2832,-128.5 1865.9873,-128.5 1865.9873,-110.5 1778.2832,-110.5"/>
<text text-anchor="middle" x="1822.1353" y="-116.5" font-family="Helvetica,sans-Serif" font-size="10.00" fill="#000000">../DBMaster.hpp</text>
</a>
</g>
</g>
    <!-- Node0&#45;&gt;Node34 -->
<g id="edge49" class="edge">
<title>Node0&#45;&gt;Node34</title>
<path fill="none" stroke="#191970" d="M1772.7771,-385.4647C1777.9978,-366.7854 1789.1353,-322.4848 1789.1353,-284.5 1789.1353,-284.5 1789.1353,-284.5 1789.1353,-229.5 1789.1353,-196.0881 1803.2759,-159.2838 1813.0442,-137.8455"/>
<polygon fill="#191970" stroke="#191970" points="1816.288,-139.1734 1817.4072,-128.6379 1809.9622,-136.176 1816.288,-139.1734"/>
</g>
    <!-- Node37 -->
<g id="node38" class="node">
<title>Node37</title>
<g id="a_node38"><a xlink:href="../../dd/dc5/_doctor_8hpp.html" target="_top" xlink:title="../model/Doctor.hpp">
<polygon fill="none" stroke="#000000" points="1549.7759,-275.5 1549.7759,-293.5 1652.4946,-293.5 1652.4946,-275.5 1549.7759,-275.5"/>
<text text-anchor="middle" x="1601.1353" y="-281.5" font-family="Helvetica,sans-Serif" font-size="10.00" fill="#000000">../model/Doctor.hpp</text>
</a>
</g>
</g>
    <!-- Node0&#45;&gt;Node37 -->
<g id="edge55" class="edge">
<title>Node0&#45;&gt;Node37</title>
<path fill="none" stroke="#191970" d="M1767.0322,-385.205C1761.9203,-371.2664 1750.4334,-344.99 1732.1353,-330 1712.2538,-313.713 1686.1746,-303.0974 1662.5235,-296.2554"/>
<polygon fill="#191970" stroke="#191970" points="1663.1289,-292.7931 1652.5611,-293.5487 1661.2935,-299.5482 1663.1289,-292.7931"/>
</g>
    <!-- Node39 -->
<g id="node40" class="node">
<title>Node39</title>
<g id="a_node40"><a xlink:href="../../dc/d00/_authentication_8hpp.html" target="_top" xlink:title="../model/Authentication.hpp">
<polygon fill="none" stroke="#000000" points="1896.5396,-165.5 1896.5396,-183.5 2033.731,-183.5 2033.731,-165.5 1896.5396,-165.5"/>
<text text-anchor="middle" x="1965.1353" y="-171.5" font-family="Helvetica,sans-Serif" font-size="10.00" fill="#000000">../model/Authentication.hpp</text>
</a>
</g>
</g>
    <!-- Node0&#45;&gt;Node39 -->
<g id="edge63" class="edge">
<title>Node0&#45;&gt;Node39</title>
<path fill="none" stroke="#191970" d="M1784.8199,-385.4343C1809.9542,-369.3832 1861.8229,-333.8736 1896.1353,-294 1923.6178,-262.0632 1945.9056,-217.6061 1957.1651,-192.9056"/>
<polygon fill="#191970" stroke="#191970" points="1960.4278,-194.1823 1961.2983,-183.6233 1954.0331,-191.3348 1960.4278,-194.1823"/>
</g>
    <!-- Node3 -->
<g id="node4" class="node">
<title>Node3</title>
<polygon fill="none" stroke="#bfbfbf" points="1164.3496,-220.5 1164.3496,-238.5 1255.9209,-238.5 1255.9209,-220.5 1164.3496,-220.5"/>
<text text-anchor="middle" x="1210.1353" y="-226.5" font-family="Helvetica,sans-Serif" font-size="10.00" fill="#000000">gtkmm/liststore.h</text>
</g>
    <!-- Node2&#45;&gt;Node3 -->
<g id="edge3" class="edge">
<title>Node2&#45;&gt;Node3</title>
<path fill="none" stroke="#191970" d="M1638.9187,-330.4982C1554.4069,-310.5918 1351.7824,-262.8644 1258.5623,-240.9068"/>
<polygon fill="#191970" stroke="#191970" points="1259.0879,-237.4349 1248.5518,-238.5489 1257.483,-244.2484 1259.0879,-237.4349"/>
</g>
    <!-- Node4 -->
<g id="node5" class="node">
<title>Node4</title>
<g id="a_node5"><a xlink:href="../../de/d0b/_window_8hpp.html" target="_top" xlink:title="Window.hpp">
<polygon fill="none" stroke="#000000" points="1816.894,-275.5 1816.894,-293.5 1887.3765,-293.5 1887.3765,-275.5 1816.894,-275.5"/>
<text text-anchor="middle" x="1852.1353" y="-281.5" font-family="Helvetica,sans-Serif" font-size="10.00" fill="#000000">Window.hpp</text>
</a>
</g>
</g>
    <!-- Node2&#45;&gt;Node4 -->
<g id="edge4" class="edge">
<title>Node2&#45;&gt;Node4</title>
<path fill="none" stroke="#191970" d="M1706.0329,-330.4179C1735.5058,-321.155 1781.3956,-306.7325 1813.8707,-296.526"/>
<polygon fill="#191970" stroke="#191970" points="1814.995,-299.8415 1823.4855,-293.5042 1812.8961,-293.1636 1814.995,-299.8415"/>
</g>
    <!-- Node10 -->
<g id="node11" class="node">
<title>Node10</title>
<g id="a_node11"><a xlink:href="../../d5/d46/_custom_widgets_8hpp.html" target="_top" xlink:title="view/CustomWidgets.hpp">
<polygon fill="none" stroke="#000000" points="764.7241,-275.5 764.7241,-293.5 893.5464,-293.5 893.5464,-275.5 764.7241,-275.5"/>
<text text-anchor="middle" x="829.1353" y="-281.5" font-family="Helvetica,sans-Serif" font-size="10.00" fill="#000000">view/CustomWidgets.hpp</text>
</a>
</g>
</g>
    <!-- Node2&#45;&gt;Node10 -->
<g id="edge10" class="edge">
<title>Node2&#45;&gt;Node10</title>
<path fill="none" stroke="#191970" d="M1630.9767,-331.1352C1627.9898,-330.7152 1625.0233,-330.3312 1622.1353,-330 1359.1644,-299.8436 1044.7259,-289.3297 903.8384,-285.9563"/>
<polygon fill="#191970" stroke="#191970" points="903.6701,-282.4515 893.5909,-285.7163 903.5061,-289.4496 903.6701,-282.4515"/>
</g>
    <!-- Node5 -->
<g id="node6" class="node">
<title>Node5</title>
<g id="a_node6"><a xlink:href="../../d1/d25/_i_subject_8hpp.html" target="_top" xlink:title="../interfaces/ISubject.hpp">
<polygon fill="none" stroke="#000000" points="1902.1035,-110.5 1902.1035,-128.5 2028.167,-128.5 2028.167,-110.5 1902.1035,-110.5"/>
<text text-anchor="middle" x="1965.1353" y="-116.5" font-family="Helvetica,sans-Serif" font-size="10.00" fill="#000000">../interfaces/ISubject.hpp</text>
</a>
</g>
</g>
    <!-- Node4&#45;&gt;Node5 -->
<g id="edge5" class="edge">
<title>Node4&#45;&gt;Node5</title>
<path fill="none" stroke="#191970" d="M1852.5588,-275.383C1853.9928,-253.9135 1860.2298,-199.3952 1887.1353,-165 1898.2539,-150.7862 1915.1438,-140.1555 1930.3669,-132.7594"/>
<polygon fill="#191970" stroke="#191970" points="1931.9148,-135.9004 1939.5636,-128.5692 1929.0124,-129.5304 1931.9148,-135.9004"/>
</g>
    <!-- Node6 -->
<g id="node7" class="node">
<title>Node6</title>
<polygon fill="none" stroke="#bfbfbf" points="1998.4653,-55.5 1998.4653,-73.5 2027.8052,-73.5 2027.8052,-55.5 1998.4653,-55.5"/>
<text text-anchor="middle" x="2013.1353" y="-61.5" font-family="Helvetica,sans-Serif" font-size="10.00" fill="#000000">set</text>
</g>
    <!-- Node5&#45;&gt;Node6 -->
<g id="edge6" class="edge">
<title>Node5&#45;&gt;Node6</title>
<path fill="none" stroke="#191970" d="M1973.0615,-110.4179C1979.899,-102.5833 1989.9578,-91.0575 1998.2869,-81.5137"/>
<polygon fill="#191970" stroke="#191970" points="2001.0984,-83.6151 2005.0368,-73.7795 1995.8244,-79.0123 2001.0984,-83.6151"/>
</g>
    <!-- Node7 -->
<g id="node8" class="node">
<title>Node7</title>
<g id="a_node8"><a xlink:href="../../d5/d40/_i_observer_8hpp.html" target="_top" xlink:title="IObserver.hpp">
<polygon fill="none" stroke="#000000" points="2083.7266,-55.5 2083.7266,-73.5 2162.5439,-73.5 2162.5439,-55.5 2083.7266,-55.5"/>
<text text-anchor="middle" x="2123.1353" y="-61.5" font-family="Helvetica,sans-Serif" font-size="10.00" fill="#000000">IObserver.hpp</text>
</a>
</g>
</g>
    <!-- Node5&#45;&gt;Node7 -->
<g id="edge7" class="edge">
<title>Node5&#45;&gt;Node7</title>
<path fill="none" stroke="#191970" d="M1991.2257,-110.4179C2017.4914,-101.2748 2058.1984,-87.1046 2087.4444,-76.924"/>
<polygon fill="#191970" stroke="#191970" points="2088.9751,-80.0973 2097.2686,-73.5042 2086.6738,-73.4863 2088.9751,-80.0973"/>
</g>
    <!-- Node8 -->
<g id="node9" class="node">
<title>Node8</title>
<polygon fill="none" stroke="#bfbfbf" points="2132.5195,-.5 2132.5195,-18.5 2175.751,-18.5 2175.751,-.5 2132.5195,-.5"/>
<text text-anchor="middle" x="2154.1353" y="-6.5" font-family="Helvetica,sans-Serif" font-size="10.00" fill="#000000">mutex</text>
</g>
    <!-- Node7&#45;&gt;Node8 -->
<g id="edge8" class="edge">
<title>Node7&#45;&gt;Node8</title>
<path fill="none" stroke="#191970" d="M2128.2543,-55.4179C2132.4917,-47.8998 2138.6449,-36.9829 2143.8884,-27.6799"/>
<polygon fill="#191970" stroke="#191970" points="2147.0439,-29.2096 2148.905,-18.7795 2140.9458,-25.7724 2147.0439,-29.2096"/>
</g>
    <!-- Node9 -->
<g id="node10" class="node">
<title>Node9</title>
<polygon fill="none" stroke="#bfbfbf" points="2069.958,-.5 2069.958,-18.5 2114.3125,-18.5 2114.3125,-.5 2069.958,-.5"/>
<text text-anchor="middle" x="2092.1353" y="-6.5" font-family="Helvetica,sans-Serif" font-size="10.00" fill="#000000">thread</text>
</g>
    <!-- Node7&#45;&gt;Node9 -->
<g id="edge9" class="edge">
<title>Node7&#45;&gt;Node9</title>
<path fill="none" stroke="#191970" d="M2118.0162,-55.4179C2113.7788,-47.8998 2107.6256,-36.9829 2102.3821,-27.6799"/>
<polygon fill="#191970" stroke="#191970" points="2105.3247,-25.7724 2097.3655,-18.7795 2099.2266,-29.2096 2105.3247,-25.7724"/>
</g>
    <!-- Node10&#45;&gt;Node3 -->
<g id="edge15" class="edge">
<title>Node10&#45;&gt;Node3</title>
<path fill="none" stroke="#191970" d="M893.7378,-275.6565C958.5931,-266.7046 1061.3524,-252.32 1150.1353,-239 1151.4259,-238.8064 1152.732,-238.6092 1154.049,-238.4094"/>
<polygon fill="#191970" stroke="#191970" points="1154.9317,-241.815 1164.2848,-236.8381 1153.8695,-234.8961 1154.9317,-241.815"/>
</g>
    <!-- Node11 -->
<g id="node12" class="node">
<title>Node11</title>
<polygon fill="none" stroke="#bfbfbf" points="0,-220.5 0,-238.5 98.2705,-238.5 98.2705,-220.5 0,-220.5"/>
<text text-anchor="middle" x="49.1353" y="-226.5" font-family="Helvetica,sans-Serif" font-size="10.00" fill="#000000">gtkmm/expander.h</text>
</g>
    <!-- Node10&#45;&gt;Node11 -->
<g id="edge11" class="edge">
<title>Node10&#45;&gt;Node11</title>
<path fill="none" stroke="#191970" d="M764.7161,-282.5894C640.0198,-278.4227 356.8167,-266.68 108.745,-239.0767"/>
<polygon fill="#191970" stroke="#191970" points="108.7783,-235.5585 98.4499,-237.9197 107.9964,-242.5147 108.7783,-235.5585"/>
</g>
    <!-- Node12 -->
<g id="node13" class="node">
<title>Node12</title>
<polygon fill="none" stroke="#bfbfbf" points="115.9458,-220.5 115.9458,-238.5 240.3247,-238.5 240.3247,-220.5 115.9458,-220.5"/>
<text text-anchor="middle" x="178.1353" y="-226.5" font-family="Helvetica,sans-Serif" font-size="10.00" fill="#000000">gtkmm/scrolledwindow.h</text>
</g>
    <!-- Node10&#45;&gt;Node12 -->
<g id="edge12" class="edge">
<title>Node10&#45;&gt;Node12</title>
<path fill="none" stroke="#191970" d="M764.6587,-280.5984C659.3119,-273.9687 443.4931,-259.323 250.4957,-239.0943"/>
<polygon fill="#191970" stroke="#191970" points="250.7623,-235.6031 240.4502,-238.0341 250.0276,-242.5644 250.7623,-235.6031"/>
</g>
    <!-- Node13 -->
<g id="node14" class="node">
<title>Node13</title>
<polygon fill="none" stroke="#bfbfbf" points="258.6133,-220.5 258.6133,-238.5 369.6572,-238.5 369.6572,-220.5 258.6133,-220.5"/>
<text text-anchor="middle" x="314.1353" y="-226.5" font-family="Helvetica,sans-Serif" font-size="10.00" fill="#000000">gtkmm/checkbutton.h</text>
</g>
    <!-- Node10&#45;&gt;Node13 -->
<g id="edge13" class="edge">
<title>Node10&#45;&gt;Node13</title>
<path fill="none" stroke="#191970" d="M764.4258,-278.9308C678.8006,-271.3477 522.9059,-256.8022 380.2119,-239.2154"/>
<polygon fill="#191970" stroke="#191970" points="380.3167,-235.7016 369.9619,-237.9439 379.4549,-242.6484 380.3167,-235.7016"/>
</g>
    <!-- Node14 -->
<g id="node15" class="node">
<title>Node14</title>
<polygon fill="none" stroke="#bfbfbf" points="387.2314,-220.5 387.2314,-238.5 481.0391,-238.5 481.0391,-220.5 387.2314,-220.5"/>
<text text-anchor="middle" x="434.1353" y="-226.5" font-family="Helvetica,sans-Serif" font-size="10.00" fill="#000000">gtkmm/treeview.h</text>
</g>
    <!-- Node10&#45;&gt;Node14 -->
<g id="edge14" class="edge">
<title>Node10&#45;&gt;Node14</title>
<path fill="none" stroke="#191970" d="M764.6827,-276.5237C698.6155,-268.195 592.639,-254.4138 491.2788,-239.132"/>
<polygon fill="#191970" stroke="#191970" points="491.5815,-235.638 481.17,-237.6005 490.5329,-242.5591 491.5815,-235.638"/>
</g>
    <!-- Node15 -->
<g id="node16" class="node">
<title>Node15</title>
<polygon fill="none" stroke="#bfbfbf" points="499.5146,-220.5 499.5146,-238.5 572.7559,-238.5 572.7559,-220.5 499.5146,-220.5"/>
<text text-anchor="middle" x="536.1353" y="-226.5" font-family="Helvetica,sans-Serif" font-size="10.00" fill="#000000">gtkmm/box.h</text>
</g>
    <!-- Node10&#45;&gt;Node15 -->
<g id="edge16" class="edge">
<title>Node10&#45;&gt;Node15</title>
<path fill="none" stroke="#191970" d="M778.4582,-275.4933C730.6332,-266.9195 656.6599,-253.4677 582.734,-239.0844"/>
<polygon fill="#191970" stroke="#191970" points="583.2645,-235.622 572.7793,-237.1417 581.9237,-242.4924 583.2645,-235.622"/>
</g>
    <!-- Node16 -->
<g id="node17" class="node">
<title>Node16</title>
<polygon fill="none" stroke="#bfbfbf" points="590.7954,-220.5 590.7954,-238.5 673.4751,-238.5 673.4751,-220.5 590.7954,-220.5"/>
<text text-anchor="middle" x="632.1353" y="-226.5" font-family="Helvetica,sans-Serif" font-size="10.00" fill="#000000">gtkmm/frame.h</text>
</g>
    <!-- Node10&#45;&gt;Node16 -->
<g id="edge17" class="edge">
<title>Node10&#45;&gt;Node16</title>
<path fill="none" stroke="#191970" d="M796.6047,-275.4179C763.1407,-266.0751 710.8758,-251.4834 674.2681,-241.263"/>
<polygon fill="#191970" stroke="#191970" points="674.9596,-237.8222 664.3867,-238.5042 673.0772,-244.5644 674.9596,-237.8222"/>
</g>
    <!-- Node17 -->
<g id="node18" class="node">
<title>Node17</title>
<polygon fill="none" stroke="#bfbfbf" points="691.2388,-220.5 691.2388,-238.5 765.0317,-238.5 765.0317,-220.5 691.2388,-220.5"/>
<text text-anchor="middle" x="728.1353" y="-226.5" font-family="Helvetica,sans-Serif" font-size="10.00" fill="#000000">gtkmm/grid.h</text>
</g>
    <!-- Node10&#45;&gt;Node17 -->
<g id="edge18" class="edge">
<title>Node10&#45;&gt;Node17</title>
<path fill="none" stroke="#191970" d="M812.4572,-275.4179C796.5213,-266.7399 772.2694,-253.5334 753.8585,-243.5077"/>
<polygon fill="#191970" stroke="#191970" points="755.2943,-240.3043 744.8381,-238.5956 751.9465,-246.4519 755.2943,-240.3043"/>
</g>
    <!-- Node18 -->
<g id="node19" class="node">
<title>Node18</title>
<polygon fill="none" stroke="#bfbfbf" points="782.7881,-220.5 782.7881,-238.5 875.4824,-238.5 875.4824,-220.5 782.7881,-220.5"/>
<text text-anchor="middle" x="829.1353" y="-226.5" font-family="Helvetica,sans-Serif" font-size="10.00" fill="#000000">gtkmm/textview.h</text>
</g>
    <!-- Node10&#45;&gt;Node18 -->
<g id="edge19" class="edge">
<title>Node10&#45;&gt;Node18</title>
<path fill="none" stroke="#191970" d="M829.1353,-275.4179C829.1353,-268.2164 829.1353,-257.8962 829.1353,-248.8632"/>
<polygon fill="#191970" stroke="#191970" points="832.6354,-248.7794 829.1353,-238.7795 825.6354,-248.7795 832.6354,-248.7794"/>
</g>
    <!-- Node19 -->
<g id="node20" class="node">
<title>Node19</title>
<polygon fill="none" stroke="#bfbfbf" points="893.3916,-220.5 893.3916,-238.5 988.8789,-238.5 988.8789,-220.5 893.3916,-220.5"/>
<text text-anchor="middle" x="941.1353" y="-226.5" font-family="Helvetica,sans-Serif" font-size="10.00" fill="#000000">gtkmm/hvpaned.h</text>
</g>
    <!-- Node10&#45;&gt;Node19 -->
<g id="edge20" class="edge">
<title>Node10&#45;&gt;Node19</title>
<path fill="none" stroke="#191970" d="M847.6298,-275.4179C865.5444,-266.6205 892.9364,-253.1691 913.4497,-243.0956"/>
<polygon fill="#191970" stroke="#191970" points="915.1799,-246.1452 922.6133,-238.5956 912.0944,-239.8619 915.1799,-246.1452"/>
</g>
    <!-- Node20 -->
<g id="node21" class="node">
<title>Node20</title>
<polygon fill="none" stroke="#bfbfbf" points="1006.6206,-220.5 1006.6206,-238.5 1107.6499,-238.5 1107.6499,-220.5 1006.6206,-220.5"/>
<text text-anchor="middle" x="1057.1353" y="-226.5" font-family="Helvetica,sans-Serif" font-size="10.00" fill="#000000">gtkmm/listboxrow.h</text>
</g>
    <!-- Node10&#45;&gt;Node20 -->
<g id="edge21" class="edge">
<title>Node10&#45;&gt;Node20</title>
<path fill="none" stroke="#191970" d="M866.5295,-275.4795C905.7103,-266.0279 967.3609,-251.1561 1009.8838,-240.8984"/>
<polygon fill="#191970" stroke="#191970" points="1010.8202,-244.273 1019.7206,-238.5255 1009.1786,-237.4682 1010.8202,-244.273"/>
</g>
    <!-- Node21 -->
<g id="node22" class="node">
<title>Node21</title>
<g id="a_node22"><a xlink:href="../../de/d01/_prescription_8hpp.html" target="_top" xlink:title="../../model/Prescription.hpp">
<polygon fill="none" stroke="#000000" points="1255.6626,-165.5 1255.6626,-183.5 1390.6079,-183.5 1390.6079,-165.5 1255.6626,-165.5"/>
<text text-anchor="middle" x="1323.1353" y="-171.5" font-family="Helvetica,sans-Serif" font-size="10.00" fill="#000000">../../model/Prescription.hpp</text>
</a>
</g>
</g>
    <!-- Node10&#45;&gt;Node21 -->
<g id="edge22" class="edge">
<title>Node10&#45;&gt;Node21</title>
<path fill="none" stroke="#191970" d="M893.6451,-279.9979C952.8898,-274.5388 1042.5386,-262.9093 1117.1353,-239 1135.1166,-233.2367 1137.4905,-226.7236 1155.1353,-220 1192.88,-205.6172 1237.0121,-193.8491 1270.5702,-185.8866"/>
<polygon fill="#191970" stroke="#191970" points="1271.6841,-189.2207 1280.6265,-183.5389 1270.0927,-182.404 1271.6841,-189.2207"/>
</g>
    <!-- Node30 -->
<g id="node31" class="node">
<title>Node30</title>
<g id="a_node31"><a xlink:href="../../d8/d63/_date_8hpp.html" target="_top" xlink:title="../../utils/Date.hpp">
<polygon fill="none" stroke="#000000" points="1274.2266,-220.5 1274.2266,-238.5 1368.0439,-238.5 1368.0439,-220.5 1274.2266,-220.5"/>
<text text-anchor="middle" x="1321.1353" y="-226.5" font-family="Helvetica,sans-Serif" font-size="10.00" fill="#000000">../../utils/Date.hpp</text>
</a>
</g>
</g>
    <!-- Node10&#45;&gt;Node30 -->
<g id="edge39" class="edge">
<title>Node10&#45;&gt;Node30</title>
<path fill="none" stroke="#191970" d="M893.5609,-279.0769C976.6965,-271.7888 1126.0415,-257.7159 1263.7961,-239.1069"/>
<polygon fill="#191970" stroke="#191970" points="1264.679,-242.519 1274.1151,-237.7013 1263.7342,-235.5831 1264.679,-242.519"/>
</g>
    <!-- Node31 -->
<g id="node32" class="node">
<title>Node31</title>
<g id="a_node32"><a xlink:href="../../d0/da9/_patient_8hpp.html" target="_top" xlink:title="../../model/Patient.hpp">
<polygon fill="none" stroke="#000000" points="1386.4951,-220.5 1386.4951,-238.5 1499.7754,-238.5 1499.7754,-220.5 1386.4951,-220.5"/>
<text text-anchor="middle" x="1443.1353" y="-226.5" font-family="Helvetica,sans-Serif" font-size="10.00" fill="#000000">../../model/Patient.hpp</text>
</a>
</g>
</g>
    <!-- Node10&#45;&gt;Node31 -->
<g id="edge41" class="edge">
<title>Node10&#45;&gt;Node31</title>
<path fill="none" stroke="#191970" d="M893.7944,-280.3956C994.5667,-273.7194 1195.4084,-259.2959 1376.317,-239.0294"/>
<polygon fill="#191970" stroke="#191970" points="1376.7372,-242.5043 1386.2815,-237.9048 1375.9521,-235.5484 1376.7372,-242.5043"/>
</g>
    <!-- Node22 -->
<g id="node23" class="node">
<title>Node22</title>
<polygon fill="none" stroke="#bfbfbf" points="1686.5195,-.5 1686.5195,-18.5 1729.751,-18.5 1729.751,-.5 1686.5195,-.5"/>
<text text-anchor="middle" x="1708.1353" y="-6.5" font-family="Helvetica,sans-Serif" font-size="10.00" fill="#000000">vector</text>
</g>
    <!-- Node21&#45;&gt;Node22 -->
<g id="edge23" class="edge">
<title>Node21&#45;&gt;Node22</title>
<path fill="none" stroke="#191970" d="M1358.7104,-165.4344C1414.6331,-150.4726 1525.7407,-117.8482 1613.1353,-74 1640.9771,-60.031 1670.2235,-39.0851 1688.7874,-24.8834"/>
<polygon fill="#191970" stroke="#191970" points="1691.0025,-27.5947 1696.7556,-18.6979 1686.7101,-22.0652 1691.0025,-27.5947"/>
</g>
    <!-- Node23 -->
<g id="node24" class="node">
<title>Node23</title>
<polygon fill="none" stroke="#bfbfbf" points="1382.9087,-.5 1382.9087,-18.5 1423.3618,-18.5 1423.3618,-.5 1382.9087,-.5"/>
<text text-anchor="middle" x="1403.1353" y="-6.5" font-family="Helvetica,sans-Serif" font-size="10.00" fill="#000000">string</text>
</g>
    <!-- Node21&#45;&gt;Node23 -->
<g id="edge24" class="edge">
<title>Node21&#45;&gt;Node23</title>
<path fill="none" stroke="#191970" d="M1312.0571,-165.3548C1302.8651,-156.9895 1290.4687,-143.7064 1285.1353,-129 1279.821,-114.3464 1272.2361,-74.9273 1286.1353,-55 1296.385,-40.3049 1341.7287,-25.7178 1372.861,-17.1614"/>
<polygon fill="#191970" stroke="#191970" points="1374.0484,-20.4668 1382.8028,-14.4994 1372.2378,-13.705 1374.0484,-20.4668"/>
</g>
    <!-- Node24 -->
<g id="node25" class="node">
<title>Node24</title>
<polygon fill="none" stroke="#bfbfbf" points="1180.4087,-.5 1180.4087,-18.5 1215.8618,-18.5 1215.8618,-.5 1180.4087,-.5"/>
<text text-anchor="middle" x="1198.1353" y="-6.5" font-family="Helvetica,sans-Serif" font-size="10.00" fill="#000000">map</text>
</g>
    <!-- Node21&#45;&gt;Node24 -->
<g id="edge25" class="edge">
<title>Node21&#45;&gt;Node24</title>
<path fill="none" stroke="#191970" d="M1275.9871,-165.4403C1200.0844,-149.7836 1056.3296,-115.337 1027.1353,-74 1022.2638,-67.1024 1021.9888,-61.6949 1027.1353,-55 1044.475,-32.4431 1126.2441,-18.708 1170.1298,-12.8377"/>
<polygon fill="#191970" stroke="#191970" points="1170.6847,-16.2952 1180.1552,-11.5455 1169.7898,-9.3527 1170.6847,-16.2952"/>
</g>
    <!-- Node25 -->
<g id="node26" class="node">
<title>Node25</title>
<polygon fill="none" stroke="#bfbfbf" points="1036.2241,-55.5 1036.2241,-73.5 1170.0464,-73.5 1170.0464,-55.5 1036.2241,-55.5"/>
<text text-anchor="middle" x="1103.1353" y="-61.5" font-family="Helvetica,sans-Serif" font-size="10.00" fill="#000000">gtkmm/treemodelcolumn.h</text>
</g>
    <!-- Node21&#45;&gt;Node25 -->
<g id="edge26" class="edge">
<title>Node21&#45;&gt;Node25</title>
<path fill="none" stroke="#191970" d="M1301.6424,-165.3629C1281.0487,-156.4804 1249.191,-142.404 1222.1353,-129 1189.0464,-112.607 1151.7417,-92.0362 1127.8642,-78.5933"/>
<polygon fill="#191970" stroke="#191970" points="1129.5344,-75.5169 1119.1066,-73.6431 1126.0899,-81.6108 1129.5344,-75.5169"/>
</g>
    <!-- Node26 -->
<g id="node27" class="node">
<title>Node26</title>
<g id="a_node27"><a xlink:href="../../d3/d1b/_i_serializable_8hpp.html" target="_top" xlink:title="../interfaces/ISerializable.hpp">
<polygon fill="none" stroke="#000000" points="1459.9336,-55.5 1459.9336,-73.5 1604.3369,-73.5 1604.3369,-55.5 1459.9336,-55.5"/>
<text text-anchor="middle" x="1532.1353" y="-61.5" font-family="Helvetica,sans-Serif" font-size="10.00" fill="#000000">../interfaces/ISerializable.hpp</text>
</a>
</g>
</g>
    <!-- Node21&#45;&gt;Node26 -->
<g id="edge27" class="edge">
<title>Node21&#45;&gt;Node26</title>
<path fill="none" stroke="#191970" d="M1340.2386,-165.4982C1376.6743,-146.3216 1462.1652,-101.3263 1505.6817,-78.4229"/>
<polygon fill="#191970" stroke="#191970" points="1507.5765,-81.3809 1514.7956,-73.6261 1504.3163,-75.1864 1507.5765,-81.3809"/>
</g>
    <!-- Node27 -->
<g id="node28" class="node">
<title>Node27</title>
<g id="a_node28"><a xlink:href="../../dd/df9/_drug_8hpp.html" target="_top" xlink:title="Drug.hpp">
<polygon fill="none" stroke="#000000" points="1294.5664,-110.5 1294.5664,-128.5 1351.7041,-128.5 1351.7041,-110.5 1294.5664,-110.5"/>
<text text-anchor="middle" x="1323.1353" y="-116.5" font-family="Helvetica,sans-Serif" font-size="10.00" fill="#000000">Drug.hpp</text>
</a>
</g>
</g>
    <!-- Node21&#45;&gt;Node27 -->
<g id="edge31" class="edge">
<title>Node21&#45;&gt;Node27</title>
<path fill="none" stroke="#191970" d="M1323.1353,-165.4179C1323.1353,-158.2164 1323.1353,-147.8962 1323.1353,-138.8632"/>
<polygon fill="#191970" stroke="#191970" points="1326.6354,-138.7794 1323.1353,-128.7795 1319.6354,-138.7795 1326.6354,-138.7794"/>
</g>
    <!-- Node26&#45;&gt;Node22 -->
<g id="edge30" class="edge">
<title>Node26&#45;&gt;Node22</title>
<path fill="none" stroke="#191970" d="M1561.1981,-55.4179C1592.9141,-45.5066 1643.5331,-29.6882 1676.3017,-19.448"/>
<polygon fill="#191970" stroke="#191970" points="1677.7662,-22.6573 1686.2671,-16.3338 1675.6783,-15.9759 1677.7662,-22.6573"/>
</g>
    <!-- Node26&#45;&gt;Node23 -->
<g id="edge28" class="edge">
<title>Node26&#45;&gt;Node23</title>
<path fill="none" stroke="#191970" d="M1510.8335,-55.4179C1489.5747,-46.354 1456.7286,-32.3499 1432.8983,-22.1897"/>
<polygon fill="#191970" stroke="#191970" points="1434.1873,-18.9344 1423.6158,-18.232 1431.4419,-25.3736 1434.1873,-18.9344"/>
</g>
    <!-- Node26&#45;&gt;Node24 -->
<g id="edge29" class="edge">
<title>Node26&#45;&gt;Node24</title>
<path fill="none" stroke="#191970" d="M1477.356,-55.4795C1405.3529,-43.6227 1281.5481,-23.2356 1226.2452,-14.1289"/>
<polygon fill="#191970" stroke="#191970" points="1226.5695,-10.6352 1216.1337,-12.4638 1225.4321,-17.5422 1226.5695,-10.6352"/>
</g>
    <!-- Node27&#45;&gt;Node22 -->
<g id="edge33" class="edge">
<title>Node27&#45;&gt;Node22</title>
<path fill="none" stroke="#191970" d="M1340.9613,-110.4759C1375.8045,-92.8428 1449.6926,-55.4797 1451.1353,-55 1529.6493,-28.8944 1626.9133,-16.8809 1676.2328,-12.1381"/>
<polygon fill="#191970" stroke="#191970" points="1676.6531,-15.6143 1686.2886,-11.2088 1676.0089,-8.644 1676.6531,-15.6143"/>
</g>
    <!-- Node27&#45;&gt;Node23 -->
<g id="edge32" class="edge">
<title>Node27&#45;&gt;Node23</title>
<path fill="none" stroke="#191970" d="M1313.0747,-110.275C1300.194,-97.3195 1280.9177,-73.275 1293.1353,-55 1310.7006,-28.7256 1346.5347,-17.6055 1372.5422,-12.9104"/>
<polygon fill="#191970" stroke="#191970" points="1373.3272,-16.3299 1382.6589,-11.3128 1372.2353,-9.4155 1373.3272,-16.3299"/>
</g>
    <!-- Node27&#45;&gt;Node24 -->
<g id="edge34" class="edge">
<title>Node27&#45;&gt;Node24</title>
<path fill="none" stroke="#191970" d="M1312.906,-110.4982C1291.7552,-91.8856 1242.9657,-48.9508 1216.317,-25.4999"/>
<polygon fill="#191970" stroke="#191970" points="1218.3252,-22.6049 1208.5059,-18.6261 1213.7008,-27.86 1218.3252,-22.6049"/>
</g>
    <!-- Node27&#45;&gt;Node25 -->
<g id="edge35" class="edge">
<title>Node27&#45;&gt;Node25</title>
<path fill="none" stroke="#191970" d="M1294.3741,-112.3097C1257.4193,-103.071 1192.8256,-86.9226 1149.0401,-75.9762"/>
<polygon fill="#191970" stroke="#191970" points="1149.7601,-72.5486 1139.2097,-73.5186 1148.0623,-79.3396 1149.7601,-72.5486"/>
</g>
    <!-- Node27&#45;&gt;Node26 -->
<g id="edge38" class="edge">
<title>Node27&#45;&gt;Node26</title>
<path fill="none" stroke="#191970" d="M1351.7576,-111.9678C1386.8731,-102.7269 1446.7897,-86.9594 1487.8616,-76.151"/>
<polygon fill="#191970" stroke="#191970" points="1488.8322,-79.5148 1497.6122,-73.585 1487.0507,-72.7453 1488.8322,-79.5148"/>
</g>
    <!-- Node28 -->
<g id="node29" class="node">
<title>Node28</title>
<polygon fill="none" stroke="#bfbfbf" points="1302.3423,-55.5 1302.3423,-73.5 1403.9282,-73.5 1403.9282,-55.5 1302.3423,-55.5"/>
<text text-anchor="middle" x="1353.1353" y="-61.5" font-family="Helvetica,sans-Serif" font-size="10.00" fill="#000000">gtkmm/treemodel.h</text>
</g>
    <!-- Node27&#45;&gt;Node28 -->
<g id="edge36" class="edge">
<title>Node27&#45;&gt;Node28</title>
<path fill="none" stroke="#191970" d="M1328.0891,-110.4179C1332.1899,-102.8998 1338.1446,-91.9829 1343.219,-82.6799"/>
<polygon fill="#191970" stroke="#191970" points="1346.3578,-84.2344 1348.0737,-73.7795 1340.2125,-80.8824 1346.3578,-84.2344"/>
</g>
    <!-- Node29 -->
<g id="node30" class="node">
<title>Node29</title>
<polygon fill="none" stroke="#bfbfbf" points="887.9629,-55.5 887.9629,-73.5 942.3076,-73.5 942.3076,-55.5 887.9629,-55.5"/>
<text text-anchor="middle" x="915.1353" y="-61.5" font-family="Helvetica,sans-Serif" font-size="10.00" fill="#000000">iostream</text>
</g>
    <!-- Node27&#45;&gt;Node29 -->
<g id="edge37" class="edge">
<title>Node27&#45;&gt;Node29</title>
<path fill="none" stroke="#191970" d="M1294.4455,-115.6325C1222.3181,-105.9095 1033.4304,-80.4466 952.6535,-69.5576"/>
<polygon fill="#191970" stroke="#191970" points="952.8255,-66.0492 942.4475,-68.1818 951.8902,-72.9865 952.8255,-66.0492"/>
</g>
    <!-- Node30&#45;&gt;Node29 -->
<g id="edge40" class="edge">
<title>Node30&#45;&gt;Node29</title>
<path fill="none" stroke="#191970" d="M1274.1012,-221.3948C1271.0689,-220.9113 1268.0603,-220.4423 1265.1353,-220 1144.9981,-201.8362 1097.1197,-248.4753 994.1353,-184 955.9858,-160.1159 932.2937,-110.2792 921.6838,-83.1203"/>
<polygon fill="#191970" stroke="#191970" points="924.9152,-81.7684 918.1469,-73.6173 918.3549,-84.2101 924.9152,-81.7684"/>
</g>
    <!-- Node31&#45;&gt;Node21 -->
<g id="edge46" class="edge">
<title>Node31&#45;&gt;Node21</title>
<path fill="none" stroke="#191970" d="M1423.3197,-220.4179C1403.9517,-211.5409 1374.2449,-197.9253 1352.2035,-187.823"/>
<polygon fill="#191970" stroke="#191970" points="1353.5292,-184.5805 1342.9803,-183.5956 1350.6126,-190.944 1353.5292,-184.5805"/>
</g>
    <!-- Node31&#45;&gt;Node22 -->
<g id="edge42" class="edge">
<title>Node31&#45;&gt;Node22</title>
<path fill="none" stroke="#191970" d="M1456.198,-220.1919C1488.7587,-196.8118 1575.7515,-133.2437 1643.1353,-74 1660.7347,-58.5266 1679.6173,-39.4874 1692.4702,-26.1191"/>
<polygon fill="#191970" stroke="#191970" points="1695.2613,-28.2638 1699.6284,-18.6108 1690.1948,-23.4335 1695.2613,-28.2638"/>
</g>
    <!-- Node31&#45;&gt;Node23 -->
<g id="edge43" class="edge">
<title>Node31&#45;&gt;Node23</title>
<path fill="none" stroke="#191970" d="M1386.4114,-220.6055C1328.6519,-211.1427 1243.2959,-195.9235 1212.1353,-184 1122.7937,-149.8137 1074.432,-157.1483 1027.1353,-74 1022.9601,-66.6599 1021.5343,-61.3196 1027.1353,-55 1049.9817,-29.2222 1287.3314,-15.1601 1372.733,-10.9049"/>
<polygon fill="#191970" stroke="#191970" points="1373.0107,-14.3956 1382.8283,-10.4126 1372.6696,-7.4039 1373.0107,-14.3956"/>
</g>
    <!-- Node31&#45;&gt;Node25 -->
<g id="edge44" class="edge">
<title>Node31&#45;&gt;Node25</title>
<path fill="none" stroke="#191970" d="M1392.1425,-220.4283C1342.9148,-211.1775 1272.2498,-196.4553 1247.1353,-184 1193.5601,-157.43 1142.5781,-107.2843 1118.1606,-81.2051"/>
<polygon fill="#191970" stroke="#191970" points="1120.5457,-78.6284 1111.1966,-73.6438 1115.3967,-83.3706 1120.5457,-78.6284"/>
</g>
    <!-- Node31&#45;&gt;Node26 -->
<g id="edge45" class="edge">
<title>Node31&#45;&gt;Node26</title>
<path fill="none" stroke="#191970" d="M1448.1753,-220.1561C1462.4329,-193.7235 1503.2451,-118.0604 1522.2172,-82.8875"/>
<polygon fill="#191970" stroke="#191970" points="1525.4835,-84.2043 1527.1505,-73.7414 1519.3226,-80.8811 1525.4835,-84.2043"/>
</g>
    <!-- Node33 -->
<g id="node34" class="node">
<title>Node33</title>
<polygon fill="none" stroke="#bfbfbf" points="1942.9604,-275.5 1942.9604,-293.5 2047.3101,-293.5 2047.3101,-275.5 1942.9604,-275.5"/>
<text text-anchor="middle" x="1995.1353" y="-281.5" font-family="Helvetica,sans-Serif" font-size="10.00" fill="#000000">gtkmm&#45;3.0/gtkmm.h</text>
</g>
    <!-- Node32&#45;&gt;Node33 -->
<g id="edge48" class="edge">
<title>Node32&#45;&gt;Node33</title>
<path fill="none" stroke="#191970" d="M1990.126,-330.4179C1990.9117,-323.2164 1992.0375,-312.8962 1993.0229,-303.8632"/>
<polygon fill="#191970" stroke="#191970" points="1996.5177,-304.1001 1994.1229,-293.7795 1989.559,-303.3409 1996.5177,-304.1001"/>
</g>
    <!-- Node34&#45;&gt;Node22 -->
<g id="edge53" class="edge">
<title>Node34&#45;&gt;Node22</title>
<path fill="none" stroke="#191970" d="M1820.8353,-110.0606C1818.5109,-96.4078 1812.4687,-71.0336 1798.1353,-55 1782.5346,-37.5488 1758.682,-25.9155 1739.4514,-18.7831"/>
<polygon fill="#191970" stroke="#191970" points="1740.4794,-15.435 1729.8846,-15.4565 1738.1804,-22.0467 1740.4794,-15.435"/>
</g>
    <!-- Node34&#45;&gt;Node23 -->
<g id="edge51" class="edge">
<title>Node34&#45;&gt;Node23</title>
<path fill="none" stroke="#191970" d="M1801.104,-110.4943C1768.4649,-96.8166 1703.4028,-70.7376 1646.1353,-55 1570.88,-34.3192 1479.9332,-20.0617 1433.554,-13.5365"/>
<polygon fill="#191970" stroke="#191970" points="1433.941,-10.0568 1423.5556,-12.153 1432.9815,-16.9907 1433.941,-10.0568"/>
</g>
    <!-- Node34&#45;&gt;Node26 -->
<g id="edge54" class="edge">
<title>Node34&#45;&gt;Node26</title>
<path fill="none" stroke="#191970" d="M1778.0905,-111.1467C1727.8215,-101.6129 1645.4151,-85.9841 1589.9991,-75.4742"/>
<polygon fill="#191970" stroke="#191970" points="1590.4567,-71.9987 1579.9797,-73.5739 1589.1524,-78.8761 1590.4567,-71.9987"/>
</g>
    <!-- Node35 -->
<g id="node36" class="node">
<title>Node35</title>
<polygon fill="none" stroke="#bfbfbf" points="1850.5122,-55.5 1850.5122,-73.5 1903.7583,-73.5 1903.7583,-55.5 1850.5122,-55.5"/>
<text text-anchor="middle" x="1877.1353" y="-61.5" font-family="Helvetica,sans-Serif" font-size="10.00" fill="#000000">sqlite3.h</text>
</g>
    <!-- Node34&#45;&gt;Node35 -->
<g id="edge50" class="edge">
<title>Node34&#45;&gt;Node35</title>
<path fill="none" stroke="#191970" d="M1831.2174,-110.4179C1839.2103,-102.425 1851.0449,-90.5903 1860.6975,-80.9377"/>
<polygon fill="#191970" stroke="#191970" points="1863.2596,-83.3254 1867.8558,-73.7795 1858.3098,-78.3757 1863.2596,-83.3254"/>
</g>
    <!-- Node36 -->
<g id="node37" class="node">
<title>Node36</title>
<polygon fill="none" stroke="#bfbfbf" points="1921.7339,-55.5 1921.7339,-73.5 1980.5366,-73.5 1980.5366,-55.5 1921.7339,-55.5"/>
<text text-anchor="middle" x="1951.1353" y="-61.5" font-family="Helvetica,sans-Serif" font-size="10.00" fill="#000000">stdexcept</text>
</g>
    <!-- Node34&#45;&gt;Node36 -->
<g id="edge52" class="edge">
<title>Node34&#45;&gt;Node36</title>
<path fill="none" stroke="#191970" d="M1843.437,-110.4179C1864.4443,-101.4613 1896.7661,-87.6806 1920.5224,-77.552"/>
<polygon fill="#191970" stroke="#191970" points="1921.9758,-80.7372 1929.8019,-73.5956 1919.2304,-74.2981 1921.9758,-80.7372"/>
</g>
    <!-- Node37&#45;&gt;Node21 -->
<g id="edge58" class="edge">
<title>Node37&#45;&gt;Node21</title>
<path fill="none" stroke="#191970" d="M1590.8899,-275.3528C1574.689,-261.3665 1541.6465,-234.7408 1509.1353,-220 1472.7425,-203.4993 1429.5197,-192.4629 1393.9036,-185.3972"/>
<polygon fill="#191970" stroke="#191970" points="1394.5525,-181.9579 1384.0717,-183.5084 1393.2318,-188.8322 1394.5525,-181.9579"/>
</g>
    <!-- Node37&#45;&gt;Node22 -->
<g id="edge57" class="edge">
<title>Node37&#45;&gt;Node22</title>
<path fill="none" stroke="#191970" d="M1652.4141,-275.4424C1676.273,-268.8911 1703.4415,-257.7585 1722.1353,-239 1743.726,-217.3345 1746.1353,-205.0869 1746.1353,-174.5 1746.1353,-174.5 1746.1353,-174.5 1746.1353,-119.5 1746.1353,-85.4876 1729.7037,-48.6418 1718.4507,-27.3963"/>
<polygon fill="#191970" stroke="#191970" points="1721.4689,-25.6213 1713.5797,-18.5493 1715.3369,-28.9975 1721.4689,-25.6213"/>
</g>
    <!-- Node37&#45;&gt;Node23 -->
<g id="edge56" class="edge">
<title>Node37&#45;&gt;Node23</title>
<path fill="none" stroke="#191970" d="M1637.9003,-275.3766C1656.7139,-268.6426 1677.9567,-257.3642 1689.1353,-239 1707.755,-208.4115 1738.7278,-155.788 1613.1353,-55 1585.7693,-33.0389 1485.2246,-18.784 1433.8279,-12.7685"/>
<polygon fill="#191970" stroke="#191970" points="1433.9821,-9.2635 1423.6504,-11.6101 1433.1904,-16.2186 1433.9821,-9.2635"/>
</g>
    <!-- Node37&#45;&gt;Node27 -->
<g id="edge60" class="edge">
<title>Node37&#45;&gt;Node27</title>
<path fill="none" stroke="#191970" d="M1594.1538,-275.1041C1583.6655,-261.5056 1562.6578,-236.1984 1540.1353,-220 1482.7906,-178.7573 1405.8243,-147.9452 1360.644,-131.9153"/>
<polygon fill="#191970" stroke="#191970" points="1361.5555,-128.5264 1350.9607,-128.5338 1359.2477,-135.1351 1361.5555,-128.5264"/>
</g>
    <!-- Node37&#45;&gt;Node30 -->
<g id="edge61" class="edge">
<title>Node37&#45;&gt;Node30</title>
<path fill="none" stroke="#191970" d="M1555.2125,-275.4795C1506.4866,-265.9083 1429.4632,-250.7787 1377.1917,-240.5111"/>
<polygon fill="#191970" stroke="#191970" points="1377.5702,-237.0186 1367.0831,-238.5255 1376.221,-243.8874 1377.5702,-237.0186"/>
</g>
    <!-- Node37&#45;&gt;Node31 -->
<g id="edge59" class="edge">
<title>Node37&#45;&gt;Node31</title>
<path fill="none" stroke="#191970" d="M1575.0448,-275.4179C1548.7791,-266.2748 1508.0721,-252.1046 1478.8261,-241.924"/>
<polygon fill="#191970" stroke="#191970" points="1479.5967,-238.4863 1469.0019,-238.5042 1477.2954,-245.0973 1479.5967,-238.4863"/>
</g>
    <!-- Node38 -->
<g id="node39" class="node">
<title>Node38</title>
<g id="a_node39"><a xlink:href="../../d8/d3a/_time_8hpp.html" target="_top" xlink:title="../utils/Time.hpp">
<polygon fill="none" stroke="#000000" points="1594.0278,-220.5 1594.0278,-238.5 1680.2427,-238.5 1680.2427,-220.5 1594.0278,-220.5"/>
<text text-anchor="middle" x="1637.1353" y="-226.5" font-family="Helvetica,sans-Serif" font-size="10.00" fill="#000000">../utils/Time.hpp</text>
</a>
</g>
</g>
    <!-- Node37&#45;&gt;Node38 -->
<g id="edge62" class="edge">
<title>Node37&#45;&gt;Node38</title>
<path fill="none" stroke="#191970" d="M1607.0799,-275.4179C1612.0526,-267.8207 1619.2971,-256.7527 1625.4277,-247.3866"/>
<polygon fill="#191970" stroke="#191970" points="1628.5133,-249.0633 1631.0614,-238.7795 1622.6563,-245.2297 1628.5133,-249.0633"/>
</g>
    <!-- Node39&#45;&gt;Node5 -->
<g id="edge65" class="edge">
<title>Node39&#45;&gt;Node5</title>
<path fill="none" stroke="#191970" d="M1965.1353,-165.4179C1965.1353,-158.2164 1965.1353,-147.8962 1965.1353,-138.8632"/>
<polygon fill="#191970" stroke="#191970" points="1968.6354,-138.7794 1965.1353,-128.7795 1961.6354,-138.7795 1968.6354,-138.7794"/>
</g>
    <!-- Node39&#45;&gt;Node22 -->
<g id="edge66" class="edge">
<title>Node39&#45;&gt;Node22</title>
<path fill="none" stroke="#191970" d="M1991.3674,-165.4904C2007.7166,-158.3538 2027.4304,-146.6133 2037.1353,-129 2053.0071,-100.1944 2058.7396,-79.7978 2037.1353,-55 2017.7812,-32.7851 1819.6201,-17.0397 1740.5025,-11.5937"/>
<polygon fill="#191970" stroke="#191970" points="1740.3733,-8.0771 1730.1598,-10.894 1739.9007,-15.0611 1740.3733,-8.0771"/>
</g>
    <!-- Node39&#45;&gt;Node34 -->
<g id="edge64" class="edge">
<title>Node39&#45;&gt;Node34</title>
<path fill="none" stroke="#191970" d="M1941.5217,-165.4179C1918.0276,-156.3817 1881.767,-142.4353 1855.3705,-132.2828"/>
<polygon fill="#191970" stroke="#191970" points="1856.3738,-128.9188 1845.7839,-128.5956 1853.8609,-135.4522 1856.3738,-128.9188"/>
</g>
    <!-- Node40 -->
<g id="node41" class="node">
<title>Node40</title>
<polygon fill="none" stroke="#bfbfbf" points="2084.293,-110.5 2084.293,-128.5 2121.9775,-128.5 2121.9775,-110.5 2084.293,-110.5"/>
<text text-anchor="middle" x="2103.1353" y="-116.5" font-family="Helvetica,sans-Serif" font-size="10.00" fill="#000000">tuple</text>
</g>
    <!-- Node39&#45;&gt;Node40 -->
<g id="edge67" class="edge">
<title>Node39&#45;&gt;Node40</title>
<path fill="none" stroke="#191970" d="M1987.9231,-165.4179C2011.5773,-155.9905 2048.6412,-141.2187 2074.3149,-130.9864"/>
<polygon fill="#191970" stroke="#191970" points="2075.8853,-134.1283 2083.8789,-127.1746 2073.2937,-127.6257 2075.8853,-134.1283"/>
</g>
</g>
</svg>
        <g id="navigator" transform="translate(0 0)" fill="#404254">
                <rect fill="#f2f5e9" fill-opacity="0.5" stroke="#606060" stroke-width=".5" x="0" y="0" width="60" height="60"/>
                <use id="zoomplus" xlink:href="#zoomPlus" x="17" y="9" onmousedown="handleZoom(evt,'in')"/>
                <use id="zoomminus" xlink:href="#zoomMin" x="42" y="9" onmousedown="handleZoom(evt,'out')"/>
                <use id="reset" xlink:href="#resetDef" x="30" y="36" onmousedown="handleReset()"/>
                <g id="arrowUp" xlink:href="#dirArrow" transform="translate(30 24)" onmousedown="handlePan(0,-1)">
                  <use xlink:href="#rim" fill="#404040">
                        <set attributeName="fill" to="#808080" begin="arrowUp.mouseover" end="arrowUp.mouseout"/>
                  </use>
                  <path fill="none" stroke="white" stroke-width="1.5" d="M0,-3.0v7 M-2.5,-0.5L0,-3.0L2.5,-0.5"/>
                </g>
                <g id="arrowRight" xlink:href="#dirArrow" transform="rotate(90) translate(36 -43)" onmousedown="handlePan(1,0)">
                  <use xlink:href="#rim" fill="#404040">
                        <set attributeName="fill" to="#808080" begin="arrowRight.mouseover" end="arrowRight.mouseout"/>
                  </use>
                  <path fill="none" stroke="white" stroke-width="1.5" d="M0,-3.0v7 M-2.5,-0.5L0,-3.0L2.5,-0.5"/>
                </g>
                <g id="arrowDown" xlink:href="#dirArrow" transform="rotate(180) translate(-30 -48)" onmousedown="handlePan(0,1)">
                  <use xlink:href="#rim" fill="#404040">
                        <set attributeName="fill" to="#808080" begin="arrowDown.mouseover" end="arrowDown.mouseout"/>
                  </use>
                  <path fill="none" stroke="white" stroke-width="1.5" d="M0,-3.0v7 M-2.5,-0.5L0,-3.0L2.5,-0.5"/>
                </g>
                <g id="arrowLeft" xlink:href="#dirArrow" transform="rotate(270) translate(-36 17)" onmousedown="handlePan(-1,0)">
                  <use xlink:href="#rim" fill="#404040">
                        <set attributeName="fill" to="#808080" begin="arrowLeft.mouseover" end="arrowLeft.mouseout"/>
                  </use>
                  <path fill="none" stroke="white" stroke-width="1.5" d="M0,-3.0v7 M-2.5,-0.5L0,-3.0L2.5,-0.5"/>
                </g>
        </g>
        <svg viewBox="0 0 15 15" width="100%" height="30px" preserveAspectRatio="xMaxYMin meet">
         <g id="arrow_out" transform="scale(0.3 0.3)">
          <a xlink:href="_drug_window_8cpp__incl_org.svg" target="_base">
           <rect id="button" ry="5" rx="5" y="6" x="6" height="38" width="38"
                fill="#f2f5e9" fill-opacity="0.5" stroke="#606060" stroke-width="1.0"/>
           <path id="arrow"
             d="M 11.500037,31.436501 C 11.940474,20.09759 22.043105,11.32322 32.158766,21.979434 L 37.068811,17.246167 C 37.068811,17.246167 37.088388,32 37.088388,32 L 22.160133,31.978069 C 22.160133,31.978069 26.997745,27.140456 26.997745,27.140456 C 18.528582,18.264221 13.291696,25.230495 11.500037,31.436501 z"
             style="fill:#404040;"/>
          </a>
         </g>
        </svg>
</svg>
