<?xml version="1.0" encoding="UTF-8" standalone="no"?>
<!DOCTYPE svg PUBLIC "-//W3C//DTD SVG 1.1//EN"
        "http://www.w3.org/Graphics/SVG/1.1/DTD/svg11.dtd">
<!-- Generated by graphviz version 2.40.1 (20161225.0304)
 -->
<!-- Title: Grafico della gerarchia delle classi Pages: 1 -->
<svg width="443pt" height="370pt"
     viewBox="0.00 0.00 443.13 370.00" xmlns="http://www.w3.org/2000/svg" xmlns:xlink="http://www.w3.org/1999/xlink">
    <g id="graph0" class="graph" transform="scale(1 1) rotate(0) translate(4 366)">
        <title>Grafico della gerarchia delle classi</title>
        <!-- Node35 -->
        <g id="node1" class="node">
            <title>Node35</title>
            <g id="a_node1">
                <a xlink:href="d7/d9e/classmm_1_1_i_observer.html" target="_top" xlink:title="mm::IObserver">
                    <polygon fill="none" stroke="#000000"
                             points="154.2705,-343.5 154.2705,-361.5 236.3887,-361.5 236.3887,-343.5 154.2705,-343.5"/>
                    <text text-anchor="middle" x="195.3296" y="-349.5" font-family="Helvetica,sans-Serif"
                          font-size="10.00" fill="#000000">mm::IObserver
                    </text>
                </a>
            </g>
        </g>
        <!-- Node12 -->
        <g id="node2" class="node">
            <title>Node12</title>
            <g id="a_node2">
                <a xlink:href="d7/dcd/classmm_1_1_drug_window.html" target="_top" xlink:title="mm::DrugWindow">
                    <polygon fill="none" stroke="#000000"
                             points="318.8193,-264.5 318.8193,-282.5 414.2773,-282.5 414.2773,-264.5 318.8193,-264.5"/>
                    <text text-anchor="middle" x="366.5483" y="-270.5" font-family="Helvetica,sans-Serif"
                          font-size="10.00" fill="#000000">mm::DrugWindow
                    </text>
                </a>
            </g>
        </g>
        <!-- Node35&#45;&gt;Node12 -->
        <g id="edge1" class="edge">
            <title>Node35&#45;&gt;Node12</title>
            <path fill="none" stroke="#191970"
                  d="M246.4659,-341.9157C251.8853,-339.8583 257.1648,-337.4103 261.9697,-334.5 282.1463,-322.2792 278.0834,-308.1877 297.9697,-295.5 306.6133,-289.9853 316.7558,-285.7462 326.5501,-282.5314"/>
            <polygon fill="#191970" stroke="#191970"
                     points="245.0011,-338.7153 236.6326,-345.2128 247.2265,-345.3522 245.0011,-338.7153"/>
        </g>
        <!-- Node14 -->
        <g id="node3" class="node">
            <title>Node14</title>
            <g id="a_node3">
                <a xlink:href="d7/dfd/classmm_1_1_main_window.html" target="_top" xlink:title="mm::MainWindow">
                    <polygon fill="none" stroke="#000000"
                             points="318.8193,-220.5 318.8193,-238.5 414.2773,-238.5 414.2773,-220.5 318.8193,-220.5"/>
                    <text text-anchor="middle" x="366.5483" y="-226.5" font-family="Helvetica,sans-Serif"
                          font-size="10.00" fill="#000000">mm::MainWindow
                    </text>
                </a>
            </g>
        </g>
        <!-- Node35&#45;&gt;Node14 -->
        <g id="edge2" class="edge">
            <title>Node35&#45;&gt;Node14</title>
            <path fill="none" stroke="#191970"
                  d="M246.2547,-343.9089C251.9438,-341.4992 257.3447,-338.4235 261.9697,-334.5 291.3935,-309.5394 269.8114,-281.8799 297.9697,-255.5 306.054,-247.9264 316.5639,-242.4976 326.917,-238.6306"/>
            <polygon fill="#191970" stroke="#191970"
                     points="244.7508,-340.7285 236.4942,-347.3678 247.089,-347.3265 244.7508,-340.7285"/>
        </g>
        <!-- Node36 -->
        <g id="node4" class="node">
            <title>Node36</title>
            <g id="a_node4">
                <a xlink:href="df/d1a/classmm_1_1_med_h.html" target="_top"
                   xlink:title="Classe che rappresenta il programma in se. ">
                    <polygon fill="none" stroke="#000000"
                             points="334.1025,-343.5 334.1025,-361.5 398.9941,-361.5 398.9941,-343.5 334.1025,-343.5"/>
                    <text text-anchor="middle" x="366.5483" y="-349.5" font-family="Helvetica,sans-Serif"
                          font-size="10.00" fill="#000000">mm::MedH
                    </text>
                </a>
            </g>
        </g>
        <!-- Node35&#45;&gt;Node36 -->
        <g id="edge3" class="edge">
            <title>Node35&#45;&gt;Node36</title>
            <path fill="none" stroke="#8b1a1a" d="M246.9103,-352.5C275.2218,-352.5 309.4638,-352.5 334.0476,-352.5"/>
            <polygon fill="#8b1a1a" stroke="#8b1a1a"
                     points="246.7769,-349.0001 236.7769,-352.5 246.7768,-356.0001 246.7769,-349.0001"/>
        </g>
        <!-- Node15 -->
        <g id="node5" class="node">
            <title>Node15</title>
            <g id="a_node5">
                <a xlink:href="da/d81/classmm_1_1_patient_window.html" target="_top" xlink:title="mm::PatientWindow">
                    <polygon fill="none" stroke="#000000"
                             points="314.0903,-169.5 314.0903,-187.5 419.0063,-187.5 419.0063,-169.5 314.0903,-169.5"/>
                    <text text-anchor="middle" x="366.5483" y="-175.5" font-family="Helvetica,sans-Serif"
                          font-size="10.00" fill="#000000">mm::PatientWindow
                    </text>
                </a>
            </g>
        </g>
        <!-- Node35&#45;&gt;Node15 -->
        <g id="edge4" class="edge">
            <title>Node35&#45;&gt;Node15</title>
            <path fill="none" stroke="#191970"
                  d="M245.9709,-344.9009C251.8839,-342.3393 257.4184,-338.9571 261.9697,-334.5 302.6656,-294.6466 261.1221,-254.9361 297.9697,-211.5 307.4573,-200.316 321.6104,-192.6265 334.5994,-187.5038"/>
            <polygon fill="#191970" stroke="#191970"
                     points="244.7022,-341.6373 236.4542,-348.2872 247.0489,-348.2322 244.7022,-341.6373"/>
        </g>
        <!-- Node16 -->
        <g id="node6" class="node">
            <title>Node16</title>
            <g id="a_node6">
                <a xlink:href="da/d8f/classmm_1_1_prescription_window.html" target="_top"
                   xlink:title="mm::PrescriptionWindow">
                    <polygon fill="none" stroke="#000000"
                             points="303.2578,-304.5 303.2578,-322.5 429.8389,-322.5 429.8389,-304.5 303.2578,-304.5"/>
                    <text text-anchor="middle" x="366.5483" y="-310.5" font-family="Helvetica,sans-Serif"
                          font-size="10.00" fill="#000000">mm::PrescriptionWindow
                    </text>
                </a>
            </g>
        </g>
        <!-- Node35&#45;&gt;Node16 -->
        <g id="edge5" class="edge">
            <title>Node35&#45;&gt;Node16</title>
            <path fill="none" stroke="#191970"
                  d="M245.073,-341.1695C271.0514,-335.2522 302.4085,-328.1097 326.7561,-322.5638"/>
            <polygon fill="#191970" stroke="#191970"
                     points="244.0139,-337.821 235.041,-343.4546 245.5686,-344.6462 244.0139,-337.821"/>
        </g>
        <!-- Node30 -->
        <g id="node7" class="node">
            <title>Node30</title>
            <g id="a_node7">
                <a xlink:href="dc/df3/classmm_1_1_i_serializable.html" target="_top"
                   xlink:title="Funziona come un interfaccia, qualunque classe che erediti da questa potrà essere letta o scritta nel...">
                    <polygon fill="none" stroke="#000000"
                             points="0,-232.5 0,-250.5 92.6895,-250.5 92.6895,-232.5 0,-232.5"/>
                    <text text-anchor="middle" x="46.3447" y="-238.5" font-family="Helvetica,sans-Serif"
                          font-size="10.00" fill="#000000">mm::ISerializable
                    </text>
                </a>
            </g>
        </g>
        <!-- Node29 -->
        <g id="node8" class="node">
            <title>Node29</title>
            <g id="a_node8">
                <a xlink:href="de/d0e/structmm_1_1model_1_1authentication_1_1_login.html" target="_top"
                   xlink:title="classe che rappresenta la una sessione di login ">
                    <polygon fill="none" stroke="#000000"
                             points="128.6895,-148.5 128.6895,-176.5 261.9697,-176.5 261.9697,-148.5 128.6895,-148.5"/>
                    <text text-anchor="start" x="136.6895" y="-164.5" font-family="Helvetica,sans-Serif"
                          font-size="10.00" fill="#000000">mm::model::authentication
                    </text>
                    <text text-anchor="middle" x="195.3296" y="-154.5" font-family="Helvetica,sans-Serif"
                          font-size="10.00" fill="#000000">::Login
                    </text>
                </a>
            </g>
        </g>
        <!-- Node30&#45;&gt;Node29 -->
        <g id="edge6" class="edge">
            <title>Node30&#45;&gt;Node29</title>
            <path fill="none" stroke="#191970"
                  d="M66.2081,-226.2237C82.3855,-214.2871 106.1558,-197.8693 128.6895,-186.5 135.8256,-182.8995 143.6341,-179.5801 151.3134,-176.6313"/>
            <polygon fill="#191970" stroke="#191970"
                     points="63.9597,-223.5348 58.0578,-232.3335 68.1585,-229.1357 63.9597,-223.5348"/>
        </g>
        <!-- Node31 -->
        <g id="node9" class="node">
            <title>Node31</title>
            <g id="a_node9">
                <a xlink:href="d6/d2e/classmm_1_1model_1_1_doctor.html" target="_top" xlink:title="mm::model::Doctor">
                    <polygon fill="none" stroke="#000000"
                             points="145.0981,-195.5 145.0981,-213.5 245.561,-213.5 245.561,-195.5 145.0981,-195.5"/>
                    <text text-anchor="middle" x="195.3296" y="-201.5" font-family="Helvetica,sans-Serif"
                          font-size="10.00" fill="#000000">mm::model::Doctor
                    </text>
                </a>
            </g>
        </g>
        <!-- Node30&#45;&gt;Node31 -->
        <g id="edge7" class="edge">
            <title>Node30&#45;&gt;Node31</title>
            <path fill="none" stroke="#191970"
                  d="M92.6373,-230.0033C114.0104,-224.6954 139.0169,-218.4851 159.0022,-213.5218"/>
            <polygon fill="#191970" stroke="#191970"
                     points="91.6521,-226.6416 82.7905,-232.4488 93.3393,-233.4353 91.6521,-226.6416"/>
        </g>
        <!-- Node32 -->
        <g id="node10" class="node">
            <title>Node32</title>
            <g id="a_node10">
                <a xlink:href="db/d9b/classmm_1_1model_1_1_drug.html" target="_top" xlink:title="mm::model::Drug">
                    <polygon fill="none" stroke="#000000"
                             points="148.9873,-306.5 148.9873,-324.5 241.6719,-324.5 241.6719,-306.5 148.9873,-306.5"/>
                    <text text-anchor="middle" x="195.3296" y="-312.5" font-family="Helvetica,sans-Serif"
                          font-size="10.00" fill="#000000">mm::model::Drug
                    </text>
                </a>
            </g>
        </g>
        <!-- Node30&#45;&gt;Node32 -->
        <g id="edge8" class="edge">
            <title>Node30&#45;&gt;Node32</title>
            <path fill="none" stroke="#191970"
                  d="M65.0963,-256.9503C81.1145,-269.4631 105.226,-286.7245 128.6895,-297.5 136.4217,-301.051 144.9909,-304.0169 153.3381,-306.449"/>
            <polygon fill="#191970" stroke="#191970"
                     points="67.0851,-254.0596 57.0854,-250.5587 62.7193,-259.5314 67.0851,-254.0596"/>
        </g>
        <!-- Node33 -->
        <g id="node11" class="node">
            <title>Node33</title>
            <g id="a_node11">
                <a xlink:href="d6/d4a/classmm_1_1model_1_1_patient.html" target="_top" xlink:title="mm::model::Patient">
                    <polygon fill="none" stroke="#000000"
                             points="144.2583,-269.5 144.2583,-287.5 246.4009,-287.5 246.4009,-269.5 144.2583,-269.5"/>
                    <text text-anchor="middle" x="195.3296" y="-275.5" font-family="Helvetica,sans-Serif"
                          font-size="10.00" fill="#000000">mm::model::Patient
                    </text>
                </a>
            </g>
        </g>
        <!-- Node30&#45;&gt;Node33 -->
        <g id="edge9" class="edge">
            <title>Node30&#45;&gt;Node33</title>
            <path fill="none" stroke="#191970"
                  d="M92.6373,-252.9967C114.0104,-258.3046 139.0169,-264.5149 159.0022,-269.4782"/>
            <polygon fill="#191970" stroke="#191970"
                     points="93.3393,-249.5647 82.7905,-250.5512 91.6521,-256.3584 93.3393,-249.5647"/>
        </g>
        <!-- Node34 -->
        <g id="node12" class="node">
            <title>Node34</title>
            <g id="a_node12">
                <a xlink:href="db/d61/classmm_1_1model_1_1_prescription.html" target="_top"
                   xlink:title="mm::model::Prescription">
                    <polygon fill="none" stroke="#000000"
                             points="133.4258,-232.5 133.4258,-250.5 257.2334,-250.5 257.2334,-232.5 133.4258,-232.5"/>
                    <text text-anchor="middle" x="195.3296" y="-238.5" font-family="Helvetica,sans-Serif"
                          font-size="10.00" fill="#000000">mm::model::Prescription
                    </text>
                </a>
            </g>
        </g>
        <!-- Node30&#45;&gt;Node34 -->
        <g id="edge10" class="edge">
            <title>Node30&#45;&gt;Node34</title>
            <path fill="none" stroke="#191970" d="M103.1302,-241.5C112.9598,-241.5 123.2262,-241.5 133.1892,-241.5"/>
            <polygon fill="#191970" stroke="#191970"
                     points="103.0757,-238.0001 93.0757,-241.5 103.0757,-245.0001 103.0757,-238.0001"/>
        </g>
        <!-- Node28 -->
        <g id="node13" class="node">
            <title>Node28</title>
            <g id="a_node13">
                <a xlink:href="d1/dd2/classmm_1_1_i_subject.html" target="_top" xlink:title="mm::ISubject">
                    <polygon fill="none" stroke="#000000"
                             points="9.1699,-111.5 9.1699,-129.5 83.5195,-129.5 83.5195,-111.5 9.1699,-111.5"/>
                    <text text-anchor="middle" x="46.3447" y="-117.5" font-family="Helvetica,sans-Serif"
                          font-size="10.00" fill="#000000">mm::ISubject
                    </text>
                </a>
            </g>
        </g>
        <!-- Node28&#45;&gt;Node29 -->
        <g id="edge15" class="edge">
            <title>Node28&#45;&gt;Node29</title>
            <path fill="none" stroke="#191970"
                  d="M88.3781,-132.3495C106.1559,-137.3612 126.9997,-143.2373 145.541,-148.4642"/>
            <polygon fill="#191970" stroke="#191970"
                     points="88.8803,-128.8547 78.3057,-129.5101 86.9809,-135.5921 88.8803,-128.8547"/>
        </g>
        <!-- Node6 -->
        <g id="node14" class="node">
            <title>Node6</title>
            <g id="a_node14">
                <a xlink:href="df/d35/classmm_1_1_dialog.html" target="_top" xlink:title="mm::Dialog">
                    <polygon fill="none" stroke="#000000"
                             points="162.0464,-74.5 162.0464,-92.5 228.6128,-92.5 228.6128,-74.5 162.0464,-74.5"/>
                    <text text-anchor="middle" x="195.3296" y="-80.5" font-family="Helvetica,sans-Serif"
                          font-size="10.00" fill="#000000">mm::Dialog
                    </text>
                </a>
            </g>
        </g>
        <!-- Node28&#45;&gt;Node6 -->
        <g id="edge11" class="edge">
            <title>Node28&#45;&gt;Node6</title>
            <path fill="none" stroke="#191970"
                  d="M92.7506,-108.9752C115.1117,-103.4219 141.4285,-96.8862 161.8074,-91.8251"/>
            <polygon fill="#191970" stroke="#191970"
                     points="91.6521,-105.6416 82.7905,-111.4488 93.3393,-112.4353 91.6521,-105.6416"/>
        </g>
        <!-- Node11 -->
        <g id="node18" class="node">
            <title>Node11</title>
            <g id="a_node18">
                <a xlink:href="d1/d71/classmm_1_1_window.html" target="_top" xlink:title="mm::Window">
                    <polygon fill="none" stroke="#000000"
                             points="158.438,-111.5 158.438,-129.5 232.2212,-129.5 232.2212,-111.5 158.438,-111.5"/>
                    <text text-anchor="middle" x="195.3296" y="-117.5" font-family="Helvetica,sans-Serif"
                          font-size="10.00" fill="#000000">mm::Window
                    </text>
                </a>
            </g>
        </g>
        <!-- Node28&#45;&gt;Node11 -->
        <g id="edge16" class="edge">
            <title>Node28&#45;&gt;Node11</title>
            <path fill="none" stroke="#191970" d="M93.8154,-120.5C114.6862,-120.5 138.8306,-120.5 158.3351,-120.5"/>
            <polygon fill="#191970" stroke="#191970"
                     points="93.5556,-117.0001 83.5556,-120.5 93.5555,-124.0001 93.5556,-117.0001"/>
        </g>
        <!-- Node7 -->
        <g id="node15" class="node">
            <title>Node7</title>
            <g id="a_node15">
                <a xlink:href="d7/d05/classmm_1_1_about_dialog.html" target="_top" xlink:title="mm::AboutDialog">
                    <polygon fill="none" stroke="#000000"
                             points="320.1987,-93.5 320.1987,-111.5 412.8979,-111.5 412.8979,-93.5 320.1987,-93.5"/>
                    <text text-anchor="middle" x="366.5483" y="-99.5" font-family="Helvetica,sans-Serif"
                          font-size="10.00" fill="#000000">mm::AboutDialog
                    </text>
                </a>
            </g>
        </g>
        <!-- Node6&#45;&gt;Node7 -->
        <g id="edge12" class="edge">
            <title>Node6&#45;&gt;Node7</title>
            <path fill="none" stroke="#191970"
                  d="M238.9442,-88.3399C263.7052,-91.0876 294.6964,-94.5266 319.9361,-97.3275"/>
            <polygon fill="#191970" stroke="#191970"
                     points="239.0738,-84.8329 228.7487,-87.2085 238.3017,-91.7902 239.0738,-84.8329"/>
        </g>
        <!-- Node8 -->
        <g id="node16" class="node">
            <title>Node8</title>
            <g id="a_node16">
                <a xlink:href="d7/d32/classmm_1_1_add_patient_dialog.html" target="_top"
                   xlink:title="mm::AddPatientDialog">
                    <polygon fill="none" stroke="#000000"
                             points="308.8022,-56.5 308.8022,-74.5 424.2944,-74.5 424.2944,-56.5 308.8022,-56.5"/>
                    <text text-anchor="middle" x="366.5483" y="-62.5" font-family="Helvetica,sans-Serif"
                          font-size="10.00" fill="#000000">mm::AddPatientDialog
                    </text>
                </a>
            </g>
        </g>
        <!-- Node6&#45;&gt;Node8 -->
        <g id="edge13" class="edge">
            <title>Node6&#45;&gt;Node8</title>
            <path fill="none" stroke="#191970"
                  d="M238.7506,-78.9352C259.9447,-76.7071 285.7383,-73.9954 308.588,-71.5933"/>
            <polygon fill="#191970" stroke="#191970"
                     points="238.328,-75.4603 228.7487,-79.9867 239.0599,-82.4219 238.328,-75.4603"/>
        </g>
        <!-- Node9 -->
        <g id="node17" class="node">
            <title>Node9</title>
            <g id="a_node17">
                <a xlink:href="db/d16/classmm_1_1_add_prescription_dialog.html" target="_top"
                   xlink:title="mm::AddPrescriptionDialog">
                    <polygon fill="none" stroke="#000000"
                             points="297.9697,-19.5 297.9697,-37.5 435.127,-37.5 435.127,-19.5 297.9697,-19.5"/>
                    <text text-anchor="middle" x="366.5483" y="-25.5" font-family="Helvetica,sans-Serif"
                          font-size="10.00" fill="#000000">mm::AddPrescriptionDialog
                    </text>
                </a>
            </g>
        </g>
        <!-- Node6&#45;&gt;Node9 -->
        <g id="edge14" class="edge">
            <title>Node6&#45;&gt;Node9</title>
            <path fill="none" stroke="#191970"
                  d="M238.4669,-73.2037C246.3743,-70.9351 254.4884,-68.3479 261.9697,-65.5 278.6879,-59.1359 281.2722,-53.9181 297.9697,-47.5 307.7719,-43.7323 318.6252,-40.372 328.7511,-37.5638"/>
            <polygon fill="#191970" stroke="#191970"
                     points="237.3429,-69.8826 228.6245,-75.9026 239.1941,-76.6334 237.3429,-69.8826"/>
        </g>
        <!-- Node11&#45;&gt;Node12 -->
        <g id="edge17" class="edge">
            <title>Node11&#45;&gt;Node12</title>
            <path fill="none" stroke="#191970"
                  d="M242.4384,-127.6335C249.634,-130.4066 256.4793,-134.2315 261.9697,-139.5 298.7815,-174.8237 262.4501,-211.8773 297.9697,-248.5 304.9397,-255.6864 314.1386,-260.8182 323.5271,-264.4791"/>
            <polygon fill="#191970" stroke="#191970"
                     points="243.0941,-124.1691 232.5035,-124.4672 240.9685,-130.8385 243.0941,-124.1691"/>
        </g>
        <!-- Node11&#45;&gt;Node14 -->
        <g id="edge19" class="edge">
            <title>Node11&#45;&gt;Node14</title>
            <path fill="none" stroke="#191970"
                  d="M242.161,-129.0586C249.2203,-131.6654 256.0942,-135.0655 261.9697,-139.5 286.1863,-157.7771 275.2795,-177.3593 297.9697,-197.5 309.466,-207.7045 324.7785,-215.2656 338.0176,-220.4679"/>
            <polygon fill="#191970" stroke="#191970"
                     points="243.0869,-125.6802 232.4961,-125.9728 240.9578,-132.3485 243.0869,-125.6802"/>
        </g>
        <!-- Node11&#45;&gt;Node15 -->
        <g id="edge20" class="edge">
            <title>Node11&#45;&gt;Node15</title>
            <path fill="none" stroke="#191970"
                  d="M241.9542,-132.4511C248.7458,-134.5779 255.5936,-136.9408 261.9697,-139.5 278.7595,-146.2388 281.2003,-151.7106 297.9697,-158.5 308.3157,-162.6887 319.8633,-166.4042 330.4888,-169.4614"/>
            <polygon fill="#191970" stroke="#191970"
                     points="242.6888,-129.0177 232.1053,-129.5085 240.6849,-135.7248 242.6888,-129.0177"/>
        </g>
        <!-- Node11&#45;&gt;Node16 -->
        <g id="edge21" class="edge">
            <title>Node11&#45;&gt;Node16</title>
            <path fill="none" stroke="#191970"
                  d="M241.8743,-126.8584C249.3828,-129.6994 256.4799,-133.7479 261.9697,-139.5 310.2005,-190.0351 250.2316,-241.4993 297.9697,-292.5 302.7348,-297.5908 308.6968,-301.4592 315.104,-304.3965"/>
            <polygon fill="#191970" stroke="#191970"
                     points="242.8215,-123.4878 232.2335,-123.8681 240.7477,-130.1735 242.8215,-123.4878"/>
        </g>
        <!-- Node13 -->
        <g id="node19" class="node">
            <title>Node13</title>
            <g id="a_node19">
                <a xlink:href="d3/d0c/classmm_1_1_login_window.html" target="_top" xlink:title="mm::LoginWindow">
                    <polygon fill="none" stroke="#000000"
                             points="317.4229,-130.5 317.4229,-148.5 415.6738,-148.5 415.6738,-130.5 317.4229,-130.5"/>
                    <text text-anchor="middle" x="366.5483" y="-136.5" font-family="Helvetica,sans-Serif"
                          font-size="10.00" fill="#000000">mm::LoginWindow
                    </text>
                </a>
            </g>
        </g>
        <!-- Node11&#45;&gt;Node13 -->
        <g id="edge18" class="edge">
            <title>Node11&#45;&gt;Node13</title>
            <path fill="none" stroke="#191970"
                  d="M242.4392,-125.7277C265.6418,-128.3025 293.61,-131.4061 317.1181,-134.0148"/>
            <polygon fill="#191970" stroke="#191970"
                     points="242.8066,-122.2471 232.4815,-124.6227 242.0344,-129.2044 242.8066,-122.2471"/>
        </g>
        <!-- Node4 -->
        <g id="node20" class="node">
            <title>Node4</title>
            <polygon fill="none" stroke="#bfbfbf"
                     points="18.0566,-56.5 18.0566,-74.5 74.6328,-74.5 74.6328,-56.5 18.0566,-56.5"/>
            <text text-anchor="middle" x="46.3447" y="-62.5" font-family="Helvetica,sans-Serif" font-size="10.00"
                  fill="#000000">trackable
            </text>
        </g>
        <!-- Node4&#45;&gt;Node6 -->
        <g id="edge23" class="edge">
            <title>Node4&#45;&gt;Node6</title>
            <path fill="none" stroke="#191970"
                  d="M84.8335,-70.1501C108.6791,-73.0311 139.0052,-76.695 161.8524,-79.4554"/>
            <polygon fill="#191970" stroke="#191970"
                     points="85.066,-66.6528 74.7183,-68.928 84.2263,-73.6023 85.066,-66.6528"/>
        </g>
        <!-- Node4&#45;&gt;Node11 -->
        <g id="edge25" class="edge">
            <title>Node4&#45;&gt;Node11</title>
            <path fill="none" stroke="#191970"
                  d="M73.5224,-79.0222C89.3618,-86.5698 109.8664,-95.7768 128.6895,-102.5 138.1695,-105.8861 148.6032,-108.988 158.3439,-111.6277"/>
            <polygon fill="#191970" stroke="#191970"
                     points="74.8463,-75.7748 64.3197,-74.5743 71.8001,-82.0773 74.8463,-75.7748"/>
        </g>
        <!-- Node0 -->
        <g id="node21" class="node">
            <title>Node0</title>
            <g id="a_node21">
                <a xlink:href="d0/d52/structmm_1_1_date_controller.html" target="_top" xlink:title="mm::DateController">
                    <polygon fill="none" stroke="#000000"
                             points="143.9849,-37.5 143.9849,-55.5 246.6743,-55.5 246.6743,-37.5 143.9849,-37.5"/>
                    <text text-anchor="middle" x="195.3296" y="-43.5" font-family="Helvetica,sans-Serif"
                          font-size="10.00" fill="#000000">mm::DateController
                    </text>
                </a>
            </g>
        </g>
        <!-- Node4&#45;&gt;Node0 -->
        <g id="edge22" class="edge">
            <title>Node4&#45;&gt;Node0</title>
            <path fill="none" stroke="#191970"
                  d="M84.8335,-60.5915C102.8131,-58.2986 124.4771,-55.5358 143.8415,-53.0663"/>
            <polygon fill="#191970" stroke="#191970"
                     points="84.1952,-57.1445 74.7183,-61.8815 85.0808,-64.0883 84.1952,-57.1445"/>
        </g>
        <!-- Node10 -->
        <g id="node22" class="node">
            <title>Node10</title>
            <g id="a_node22">
                <a xlink:href="d0/d9e/structmm_1_1_entry_controller.html" target="_top"
                   xlink:title="mm::EntryController">
                    <polygon fill="none" stroke="#000000"
                             points="142.8765,-.5 142.8765,-18.5 247.7827,-18.5 247.7827,-.5 142.8765,-.5"/>
                    <text text-anchor="middle" x="195.3296" y="-6.5" font-family="Helvetica,sans-Serif"
                          font-size="10.00" fill="#000000">mm::EntryController
                    </text>
                </a>
            </g>
        </g>
        <!-- Node4&#45;&gt;Node10 -->
        <g id="edge24" class="edge">
            <title>Node4&#45;&gt;Node10</title>
            <path fill="none" stroke="#191970"
                  d="M73.8675,-51.9301C89.6754,-44.4421 110.0356,-35.3096 128.6895,-28.5 138.7474,-24.8283 149.8664,-21.4132 160.093,-18.52"/>
            <polygon fill="#191970" stroke="#191970"
                     points="72.1703,-48.8623 64.669,-56.3444 75.1989,-55.1733 72.1703,-48.8623"/>
        </g>
    </g>
</svg>
