<?xml version="1.0" encoding="UTF-8" standalone="no"?>
<!DOCTYPE svg PUBLIC "-//W3C//DTD SVG 1.1//EN"
        "http://www.w3.org/Graphics/SVG/1.1/DTD/svg11.dtd">
<!-- Generated by graphviz version 2.40.1 (20161225.0304)
 -->
<!-- Title: code/model/Drug.hpp Pages: 1 -->
<svg width="393pt" height="137pt"
     viewBox="0.00 0.00 392.78 137.00" xmlns="http://www.w3.org/2000/svg" xmlns:xlink="http://www.w3.org/1999/xlink">
    <g id="graph0" class="graph" transform="scale(1 1) rotate(0) translate(4 133)">
        <title>code/model/Drug.hpp</title>
        <!-- Node0 -->
        <g id="node1" class="node">
            <title>Node0</title>
            <polygon fill="#bfbfbf" stroke="#000000"
                     points="91.9903,-110.5 91.9903,-128.5 203.6055,-128.5 203.6055,-110.5 91.9903,-110.5"/>
            <text text-anchor="middle" x="147.7979" y="-116.5" font-family="Helvetica,sans-Serif" font-size="10.00"
                  fill="#000000">code/model/Drug.hpp
            </text>
        </g>
        <!-- Node1 -->
        <g id="node2" class="node">
            <title>Node1</title>
            <polygon fill="none" stroke="#bfbfbf"
                     points="72.5714,-.5 72.5714,-18.5 113.0245,-18.5 113.0245,-.5 72.5714,-.5"/>
            <text text-anchor="middle" x="92.7979" y="-6.5" font-family="Helvetica,sans-Serif" font-size="10.00"
                  fill="#000000">string
            </text>
        </g>
        <!-- Node0&#45;&gt;Node1 -->
        <g id="edge1" class="edge">
            <title>Node0&#45;&gt;Node1</title>
            <path fill="none" stroke="#191970"
                  d="M99.368,-110.429C62.5054,-102.4245 16.2159,-89.615 4.7979,-74 -14.1498,-48.0875 30.5528,-28.2168 62.9377,-17.7443"/>
            <polygon fill="#191970" stroke="#191970"
                     points="63.98,-21.0856 72.5086,-14.7997 61.9215,-14.3951 63.98,-21.0856"/>
        </g>
        <!-- Node2 -->
        <g id="node3" class="node">
            <title>Node2</title>
            <polygon fill="none" stroke="#bfbfbf"
                     points="14.1822,-55.5 14.1822,-73.5 57.4136,-73.5 57.4136,-55.5 14.1822,-55.5"/>
            <text text-anchor="middle" x="35.7979" y="-61.5" font-family="Helvetica,sans-Serif" font-size="10.00"
                  fill="#000000">vector
            </text>
        </g>
        <!-- Node0&#45;&gt;Node2 -->
        <g id="edge2" class="edge">
            <title>Node0&#45;&gt;Node2</title>
            <path fill="none" stroke="#191970"
                  d="M129.3034,-110.4179C111.3888,-101.6205 83.9968,-88.1691 63.4835,-78.0956"/>
            <polygon fill="#191970" stroke="#191970"
                     points="64.8388,-74.8619 54.3199,-73.5956 61.7532,-81.1452 64.8388,-74.8619"/>
        </g>
        <!-- Node3 -->
        <g id="node4" class="node">
            <title>Node3</title>
            <polygon fill="none" stroke="#bfbfbf"
                     points="184.0714,-.5 184.0714,-18.5 219.5245,-18.5 219.5245,-.5 184.0714,-.5"/>
            <text text-anchor="middle" x="201.7979" y="-6.5" font-family="Helvetica,sans-Serif" font-size="10.00"
                  fill="#000000">map
            </text>
        </g>
        <!-- Node0&#45;&gt;Node3 -->
        <g id="edge3" class="edge">
            <title>Node0&#45;&gt;Node3</title>
            <path fill="none" stroke="#191970"
                  d="M203.6638,-116.5404C265.3213,-111.9679 358.7878,-100.7239 380.7979,-74 386.1664,-67.4817 385.9816,-61.6662 380.7979,-55 362.3934,-31.332 275.3582,-17.9628 229.7829,-12.4758"/>
            <polygon fill="#191970" stroke="#191970"
                     points="230.0138,-8.9792 219.6778,-11.3069 229.2094,-15.9329 230.0138,-8.9792"/>
        </g>
        <!-- Node4 -->
        <g id="node5" class="node">
            <title>Node4</title>
            <polygon fill="none" stroke="#bfbfbf"
                     points="237.8868,-55.5 237.8868,-73.5 371.709,-73.5 371.709,-55.5 237.8868,-55.5"/>
            <text text-anchor="middle" x="304.7979" y="-61.5" font-family="Helvetica,sans-Serif" font-size="10.00"
                  fill="#000000">gtkmm/treemodelcolumn.h
            </text>
        </g>
        <!-- Node0&#45;&gt;Node4 -->
        <g id="edge4" class="edge">
            <title>Node0&#45;&gt;Node4</title>
            <path fill="none" stroke="#191970"
                  d="M173.7233,-110.4179C199.8227,-101.2748 240.2721,-87.1046 269.3329,-76.924"/>
            <polygon fill="#191970" stroke="#191970"
                     points="270.8145,-80.1136 279.095,-73.5042 268.5002,-73.5073 270.8145,-80.1136"/>
        </g>
        <!-- Node5 -->
        <g id="node6" class="node">
            <title>Node5</title>
            <g id="a_node6">
                <a xlink:href="../../d3/d1b/_i_serializable_8hpp.html" target="_top"
                   xlink:title="../interfaces/ISerializable.hpp">
                    <polygon fill="none" stroke="#000000"
                             points="75.5963,-55.5 75.5963,-73.5 219.9996,-73.5 219.9996,-55.5 75.5963,-55.5"/>
                    <text text-anchor="middle" x="147.7979" y="-61.5" font-family="Helvetica,sans-Serif"
                          font-size="10.00" fill="#000000">../interfaces/ISerializable.hpp
                    </text>
                </a>
            </g>
        </g>
        <!-- Node0&#45;&gt;Node5 -->
        <g id="edge5" class="edge">
            <title>Node0&#45;&gt;Node5</title>
            <path fill="none" stroke="#191970"
                  d="M147.7979,-110.4179C147.7979,-103.2164 147.7979,-92.8962 147.7979,-83.8632"/>
            <polygon fill="#191970" stroke="#191970"
                     points="151.298,-83.7794 147.7979,-73.7795 144.298,-83.7795 151.298,-83.7794"/>
        </g>
        <!-- Node5&#45;&gt;Node1 -->
        <g id="edge6" class="edge">
            <title>Node5&#45;&gt;Node1</title>
            <path fill="none" stroke="#191970"
                  d="M138.7158,-55.4179C130.7229,-47.425 118.8883,-35.5903 109.2357,-25.9377"/>
            <polygon fill="#191970" stroke="#191970"
                     points="111.6234,-23.3757 102.0774,-18.7795 106.6736,-28.3254 111.6234,-23.3757"/>
        </g>
        <!-- Node5&#45;&gt;Node3 -->
        <g id="edge7" class="edge">
            <title>Node5&#45;&gt;Node3</title>
            <path fill="none" stroke="#191970"
                  d="M156.7149,-55.4179C164.5625,-47.425 176.1819,-35.5903 185.659,-25.9377"/>
            <polygon fill="#191970" stroke="#191970"
                     points="188.1787,-28.3672 192.6872,-18.7795 183.1838,-23.463 188.1787,-28.3672"/>
        </g>
    </g>
</svg>
