<?xml version="1.0" encoding="UTF-8" standalone="no"?>
<!DOCTYPE svg PUBLIC "-//W3C//DTD SVG 1.1//EN"
        "http://www.w3.org/Graphics/SVG/1.1/DTD/svg11.dtd">
<!-- Generated by graphviz version 2.40.1 (20161225.0304)
 -->
<!-- Title: code/model/Drug.hpp Pages: 1 -->
<svg width="583pt" height="137pt"
     viewBox="0.00 0.00 583.40 137.00" xmlns="http://www.w3.org/2000/svg" xmlns:xlink="http://www.w3.org/1999/xlink">
    <g id="graph0" class="graph" transform="scale(1 1) rotate(0) translate(4 133)">
        <title>code/model/Drug.hpp</title>
        <!-- Node0 -->
        <g id="node1" class="node">
            <title>Node0</title>
            <polygon fill="#bfbfbf" stroke="#000000"
                     points="165.4189,-110.5 165.4189,-128.5 277.0342,-128.5 277.0342,-110.5 165.4189,-110.5"/>
            <text text-anchor="middle" x="221.2266" y="-116.5" font-family="Helvetica,sans-Serif" font-size="10.00"
                  fill="#000000">code/model/Drug.hpp
            </text>
        </g>
        <!-- Node1 -->
        <g id="node2" class="node">
            <title>Node1</title>
            <polygon fill="none" stroke="#bfbfbf" points="0,-.5 0,-18.5 40.4531,-18.5 40.4531,-.5 0,-.5"/>
            <text text-anchor="middle" x="20.2266" y="-6.5" font-family="Helvetica,sans-Serif" font-size="10.00"
                  fill="#000000">string
            </text>
        </g>
        <!-- Node0&#45;&gt;Node1 -->
        <g id="edge1" class="edge">
            <title>Node0&#45;&gt;Node1</title>
            <path fill="none" stroke="#191970"
                  d="M165.0638,-112.769C116.1428,-105.7322 50.2899,-93.0337 32.2266,-74 20.9667,-62.1352 18.5635,-43.2845 18.6236,-29.0194"/>
            <polygon fill="#191970" stroke="#191970"
                     points="22.131,-28.9287 19.0779,-18.7833 15.1379,-28.6183 22.131,-28.9287"/>
        </g>
        <!-- Node2 -->
        <g id="node3" class="node">
            <title>Node2</title>
            <polygon fill="none" stroke="#bfbfbf"
                     points="68.6108,-.5 68.6108,-18.5 111.8423,-18.5 111.8423,-.5 68.6108,-.5"/>
            <text text-anchor="middle" x="90.2266" y="-6.5" font-family="Helvetica,sans-Serif" font-size="10.00"
                  fill="#000000">vector
            </text>
        </g>
        <!-- Node0&#45;&gt;Node2 -->
        <g id="edge2" class="edge">
            <title>Node0&#45;&gt;Node2</title>
            <path fill="none" stroke="#191970"
                  d="M165.2279,-112.9566C117.9513,-106.1439 55.5677,-93.6749 40.2266,-74 26.9895,-57.0235 47.0774,-37.4783 65.596,-24.3933"/>
            <polygon fill="#191970" stroke="#191970"
                     points="67.7589,-27.1579 74.1377,-18.6985 63.8758,-21.3337 67.7589,-27.1579"/>
        </g>
        <!-- Node3 -->
        <g id="node4" class="node">
            <title>Node3</title>
            <polygon fill="none" stroke="#bfbfbf" points="134.5,-.5 134.5,-18.5 169.9531,-18.5 169.9531,-.5 134.5,-.5"/>
            <text text-anchor="middle" x="152.2266" y="-6.5" font-family="Helvetica,sans-Serif" font-size="10.00"
                  fill="#000000">map
            </text>
        </g>
        <!-- Node0&#45;&gt;Node3 -->
        <g id="edge3" class="edge">
            <title>Node0&#45;&gt;Node3</title>
            <path fill="none" stroke="#191970"
                  d="M220.0813,-110.0901C218.1327,-96.9148 213.2549,-72.611 202.2266,-55 194.9997,-43.4596 184.0542,-33.0344 174.2448,-25.0838"/>
            <polygon fill="#191970" stroke="#191970"
                     points="176.0982,-22.0937 166.0388,-18.7681 171.8287,-27.6409 176.0982,-22.0937"/>
        </g>
        <!-- Node4 -->
        <g id="node5" class="node">
            <title>Node4</title>
            <polygon fill="none" stroke="#bfbfbf"
                     points="249.3154,-55.5 249.3154,-73.5 383.1377,-73.5 383.1377,-55.5 249.3154,-55.5"/>
            <text text-anchor="middle" x="316.2266" y="-61.5" font-family="Helvetica,sans-Serif" font-size="10.00"
                  fill="#000000">gtkmm/treemodelcolumn.h
            </text>
        </g>
        <!-- Node0&#45;&gt;Node4 -->
        <g id="edge4" class="edge">
            <title>Node0&#45;&gt;Node4</title>
            <path fill="none" stroke="#191970"
                  d="M236.9139,-110.4179C251.7655,-101.8195 274.2964,-88.7754 291.5535,-78.7844"/>
            <polygon fill="#191970" stroke="#191970"
                     points="293.6153,-81.635 300.5159,-73.5956 290.108,-75.577 293.6153,-81.635"/>
        </g>
        <!-- Node5 -->
        <g id="node6" class="node">
            <title>Node5</title>
            <polygon fill="none" stroke="#bfbfbf"
                     points="401.4336,-55.5 401.4336,-73.5 503.0195,-73.5 503.0195,-55.5 401.4336,-55.5"/>
            <text text-anchor="middle" x="452.2266" y="-61.5" font-family="Helvetica,sans-Serif" font-size="10.00"
                  fill="#000000">gtkmm/treemodel.h
            </text>
        </g>
        <!-- Node0&#45;&gt;Node5 -->
        <g id="edge5" class="edge">
            <title>Node0&#45;&gt;Node5</title>
            <path fill="none" stroke="#191970"
                  d="M259.1128,-110.4795C298.8092,-101.0279 361.271,-86.1561 404.3534,-75.8984"/>
            <polygon fill="#191970" stroke="#191970"
                     points="405.4022,-79.2466 414.3196,-73.5255 403.7808,-72.4369 405.4022,-79.2466"/>
        </g>
        <!-- Node6 -->
        <g id="node7" class="node">
            <title>Node6</title>
            <polygon fill="none" stroke="#bfbfbf"
                     points="521.0542,-55.5 521.0542,-73.5 575.3989,-73.5 575.3989,-55.5 521.0542,-55.5"/>
            <text text-anchor="middle" x="548.2266" y="-61.5" font-family="Helvetica,sans-Serif" font-size="10.00"
                  fill="#000000">iostream
            </text>
        </g>
        <!-- Node0&#45;&gt;Node6 -->
        <g id="edge6" class="edge">
            <title>Node0&#45;&gt;Node6</title>
            <path fill="none" stroke="#191970"
                  d="M277.0511,-112.509C333.6784,-105.0276 424.0113,-92.0258 510.7661,-74.1437"/>
            <polygon fill="#191970" stroke="#191970"
                     points="511.7043,-77.5234 520.7785,-72.0545 510.2744,-70.671 511.7043,-77.5234"/>
        </g>
        <!-- Node7 -->
        <g id="node8" class="node">
            <title>Node7</title>
            <g id="a_node8">
                <a xlink:href="../../d3/d1b/_i_serializable_8hpp.html" target="_top"
                   xlink:title="../interfaces/ISerializable.hpp">
                    <polygon fill="none" stroke="#000000"
                             points="49.0249,-55.5 49.0249,-73.5 193.4282,-73.5 193.4282,-55.5 49.0249,-55.5"/>
                    <text text-anchor="middle" x="121.2266" y="-61.5" font-family="Helvetica,sans-Serif"
                          font-size="10.00" fill="#000000">../interfaces/ISerializable.hpp
                    </text>
                </a>
            </g>
        </g>
        <!-- Node0&#45;&gt;Node7 -->
        <g id="edge7" class="edge">
            <title>Node0&#45;&gt;Node7</title>
            <path fill="none" stroke="#191970"
                  d="M204.7136,-110.4179C188.9355,-101.7399 164.9237,-88.5334 146.6951,-78.5077"/>
            <polygon fill="#191970" stroke="#191970"
                     points="148.213,-75.3481 137.7641,-73.5956 144.8395,-81.4816 148.213,-75.3481"/>
        </g>
        <!-- Node7&#45;&gt;Node1 -->
        <g id="edge8" class="edge">
            <title>Node7&#45;&gt;Node1</title>
            <path fill="none" stroke="#191970"
                  d="M104.5485,-55.4179C88.6126,-46.7399 64.3607,-33.5334 45.9498,-23.5077"/>
            <polygon fill="#191970" stroke="#191970"
                     points="47.3856,-20.3043 36.9294,-18.5956 44.0379,-26.4519 47.3856,-20.3043"/>
        </g>
        <!-- Node7&#45;&gt;Node2 -->
        <g id="edge10" class="edge">
            <title>Node7&#45;&gt;Node2</title>
            <path fill="none" stroke="#191970"
                  d="M116.1075,-55.4179C111.8701,-47.8998 105.7169,-36.9829 100.4734,-27.6799"/>
            <polygon fill="#191970" stroke="#191970"
                     points="103.416,-25.7724 95.4568,-18.7795 97.3179,-29.2096 103.416,-25.7724"/>
        </g>
        <!-- Node7&#45;&gt;Node3 -->
        <g id="edge9" class="edge">
            <title>Node7&#45;&gt;Node3</title>
            <path fill="none" stroke="#191970"
                  d="M126.3456,-55.4179C130.583,-47.8998 136.7362,-36.9829 141.9797,-27.6799"/>
            <polygon fill="#191970" stroke="#191970"
                     points="145.1352,-29.2096 146.9963,-18.7795 139.0371,-25.7724 145.1352,-29.2096"/>
        </g>
    </g>
</svg>
