<?xml version="1.0" encoding="UTF-8" standalone="no"?>
<!DOCTYPE svg PUBLIC "-//W3C//DTD SVG 1.1//EN"
        "http://www.w3.org/Graphics/SVG/1.1/DTD/svg11.dtd">
<!-- Generated by graphviz version 2.40.1 (20161225.0304)
 -->
<!-- Title: code/gui/MainWindow.cpp Pages: 1 -->
<!--zoomable 357 -->
<svg id="main" version="1.1" xmlns="http://www.w3.org/2000/svg" xmlns:xlink="http://www.w3.org/1999/xlink" xml:space="preserve" onload="initDrugComboBox(evt)">
<style type="text/css"><![CDATA[
.edge:hover path { stroke: red; }
.edge:hover polygon { stroke: red; fill: red; }
]]></style>
<script type="text/javascript"><![CDATA[
var edges = document.getElementsByTagName('g');
if (edges && edges.length) {
  for (var i=0;i<edges.length;i++) {
    if (edges[i].id.substr(0,4)=='edge') {
      edges[i].setAttribute('class','edge');
    }
  }
}
]]></script>
        <defs>
                <circle id="rim" cx="0" cy="0" r="7"/>
                <circle id="rim2" cx="0" cy="0" r="3.5"/>
                <g id="zoomPlus">
                        <use xlink:href="#rim" fill="#404040">
                                <set attributeName="fill" to="#808080" begin="zoomplus.mouseover" end="zoomplus.mouseout"/>
                        </use>
                        <path d="M-4,0h8M0,-4v8" fill="none" stroke="white" stroke-width="1.5" pointer-events="none"/>
                </g>
                <g id="zoomMin">
                        <use xlink:href="#rim" fill="#404040">
                                <set attributeName="fill" to="#808080" begin="zoomminus.mouseover" end="zoomminus.mouseout"/>
                        </use>
                        <path d="M-4,0h8" fill="none" stroke="white" stroke-width="1.5" pointer-events="none"/>
                </g>
                <g id="dirArrow">
                        <path fill="none" stroke="white" stroke-width="1.5" d="M0,-3.0v7 M-2.5,-0.5L0,-3.0L2.5,-0.5"/>
                </g>
               <g id="resetDef">
                       <use xlink:href="#rim2" fill="#404040">
                               <set attributeName="fill" to="#808080" begin="reset.mouseover" end="reset.mouseout"/>
                       </use>
               </g>
        </defs>

<script type="text/javascript">
var viewWidth = 2033;
var viewHeight = 357;
var sectionId = 'dynsection-0';
</script>
<script xlink:href="../../svgpan.js"/>
<svg id="graph" class="graph">
<g id="viewport">
<title>code/gui/MainWindow.cpp</title>
    <!-- Node0 -->
<g id="node1" class="node">
<title>Node0</title>
<polygon fill="#bfbfbf" stroke="#000000" points="351.4878,-330.5 351.4878,-348.5 483.6694,-348.5 483.6694,-330.5 351.4878,-330.5"/>
<text text-anchor="middle" x="417.5786" y="-336.5" font-family="Helvetica,sans-Serif" font-size="10.00" fill="#000000">code/gui/MainWindow.cpp</text>
</g>
    <!-- Node1 -->
<g id="node2" class="node">
<title>Node1</title>
<g id="a_node2"><a xlink:href="../../db/d41/_main_window_8hpp.html" target="_top" xlink:title="MainWindow.hpp">
<polygon fill="none" stroke="#000000" points="195.5,-275.5 195.5,-293.5 287.6572,-293.5 287.6572,-275.5 195.5,-275.5"/>
<text text-anchor="middle" x="241.5786" y="-281.5" font-family="Helvetica,sans-Serif" font-size="10.00" fill="#000000">MainWindow.hpp</text>
</a>
</g>
</g>
    <!-- Node0&#45;&gt;Node1 -->
<g id="edge1" class="edge">
<title>Node0&#45;&gt;Node1</title>
<path fill="none" stroke="#191970" d="M388.5158,-330.4179C358.8745,-321.155 312.7225,-306.7325 280.0618,-296.526"/>
<polygon fill="#191970" stroke="#191970" points="280.9809,-293.1463 270.3921,-293.5042 278.8929,-299.8277 280.9809,-293.1463"/>
</g>
    <!-- Node12 -->
<g id="node13" class="node">
<title>Node12</title>
<g id="a_node13"><a xlink:href="../../dc/db8/_ref_builder_8hpp.html" target="_top" xlink:title="RefBuilder.hpp">
<polygon fill="none" stroke="#000000" points="929.7759,-275.5 929.7759,-293.5 1011.3813,-293.5 1011.3813,-275.5 929.7759,-275.5"/>
<text text-anchor="middle" x="970.5786" y="-281.5" font-family="Helvetica,sans-Serif" font-size="10.00" fill="#000000">RefBuilder.hpp</text>
</a>
</g>
</g>
    <!-- Node0&#45;&gt;Node12 -->
<g id="edge13" class="edge">
<title>Node0&#45;&gt;Node12</title>
<path fill="none" stroke="#191970" d="M483.7341,-332.9203C595.3201,-321.8223 818.6034,-299.6151 919.2709,-289.6029"/>
<polygon fill="#191970" stroke="#191970" points="919.883,-293.0594 929.4875,-288.5868 919.1902,-286.0938 919.883,-293.0594"/>
</g>
    <!-- Node14 -->
<g id="node15" class="node">
<title>Node14</title>
<g id="a_node15"><a xlink:href="../../d7/ded/_about_dialog_8hpp.html" target="_top" xlink:title="AboutDialog.hpp">
<polygon fill="none" stroke="#000000" points="315.606,-275.5 315.606,-293.5 405.5513,-293.5 405.5513,-275.5 315.606,-275.5"/>
<text text-anchor="middle" x="360.5786" y="-281.5" font-family="Helvetica,sans-Serif" font-size="10.00" fill="#000000">AboutDialog.hpp</text>
</a>
</g>
</g>
    <!-- Node0&#45;&gt;Node14 -->
<g id="edge15" class="edge">
<title>Node0&#45;&gt;Node14</title>
<path fill="none" stroke="#191970" d="M408.1662,-330.4179C399.8827,-322.425 387.6177,-310.5903 377.6141,-300.9377"/>
<polygon fill="#191970" stroke="#191970" points="379.822,-298.2045 370.1955,-293.7795 374.9614,-303.2419 379.822,-298.2045"/>
</g>
    <!-- Node15 -->
<g id="node16" class="node">
<title>Node15</title>
<g id="a_node16"><a xlink:href="../../dd/de0/_patient_window_8hpp.html" target="_top" xlink:title="PatientWindow.hpp">
<polygon fill="none" stroke="#000000" points="432.771,-275.5 432.771,-293.5 534.3862,-293.5 534.3862,-275.5 432.771,-275.5"/>
<text text-anchor="middle" x="483.5786" y="-281.5" font-family="Helvetica,sans-Serif" font-size="10.00" fill="#000000">PatientWindow.hpp</text>
</a>
</g>
</g>
    <!-- Node0&#45;&gt;Node15 -->
<g id="edge17" class="edge">
<title>Node0&#45;&gt;Node15</title>
<path fill="none" stroke="#191970" d="M428.4772,-330.4179C438.2586,-322.2667 452.8345,-310.1201 464.5383,-300.3669"/>
<polygon fill="#191970" stroke="#191970" points="467.0017,-302.8701 472.4433,-293.7795 462.5204,-297.4926 467.0017,-302.8701"/>
</g>
    <!-- Node2 -->
<g id="node3" class="node">
<title>Node2</title>
<polygon fill="none" stroke="#bfbfbf" points="151.6255,-220.5 151.6255,-238.5 191.5317,-238.5 191.5317,-220.5 151.6255,-220.5"/>
<text text-anchor="middle" x="171.5786" y="-226.5" font-family="Helvetica,sans-Serif" font-size="10.00" fill="#000000">glib.h</text>
</g>
    <!-- Node1&#45;&gt;Node2 -->
<g id="edge2" class="edge">
<title>Node1&#45;&gt;Node2</title>
<path fill="none" stroke="#191970" d="M230.0195,-275.4179C219.5446,-267.1876 203.8854,-254.8839 191.4122,-245.0836"/>
<polygon fill="#191970" stroke="#191970" points="193.4144,-242.2056 183.3888,-238.7795 189.0896,-247.7098 193.4144,-242.2056"/>
</g>
    <!-- Node3 -->
<g id="node4" class="node">
<title>Node3</title>
<polygon fill="none" stroke="#bfbfbf" points="47.5664,-220.5 47.5664,-238.5 133.5908,-238.5 133.5908,-220.5 47.5664,-220.5"/>
<text text-anchor="middle" x="90.5786" y="-226.5" font-family="Helvetica,sans-Serif" font-size="10.00" fill="#000000">gtkmm/widget.h</text>
</g>
    <!-- Node1&#45;&gt;Node3 -->
<g id="edge3" class="edge">
<title>Node1&#45;&gt;Node3</title>
<path fill="none" stroke="#191970" d="M216.644,-275.4179C191.6516,-266.3147 152.978,-252.2283 125.055,-242.0576"/>
<polygon fill="#191970" stroke="#191970" points="125.8933,-238.6381 115.2993,-238.5042 123.4975,-245.2153 125.8933,-238.6381"/>
</g>
    <!-- Node4 -->
<g id="node5" class="node">
<title>Node4</title>
<g id="a_node5"><a xlink:href="../../de/d0b/_window_8hpp.html" target="_top" xlink:title="Window.hpp">
<polygon fill="none" stroke="#000000" points="291.3374,-220.5 291.3374,-238.5 361.8198,-238.5 361.8198,-220.5 291.3374,-220.5"/>
<text text-anchor="middle" x="326.5786" y="-226.5" font-family="Helvetica,sans-Serif" font-size="10.00" fill="#000000">Window.hpp</text>
</a>
</g>
</g>
    <!-- Node1&#45;&gt;Node4 -->
<g id="edge4" class="edge">
<title>Node1&#45;&gt;Node4</title>
<path fill="none" stroke="#191970" d="M255.6146,-275.4179C268.7799,-266.8992 288.6894,-254.0166 304.0726,-244.0627"/>
<polygon fill="#191970" stroke="#191970" points="306.0274,-246.9667 312.5217,-238.5956 302.2246,-241.0897 306.0274,-246.9667"/>
</g>
    <!-- Node10 -->
<g id="node11" class="node">
<title>Node10</title>
<g id="a_node11"><a xlink:href="../../dc/de6/_dialog_8hpp.html" target="_top" xlink:title="Dialog.hpp">
<polygon fill="none" stroke="#000000" points="209.6724,-220.5 209.6724,-238.5 273.4849,-238.5 273.4849,-220.5 209.6724,-220.5"/>
<text text-anchor="middle" x="241.5786" y="-226.5" font-family="Helvetica,sans-Serif" font-size="10.00" fill="#000000">Dialog.hpp</text>
</a>
</g>
</g>
    <!-- Node1&#45;&gt;Node10 -->
<g id="edge10" class="edge">
<title>Node1&#45;&gt;Node10</title>
<path fill="none" stroke="#191970" d="M241.5786,-275.4179C241.5786,-268.2164 241.5786,-257.8962 241.5786,-248.8632"/>
<polygon fill="#191970" stroke="#191970" points="245.0787,-248.7794 241.5786,-238.7795 238.0787,-248.7795 245.0787,-248.7794"/>
</g>
    <!-- Node5 -->
<g id="node6" class="node">
<title>Node5</title>
<g id="a_node6"><a xlink:href="../../d1/d25/_i_subject_8hpp.html" target="_top" xlink:title="../interfaces/ISubject.hpp">
<polygon fill="none" stroke="#000000" points="115.5469,-165.5 115.5469,-183.5 241.6104,-183.5 241.6104,-165.5 115.5469,-165.5"/>
<text text-anchor="middle" x="178.5786" y="-171.5" font-family="Helvetica,sans-Serif" font-size="10.00" fill="#000000">../interfaces/ISubject.hpp</text>
</a>
</g>
</g>
    <!-- Node4&#45;&gt;Node5 -->
<g id="edge5" class="edge">
<title>Node4&#45;&gt;Node5</title>
<path fill="none" stroke="#191970" d="M302.1394,-220.4179C277.7167,-211.3419 239.9645,-197.3123 212.6154,-187.1488"/>
<polygon fill="#191970" stroke="#191970" points="213.647,-183.7984 203.0541,-183.5956 211.2085,-190.3599 213.647,-183.7984"/>
</g>
    <!-- Node6 -->
<g id="node7" class="node">
<title>Node6</title>
<polygon fill="none" stroke="#bfbfbf" points="199.9087,-110.5 199.9087,-128.5 229.2485,-128.5 229.2485,-110.5 199.9087,-110.5"/>
<text text-anchor="middle" x="214.5786" y="-116.5" font-family="Helvetica,sans-Serif" font-size="10.00" fill="#000000">set</text>
</g>
    <!-- Node5&#45;&gt;Node6 -->
<g id="edge6" class="edge">
<title>Node5&#45;&gt;Node6</title>
<path fill="none" stroke="#191970" d="M184.5233,-165.4179C189.496,-157.8207 196.7405,-146.7527 202.871,-137.3866"/>
<polygon fill="#191970" stroke="#191970" points="205.9566,-139.0633 208.5048,-128.7795 200.0997,-135.2297 205.9566,-139.0633"/>
</g>
    <!-- Node7 -->
<g id="node8" class="node">
<title>Node7</title>
<g id="a_node8"><a xlink:href="../../d5/d40/_i_observer_8hpp.html" target="_top" xlink:title="IObserver.hpp">
<polygon fill="none" stroke="#000000" points="103.1699,-110.5 103.1699,-128.5 181.9873,-128.5 181.9873,-110.5 103.1699,-110.5"/>
<text text-anchor="middle" x="142.5786" y="-116.5" font-family="Helvetica,sans-Serif" font-size="10.00" fill="#000000">IObserver.hpp</text>
</a>
</g>
</g>
    <!-- Node5&#45;&gt;Node7 -->
<g id="edge7" class="edge">
<title>Node5&#45;&gt;Node7</title>
<path fill="none" stroke="#191970" d="M172.6339,-165.4179C167.6612,-157.8207 160.4167,-146.7527 154.2862,-137.3866"/>
<polygon fill="#191970" stroke="#191970" points="157.0575,-135.2297 148.6524,-128.7795 151.2006,-139.0633 157.0575,-135.2297"/>
</g>
    <!-- Node8 -->
<g id="node9" class="node">
<title>Node8</title>
<polygon fill="none" stroke="#bfbfbf" points="151.9629,-55.5 151.9629,-73.5 195.1943,-73.5 195.1943,-55.5 151.9629,-55.5"/>
<text text-anchor="middle" x="173.5786" y="-61.5" font-family="Helvetica,sans-Serif" font-size="10.00" fill="#000000">mutex</text>
</g>
    <!-- Node7&#45;&gt;Node8 -->
<g id="edge8" class="edge">
<title>Node7&#45;&gt;Node8</title>
<path fill="none" stroke="#191970" d="M147.6976,-110.4179C151.9351,-102.8998 158.0883,-91.9829 163.3318,-82.6799"/>
<polygon fill="#191970" stroke="#191970" points="166.4872,-84.2096 168.3484,-73.7795 160.3892,-80.7724 166.4872,-84.2096"/>
</g>
    <!-- Node9 -->
<g id="node10" class="node">
<title>Node9</title>
<polygon fill="none" stroke="#bfbfbf" points="89.4014,-55.5 89.4014,-73.5 133.7559,-73.5 133.7559,-55.5 89.4014,-55.5"/>
<text text-anchor="middle" x="111.5786" y="-61.5" font-family="Helvetica,sans-Serif" font-size="10.00" fill="#000000">thread</text>
</g>
    <!-- Node7&#45;&gt;Node9 -->
<g id="edge9" class="edge">
<title>Node7&#45;&gt;Node9</title>
<path fill="none" stroke="#191970" d="M137.4596,-110.4179C133.2221,-102.8998 127.069,-91.9829 121.8254,-82.6799"/>
<polygon fill="#191970" stroke="#191970" points="124.7681,-80.7724 116.8089,-73.7795 118.67,-84.2096 124.7681,-80.7724"/>
</g>
    <!-- Node10&#45;&gt;Node5 -->
<g id="edge12" class="edge">
<title>Node10&#45;&gt;Node5</title>
<path fill="none" stroke="#191970" d="M231.1754,-220.4179C221.8387,-212.2667 207.9253,-200.1201 196.7535,-190.3669"/>
<polygon fill="#191970" stroke="#191970" points="199.0428,-187.7194 189.2078,-183.7795 194.4392,-192.9927 199.0428,-187.7194"/>
</g>
    <!-- Node11 -->
<g id="node12" class="node">
<title>Node11</title>
<polygon fill="none" stroke="#bfbfbf" points="0,-165.5 0,-183.5 97.1572,-183.5 97.1572,-165.5 0,-165.5"/>
<text text-anchor="middle" x="48.5786" y="-171.5" font-family="Helvetica,sans-Serif" font-size="10.00" fill="#000000">sigc++/trackable.h</text>
</g>
    <!-- Node10&#45;&gt;Node11 -->
<g id="edge11" class="edge">
<title>Node10&#45;&gt;Node11</title>
<path fill="none" stroke="#191970" d="M209.7086,-220.4179C176.924,-211.0751 125.7204,-196.4834 89.856,-186.263"/>
<polygon fill="#191970" stroke="#191970" points="90.7516,-182.8789 80.1752,-183.5042 88.8331,-189.6109 90.7516,-182.8789"/>
</g>
    <!-- Node13 -->
<g id="node14" class="node">
<title>Node13</title>
<polygon fill="none" stroke="#bfbfbf" points="1296.4038,-220.5 1296.4038,-238.5 1400.7534,-238.5 1400.7534,-220.5 1296.4038,-220.5"/>
<text text-anchor="middle" x="1348.5786" y="-226.5" font-family="Helvetica,sans-Serif" font-size="10.00" fill="#000000">gtkmm&#45;3.0/gtkmm.h</text>
</g>
    <!-- Node12&#45;&gt;Node13 -->
<g id="edge14" class="edge">
<title>Node12&#45;&gt;Node13</title>
<path fill="none" stroke="#191970" d="M1011.5014,-278.7281C1069.8759,-270.4682 1180.69,-254.6906 1285.9829,-239.0772"/>
<polygon fill="#191970" stroke="#191970" points="1286.7759,-242.4979 1296.1533,-237.567 1285.7477,-235.5738 1286.7759,-242.4979"/>
</g>
    <!-- Node14&#45;&gt;Node10 -->
<g id="edge16" class="edge">
<title>Node14&#45;&gt;Node10</title>
<path fill="none" stroke="#191970" d="M340.9282,-275.4179C321.7216,-266.5409 292.2624,-252.9253 270.4046,-242.823"/>
<polygon fill="#191970" stroke="#191970" points="271.804,-239.614 261.2582,-238.5956 268.8672,-245.9682 271.804,-239.614"/>
</g>
    <!-- Node15&#45;&gt;Node4 -->
<g id="edge18" class="edge">
<title>Node15&#45;&gt;Node4</title>
<path fill="none" stroke="#191970" d="M457.6533,-275.4179C431.5538,-266.2748 391.1045,-252.1046 362.0436,-241.924"/>
<polygon fill="#191970" stroke="#191970" points="362.8764,-238.5073 352.2815,-238.5042 360.562,-245.1136 362.8764,-238.5073"/>
</g>
    <!-- Node15&#45;&gt;Node10 -->
<g id="edge19" class="edge">
<title>Node15&#45;&gt;Node10</title>
<path fill="none" stroke="#191970" d="M443.522,-275.4953C405.0056,-266.8228 344.8753,-253.247 283.6385,-239.235"/>
<polygon fill="#191970" stroke="#191970" points="284.333,-235.8035 273.804,-236.9831 282.7705,-242.6269 284.333,-235.8035"/>
</g>
    <!-- Node16 -->
<g id="node17" class="node">
<title>Node16</title>
<g id="a_node17"><a xlink:href="../../d5/d46/_custom_widgets_8hpp.html" target="_top" xlink:title="view/CustomWidgets.hpp">
<polygon fill="none" stroke="#000000" points="1149.1675,-220.5 1149.1675,-238.5 1277.9897,-238.5 1277.9897,-220.5 1149.1675,-220.5"/>
<text text-anchor="middle" x="1213.5786" y="-226.5" font-family="Helvetica,sans-Serif" font-size="10.00" fill="#000000">view/CustomWidgets.hpp</text>
</a>
</g>
</g>
    <!-- Node15&#45;&gt;Node16 -->
<g id="edge20" class="edge">
<title>Node15&#45;&gt;Node16</title>
<path fill="none" stroke="#191970" d="M534.6207,-280.6544C661.1589,-271.1207 989.8206,-246.3585 1138.535,-235.154"/>
<polygon fill="#191970" stroke="#191970" points="1139.2174,-238.6126 1148.9262,-234.3711 1138.6914,-231.6324 1139.2174,-238.6126"/>
</g>
    <!-- Node21 -->
<g id="node22" class="node">
<title>Node21</title>
<polygon fill="none" stroke="#bfbfbf" points="683.793,-165.5 683.793,-183.5 775.3643,-183.5 775.3643,-165.5 683.793,-165.5"/>
<text text-anchor="middle" x="729.5786" y="-171.5" font-family="Helvetica,sans-Serif" font-size="10.00" fill="#000000">gtkmm/liststore.h</text>
</g>
    <!-- Node15&#45;&gt;Node21 -->
<g id="edge53" class="edge">
<title>Node15&#45;&gt;Node21</title>
<path fill="none" stroke="#191970" d="M534.7859,-279.8095C573.6568,-274.4434 627.2749,-263.0465 668.5786,-239 688.8745,-227.184 706.6207,-206.583 717.662,-191.8411"/>
<polygon fill="#191970" stroke="#191970" points="720.629,-193.7103 723.6331,-183.5503 714.9488,-189.6194 720.629,-193.7103"/>
</g>
    <!-- Node34 -->
<g id="node35" class="node">
<title>Node34</title>
<g id="a_node35"><a xlink:href="../../d8/d63/_date_8hpp.html" target="_top" xlink:title="../utils/Date.hpp">
<polygon fill="none" stroke="#000000" points="579.8374,-165.5 579.8374,-183.5 665.3198,-183.5 665.3198,-165.5 579.8374,-165.5"/>
<text text-anchor="middle" x="622.5786" y="-171.5" font-family="Helvetica,sans-Serif" font-size="10.00" fill="#000000">../utils/Date.hpp</text>
</a>
</g>
</g>
    <!-- Node15&#45;&gt;Node34 -->
<g id="edge45" class="edge">
<title>Node15&#45;&gt;Node34</title>
<path fill="none" stroke="#191970" d="M534.7492,-277.5262C578.7617,-270.3552 637.3473,-257.5983 651.5786,-239 662.7003,-224.4655 651.0379,-204.9888 639.3539,-191.2532"/>
<polygon fill="#191970" stroke="#191970" points="641.6178,-188.5433 632.2797,-183.5382 636.4584,-193.2742 641.6178,-188.5433"/>
</g>
    <!-- Node36 -->
<g id="node37" class="node">
<title>Node36</title>
<g id="a_node37"><a xlink:href="../../dc/d55/_widgets_8hpp.html" target="_top" xlink:title="Widgets.hpp">
<polygon fill="none" stroke="#000000" points="379.7856,-220.5 379.7856,-238.5 451.3716,-238.5 451.3716,-220.5 379.7856,-220.5"/>
<text text-anchor="middle" x="415.5786" y="-226.5" font-family="Helvetica,sans-Serif" font-size="10.00" fill="#000000">Widgets.hpp</text>
</a>
</g>
</g>
    <!-- Node15&#45;&gt;Node36 -->
<g id="edge47" class="edge">
<title>Node15&#45;&gt;Node36</title>
<path fill="none" stroke="#191970" d="M472.3498,-275.4179C462.1742,-267.1876 446.9623,-254.8839 434.8455,-245.0836"/>
<polygon fill="#191970" stroke="#191970" points="437.0276,-242.3469 427.0514,-238.7795 432.6255,-247.7895 437.0276,-242.3469"/>
</g>
    <!-- Node40 -->
<g id="node41" class="node">
<title>Node40</title>
<polygon fill="none" stroke="#bfbfbf" points="469.0786,-220.5 469.0786,-238.5 498.0786,-238.5 498.0786,-220.5 469.0786,-220.5"/>
<text text-anchor="middle" x="483.1895" y="-226.5" font-family="Helvetica,sans-Serif" font-size="10.00" fill="#000000">list</text>
</g>
    <!-- Node15&#45;&gt;Node40 -->
<g id="edge52" class="edge">
<title>Node15&#45;&gt;Node40</title>
<path fill="none" stroke="#191970" d="M483.5786,-275.4179C483.5786,-268.2164 483.5786,-257.8962 483.5786,-248.8632"/>
<polygon fill="#191970" stroke="#191970" points="487.0787,-248.7794 483.5786,-238.7795 480.0787,-248.7795 487.0787,-248.7794"/>
</g>
    <!-- Node41 -->
<g id="node42" class="node">
<title>Node41</title>
<polygon fill="none" stroke="#bfbfbf" points="516.2832,-220.5 516.2832,-238.5 642.874,-238.5 642.874,-220.5 516.2832,-220.5"/>
<text text-anchor="middle" x="579.5786" y="-226.5" font-family="Helvetica,sans-Serif" font-size="10.00" fill="#000000">gtkmm/treeviewcolumn.h</text>
</g>
    <!-- Node15&#45;&gt;Node41 -->
<g id="edge54" class="edge">
<title>Node15&#45;&gt;Node41</title>
<path fill="none" stroke="#191970" d="M499.4311,-275.4179C514.4391,-266.8195 537.207,-253.7754 554.6458,-243.7844"/>
<polygon fill="#191970" stroke="#191970" points="556.7656,-246.6037 563.7026,-238.5956 553.2858,-240.5299 556.7656,-246.6037"/>
</g>
    <!-- Node17 -->
<g id="node18" class="node">
<title>Node17</title>
<polygon fill="none" stroke="#bfbfbf" points="1837.4434,-165.5 1837.4434,-183.5 1935.7139,-183.5 1935.7139,-165.5 1837.4434,-165.5"/>
<text text-anchor="middle" x="1886.5786" y="-171.5" font-family="Helvetica,sans-Serif" font-size="10.00" fill="#000000">gtkmm/expander.h</text>
</g>
    <!-- Node16&#45;&gt;Node17 -->
<g id="edge21" class="edge">
<title>Node16&#45;&gt;Node17</title>
<path fill="none" stroke="#191970" d="M1278.1262,-220.9776C1281.3204,-220.6299 1284.4846,-220.3014 1287.5786,-220 1523.7047,-196.9941 1586.8651,-210.7594 1827.2702,-183.9145"/>
<polygon fill="#191970" stroke="#191970" points="1827.826,-187.3741 1837.3704,-182.7746 1827.0409,-180.4183 1827.826,-187.3741"/>
</g>
    <!-- Node18 -->
<g id="node19" class="node">
<title>Node18</title>
<polygon fill="none" stroke="#bfbfbf" points="793.3892,-165.5 793.3892,-183.5 917.7681,-183.5 917.7681,-165.5 793.3892,-165.5"/>
<text text-anchor="middle" x="855.5786" y="-171.5" font-family="Helvetica,sans-Serif" font-size="10.00" fill="#000000">gtkmm/scrolledwindow.h</text>
</g>
    <!-- Node16&#45;&gt;Node18 -->
<g id="edge22" class="edge">
<title>Node16&#45;&gt;Node18</title>
<path fill="none" stroke="#191970" d="M1154.8631,-220.4795C1091.6551,-210.7687 991.2037,-195.3362 924.3472,-185.065"/>
<polygon fill="#191970" stroke="#191970" points="924.7418,-181.5846 914.3262,-183.5255 923.6788,-188.5035 924.7418,-181.5846"/>
</g>
    <!-- Node19 -->
<g id="node20" class="node">
<title>Node19</title>
<polygon fill="none" stroke="#bfbfbf" points="936.0566,-165.5 936.0566,-183.5 1047.1006,-183.5 1047.1006,-165.5 936.0566,-165.5"/>
<text text-anchor="middle" x="991.5786" y="-171.5" font-family="Helvetica,sans-Serif" font-size="10.00" fill="#000000">gtkmm/checkbutton.h</text>
</g>
    <!-- Node16&#45;&gt;Node19 -->
<g id="edge23" class="edge">
<title>Node16&#45;&gt;Node19</title>
<path fill="none" stroke="#191970" d="M1176.9198,-220.4179C1138.8062,-210.9753 1079.0507,-196.171 1037.7422,-185.9369"/>
<polygon fill="#191970" stroke="#191970" points="1038.4711,-182.5118 1027.9229,-183.5042 1036.7877,-189.3064 1038.4711,-182.5118"/>
</g>
    <!-- Node20 -->
<g id="node21" class="node">
<title>Node20</title>
<polygon fill="none" stroke="#bfbfbf" points="1064.6748,-165.5 1064.6748,-183.5 1158.4824,-183.5 1158.4824,-165.5 1064.6748,-165.5"/>
<text text-anchor="middle" x="1111.5786" y="-171.5" font-family="Helvetica,sans-Serif" font-size="10.00" fill="#000000">gtkmm/treeview.h</text>
</g>
    <!-- Node16&#45;&gt;Node20 -->
<g id="edge24" class="edge">
<title>Node16&#45;&gt;Node20</title>
<path fill="none" stroke="#191970" d="M1196.7354,-220.4179C1180.5679,-211.7001 1155.9248,-198.4122 1137.301,-188.3699"/>
<polygon fill="#191970" stroke="#191970" points="1138.91,-185.2611 1128.4469,-183.5956 1135.5876,-191.4225 1138.91,-185.2611"/>
</g>
    <!-- Node16&#45;&gt;Node21 -->
<g id="edge25" class="edge">
<title>Node16&#45;&gt;Node21</title>
<path fill="none" stroke="#191970" d="M1149.0966,-223.9854C1067.0713,-216.6747 920.8282,-202.6529 785.5907,-184.0602"/>
<polygon fill="#191970" stroke="#191970" points="785.8455,-180.5621 775.4596,-182.6558 784.8843,-187.4958 785.8455,-180.5621"/>
</g>
    <!-- Node22 -->
<g id="node23" class="node">
<title>Node22</title>
<polygon fill="none" stroke="#bfbfbf" points="1176.958,-165.5 1176.958,-183.5 1250.1992,-183.5 1250.1992,-165.5 1176.958,-165.5"/>
<text text-anchor="middle" x="1213.5786" y="-171.5" font-family="Helvetica,sans-Serif" font-size="10.00" fill="#000000">gtkmm/box.h</text>
</g>
    <!-- Node16&#45;&gt;Node22 -->
<g id="edge26" class="edge">
<title>Node16&#45;&gt;Node22</title>
<path fill="none" stroke="#191970" d="M1213.5786,-220.4179C1213.5786,-213.2164 1213.5786,-202.8962 1213.5786,-193.8632"/>
<polygon fill="#191970" stroke="#191970" points="1217.0787,-193.7794 1213.5786,-183.7795 1210.0787,-193.7795 1217.0787,-193.7794"/>
</g>
    <!-- Node23 -->
<g id="node24" class="node">
<title>Node23</title>
<polygon fill="none" stroke="#bfbfbf" points="1268.2388,-165.5 1268.2388,-183.5 1350.9185,-183.5 1350.9185,-165.5 1268.2388,-165.5"/>
<text text-anchor="middle" x="1309.5786" y="-171.5" font-family="Helvetica,sans-Serif" font-size="10.00" fill="#000000">gtkmm/frame.h</text>
</g>
    <!-- Node16&#45;&gt;Node23 -->
<g id="edge27" class="edge">
<title>Node16&#45;&gt;Node23</title>
<path fill="none" stroke="#191970" d="M1229.4311,-220.4179C1244.4391,-211.8195 1267.207,-198.7754 1284.6458,-188.7844"/>
<polygon fill="#191970" stroke="#191970" points="1286.7656,-191.6037 1293.7026,-183.5956 1283.2858,-185.5299 1286.7656,-191.6037"/>
</g>
    <!-- Node24 -->
<g id="node25" class="node">
<title>Node24</title>
<polygon fill="none" stroke="#bfbfbf" points="1368.6821,-165.5 1368.6821,-183.5 1442.4751,-183.5 1442.4751,-165.5 1368.6821,-165.5"/>
<text text-anchor="middle" x="1405.5786" y="-171.5" font-family="Helvetica,sans-Serif" font-size="10.00" fill="#000000">gtkmm/grid.h</text>
</g>
    <!-- Node16&#45;&gt;Node24 -->
<g id="edge28" class="edge">
<title>Node16&#45;&gt;Node24</title>
<path fill="none" stroke="#191970" d="M1245.2835,-220.4179C1277.8982,-211.0751 1328.8365,-196.4834 1364.5151,-186.263"/>
<polygon fill="#191970" stroke="#191970" points="1365.4962,-189.6228 1374.1457,-183.5042 1363.5685,-182.8934 1365.4962,-189.6228"/>
</g>
    <!-- Node25 -->
<g id="node26" class="node">
<title>Node25</title>
<polygon fill="none" stroke="#bfbfbf" points="1460.2314,-165.5 1460.2314,-183.5 1552.9258,-183.5 1552.9258,-165.5 1460.2314,-165.5"/>
<text text-anchor="middle" x="1506.5786" y="-171.5" font-family="Helvetica,sans-Serif" font-size="10.00" fill="#000000">gtkmm/textview.h</text>
</g>
    <!-- Node16&#45;&gt;Node25 -->
<g id="edge29" class="edge">
<title>Node16&#45;&gt;Node25</title>
<path fill="none" stroke="#191970" d="M1261.6335,-220.4795C1313.2926,-210.7824 1395.3475,-195.3796 1450.0654,-185.1083"/>
<polygon fill="#191970" stroke="#191970" points="1450.7682,-188.5376 1459.9508,-183.2527 1449.4767,-181.6577 1450.7682,-188.5376"/>
</g>
    <!-- Node26 -->
<g id="node27" class="node">
<title>Node26</title>
<polygon fill="none" stroke="#bfbfbf" points="1570.835,-165.5 1570.835,-183.5 1666.3223,-183.5 1666.3223,-165.5 1570.835,-165.5"/>
<text text-anchor="middle" x="1618.5786" y="-171.5" font-family="Helvetica,sans-Serif" font-size="10.00" fill="#000000">gtkmm/hvpaned.h</text>
</g>
    <!-- Node16&#45;&gt;Node26 -->
<g id="edge30" class="edge">
<title>Node16&#45;&gt;Node26</title>
<path fill="none" stroke="#191970" d="M1278.2774,-221.1659C1364.2911,-210.0685 1510.4484,-191.1443 1560.5791,-184.0678"/>
<polygon fill="#191970" stroke="#191970" points="1561.3074,-187.499 1570.7039,-182.6045 1560.306,-180.571 1561.3074,-187.499"/>
</g>
    <!-- Node27 -->
<g id="node28" class="node">
<title>Node27</title>
<g id="a_node28"><a xlink:href="../../de/d01/_prescription_8hpp.html" target="_top" xlink:title="../../model/Prescription.hpp">
<polygon fill="none" stroke="#000000" points="1684.106,-165.5 1684.106,-183.5 1819.0513,-183.5 1819.0513,-165.5 1684.106,-165.5"/>
<text text-anchor="middle" x="1751.5786" y="-171.5" font-family="Helvetica,sans-Serif" font-size="10.00" fill="#000000">../../model/Prescription.hpp</text>
</a>
</g>
</g>
    <!-- Node16&#45;&gt;Node27 -->
<g id="edge31" class="edge">
<title>Node16&#45;&gt;Node27</title>
<path fill="none" stroke="#191970" d="M1278.1365,-221.0764C1281.3279,-220.7026 1284.4888,-220.3416 1287.5786,-220 1456.4371,-201.3333 1501.6999,-202.6829 1673.8743,-184.1564"/>
<polygon fill="#191970" stroke="#191970" points="1674.4817,-187.6112 1684.0467,-183.0547 1673.7279,-180.6519 1674.4817,-187.6112"/>
</g>
    <!-- Node28 -->
<g id="node29" class="node">
<title>Node28</title>
<polygon fill="none" stroke="#bfbfbf" points="1578.9629,-55.5 1578.9629,-73.5 1622.1943,-73.5 1622.1943,-55.5 1578.9629,-55.5"/>
<text text-anchor="middle" x="1600.5786" y="-61.5" font-family="Helvetica,sans-Serif" font-size="10.00" fill="#000000">vector</text>
</g>
    <!-- Node27&#45;&gt;Node28 -->
<g id="edge32" class="edge">
<title>Node27&#45;&gt;Node28</title>
<path fill="none" stroke="#191970" d="M1739.2216,-165.4982C1713.3397,-146.6439 1653.1973,-102.8315 1621.3016,-79.5962"/>
<polygon fill="#191970" stroke="#191970" points="1623.2499,-76.6853 1613.1063,-73.6261 1619.1282,-82.3432 1623.2499,-76.6853"/>
</g>
    <!-- Node29 -->
<g id="node30" class="node">
<title>Node29</title>
<polygon fill="none" stroke="#bfbfbf" points="1630.3521,-.5 1630.3521,-18.5 1670.8052,-18.5 1670.8052,-.5 1630.3521,-.5"/>
<text text-anchor="middle" x="1650.5786" y="-6.5" font-family="Helvetica,sans-Serif" font-size="10.00" fill="#000000">string</text>
</g>
    <!-- Node27&#45;&gt;Node29 -->
<g id="edge33" class="edge">
<title>Node27&#45;&gt;Node29</title>
<path fill="none" stroke="#191970" d="M1711.7104,-165.4903C1667.7948,-153.174 1599.4438,-126.3592 1569.5786,-74 1555.0784,-48.5784 1591.7808,-29.4045 1620.4251,-18.8132"/>
<polygon fill="#191970" stroke="#191970" points="1621.8353,-22.0282 1630.1237,-15.4287 1619.5289,-15.419 1621.8353,-22.0282"/>
</g>
    <!-- Node30 -->
<g id="node31" class="node">
<title>Node30</title>
<polygon fill="none" stroke="#bfbfbf" points="1832.8521,-.5 1832.8521,-18.5 1868.3052,-18.5 1868.3052,-.5 1832.8521,-.5"/>
<text text-anchor="middle" x="1850.5786" y="-6.5" font-family="Helvetica,sans-Serif" font-size="10.00" fill="#000000">map</text>
</g>
    <!-- Node27&#45;&gt;Node30 -->
<g id="edge34" class="edge">
<title>Node27&#45;&gt;Node30</title>
<path fill="none" stroke="#191970" d="M1791.5671,-165.4926C1859.9401,-149.1923 1994.5731,-112.8677 2021.5786,-74 2026.397,-67.0652 2026.7251,-61.6949 2021.5786,-55 2004.2388,-32.4431 1922.4698,-18.708 1878.5841,-12.8377"/>
<polygon fill="#191970" stroke="#191970" points="1878.9241,-9.3527 1868.5587,-11.5455 1878.0292,-16.2952 1878.9241,-9.3527"/>
</g>
    <!-- Node31 -->
<g id="node32" class="node">
<title>Node31</title>
<polygon fill="none" stroke="#bfbfbf" points="1878.6675,-55.5 1878.6675,-73.5 2012.4897,-73.5 2012.4897,-55.5 1878.6675,-55.5"/>
<text text-anchor="middle" x="1945.5786" y="-61.5" font-family="Helvetica,sans-Serif" font-size="10.00" fill="#000000">gtkmm/treemodelcolumn.h</text>
</g>
    <!-- Node27&#45;&gt;Node31 -->
<g id="edge35" class="edge">
<title>Node27&#45;&gt;Node31</title>
<path fill="none" stroke="#191970" d="M1767.4544,-165.4982C1801.2041,-146.3619 1880.2971,-101.5153 1920.7686,-78.5675"/>
<polygon fill="#191970" stroke="#191970" points="1922.5108,-81.6032 1929.4834,-73.6261 1919.0581,-75.5139 1922.5108,-81.6032"/>
</g>
    <!-- Node32 -->
<g id="node33" class="node">
<title>Node32</title>
<g id="a_node33"><a xlink:href="../../d3/d1b/_i_serializable_8hpp.html" target="_top" xlink:title="../interfaces/ISerializable.hpp">
<polygon fill="none" stroke="#000000" points="1678.377,-55.5 1678.377,-73.5 1822.7803,-73.5 1822.7803,-55.5 1678.377,-55.5"/>
<text text-anchor="middle" x="1750.5786" y="-61.5" font-family="Helvetica,sans-Serif" font-size="10.00" fill="#000000">../interfaces/ISerializable.hpp</text>
</a>
</g>
</g>
    <!-- Node27&#45;&gt;Node32 -->
<g id="edge36" class="edge">
<title>Node27&#45;&gt;Node32</title>
<path fill="none" stroke="#191970" d="M1748.9108,-165.1868C1746.4441,-156.0585 1742.9582,-141.7041 1741.5786,-129 1739.917,-113.6991 1742.5672,-96.4333 1745.4135,-83.6184"/>
<polygon fill="#191970" stroke="#191970" points="1748.8721,-84.2105 1747.8618,-73.6639 1742.0747,-82.5386 1748.8721,-84.2105"/>
</g>
    <!-- Node33 -->
<g id="node34" class="node">
<title>Node33</title>
<g id="a_node34"><a xlink:href="../../dd/df9/_drug_8hpp.html" target="_top" xlink:title="Drug.hpp">
<polygon fill="none" stroke="#000000" points="1751.0098,-110.5 1751.0098,-128.5 1808.1475,-128.5 1808.1475,-110.5 1751.0098,-110.5"/>
<text text-anchor="middle" x="1779.5786" y="-116.5" font-family="Helvetica,sans-Serif" font-size="10.00" fill="#000000">Drug.hpp</text>
</a>
</g>
</g>
    <!-- Node27&#45;&gt;Node33 -->
<g id="edge39" class="edge">
<title>Node27&#45;&gt;Node33</title>
<path fill="none" stroke="#191970" d="M1756.2022,-165.4179C1759.9893,-157.9789 1765.4705,-147.2123 1770.1736,-137.9742"/>
<polygon fill="#191970" stroke="#191970" points="1773.4367,-139.279 1774.8545,-128.7795 1767.1986,-136.1032 1773.4367,-139.279"/>
</g>
    <!-- Node32&#45;&gt;Node29 -->
<g id="edge37" class="edge">
<title>Node32&#45;&gt;Node29</title>
<path fill="none" stroke="#191970" d="M1734.0656,-55.4179C1718.2876,-46.7399 1694.2758,-33.5334 1676.0471,-23.5077"/>
<polygon fill="#191970" stroke="#191970" points="1677.565,-20.3481 1667.1161,-18.5956 1674.1915,-26.4816 1677.565,-20.3481"/>
</g>
    <!-- Node32&#45;&gt;Node30 -->
<g id="edge38" class="edge">
<title>Node32&#45;&gt;Node30</title>
<path fill="none" stroke="#191970" d="M1767.0916,-55.4179C1782.8697,-46.7399 1806.8814,-33.5334 1825.1101,-23.5077"/>
<polygon fill="#191970" stroke="#191970" points="1826.9657,-26.4816 1834.0411,-18.5956 1823.5922,-20.3481 1826.9657,-26.4816"/>
</g>
    <!-- Node33&#45;&gt;Node28 -->
<g id="edge41" class="edge">
<title>Node33&#45;&gt;Node28</title>
<path fill="none" stroke="#191970" d="M1750.8192,-110.6633C1718.3083,-100.6739 1665.5515,-84.4637 1631.9869,-74.1506"/>
<polygon fill="#191970" stroke="#191970" points="1632.817,-70.7442 1622.2301,-71.1527 1630.761,-77.4355 1632.817,-70.7442"/>
</g>
    <!-- Node33&#45;&gt;Node29 -->
<g id="edge40" class="edge">
<title>Node33&#45;&gt;Node29</title>
<path fill="none" stroke="#191970" d="M1750.7563,-114.7471C1725.8856,-109.1695 1690.7244,-97.5088 1669.5786,-74 1658.3673,-61.5359 1653.7554,-42.7582 1651.8668,-28.6729"/>
<polygon fill="#191970" stroke="#191970" points="1655.3367,-28.1964 1650.8619,-18.5929 1648.3712,-28.8908 1655.3367,-28.1964"/>
</g>
    <!-- Node33&#45;&gt;Node30 -->
<g id="edge42" class="edge">
<title>Node33&#45;&gt;Node30</title>
<path fill="none" stroke="#191970" d="M1793.9533,-110.3531C1805.6945,-102.1727 1821.8805,-89.1565 1831.5786,-74 1840.3281,-60.326 1845.1785,-42.4751 1847.784,-29.0201"/>
<polygon fill="#191970" stroke="#191970" points="1851.2722,-29.3824 1849.481,-18.9401 1844.3693,-28.2202 1851.2722,-29.3824"/>
</g>
    <!-- Node33&#45;&gt;Node31 -->
<g id="edge43" class="edge">
<title>Node33&#45;&gt;Node31</title>
<path fill="none" stroke="#191970" d="M1806.9901,-110.4179C1834.8267,-101.1949 1878.102,-86.8567 1908.8829,-76.6582"/>
<polygon fill="#191970" stroke="#191970" points="1910.0105,-79.9718 1918.4023,-73.5042 1907.8089,-73.327 1910.0105,-79.9718"/>
</g>
    <!-- Node33&#45;&gt;Node32 -->
<g id="edge44" class="edge">
<title>Node33&#45;&gt;Node32</title>
<path fill="none" stroke="#191970" d="M1774.7899,-110.4179C1770.8258,-102.8998 1765.0696,-91.9829 1760.1644,-82.6799"/>
<polygon fill="#191970" stroke="#191970" points="1763.2316,-80.9927 1755.4714,-73.7795 1757.0396,-84.2576 1763.2316,-80.9927"/>
</g>
    <!-- Node35 -->
<g id="node36" class="node">
<title>Node35</title>
<polygon fill="none" stroke="#bfbfbf" points="595.4063,-110.5 595.4063,-128.5 649.751,-128.5 649.751,-110.5 595.4063,-110.5"/>
<text text-anchor="middle" x="622.5786" y="-116.5" font-family="Helvetica,sans-Serif" font-size="10.00" fill="#000000">iostream</text>
</g>
    <!-- Node34&#45;&gt;Node35 -->
<g id="edge46" class="edge">
<title>Node34&#45;&gt;Node35</title>
<path fill="none" stroke="#191970" d="M622.5786,-165.4179C622.5786,-158.2164 622.5786,-147.8962 622.5786,-138.8632"/>
<polygon fill="#191970" stroke="#191970" points="626.0787,-138.7794 622.5786,-128.7795 619.0787,-138.7795 626.0787,-138.7794"/>
</g>
    <!-- Node36&#45;&gt;Node34 -->
<g id="edge51" class="edge">
<title>Node36&#45;&gt;Node34</title>
<path fill="none" stroke="#191970" d="M449.7605,-220.4179C485.0734,-211.0352 540.3108,-196.3586 578.7993,-186.1322"/>
<polygon fill="#191970" stroke="#191970" points="579.9242,-189.4548 588.69,-183.5042 578.1266,-182.6896 579.9242,-189.4548"/>
</g>
    <!-- Node37 -->
<g id="node38" class="node">
<title>Node37</title>
<polygon fill="none" stroke="#bfbfbf" points="259.2725,-165.5 259.2725,-183.5 337.8848,-183.5 337.8848,-165.5 259.2725,-165.5"/>
<text text-anchor="middle" x="298.5786" y="-171.5" font-family="Helvetica,sans-Serif" font-size="10.00" fill="#000000">gtkmm/entry.h</text>
</g>
    <!-- Node36&#45;&gt;Node37 -->
<g id="edge48" class="edge">
<title>Node36&#45;&gt;Node37</title>
<path fill="none" stroke="#191970" d="M396.2584,-220.4179C377.4594,-211.5807 348.6701,-198.0473 327.2097,-187.9591"/>
<polygon fill="#191970" stroke="#191970" points="328.4664,-184.6824 317.9275,-183.5956 325.4884,-191.0174 328.4664,-184.6824"/>
</g>
    <!-- Node38 -->
<g id="node39" class="node">
<title>Node38</title>
<polygon fill="none" stroke="#bfbfbf" points="355.8916,-165.5 355.8916,-183.5 475.2656,-183.5 475.2656,-165.5 355.8916,-165.5"/>
<text text-anchor="middle" x="415.5786" y="-171.5" font-family="Helvetica,sans-Serif" font-size="10.00" fill="#000000">gtkmm/comboboxtext.h</text>
</g>
    <!-- Node36&#45;&gt;Node38 -->
<g id="edge49" class="edge">
<title>Node36&#45;&gt;Node38</title>
<path fill="none" stroke="#191970" d="M415.5786,-220.4179C415.5786,-213.2164 415.5786,-202.8962 415.5786,-193.8632"/>
<polygon fill="#191970" stroke="#191970" points="419.0787,-193.7794 415.5786,-183.7795 412.0787,-193.7795 419.0787,-193.7794"/>
</g>
    <!-- Node39 -->
<g id="node40" class="node">
<title>Node39</title>
<polygon fill="none" stroke="#bfbfbf" points="492.9063,-165.5 492.9063,-183.5 562.251,-183.5 562.251,-165.5 492.9063,-165.5"/>
<text text-anchor="middle" x="527.5786" y="-171.5" font-family="Helvetica,sans-Serif" font-size="10.00" fill="#000000">fmt/format.h</text>
</g>
    <!-- Node36&#45;&gt;Node39 -->
<g id="edge50" class="edge">
<title>Node36&#45;&gt;Node39</title>
<path fill="none" stroke="#191970" d="M434.0731,-220.4179C451.9878,-211.6205 479.3797,-198.1691 499.893,-188.0956"/>
<polygon fill="#191970" stroke="#191970" points="501.6233,-191.1452 509.0566,-183.5956 498.5377,-184.8619 501.6233,-191.1452"/>
</g>
</g>
</svg>
        <g id="navigator" transform="translate(0 0)" fill="#404254">
                <rect fill="#f2f5e9" fill-opacity="0.5" stroke="#606060" stroke-width=".5" x="0" y="0" width="60" height="60"/>
                <use id="zoomplus" xlink:href="#zoomPlus" x="17" y="9" onmousedown="handleZoom(evt,'in')"/>
                <use id="zoomminus" xlink:href="#zoomMin" x="42" y="9" onmousedown="handleZoom(evt,'out')"/>
                <use id="reset" xlink:href="#resetDef" x="30" y="36" onmousedown="handleReset()"/>
                <g id="arrowUp" xlink:href="#dirArrow" transform="translate(30 24)" onmousedown="handlePan(0,-1)">
                  <use xlink:href="#rim" fill="#404040">
                        <set attributeName="fill" to="#808080" begin="arrowUp.mouseover" end="arrowUp.mouseout"/>
                  </use>
                  <path fill="none" stroke="white" stroke-width="1.5" d="M0,-3.0v7 M-2.5,-0.5L0,-3.0L2.5,-0.5"/>
                </g>
                <g id="arrowRight" xlink:href="#dirArrow" transform="rotate(90) translate(36 -43)" onmousedown="handlePan(1,0)">
                  <use xlink:href="#rim" fill="#404040">
                        <set attributeName="fill" to="#808080" begin="arrowRight.mouseover" end="arrowRight.mouseout"/>
                  </use>
                  <path fill="none" stroke="white" stroke-width="1.5" d="M0,-3.0v7 M-2.5,-0.5L0,-3.0L2.5,-0.5"/>
                </g>
                <g id="arrowDown" xlink:href="#dirArrow" transform="rotate(180) translate(-30 -48)" onmousedown="handlePan(0,1)">
                  <use xlink:href="#rim" fill="#404040">
                        <set attributeName="fill" to="#808080" begin="arrowDown.mouseover" end="arrowDown.mouseout"/>
                  </use>
                  <path fill="none" stroke="white" stroke-width="1.5" d="M0,-3.0v7 M-2.5,-0.5L0,-3.0L2.5,-0.5"/>
                </g>
                <g id="arrowLeft" xlink:href="#dirArrow" transform="rotate(270) translate(-36 17)" onmousedown="handlePan(-1,0)">
                  <use xlink:href="#rim" fill="#404040">
                        <set attributeName="fill" to="#808080" begin="arrowLeft.mouseover" end="arrowLeft.mouseout"/>
                  </use>
                  <path fill="none" stroke="white" stroke-width="1.5" d="M0,-3.0v7 M-2.5,-0.5L0,-3.0L2.5,-0.5"/>
                </g>
        </g>
        <svg viewBox="0 0 15 15" width="100%" height="30px" preserveAspectRatio="xMaxYMin meet">
         <g id="arrow_out" transform="scale(0.3 0.3)">
          <a xlink:href="_main_window_8cpp__incl_org.svg" target="_base">
           <rect id="button" ry="5" rx="5" y="6" x="6" height="38" width="38"
                fill="#f2f5e9" fill-opacity="0.5" stroke="#606060" stroke-width="1.0"/>
           <path id="arrow"
             d="M 11.500037,31.436501 C 11.940474,20.09759 22.043105,11.32322 32.158766,21.979434 L 37.068811,17.246167 C 37.068811,17.246167 37.088388,32 37.088388,32 L 22.160133,31.978069 C 22.160133,31.978069 26.997745,27.140456 26.997745,27.140456 C 18.528582,18.264221 13.291696,25.230495 11.500037,31.436501 z"
             style="fill:#404040;"/>
          </a>
         </g>
        </svg>
</svg>
