<?xml version="1.0" encoding="UTF-8" standalone="no"?>
<!DOCTYPE svg PUBLIC "-//W3C//DTD SVG 1.1//EN"
        "http://www.w3.org/Graphics/SVG/1.1/DTD/svg11.dtd">
<!-- Generated by graphviz version 2.40.1 (20161225.0304)
 -->
<!-- Title: code/gui/Widgets.cpp Pages: 1 -->
<svg width="555pt" height="192pt"
     viewBox="0.00 0.00 554.84 192.00" xmlns="http://www.w3.org/2000/svg" xmlns:xlink="http://www.w3.org/1999/xlink">
    <g id="graph0" class="graph" transform="scale(1 1) rotate(0) translate(4 188)">
        <title>code/gui/Widgets.cpp</title>
        <!-- Node0 -->
        <g id="node1" class="node">
            <title>Node0</title>
            <polygon fill="#bfbfbf" stroke="#000000"
                     points="125.864,-165.5 125.864,-183.5 237.4743,-183.5 237.4743,-165.5 125.864,-165.5"/>
            <text text-anchor="middle" x="181.6692" y="-171.5" font-family="Helvetica,sans-Serif" font-size="10.00"
                  fill="#000000">code/gui/Widgets.cpp
            </text>
        </g>
        <!-- Node1 -->
        <g id="node2" class="node">
            <title>Node1</title>
            <polygon fill="none" stroke="#bfbfbf"
                     points="158.4968,-.5 158.4968,-18.5 212.8415,-18.5 212.8415,-.5 158.4968,-.5"/>
            <text text-anchor="middle" x="185.6692" y="-6.5" font-family="Helvetica,sans-Serif" font-size="10.00"
                  fill="#000000">iostream
            </text>
        </g>
        <!-- Node0&#45;&gt;Node1 -->
        <g id="edge1" class="edge">
            <title>Node0&#45;&gt;Node1</title>
            <path fill="none" stroke="#191970"
                  d="M143.8457,-165.3939C81.3957,-148.5759 -32.4059,-109.3358 9.6692,-55 26.4656,-33.3091 101.6178,-20.0951 148.1198,-13.8481"/>
            <polygon fill="#191970" stroke="#191970"
                     points="148.6741,-17.3056 158.1414,-12.5496 147.7745,-10.3637 148.6741,-17.3056"/>
        </g>
        <!-- Node2 -->
        <g id="node3" class="node">
            <title>Node2</title>
            <polygon fill="none" stroke="#bfbfbf"
                     points="90.6423,-110.5 90.6423,-128.5 176.696,-128.5 176.696,-110.5 90.6423,-110.5"/>
            <text text-anchor="middle" x="133.6692" y="-116.5" font-family="Helvetica,sans-Serif" font-size="10.00"
                  fill="#000000">spdlog/spdlog.h
            </text>
        </g>
        <!-- Node0&#45;&gt;Node2 -->
        <g id="edge2" class="edge">
            <title>Node0&#45;&gt;Node2</title>
            <path fill="none" stroke="#191970"
                  d="M173.7429,-165.4179C166.9055,-157.5833 156.8467,-146.0575 148.5175,-136.5137"/>
            <polygon fill="#191970" stroke="#191970"
                     points="150.98,-134.0123 141.7676,-128.7795 145.706,-138.6151 150.98,-134.0123"/>
        </g>
        <!-- Node3 -->
        <g id="node4" class="node">
            <title>Node3</title>
            <g id="a_node4">
                <a xlink:href="../../dc/d55/_widgets_8hpp.html" target="_top" xlink:title="Widgets.hpp">
                    <polygon fill="none" stroke="#000000"
                             points="194.8762,-110.5 194.8762,-128.5 266.4621,-128.5 266.4621,-110.5 194.8762,-110.5"/>
                    <text text-anchor="middle" x="230.6692" y="-116.5" font-family="Helvetica,sans-Serif"
                          font-size="10.00" fill="#000000">Widgets.hpp
                    </text>
                </a>
            </g>
        </g>
        <!-- Node0&#45;&gt;Node3 -->
        <g id="edge3" class="edge">
            <title>Node0&#45;&gt;Node3</title>
            <path fill="none" stroke="#191970"
                  d="M189.7605,-165.4179C196.7404,-157.5833 207.0088,-146.0575 215.5115,-136.5137"/>
            <polygon fill="#191970" stroke="#191970"
                     points="218.3632,-138.5743 222.402,-128.7795 213.1366,-133.9178 218.3632,-138.5743"/>
        </g>
        <!-- Node8 -->
        <g id="node9" class="node">
            <title>Node8</title>
            <g id="a_node9">
                <a xlink:href="../../dc/db8/_ref_builder_8hpp.html" target="_top" xlink:title="RefBuilder.hpp">
                    <polygon fill="none" stroke="#000000"
                             points="396.8664,-110.5 396.8664,-128.5 478.4719,-128.5 478.4719,-110.5 396.8664,-110.5"/>
                    <text text-anchor="middle" x="437.6692" y="-116.5" font-family="Helvetica,sans-Serif"
                          font-size="10.00" fill="#000000">RefBuilder.hpp
                    </text>
                </a>
            </g>
        </g>
        <!-- Node0&#45;&gt;Node8 -->
        <g id="edge9" class="edge">
            <title>Node0&#45;&gt;Node8</title>
            <path fill="none" stroke="#191970"
                  d="M223.6557,-165.4795C268.2843,-155.8913 338.877,-140.7249 386.6724,-130.4563"/>
            <polygon fill="#191970" stroke="#191970"
                     points="387.4661,-133.8658 396.5078,-128.3433 385.9957,-127.0219 387.4661,-133.8658"/>
        </g>
        <!-- Node4 -->
        <g id="node5" class="node">
            <title>Node4</title>
            <polygon fill="none" stroke="#bfbfbf"
                     points="18.363,-55.5 18.363,-73.5 96.9753,-73.5 96.9753,-55.5 18.363,-55.5"/>
            <text text-anchor="middle" x="57.6692" y="-61.5" font-family="Helvetica,sans-Serif" font-size="10.00"
                  fill="#000000">gtkmm/entry.h
            </text>
        </g>
        <!-- Node3&#45;&gt;Node4 -->
        <g id="edge4" class="edge">
            <title>Node3&#45;&gt;Node4</title>
            <path fill="none" stroke="#191970"
                  d="M202.1017,-110.4179C173.0913,-101.1949 127.9911,-86.8567 95.9123,-76.6582"/>
            <polygon fill="#191970" stroke="#191970"
                     points="96.5819,-73.1985 85.9915,-73.5042 94.461,-79.8695 96.5819,-73.1985"/>
        </g>
        <!-- Node5 -->
        <g id="node6" class="node">
            <title>Node5</title>
            <polygon fill="none" stroke="#bfbfbf"
                     points="114.9822,-55.5 114.9822,-73.5 234.3562,-73.5 234.3562,-55.5 114.9822,-55.5"/>
            <text text-anchor="middle" x="174.6692" y="-61.5" font-family="Helvetica,sans-Serif" font-size="10.00"
                  fill="#000000">gtkmm/comboboxtext.h
            </text>
        </g>
        <!-- Node3&#45;&gt;Node5 -->
        <g id="edge5" class="edge">
            <title>Node3&#45;&gt;Node5</title>
            <path fill="none" stroke="#191970"
                  d="M221.4219,-110.4179C213.2837,-102.425 201.2339,-90.5903 191.4058,-80.9377"/>
            <polygon fill="#191970" stroke="#191970"
                     points="193.7043,-78.2895 184.1173,-73.7795 188.7994,-83.2836 193.7043,-78.2895"/>
        </g>
        <!-- Node6 -->
        <g id="node7" class="node">
            <title>Node6</title>
            <polygon fill="none" stroke="#bfbfbf"
                     points="251.9968,-55.5 251.9968,-73.5 321.3415,-73.5 321.3415,-55.5 251.9968,-55.5"/>
            <text text-anchor="middle" x="286.6692" y="-61.5" font-family="Helvetica,sans-Serif" font-size="10.00"
                  fill="#000000">fmt/format.h
            </text>
        </g>
        <!-- Node3&#45;&gt;Node6 -->
        <g id="edge6" class="edge">
            <title>Node3&#45;&gt;Node6</title>
            <path fill="none" stroke="#191970"
                  d="M239.9164,-110.4179C248.0546,-102.425 260.1045,-90.5903 269.9326,-80.9377"/>
            <polygon fill="#191970" stroke="#191970"
                     points="272.539,-83.2836 277.221,-73.7795 267.634,-78.2895 272.539,-83.2836"/>
        </g>
        <!-- Node7 -->
        <g id="node8" class="node">
            <title>Node7</title>
            <g id="a_node8">
                <a xlink:href="../../d8/d63/_date_8hpp.html" target="_top" xlink:title="../utils/Date.hpp">
                    <polygon fill="none" stroke="#000000"
                             points="338.928,-55.5 338.928,-73.5 424.4104,-73.5 424.4104,-55.5 338.928,-55.5"/>
                    <text text-anchor="middle" x="381.6692" y="-61.5" font-family="Helvetica,sans-Serif"
                          font-size="10.00" fill="#000000">../utils/Date.hpp
                    </text>
                </a>
            </g>
        </g>
        <!-- Node3&#45;&gt;Node7 -->
        <g id="edge7" class="edge">
            <title>Node3&#45;&gt;Node7</title>
            <path fill="none" stroke="#191970"
                  d="M255.6037,-110.4179C280.5961,-101.3147 319.2698,-87.2283 347.1928,-77.0576"/>
            <polygon fill="#191970" stroke="#191970"
                     points="348.7503,-80.2153 356.9485,-73.5042 346.3545,-73.6381 348.7503,-80.2153"/>
        </g>
        <!-- Node7&#45;&gt;Node1 -->
        <g id="edge8" class="edge">
            <title>Node7&#45;&gt;Node1</title>
            <path fill="none" stroke="#191970"
                  d="M349.3038,-55.4179C314.5188,-45.6568 259.3159,-30.1662 222.7924,-19.9172"/>
            <polygon fill="#191970" stroke="#191970"
                     points="223.5925,-16.5066 213.0188,-17.1746 221.7013,-23.2463 223.5925,-16.5066"/>
        </g>
        <!-- Node9 -->
        <g id="node10" class="node">
            <title>Node9</title>
            <polygon fill="none" stroke="#bfbfbf"
                     points="442.4944,-55.5 442.4944,-73.5 546.844,-73.5 546.844,-55.5 442.4944,-55.5"/>
            <text text-anchor="middle" x="494.6692" y="-61.5" font-family="Helvetica,sans-Serif" font-size="10.00"
                  fill="#000000">gtkmm&#45;3.0/gtkmm.h
            </text>
        </g>
        <!-- Node8&#45;&gt;Node9 -->
        <g id="edge10" class="edge">
            <title>Node8&#45;&gt;Node9</title>
            <path fill="none" stroke="#191970"
                  d="M447.0816,-110.4179C455.3651,-102.425 467.6301,-90.5903 477.6337,-80.9377"/>
            <polygon fill="#191970" stroke="#191970"
                     points="480.2864,-83.2419 485.0523,-73.7795 475.4258,-78.2045 480.2864,-83.2419"/>
        </g>
    </g>
</svg>
