<?xml version="1.0" encoding="UTF-8" standalone="no"?>
<!DOCTYPE svg PUBLIC "-//W3C//DTD SVG 1.1//EN"
        "http://www.w3.org/Graphics/SVG/1.1/DTD/svg11.dtd">
<!-- Generated by graphviz version 2.40.1 (20161225.0304)
 -->
<!-- Title: code/utils/Date.hpp Pages: 1 -->
<svg width="1495pt" height="212pt"
     viewBox="0.00 0.00 1494.65 212.00" xmlns="http://www.w3.org/2000/svg" xmlns:xlink="http://www.w3.org/1999/xlink">
    <g id="graph0" class="graph" transform="scale(1 1) rotate(0) translate(4 208)">
        <title>code/utils/Date.hpp</title>
        <!-- Node2 -->
        <g id="node1" class="node">
            <title>Node2</title>
            <polygon fill="#bfbfbf" stroke="#000000"
                     points="982.8569,-185.5 982.8569,-203.5 1084.4673,-203.5 1084.4673,-185.5 982.8569,-185.5"/>
            <text text-anchor="middle" x="1033.6621" y="-191.5" font-family="Helvetica,sans-Serif" font-size="10.00"
                  fill="#000000">code/utils/Date.hpp
            </text>
        </g>
        <!-- Node3 -->
        <g id="node2" class="node">
            <title>Node3</title>
            <g id="a_node2">
                <a xlink:href="../../dc/d55/_widgets_8hpp.html" target="_top" xlink:title="code/gui/Widgets.hpp">
                    <polygon fill="none" stroke="#000000"
                             points="315.5762,-130.5 315.5762,-148.5 427.748,-148.5 427.748,-130.5 315.5762,-130.5"/>
                    <text text-anchor="middle" x="371.6621" y="-136.5" font-family="Helvetica,sans-Serif"
                          font-size="10.00" fill="#000000">code/gui/Widgets.hpp
                    </text>
                </a>
            </g>
        </g>
        <!-- Node2&#45;&gt;Node3 -->
        <g id="edge1" class="edge">
            <title>Node2&#45;&gt;Node3</title>
            <path fill="none" stroke="#191970"
                  d="M972.8202,-189.4452C845.2051,-178.8427 551.1822,-154.4148 427.7882,-144.163"/>
            <polygon fill="#191970" stroke="#191970"
                     points="972.5598,-192.9355 982.8153,-190.2756 973.1395,-185.9595 972.5598,-192.9355"/>
        </g>
        <!-- Node8 -->
        <g id="node7" class="node">
            <title>Node8</title>
            <g id="a_node7">
                <a xlink:href="../../df/de8/_add_prescription_dialog_8cpp.html" target="_top"
                   xlink:title="code/gui/AddPrescription\lDialog.cpp">
                    <polygon fill="none" stroke="#000000"
                             points="733.0737,-.5 733.0737,-28.5 860.2505,-28.5 860.2505,-.5 733.0737,-.5"/>
                    <text text-anchor="start" x="741.0737" y="-16.5" font-family="Helvetica,sans-Serif"
                          font-size="10.00" fill="#000000">code/gui/AddPrescription
                    </text>
                    <text text-anchor="middle" x="796.6621" y="-6.5" font-family="Helvetica,sans-Serif"
                          font-size="10.00" fill="#000000">Dialog.cpp
                    </text>
                </a>
            </g>
        </g>
        <!-- Node2&#45;&gt;Node8 -->
        <g id="edge19" class="edge">
            <title>Node2&#45;&gt;Node8</title>
            <path fill="none" stroke="#191970"
                  d="M1023.6359,-176.107C1019.2323,-167.8741 1014.0717,-158.0108 1009.6621,-149 991.6508,-112.195 1002.6442,-91.8165 971.6621,-65 954.806,-50.4102 903.43,-36.5723 860.6733,-27.084"/>
            <polygon fill="#191970" stroke="#191970"
                     points="1020.7002,-178.0367 1028.5305,-185.1738 1026.8599,-174.7114 1020.7002,-178.0367"/>
        </g>
        <!-- Node9 -->
        <g id="node8" class="node">
            <title>Node9</title>
            <g id="a_node8">
                <a xlink:href="../../dd/de0/_patient_window_8hpp.html" target="_top"
                   xlink:title="code/gui/PatientWindow.hpp">
                    <polygon fill="none" stroke="#000000"
                             points="300.5615,-70.5 300.5615,-88.5 442.7627,-88.5 442.7627,-70.5 300.5615,-70.5"/>
                    <text text-anchor="middle" x="371.6621" y="-76.5" font-family="Helvetica,sans-Serif"
                          font-size="10.00" fill="#000000">code/gui/PatientWindow.hpp
                    </text>
                </a>
            </g>
        </g>
        <!-- Node2&#45;&gt;Node9 -->
        <g id="edge25" class="edge">
            <title>Node2&#45;&gt;Node9</title>
            <path fill="none" stroke="#191970"
                  d="M972.712,-191.9235C887.7299,-187.4796 729.1572,-176.0883 596.6621,-149 521.7592,-133.6863 436.2282,-103.6608 395.5632,-88.5877"/>
            <polygon fill="#191970" stroke="#191970"
                     points="972.5392,-195.4192 982.7041,-192.4316 972.8948,-188.4282 972.5392,-195.4192"/>
        </g>
        <!-- Node12 -->
        <g id="node11" class="node">
            <title>Node12</title>
            <g id="a_node11">
                <a xlink:href="../../d5/d46/_custom_widgets_8hpp.html" target="_top"
                   xlink:title="code/gui/view/CustomWidgets.hpp">
                    <polygon fill="none" stroke="#000000"
                             points="605.958,-130.5 605.958,-148.5 775.3662,-148.5 775.3662,-130.5 605.958,-130.5"/>
                    <text text-anchor="middle" x="690.6621" y="-136.5" font-family="Helvetica,sans-Serif"
                          font-size="10.00" fill="#000000">code/gui/view/CustomWidgets.hpp
                    </text>
                </a>
            </g>
        </g>
        <!-- Node2&#45;&gt;Node12 -->
        <g id="edge12" class="edge">
            <title>Node2&#45;&gt;Node12</title>
            <path fill="none" stroke="#191970"
                  d="M972.7434,-184.7317C908.8385,-174.4846 809.2197,-158.5107 747.0629,-148.5439"/>
            <polygon fill="#191970" stroke="#191970"
                     points="972.2539,-188.1978 982.6819,-186.3253 973.3622,-181.2861 972.2539,-188.1978"/>
        </g>
        <!-- Node16 -->
        <g id="node15" class="node">
            <title>Node16</title>
            <g id="a_node15">
                <a xlink:href="../../dd/dc5/_doctor_8hpp.html" target="_top" xlink:title="code/model/Doctor.hpp">
                    <polygon fill="none" stroke="#000000"
                             points="1018.2388,-130.5 1018.2388,-148.5 1137.0854,-148.5 1137.0854,-130.5 1018.2388,-130.5"/>
                    <text text-anchor="middle" x="1077.6621" y="-136.5" font-family="Helvetica,sans-Serif"
                          font-size="10.00" fill="#000000">code/model/Doctor.hpp
                    </text>
                </a>
            </g>
        </g>
        <!-- Node2&#45;&gt;Node16 -->
        <g id="edge20" class="edge">
            <title>Node2&#45;&gt;Node16</title>
            <path fill="none" stroke="#191970"
                  d="M1047.3129,-177.4365C1054.8763,-167.9823 1063.9856,-156.5956 1070.2385,-148.7795"/>
            <polygon fill="#191970" stroke="#191970"
                     points="1044.4418,-175.4227 1040.9278,-185.4179 1049.9079,-179.7956 1044.4418,-175.4227"/>
        </g>
        <!-- Node17 -->
        <g id="node16" class="node">
            <title>Node17</title>
            <g id="a_node16">
                <a xlink:href="../../d1/d16/_prescription_window_8cpp.html" target="_top"
                   xlink:title="code/gui/PrescriptionWindow.cpp">
                    <polygon fill="none" stroke="#000000"
                             points="1193.0098,-70.5 1193.0098,-88.5 1356.3145,-88.5 1356.3145,-70.5 1193.0098,-70.5"/>
                    <text text-anchor="middle" x="1274.6621" y="-76.5" font-family="Helvetica,sans-Serif"
                          font-size="10.00" fill="#000000">code/gui/PrescriptionWindow.cpp
                    </text>
                </a>
            </g>
        </g>
        <!-- Node2&#45;&gt;Node17 -->
        <g id="edge26" class="edge">
            <title>Node2&#45;&gt;Node17</title>
            <path fill="none" stroke="#191970"
                  d="M1067.4503,-181.8737C1089.8907,-173.2204 1119.8586,-161.1487 1145.6621,-149 1167.6424,-138.6514 1228.6326,-105.0573 1258.1871,-88.6649"/>
            <polygon fill="#191970" stroke="#191970"
                     points="1066.1104,-178.6388 1058.0203,-185.48 1068.6108,-185.1771 1066.1104,-178.6388"/>
        </g>
        <!-- Node19 -->
        <g id="node18" class="node">
            <title>Node19</title>
            <g id="a_node18">
                <a xlink:href="../../dc/d1f/_date_8cpp.html" target="_top" xlink:title="code/utils/Date.cpp">
                    <polygon fill="none" stroke="#000000"
                             points="1193.1377,-130.5 1193.1377,-148.5 1294.1865,-148.5 1294.1865,-130.5 1193.1377,-130.5"/>
                    <text text-anchor="middle" x="1243.6621" y="-136.5" font-family="Helvetica,sans-Serif"
                          font-size="10.00" fill="#000000">code/utils/Date.cpp
                    </text>
                </a>
            </g>
        </g>
        <!-- Node2&#45;&gt;Node19 -->
        <g id="edge27" class="edge">
            <title>Node2&#45;&gt;Node19</title>
            <path fill="none" stroke="#191970"
                  d="M1078.1515,-182.848C1117.3028,-172.5941 1173.494,-157.8774 1209.2824,-148.5042"/>
            <polygon fill="#191970" stroke="#191970"
                     points="1077.1263,-179.4984 1068.3393,-185.4179 1078.8998,-186.27 1077.1263,-179.4984"/>
        </g>
        <!-- Node20 -->
        <g id="node19" class="node">
            <title>Node20</title>
            <g id="a_node19">
                <a xlink:href="../../d9/da3/_date_by_8hpp.html" target="_top" xlink:title="code/utils/DateBy.hpp">
                    <polygon fill="none" stroke="#000000"
                             points="1343.3906,-130.5 1343.3906,-148.5 1455.9336,-148.5 1455.9336,-130.5 1343.3906,-130.5"/>
                    <text text-anchor="middle" x="1399.6621" y="-136.5" font-family="Helvetica,sans-Serif"
                          font-size="10.00" fill="#000000">code/utils/DateBy.hpp
                    </text>
                </a>
            </g>
        </g>
        <!-- Node2&#45;&gt;Node20 -->
        <g id="edge28" class="edge">
            <title>Node2&#45;&gt;Node20</title>
            <path fill="none" stroke="#191970"
                  d="M1094.4425,-185.3663C1163.6567,-174.9653 1275.8385,-158.1074 1343.2017,-147.9845"/>
            <polygon fill="#191970" stroke="#191970"
                     points="1093.9217,-181.9052 1084.5528,-186.8525 1094.962,-188.8275 1093.9217,-181.9052"/>
        </g>
        <!-- Node4 -->
        <g id="node3" class="node">
            <title>Node4</title>
            <g id="a_node3">
                <a xlink:href="../../d2/dac/_add_patient_dialog_8hpp.html" target="_top"
                   xlink:title="code/gui/AddPatientDialog.hpp">
                    <polygon fill="none" stroke="#000000"
                             points="0,-70.5 0,-88.5 153.3242,-88.5 153.3242,-70.5 0,-70.5"/>
                    <text text-anchor="middle" x="76.6621" y="-76.5" font-family="Helvetica,sans-Serif"
                          font-size="10.00" fill="#000000">code/gui/AddPatientDialog.hpp
                    </text>
                </a>
            </g>
        </g>
        <!-- Node3&#45;&gt;Node4 -->
        <g id="edge2" class="edge">
            <title>Node3&#45;&gt;Node4</title>
            <path fill="none" stroke="#191970"
                  d="M317.3526,-128.454C260.8701,-116.966 173.5086,-99.1976 121.0249,-88.5229"/>
            <polygon fill="#191970" stroke="#191970"
                     points="316.6812,-131.889 327.1782,-130.4524 318.0765,-125.0295 316.6812,-131.889"/>
        </g>
        <!-- Node7 -->
        <g id="node6" class="node">
            <title>Node7</title>
            <g id="a_node6">
                <a xlink:href="../../d0/d1e/_add_prescription_dialog_8hpp.html" target="_top"
                   xlink:title="code/gui/AddPrescription\lDialog.hpp">
                    <polygon fill="none" stroke="#000000"
                             points="461.0737,-65.5 461.0737,-93.5 588.2505,-93.5 588.2505,-65.5 461.0737,-65.5"/>
                    <text text-anchor="start" x="469.0737" y="-81.5" font-family="Helvetica,sans-Serif"
                          font-size="10.00" fill="#000000">code/gui/AddPrescription
                    </text>
                    <text text-anchor="middle" x="524.6621" y="-71.5" font-family="Helvetica,sans-Serif"
                          font-size="10.00" fill="#000000">Dialog.hpp
                    </text>
                </a>
            </g>
        </g>
        <!-- Node3&#45;&gt;Node7 -->
        <g id="edge5" class="edge">
            <title>Node3&#45;&gt;Node7</title>
            <path fill="none" stroke="#191970"
                  d="M404.2654,-126.7144C429.131,-116.9632 463.3489,-103.5444 488.9518,-93.504"/>
            <polygon fill="#191970" stroke="#191970"
                     points="402.9314,-123.4779 394.8995,-130.3873 405.4871,-129.9948 402.9314,-123.4779"/>
        </g>
        <!-- Node3&#45;&gt;Node9 -->
        <g id="edge8" class="edge">
            <title>Node3&#45;&gt;Node9</title>
            <path fill="none" stroke="#191970"
                  d="M371.6621,-120.3734C371.6621,-109.7812 371.6621,-97.0976 371.6621,-88.6985"/>
            <polygon fill="#191970" stroke="#191970"
                     points="368.1622,-120.3873 371.6621,-130.3873 375.1622,-120.3873 368.1622,-120.3873"/>
        </g>
        <!-- Node11 -->
        <g id="node10" class="node">
            <title>Node11</title>
            <g id="a_node10">
                <a xlink:href="../../d7/d49/_widgets_8cpp.html" target="_top" xlink:title="code/gui/Widgets.cpp">
                    <polygon fill="none" stroke="#000000"
                             points="170.8569,-70.5 170.8569,-88.5 282.4673,-88.5 282.4673,-70.5 170.8569,-70.5"/>
                    <text text-anchor="middle" x="226.6621" y="-76.5" font-family="Helvetica,sans-Serif"
                          font-size="10.00" fill="#000000">code/gui/Widgets.cpp
                    </text>
                </a>
            </g>
        </g>
        <!-- Node3&#45;&gt;Node11 -->
        <g id="edge11" class="edge">
            <title>Node3&#45;&gt;Node11</title>
            <path fill="none" stroke="#191970"
                  d="M340.3736,-126.553C312.6281,-115.0721 272.8255,-98.6021 248.4166,-88.5019"/>
            <polygon fill="#191970" stroke="#191970"
                     points="339.0613,-129.7978 349.6397,-130.3873 341.7378,-123.3297 339.0613,-129.7978"/>
        </g>
        <!-- Node5 -->
        <g id="node4" class="node">
            <title>Node5</title>
            <g id="a_node4">
                <a xlink:href="../../db/db5/_add_patient_dialog_8cpp.html" target="_top"
                   xlink:title="code/gui/AddPatientDialog.cpp">
                    <polygon fill="none" stroke="#000000"
                             points=".2808,-5.5 .2808,-23.5 153.0435,-23.5 153.0435,-5.5 .2808,-5.5"/>
                    <text text-anchor="middle" x="76.6621" y="-11.5" font-family="Helvetica,sans-Serif"
                          font-size="10.00" fill="#000000">code/gui/AddPatientDialog.cpp
                    </text>
                </a>
            </g>
        </g>
        <!-- Node4&#45;&gt;Node5 -->
        <g id="edge3" class="edge">
            <title>Node4&#45;&gt;Node5</title>
            <path fill="none" stroke="#191970"
                  d="M76.6621,-60.1265C76.6621,-48.1522 76.6621,-33.3205 76.6621,-23.8821"/>
            <polygon fill="#191970" stroke="#191970"
                     points="73.1622,-60.462 76.6621,-70.462 80.1622,-60.4621 73.1622,-60.462"/>
        </g>
        <!-- Node6 -->
        <g id="node5" class="node">
            <title>Node6</title>
            <g id="a_node5">
                <a xlink:href="../../d8/d35/_patient_window_8cpp.html" target="_top"
                   xlink:title="code/gui/PatientWindow.cpp">
                    <polygon fill="none" stroke="#000000"
                             points="309.8423,-5.5 309.8423,-23.5 451.4819,-23.5 451.4819,-5.5 309.8423,-5.5"/>
                    <text text-anchor="middle" x="380.6621" y="-11.5" font-family="Helvetica,sans-Serif"
                          font-size="10.00" fill="#000000">code/gui/PatientWindow.cpp
                    </text>
                </a>
            </g>
        </g>
        <!-- Node4&#45;&gt;Node6 -->
        <g id="edge4" class="edge">
            <title>Node4&#45;&gt;Node6</title>
            <path fill="none" stroke="#191970"
                  d="M128.8275,-68.3462C188.0255,-55.6887 283.4484,-35.2858 338.2623,-23.5658"/>
            <polygon fill="#191970" stroke="#191970"
                     points="127.9791,-64.9484 118.932,-70.462 129.4428,-71.7937 127.9791,-64.9484"/>
        </g>
        <!-- Node7&#45;&gt;Node6 -->
        <g id="edge7" class="edge">
            <title>Node7&#45;&gt;Node6</title>
            <path fill="none" stroke="#191970"
                  d="M484.1386,-61.2082C456.9336,-48.9281 422.2634,-33.2784 400.7652,-23.5743"/>
            <polygon fill="#191970" stroke="#191970"
                     points="482.8618,-64.4718 493.4163,-65.396 485.7418,-58.0917 482.8618,-64.4718"/>
        </g>
        <!-- Node7&#45;&gt;Node8 -->
        <g id="edge6" class="edge">
            <title>Node7&#45;&gt;Node8</title>
            <path fill="none" stroke="#191970"
                  d="M593.212,-63.1186C637.7193,-52.4827 695.1318,-38.7628 737.6134,-28.6109"/>
            <polygon fill="#191970" stroke="#191970"
                     points="592.2598,-59.7475 583.3472,-65.476 593.8868,-66.5558 592.2598,-59.7475"/>
        </g>
        <!-- Node9&#45;&gt;Node6 -->
        <g id="edge10" class="edge">
            <title>Node9&#45;&gt;Node6</title>
            <path fill="none" stroke="#191970"
                  d="M374.2935,-60.4959C375.9601,-48.4586 378.0427,-33.4178 379.363,-23.8821"/>
            <polygon fill="#191970" stroke="#191970"
                     points="370.8182,-60.0765 372.9135,-70.462 377.7521,-61.0366 370.8182,-60.0765"/>
        </g>
        <!-- Node10 -->
        <g id="node9" class="node">
            <title>Node10</title>
            <g id="a_node9">
                <a xlink:href="../../d5/da5/_main_window_8cpp.html" target="_top" xlink:title="code/gui/MainWindow.cpp">
                    <polygon fill="none" stroke="#000000"
                             points="545.5713,-5.5 545.5713,-23.5 677.7529,-23.5 677.7529,-5.5 545.5713,-5.5"/>
                    <text text-anchor="middle" x="611.6621" y="-11.5" font-family="Helvetica,sans-Serif"
                          font-size="10.00" fill="#000000">code/gui/MainWindow.cpp
                    </text>
                </a>
            </g>
        </g>
        <!-- Node9&#45;&gt;Node10 -->
        <g id="edge9" class="edge">
            <title>Node9&#45;&gt;Node10</title>
            <path fill="none" stroke="#191970"
                  d="M414.8908,-67.7922C461.753,-55.1004 535.5403,-35.1163 578.1886,-23.5658"/>
            <polygon fill="#191970" stroke="#191970"
                     points="413.7704,-64.4695 405.0331,-70.462 415.6003,-71.2261 413.7704,-64.4695"/>
        </g>
        <!-- Node12&#45;&gt;Node7 -->
        <g id="edge13" class="edge">
            <title>Node12&#45;&gt;Node7</title>
            <path fill="none" stroke="#191970"
                  d="M656.0025,-126.9724C628.9681,-117.2009 591.4307,-103.6332 563.4066,-93.504"/>
            <polygon fill="#191970" stroke="#191970"
                     points="654.856,-130.2796 665.4503,-130.3873 657.2355,-123.6964 654.856,-130.2796"/>
        </g>
        <!-- Node12&#45;&gt;Node9 -->
        <g id="edge17" class="edge">
            <title>Node12&#45;&gt;Node9</title>
            <path fill="none" stroke="#191970"
                  d="M632.6912,-128.5964C571.6395,-117.1133 476.6227,-99.2418 419.634,-88.5229"/>
            <polygon fill="#191970" stroke="#191970"
                     points="632.0845,-132.0436 642.5592,-130.4524 633.3785,-125.1642 632.0845,-132.0436"/>
        </g>
        <!-- Node13 -->
        <g id="node12" class="node">
            <title>Node13</title>
            <g id="a_node12">
                <a xlink:href="../../dd/d02/_drug_window_8hpp.html" target="_top" xlink:title="code/gui/DrugWindow.hpp">
                    <polygon fill="none" stroke="#000000"
                             points="830.2905,-70.5 830.2905,-88.5 963.0337,-88.5 963.0337,-70.5 830.2905,-70.5"/>
                    <text text-anchor="middle" x="896.6621" y="-76.5" font-family="Helvetica,sans-Serif"
                          font-size="10.00" fill="#000000">code/gui/DrugWindow.hpp
                    </text>
                </a>
            </g>
        </g>
        <!-- Node12&#45;&gt;Node13 -->
        <g id="edge14" class="edge">
            <title>Node12&#45;&gt;Node13</title>
            <path fill="none" stroke="#191970"
                  d="M731.7991,-127.5184C771.3035,-116.0122 830.094,-98.8888 865.7557,-88.5019"/>
            <polygon fill="#191970" stroke="#191970"
                     points="730.5714,-124.2304 721.9491,-130.3873 732.5289,-130.9512 730.5714,-124.2304"/>
        </g>
        <!-- Node15 -->
        <g id="node14" class="node">
            <title>Node15</title>
            <g id="a_node14">
                <a xlink:href="../../d1/dea/_custom_widgets_8cpp.html" target="_top"
                   xlink:title="code/gui/view/CustomWidgets.cpp">
                    <polygon fill="none" stroke="#000000"
                             points="606.2388,-70.5 606.2388,-88.5 775.0854,-88.5 775.0854,-70.5 606.2388,-70.5"/>
                    <text text-anchor="middle" x="690.6621" y="-76.5" font-family="Helvetica,sans-Serif"
                          font-size="10.00" fill="#000000">code/gui/view/CustomWidgets.cpp
                    </text>
                </a>
            </g>
        </g>
        <!-- Node12&#45;&gt;Node15 -->
        <g id="edge18" class="edge">
            <title>Node12&#45;&gt;Node15</title>
            <path fill="none" stroke="#191970"
                  d="M690.6621,-120.3734C690.6621,-109.7812 690.6621,-97.0976 690.6621,-88.6985"/>
            <polygon fill="#191970" stroke="#191970"
                     points="687.1622,-120.3873 690.6621,-130.3873 694.1622,-120.3873 687.1622,-120.3873"/>
        </g>
        <!-- Node13&#45;&gt;Node10 -->
        <g id="edge16" class="edge">
            <title>Node13&#45;&gt;Node10</title>
            <path fill="none" stroke="#191970"
                  d="M847.0674,-68.1889C791.5202,-55.5203 702.5876,-35.2374 651.4119,-23.5658"/>
            <polygon fill="#191970" stroke="#191970"
                     points="846.5061,-71.6507 857.0341,-70.462 848.0627,-64.826 846.5061,-71.6507"/>
        </g>
        <!-- Node14 -->
        <g id="node13" class="node">
            <title>Node14</title>
            <g id="a_node13">
                <a xlink:href="../../d6/d9e/_drug_window_8cpp.html" target="_top" xlink:title="code/gui/DrugWindow.cpp">
                    <polygon fill="none" stroke="#000000"
                             points="896.5713,-5.5 896.5713,-23.5 1028.7529,-23.5 1028.7529,-5.5 896.5713,-5.5"/>
                    <text text-anchor="middle" x="962.6621" y="-11.5" font-family="Helvetica,sans-Serif"
                          font-size="10.00" fill="#000000">code/gui/DrugWindow.cpp
                    </text>
                </a>
            </g>
        </g>
        <!-- Node13&#45;&gt;Node14 -->
        <g id="edge15" class="edge">
            <title>Node13&#45;&gt;Node14</title>
            <path fill="none" stroke="#191970"
                  d="M913.031,-63.3791C925.6504,-50.9509 942.6628,-34.1962 953.1356,-23.8821"/>
            <polygon fill="#191970" stroke="#191970"
                     points="910.5081,-60.9514 905.8391,-70.462 915.4199,-65.9388 910.5081,-60.9514"/>
        </g>
        <!-- Node16&#45;&gt;Node6 -->
        <g id="edge22" class="edge">
            <title>Node16&#45;&gt;Node6</title>
            <path fill="none" stroke="#191970"
                  d="M1007.9584,-130.8754C943.9569,-122.2783 854.2727,-108.3244 821.6621,-94 802.2107,-85.4559 803.326,-73.0431 783.6621,-65 753.6814,-52.7371 559.1144,-32.0606 451.6784,-21.3665"/>
            <polygon fill="#191970" stroke="#191970"
                     points="1007.6234,-134.3615 1017.9971,-132.2084 1008.5449,-127.4224 1007.6234,-134.3615"/>
        </g>
        <!-- Node16&#45;&gt;Node14 -->
        <g id="edge21" class="edge">
            <title>Node16&#45;&gt;Node14</title>
            <path fill="none" stroke="#191970"
                  d="M1062.1572,-122.6468C1037.5298,-95.8779 990.2976,-44.5386 971.0936,-23.6646"/>
            <polygon fill="#191970" stroke="#191970"
                     points="1059.6721,-125.1151 1069.0184,-130.1047 1064.8236,-120.3756 1059.6721,-125.1151"/>
        </g>
        <!-- Node16&#45;&gt;Node17 -->
        <g id="edge23" class="edge">
            <title>Node16&#45;&gt;Node17</title>
            <path fill="none" stroke="#191970"
                  d="M1117.2427,-127.445C1155.0189,-115.9395 1211.0747,-98.8667 1245.106,-88.5019"/>
            <polygon fill="#191970" stroke="#191970"
                     points="1116.1286,-124.1255 1107.5822,-130.3873 1118.1681,-130.8218 1116.1286,-124.1255"/>
        </g>
        <!-- Node18 -->
        <g id="node17" class="node">
            <title>Node18</title>
            <g id="a_node17">
                <a xlink:href="../../d3/da6/_doctor_8cpp.html" target="_top" xlink:title="code/model/Doctor.cpp">
                    <polygon fill="none" stroke="#000000"
                             points="1056.5195,-70.5 1056.5195,-88.5 1174.8047,-88.5 1174.8047,-70.5 1056.5195,-70.5"/>
                    <text text-anchor="middle" x="1115.6621" y="-76.5" font-family="Helvetica,sans-Serif"
                          font-size="10.00" fill="#000000">code/model/Doctor.cpp
                    </text>
                </a>
            </g>
        </g>
        <!-- Node16&#45;&gt;Node18 -->
        <g id="edge24" class="edge">
            <title>Node16&#45;&gt;Node18</title>
            <path fill="none" stroke="#191970"
                  d="M1088.9356,-121.6998C1095.8027,-110.8569 1104.293,-97.4513 1109.8364,-88.6985"/>
            <polygon fill="#191970" stroke="#191970"
                     points="1085.8272,-120.0664 1083.4335,-130.3873 1091.7409,-123.8118 1085.8272,-120.0664"/>
        </g>
        <!-- Node21 -->
        <g id="node20" class="node">
            <title>Node21</title>
            <g id="a_node20">
                <a xlink:href="../../d3/d69/_date_by_8cpp.html" target="_top" xlink:title="code/utils/DateBy.cpp">
                    <polygon fill="none" stroke="#000000"
                             points="1374.6714,-70.5 1374.6714,-88.5 1486.6528,-88.5 1486.6528,-70.5 1374.6714,-70.5"/>
                    <text text-anchor="middle" x="1430.6621" y="-76.5" font-family="Helvetica,sans-Serif"
                          font-size="10.00" fill="#000000">code/utils/DateBy.cpp
                    </text>
                </a>
            </g>
        </g>
        <!-- Node20&#45;&gt;Node21 -->
        <g id="edge29" class="edge">
            <title>Node20&#45;&gt;Node21</title>
            <path fill="none" stroke="#191970"
                  d="M1409.029,-121.3704C1414.6007,-110.5866 1421.433,-97.3629 1425.9096,-88.6985"/>
            <polygon fill="#191970" stroke="#191970"
                     points="1405.8511,-119.8964 1404.3703,-130.3873 1412.0701,-123.1096 1405.8511,-119.8964"/>
        </g>
    </g>
</svg>
