<?xml version="1.0" encoding="UTF-8" standalone="no"?>
<!DOCTYPE svg PUBLIC "-//W3C//DTD SVG 1.1//EN"
        "http://www.w3.org/Graphics/SVG/1.1/DTD/svg11.dtd">
<!-- Generated by graphviz version 2.40.1 (20161225.0304)
 -->
<!-- Title: code/utils/Date.hpp Pages: 1 -->
<svg width="921pt" height="212pt"
     viewBox="0.00 0.00 920.86 212.00" xmlns="http://www.w3.org/2000/svg" xmlns:xlink="http://www.w3.org/1999/xlink">
    <g id="graph0" class="graph" transform="scale(1 1) rotate(0) translate(4 208)">
        <title>code/utils/Date.hpp</title>
        <!-- Node2 -->
        <g id="node1" class="node">
            <title>Node2</title>
            <polygon fill="#bfbfbf" stroke="#000000"
                     points="508.7832,-185.5 508.7832,-203.5 610.3936,-203.5 610.3936,-185.5 508.7832,-185.5"/>
            <text text-anchor="middle" x="559.5884" y="-191.5" font-family="Helvetica,sans-Serif" font-size="10.00"
                  fill="#000000">code/utils/Date.hpp
            </text>
        </g>
        <!-- Node3 -->
        <g id="node2" class="node">
            <title>Node3</title>
            <g id="a_node2">
                <a xlink:href="../../dc/d55/_widgets_8hpp.html" target="_top" xlink:title="code/gui/Widgets.hpp">
                    <polygon fill="none" stroke="#000000"
                             points="315.5024,-130.5 315.5024,-148.5 427.6743,-148.5 427.6743,-130.5 315.5024,-130.5"/>
                    <text text-anchor="middle" x="371.5884" y="-136.5" font-family="Helvetica,sans-Serif"
                          font-size="10.00" fill="#000000">code/gui/Widgets.hpp
                    </text>
                </a>
            </g>
        </g>
        <!-- Node2&#45;&gt;Node3 -->
        <g id="edge1" class="edge">
            <title>Node2&#45;&gt;Node3</title>
            <path fill="none" stroke="#191970"
                  d="M518.6384,-182.52C483.6441,-172.2822 434.0654,-157.7779 402.3664,-148.5042"/>
            <polygon fill="#191970" stroke="#191970"
                     points="517.9635,-185.9692 528.544,-185.4179 519.9291,-179.2508 517.9635,-185.9692"/>
        </g>
        <!-- Node9 -->
        <g id="node8" class="node">
            <title>Node9</title>
            <g id="a_node8">
                <a xlink:href="../../dd/de0/_patient_window_8hpp.html" target="_top"
                   xlink:title="code/gui/PatientWindow.hpp">
                    <polygon fill="none" stroke="#000000"
                             points="445.4878,-70.5 445.4878,-88.5 587.689,-88.5 587.689,-70.5 445.4878,-70.5"/>
                    <text text-anchor="middle" x="516.5884" y="-76.5" font-family="Helvetica,sans-Serif"
                          font-size="10.00" fill="#000000">code/gui/PatientWindow.hpp
                    </text>
                </a>
            </g>
        </g>
        <!-- Node2&#45;&gt;Node9 -->
        <g id="edge12" class="edge">
            <title>Node2&#45;&gt;Node9</title>
            <path fill="none" stroke="#191970"
                  d="M549.0266,-176.6781C544.4568,-168.4508 539.3137,-158.4331 535.5884,-149 527.318,-128.0582 521.2845,-102.2061 518.4311,-88.7021"/>
            <polygon fill="#191970" stroke="#191970"
                     points="545.9997,-178.4355 554.0086,-185.3715 552.0731,-174.955 545.9997,-178.4355"/>
        </g>
        <!-- Node11 -->
        <g id="node10" class="node">
            <title>Node11</title>
            <g id="a_node10">
                <a xlink:href="../../d7/d49/_widgets_8cpp.html" target="_top" xlink:title="code/gui/Widgets.cpp">
                    <polygon fill="none" stroke="#000000"
                             points="315.7832,-70.5 315.7832,-88.5 427.3936,-88.5 427.3936,-70.5 315.7832,-70.5"/>
                    <text text-anchor="middle" x="371.5884" y="-76.5" font-family="Helvetica,sans-Serif"
                          font-size="10.00" fill="#000000">code/gui/Widgets.cpp
                    </text>
                </a>
            </g>
        </g>
        <!-- Node2&#45;&gt;Node11 -->
        <g id="edge16" class="edge">
            <title>Node2&#45;&gt;Node11</title>
            <path fill="none" stroke="#191970"
                  d="M536.199,-180.1927C497.0075,-156.2191 419.1651,-108.6028 386.532,-88.6411"/>
            <polygon fill="#191970" stroke="#191970"
                     points="534.4794,-183.2436 544.8363,-185.4761 538.1321,-177.2722 534.4794,-183.2436"/>
        </g>
        <!-- Node12 -->
        <g id="node11" class="node">
            <title>Node12</title>
            <g id="a_node11">
                <a xlink:href="../../dd/dc5/_doctor_8hpp.html" target="_top" xlink:title="code/model/Doctor.hpp">
                    <polygon fill="none" stroke="#000000"
                             points="544.165,-130.5 544.165,-148.5 663.0117,-148.5 663.0117,-130.5 544.165,-130.5"/>
                    <text text-anchor="middle" x="603.5884" y="-136.5" font-family="Helvetica,sans-Serif"
                          font-size="10.00" fill="#000000">code/model/Doctor.hpp
                    </text>
                </a>
            </g>
        </g>
        <!-- Node2&#45;&gt;Node12 -->
        <g id="edge13" class="edge">
            <title>Node2&#45;&gt;Node12</title>
            <path fill="none" stroke="#191970"
                  d="M573.2392,-177.4365C580.8026,-167.9823 589.9119,-156.5956 596.1648,-148.7795"/>
            <polygon fill="#191970" stroke="#191970"
                     points="570.368,-175.4227 566.8541,-185.4179 575.8341,-179.7956 570.368,-175.4227"/>
        </g>
        <!-- Node14 -->
        <g id="node13" class="node">
            <title>Node14</title>
            <g id="a_node13">
                <a xlink:href="../../dc/d1f/_date_8cpp.html" target="_top" xlink:title="code/utils/Date.cpp">
                    <polygon fill="none" stroke="#000000"
                             points="681.064,-130.5 681.064,-148.5 782.1128,-148.5 782.1128,-130.5 681.064,-130.5"/>
                    <text text-anchor="middle" x="731.5884" y="-136.5" font-family="Helvetica,sans-Serif"
                          font-size="10.00" fill="#000000">code/utils/Date.cpp
                    </text>
                </a>
            </g>
        </g>
        <!-- Node2&#45;&gt;Node14 -->
        <g id="edge17" class="edge">
            <title>Node2&#45;&gt;Node14</title>
            <path fill="none" stroke="#191970"
                  d="M597.8806,-182.2554C629.8469,-172.0336 674.6775,-157.6983 703.4298,-148.5042"/>
            <polygon fill="#191970" stroke="#191970"
                     points="596.4495,-179.0383 587.9907,-185.4179 598.5816,-185.7058 596.4495,-179.0383"/>
        </g>
        <!-- Node15 -->
        <g id="node14" class="node">
            <title>Node15</title>
            <g id="a_node14">
                <a xlink:href="../../d9/da3/_date_by_8hpp.html" target="_top" xlink:title="code/utils/DateBy.hpp">
                    <polygon fill="none" stroke="#000000"
                             points="800.3169,-130.5 800.3169,-148.5 912.8599,-148.5 912.8599,-130.5 800.3169,-130.5"/>
                    <text text-anchor="middle" x="856.5884" y="-136.5" font-family="Helvetica,sans-Serif"
                          font-size="10.00" fill="#000000">code/utils/DateBy.hpp
                    </text>
                </a>
            </g>
        </g>
        <!-- Node2&#45;&gt;Node15 -->
        <g id="edge18" class="edge">
            <title>Node2&#45;&gt;Node15</title>
            <path fill="none" stroke="#191970"
                  d="M618.3281,-183.6223C673.7745,-173.3544 755.941,-158.1384 807.8508,-148.5255"/>
            <polygon fill="#191970" stroke="#191970"
                     points="617.4948,-180.217 608.2993,-185.4795 618.7695,-187.1 617.4948,-180.217"/>
        </g>
        <!-- Node4 -->
        <g id="node3" class="node">
            <title>Node4</title>
            <g id="a_node3">
                <a xlink:href="../../d2/dac/_add_patient_dialog_8hpp.html" target="_top"
                   xlink:title="code/gui/AddPatientDialog.hpp">
                    <polygon fill="none" stroke="#000000"
                             points="144.9263,-70.5 144.9263,-88.5 298.2505,-88.5 298.2505,-70.5 144.9263,-70.5"/>
                    <text text-anchor="middle" x="221.5884" y="-76.5" font-family="Helvetica,sans-Serif"
                          font-size="10.00" fill="#000000">code/gui/AddPatientDialog.hpp
                    </text>
                </a>
            </g>
        </g>
        <!-- Node3&#45;&gt;Node4 -->
        <g id="edge2" class="edge">
            <title>Node3&#45;&gt;Node4</title>
            <path fill="none" stroke="#191970"
                  d="M339.221,-126.553C310.5187,-115.0721 269.3436,-98.6021 244.0931,-88.5019"/>
            <polygon fill="#191970" stroke="#191970"
                     points="338.2219,-129.923 348.8066,-130.3873 340.8217,-123.4237 338.2219,-129.923"/>
        </g>
        <!-- Node7 -->
        <g id="node6" class="node">
            <title>Node7</title>
            <g id="a_node6">
                <a xlink:href="../../d0/d1e/_add_prescription_dialog_8hpp.html" target="_top"
                   xlink:title="code/gui/AddPrescription\lDialog.hpp">
                    <polygon fill="none" stroke="#000000"
                             points="0,-65.5 0,-93.5 127.1768,-93.5 127.1768,-65.5 0,-65.5"/>
                    <text text-anchor="start" x="8" y="-81.5" font-family="Helvetica,sans-Serif" font-size="10.00"
                          fill="#000000">code/gui/AddPrescription
                    </text>
                    <text text-anchor="middle" x="63.5884" y="-71.5" font-family="Helvetica,sans-Serif"
                          font-size="10.00" fill="#000000">Dialog.hpp
                    </text>
                </a>
            </g>
        </g>
        <!-- Node3&#45;&gt;Node7 -->
        <g id="edge5" class="edge">
            <title>Node3&#45;&gt;Node7</title>
            <path fill="none" stroke="#191970"
                  d="M314.2479,-128.5823C266.4414,-119.447 196.5502,-106.0149 135.5884,-94 132.8361,-93.4576 130.0252,-92.9013 127.1859,-92.3375"/>
            <polygon fill="#191970" stroke="#191970"
                     points="313.6239,-132.0263 324.1029,-130.4645 314.9371,-125.1506 313.6239,-132.0263"/>
        </g>
        <!-- Node3&#45;&gt;Node9 -->
        <g id="edge8" class="edge">
            <title>Node3&#45;&gt;Node9</title>
            <path fill="none" stroke="#191970"
                  d="M402.8769,-126.553C430.6224,-115.0721 470.425,-98.6021 494.8339,-88.5019"/>
            <polygon fill="#191970" stroke="#191970"
                     points="401.5127,-123.3297 393.6108,-130.3873 404.1892,-129.7978 401.5127,-123.3297"/>
        </g>
        <!-- Node3&#45;&gt;Node11 -->
        <g id="edge11" class="edge">
            <title>Node3&#45;&gt;Node11</title>
            <path fill="none" stroke="#191970"
                  d="M371.5884,-120.3734C371.5884,-109.7812 371.5884,-97.0976 371.5884,-88.6985"/>
            <polygon fill="#191970" stroke="#191970"
                     points="368.0885,-120.3873 371.5884,-130.3873 375.0885,-120.3873 368.0885,-120.3873"/>
        </g>
        <!-- Node5 -->
        <g id="node4" class="node">
            <title>Node5</title>
            <g id="a_node4">
                <a xlink:href="../../db/db5/_add_patient_dialog_8cpp.html" target="_top"
                   xlink:title="code/gui/AddPatientDialog.cpp">
                    <polygon fill="none" stroke="#000000"
                             points="145.207,-5.5 145.207,-23.5 297.9697,-23.5 297.9697,-5.5 145.207,-5.5"/>
                    <text text-anchor="middle" x="221.5884" y="-11.5" font-family="Helvetica,sans-Serif"
                          font-size="10.00" fill="#000000">code/gui/AddPatientDialog.cpp
                    </text>
                </a>
            </g>
        </g>
        <!-- Node4&#45;&gt;Node5 -->
        <g id="edge3" class="edge">
            <title>Node4&#45;&gt;Node5</title>
            <path fill="none" stroke="#191970"
                  d="M221.5884,-60.1265C221.5884,-48.1522 221.5884,-33.3205 221.5884,-23.8821"/>
            <polygon fill="#191970" stroke="#191970"
                     points="218.0885,-60.462 221.5884,-70.462 225.0885,-60.4621 218.0885,-60.462"/>
        </g>
        <!-- Node6 -->
        <g id="node5" class="node">
            <title>Node6</title>
            <g id="a_node5">
                <a xlink:href="../../d8/d35/_patient_window_8cpp.html" target="_top"
                   xlink:title="code/gui/PatientWindow.cpp">
                    <polygon fill="none" stroke="#000000"
                             points="315.7686,-5.5 315.7686,-23.5 457.4082,-23.5 457.4082,-5.5 315.7686,-5.5"/>
                    <text text-anchor="middle" x="386.5884" y="-11.5" font-family="Helvetica,sans-Serif"
                          font-size="10.00" fill="#000000">code/gui/PatientWindow.cpp
                    </text>
                </a>
            </g>
        </g>
        <!-- Node4&#45;&gt;Node6 -->
        <g id="edge4" class="edge">
            <title>Node4&#45;&gt;Node6</title>
            <path fill="none" stroke="#191970"
                  d="M253.9827,-66.7386C286.275,-54.0174 335.0538,-34.8015 363.5753,-23.5658"/>
            <polygon fill="#191970" stroke="#191970"
                     points="252.5522,-63.5403 244.5309,-70.462 255.1179,-70.0532 252.5522,-63.5403"/>
        </g>
        <!-- Node7&#45;&gt;Node6 -->
        <g id="edge7" class="edge">
            <title>Node7&#45;&gt;Node6</title>
            <path fill="none" stroke="#191970"
                  d="M137.1124,-64.6934C214.5217,-49.1122 293.541,-33.2159 341.7002,-23.5287"/>
            <polygon fill="#191970" stroke="#191970"
                     points="136.3042,-61.2858 127.1915,-66.6904 137.6855,-68.1482 136.3042,-61.2858"/>
        </g>
        <!-- Node8 -->
        <g id="node7" class="node">
            <title>Node8</title>
            <g id="a_node7">
                <a xlink:href="../../df/de8/_add_prescription_dialog_8cpp.html" target="_top"
                   xlink:title="code/gui/AddPrescription\lDialog.cpp">
                    <polygon fill="none" stroke="#000000" points="0,-.5 0,-28.5 127.1768,-28.5 127.1768,-.5 0,-.5"/>
                    <text text-anchor="start" x="8" y="-16.5" font-family="Helvetica,sans-Serif" font-size="10.00"
                          fill="#000000">code/gui/AddPrescription
                    </text>
                    <text text-anchor="middle" x="63.5884" y="-6.5" font-family="Helvetica,sans-Serif" font-size="10.00"
                          fill="#000000">Dialog.cpp
                    </text>
                </a>
            </g>
        </g>
        <!-- Node7&#45;&gt;Node8 -->
        <g id="edge6" class="edge">
            <title>Node7&#45;&gt;Node8</title>
            <path fill="none" stroke="#191970"
                  d="M63.5884,-55.1081C63.5884,-46.1539 63.5884,-36.3227 63.5884,-28.5765"/>
            <polygon fill="#191970" stroke="#191970"
                     points="60.0885,-55.3959 63.5884,-65.396 67.0885,-55.396 60.0885,-55.3959"/>
        </g>
        <!-- Node9&#45;&gt;Node6 -->
        <g id="edge10" class="edge">
            <title>Node9&#45;&gt;Node6</title>
            <path fill="none" stroke="#191970"
                  d="M489.4302,-65.9209C464.0816,-53.2466 426.9517,-34.6817 404.9299,-23.6708"/>
            <polygon fill="#191970" stroke="#191970"
                     points="488.0029,-69.1203 498.5124,-70.462 491.1334,-62.8593 488.0029,-69.1203"/>
        </g>
        <!-- Node10 -->
        <g id="node9" class="node">
            <title>Node10</title>
            <g id="a_node9">
                <a xlink:href="../../d5/da5/_main_window_8cpp.html" target="_top" xlink:title="code/gui/MainWindow.cpp">
                    <polygon fill="none" stroke="#000000"
                             points="475.4976,-5.5 475.4976,-23.5 607.6792,-23.5 607.6792,-5.5 475.4976,-5.5"/>
                    <text text-anchor="middle" x="541.5884" y="-11.5" font-family="Helvetica,sans-Serif"
                          font-size="10.00" fill="#000000">code/gui/MainWindow.cpp
                    </text>
                </a>
            </g>
        </g>
        <!-- Node9&#45;&gt;Node10 -->
        <g id="edge9" class="edge">
            <title>Node9&#45;&gt;Node10</title>
            <path fill="none" stroke="#191970"
                  d="M523.7563,-60.8634C528.4091,-48.7661 534.2749,-33.5151 537.9799,-23.8821"/>
            <polygon fill="#191970" stroke="#191970"
                     points="520.3877,-59.8721 520.0645,-70.462 526.9211,-62.385 520.3877,-59.8721"/>
        </g>
        <!-- Node12&#45;&gt;Node6 -->
        <g id="edge14" class="edge">
            <title>Node12&#45;&gt;Node6</title>
            <path fill="none" stroke="#191970"
                  d="M607.4342,-120.2363C609.5657,-103.6185 609.5869,-79.9937 596.5884,-65 586.1032,-52.9054 496.1806,-34.4784 437.4535,-23.547"/>
            <polygon fill="#191970" stroke="#191970"
                     points="603.9271,-119.9933 605.7554,-130.4292 610.8341,-121.131 603.9271,-119.9933"/>
        </g>
        <!-- Node13 -->
        <g id="node12" class="node">
            <title>Node13</title>
            <g id="a_node12">
                <a xlink:href="../../d3/da6/_doctor_8cpp.html" target="_top" xlink:title="code/model/Doctor.cpp">
                    <polygon fill="none" stroke="#000000"
                             points="643.4458,-70.5 643.4458,-88.5 761.731,-88.5 761.731,-70.5 643.4458,-70.5"/>
                    <text text-anchor="middle" x="702.5884" y="-76.5" font-family="Helvetica,sans-Serif"
                          font-size="10.00" fill="#000000">code/model/Doctor.cpp
                    </text>
                </a>
            </g>
        </g>
        <!-- Node12&#45;&gt;Node13 -->
        <g id="edge15" class="edge">
            <title>Node12&#45;&gt;Node13</title>
            <path fill="none" stroke="#191970"
                  d="M627.2214,-125.177C646.0142,-113.7874 671.7249,-98.2051 687.7353,-88.5019"/>
            <polygon fill="#191970" stroke="#191970"
                     points="625.3623,-122.211 618.6243,-130.3873 628.9904,-128.1974 625.3623,-122.211"/>
        </g>
        <!-- Node16 -->
        <g id="node15" class="node">
            <title>Node16</title>
            <g id="a_node15">
                <a xlink:href="../../d3/d69/_date_by_8cpp.html" target="_top" xlink:title="code/utils/DateBy.cpp">
                    <polygon fill="none" stroke="#000000"
                             points="800.5977,-70.5 800.5977,-88.5 912.5791,-88.5 912.5791,-70.5 800.5977,-70.5"/>
                    <text text-anchor="middle" x="856.5884" y="-76.5" font-family="Helvetica,sans-Serif"
                          font-size="10.00" fill="#000000">code/utils/DateBy.cpp
                    </text>
                </a>
            </g>
        </g>
        <!-- Node15&#45;&gt;Node16 -->
        <g id="edge19" class="edge">
            <title>Node15&#45;&gt;Node16</title>
            <path fill="none" stroke="#191970"
                  d="M856.5884,-120.3734C856.5884,-109.7812 856.5884,-97.0976 856.5884,-88.6985"/>
            <polygon fill="#191970" stroke="#191970"
                     points="853.0885,-120.3873 856.5884,-130.3873 860.0885,-120.3873 853.0885,-120.3873"/>
        </g>
    </g>
</svg>
