<?xml version="1.0" encoding="UTF-8" standalone="no"?>
<!DOCTYPE svg PUBLIC "-//W3C//DTD SVG 1.1//EN"
        "http://www.w3.org/Graphics/SVG/1.1/DTD/svg11.dtd">
<!-- Generated by graphviz version 2.40.1 (20161225.0304)
 -->
<!-- Title: code/model/Doctor.hpp Pages: 1 -->
<svg width="780pt" height="302pt"
     viewBox="0.00 0.00 780.48 302.00" xmlns="http://www.w3.org/2000/svg" xmlns:xlink="http://www.w3.org/1999/xlink">
    <g id="graph0" class="graph" transform="scale(1 1) rotate(0) translate(4 298)">
        <title>code/model/Doctor.hpp</title>
        <!-- Node0 -->
        <g id="node1" class="node">
            <title>Node0</title>
            <polygon fill="#bfbfbf" stroke="#000000"
                     points="456.9487,-275.5 456.9487,-293.5 575.7954,-293.5 575.7954,-275.5 456.9487,-275.5"/>
            <text text-anchor="middle" x="516.3721" y="-281.5" font-family="Helvetica,sans-Serif" font-size="10.00"
                  fill="#000000">code/model/Doctor.hpp
            </text>
        </g>
        <!-- Node1 -->
        <g id="node2" class="node">
            <title>Node1</title>
            <polygon fill="none" stroke="#bfbfbf"
                     points="393.1455,-.5 393.1455,-18.5 433.5986,-18.5 433.5986,-.5 393.1455,-.5"/>
            <text text-anchor="middle" x="413.3721" y="-6.5" font-family="Helvetica,sans-Serif" font-size="10.00"
                  fill="#000000">string
            </text>
        </g>
        <!-- Node0&#45;&gt;Node1 -->
        <g id="edge1" class="edge">
            <title>Node0&#45;&gt;Node1</title>
            <path fill="none" stroke="#191970"
                  d="M521.8165,-275.4507C532.3239,-257.0998 554.3721,-213.899 554.3721,-174.5 554.3721,-174.5 554.3721,-174.5 554.3721,-119.5 554.3721,-63.7128 484.9079,-32.047 443.4924,-18.1251"/>
            <polygon fill="#191970" stroke="#191970"
                     points="444.4659,-14.7617 433.8747,-15.0397 442.3275,-21.4271 444.4659,-14.7617"/>
        </g>
        <!-- Node2 -->
        <g id="node3" class="node">
            <title>Node2</title>
            <polygon fill="none" stroke="#bfbfbf"
                     points="441.7563,-55.5 441.7563,-73.5 484.9878,-73.5 484.9878,-55.5 441.7563,-55.5"/>
            <text text-anchor="middle" x="463.3721" y="-61.5" font-family="Helvetica,sans-Serif" font-size="10.00"
                  fill="#000000">vector
            </text>
        </g>
        <!-- Node0&#45;&gt;Node2 -->
        <g id="edge2" class="edge">
            <title>Node0&#45;&gt;Node2</title>
            <path fill="none" stroke="#191970"
                  d="M514.1622,-275.327C506.1987,-242.271 478.8668,-128.8179 467.9397,-83.4598"/>
            <polygon fill="#191970" stroke="#191970"
                     points="471.3362,-82.6143 465.5914,-73.7122 464.5309,-84.2538 471.3362,-82.6143"/>
        </g>
        <!-- Node3 -->
        <g id="node4" class="node">
            <title>Node3</title>
            <g id="a_node4">
                <a xlink:href="../../de/d01/_prescription_8hpp.html" target="_top" xlink:title="Prescription.hpp">
                    <polygon fill="none" stroke="#000000"
                             points="248.2417,-165.5 248.2417,-183.5 336.5024,-183.5 336.5024,-165.5 248.2417,-165.5"/>
                    <text text-anchor="middle" x="292.3721" y="-171.5" font-family="Helvetica,sans-Serif"
                          font-size="10.00" fill="#000000">Prescription.hpp
                    </text>
                </a>
            </g>
        </g>
        <!-- Node0&#45;&gt;Node3 -->
        <g id="edge3" class="edge">
            <title>Node0&#45;&gt;Node3</title>
            <path fill="none" stroke="#191970"
                  d="M462.9494,-275.4798C431.6001,-268.6272 392.0519,-257.1973 360.3721,-239 338.9057,-226.6695 318.9372,-206.2142 306.268,-191.6462"/>
            <polygon fill="#191970" stroke="#191970"
                     points="308.8189,-189.242 299.6958,-183.855 303.4683,-193.7555 308.8189,-189.242"/>
        </g>
        <!-- Node7 -->
        <g id="node8" class="node">
            <title>Node7</title>
            <g id="a_node8">
                <a xlink:href="../../dd/df9/_drug_8hpp.html" target="_top" xlink:title="Drug.hpp">
                    <polygon fill="none" stroke="#000000"
                             points="194.8032,-110.5 194.8032,-128.5 251.9409,-128.5 251.9409,-110.5 194.8032,-110.5"/>
                    <text text-anchor="middle" x="223.3721" y="-116.5" font-family="Helvetica,sans-Serif"
                          font-size="10.00" fill="#000000">Drug.hpp
                    </text>
                </a>
            </g>
        </g>
        <!-- Node0&#45;&gt;Node7 -->
        <g id="edge23" class="edge">
            <title>Node0&#45;&gt;Node7</title>
            <path fill="none" stroke="#191970"
                  d="M462.3271,-275.4471C424.9518,-268.1558 374.5558,-256.2533 332.3721,-239 287.9254,-220.8211 268.0474,-222.5188 239.3721,-184 229.6837,-170.9859 225.8114,-152.8068 224.2888,-139.064"/>
            <polygon fill="#191970" stroke="#191970"
                     points="227.7533,-138.4719 223.4864,-128.7743 220.7745,-139.0162 227.7533,-138.4719"/>
        </g>
        <!-- Node8 -->
        <g id="node9" class="node">
            <title>Node8</title>
            <g id="a_node9">
                <a xlink:href="../../d0/da9/_patient_8hpp.html" target="_top" xlink:title="Patient.hpp">
                    <polygon fill="none" stroke="#000000"
                             points="369.0742,-220.5 369.0742,-238.5 435.6699,-238.5 435.6699,-220.5 369.0742,-220.5"/>
                    <text text-anchor="middle" x="402.3721" y="-226.5" font-family="Helvetica,sans-Serif"
                          font-size="10.00" fill="#000000">Patient.hpp
                    </text>
                </a>
            </g>
        </g>
        <!-- Node0&#45;&gt;Node8 -->
        <g id="edge17" class="edge">
            <title>Node0&#45;&gt;Node8</title>
            <path fill="none" stroke="#191970"
                  d="M497.5473,-275.4179C479.2302,-266.5807 451.1791,-253.0473 430.269,-242.9591"/>
            <polygon fill="#191970" stroke="#191970"
                     points="431.7523,-239.7887 421.2248,-238.5956 428.7105,-246.0933 431.7523,-239.7887"/>
        </g>
        <!-- Node9 -->
        <g id="node10" class="node">
            <title>Node9</title>
            <g id="a_node10">
                <a xlink:href="../../d8/d63/_date_8hpp.html" target="_top" xlink:title="../utils/Date.hpp">
                    <polygon fill="none" stroke="#000000"
                             points="582.6309,-220.5 582.6309,-238.5 668.1133,-238.5 668.1133,-220.5 582.6309,-220.5"/>
                    <text text-anchor="middle" x="625.3721" y="-226.5" font-family="Helvetica,sans-Serif"
                          font-size="10.00" fill="#000000">../utils/Date.hpp
                    </text>
                </a>
            </g>
        </g>
        <!-- Node0&#45;&gt;Node9 -->
        <g id="edge24" class="edge">
            <title>Node0&#45;&gt;Node9</title>
            <path fill="none" stroke="#191970"
                  d="M534.3712,-275.4179C551.7271,-266.6603 578.2231,-253.2907 598.1566,-243.2326"/>
            <polygon fill="#191970" stroke="#191970"
                     points="599.9951,-246.2253 607.3462,-238.5956 596.8416,-239.9758 599.9951,-246.2253"/>
        </g>
        <!-- Node11 -->
        <g id="node12" class="node">
            <title>Node11</title>
            <g id="a_node12">
                <a xlink:href="../../d8/d3a/_time_8hpp.html" target="_top" xlink:title="../utils/Time.hpp">
                    <polygon fill="none" stroke="#000000"
                             points="686.2646,-220.5 686.2646,-238.5 772.4795,-238.5 772.4795,-220.5 686.2646,-220.5"/>
                    <text text-anchor="middle" x="729.3721" y="-226.5" font-family="Helvetica,sans-Serif"
                          font-size="10.00" fill="#000000">../utils/Time.hpp
                    </text>
                </a>
            </g>
        </g>
        <!-- Node0&#45;&gt;Node11 -->
        <g id="edge26" class="edge">
            <title>Node0&#45;&gt;Node11</title>
            <path fill="none" stroke="#191970"
                  d="M551.5447,-275.4179C587.9585,-266.0152 644.9616,-251.2961 684.5763,-241.067"/>
            <polygon fill="#191970" stroke="#191970"
                     points="685.6939,-244.3933 694.5012,-238.5042 683.9437,-237.6156 685.6939,-244.3933"/>
        </g>
        <!-- Node3&#45;&gt;Node1 -->
        <g id="edge5" class="edge">
            <title>Node3&#45;&gt;Node1</title>
            <path fill="none" stroke="#191970"
                  d="M303.0455,-165.2383C326.5277,-144.671 381.5984,-95.3272 394.3721,-74 402.7133,-60.0732 407.599,-42.2442 410.3219,-28.8619"/>
            <polygon fill="#191970" stroke="#191970"
                     points="413.797,-29.3126 412.1289,-18.85 406.9083,-28.0693 413.797,-29.3126"/>
        </g>
        <!-- Node3&#45;&gt;Node2 -->
        <g id="edge4" class="edge">
            <title>Node3&#45;&gt;Node2</title>
            <path fill="none" stroke="#191970"
                  d="M306.3657,-165.4982C335.801,-146.5633 404.3669,-102.4566 440.3657,-79.2994"/>
            <polygon fill="#191970" stroke="#191970"
                     points="442.6684,-81.9798 449.1851,-73.6261 438.8813,-76.0927 442.6684,-81.9798"/>
        </g>
        <!-- Node4 -->
        <g id="node5" class="node">
            <title>Node4</title>
            <polygon fill="none" stroke="#bfbfbf"
                     points="67.6455,-.5 67.6455,-18.5 103.0986,-18.5 103.0986,-.5 67.6455,-.5"/>
            <text text-anchor="middle" x="85.3721" y="-6.5" font-family="Helvetica,sans-Serif" font-size="10.00"
                  fill="#000000">map
            </text>
        </g>
        <!-- Node3&#45;&gt;Node4 -->
        <g id="edge6" class="edge">
            <title>Node3&#45;&gt;Node4</title>
            <path fill="none" stroke="#191970"
                  d="M248.2015,-165.6592C174.7392,-149.9477 32.6955,-114.9363 4.3721,-74 -12.9039,-49.0308 27.8783,-28.9322 57.6269,-18.1466"/>
            <polygon fill="#191970" stroke="#191970"
                     points="58.8774,-21.4178 67.1928,-14.8524 56.5981,-14.7993 58.8774,-21.4178"/>
        </g>
        <!-- Node5 -->
        <g id="node6" class="node">
            <title>Node5</title>
            <polygon fill="none" stroke="#bfbfbf"
                     points="251.4609,-55.5 251.4609,-73.5 385.2832,-73.5 385.2832,-55.5 251.4609,-55.5"/>
            <text text-anchor="middle" x="318.3721" y="-61.5" font-family="Helvetica,sans-Serif" font-size="10.00"
                  fill="#000000">gtkmm/treemodelcolumn.h
            </text>
        </g>
        <!-- Node3&#45;&gt;Node5 -->
        <g id="edge7" class="edge">
            <title>Node3&#45;&gt;Node5</title>
            <path fill="none" stroke="#191970"
                  d="M294.4998,-165.4982C298.7087,-147.6913 308.1795,-107.6225 313.8454,-83.6515"/>
            <polygon fill="#191970" stroke="#191970"
                     points="317.3208,-84.1631 316.215,-73.6261 310.5085,-82.5529 317.3208,-84.1631"/>
        </g>
        <!-- Node6 -->
        <g id="node7" class="node">
            <title>Node6</title>
            <g id="a_node7">
                <a xlink:href="../../d3/d1b/_i_serializable_8hpp.html" target="_top"
                   xlink:title="../interfaces/ISerializable.hpp">
                    <polygon fill="none" stroke="#000000"
                             points="13.1704,-55.5 13.1704,-73.5 157.5737,-73.5 157.5737,-55.5 13.1704,-55.5"/>
                    <text text-anchor="middle" x="85.3721" y="-61.5" font-family="Helvetica,sans-Serif"
                          font-size="10.00" fill="#000000">../interfaces/ISerializable.hpp
                    </text>
                </a>
            </g>
        </g>
        <!-- Node3&#45;&gt;Node6 -->
        <g id="edge8" class="edge">
            <title>Node3&#45;&gt;Node6</title>
            <path fill="none" stroke="#191970"
                  d="M267.5985,-165.3556C245.5496,-156.8928 212.6596,-143.4659 185.3721,-129 156.8804,-113.8957 125.9554,-93.2308 106.1572,-79.4018"/>
            <polygon fill="#191970" stroke="#191970"
                     points="108.0819,-76.4763 97.8924,-73.5735 104.0477,-82.197 108.0819,-76.4763"/>
        </g>
        <!-- Node3&#45;&gt;Node7 -->
        <g id="edge11" class="edge">
            <title>Node3&#45;&gt;Node7</title>
            <path fill="none" stroke="#191970"
                  d="M280.9781,-165.4179C270.6528,-157.1876 255.2173,-144.8839 242.9223,-135.0836"/>
            <polygon fill="#191970" stroke="#191970"
                     points="245.0149,-132.2757 235.0136,-128.7795 240.6517,-137.7495 245.0149,-132.2757"/>
        </g>
        <!-- Node6&#45;&gt;Node1 -->
        <g id="edge9" class="edge">
            <title>Node6&#45;&gt;Node1</title>
            <path fill="none" stroke="#191970"
                  d="M139.1673,-55.4795C208.6583,-43.827 327.2821,-23.9358 382.8998,-14.6097"/>
            <polygon fill="#191970" stroke="#191970"
                     points="383.5547,-18.0488 392.8382,-12.9432 382.397,-11.1452 383.5547,-18.0488"/>
        </g>
        <!-- Node6&#45;&gt;Node4 -->
        <g id="edge10" class="edge">
            <title>Node6&#45;&gt;Node4</title>
            <path fill="none" stroke="#191970"
                  d="M85.3721,-55.4179C85.3721,-48.2164 85.3721,-37.8962 85.3721,-28.8632"/>
            <polygon fill="#191970" stroke="#191970"
                     points="88.8722,-28.7794 85.3721,-18.7795 81.8722,-28.7795 88.8722,-28.7794"/>
        </g>
        <!-- Node7&#45;&gt;Node1 -->
        <g id="edge12" class="edge">
            <title>Node7&#45;&gt;Node1</title>
            <path fill="none" stroke="#191970"
                  d="M223.4017,-110.1633C223.9696,-96.1702 227.1517,-69.8235 242.3721,-55 262.2459,-35.6443 339.1899,-20.9527 382.7861,-13.9781"/>
            <polygon fill="#191970" stroke="#191970"
                     points="383.4971,-17.4097 392.8391,-12.412 382.4195,-10.4931 383.4971,-17.4097"/>
        </g>
        <!-- Node7&#45;&gt;Node2 -->
        <g id="edge13" class="edge">
            <title>Node7&#45;&gt;Node2</title>
            <path fill="none" stroke="#191970"
                  d="M252.3217,-112.8657C297.6414,-102.48 384.9926,-82.462 431.8485,-71.7242"/>
            <polygon fill="#191970" stroke="#191970"
                     points="432.7836,-75.1007 441.7491,-69.4553 431.2199,-68.2775 432.7836,-75.1007"/>
        </g>
        <!-- Node7&#45;&gt;Node4 -->
        <g id="edge14" class="edge">
            <title>Node7&#45;&gt;Node4</title>
            <path fill="none" stroke="#191970"
                  d="M216.8167,-110.2902C206.9766,-96.9233 187.2978,-71.9019 166.3721,-55 149.7996,-41.6142 128.7667,-29.9293 112.2872,-21.7533"/>
            <polygon fill="#191970" stroke="#191970"
                     points="113.7061,-18.5518 103.1787,-17.3585 110.6642,-24.8564 113.7061,-18.5518"/>
        </g>
        <!-- Node7&#45;&gt;Node5 -->
        <g id="edge15" class="edge">
            <title>Node7&#45;&gt;Node5</title>
            <path fill="none" stroke="#191970"
                  d="M239.0594,-110.4179C253.911,-101.8195 276.4419,-88.7754 293.699,-78.7844"/>
            <polygon fill="#191970" stroke="#191970"
                     points="295.7608,-81.635 302.6614,-73.5956 292.2535,-75.577 295.7608,-81.635"/>
        </g>
        <!-- Node7&#45;&gt;Node6 -->
        <g id="edge16" class="edge">
            <title>Node7&#45;&gt;Node6</title>
            <path fill="none" stroke="#191970"
                  d="M200.5842,-110.4179C178.0114,-101.4215 143.2268,-87.5581 117.7824,-77.4172"/>
            <polygon fill="#191970" stroke="#191970"
                     points="118.779,-74.0467 108.1938,-73.5956 116.1874,-80.5493 118.779,-74.0467"/>
        </g>
        <!-- Node8&#45;&gt;Node1 -->
        <g id="edge19" class="edge">
            <title>Node8&#45;&gt;Node1</title>
            <path fill="none" stroke="#191970"
                  d="M410.6021,-220.2127C430.1884,-197.3721 479.0745,-135.8113 494.3721,-74 496.4008,-65.8029 498.6373,-62.2881 494.3721,-55 483.4425,-36.3247 461.7235,-24.7274 443.5249,-17.9184"/>
            <polygon fill="#191970" stroke="#191970"
                     points="444.4622,-14.54 433.8676,-14.6138 442.1958,-21.163 444.4622,-14.54"/>
        </g>
        <!-- Node8&#45;&gt;Node2 -->
        <g id="edge18" class="edge">
            <title>Node8&#45;&gt;Node2</title>
            <path fill="none" stroke="#191970"
                  d="M405.8265,-220.1561C415.5566,-193.837 443.3312,-118.709 456.406,-83.3426"/>
            <polygon fill="#191970" stroke="#191970"
                     points="459.7707,-84.3346 459.9555,-73.7414 453.2051,-81.9073 459.7707,-84.3346"/>
        </g>
        <!-- Node8&#45;&gt;Node3 -->
        <g id="edge22" class="edge">
            <title>Node8&#45;&gt;Node3</title>
            <path fill="none" stroke="#191970"
                  d="M384.2078,-220.4179C366.6131,-211.6205 339.7103,-198.1691 319.5633,-188.0956"/>
            <polygon fill="#191970" stroke="#191970"
                     points="321.0729,-184.9373 310.5633,-183.5956 317.9423,-191.1983 321.0729,-184.9373"/>
        </g>
        <!-- Node8&#45;&gt;Node5 -->
        <g id="edge20" class="edge">
            <title>Node8&#45;&gt;Node5</title>
            <path fill="none" stroke="#191970"
                  d="M397.6152,-220.1561C384.1586,-193.7235 345.6392,-118.0604 327.733,-82.8875"/>
            <polygon fill="#191970" stroke="#191970"
                     points="330.7327,-81.0651 323.0768,-73.7414 324.4946,-84.2409 330.7327,-81.0651"/>
        </g>
        <!-- Node8&#45;&gt;Node6 -->
        <g id="edge21" class="edge">
            <title>Node8&#45;&gt;Node6</title>
            <path fill="none" stroke="#191970"
                  d="M368.9632,-223.0609C335.3379,-215.9199 282.4307,-202.8619 239.3721,-184 196.7801,-165.3426 186.8902,-157.7854 150.3721,-129 131.968,-114.493 113.2073,-95.3073 100.6027,-81.6408"/>
            <polygon fill="#191970" stroke="#191970"
                     points="102.9212,-78.9876 93.6083,-73.9358 97.7382,-83.6926 102.9212,-78.9876"/>
        </g>
        <!-- Node10 -->
        <g id="node11" class="node">
            <title>Node10</title>
            <polygon fill="none" stroke="#bfbfbf"
                     points="598.1997,-165.5 598.1997,-183.5 652.5444,-183.5 652.5444,-165.5 598.1997,-165.5"/>
            <text text-anchor="middle" x="625.3721" y="-171.5" font-family="Helvetica,sans-Serif" font-size="10.00"
                  fill="#000000">iostream
            </text>
        </g>
        <!-- Node9&#45;&gt;Node10 -->
        <g id="edge25" class="edge">
            <title>Node9&#45;&gt;Node10</title>
            <path fill="none" stroke="#191970"
                  d="M625.3721,-220.4179C625.3721,-213.2164 625.3721,-202.8962 625.3721,-193.8632"/>
            <polygon fill="#191970" stroke="#191970"
                     points="628.8722,-193.7794 625.3721,-183.7795 621.8722,-193.7795 628.8722,-193.7794"/>
        </g>
    </g>
</svg>
