<?xml version="1.0" encoding="UTF-8" standalone="no"?>
<!DOCTYPE svg PUBLIC "-//W3C//DTD SVG 1.1//EN"
        "http://www.w3.org/Graphics/SVG/1.1/DTD/svg11.dtd">
<!-- Generated by graphviz version 2.40.1 (20161225.0304)
 -->
<!-- Title: code/model/Doctor.hpp Pages: 1 -->
<!--zoomable 302 -->
<svg id="main" version="1.1" xmlns="http://www.w3.org/2000/svg" xmlns:xlink="http://www.w3.org/1999/xlink" xml:space="preserve" onload="init(evt)">
<style type="text/css"><![CDATA[
.edge:hover path { stroke: red; }
.edge:hover polygon { stroke: red; fill: red; }
]]></style>
<script type="text/javascript"><![CDATA[
var edges = document.getElementsByTagName('g');
if (edges && edges.length) {
  for (var i=0;i<edges.length;i++) {
    if (edges[i].id.substr(0,4)=='edge') {
      edges[i].setAttribute('class','edge');
    }
  }
}
]]></script>
        <defs>
                <circle id="rim" cx="0" cy="0" r="7"/>
                <circle id="rim2" cx="0" cy="0" r="3.5"/>
                <g id="zoomPlus">
                        <use xlink:href="#rim" fill="#404040">
                                <set attributeName="fill" to="#808080" begin="zoomplus.mouseover" end="zoomplus.mouseout"/>
                        </use>
                        <path d="M-4,0h8M0,-4v8" fill="none" stroke="white" stroke-width="1.5" pointer-events="none"/>
                </g>
                <g id="zoomMin">
                        <use xlink:href="#rim" fill="#404040">
                                <set attributeName="fill" to="#808080" begin="zoomminus.mouseover" end="zoomminus.mouseout"/>
                        </use>
                        <path d="M-4,0h8" fill="none" stroke="white" stroke-width="1.5" pointer-events="none"/>
                </g>
                <g id="dirArrow">
                        <path fill="none" stroke="white" stroke-width="1.5" d="M0,-3.0v7 M-2.5,-0.5L0,-3.0L2.5,-0.5"/>
                </g>
               <g id="resetDef">
                       <use xlink:href="#rim2" fill="#404040">
                               <set attributeName="fill" to="#808080" begin="reset.mouseover" end="reset.mouseout"/>
                       </use>
               </g>
        </defs>

<script type="text/javascript">
var viewWidth = 970;
var viewHeight = 302;
var sectionId = 'dynsection-0';
</script>
<script xlink:href="../../svgpan.js"/>
<svg id="graph" class="graph">
<g id="viewport">
<title>code/model/Doctor.hpp</title>
    <!-- Node0 -->
<g id="node1" class="node">
<title>Node0</title>
<polygon fill="#bfbfbf" stroke="#000000" points="533.5767,-275.5 533.5767,-293.5 652.4233,-293.5 652.4233,-275.5 533.5767,-275.5"/>
<text text-anchor="middle" x="593" y="-281.5" font-family="Helvetica,sans-Serif" font-size="10.00" fill="#000000">code/model/Doctor.hpp</text>
</g>
    <!-- Node1 -->
<g id="node2" class="node">
<title>Node1</title>
<polygon fill="none" stroke="#bfbfbf" points="55.7734,-.5 55.7734,-18.5 96.2266,-18.5 96.2266,-.5 55.7734,-.5"/>
<text text-anchor="middle" x="76" y="-6.5" font-family="Helvetica,sans-Serif" font-size="10.00" fill="#000000">string</text>
</g>
    <!-- Node0&#45;&gt;Node1 -->
<g id="edge1" class="edge">
<title>Node0&#45;&gt;Node1</title>
<path fill="none" stroke="#191970" d="M533.4258,-279.6746C383.0491,-266.6985 0,-228.359 0,-174.5 0,-174.5 0,-174.5 0,-119.5 0,-80.0142 33.5575,-44.4341 56.0753,-25.0039"/>
<polygon fill="#191970" stroke="#191970" points="58.3316,-27.6798 63.7893,-18.5988 53.8598,-22.2943 58.3316,-27.6798"/>
</g>
    <!-- Node2 -->
<g id="node3" class="node">
<title>Node2</title>
<polygon fill="none" stroke="#bfbfbf" points="750.3843,-.5 750.3843,-18.5 793.6157,-18.5 793.6157,-.5 750.3843,-.5"/>
<text text-anchor="middle" x="772" y="-6.5" font-family="Helvetica,sans-Serif" font-size="10.00" fill="#000000">vector</text>
</g>
    <!-- Node0&#45;&gt;Node2 -->
<g id="edge2" class="edge">
<title>Node0&#45;&gt;Node2</title>
<path fill="none" stroke="#191970" d="M635.1081,-275.469C707.5352,-258.7101 848,-220.3035 848,-174.5 848,-174.5 848,-174.5 848,-119.5 848,-80.0142 814.4425,-44.4341 791.9247,-25.0039"/>
<polygon fill="#191970" stroke="#191970" points="794.1402,-22.2943 784.2107,-18.5988 789.6684,-27.6798 794.1402,-22.2943"/>
</g>
    <!-- Node3 -->
<g id="node4" class="node">
<title>Node3</title>
<g id="a_node4"><a xlink:href="../../de/d01/_prescription_8hpp.html" target="_top" xlink:title="Prescription.hpp">
<polygon fill="none" stroke="#000000" points="286.8696,-165.5 286.8696,-183.5 375.1304,-183.5 375.1304,-165.5 286.8696,-165.5"/>
<text text-anchor="middle" x="331" y="-171.5" font-family="Helvetica,sans-Serif" font-size="10.00" fill="#000000">Prescription.hpp</text>
</a>
</g>
</g>
    <!-- Node0&#45;&gt;Node3 -->
<g id="edge3" class="edge">
<title>Node0&#45;&gt;Node3</title>
<path fill="none" stroke="#191970" d="M542.5781,-275.483C508.3821,-268.2638 462.7156,-256.4314 425,-239 396.7459,-225.9416 367.7314,-204.5857 349.5535,-190.055"/>
<polygon fill="#191970" stroke="#191970" points="351.5149,-187.1385 341.5512,-183.5364 347.0939,-192.5657 351.5149,-187.1385"/>
</g>
    <!-- Node7 -->
<g id="node8" class="node">
<title>Node7</title>
<g id="a_node8"><a xlink:href="../../dd/df9/_drug_8hpp.html" target="_top" xlink:title="Drug.hpp">
<polygon fill="none" stroke="#000000" points="431.4312,-110.5 431.4312,-128.5 488.5688,-128.5 488.5688,-110.5 431.4312,-110.5"/>
<text text-anchor="middle" x="460" y="-116.5" font-family="Helvetica,sans-Serif" font-size="10.00" fill="#000000">Drug.hpp</text>
</a>
</g>
</g>
    <!-- Node0&#45;&gt;Node7 -->
<g id="edge26" class="edge">
<title>Node0&#45;&gt;Node7</title>
<path fill="none" stroke="#191970" d="M585.4683,-275.1561C563.8877,-248.3832 501.5958,-171.1038 473.7427,-136.5492"/>
<polygon fill="#191970" stroke="#191970" points="476.4498,-134.3305 467.4491,-128.7414 470.9999,-138.7235 476.4498,-134.3305"/>
</g>
    <!-- Node10 -->
<g id="node11" class="node">
<title>Node10</title>
<g id="a_node11"><a xlink:href="../../d0/da9/_patient_8hpp.html" target="_top" xlink:title="Patient.hpp">
<polygon fill="none" stroke="#000000" points="433.7021,-220.5 433.7021,-238.5 500.2979,-238.5 500.2979,-220.5 433.7021,-220.5"/>
<text text-anchor="middle" x="467" y="-226.5" font-family="Helvetica,sans-Serif" font-size="10.00" fill="#000000">Patient.hpp</text>
</a>
</g>
</g>
    <!-- Node0&#45;&gt;Node10 -->
<g id="edge20" class="edge">
<title>Node0&#45;&gt;Node10</title>
<path fill="none" stroke="#191970" d="M572.1937,-275.4179C551.7661,-266.5011 520.3852,-252.803 497.2108,-242.6873"/>
<polygon fill="#191970" stroke="#191970" points="498.4024,-239.3885 487.8372,-238.5956 495.6019,-245.804 498.4024,-239.3885"/>
</g>
    <!-- Node11 -->
<g id="node12" class="node">
<title>Node11</title>
<g id="a_node12"><a xlink:href="../../d8/d63/_date_8hpp.html" target="_top" xlink:title="../utils/Date.hpp">
<polygon fill="none" stroke="#000000" points="734.2588,-165.5 734.2588,-183.5 819.7412,-183.5 819.7412,-165.5 734.2588,-165.5"/>
<text text-anchor="middle" x="777" y="-171.5" font-family="Helvetica,sans-Serif" font-size="10.00" fill="#000000">../utils/Date.hpp</text>
</a>
</g>
</g>
    <!-- Node0&#45;&gt;Node11 -->
<g id="edge27" class="edge">
<title>Node0&#45;&gt;Node11</title>
<path fill="none" stroke="#191970" d="M608.0575,-275.4982C639.8653,-256.4827 714.1377,-212.0807 752.7372,-189.005"/>
<polygon fill="#191970" stroke="#191970" points="754.9472,-191.7615 761.7345,-183.6261 751.3553,-185.7533 754.9472,-191.7615"/>
</g>
    <!-- Node12 -->
<g id="node13" class="node">
<title>Node12</title>
<g id="a_node13"><a xlink:href="../../d8/d3a/_time_8hpp.html" target="_top" xlink:title="../utils/Time.hpp">
<polygon fill="none" stroke="#000000" points="875.8926,-220.5 875.8926,-238.5 962.1074,-238.5 962.1074,-220.5 875.8926,-220.5"/>
<text text-anchor="middle" x="919" y="-226.5" font-family="Helvetica,sans-Serif" font-size="10.00" fill="#000000">../utils/Time.hpp</text>
</a>
</g>
</g>
    <!-- Node0&#45;&gt;Node12 -->
<g id="edge29" class="edge">
<title>Node0&#45;&gt;Node12</title>
<path fill="none" stroke="#191970" d="M646.4672,-275.4795C707.0005,-265.2668 805.045,-248.7255 865.565,-238.5151"/>
<polygon fill="#191970" stroke="#191970" points="866.3988,-241.924 875.6772,-236.8091 865.2342,-235.0215 866.3988,-241.924"/>
</g>
    <!-- Node3&#45;&gt;Node1 -->
<g id="edge5" class="edge">
<title>Node3&#45;&gt;Node1</title>
<path fill="none" stroke="#191970" d="M286.5416,-168.487C236.7303,-160.9999 159.9427,-146.9754 137,-129 104.2709,-103.357 87.5266,-55.3755 80.388,-28.6744"/>
<polygon fill="#191970" stroke="#191970" points="83.7079,-27.521 77.8981,-18.6611 76.9147,-29.2102 83.7079,-27.521"/>
</g>
    <!-- Node3&#45;&gt;Node2 -->
<g id="edge4" class="edge">
<title>Node3&#45;&gt;Node2</title>
<path fill="none" stroke="#191970" d="M375.295,-169.6057C472.1856,-158.0328 698.638,-125.9868 753,-74 765.116,-62.4134 769.6176,-43.5287 771.235,-29.1803"/>
<polygon fill="#191970" stroke="#191970" points="774.7503,-29.1044 772.0041,-18.8717 767.7697,-28.5835 774.7503,-29.1044"/>
</g>
    <!-- Node4 -->
<g id="node5" class="node">
<title>Node4</title>
<polygon fill="none" stroke="#bfbfbf" points="324.2734,-.5 324.2734,-18.5 359.7266,-18.5 359.7266,-.5 324.2734,-.5"/>
<text text-anchor="middle" x="342" y="-6.5" font-family="Helvetica,sans-Serif" font-size="10.00" fill="#000000">map</text>
</g>
    <!-- Node3&#45;&gt;Node4 -->
<g id="edge6" class="edge">
<title>Node3&#45;&gt;Node4</title>
<path fill="none" stroke="#191970" d="M286.7731,-166.1877C214.9669,-150.771 85.5785,-113.856 133,-55 155.4039,-27.1939 262.101,-15.4873 313.7962,-11.3839"/>
<polygon fill="#191970" stroke="#191970" points="314.2333,-14.861 323.9425,-10.6206 313.7081,-7.8807 314.2333,-14.861"/>
</g>
    <!-- Node5 -->
<g id="node6" class="node">
<title>Node5</title>
<polygon fill="none" stroke="#bfbfbf" points="142.0889,-55.5 142.0889,-73.5 275.9111,-73.5 275.9111,-55.5 142.0889,-55.5"/>
<text text-anchor="middle" x="209" y="-61.5" font-family="Helvetica,sans-Serif" font-size="10.00" fill="#000000">gtkmm/treemodelcolumn.h</text>
</g>
    <!-- Node3&#45;&gt;Node5 -->
<g id="edge7" class="edge">
<title>Node3&#45;&gt;Node5</title>
<path fill="none" stroke="#191970" d="M321.0162,-165.4982C300.3731,-146.8856 252.7545,-103.9508 226.7454,-80.4999"/>
<polygon fill="#191970" stroke="#191970" points="228.8924,-77.7231 219.1217,-73.6261 224.2049,-82.922 228.8924,-77.7231"/>
</g>
    <!-- Node6 -->
<g id="node7" class="node">
<title>Node6</title>
<g id="a_node7"><a xlink:href="../../d3/d1b/_i_serializable_8hpp.html" target="_top" xlink:title="../interfaces/ISerializable.hpp">
<polygon fill="none" stroke="#000000" points="527.7983,-55.5 527.7983,-73.5 672.2017,-73.5 672.2017,-55.5 527.7983,-55.5"/>
<text text-anchor="middle" x="600" y="-61.5" font-family="Helvetica,sans-Serif" font-size="10.00" fill="#000000">../interfaces/ISerializable.hpp</text>
</a>
</g>
</g>
    <!-- Node3&#45;&gt;Node6 -->
<g id="edge8" class="edge">
<title>Node3&#45;&gt;Node6</title>
<path fill="none" stroke="#191970" d="M375.4732,-166.1626C409.8447,-158.8295 458.1251,-146.5653 498,-129 528.2618,-115.6694 559.9792,-94.2599 579.8552,-79.7999"/>
<polygon fill="#191970" stroke="#191970" points="582.1464,-82.4587 588.1063,-73.6992 577.9847,-76.8301 582.1464,-82.4587"/>
</g>
    <!-- Node3&#45;&gt;Node7 -->
<g id="edge12" class="edge">
<title>Node3&#45;&gt;Node7</title>
<path fill="none" stroke="#191970" d="M352.3017,-165.4179C373.309,-156.4613 405.6308,-142.6806 429.3871,-132.552"/>
<polygon fill="#191970" stroke="#191970" points="430.8405,-135.7372 438.6666,-128.5956 428.0951,-129.2981 430.8405,-135.7372"/>
</g>
    <!-- Node6&#45;&gt;Node1 -->
<g id="edge9" class="edge">
<title>Node6&#45;&gt;Node1</title>
<path fill="none" stroke="#191970" d="M527.6902,-56.9102C411.3465,-44.6986 187.4427,-21.1972 106.3028,-12.6806"/>
<polygon fill="#191970" stroke="#191970" points="106.5705,-9.1896 96.2597,-11.6265 105.8397,-16.1513 106.5705,-9.1896"/>
</g>
    <!-- Node6&#45;&gt;Node2 -->
<g id="edge11" class="edge">
<title>Node6&#45;&gt;Node2</title>
<path fill="none" stroke="#191970" d="M628.4023,-55.4179C659.3114,-45.5341 708.5914,-29.776 740.6227,-19.5334"/>
<polygon fill="#191970" stroke="#191970" points="741.9124,-22.7957 750.3712,-16.4162 739.7803,-16.1283 741.9124,-22.7957"/>
</g>
    <!-- Node6&#45;&gt;Node4 -->
<g id="edge10" class="edge">
<title>Node6&#45;&gt;Node4</title>
<path fill="none" stroke="#191970" d="M557.6854,-55.4795C504.6144,-44.1659 415.1113,-25.0857 369.9092,-15.4496"/>
<polygon fill="#191970" stroke="#191970" points="370.4436,-11.985 359.9336,-13.3231 368.9841,-18.8312 370.4436,-11.985"/>
</g>
    <!-- Node7&#45;&gt;Node1 -->
<g id="edge13" class="edge">
<title>Node7&#45;&gt;Node1</title>
<path fill="none" stroke="#191970" d="M438.4984,-110.4719C405.8032,-96.9973 341.4196,-71.4524 285,-55 222.3615,-36.7341 147.2523,-22.1079 106.2981,-14.7297"/>
<polygon fill="#191970" stroke="#191970" points="106.8689,-11.2764 96.4103,-12.9701 105.6424,-18.1681 106.8689,-11.2764"/>
</g>
    <!-- Node7&#45;&gt;Node2 -->
<g id="edge14" class="edge">
<title>Node7&#45;&gt;Node2</title>
<path fill="none" stroke="#191970" d="M465.573,-110.2634C474.7657,-95.9053 494.5471,-68.4835 519,-55 556.6187,-34.2569 680.738,-18.9804 739.9825,-12.6795"/>
<polygon fill="#191970" stroke="#191970" points="740.6714,-16.1267 750.2543,-11.6081 739.9452,-9.1645 740.6714,-16.1267"/>
</g>
    <!-- Node7&#45;&gt;Node4 -->
<g id="edge15" class="edge">
<title>Node7&#45;&gt;Node4</title>
<path fill="none" stroke="#191970" d="M431.3352,-113.215C409.1356,-106.9097 379.1931,-95.0286 361,-74 350.0313,-61.3218 345.3898,-42.5703 343.4284,-28.5491"/>
<polygon fill="#191970" stroke="#191970" points="346.9002,-28.0978 342.3604,-18.5249 339.9396,-28.8395 346.9002,-28.0978"/>
</g>
    <!-- Node7&#45;&gt;Node5 -->
<g id="edge16" class="edge">
<title>Node7&#45;&gt;Node5</title>
<path fill="none" stroke="#191970" d="M431.3207,-113.1552C426.5388,-112.0998 421.6295,-111.0178 417,-110 363.6354,-98.2683 302.552,-84.9153 260.4541,-75.7244"/>
<polygon fill="#191970" stroke="#191970" points="260.9595,-72.2524 250.4431,-73.5391 259.4665,-79.0913 260.9595,-72.2524"/>
</g>
    <!-- Node7&#45;&gt;Node6 -->
<g id="edge19" class="edge">
<title>Node7&#45;&gt;Node6</title>
<path fill="none" stroke="#191970" d="M483.1182,-110.4179C506.1194,-101.3817 541.6193,-87.4353 567.462,-77.2828"/>
<polygon fill="#191970" stroke="#191970" points="568.8198,-80.5098 576.8475,-73.5956 566.2602,-73.9946 568.8198,-80.5098"/>
</g>
    <!-- Node8 -->
<g id="node9" class="node">
<title>Node8</title>
<polygon fill="none" stroke="#bfbfbf" points="370.207,-55.5 370.207,-73.5 471.793,-73.5 471.793,-55.5 370.207,-55.5"/>
<text text-anchor="middle" x="421" y="-61.5" font-family="Helvetica,sans-Serif" font-size="10.00" fill="#000000">gtkmm/treemodel.h</text>
</g>
    <!-- Node7&#45;&gt;Node8 -->
<g id="edge17" class="edge">
<title>Node7&#45;&gt;Node8</title>
<path fill="none" stroke="#191970" d="M453.5599,-110.4179C448.1167,-102.7415 440.1608,-91.5217 433.4761,-82.0945"/>
<polygon fill="#191970" stroke="#191970" points="436.2194,-79.9123 427.58,-73.7795 430.5092,-83.9613 436.2194,-79.9123"/>
</g>
    <!-- Node9 -->
<g id="node10" class="node">
<title>Node9</title>
<polygon fill="none" stroke="#bfbfbf" points="689.8276,-55.5 689.8276,-73.5 744.1724,-73.5 744.1724,-55.5 689.8276,-55.5"/>
<text text-anchor="middle" x="717" y="-61.5" font-family="Helvetica,sans-Serif" font-size="10.00" fill="#000000">iostream</text>
</g>
    <!-- Node7&#45;&gt;Node9 -->
<g id="edge18" class="edge">
<title>Node7&#45;&gt;Node9</title>
<path fill="none" stroke="#191970" d="M488.7182,-114.1105C529.1665,-106.4063 605.4336,-91.4671 679.5543,-74.2499"/>
<polygon fill="#191970" stroke="#191970" points="680.5821,-77.6041 689.5215,-71.9176 678.9871,-70.7882 680.5821,-77.6041"/>
</g>
    <!-- Node10&#45;&gt;Node1 -->
<g id="edge22" class="edge">
<title>Node10&#45;&gt;Node1</title>
<path fill="none" stroke="#191970" d="M433.4732,-223.5346C355.3733,-209.0819 164.2195,-170.3258 115,-129 85.1665,-103.9512 77.9758,-55.7353 76.3562,-28.8377"/>
<polygon fill="#191970" stroke="#191970" points="79.8495,-28.5976 75.9534,-18.7451 72.855,-28.8768 79.8495,-28.5976"/>
</g>
    <!-- Node10&#45;&gt;Node2 -->
<g id="edge21" class="edge">
<title>Node10&#45;&gt;Node2</title>
<path fill="none" stroke="#191970" d="M500.4463,-224.0913C566.3488,-211.4244 711.8076,-173.0446 772,-74 780.1782,-60.5431 779.3715,-42.4076 776.9833,-28.7942"/>
<polygon fill="#191970" stroke="#191970" points="780.3163,-27.6502 774.7678,-18.6245 773.4767,-29.1403 780.3163,-27.6502"/>
</g>
    <!-- Node10&#45;&gt;Node3 -->
<g id="edge25" class="edge">
<title>Node10&#45;&gt;Node3</title>
<path fill="none" stroke="#191970" d="M444.5424,-220.4179C422.2967,-211.4215 388.0163,-197.5581 362.9406,-187.4172"/>
<polygon fill="#191970" stroke="#191970" points="364.0738,-184.1001 353.491,-183.5956 361.4494,-190.5895 364.0738,-184.1001"/>
</g>
    <!-- Node10&#45;&gt;Node5 -->
<g id="edge23" class="edge">
<title>Node10&#45;&gt;Node5</title>
<path fill="none" stroke="#191970" d="M456.3525,-220.4441C440.8973,-207.4831 411.1261,-183.2002 384,-165 333.3394,-131.0093 270.6311,-96.7616 235.7032,-78.3327"/>
<polygon fill="#191970" stroke="#191970" points="237.1028,-75.1146 226.6215,-73.5676 233.8504,-81.3132 237.1028,-75.1146"/>
</g>
    <!-- Node10&#45;&gt;Node6 -->
<g id="edge24" class="edge">
<title>Node10&#45;&gt;Node6</title>
<path fill="none" stroke="#191970" d="M474.5317,-220.1561C496.1123,-193.3832 558.4042,-116.1038 586.2573,-81.5492"/>
<polygon fill="#191970" stroke="#191970" points="589.0001,-83.7235 592.5509,-73.7414 583.5502,-79.3305 589.0001,-83.7235"/>
</g>
    <!-- Node11&#45;&gt;Node9 -->
<g id="edge28" class="edge">
<title>Node11&#45;&gt;Node9</title>
<path fill="none" stroke="#191970" d="M772.0899,-165.4982C762.2452,-147.4496 739.9258,-106.5306 726.9187,-82.6843"/>
<polygon fill="#191970" stroke="#191970" points="729.8391,-80.7291 721.9779,-73.6261 723.6938,-84.0811 729.8391,-80.7291"/>
</g>
</g>
</svg>
        <g id="navigator" transform="translate(0 0)" fill="#404254">
                <rect fill="#f2f5e9" fill-opacity="0.5" stroke="#606060" stroke-width=".5" x="0" y="0" width="60" height="60"/>
                <use id="zoomplus" xlink:href="#zoomPlus" x="17" y="9" onmousedown="handleZoom(evt,'in')"/>
                <use id="zoomminus" xlink:href="#zoomMin" x="42" y="9" onmousedown="handleZoom(evt,'out')"/>
                <use id="reset" xlink:href="#resetDef" x="30" y="36" onmousedown="handleReset()"/>
                <g id="arrowUp" xlink:href="#dirArrow" transform="translate(30 24)" onmousedown="handlePan(0,-1)">
                  <use xlink:href="#rim" fill="#404040">
                        <set attributeName="fill" to="#808080" begin="arrowUp.mouseover" end="arrowUp.mouseout"/>
                  </use>
                  <path fill="none" stroke="white" stroke-width="1.5" d="M0,-3.0v7 M-2.5,-0.5L0,-3.0L2.5,-0.5"/>
                </g>
                <g id="arrowRight" xlink:href="#dirArrow" transform="rotate(90) translate(36 -43)" onmousedown="handlePan(1,0)">
                  <use xlink:href="#rim" fill="#404040">
                        <set attributeName="fill" to="#808080" begin="arrowRight.mouseover" end="arrowRight.mouseout"/>
                  </use>
                  <path fill="none" stroke="white" stroke-width="1.5" d="M0,-3.0v7 M-2.5,-0.5L0,-3.0L2.5,-0.5"/>
                </g>
                <g id="arrowDown" xlink:href="#dirArrow" transform="rotate(180) translate(-30 -48)" onmousedown="handlePan(0,1)">
                  <use xlink:href="#rim" fill="#404040">
                        <set attributeName="fill" to="#808080" begin="arrowDown.mouseover" end="arrowDown.mouseout"/>
                  </use>
                  <path fill="none" stroke="white" stroke-width="1.5" d="M0,-3.0v7 M-2.5,-0.5L0,-3.0L2.5,-0.5"/>
                </g>
                <g id="arrowLeft" xlink:href="#dirArrow" transform="rotate(270) translate(-36 17)" onmousedown="handlePan(-1,0)">
                  <use xlink:href="#rim" fill="#404040">
                        <set attributeName="fill" to="#808080" begin="arrowLeft.mouseover" end="arrowLeft.mouseout"/>
                  </use>
                  <path fill="none" stroke="white" stroke-width="1.5" d="M0,-3.0v7 M-2.5,-0.5L0,-3.0L2.5,-0.5"/>
                </g>
        </g>
        <svg viewBox="0 0 15 15" width="100%" height="30px" preserveAspectRatio="xMaxYMin meet">
         <g id="arrow_out" transform="scale(0.3 0.3)">
          <a xlink:href="_doctor_8hpp__incl_org.svg" target="_base">
           <rect id="button" ry="5" rx="5" y="6" x="6" height="38" width="38"
                fill="#f2f5e9" fill-opacity="0.5" stroke="#606060" stroke-width="1.0"/>
           <path id="arrow"
             d="M 11.500037,31.436501 C 11.940474,20.09759 22.043105,11.32322 32.158766,21.979434 L 37.068811,17.246167 C 37.068811,17.246167 37.088388,32 37.088388,32 L 22.160133,31.978069 C 22.160133,31.978069 26.997745,27.140456 26.997745,27.140456 C 18.528582,18.264221 13.291696,25.230495 11.500037,31.436501 z"
             style="fill:#404040;"/>
          </a>
         </g>
        </svg>
</svg>
