<?xml version="1.0" encoding="UTF-8" standalone="no"?>
<!DOCTYPE svg PUBLIC "-//W3C//DTD SVG 1.1//EN"
        "http://www.w3.org/Graphics/SVG/1.1/DTD/svg11.dtd">
<!-- Generated by graphviz version 2.40.1 (20161225.0304)
 -->
<!-- Title: code/gui/AddPrescriptionDialog.cpp Pages: 1 -->
<!--zoomable 312 -->
<svg id="main" version="1.1" xmlns="http://www.w3.org/2000/svg" xmlns:xlink="http://www.w3.org/1999/xlink" xml:space="preserve" onload="initDrugComboBox(evt)">
<style type="text/css"><![CDATA[
.edge:hover path { stroke: red; }
.edge:hover polygon { stroke: red; fill: red; }
]]></style>
<script type="text/javascript"><![CDATA[
var edges = document.getElementsByTagName('g');
if (edges && edges.length) {
  for (var i=0;i<edges.length;i++) {
    if (edges[i].id.substr(0,4)=='edge') {
      edges[i].setAttribute('class','edge');
    }
  }
}
]]></script>
        <defs>
                <circle id="rim" cx="0" cy="0" r="7"/>
                <circle id="rim2" cx="0" cy="0" r="3.5"/>
                <g id="zoomPlus">
                        <use xlink:href="#rim" fill="#404040">
                                <set attributeName="fill" to="#808080" begin="zoomplus.mouseover" end="zoomplus.mouseout"/>
                        </use>
                        <path d="M-4,0h8M0,-4v8" fill="none" stroke="white" stroke-width="1.5" pointer-events="none"/>
                </g>
                <g id="zoomMin">
                        <use xlink:href="#rim" fill="#404040">
                                <set attributeName="fill" to="#808080" begin="zoomminus.mouseover" end="zoomminus.mouseout"/>
                        </use>
                        <path d="M-4,0h8" fill="none" stroke="white" stroke-width="1.5" pointer-events="none"/>
                </g>
                <g id="dirArrow">
                        <path fill="none" stroke="white" stroke-width="1.5" d="M0,-3.0v7 M-2.5,-0.5L0,-3.0L2.5,-0.5"/>
                </g>
               <g id="resetDef">
                       <use xlink:href="#rim2" fill="#404040">
                               <set attributeName="fill" to="#808080" begin="reset.mouseover" end="reset.mouseout"/>
                       </use>
               </g>
        </defs>

<script type="text/javascript">
var viewWidth = 1197;
var viewHeight = 312;
var sectionId = 'dynsection-0';
</script>
<script xlink:href="../../svgpan.js"/>
<svg id="graph" class="graph">
<g id="viewport">
<title>code/gui/AddPrescriptionDialog.cpp</title>
    <!-- Node0 -->
<g id="node1" class="node">
<title>Node0</title>
<polygon fill="#bfbfbf" stroke="#000000" points="465.0986,-275.5 465.0986,-303.5 592.2754,-303.5 592.2754,-275.5 465.0986,-275.5"/>
<text text-anchor="start" x="473.0986" y="-291.5" font-family="Helvetica,sans-Serif" font-size="10.00" fill="#000000">code/gui/AddPrescription</text>
<text text-anchor="middle" x="528.687" y="-281.5" font-family="Helvetica,sans-Serif" font-size="10.00" fill="#000000">Dialog.cpp</text>
</g>
    <!-- Node1 -->
<g id="node2" class="node">
<title>Node1</title>
<polygon fill="none" stroke="#bfbfbf" points="214.2266,-220.5 214.2266,-238.5 299.1475,-238.5 299.1475,-220.5 214.2266,-220.5"/>
<text text-anchor="middle" x="256.687" y="-226.5" font-family="Helvetica,sans-Serif" font-size="10.00" fill="#000000">gtkmm/button.h</text>
</g>
    <!-- Node0&#45;&gt;Node1 -->
<g id="edge1" class="edge">
<title>Node0&#45;&gt;Node1</title>
<path fill="none" stroke="#191970" d="M464.9151,-275.4327C416.9883,-264.8606 352.2027,-250.5696 307.6912,-240.7509"/>
<polygon fill="#191970" stroke="#191970" points="308.1954,-237.2781 297.6762,-238.5417 306.6874,-244.1137 308.1954,-237.2781"/>
</g>
    <!-- Node2 -->
<g id="node3" class="node">
<title>Node2</title>
<g id="a_node3"><a xlink:href="../../d0/d1e/_add_prescription_dialog_8hpp.html" target="_top" xlink:title="AddPrescriptionDialog.hpp">
<polygon fill="none" stroke="#000000" points="317.4854,-220.5 317.4854,-238.5 451.8887,-238.5 451.8887,-220.5 317.4854,-220.5"/>
<text text-anchor="middle" x="384.687" y="-226.5" font-family="Helvetica,sans-Serif" font-size="10.00" fill="#000000">AddPrescriptionDialog.hpp</text>
</a>
</g>
</g>
    <!-- Node0&#45;&gt;Node2 -->
<g id="edge2" class="edge">
<title>Node0&#45;&gt;Node2</title>
<path fill="none" stroke="#191970" d="M494.9254,-275.4327C471.0674,-265.4918 439.3181,-252.263 416.0209,-242.5558"/>
<polygon fill="#191970" stroke="#191970" points="417.1785,-239.2465 406.6016,-238.6311 414.4862,-245.708 417.1785,-239.2465"/>
</g>
    <!-- Node16 -->
<g id="node17" class="node">
<title>Node16</title>
<g id="a_node17"><a xlink:href="../../dc/db8/_ref_builder_8hpp.html" target="_top" xlink:title="RefBuilder.hpp">
<polygon fill="none" stroke="#000000" points="487.8843,-220.5 487.8843,-238.5 569.4897,-238.5 569.4897,-220.5 487.8843,-220.5"/>
<text text-anchor="middle" x="528.687" y="-226.5" font-family="Helvetica,sans-Serif" font-size="10.00" fill="#000000">RefBuilder.hpp</text>
</a>
</g>
</g>
    <!-- Node0&#45;&gt;Node16 -->
<g id="edge18" class="edge">
<title>Node0&#45;&gt;Node16</title>
<path fill="none" stroke="#191970" d="M528.687,-275.2808C528.687,-267.3776 528.687,-257.4316 528.687,-248.8308"/>
<polygon fill="#191970" stroke="#191970" points="532.1871,-248.5842 528.687,-238.5842 525.1871,-248.5842 532.1871,-248.5842"/>
</g>
    <!-- Node18 -->
<g id="node19" class="node">
<title>Node18</title>
<g id="a_node19"><a xlink:href="../../d7/d0f/_d_b_master_8hpp.html" target="_top" xlink:title="../DBMaster.hpp">
<polygon fill="none" stroke="#000000" points="685.835,-220.5 685.835,-238.5 773.5391,-238.5 773.5391,-220.5 685.835,-220.5"/>
<text text-anchor="middle" x="729.687" y="-226.5" font-family="Helvetica,sans-Serif" font-size="10.00" fill="#000000">../DBMaster.hpp</text>
</a>
</g>
</g>
    <!-- Node0&#45;&gt;Node18 -->
<g id="edge20" class="edge">
<title>Node0&#45;&gt;Node18</title>
<path fill="none" stroke="#191970" d="M575.8126,-275.4327C610.4089,-265.1054 656.8931,-251.2295 689.6875,-241.4402"/>
<polygon fill="#191970" stroke="#191970" points="690.8162,-244.7559 699.3972,-238.5417 688.8139,-238.0484 690.8162,-244.7559"/>
</g>
    <!-- Node25 -->
<g id="node26" class="node">
<title>Node25</title>
<g id="a_node26"><a xlink:href="../../dd/df9/_drug_8hpp.html" target="_top" xlink:title="../model/Drug.hpp">
<polygon fill="none" stroke="#000000" points="938.9434,-220.5 938.9434,-238.5 1034.4307,-238.5 1034.4307,-220.5 938.9434,-220.5"/>
<text text-anchor="middle" x="986.687" y="-226.5" font-family="Helvetica,sans-Serif" font-size="10.00" fill="#000000">../model/Drug.hpp</text>
</a>
</g>
</g>
    <!-- Node0&#45;&gt;Node25 -->
<g id="edge28" class="edge">
<title>Node0&#45;&gt;Node25</title>
<path fill="none" stroke="#191970" d="M592.3699,-281.1573C681.6503,-269.4611 842.7152,-248.3609 928.7751,-237.0867"/>
<polygon fill="#191970" stroke="#191970" points="929.4279,-240.5312 938.8885,-235.7618 928.5186,-233.5905 929.4279,-240.5312"/>
</g>
    <!-- Node3 -->
<g id="node4" class="node">
<title>Node3</title>
<polygon fill="none" stroke="#bfbfbf" points="327.3809,-110.5 327.3809,-128.5 405.9932,-128.5 405.9932,-110.5 327.3809,-110.5"/>
<text text-anchor="middle" x="366.687" y="-116.5" font-family="Helvetica,sans-Serif" font-size="10.00" fill="#000000">gtkmm/entry.h</text>
</g>
    <!-- Node2&#45;&gt;Node3 -->
<g id="edge3" class="edge">
<title>Node2&#45;&gt;Node3</title>
<path fill="none" stroke="#191970" d="M383.214,-220.4982C380.3001,-202.6913 373.7434,-162.6225 369.8209,-138.6515"/>
<polygon fill="#191970" stroke="#191970" points="373.2494,-137.9297 368.1804,-128.6261 366.3413,-139.0601 373.2494,-137.9297"/>
</g>
    <!-- Node4 -->
<g id="node5" class="node">
<title>Node4</title>
<polygon fill="none" stroke="#bfbfbf" points="0,-110.5 0,-128.5 119.374,-128.5 119.374,-110.5 0,-110.5"/>
<text text-anchor="middle" x="59.687" y="-116.5" font-family="Helvetica,sans-Serif" font-size="10.00" fill="#000000">gtkmm/comboboxtext.h</text>
</g>
    <!-- Node2&#45;&gt;Node4 -->
<g id="edge4" class="edge">
<title>Node2&#45;&gt;Node4</title>
<path fill="none" stroke="#191970" d="M351.1959,-220.4732C319.6452,-211.7801 271.16,-197.9318 229.687,-184 180.8,-167.5777 125.0743,-145.8472 91.1487,-132.2719"/>
<polygon fill="#191970" stroke="#191970" points="92.3509,-128.983 81.7669,-128.5031 89.7415,-135.4785 92.3509,-128.983"/>
</g>
    <!-- Node5 -->
<g id="node6" class="node">
<title>Node5</title>
<g id="a_node6"><a xlink:href="../../dc/de6/_dialog_8hpp.html" target="_top" xlink:title="Dialog.hpp">
<polygon fill="none" stroke="#000000" points="394.7808,-165.5 394.7808,-183.5 458.5933,-183.5 458.5933,-165.5 394.7808,-165.5"/>
<text text-anchor="middle" x="426.687" y="-171.5" font-family="Helvetica,sans-Serif" font-size="10.00" fill="#000000">Dialog.hpp</text>
</a>
</g>
</g>
    <!-- Node2&#45;&gt;Node5 -->
<g id="edge5" class="edge">
<title>Node2&#45;&gt;Node5</title>
<path fill="none" stroke="#191970" d="M391.6225,-220.4179C397.5448,-212.6624 406.2292,-201.29 413.4734,-191.8035"/>
<polygon fill="#191970" stroke="#191970" points="416.3134,-193.8514 419.6009,-183.7795 410.75,-189.6029 416.3134,-193.8514"/>
</g>
    <!-- Node12 -->
<g id="node13" class="node">
<title>Node12</title>
<g id="a_node13"><a xlink:href="../../dc/d55/_widgets_8hpp.html" target="_top" xlink:title="Widgets.hpp">
<polygon fill="none" stroke="#000000" points="238.894,-165.5 238.894,-183.5 310.48,-183.5 310.48,-165.5 238.894,-165.5"/>
<text text-anchor="middle" x="274.687" y="-171.5" font-family="Helvetica,sans-Serif" font-size="10.00" fill="#000000">Widgets.hpp</text>
</a>
</g>
</g>
    <!-- Node2&#45;&gt;Node12 -->
<g id="edge12" class="edge">
<title>Node2&#45;&gt;Node12</title>
<path fill="none" stroke="#191970" d="M366.5227,-220.4179C348.928,-211.6205 322.0252,-198.1691 301.8782,-188.0956"/>
<polygon fill="#191970" stroke="#191970" points="303.3878,-184.9373 292.8783,-183.5956 300.2573,-191.1983 303.3878,-184.9373"/>
</g>
    <!-- Node6 -->
<g id="node7" class="node">
<title>Node6</title>
<polygon fill="none" stroke="#bfbfbf" points="568.1084,-110.5 568.1084,-128.5 665.2656,-128.5 665.2656,-110.5 568.1084,-110.5"/>
<text text-anchor="middle" x="616.687" y="-116.5" font-family="Helvetica,sans-Serif" font-size="10.00" fill="#000000">sigc++/trackable.h</text>
</g>
    <!-- Node5&#45;&gt;Node6 -->
<g id="edge6" class="edge">
<title>Node5&#45;&gt;Node6</title>
<path fill="none" stroke="#191970" d="M458.0616,-165.4179C490.1987,-156.115 540.3138,-141.608 575.5978,-131.3943"/>
<polygon fill="#191970" stroke="#191970" points="576.9491,-134.6468 585.5816,-128.5042 575.0027,-127.9229 576.9491,-134.6468"/>
</g>
    <!-- Node7 -->
<g id="node8" class="node">
<title>Node7</title>
<g id="a_node8"><a xlink:href="../../d1/d25/_i_subject_8hpp.html" target="_top" xlink:title="../interfaces/ISubject.hpp">
<polygon fill="none" stroke="#000000" points="423.6553,-110.5 423.6553,-128.5 549.7188,-128.5 549.7188,-110.5 423.6553,-110.5"/>
<text text-anchor="middle" x="486.687" y="-116.5" font-family="Helvetica,sans-Serif" font-size="10.00" fill="#000000">../interfaces/ISubject.hpp</text>
</a>
</g>
</g>
    <!-- Node5&#45;&gt;Node7 -->
<g id="edge7" class="edge">
<title>Node5&#45;&gt;Node7</title>
<path fill="none" stroke="#191970" d="M436.5948,-165.4179C445.4006,-157.3458 458.4809,-145.3556 469.067,-135.6517"/>
<polygon fill="#191970" stroke="#191970" points="471.5574,-138.1168 476.564,-128.7795 466.8274,-132.9567 471.5574,-138.1168"/>
</g>
    <!-- Node8 -->
<g id="node9" class="node">
<title>Node8</title>
<polygon fill="none" stroke="#bfbfbf" points="508.0171,-55.5 508.0171,-73.5 537.3569,-73.5 537.3569,-55.5 508.0171,-55.5"/>
<text text-anchor="middle" x="522.687" y="-61.5" font-family="Helvetica,sans-Serif" font-size="10.00" fill="#000000">set</text>
</g>
    <!-- Node7&#45;&gt;Node8 -->
<g id="edge8" class="edge">
<title>Node7&#45;&gt;Node8</title>
<path fill="none" stroke="#191970" d="M492.6317,-110.4179C497.6044,-102.8207 504.8489,-91.7527 510.9794,-82.3866"/>
<polygon fill="#191970" stroke="#191970" points="514.065,-84.0633 516.6132,-73.7795 508.2081,-80.2297 514.065,-84.0633"/>
</g>
    <!-- Node9 -->
<g id="node10" class="node">
<title>Node9</title>
<g id="a_node10"><a xlink:href="../../d5/d40/_i_observer_8hpp.html" target="_top" xlink:title="IObserver.hpp">
<polygon fill="none" stroke="#000000" points="411.2783,-55.5 411.2783,-73.5 490.0957,-73.5 490.0957,-55.5 411.2783,-55.5"/>
<text text-anchor="middle" x="450.687" y="-61.5" font-family="Helvetica,sans-Serif" font-size="10.00" fill="#000000">IObserver.hpp</text>
</a>
</g>
</g>
    <!-- Node7&#45;&gt;Node9 -->
<g id="edge9" class="edge">
<title>Node7&#45;&gt;Node9</title>
<path fill="none" stroke="#191970" d="M480.7423,-110.4179C475.7696,-102.8207 468.5251,-91.7527 462.3946,-82.3866"/>
<polygon fill="#191970" stroke="#191970" points="465.1659,-80.2297 456.7608,-73.7795 459.309,-84.0633 465.1659,-80.2297"/>
</g>
    <!-- Node10 -->
<g id="node11" class="node">
<title>Node10</title>
<polygon fill="none" stroke="#bfbfbf" points="398.0713,-.5 398.0713,-18.5 441.3027,-18.5 441.3027,-.5 398.0713,-.5"/>
<text text-anchor="middle" x="419.687" y="-6.5" font-family="Helvetica,sans-Serif" font-size="10.00" fill="#000000">mutex</text>
</g>
    <!-- Node9&#45;&gt;Node10 -->
<g id="edge10" class="edge">
<title>Node9&#45;&gt;Node10</title>
<path fill="none" stroke="#191970" d="M445.568,-55.4179C441.3305,-47.8998 435.1774,-36.9829 429.9338,-27.6799"/>
<polygon fill="#191970" stroke="#191970" points="432.8765,-25.7724 424.9173,-18.7795 426.7784,-29.2096 432.8765,-25.7724"/>
</g>
    <!-- Node11 -->
<g id="node12" class="node">
<title>Node11</title>
<polygon fill="none" stroke="#bfbfbf" points="459.5098,-.5 459.5098,-18.5 503.8643,-18.5 503.8643,-.5 459.5098,-.5"/>
<text text-anchor="middle" x="481.687" y="-6.5" font-family="Helvetica,sans-Serif" font-size="10.00" fill="#000000">thread</text>
</g>
    <!-- Node9&#45;&gt;Node11 -->
<g id="edge11" class="edge">
<title>Node9&#45;&gt;Node11</title>
<path fill="none" stroke="#191970" d="M455.806,-55.4179C460.0435,-47.8998 466.1967,-36.9829 471.4402,-27.6799"/>
<polygon fill="#191970" stroke="#191970" points="474.5956,-29.2096 476.4568,-18.7795 468.4976,-25.7724 474.5956,-29.2096"/>
</g>
    <!-- Node12&#45;&gt;Node3 -->
<g id="edge13" class="edge">
<title>Node12&#45;&gt;Node3</title>
<path fill="none" stroke="#191970" d="M289.8789,-165.4179C304.2616,-156.8195 326.0809,-143.7754 342.7931,-133.7844"/>
<polygon fill="#191970" stroke="#191970" points="344.6853,-136.731 351.4725,-128.5956 341.0934,-130.7228 344.6853,-136.731"/>
</g>
    <!-- Node12&#45;&gt;Node4 -->
<g id="edge14" class="edge">
<title>Node12&#45;&gt;Node4</title>
<path fill="none" stroke="#191970" d="M239.1841,-165.4179C202.3503,-155.9953 144.6456,-141.2336 104.6489,-131.0019"/>
<polygon fill="#191970" stroke="#191970" points="105.4408,-127.5918 94.8853,-128.5042 103.7059,-134.3734 105.4408,-127.5918"/>
</g>
    <!-- Node13 -->
<g id="node14" class="node">
<title>Node13</title>
<polygon fill="none" stroke="#bfbfbf" points="240.0146,-110.5 240.0146,-128.5 309.3594,-128.5 309.3594,-110.5 240.0146,-110.5"/>
<text text-anchor="middle" x="274.687" y="-116.5" font-family="Helvetica,sans-Serif" font-size="10.00" fill="#000000">fmt/format.h</text>
</g>
    <!-- Node12&#45;&gt;Node13 -->
<g id="edge15" class="edge">
<title>Node12&#45;&gt;Node13</title>
<path fill="none" stroke="#191970" d="M274.687,-165.4179C274.687,-158.2164 274.687,-147.8962 274.687,-138.8632"/>
<polygon fill="#191970" stroke="#191970" points="278.1871,-138.7794 274.687,-128.7795 271.1871,-138.7795 278.1871,-138.7794"/>
</g>
    <!-- Node14 -->
<g id="node15" class="node">
<title>Node14</title>
<g id="a_node15"><a xlink:href="../../d8/d63/_date_8hpp.html" target="_top" xlink:title="../utils/Date.hpp">
<polygon fill="none" stroke="#000000" points="136.9458,-110.5 136.9458,-128.5 222.4282,-128.5 222.4282,-110.5 136.9458,-110.5"/>
<text text-anchor="middle" x="179.687" y="-116.5" font-family="Helvetica,sans-Serif" font-size="10.00" fill="#000000">../utils/Date.hpp</text>
</a>
</g>
</g>
    <!-- Node12&#45;&gt;Node14 -->
<g id="edge16" class="edge">
<title>Node12&#45;&gt;Node14</title>
<path fill="none" stroke="#191970" d="M258.9997,-165.4179C244.148,-156.8195 221.6172,-143.7754 204.3601,-133.7844"/>
<polygon fill="#191970" stroke="#191970" points="205.8056,-130.577 195.3976,-128.5956 202.2983,-136.635 205.8056,-130.577"/>
</g>
    <!-- Node15 -->
<g id="node16" class="node">
<title>Node15</title>
<polygon fill="none" stroke="#bfbfbf" points="152.5146,-55.5 152.5146,-73.5 206.8594,-73.5 206.8594,-55.5 152.5146,-55.5"/>
<text text-anchor="middle" x="179.687" y="-61.5" font-family="Helvetica,sans-Serif" font-size="10.00" fill="#000000">iostream</text>
</g>
    <!-- Node14&#45;&gt;Node15 -->
<g id="edge17" class="edge">
<title>Node14&#45;&gt;Node15</title>
<path fill="none" stroke="#191970" d="M179.687,-110.4179C179.687,-103.2164 179.687,-92.8962 179.687,-83.8632"/>
<polygon fill="#191970" stroke="#191970" points="183.1871,-83.7794 179.687,-73.7795 176.1871,-83.7795 183.1871,-83.7794"/>
</g>
    <!-- Node17 -->
<g id="node18" class="node">
<title>Node17</title>
<polygon fill="none" stroke="#bfbfbf" points="476.5122,-165.5 476.5122,-183.5 580.8618,-183.5 580.8618,-165.5 476.5122,-165.5"/>
<text text-anchor="middle" x="528.687" y="-171.5" font-family="Helvetica,sans-Serif" font-size="10.00" fill="#000000">gtkmm&#45;3.0/gtkmm.h</text>
</g>
    <!-- Node16&#45;&gt;Node17 -->
<g id="edge19" class="edge">
<title>Node16&#45;&gt;Node17</title>
<path fill="none" stroke="#191970" d="M528.687,-220.4179C528.687,-213.2164 528.687,-202.8962 528.687,-193.8632"/>
<polygon fill="#191970" stroke="#191970" points="532.1871,-193.7794 528.687,-183.7795 525.1871,-193.7795 532.1871,-193.7794"/>
</g>
    <!-- Node19 -->
<g id="node20" class="node">
<title>Node19</title>
<polygon fill="none" stroke="#bfbfbf" points="676.064,-165.5 676.064,-183.5 729.3101,-183.5 729.3101,-165.5 676.064,-165.5"/>
<text text-anchor="middle" x="702.687" y="-171.5" font-family="Helvetica,sans-Serif" font-size="10.00" fill="#000000">sqlite3.h</text>
</g>
    <!-- Node18&#45;&gt;Node19 -->
<g id="edge21" class="edge">
<title>Node18&#45;&gt;Node19</title>
<path fill="none" stroke="#191970" d="M725.2285,-220.4179C721.5767,-212.9789 716.2912,-202.2123 711.7561,-192.9742"/>
<polygon fill="#191970" stroke="#191970" points="714.791,-191.2138 707.2424,-183.7795 708.5073,-194.2985 714.791,-191.2138"/>
</g>
    <!-- Node20 -->
<g id="node21" class="node">
<title>Node20</title>
<polygon fill="none" stroke="#bfbfbf" points="833.4604,-110.5 833.4604,-128.5 873.9136,-128.5 873.9136,-110.5 833.4604,-110.5"/>
<text text-anchor="middle" x="853.687" y="-116.5" font-family="Helvetica,sans-Serif" font-size="10.00" fill="#000000">string</text>
</g>
    <!-- Node18&#45;&gt;Node20 -->
<g id="edge22" class="edge">
<title>Node18&#45;&gt;Node20</title>
<path fill="none" stroke="#191970" d="M734.7733,-220.2549C742.4897,-206.8442 758.2259,-181.7686 776.687,-165 790.8693,-152.1179 809.2686,-141.0835 824.5249,-133.1084"/>
<polygon fill="#191970" stroke="#191970" points="826.204,-136.1815 833.5521,-128.5489 823.0481,-129.9332 826.204,-136.1815"/>
</g>
    <!-- Node21 -->
<g id="node22" class="node">
<title>Node21</title>
<polygon fill="none" stroke="#bfbfbf" points="599.2856,-165.5 599.2856,-183.5 658.0884,-183.5 658.0884,-165.5 599.2856,-165.5"/>
<text text-anchor="middle" x="628.687" y="-171.5" font-family="Helvetica,sans-Serif" font-size="10.00" fill="#000000">stdexcept</text>
</g>
    <!-- Node18&#45;&gt;Node21 -->
<g id="edge23" class="edge">
<title>Node18&#45;&gt;Node21</title>
<path fill="none" stroke="#191970" d="M713.0089,-220.4179C697.0731,-211.7399 672.8211,-198.5334 654.4102,-188.5077"/>
<polygon fill="#191970" stroke="#191970" points="655.846,-185.3043 645.3899,-183.5956 652.4983,-191.4519 655.846,-185.3043"/>
</g>
    <!-- Node22 -->
<g id="node23" class="node">
<title>Node22</title>
<polygon fill="none" stroke="#bfbfbf" points="940.0713,-165.5 940.0713,-183.5 983.3027,-183.5 983.3027,-165.5 940.0713,-165.5"/>
<text text-anchor="middle" x="961.687" y="-171.5" font-family="Helvetica,sans-Serif" font-size="10.00" fill="#000000">vector</text>
</g>
    <!-- Node18&#45;&gt;Node22 -->
<g id="edge24" class="edge">
<title>Node18&#45;&gt;Node22</title>
<path fill="none" stroke="#191970" d="M773.8336,-220.4987C812.5577,-212.3811 870.5744,-199.6843 930.1117,-183.9985"/>
<polygon fill="#191970" stroke="#191970" points="931.3016,-187.3038 940.0662,-181.3513 929.5025,-180.5389 931.3016,-187.3038"/>
</g>
    <!-- Node23 -->
<g id="node24" class="node">
<title>Node23</title>
<g id="a_node24"><a xlink:href="../../d3/d1b/_i_serializable_8hpp.html" target="_top" xlink:title="interfaces/ISerializable.hpp">
<polygon fill="none" stroke="#000000" points="785.6528,-165.5 785.6528,-183.5 921.7212,-183.5 921.7212,-165.5 785.6528,-165.5"/>
<text text-anchor="middle" x="853.687" y="-171.5" font-family="Helvetica,sans-Serif" font-size="10.00" fill="#000000">interfaces/ISerializable.hpp</text>
</a>
</g>
</g>
    <!-- Node18&#45;&gt;Node23 -->
<g id="edge25" class="edge">
<title>Node18&#45;&gt;Node23</title>
<path fill="none" stroke="#191970" d="M750.1631,-220.4179C770.2664,-211.5011 801.1492,-197.803 823.9557,-187.6873"/>
<polygon fill="#191970" stroke="#191970" points="825.4585,-190.8496 833.1805,-183.5956 822.6202,-184.4508 825.4585,-190.8496"/>
</g>
    <!-- Node23&#45;&gt;Node20 -->
<g id="edge26" class="edge">
<title>Node23&#45;&gt;Node20</title>
<path fill="none" stroke="#191970" d="M853.687,-165.4179C853.687,-158.2164 853.687,-147.8962 853.687,-138.8632"/>
<polygon fill="#191970" stroke="#191970" points="857.1871,-138.7794 853.687,-128.7795 850.1871,-138.7795 857.1871,-138.7794"/>
</g>
    <!-- Node24 -->
<g id="node25" class="node">
<title>Node24</title>
<polygon fill="none" stroke="#bfbfbf" points="1037.9604,-110.5 1037.9604,-128.5 1073.4136,-128.5 1073.4136,-110.5 1037.9604,-110.5"/>
<text text-anchor="middle" x="1055.687" y="-116.5" font-family="Helvetica,sans-Serif" font-size="10.00" fill="#000000">map</text>
</g>
    <!-- Node23&#45;&gt;Node24 -->
<g id="edge27" class="edge">
<title>Node23&#45;&gt;Node24</title>
<path fill="none" stroke="#191970" d="M887.0432,-165.4179C926.4114,-154.6988 991.1559,-137.0704 1027.9158,-127.0615"/>
<polygon fill="#191970" stroke="#191970" points="1029.2032,-130.3384 1037.9324,-124.3342 1027.3641,-123.5843 1029.2032,-130.3384"/>
</g>
    <!-- Node25&#45;&gt;Node20 -->
<g id="edge29" class="edge">
<title>Node25&#45;&gt;Node20</title>
<path fill="none" stroke="#191970" d="M991.1008,-220.1548C996.7749,-206.6195 1004.5678,-181.3901 992.687,-165 979.8355,-147.2706 921.2073,-132.7779 884.318,-125.2081"/>
<polygon fill="#191970" stroke="#191970" points="884.5851,-121.6927 874.0941,-123.1724 883.218,-128.5579 884.5851,-121.6927"/>
</g>
    <!-- Node25&#45;&gt;Node22 -->
<g id="edge30" class="edge">
<title>Node25&#45;&gt;Node22</title>
<path fill="none" stroke="#191970" d="M982.5588,-220.4179C979.1774,-212.9789 974.2835,-202.2123 970.0844,-192.9742"/>
<polygon fill="#191970" stroke="#191970" points="973.2293,-191.4348 965.9049,-183.7795 966.8567,-194.3315 973.2293,-191.4348"/>
</g>
    <!-- Node25&#45;&gt;Node23 -->
<g id="edge33" class="edge">
<title>Node25&#45;&gt;Node23</title>
<path fill="none" stroke="#191970" d="M964.7248,-220.4179C942.9698,-211.4215 909.4456,-197.5581 884.9231,-187.4172"/>
<polygon fill="#191970" stroke="#191970" points="886.2604,-184.1828 875.6819,-183.5956 883.5854,-190.6515 886.2604,-184.1828"/>
</g>
    <!-- Node25&#45;&gt;Node24 -->
<g id="edge31" class="edge">
<title>Node25&#45;&gt;Node24</title>
<path fill="none" stroke="#191970" d="M1034.705,-225.1069C1086.6629,-219.2427 1164.5429,-206.8387 1182.687,-184 1211.6673,-147.5215 1129.2119,-129.8017 1083.6419,-122.9867"/>
<polygon fill="#191970" stroke="#191970" points="1083.8601,-119.483 1073.4696,-121.5539 1082.8837,-126.4146 1083.8601,-119.483"/>
</g>
    <!-- Node26 -->
<g id="node27" class="node">
<title>Node26</title>
<polygon fill="none" stroke="#bfbfbf" points="1039.7759,-165.5 1039.7759,-183.5 1173.5981,-183.5 1173.5981,-165.5 1039.7759,-165.5"/>
<text text-anchor="middle" x="1106.687" y="-171.5" font-family="Helvetica,sans-Serif" font-size="10.00" fill="#000000">gtkmm/treemodelcolumn.h</text>
</g>
    <!-- Node25&#45;&gt;Node26 -->
<g id="edge32" class="edge">
<title>Node25&#45;&gt;Node26</title>
<path fill="none" stroke="#191970" d="M1006.5026,-220.4179C1025.8705,-211.5409 1055.5774,-197.9253 1077.6188,-187.823"/>
<polygon fill="#191970" stroke="#191970" points="1079.2097,-190.944 1086.842,-183.5956 1076.293,-184.5805 1079.2097,-190.944"/>
</g>
</g>
</svg>
        <g id="navigator" transform="translate(0 0)" fill="#404254">
                <rect fill="#f2f5e9" fill-opacity="0.5" stroke="#606060" stroke-width=".5" x="0" y="0" width="60" height="60"/>
                <use id="zoomplus" xlink:href="#zoomPlus" x="17" y="9" onmousedown="handleZoom(evt,'in')"/>
                <use id="zoomminus" xlink:href="#zoomMin" x="42" y="9" onmousedown="handleZoom(evt,'out')"/>
                <use id="reset" xlink:href="#resetDef" x="30" y="36" onmousedown="handleReset()"/>
                <g id="arrowUp" xlink:href="#dirArrow" transform="translate(30 24)" onmousedown="handlePan(0,-1)">
                  <use xlink:href="#rim" fill="#404040">
                        <set attributeName="fill" to="#808080" begin="arrowUp.mouseover" end="arrowUp.mouseout"/>
                  </use>
                  <path fill="none" stroke="white" stroke-width="1.5" d="M0,-3.0v7 M-2.5,-0.5L0,-3.0L2.5,-0.5"/>
                </g>
                <g id="arrowRight" xlink:href="#dirArrow" transform="rotate(90) translate(36 -43)" onmousedown="handlePan(1,0)">
                  <use xlink:href="#rim" fill="#404040">
                        <set attributeName="fill" to="#808080" begin="arrowRight.mouseover" end="arrowRight.mouseout"/>
                  </use>
                  <path fill="none" stroke="white" stroke-width="1.5" d="M0,-3.0v7 M-2.5,-0.5L0,-3.0L2.5,-0.5"/>
                </g>
                <g id="arrowDown" xlink:href="#dirArrow" transform="rotate(180) translate(-30 -48)" onmousedown="handlePan(0,1)">
                  <use xlink:href="#rim" fill="#404040">
                        <set attributeName="fill" to="#808080" begin="arrowDown.mouseover" end="arrowDown.mouseout"/>
                  </use>
                  <path fill="none" stroke="white" stroke-width="1.5" d="M0,-3.0v7 M-2.5,-0.5L0,-3.0L2.5,-0.5"/>
                </g>
                <g id="arrowLeft" xlink:href="#dirArrow" transform="rotate(270) translate(-36 17)" onmousedown="handlePan(-1,0)">
                  <use xlink:href="#rim" fill="#404040">
                        <set attributeName="fill" to="#808080" begin="arrowLeft.mouseover" end="arrowLeft.mouseout"/>
                  </use>
                  <path fill="none" stroke="white" stroke-width="1.5" d="M0,-3.0v7 M-2.5,-0.5L0,-3.0L2.5,-0.5"/>
                </g>
        </g>
        <svg viewBox="0 0 15 15" width="100%" height="30px" preserveAspectRatio="xMaxYMin meet">
         <g id="arrow_out" transform="scale(0.3 0.3)">
          <a xlink:href="_add_prescription_dialog_8cpp__incl_org.svg" target="_base">
           <rect id="button" ry="5" rx="5" y="6" x="6" height="38" width="38"
                fill="#f2f5e9" fill-opacity="0.5" stroke="#606060" stroke-width="1.0"/>
           <path id="arrow"
             d="M 11.500037,31.436501 C 11.940474,20.09759 22.043105,11.32322 32.158766,21.979434 L 37.068811,17.246167 C 37.068811,17.246167 37.088388,32 37.088388,32 L 22.160133,31.978069 C 22.160133,31.978069 26.997745,27.140456 26.997745,27.140456 C 18.528582,18.264221 13.291696,25.230495 11.500037,31.436501 z"
             style="fill:#404040;"/>
          </a>
         </g>
        </svg>
</svg>
