<?xml version="1.0" encoding="UTF-8" standalone="no"?>
<!DOCTYPE svg PUBLIC "-//W3C//DTD SVG 1.1//EN"
        "http://www.w3.org/Graphics/SVG/1.1/DTD/svg11.dtd">
<!-- Generated by graphviz version 2.40.1 (20161225.0304)
 -->
<!-- Title: code/gui/Window.hpp Pages: 1 -->
<svg width="160pt" height="192pt"
     viewBox="0.00 0.00 160.21 192.00" xmlns="http://www.w3.org/2000/svg" xmlns:xlink="http://www.w3.org/1999/xlink">
    <g id="graph0" class="graph" transform="scale(1 1) rotate(0) translate(4 188)">
        <title>code/gui/Window.hpp</title>
        <!-- Node0 -->
        <g id="node1" class="node">
            <title>Node0</title>
            <polygon fill="#bfbfbf" stroke="#000000"
                     points="7.4976,-165.5 7.4976,-183.5 118.5659,-183.5 118.5659,-165.5 7.4976,-165.5"/>
            <text text-anchor="middle" x="63.0317" y="-171.5" font-family="Helvetica,sans-Serif" font-size="10.00"
                  fill="#000000">code/gui/Window.hpp
            </text>
        </g>
        <!-- Node1 -->
        <g id="node2" class="node">
            <title>Node1</title>
            <g id="a_node2">
                <a xlink:href="../../d1/d25/_i_subject_8hpp.html" target="_top"
                   xlink:title="../interfaces/ISubject.hpp">
                    <polygon fill="none" stroke="#000000"
                             points="0,-110.5 0,-128.5 126.0635,-128.5 126.0635,-110.5 0,-110.5"/>
                    <text text-anchor="middle" x="63.0317" y="-116.5" font-family="Helvetica,sans-Serif"
                          font-size="10.00" fill="#000000">../interfaces/ISubject.hpp
                    </text>
                </a>
            </g>
        </g>
        <!-- Node0&#45;&gt;Node1 -->
        <g id="edge1" class="edge">
            <title>Node0&#45;&gt;Node1</title>
            <path fill="none" stroke="#191970"
                  d="M63.0317,-165.4179C63.0317,-158.2164 63.0317,-147.8962 63.0317,-138.8632"/>
            <polygon fill="#191970" stroke="#191970"
                     points="66.5318,-138.7794 63.0317,-128.7795 59.5318,-138.7795 66.5318,-138.7794"/>
        </g>
        <!-- Node2 -->
        <g id="node3" class="node">
            <title>Node2</title>
            <polygon fill="none" stroke="#bfbfbf"
                     points="12.3618,-55.5 12.3618,-73.5 41.7017,-73.5 41.7017,-55.5 12.3618,-55.5"/>
            <text text-anchor="middle" x="27.0317" y="-61.5" font-family="Helvetica,sans-Serif" font-size="10.00"
                  fill="#000000">set
            </text>
        </g>
        <!-- Node1&#45;&gt;Node2 -->
        <g id="edge2" class="edge">
            <title>Node1&#45;&gt;Node2</title>
            <path fill="none" stroke="#191970"
                  d="M57.0871,-110.4179C52.1144,-102.8207 44.8698,-91.7527 38.7393,-82.3866"/>
            <polygon fill="#191970" stroke="#191970"
                     points="41.5107,-80.2297 33.1056,-73.7795 35.6537,-84.0633 41.5107,-80.2297"/>
        </g>
        <!-- Node3 -->
        <g id="node4" class="node">
            <title>Node3</title>
            <g id="a_node4">
                <a xlink:href="../../d5/d40/_i_observer_8hpp.html" target="_top" xlink:title="IObserver.hpp">
                    <polygon fill="none" stroke="#000000"
                             points="59.623,-55.5 59.623,-73.5 138.4404,-73.5 138.4404,-55.5 59.623,-55.5"/>
                    <text text-anchor="middle" x="99.0317" y="-61.5" font-family="Helvetica,sans-Serif"
                          font-size="10.00" fill="#000000">IObserver.hpp
                    </text>
                </a>
            </g>
        </g>
        <!-- Node1&#45;&gt;Node3 -->
        <g id="edge3" class="edge">
            <title>Node1&#45;&gt;Node3</title>
            <path fill="none" stroke="#191970"
                  d="M68.9764,-110.4179C73.9491,-102.8207 81.1936,-91.7527 87.3241,-82.3866"/>
            <polygon fill="#191970" stroke="#191970"
                     points="90.4097,-84.0633 92.9579,-73.7795 84.5528,-80.2297 90.4097,-84.0633"/>
        </g>
        <!-- Node4 -->
        <g id="node5" class="node">
            <title>Node4</title>
            <polygon fill="none" stroke="#bfbfbf"
                     points="46.416,-.5 46.416,-18.5 89.6475,-18.5 89.6475,-.5 46.416,-.5"/>
            <text text-anchor="middle" x="68.0317" y="-6.5" font-family="Helvetica,sans-Serif" font-size="10.00"
                  fill="#000000">mutex
            </text>
        </g>
        <!-- Node3&#45;&gt;Node4 -->
        <g id="edge4" class="edge">
            <title>Node3&#45;&gt;Node4</title>
            <path fill="none" stroke="#191970"
                  d="M93.9127,-55.4179C89.6753,-47.8998 83.5221,-36.9829 78.2786,-27.6799"/>
            <polygon fill="#191970" stroke="#191970"
                     points="81.2212,-25.7724 73.262,-18.7795 75.1231,-29.2096 81.2212,-25.7724"/>
        </g>
        <!-- Node5 -->
        <g id="node6" class="node">
            <title>Node5</title>
            <polygon fill="none" stroke="#bfbfbf"
                     points="107.8545,-.5 107.8545,-18.5 152.209,-18.5 152.209,-.5 107.8545,-.5"/>
            <text text-anchor="middle" x="130.0317" y="-6.5" font-family="Helvetica,sans-Serif" font-size="10.00"
                  fill="#000000">thread
            </text>
        </g>
        <!-- Node3&#45;&gt;Node5 -->
        <g id="edge5" class="edge">
            <title>Node3&#45;&gt;Node5</title>
            <path fill="none" stroke="#191970"
                  d="M104.1508,-55.4179C108.3882,-47.8998 114.5414,-36.9829 119.7849,-27.6799"/>
            <polygon fill="#191970" stroke="#191970"
                     points="122.9404,-29.2096 124.8015,-18.7795 116.8423,-25.7724 122.9404,-29.2096"/>
        </g>
    </g>
</svg>
