<?xml version="1.0" encoding="UTF-8" standalone="no"?>
<!DOCTYPE svg PUBLIC "-//W3C//DTD SVG 1.1//EN"
        "http://www.w3.org/Graphics/SVG/1.1/DTD/svg11.dtd">
<!-- Generated by graphviz version 2.40.1 (20161225.0304)
 -->
<!-- Title: code/interfaces/ISubject.hpp Pages: 1 -->
<!--zoomable 212 -->
<svg id="main" version="1.1" xmlns="http://www.w3.org/2000/svg" xmlns:xlink="http://www.w3.org/1999/xlink" xml:space="preserve" onload="init(evt)">
<style type="text/css"><![CDATA[
.edge:hover path { stroke: red; }
.edge:hover polygon { stroke: red; fill: red; }
]]></style>
<script type="text/javascript"><![CDATA[
var edges = document.getElementsByTagName('g');
if (edges && edges.length) {
  for (var i=0;i<edges.length;i++) {
    if (edges[i].id.substr(0,4)=='edge') {
      edges[i].setAttribute('class','edge');
    }
  }
}
]]></script>
        <defs>
                <circle id="rim" cx="0" cy="0" r="7"/>
                <circle id="rim2" cx="0" cy="0" r="3.5"/>
                <g id="zoomPlus">
                        <use xlink:href="#rim" fill="#404040">
                                <set attributeName="fill" to="#808080" begin="zoomplus.mouseover" end="zoomplus.mouseout"/>
                        </use>
                        <path d="M-4,0h8M0,-4v8" fill="none" stroke="white" stroke-width="1.5" pointer-events="none"/>
                </g>
                <g id="zoomMin">
                        <use xlink:href="#rim" fill="#404040">
                                <set attributeName="fill" to="#808080" begin="zoomminus.mouseover" end="zoomminus.mouseout"/>
                        </use>
                        <path d="M-4,0h8" fill="none" stroke="white" stroke-width="1.5" pointer-events="none"/>
                </g>
                <g id="dirArrow">
                        <path fill="none" stroke="white" stroke-width="1.5" d="M0,-3.0v7 M-2.5,-0.5L0,-3.0L2.5,-0.5"/>
                </g>
               <g id="resetDef">
                       <use xlink:href="#rim2" fill="#404040">
                               <set attributeName="fill" to="#808080" begin="reset.mouseover" end="reset.mouseout"/>
                       </use>
               </g>
        </defs>

<script type="text/javascript">
var viewWidth = 1626;
var viewHeight = 212;
var sectionId = 'dynsection-1';
</script>
<script xlink:href="../../svgpan.js"/>
<svg id="graph" class="graph">
<g id="viewport">
<title>code/interfaces/ISubject.hpp</title>
    <!-- Node5 -->
<g id="node1" class="node">
<title>Node5</title>
<polygon fill="#bfbfbf" stroke="#000000" points="911.4927,-185.5 911.4927,-203.5 1053.6841,-203.5 1053.6841,-185.5 911.4927,-185.5"/>
<text text-anchor="middle" x="982.5884" y="-191.5" font-family="Helvetica,sans-Serif" font-size="10.00" fill="#000000">code/interfaces/ISubject.hpp</text>
</g>
    <!-- Node6 -->
<g id="node2" class="node">
<title>Node6</title>
<g id="a_node2"><a xlink:href="../../dc/de6/_dialog_8hpp.html" target="_top" xlink:title="code/gui/Dialog.hpp">
<polygon fill="none" stroke="#000000" points="401.3892,-130.5 401.3892,-148.5 505.7876,-148.5 505.7876,-130.5 401.3892,-130.5"/>
<text text-anchor="middle" x="453.5884" y="-136.5" font-family="Helvetica,sans-Serif" font-size="10.00" fill="#000000">code/gui/Dialog.hpp</text>
</a>
</g>
</g>
    <!-- Node5&#45;&gt;Node6 -->
<g id="edge1" class="edge">
<title>Node5&#45;&gt;Node6</title>
<path fill="none" stroke="#191970" d="M901.1945,-186.0375C791.2324,-174.6048 598.3656,-154.5525 505.9085,-144.9397"/>
<polygon fill="#191970" stroke="#191970" points="900.9367,-189.5295 911.2451,-187.0825 901.6607,-182.567 900.9367,-189.5295"/>
</g>
    <!-- Node18 -->
<g id="node14" class="node">
<title>Node18</title>
<g id="a_node14"><a xlink:href="../../dc/d00/_authentication_8hpp.html" target="_top" xlink:title="code/model/Authentication.hpp">
<polygon fill="none" stroke="#000000" points="1107.9287,-70.5 1107.9287,-88.5 1261.248,-88.5 1261.248,-70.5 1107.9287,-70.5"/>
<text text-anchor="middle" x="1184.5884" y="-76.5" font-family="Helvetica,sans-Serif" font-size="10.00" fill="#000000">code/model/Authentication.hpp</text>
</a>
</g>
</g>
    <!-- Node5&#45;&gt;Node18 -->
<g id="edge18" class="edge">
<title>Node5&#45;&gt;Node18</title>
<path fill="none" stroke="#191970" d="M995.1855,-177.1914C1006.4479,-162.8055 1024.1399,-142.7032 1043.5884,-130 1074.6099,-109.7377 1114.7844,-96.3856 1144.3101,-88.5291"/>
<polygon fill="#191970" stroke="#191970" points="992.2964,-175.2089 989.0456,-185.2927 997.8752,-179.437 992.2964,-175.2089"/>
</g>
    <!-- Node23 -->
<g id="node19" class="node">
<title>Node23</title>
<g id="a_node19"><a xlink:href="../../de/d0b/_window_8hpp.html" target="_top" xlink:title="code/gui/Window.hpp">
<polygon fill="none" stroke="#000000" points="885.0542,-130.5 885.0542,-148.5 996.1226,-148.5 996.1226,-130.5 885.0542,-130.5"/>
<text text-anchor="middle" x="940.5884" y="-136.5" font-family="Helvetica,sans-Serif" font-size="10.00" fill="#000000">code/gui/Window.hpp</text>
</a>
</g>
</g>
    <!-- Node5&#45;&gt;Node23 -->
<g id="edge26" class="edge">
<title>Node5&#45;&gt;Node23</title>
<path fill="none" stroke="#191970" d="M969.5581,-177.4365C962.3385,-167.9823 953.6432,-156.5956 947.6745,-148.7795"/>
<polygon fill="#191970" stroke="#191970" points="966.8021,-179.5944 975.6529,-185.4179 972.3655,-175.346 966.8021,-179.5944"/>
</g>
    <!-- Node29 -->
<g id="node25" class="node">
<title>Node29</title>
<g id="a_node25"><a xlink:href="../../de/dd9/_i_subject_8cpp.html" target="_top" xlink:title="code/interfaces/ISubject.cpp">
<polygon fill="none" stroke="#000000" points="1052.7734,-130.5 1052.7734,-148.5 1194.4033,-148.5 1194.4033,-130.5 1052.7734,-130.5"/>
<text text-anchor="middle" x="1123.5884" y="-136.5" font-family="Helvetica,sans-Serif" font-size="10.00" fill="#000000">code/interfaces/ISubject.cpp</text>
</a>
</g>
</g>
    <!-- Node5&#45;&gt;Node29 -->
<g id="edge41" class="edge">
<title>Node5&#45;&gt;Node29</title>
<path fill="none" stroke="#191970" d="M1015.3199,-181.7324C1041.3376,-171.5837 1077.0924,-157.6367 1100.2705,-148.5956"/>
<polygon fill="#191970" stroke="#191970" points="1013.9161,-178.5231 1005.8717,-185.4179 1016.4599,-185.0445 1013.9161,-178.5231"/>
</g>
    <!-- Node7 -->
<g id="node3" class="node">
<title>Node7</title>
<g id="a_node3"><a xlink:href="../../d7/ded/_about_dialog_8hpp.html" target="_top" xlink:title="code/gui/AboutDialog.hpp">
<polygon fill="none" stroke="#000000" points="145.3228,-70.5 145.3228,-88.5 275.854,-88.5 275.854,-70.5 145.3228,-70.5"/>
<text text-anchor="middle" x="210.5884" y="-76.5" font-family="Helvetica,sans-Serif" font-size="10.00" fill="#000000">code/gui/AboutDialog.hpp</text>
</a>
</g>
</g>
    <!-- Node6&#45;&gt;Node7 -->
<g id="edge2" class="edge">
<title>Node6&#45;&gt;Node7</title>
<path fill="none" stroke="#191970" d="M407.1065,-128.023C360.5424,-116.5257 289.8266,-99.065 247.1313,-88.5229"/>
<polygon fill="#191970" stroke="#191970" points="406.3983,-131.4532 416.9457,-130.4524 408.0763,-124.6573 406.3983,-131.4532"/>
</g>
    <!-- Node11 -->
<g id="node7" class="node">
<title>Node11</title>
<g id="a_node7"><a xlink:href="../../d2/dac/_add_patient_dialog_8hpp.html" target="_top" xlink:title="code/gui/AddPatientDialog.hpp">
<polygon fill="none" stroke="#000000" points="293.9263,-70.5 293.9263,-88.5 447.2505,-88.5 447.2505,-70.5 293.9263,-70.5"/>
<text text-anchor="middle" x="370.5884" y="-76.5" font-family="Helvetica,sans-Serif" font-size="10.00" fill="#000000">code/gui/AddPatientDialog.hpp</text>
</a>
</g>
</g>
    <!-- Node6&#45;&gt;Node11 -->
<g id="edge6" class="edge">
<title>Node6&#45;&gt;Node11</title>
<path fill="none" stroke="#191970" d="M432.4731,-124.2359C416.8495,-112.9418 396.0977,-97.9405 383.041,-88.5019"/>
<polygon fill="#191970" stroke="#191970" points="430.8278,-127.3653 440.9825,-130.3873 434.9287,-121.6923 430.8278,-127.3653"/>
</g>
    <!-- Node13 -->
<g id="node9" class="node">
<title>Node13</title>
<g id="a_node9"><a xlink:href="../../d0/d1e/_add_prescription_dialog_8hpp.html" target="_top" xlink:title="code/gui/AddPrescription\lDialog.hpp">
<polygon fill="none" stroke="#000000" points="0,-65.5 0,-93.5 127.1768,-93.5 127.1768,-65.5 0,-65.5"/>
<text text-anchor="start" x="8" y="-81.5" font-family="Helvetica,sans-Serif" font-size="10.00" fill="#000000">code/gui/AddPrescription</text>
<text text-anchor="middle" x="63.5884" y="-71.5" font-family="Helvetica,sans-Serif" font-size="10.00" fill="#000000">Dialog.hpp</text>
</a>
</g>
</g>
    <!-- Node6&#45;&gt;Node13 -->
<g id="edge9" class="edge">
<title>Node6&#45;&gt;Node13</title>
<path fill="none" stroke="#191970" d="M391.3493,-131.5678C327.3183,-123.1727 224.7634,-109.074 136.5884,-94 133.5316,-93.4774 130.4064,-92.9254 127.2525,-92.354"/>
<polygon fill="#191970" stroke="#191970" points="390.918,-135.0411 401.287,-132.8655 391.8244,-128.1001 390.918,-135.0411"/>
</g>
    <!-- Node15 -->
<g id="node11" class="node">
<title>Node15</title>
<g id="a_node11"><a xlink:href="../../db/d41/_main_window_8hpp.html" target="_top" xlink:title="code/gui/MainWindow.hpp">
<polygon fill="none" stroke="#000000" points="957.2168,-70.5 957.2168,-88.5 1089.96,-88.5 1089.96,-70.5 957.2168,-70.5"/>
<text text-anchor="middle" x="1023.5884" y="-76.5" font-family="Helvetica,sans-Serif" font-size="10.00" fill="#000000">code/gui/MainWindow.hpp</text>
</a>
</g>
</g>
    <!-- Node6&#45;&gt;Node15 -->
<g id="edge12" class="edge">
<title>Node6&#45;&gt;Node15</title>
<path fill="none" stroke="#191970" d="M516.0098,-135.7584C610.1091,-129.6676 793.7661,-116.0262 948.5884,-94 959.0922,-92.5056 970.3553,-90.5293 980.8774,-88.518"/>
<polygon fill="#191970" stroke="#191970" points="515.5669,-132.2795 505.8111,-136.4116 516.0144,-139.2652 515.5669,-132.2795"/>
</g>
    <!-- Node17 -->
<g id="node13" class="node">
<title>Node17</title>
<g id="a_node13"><a xlink:href="../../dd/de0/_patient_window_8hpp.html" target="_top" xlink:title="code/gui/PatientWindow.hpp">
<polygon fill="none" stroke="#000000" points="465.4878,-70.5 465.4878,-88.5 607.689,-88.5 607.689,-70.5 465.4878,-70.5"/>
<text text-anchor="middle" x="536.5884" y="-76.5" font-family="Helvetica,sans-Serif" font-size="10.00" fill="#000000">code/gui/PatientWindow.hpp</text>
</a>
</g>
</g>
    <!-- Node6&#45;&gt;Node17 -->
<g id="edge15" class="edge">
<title>Node6&#45;&gt;Node17</title>
<path fill="none" stroke="#191970" d="M474.7037,-124.2359C490.3272,-112.9418 511.079,-97.9405 524.1358,-88.5019"/>
<polygon fill="#191970" stroke="#191970" points="472.248,-121.6923 466.1943,-130.3873 476.349,-127.3653 472.248,-121.6923"/>
</g>
    <!-- Node8 -->
<g id="node4" class="node">
<title>Node8</title>
<g id="a_node4"><a xlink:href="../../d1/d21/_about_dialog_8cpp.html" target="_top" xlink:title="code/gui/AboutDialog.cpp">
<polygon fill="none" stroke="#000000" points="145.6035,-5.5 145.6035,-23.5 275.5732,-23.5 275.5732,-5.5 145.6035,-5.5"/>
<text text-anchor="middle" x="210.5884" y="-11.5" font-family="Helvetica,sans-Serif" font-size="10.00" fill="#000000">code/gui/AboutDialog.cpp</text>
</a>
</g>
</g>
    <!-- Node7&#45;&gt;Node8 -->
<g id="edge3" class="edge">
<title>Node7&#45;&gt;Node8</title>
<path fill="none" stroke="#191970" d="M210.5884,-60.1265C210.5884,-48.1522 210.5884,-33.3205 210.5884,-23.8821"/>
<polygon fill="#191970" stroke="#191970" points="207.0885,-60.462 210.5884,-70.462 214.0885,-60.4621 207.0885,-60.462"/>
</g>
    <!-- Node9 -->
<g id="node5" class="node">
<title>Node9</title>
<g id="a_node5"><a xlink:href="../../d5/da5/_main_window_8cpp.html" target="_top" xlink:title="code/gui/MainWindow.cpp">
<polygon fill="none" stroke="#000000" points="457.4976,-5.5 457.4976,-23.5 589.6792,-23.5 589.6792,-5.5 457.4976,-5.5"/>
<text text-anchor="middle" x="523.5884" y="-11.5" font-family="Helvetica,sans-Serif" font-size="10.00" fill="#000000">code/gui/MainWindow.cpp</text>
</a>
</g>
</g>
    <!-- Node7&#45;&gt;Node9 -->
<g id="edge4" class="edge">
<title>Node7&#45;&gt;Node9</title>
<path fill="none" stroke="#191970" d="M263.9351,-68.4216C324.9486,-55.7511 423.6776,-35.2482 480.1853,-23.5134"/>
<polygon fill="#191970" stroke="#191970" points="263.1891,-65.0018 254.1097,-70.462 264.6125,-71.8555 263.1891,-65.0018"/>
</g>
    <!-- Node10 -->
<g id="node6" class="node">
<title>Node10</title>
<g id="a_node6"><a xlink:href="../../d8/d35/_patient_window_8cpp.html" target="_top" xlink:title="code/gui/PatientWindow.cpp">
<polygon fill="none" stroke="#000000" points="297.7686,-5.5 297.7686,-23.5 439.4082,-23.5 439.4082,-5.5 297.7686,-5.5"/>
<text text-anchor="middle" x="368.5884" y="-11.5" font-family="Helvetica,sans-Serif" font-size="10.00" fill="#000000">code/gui/PatientWindow.cpp</text>
</a>
</g>
</g>
    <!-- Node7&#45;&gt;Node10 -->
<g id="edge5" class="edge">
<title>Node7&#45;&gt;Node10</title>
<path fill="none" stroke="#191970" d="M242.0091,-66.5737C272.9331,-53.8519 319.3578,-34.7531 346.5516,-23.5658"/>
<polygon fill="#191970" stroke="#191970" points="240.474,-63.4206 232.5576,-70.462 243.1372,-69.8942 240.474,-63.4206"/>
</g>
    <!-- Node11&#45;&gt;Node10 -->
<g id="edge8" class="edge">
<title>Node11&#45;&gt;Node10</title>
<path fill="none" stroke="#191970" d="M369.9923,-60.1265C369.6238,-48.1522 369.1675,-33.3205 368.8771,-23.8821"/>
<polygon fill="#191970" stroke="#191970" points="366.5043,-60.5744 370.3103,-70.462 373.501,-60.3591 366.5043,-60.5744"/>
</g>
    <!-- Node12 -->
<g id="node8" class="node">
<title>Node12</title>
<g id="a_node8"><a xlink:href="../../db/db5/_add_patient_dialog_8cpp.html" target="_top" xlink:title="code/gui/AddPatientDialog.cpp">
<polygon fill="none" stroke="#000000" points="607.207,-5.5 607.207,-23.5 759.9697,-23.5 759.9697,-5.5 607.207,-5.5"/>
<text text-anchor="middle" x="683.5884" y="-11.5" font-family="Helvetica,sans-Serif" font-size="10.00" fill="#000000">code/gui/AddPatientDialog.cpp</text>
</a>
</g>
</g>
    <!-- Node11&#45;&gt;Node12 -->
<g id="edge7" class="edge">
<title>Node11&#45;&gt;Node12</title>
<path fill="none" stroke="#191970" d="M423.9351,-68.4216C484.9486,-55.7511 583.6776,-35.2482 640.1853,-23.5134"/>
<polygon fill="#191970" stroke="#191970" points="423.1891,-65.0018 414.1097,-70.462 424.6125,-71.8555 423.1891,-65.0018"/>
</g>
    <!-- Node13&#45;&gt;Node10 -->
<g id="edge11" class="edge">
<title>Node13&#45;&gt;Node10</title>
<path fill="none" stroke="#191970" d="M137.5661,-63.7343C196.7281,-51.126 277.5723,-33.8969 326.2671,-23.5193"/>
<polygon fill="#191970" stroke="#191970" points="136.5772,-60.3663 127.5264,-65.8739 138.0363,-67.2126 136.5772,-60.3663"/>
</g>
    <!-- Node14 -->
<g id="node10" class="node">
<title>Node14</title>
<g id="a_node10"><a xlink:href="../../df/de8/_add_prescription_dialog_8cpp.html" target="_top" xlink:title="code/gui/AddPrescription\lDialog.cpp">
<polygon fill="none" stroke="#000000" points="0,-.5 0,-28.5 127.1768,-28.5 127.1768,-.5 0,-.5"/>
<text text-anchor="start" x="8" y="-16.5" font-family="Helvetica,sans-Serif" font-size="10.00" fill="#000000">code/gui/AddPrescription</text>
<text text-anchor="middle" x="63.5884" y="-6.5" font-family="Helvetica,sans-Serif" font-size="10.00" fill="#000000">Dialog.cpp</text>
</a>
</g>
</g>
    <!-- Node13&#45;&gt;Node14 -->
<g id="edge10" class="edge">
<title>Node13&#45;&gt;Node14</title>
<path fill="none" stroke="#191970" d="M63.5884,-55.1081C63.5884,-46.1539 63.5884,-36.3227 63.5884,-28.5765"/>
<polygon fill="#191970" stroke="#191970" points="60.0885,-55.3959 63.5884,-65.396 67.0885,-55.396 60.0885,-55.3959"/>
</g>
    <!-- Node15&#45;&gt;Node9 -->
<g id="edge13" class="edge">
<title>Node15&#45;&gt;Node9</title>
<path fill="none" stroke="#191970" d="M970.5517,-68.6421C963.1917,-67.3121 955.7139,-66.0531 948.5884,-65 793.8926,-42.1361 753.2841,-51.8639 598.5884,-29 588.224,-27.4682 577.1142,-25.5009 566.7059,-23.5129"/>
<polygon fill="#191970" stroke="#191970" points="969.9994,-72.0993 980.4708,-70.4871 971.2795,-65.2174 969.9994,-72.0993"/>
</g>
    <!-- Node16 -->
<g id="node12" class="node">
<title>Node16</title>
<g id="a_node12"><a xlink:href="../../d7/daf/_med_h_8cpp.html" target="_top" xlink:title="code/MedH.cpp">
<polygon fill="none" stroke="#000000" points="1279.5688,-5.5 1279.5688,-23.5 1365.6079,-23.5 1365.6079,-5.5 1279.5688,-5.5"/>
<text text-anchor="middle" x="1322.5884" y="-11.5" font-family="Helvetica,sans-Serif" font-size="10.00" fill="#000000">code/MedH.cpp</text>
</a>
</g>
</g>
    <!-- Node15&#45;&gt;Node16 -->
<g id="edge14" class="edge">
<title>Node15&#45;&gt;Node16</title>
<path fill="none" stroke="#191970" d="M1079.5586,-68.5321C1140.8246,-56.4419 1235.0706,-37.5716 1270.5884,-29 1277.4214,-27.351 1284.7138,-25.4236 1291.6101,-23.5226"/>
<polygon fill="#191970" stroke="#191970" points="1078.7834,-65.1175 1069.649,-70.4854 1080.1371,-71.9854 1078.7834,-65.1175"/>
</g>
    <!-- Node17&#45;&gt;Node9 -->
<g id="edge16" class="edge">
<title>Node17&#45;&gt;Node9</title>
<path fill="none" stroke="#191970" d="M532.7876,-60.4959C530.3801,-48.4586 527.3719,-33.4178 525.4648,-23.8821"/>
<polygon fill="#191970" stroke="#191970" points="529.3875,-61.3427 534.7808,-70.462 536.2516,-59.9698 529.3875,-61.3427"/>
</g>
    <!-- Node17&#45;&gt;Node10 -->
<g id="edge17" class="edge">
<title>Node17&#45;&gt;Node10</title>
<path fill="none" stroke="#191970" d="M503.6051,-66.7386C470.7256,-54.0174 421.06,-34.8015 392.0199,-23.5658"/>
<polygon fill="#191970" stroke="#191970" points="502.6395,-70.1178 513.2287,-70.462 505.1654,-63.5894 502.6395,-70.1178"/>
</g>
    <!-- Node18&#45;&gt;Node10 -->
<g id="edge22" class="edge">
<title>Node18&#45;&gt;Node10</title>
<path fill="none" stroke="#191970" d="M1126.866,-68.8579C1117.4403,-67.3824 1107.7605,-66.024 1098.5884,-65 811.0432,-32.8981 735.9313,-62.8654 448.5884,-29 436.9533,-27.6287 424.4534,-25.6224 412.8726,-23.537"/>
<polygon fill="#191970" stroke="#191970" points="1126.5268,-72.3485 1136.9582,-70.4946 1127.6475,-65.4388 1126.5268,-72.3485"/>
</g>
    <!-- Node18&#45;&gt;Node12 -->
<g id="edge19" class="edge">
<title>Node18&#45;&gt;Node12</title>
<path fill="none" stroke="#191970" d="M1124.2067,-68.8623C1115.6194,-67.4828 1106.8886,-66.1515 1098.5884,-65 952.4511,-44.7268 914.7061,-49.4141 768.5884,-29 757.1723,-27.4051 744.9338,-25.4578 733.4004,-23.5144"/>
<polygon fill="#191970" stroke="#191970" points="1123.753,-72.3345 1134.1871,-70.496 1124.8839,-65.4265 1123.753,-72.3345"/>
</g>
    <!-- Node18&#45;&gt;Node16 -->
<g id="edge24" class="edge">
<title>Node18&#45;&gt;Node16</title>
<path fill="none" stroke="#191970" d="M1213.0629,-66.0881C1239.9788,-53.4103 1279.6382,-34.7302 1303.1182,-23.6708"/>
<polygon fill="#191970" stroke="#191970" points="1211.332,-63.0345 1203.7767,-70.462 1214.3148,-69.3672 1211.332,-63.0345"/>
</g>
    <!-- Node19 -->
<g id="node15" class="node">
<title>Node19</title>
<g id="a_node15"><a xlink:href="../../d6/d9e/_drug_window_8cpp.html" target="_top" xlink:title="code/gui/DrugWindow.cpp">
<polygon fill="none" stroke="#000000" points="777.4976,-5.5 777.4976,-23.5 909.6792,-23.5 909.6792,-5.5 777.4976,-5.5"/>
<text text-anchor="middle" x="843.5884" y="-11.5" font-family="Helvetica,sans-Serif" font-size="10.00" fill="#000000">code/gui/DrugWindow.cpp</text>
</a>
</g>
</g>
    <!-- Node18&#45;&gt;Node19 -->
<g id="edge20" class="edge">
<title>Node18&#45;&gt;Node19</title>
<path fill="none" stroke="#191970" d="M1126.471,-68.5246C1072.5752,-58.3327 990.1498,-42.7105 918.5884,-29 909.4708,-27.2532 899.7319,-25.3775 890.393,-23.574"/>
<polygon fill="#191970" stroke="#191970" points="1126.0494,-72.0068 1136.5256,-70.4256 1127.3499,-65.1287 1126.0494,-72.0068"/>
</g>
    <!-- Node20 -->
<g id="node16" class="node">
<title>Node20</title>
<g id="a_node16"><a xlink:href="../../d9/d07/_login_window_8cpp.html" target="_top" xlink:title="code/gui/LoginWindow.cpp">
<polygon fill="none" stroke="#000000" points="1384.1011,-5.5 1384.1011,-23.5 1519.0757,-23.5 1519.0757,-5.5 1384.1011,-5.5"/>
<text text-anchor="middle" x="1451.5884" y="-11.5" font-family="Helvetica,sans-Serif" font-size="10.00" fill="#000000">code/gui/LoginWindow.cpp</text>
</a>
</g>
</g>
    <!-- Node18&#45;&gt;Node20 -->
<g id="edge21" class="edge">
<title>Node18&#45;&gt;Node20</title>
<path fill="none" stroke="#191970" d="M1231.7002,-68.0308C1283.7805,-55.3521 1366.6045,-35.189 1414.3491,-23.5658"/>
<polygon fill="#191970" stroke="#191970" points="1230.6019,-64.6959 1221.7136,-70.462 1232.2577,-71.4973 1230.6019,-64.6959"/>
</g>
    <!-- Node21 -->
<g id="node17" class="node">
<title>Node21</title>
<g id="a_node17"><a xlink:href="../../d1/d16/_prescription_window_8cpp.html" target="_top" xlink:title="code/gui/PrescriptionWindow.cpp">
<polygon fill="none" stroke="#000000" points="927.936,-5.5 927.936,-23.5 1091.2407,-23.5 1091.2407,-5.5 927.936,-5.5"/>
<text text-anchor="middle" x="1009.5884" y="-11.5" font-family="Helvetica,sans-Serif" font-size="10.00" fill="#000000">code/gui/PrescriptionWindow.cpp</text>
</a>
</g>
</g>
    <!-- Node18&#45;&gt;Node21 -->
<g id="edge23" class="edge">
<title>Node18&#45;&gt;Node21</title>
<path fill="none" stroke="#191970" d="M1150.6727,-66.9027C1116.4277,-54.1832 1064.3767,-34.8499 1033.9962,-23.5658"/>
<polygon fill="#191970" stroke="#191970" points="1149.6624,-70.2611 1160.2554,-70.462 1152.0998,-63.6991 1149.6624,-70.2611"/>
</g>
    <!-- Node22 -->
<g id="node18" class="node">
<title>Node22</title>
<g id="a_node18"><a xlink:href="../../d6/d6e/_authentication_8cpp.html" target="_top" xlink:title="code/model/Authentication.cpp">
<polygon fill="none" stroke="#000000" points="1109.2095,-5.5 1109.2095,-23.5 1261.9673,-23.5 1261.9673,-5.5 1109.2095,-5.5"/>
<text text-anchor="middle" x="1185.5884" y="-11.5" font-family="Helvetica,sans-Serif" font-size="10.00" fill="#000000">code/model/Authentication.cpp</text>
</a>
</g>
</g>
    <!-- Node18&#45;&gt;Node22 -->
<g id="edge25" class="edge">
<title>Node18&#45;&gt;Node22</title>
<path fill="none" stroke="#191970" d="M1184.8864,-60.1265C1185.0707,-48.1522 1185.2988,-33.3205 1185.444,-23.8821"/>
<polygon fill="#191970" stroke="#191970" points="1181.3818,-60.4093 1184.7274,-70.462 1188.3809,-60.5171 1181.3818,-60.4093"/>
</g>
    <!-- Node23&#45;&gt;Node15 -->
<g id="edge33" class="edge">
<title>Node23&#45;&gt;Node15</title>
<path fill="none" stroke="#191970" d="M961.7037,-124.2359C977.3272,-112.9418 998.079,-97.9405 1011.1358,-88.5019"/>
<polygon fill="#191970" stroke="#191970" points="959.248,-121.6923 953.1943,-130.3873 963.349,-127.3653 959.248,-121.6923"/>
</g>
    <!-- Node23&#45;&gt;Node17 -->
<g id="edge37" class="edge">
<title>Node23&#45;&gt;Node17</title>
<path fill="none" stroke="#191970" d="M874.6884,-131.0269C809.1403,-122.4152 705.7551,-108.3358 616.5884,-94 606.2756,-92.342 595.2403,-90.4309 584.7619,-88.5516"/>
<polygon fill="#191970" stroke="#191970" points="874.5058,-134.5328 884.8757,-132.3613 875.415,-127.5921 874.5058,-134.5328"/>
</g>
    <!-- Node24 -->
<g id="node20" class="node">
<title>Node24</title>
<g id="a_node20"><a xlink:href="../../dd/d02/_drug_window_8hpp.html" target="_top" xlink:title="code/gui/DrugWindow.hpp">
<polygon fill="none" stroke="#000000" points="625.2168,-70.5 625.2168,-88.5 757.96,-88.5 757.96,-70.5 625.2168,-70.5"/>
<text text-anchor="middle" x="691.5884" y="-76.5" font-family="Helvetica,sans-Serif" font-size="10.00" fill="#000000">code/gui/DrugWindow.hpp</text>
</a>
</g>
</g>
    <!-- Node23&#45;&gt;Node24 -->
<g id="edge27" class="edge">
<title>Node23&#45;&gt;Node24</title>
<path fill="none" stroke="#191970" d="M893.2585,-128.0952C845.5489,-116.5989 772.8748,-99.0871 729.0336,-88.5229"/>
<polygon fill="#191970" stroke="#191970" points="892.4993,-131.5124 903.041,-130.4524 894.1392,-124.7072 892.4993,-131.5124"/>
</g>
    <!-- Node25 -->
<g id="node21" class="node">
<title>Node25</title>
<g id="a_node21"><a xlink:href="../../db/d18/_login_window_8hpp.html" target="_top" xlink:title="code/gui/LoginWindow.hpp">
<polygon fill="none" stroke="#000000" points="1278.8203,-70.5 1278.8203,-88.5 1414.3564,-88.5 1414.3564,-70.5 1278.8203,-70.5"/>
<text text-anchor="middle" x="1346.5884" y="-76.5" font-family="Helvetica,sans-Serif" font-size="10.00" fill="#000000">code/gui/LoginWindow.hpp</text>
</a>
</g>
</g>
    <!-- Node23&#45;&gt;Node25 -->
<g id="edge30" class="edge">
<title>Node23&#45;&gt;Node25</title>
<path fill="none" stroke="#191970" d="M1006.1402,-131.4726C1072.8377,-123.0676 1179.1221,-109.0208 1270.5884,-94 1280.5296,-92.3674 1291.1689,-90.4469 1301.2442,-88.5473"/>
<polygon fill="#191970" stroke="#191970" points="1005.675,-128.0034 996.1888,-132.7217 1006.5469,-134.9489 1005.675,-128.0034"/>
</g>
    <!-- Node26 -->
<g id="node22" class="node">
<title>Node26</title>
<g id="a_node22"><a xlink:href="../../d5/db1/_prescription_window_8hpp.html" target="_top" xlink:title="code/gui/PrescriptionWindow.hpp">
<polygon fill="none" stroke="#000000" points="775.6553,-70.5 775.6553,-88.5 939.5215,-88.5 939.5215,-70.5 775.6553,-70.5"/>
<text text-anchor="middle" x="857.5884" y="-76.5" font-family="Helvetica,sans-Serif" font-size="10.00" fill="#000000">code/gui/PrescriptionWindow.hpp</text>
</a>
</g>
</g>
    <!-- Node23&#45;&gt;Node26 -->
<g id="edge34" class="edge">
<title>Node23&#45;&gt;Node26</title>
<path fill="none" stroke="#191970" d="M919.4731,-124.2359C903.8495,-112.9418 883.0977,-97.9405 870.041,-88.5019"/>
<polygon fill="#191970" stroke="#191970" points="917.8278,-127.3653 927.9825,-130.3873 921.9287,-121.6923 917.8278,-127.3653"/>
</g>
    <!-- Node27 -->
<g id="node23" class="node">
<title>Node27</title>
<g id="a_node23"><a xlink:href="../../db/d45/_med_h_8hpp.html" target="_top" xlink:title="code/MedH.hpp">
<polygon fill="none" stroke="#000000" points="1432.2881,-70.5 1432.2881,-88.5 1518.8887,-88.5 1518.8887,-70.5 1432.2881,-70.5"/>
<text text-anchor="middle" x="1475.5884" y="-76.5" font-family="Helvetica,sans-Serif" font-size="10.00" fill="#000000">code/MedH.hpp</text>
</a>
</g>
</g>
    <!-- Node23&#45;&gt;Node27 -->
<g id="edge38" class="edge">
<title>Node23&#45;&gt;Node27</title>
<path fill="none" stroke="#191970" d="M1006.5364,-133.363C1137.5494,-121.1611 1418.5108,-94.9394 1423.5884,-94 1431.1453,-92.602 1439.1963,-90.6118 1446.6495,-88.5524"/>
<polygon fill="#191970" stroke="#191970" points="1005.8632,-129.9105 996.2308,-134.3227 1006.5123,-136.8803 1005.8632,-129.9105"/>
</g>
    <!-- Node24&#45;&gt;Node9 -->
<g id="edge29" class="edge">
<title>Node24&#45;&gt;Node9</title>
<path fill="none" stroke="#191970" d="M658.6051,-66.7386C625.7256,-54.0174 576.06,-34.8015 547.0199,-23.5658"/>
<polygon fill="#191970" stroke="#191970" points="657.6395,-70.1178 668.2287,-70.462 660.1654,-63.5894 657.6395,-70.1178"/>
</g>
    <!-- Node24&#45;&gt;Node19 -->
<g id="edge28" class="edge">
<title>Node24&#45;&gt;Node19</title>
<path fill="none" stroke="#191970" d="M722.1747,-66.4203C751.8304,-53.7386 796.054,-34.8272 822.1429,-23.6708"/>
<polygon fill="#191970" stroke="#191970" points="720.5417,-63.312 712.7233,-70.462 723.2941,-69.7482 720.5417,-63.312"/>
</g>
    <!-- Node25&#45;&gt;Node16 -->
<g id="edge32" class="edge">
<title>Node25&#45;&gt;Node16</title>
<path fill="none" stroke="#191970" d="M1339.7072,-60.8634C1335.2405,-48.7661 1329.6093,-33.5151 1326.0526,-23.8821"/>
<polygon fill="#191970" stroke="#191970" points="1336.5041,-62.2934 1343.2513,-70.462 1343.0708,-59.8687 1336.5041,-62.2934"/>
</g>
    <!-- Node25&#45;&gt;Node20 -->
<g id="edge31" class="edge">
<title>Node25&#45;&gt;Node20</title>
<path fill="none" stroke="#191970" d="M1369.8903,-65.075C1390.3129,-52.4324 1419.379,-34.4391 1436.7741,-23.6708"/>
<polygon fill="#191970" stroke="#191970" points="1367.8486,-62.2225 1361.1882,-70.462 1371.5331,-68.1744 1367.8486,-62.2225"/>
</g>
    <!-- Node26&#45;&gt;Node9 -->
<g id="edge35" class="edge">
<title>Node26&#45;&gt;Node9</title>
<path fill="none" stroke="#191970" d="M801.0647,-68.4999C735.9901,-55.8357 630.3268,-35.2724 569.9035,-23.5134"/>
<polygon fill="#191970" stroke="#191970" points="800.6626,-71.9872 811.1471,-70.462 801.9999,-65.1161 800.6626,-71.9872"/>
</g>
    <!-- Node26&#45;&gt;Node21 -->
<g id="edge36" class="edge">
<title>Node26&#45;&gt;Node21</title>
<path fill="none" stroke="#191970" d="M888.1747,-66.4203C917.8304,-53.7386 962.054,-34.8272 988.1429,-23.6708"/>
<polygon fill="#191970" stroke="#191970" points="886.5417,-63.312 878.7233,-70.462 889.2941,-69.7482 886.5417,-63.312"/>
</g>
    <!-- Node27&#45;&gt;Node16 -->
<g id="edge40" class="edge">
<title>Node27&#45;&gt;Node16</title>
<path fill="none" stroke="#191970" d="M1444.8008,-66.4203C1414.9501,-53.7386 1370.4355,-34.8272 1344.1749,-23.6708"/>
<polygon fill="#191970" stroke="#191970" points="1443.742,-69.7732 1454.3144,-70.462 1446.4791,-63.3305 1443.742,-69.7732"/>
</g>
    <!-- Node28 -->
<g id="node24" class="node">
<title>Node28</title>
<g id="a_node24"><a xlink:href="../../df/d0a/main_8cpp.html" target="_top" xlink:title="code/main.cpp">
<polygon fill="none" stroke="#000000" points="1537.0688,-5.5 1537.0688,-23.5 1618.1079,-23.5 1618.1079,-5.5 1537.0688,-5.5"/>
<text text-anchor="middle" x="1577.5884" y="-11.5" font-family="Helvetica,sans-Serif" font-size="10.00" fill="#000000">code/main.cpp</text>
</a>
</g>
</g>
    <!-- Node27&#45;&gt;Node28 -->
<g id="edge39" class="edge">
<title>Node27&#45;&gt;Node28</title>
<path fill="none" stroke="#191970" d="M1498.2246,-65.075C1518.0636,-52.4324 1546.2993,-34.4391 1563.1973,-23.6708"/>
<polygon fill="#191970" stroke="#191970" points="1496.3233,-62.1363 1489.771,-70.462 1500.0852,-68.0395 1496.3233,-62.1363"/>
</g>
</g>
</svg>
        <g id="navigator" transform="translate(0 0)" fill="#404254">
                <rect fill="#f2f5e9" fill-opacity="0.5" stroke="#606060" stroke-width=".5" x="0" y="0" width="60" height="60"/>
                <use id="zoomplus" xlink:href="#zoomPlus" x="17" y="9" onmousedown="handleZoom(evt,'in')"/>
                <use id="zoomminus" xlink:href="#zoomMin" x="42" y="9" onmousedown="handleZoom(evt,'out')"/>
                <use id="reset" xlink:href="#resetDef" x="30" y="36" onmousedown="handleReset()"/>
                <g id="arrowUp" xlink:href="#dirArrow" transform="translate(30 24)" onmousedown="handlePan(0,-1)">
                  <use xlink:href="#rim" fill="#404040">
                        <set attributeName="fill" to="#808080" begin="arrowUp.mouseover" end="arrowUp.mouseout"/>
                  </use>
                  <path fill="none" stroke="white" stroke-width="1.5" d="M0,-3.0v7 M-2.5,-0.5L0,-3.0L2.5,-0.5"/>
                </g>
                <g id="arrowRight" xlink:href="#dirArrow" transform="rotate(90) translate(36 -43)" onmousedown="handlePan(1,0)">
                  <use xlink:href="#rim" fill="#404040">
                        <set attributeName="fill" to="#808080" begin="arrowRight.mouseover" end="arrowRight.mouseout"/>
                  </use>
                  <path fill="none" stroke="white" stroke-width="1.5" d="M0,-3.0v7 M-2.5,-0.5L0,-3.0L2.5,-0.5"/>
                </g>
                <g id="arrowDown" xlink:href="#dirArrow" transform="rotate(180) translate(-30 -48)" onmousedown="handlePan(0,1)">
                  <use xlink:href="#rim" fill="#404040">
                        <set attributeName="fill" to="#808080" begin="arrowDown.mouseover" end="arrowDown.mouseout"/>
                  </use>
                  <path fill="none" stroke="white" stroke-width="1.5" d="M0,-3.0v7 M-2.5,-0.5L0,-3.0L2.5,-0.5"/>
                </g>
                <g id="arrowLeft" xlink:href="#dirArrow" transform="rotate(270) translate(-36 17)" onmousedown="handlePan(-1,0)">
                  <use xlink:href="#rim" fill="#404040">
                        <set attributeName="fill" to="#808080" begin="arrowLeft.mouseover" end="arrowLeft.mouseout"/>
                  </use>
                  <path fill="none" stroke="white" stroke-width="1.5" d="M0,-3.0v7 M-2.5,-0.5L0,-3.0L2.5,-0.5"/>
                </g>
        </g>
        <svg viewBox="0 0 15 15" width="100%" height="30px" preserveAspectRatio="xMaxYMin meet">
         <g id="arrow_out" transform="scale(0.3 0.3)">
          <a xlink:href="_i_subject_8hpp__dep__incl_org.svg" target="_base">
           <rect id="button" ry="5" rx="5" y="6" x="6" height="38" width="38"
                fill="#f2f5e9" fill-opacity="0.5" stroke="#606060" stroke-width="1.0"/>
           <path id="arrow"
             d="M 11.500037,31.436501 C 11.940474,20.09759 22.043105,11.32322 32.158766,21.979434 L 37.068811,17.246167 C 37.068811,17.246167 37.088388,32 37.088388,32 L 22.160133,31.978069 C 22.160133,31.978069 26.997745,27.140456 26.997745,27.140456 C 18.528582,18.264221 13.291696,25.230495 11.500037,31.436501 z"
             style="fill:#404040;"/>
          </a>
         </g>
        </svg>
</svg>
