<?xml version="1.0" encoding="UTF-8" standalone="no"?>
<!DOCTYPE svg PUBLIC "-//W3C//DTD SVG 1.1//EN"
        "http://www.w3.org/Graphics/SVG/1.1/DTD/svg11.dtd">
<!-- Generated by graphviz version 2.40.1 (20161225.0304)
 -->
<!-- Title: code/interfaces/ISubject.hpp Pages: 1 -->
<!--zoomable 212 -->
<svg id="main" version="1.1" xmlns="http://www.w3.org/2000/svg" xmlns:xlink="http://www.w3.org/1999/xlink" xml:space="preserve" onload="initDrugComboBox(evt)">
<style type="text/css"><![CDATA[
.edge:hover path { stroke: red; }
.edge:hover polygon { stroke: red; fill: red; }
]]></style>
<script type="text/javascript"><![CDATA[
var edges = document.getElementsByTagName('g');
if (edges && edges.length) {
  for (var i=0;i<edges.length;i++) {
    if (edges[i].id.substr(0,4)=='edge') {
      edges[i].setAttribute('class','edge');
    }
  }
}
]]></script>
        <defs>
                <circle id="rim" cx="0" cy="0" r="7"/>
                <circle id="rim2" cx="0" cy="0" r="3.5"/>
                <g id="zoomPlus">
                        <use xlink:href="#rim" fill="#404040">
                                <set attributeName="fill" to="#808080" begin="zoomplus.mouseover" end="zoomplus.mouseout"/>
                        </use>
                        <path d="M-4,0h8M0,-4v8" fill="none" stroke="white" stroke-width="1.5" pointer-events="none"/>
                </g>
                <g id="zoomMin">
                        <use xlink:href="#rim" fill="#404040">
                                <set attributeName="fill" to="#808080" begin="zoomminus.mouseover" end="zoomminus.mouseout"/>
                        </use>
                        <path d="M-4,0h8" fill="none" stroke="white" stroke-width="1.5" pointer-events="none"/>
                </g>
                <g id="dirArrow">
                        <path fill="none" stroke="white" stroke-width="1.5" d="M0,-3.0v7 M-2.5,-0.5L0,-3.0L2.5,-0.5"/>
                </g>
               <g id="resetDef">
                       <use xlink:href="#rim2" fill="#404040">
                               <set attributeName="fill" to="#808080" begin="reset.mouseover" end="reset.mouseout"/>
                       </use>
               </g>
        </defs>

<script type="text/javascript">
var viewWidth = 1292;
var viewHeight = 212;
var sectionId = 'dynsection-1';
</script>
<script xlink:href="../../svgpan.js"/>
<svg id="graph" class="graph">
<g id="viewport">
<title>code/interfaces/ISubject.hpp</title>
    <!-- Node5 -->
<g id="node1" class="node">
<title>Node5</title>
<polygon fill="#bfbfbf" stroke="#000000" points="741.4927,-185.5 741.4927,-203.5 883.6841,-203.5 883.6841,-185.5 741.4927,-185.5"/>
<text text-anchor="middle" x="812.5884" y="-191.5" font-family="Helvetica,sans-Serif" font-size="10.00" fill="#000000">code/interfaces/ISubject.hpp</text>
</g>
    <!-- Node6 -->
<g id="node2" class="node">
<title>Node6</title>
<g id="a_node2"><a xlink:href="../../dc/de6/_dialog_8hpp.html" target="_top" xlink:title="code/gui/Dialog.hpp">
<polygon fill="none" stroke="#000000" points="450.3892,-130.5 450.3892,-148.5 554.7876,-148.5 554.7876,-130.5 450.3892,-130.5"/>
<text text-anchor="middle" x="502.5884" y="-136.5" font-family="Helvetica,sans-Serif" font-size="10.00" fill="#000000">code/gui/Dialog.hpp</text>
</a>
</g>
</g>
    <!-- Node5&#45;&gt;Node6 -->
<g id="edge1" class="edge">
<title>Node5&#45;&gt;Node6</title>
<path fill="none" stroke="#191970" d="M751.6374,-183.6861C693.7602,-173.4176 607.7537,-158.1584 553.4592,-148.5255"/>
<polygon fill="#191970" stroke="#191970" points="751.2876,-187.1786 761.7453,-185.4795 752.5105,-180.2863 751.2876,-187.1786"/>
</g>
    <!-- Node18 -->
<g id="node14" class="node">
<title>Node18</title>
<g id="a_node14"><a xlink:href="../../dc/d00/_authentication_8hpp.html" target="_top" xlink:title="code/model/Authentication.hpp">
<polygon fill="none" stroke="#000000" points="674.9287,-70.5 674.9287,-88.5 828.248,-88.5 828.248,-70.5 674.9287,-70.5"/>
<text text-anchor="middle" x="751.5884" y="-76.5" font-family="Helvetica,sans-Serif" font-size="10.00" fill="#000000">code/model/Authentication.hpp</text>
</a>
</g>
</g>
    <!-- Node5&#45;&gt;Node18 -->
<g id="edge18" class="edge">
<title>Node5&#45;&gt;Node18</title>
<path fill="none" stroke="#191970" d="M802.9882,-176.4013C789.8157,-151.5679 766.6235,-107.8449 756.5222,-88.8014"/>
<polygon fill="#191970" stroke="#191970" points="800.0239,-178.2821 807.8018,-185.4761 806.2078,-175.0019 800.0239,-178.2821"/>
</g>
    <!-- Node21 -->
<g id="node17" class="node">
<title>Node21</title>
<g id="a_node17"><a xlink:href="../../de/d0b/_window_8hpp.html" target="_top" xlink:title="code/gui/Window.hpp">
<polygon fill="none" stroke="#000000" points="837.0542,-130.5 837.0542,-148.5 948.1226,-148.5 948.1226,-130.5 837.0542,-130.5"/>
<text text-anchor="middle" x="892.5884" y="-136.5" font-family="Helvetica,sans-Serif" font-size="10.00" fill="#000000">code/gui/Window.hpp</text>
</a>
</g>
</g>
    <!-- Node5&#45;&gt;Node21 -->
<g id="edge24" class="edge">
<title>Node5&#45;&gt;Node21</title>
<path fill="none" stroke="#191970" d="M834.1545,-179.6733C848.5711,-169.7619 867.0767,-157.0393 879.3584,-148.5956"/>
<polygon fill="#191970" stroke="#191970" points="832.0563,-176.8684 825.7988,-185.4179 836.0221,-182.6367 832.0563,-176.8684"/>
</g>
    <!-- Node25 -->
<g id="node21" class="node">
<title>Node25</title>
<g id="a_node21"><a xlink:href="../../de/dd9/_i_subject_8cpp.html" target="_top" xlink:title="code/interfaces/ISubject.cpp">
<polygon fill="none" stroke="#000000" points="965.7734,-130.5 965.7734,-148.5 1107.4033,-148.5 1107.4033,-130.5 965.7734,-130.5"/>
<text text-anchor="middle" x="1036.5884" y="-136.5" font-family="Helvetica,sans-Serif" font-size="10.00" fill="#000000">code/interfaces/ISubject.cpp</text>
</a>
</g>
</g>
    <!-- Node5&#45;&gt;Node25 -->
<g id="edge33" class="edge">
<title>Node5&#45;&gt;Node25</title>
<path fill="none" stroke="#191970" d="M859.5127,-182.9784C901.2957,-172.7192 961.5803,-157.9172 999.9167,-148.5042"/>
<polygon fill="#191970" stroke="#191970" points="858.4544,-179.6342 849.5774,-185.4179 860.1236,-186.4323 858.4544,-179.6342"/>
</g>
    <!-- Node7 -->
<g id="node3" class="node">
<title>Node7</title>
<g id="a_node3"><a xlink:href="../../d7/ded/_about_dialog_8hpp.html" target="_top" xlink:title="code/gui/AboutDialog.hpp">
<polygon fill="none" stroke="#000000" points="194.3228,-70.5 194.3228,-88.5 324.854,-88.5 324.854,-70.5 194.3228,-70.5"/>
<text text-anchor="middle" x="259.5884" y="-76.5" font-family="Helvetica,sans-Serif" font-size="10.00" fill="#000000">code/gui/AboutDialog.hpp</text>
</a>
</g>
</g>
    <!-- Node6&#45;&gt;Node7 -->
<g id="edge2" class="edge">
<title>Node6&#45;&gt;Node7</title>
<path fill="none" stroke="#191970" d="M456.1065,-128.023C409.5424,-116.5257 338.8266,-99.065 296.1313,-88.5229"/>
<polygon fill="#191970" stroke="#191970" points="455.3983,-131.4532 465.9457,-130.4524 457.0763,-124.6573 455.3983,-131.4532"/>
</g>
    <!-- Node11 -->
<g id="node7" class="node">
<title>Node11</title>
<g id="a_node7"><a xlink:href="../../d2/dac/_add_patient_dialog_8hpp.html" target="_top" xlink:title="code/gui/AddPatientDialog.hpp">
<polygon fill="none" stroke="#000000" points="342.9263,-70.5 342.9263,-88.5 496.2505,-88.5 496.2505,-70.5 342.9263,-70.5"/>
<text text-anchor="middle" x="419.5884" y="-76.5" font-family="Helvetica,sans-Serif" font-size="10.00" fill="#000000">code/gui/AddPatientDialog.hpp</text>
</a>
</g>
</g>
    <!-- Node6&#45;&gt;Node11 -->
<g id="edge6" class="edge">
<title>Node6&#45;&gt;Node11</title>
<path fill="none" stroke="#191970" d="M481.4731,-124.2359C465.8495,-112.9418 445.0977,-97.9405 432.041,-88.5019"/>
<polygon fill="#191970" stroke="#191970" points="479.8278,-127.3653 489.9825,-130.3873 483.9287,-121.6923 479.8278,-127.3653"/>
</g>
    <!-- Node13 -->
<g id="node9" class="node">
<title>Node13</title>
<g id="a_node9"><a xlink:href="../../d0/d1e/_add_prescription_dialog_8hpp.html" target="_top" xlink:title="code/gui/AddPrescription\lDialog.hpp">
<polygon fill="none" stroke="#000000" points="49,-65.5 49,-93.5 176.1768,-93.5 176.1768,-65.5 49,-65.5"/>
<text text-anchor="start" x="57" y="-81.5" font-family="Helvetica,sans-Serif" font-size="10.00" fill="#000000">code/gui/AddPrescription</text>
<text text-anchor="middle" x="112.5884" y="-71.5" font-family="Helvetica,sans-Serif" font-size="10.00" fill="#000000">Dialog.hpp</text>
</a>
</g>
</g>
    <!-- Node6&#45;&gt;Node13 -->
<g id="edge9" class="edge">
<title>Node6&#45;&gt;Node13</title>
<path fill="none" stroke="#191970" d="M440.3493,-131.5678C376.3183,-123.1727 273.7634,-109.074 185.5884,-94 182.5316,-93.4774 179.4064,-92.9254 176.2525,-92.354"/>
<polygon fill="#191970" stroke="#191970" points="439.918,-135.0411 450.287,-132.8655 440.8244,-128.1001 439.918,-135.0411"/>
</g>
    <!-- Node15 -->
<g id="node11" class="node">
<title>Node15</title>
<g id="a_node11"><a xlink:href="../../db/d41/_main_window_8hpp.html" target="_top" xlink:title="code/gui/MainWindow.hpp">
<polygon fill="none" stroke="#000000" points="846.2168,-70.5 846.2168,-88.5 978.96,-88.5 978.96,-70.5 846.2168,-70.5"/>
<text text-anchor="middle" x="912.5884" y="-76.5" font-family="Helvetica,sans-Serif" font-size="10.00" fill="#000000">code/gui/MainWindow.hpp</text>
</a>
</g>
</g>
    <!-- Node6&#45;&gt;Node15 -->
<g id="edge12" class="edge">
<title>Node6&#45;&gt;Node15</title>
<path fill="none" stroke="#191970" d="M564.9783,-132.0861C632.3741,-123.8302 742.8371,-109.5813 837.5884,-94 847.403,-92.386 857.9042,-90.4732 867.8472,-88.5752"/>
<polygon fill="#191970" stroke="#191970" points="564.4501,-128.6245 554.9475,-133.3095 565.2977,-135.573 564.4501,-128.6245"/>
</g>
    <!-- Node17 -->
<g id="node13" class="node">
<title>Node17</title>
<g id="a_node13"><a xlink:href="../../dd/de0/_patient_window_8hpp.html" target="_top" xlink:title="code/gui/PatientWindow.hpp">
<polygon fill="none" stroke="#000000" points="514.4878,-70.5 514.4878,-88.5 656.689,-88.5 656.689,-70.5 514.4878,-70.5"/>
<text text-anchor="middle" x="585.5884" y="-76.5" font-family="Helvetica,sans-Serif" font-size="10.00" fill="#000000">code/gui/PatientWindow.hpp</text>
</a>
</g>
</g>
    <!-- Node6&#45;&gt;Node17 -->
<g id="edge15" class="edge">
<title>Node6&#45;&gt;Node17</title>
<path fill="none" stroke="#191970" d="M523.7037,-124.2359C539.3272,-112.9418 560.079,-97.9405 573.1358,-88.5019"/>
<polygon fill="#191970" stroke="#191970" points="521.248,-121.6923 515.1943,-130.3873 525.349,-127.3653 521.248,-121.6923"/>
</g>
    <!-- Node8 -->
<g id="node4" class="node">
<title>Node8</title>
<g id="a_node4"><a xlink:href="../../d1/d21/_about_dialog_8cpp.html" target="_top" xlink:title="code/gui/AboutDialog.cpp">
<polygon fill="none" stroke="#000000" points="145.6035,-5.5 145.6035,-23.5 275.5732,-23.5 275.5732,-5.5 145.6035,-5.5"/>
<text text-anchor="middle" x="210.5884" y="-11.5" font-family="Helvetica,sans-Serif" font-size="10.00" fill="#000000">code/gui/AboutDialog.cpp</text>
</a>
</g>
</g>
    <!-- Node7&#45;&gt;Node8 -->
<g id="edge3" class="edge">
<title>Node7&#45;&gt;Node8</title>
<path fill="none" stroke="#191970" d="M246.6326,-62.3137C237.3557,-50.0077 225.2163,-33.9043 217.6611,-23.8821"/>
<polygon fill="#191970" stroke="#191970" points="243.9606,-64.5837 252.7751,-70.462 249.5503,-60.3699 243.9606,-64.5837"/>
</g>
    <!-- Node9 -->
<g id="node5" class="node">
<title>Node9</title>
<g id="a_node5"><a xlink:href="../../d5/da5/_main_window_8cpp.html" target="_top" xlink:title="code/gui/MainWindow.cpp">
<polygon fill="none" stroke="#000000" points="453.4976,-5.5 453.4976,-23.5 585.6792,-23.5 585.6792,-5.5 453.4976,-5.5"/>
<text text-anchor="middle" x="519.5884" y="-11.5" font-family="Helvetica,sans-Serif" font-size="10.00" fill="#000000">code/gui/MainWindow.cpp</text>
</a>
</g>
</g>
    <!-- Node7&#45;&gt;Node9 -->
<g id="edge4" class="edge">
<title>Node7&#45;&gt;Node9</title>
<path fill="none" stroke="#191970" d="M305.4651,-68.0308C356.18,-55.3521 436.8325,-35.189 483.3254,-23.5658"/>
<polygon fill="#191970" stroke="#191970" points="304.5928,-64.6411 295.7403,-70.462 306.2906,-71.4321 304.5928,-64.6411"/>
</g>
    <!-- Node10 -->
<g id="node6" class="node">
<title>Node10</title>
<g id="a_node6"><a xlink:href="../../d8/d35/_patient_window_8cpp.html" target="_top" xlink:title="code/gui/PatientWindow.cpp">
<polygon fill="none" stroke="#000000" points="293.7686,-5.5 293.7686,-23.5 435.4082,-23.5 435.4082,-5.5 293.7686,-5.5"/>
<text text-anchor="middle" x="364.5884" y="-11.5" font-family="Helvetica,sans-Serif" font-size="10.00" fill="#000000">code/gui/PatientWindow.cpp</text>
</a>
</g>
</g>
    <!-- Node7&#45;&gt;Node10 -->
<g id="edge5" class="edge">
<title>Node7&#45;&gt;Node10</title>
<path fill="none" stroke="#191970" d="M282.8903,-65.075C303.3129,-52.4324 332.379,-34.4391 349.7741,-23.6708"/>
<polygon fill="#191970" stroke="#191970" points="280.8486,-62.2225 274.1882,-70.462 284.5331,-68.1744 280.8486,-62.2225"/>
</g>
    <!-- Node11&#45;&gt;Node10 -->
<g id="edge8" class="edge">
<title>Node11&#45;&gt;Node10</title>
<path fill="none" stroke="#191970" d="M405.3485,-62.6711C394.8984,-50.321 381.0898,-34.0016 372.5271,-23.8821"/>
<polygon fill="#191970" stroke="#191970" points="402.8095,-65.089 411.9409,-70.462 408.1533,-60.5673 402.8095,-65.089"/>
</g>
    <!-- Node12 -->
<g id="node8" class="node">
<title>Node12</title>
<g id="a_node8"><a xlink:href="../../db/db5/_add_patient_dialog_8cpp.html" target="_top" xlink:title="code/gui/AddPatientDialog.cpp">
<polygon fill="none" stroke="#000000" points="603.207,-5.5 603.207,-23.5 755.9697,-23.5 755.9697,-5.5 603.207,-5.5"/>
<text text-anchor="middle" x="679.5884" y="-11.5" font-family="Helvetica,sans-Serif" font-size="10.00" fill="#000000">code/gui/AddPatientDialog.cpp</text>
</a>
</g>
</g>
    <!-- Node11&#45;&gt;Node12 -->
<g id="edge7" class="edge">
<title>Node11&#45;&gt;Node12</title>
<path fill="none" stroke="#191970" d="M465.4651,-68.0308C516.18,-55.3521 596.8325,-35.189 643.3254,-23.5658"/>
<polygon fill="#191970" stroke="#191970" points="464.5928,-64.6411 455.7403,-70.462 466.2906,-71.4321 464.5928,-64.6411"/>
</g>
    <!-- Node13&#45;&gt;Node10 -->
<g id="edge11" class="edge">
<title>Node13&#45;&gt;Node10</title>
<path fill="none" stroke="#191970" d="M176.7583,-62.9482C225.365,-50.4108 290.2936,-33.6633 329.69,-23.5016"/>
<polygon fill="#191970" stroke="#191970" points="175.7673,-59.5892 166.9584,-65.476 177.5156,-66.3674 175.7673,-59.5892"/>
</g>
    <!-- Node14 -->
<g id="node10" class="node">
<title>Node14</title>
<g id="a_node10"><a xlink:href="../../df/de8/_add_prescription_dialog_8cpp.html" target="_top" xlink:title="code/gui/AddPrescription\lDialog.cpp">
<polygon fill="none" stroke="#000000" points="0,-.5 0,-28.5 127.1768,-28.5 127.1768,-.5 0,-.5"/>
<text text-anchor="start" x="8" y="-16.5" font-family="Helvetica,sans-Serif" font-size="10.00" fill="#000000">code/gui/AddPrescription</text>
<text text-anchor="middle" x="63.5884" y="-6.5" font-family="Helvetica,sans-Serif" font-size="10.00" fill="#000000">Dialog.cpp</text>
</a>
</g>
</g>
    <!-- Node13&#45;&gt;Node14 -->
<g id="edge10" class="edge">
<title>Node13&#45;&gt;Node14</title>
<path fill="none" stroke="#191970" d="M95.7455,-57.1575C88.6001,-47.6788 80.4885,-36.9186 74.1999,-28.5765"/>
<polygon fill="#191970" stroke="#191970" points="93.1416,-59.5176 101.9561,-65.396 98.7313,-55.3038 93.1416,-59.5176"/>
</g>
    <!-- Node15&#45;&gt;Node9 -->
<g id="edge13" class="edge">
<title>Node15&#45;&gt;Node9</title>
<path fill="none" stroke="#191970" d="M857.1663,-68.5015C850.5758,-67.2776 843.9369,-66.0834 837.5884,-65 729.9656,-46.6335 702.2112,-47.3665 594.5884,-29 584.9144,-27.3491 574.5664,-25.441 564.7424,-23.5624"/>
<polygon fill="#191970" stroke="#191970" points="856.959,-72.024 867.4344,-70.4376 858.2561,-65.1452 856.959,-72.024"/>
</g>
    <!-- Node16 -->
<g id="node12" class="node">
<title>Node16</title>
<g id="a_node12"><a xlink:href="../../d7/daf/_med_h_8cpp.html" target="_top" xlink:title="code/MedH.cpp">
<polygon fill="none" stroke="#000000" points="1098.5688,-5.5 1098.5688,-23.5 1184.6079,-23.5 1184.6079,-5.5 1098.5688,-5.5"/>
<text text-anchor="middle" x="1141.5884" y="-11.5" font-family="Helvetica,sans-Serif" font-size="10.00" fill="#000000">code/MedH.cpp</text>
</a>
</g>
</g>
    <!-- Node15&#45;&gt;Node16 -->
<g id="edge14" class="edge">
<title>Node15&#45;&gt;Node16</title>
<path fill="none" stroke="#191970" d="M954.1173,-67.7123C998.8451,-55.0166 1069.0408,-35.0921 1109.649,-23.5658"/>
<polygon fill="#191970" stroke="#191970" points="953.0941,-64.3644 944.4298,-70.462 955.0056,-71.0984 953.0941,-64.3644"/>
</g>
    <!-- Node17&#45;&gt;Node9 -->
<g id="edge16" class="edge">
<title>Node17&#45;&gt;Node9</title>
<path fill="none" stroke="#191970" d="M569.2195,-63.3791C556.6001,-50.9509 539.5876,-34.1962 529.1149,-23.8821"/>
<polygon fill="#191970" stroke="#191970" points="566.8306,-65.9388 576.4114,-70.462 571.7424,-60.9514 566.8306,-65.9388"/>
</g>
    <!-- Node17&#45;&gt;Node10 -->
<g id="edge17" class="edge">
<title>Node17&#45;&gt;Node10</title>
<path fill="none" stroke="#191970" d="M545.2378,-67.6322C502.0605,-54.933 434.5192,-35.0679 395.4119,-23.5658"/>
<polygon fill="#191970" stroke="#191970" points="544.278,-70.9981 554.8593,-70.462 546.2532,-64.2825 544.278,-70.9981"/>
</g>
    <!-- Node18&#45;&gt;Node10 -->
<g id="edge21" class="edge">
<title>Node18&#45;&gt;Node10</title>
<path fill="none" stroke="#191970" d="M688.3623,-68.7986C680.6908,-67.5124 672.9626,-66.2223 665.5884,-65 567.411,-48.7272 542.6641,-45.8748 444.5884,-29 434.5726,-27.2767 423.8626,-25.3758 413.6411,-23.5335"/>
<polygon fill="#191970" stroke="#191970" points="687.9384,-72.2764 698.3801,-70.4814 689.0981,-65.3731 687.9384,-72.2764"/>
</g>
    <!-- Node18&#45;&gt;Node12 -->
<g id="edge19" class="edge">
<title>Node18&#45;&gt;Node12</title>
<path fill="none" stroke="#191970" d="M734.1197,-63.7297C720.3156,-51.2676 701.5135,-34.2936 689.9809,-23.8821"/>
<polygon fill="#191970" stroke="#191970" points="731.809,-66.3589 741.5771,-70.462 736.4998,-61.163 731.809,-66.3589"/>
</g>
    <!-- Node18&#45;&gt;Node16 -->
<g id="edge22" class="edge">
<title>Node18&#45;&gt;Node16</title>
<path fill="none" stroke="#191970" d="M813.878,-68.8119C821.8526,-67.4982 829.9095,-66.1978 837.5884,-65 948.9389,-47.6303 978.2453,-51.9141 1088.5884,-29 1095.9672,-27.4677 1103.8391,-25.5003 1111.1971,-23.5122"/>
<polygon fill="#191970" stroke="#191970" points="813.147,-65.3853 803.8555,-70.4763 814.2938,-72.2908 813.147,-65.3853"/>
</g>
    <!-- Node19 -->
<g id="node15" class="node">
<title>Node19</title>
<g id="a_node15"><a xlink:href="../../d9/d07/_login_window_8cpp.html" target="_top" xlink:title="code/gui/LoginWindow.cpp">
<polygon fill="none" stroke="#000000" points="945.1011,-5.5 945.1011,-23.5 1080.0757,-23.5 1080.0757,-5.5 945.1011,-5.5"/>
<text text-anchor="middle" x="1012.5884" y="-11.5" font-family="Helvetica,sans-Serif" font-size="10.00" fill="#000000">code/gui/LoginWindow.cpp</text>
</a>
</g>
</g>
    <!-- Node18&#45;&gt;Node19 -->
<g id="edge20" class="edge">
<title>Node18&#45;&gt;Node19</title>
<path fill="none" stroke="#191970" d="M797.6415,-68.0308C848.5515,-55.3521 929.5143,-35.189 976.1859,-23.5658"/>
<polygon fill="#191970" stroke="#191970" points="796.7371,-64.6491 787.8793,-70.462 798.4288,-71.4416 796.7371,-64.6491"/>
</g>
    <!-- Node20 -->
<g id="node16" class="node">
<title>Node20</title>
<g id="a_node16"><a xlink:href="../../d6/d6e/_authentication_8cpp.html" target="_top" xlink:title="code/model/Authentication.cpp">
<polygon fill="none" stroke="#000000" points="774.2095,-5.5 774.2095,-23.5 926.9673,-23.5 926.9673,-5.5 774.2095,-5.5"/>
<text text-anchor="middle" x="850.5884" y="-11.5" font-family="Helvetica,sans-Serif" font-size="10.00" fill="#000000">code/model/Authentication.cpp</text>
</a>
</g>
</g>
    <!-- Node18&#45;&gt;Node20 -->
<g id="edge23" class="edge">
<title>Node18&#45;&gt;Node20</title>
<path fill="none" stroke="#191970" d="M773.8195,-64.9038C793.061,-52.2705 820.2934,-34.3906 836.6206,-23.6708"/>
<polygon fill="#191970" stroke="#191970" points="771.7922,-62.0478 765.3539,-70.462 775.6341,-67.8993 771.7922,-62.0478"/>
</g>
    <!-- Node21&#45;&gt;Node15 -->
<g id="edge28" class="edge">
<title>Node21&#45;&gt;Node15</title>
<path fill="none" stroke="#191970" d="M898.8526,-120.7072C902.4055,-110.0487 906.693,-97.186 909.5222,-88.6985"/>
<polygon fill="#191970" stroke="#191970" points="895.4679,-119.7936 895.6259,-130.3873 902.1087,-122.0073 895.4679,-119.7936"/>
</g>
    <!-- Node21&#45;&gt;Node17 -->
<g id="edge29" class="edge">
<title>Node21&#45;&gt;Node17</title>
<path fill="none" stroke="#191970" d="M836.4343,-128.5253C777.6662,-117.0396 686.4875,-99.2197 631.7557,-88.5229"/>
<polygon fill="#191970" stroke="#191970" points="835.8093,-131.9693 846.295,-130.4524 837.152,-125.0992 835.8093,-131.9693"/>
</g>
    <!-- Node22 -->
<g id="node18" class="node">
<title>Node22</title>
<g id="a_node18"><a xlink:href="../../db/d18/_login_window_8hpp.html" target="_top" xlink:title="code/gui/LoginWindow.hpp">
<polygon fill="none" stroke="#000000" points="996.8203,-70.5 996.8203,-88.5 1132.3564,-88.5 1132.3564,-70.5 996.8203,-70.5"/>
<text text-anchor="middle" x="1064.5884" y="-76.5" font-family="Helvetica,sans-Serif" font-size="10.00" fill="#000000">code/gui/LoginWindow.hpp</text>
</a>
</g>
</g>
    <!-- Node21&#45;&gt;Node22 -->
<g id="edge25" class="edge">
<title>Node21&#45;&gt;Node22</title>
<path fill="none" stroke="#191970" d="M928.417,-127.0017C961.3748,-115.5047 1009.4498,-98.7344 1038.783,-88.5019"/>
<polygon fill="#191970" stroke="#191970" points="927.0007,-123.7888 918.7115,-130.3873 929.3063,-130.3982 927.0007,-123.7888"/>
</g>
    <!-- Node23 -->
<g id="node19" class="node">
<title>Node23</title>
<g id="a_node19"><a xlink:href="../../db/d45/_med_h_8hpp.html" target="_top" xlink:title="code/MedH.hpp">
<polygon fill="none" stroke="#000000" points="1150.2881,-70.5 1150.2881,-88.5 1236.8887,-88.5 1236.8887,-70.5 1150.2881,-70.5"/>
<text text-anchor="middle" x="1193.5884" y="-76.5" font-family="Helvetica,sans-Serif" font-size="10.00" fill="#000000">code/MedH.hpp</text>
</a>
</g>
</g>
    <!-- Node21&#45;&gt;Node23 -->
<g id="edge30" class="edge">
<title>Node21&#45;&gt;Node23</title>
<path fill="none" stroke="#191970" d="M958.3781,-129.1607C1008.7715,-120.8352 1079.8898,-108.2082 1141.5884,-94 1148.5296,-92.4016 1155.9324,-90.4742 1162.9111,-88.5542"/>
<polygon fill="#191970" stroke="#191970" points="957.5692,-125.7465 948.2677,-130.8192 958.7024,-132.6542 957.5692,-125.7465"/>
</g>
    <!-- Node22&#45;&gt;Node16 -->
<g id="edge27" class="edge">
<title>Node22&#45;&gt;Node16</title>
<path fill="none" stroke="#191970" d="M1083.2702,-63.7297C1098.0329,-51.2676 1118.1406,-34.2936 1130.4742,-23.8821"/>
<polygon fill="#191970" stroke="#191970" points="1080.6786,-61.337 1075.2949,-70.462 1085.194,-66.686 1080.6786,-61.337"/>
</g>
    <!-- Node22&#45;&gt;Node19 -->
<g id="edge26" class="edge">
<title>Node22&#45;&gt;Node19</title>
<path fill="none" stroke="#191970" d="M1050.8394,-62.3137C1040.9945,-50.0077 1028.1119,-33.9043 1020.0941,-23.8821"/>
<polygon fill="#191970" stroke="#191970" points="1048.378,-64.8398 1057.358,-70.462 1053.8441,-60.4669 1048.378,-64.8398"/>
</g>
    <!-- Node23&#45;&gt;Node16 -->
<g id="edge32" class="edge">
<title>Node23&#45;&gt;Node16</title>
<path fill="none" stroke="#191970" d="M1179.8394,-62.3137C1169.9945,-50.0077 1157.1119,-33.9043 1149.0941,-23.8821"/>
<polygon fill="#191970" stroke="#191970" points="1177.378,-64.8398 1186.358,-70.462 1182.8441,-60.4669 1177.378,-64.8398"/>
</g>
    <!-- Node24 -->
<g id="node20" class="node">
<title>Node24</title>
<g id="a_node20"><a xlink:href="../../df/d0a/main_8cpp.html" target="_top" xlink:title="code/main.cpp">
<polygon fill="none" stroke="#000000" points="1203.0688,-5.5 1203.0688,-23.5 1284.1079,-23.5 1284.1079,-5.5 1203.0688,-5.5"/>
<text text-anchor="middle" x="1243.5884" y="-11.5" font-family="Helvetica,sans-Serif" font-size="10.00" fill="#000000">code/main.cpp</text>
</a>
</g>
</g>
    <!-- Node23&#45;&gt;Node24 -->
<g id="edge31" class="edge">
<title>Node23&#45;&gt;Node24</title>
<path fill="none" stroke="#191970" d="M1206.8086,-62.3137C1216.2748,-50.0077 1228.662,-33.9043 1236.3713,-23.8821"/>
<polygon fill="#191970" stroke="#191970" points="1203.8636,-60.4018 1200.5407,-70.462 1209.412,-64.6698 1203.8636,-60.4018"/>
</g>
</g>
</svg>
        <g id="navigator" transform="translate(0 0)" fill="#404254">
                <rect fill="#f2f5e9" fill-opacity="0.5" stroke="#606060" stroke-width=".5" x="0" y="0" width="60" height="60"/>
                <use id="zoomplus" xlink:href="#zoomPlus" x="17" y="9" onmousedown="handleZoom(evt,'in')"/>
                <use id="zoomminus" xlink:href="#zoomMin" x="42" y="9" onmousedown="handleZoom(evt,'out')"/>
                <use id="reset" xlink:href="#resetDef" x="30" y="36" onmousedown="handleReset()"/>
                <g id="arrowUp" xlink:href="#dirArrow" transform="translate(30 24)" onmousedown="handlePan(0,-1)">
                  <use xlink:href="#rim" fill="#404040">
                        <set attributeName="fill" to="#808080" begin="arrowUp.mouseover" end="arrowUp.mouseout"/>
                  </use>
                  <path fill="none" stroke="white" stroke-width="1.5" d="M0,-3.0v7 M-2.5,-0.5L0,-3.0L2.5,-0.5"/>
                </g>
                <g id="arrowRight" xlink:href="#dirArrow" transform="rotate(90) translate(36 -43)" onmousedown="handlePan(1,0)">
                  <use xlink:href="#rim" fill="#404040">
                        <set attributeName="fill" to="#808080" begin="arrowRight.mouseover" end="arrowRight.mouseout"/>
                  </use>
                  <path fill="none" stroke="white" stroke-width="1.5" d="M0,-3.0v7 M-2.5,-0.5L0,-3.0L2.5,-0.5"/>
                </g>
                <g id="arrowDown" xlink:href="#dirArrow" transform="rotate(180) translate(-30 -48)" onmousedown="handlePan(0,1)">
                  <use xlink:href="#rim" fill="#404040">
                        <set attributeName="fill" to="#808080" begin="arrowDown.mouseover" end="arrowDown.mouseout"/>
                  </use>
                  <path fill="none" stroke="white" stroke-width="1.5" d="M0,-3.0v7 M-2.5,-0.5L0,-3.0L2.5,-0.5"/>
                </g>
                <g id="arrowLeft" xlink:href="#dirArrow" transform="rotate(270) translate(-36 17)" onmousedown="handlePan(-1,0)">
                  <use xlink:href="#rim" fill="#404040">
                        <set attributeName="fill" to="#808080" begin="arrowLeft.mouseover" end="arrowLeft.mouseout"/>
                  </use>
                  <path fill="none" stroke="white" stroke-width="1.5" d="M0,-3.0v7 M-2.5,-0.5L0,-3.0L2.5,-0.5"/>
                </g>
        </g>
        <svg viewBox="0 0 15 15" width="100%" height="30px" preserveAspectRatio="xMaxYMin meet">
         <g id="arrow_out" transform="scale(0.3 0.3)">
          <a xlink:href="_i_subject_8hpp__dep__incl_org.svg" target="_base">
           <rect id="button" ry="5" rx="5" y="6" x="6" height="38" width="38"
                fill="#f2f5e9" fill-opacity="0.5" stroke="#606060" stroke-width="1.0"/>
           <path id="arrow"
             d="M 11.500037,31.436501 C 11.940474,20.09759 22.043105,11.32322 32.158766,21.979434 L 37.068811,17.246167 C 37.068811,17.246167 37.088388,32 37.088388,32 L 22.160133,31.978069 C 22.160133,31.978069 26.997745,27.140456 26.997745,27.140456 C 18.528582,18.264221 13.291696,25.230495 11.500037,31.436501 z"
             style="fill:#404040;"/>
          </a>
         </g>
        </svg>
</svg>
