<?xml version="1.0" encoding="UTF-8" standalone="no"?>
<!DOCTYPE svg PUBLIC "-//W3C//DTD SVG 1.1//EN"
        "http://www.w3.org/Graphics/SVG/1.1/DTD/svg11.dtd">
<!-- Generated by graphviz version 2.40.1 (20161225.0304)
 -->
<!-- Title: code/DBMaster.cpp Pages: 1 -->
<svg width="415pt" height="192pt"
     viewBox="0.00 0.00 415.30 192.00" xmlns="http://www.w3.org/2000/svg" xmlns:xlink="http://www.w3.org/1999/xlink">
    <g id="graph0" class="graph" transform="scale(1 1) rotate(0) translate(4 188)">
        <title>code/DBMaster.cpp</title>
        <!-- Node0 -->
        <g id="node1" class="node">
            <title>Node0</title>
            <polygon fill="#bfbfbf" stroke="#000000"
                     points="204.9878,-165.5 204.9878,-183.5 308.2583,-183.5 308.2583,-165.5 204.9878,-165.5"/>
            <text text-anchor="middle" x="256.623" y="-171.5" font-family="Helvetica,sans-Serif" font-size="10.00"
                  fill="#000000">code/DBMaster.cpp
            </text>
        </g>
        <!-- Node1 -->
        <g id="node2" class="node">
            <title>Node1</title>
            <g id="a_node2">
                <a xlink:href="../../d7/d0f/_d_b_master_8hpp.html" target="_top" xlink:title="DBMaster.hpp">
                    <polygon fill="none" stroke="#000000"
                             points="98.9385,-110.5 98.9385,-128.5 178.3076,-128.5 178.3076,-110.5 98.9385,-110.5"/>
                    <text text-anchor="middle" x="138.623" y="-116.5" font-family="Helvetica,sans-Serif"
                          font-size="10.00" fill="#000000">DBMaster.hpp
                    </text>
                </a>
            </g>
        </g>
        <!-- Node0&#45;&gt;Node1 -->
        <g id="edge1" class="edge">
            <title>Node0&#45;&gt;Node1</title>
            <path fill="none" stroke="#191970"
                  d="M237.1377,-165.4179C218.0926,-156.5409 188.8809,-142.9253 167.2068,-132.823"/>
            <polygon fill="#191970" stroke="#191970"
                     points="168.6797,-129.648 158.1373,-128.5956 165.7224,-135.9927 168.6797,-129.648"/>
        </g>
        <!-- Node8 -->
        <g id="node9" class="node">
            <title>Node8</title>
            <polygon fill="none" stroke="#bfbfbf"
                     points="195.8423,-110.5 195.8423,-128.5 247.4038,-128.5 247.4038,-110.5 195.8423,-110.5"/>
            <text text-anchor="middle" x="221.623" y="-116.5" font-family="Helvetica,sans-Serif" font-size="10.00"
                  fill="#000000">sstream
            </text>
        </g>
        <!-- Node0&#45;&gt;Node8 -->
        <g id="edge10" class="edge">
            <title>Node0&#45;&gt;Node8</title>
            <path fill="none" stroke="#191970"
                  d="M250.8435,-165.4179C246.0089,-157.8207 238.9657,-146.7527 233.0054,-137.3866"/>
            <polygon fill="#191970" stroke="#191970"
                     points="235.8498,-135.337 227.5282,-128.7795 229.9441,-139.0952 235.8498,-135.337"/>
        </g>
        <!-- Node9 -->
        <g id="node10" class="node">
            <title>Node9</title>
            <polygon fill="none" stroke="#bfbfbf"
                     points="265.4507,-110.5 265.4507,-128.5 319.7954,-128.5 319.7954,-110.5 265.4507,-110.5"/>
            <text text-anchor="middle" x="292.623" y="-116.5" font-family="Helvetica,sans-Serif" font-size="10.00"
                  fill="#000000">iostream
            </text>
        </g>
        <!-- Node0&#45;&gt;Node9 -->
        <g id="edge11" class="edge">
            <title>Node0&#45;&gt;Node9</title>
            <path fill="none" stroke="#191970"
                  d="M262.5677,-165.4179C267.5404,-157.8207 274.7849,-146.7527 280.9154,-137.3866"/>
            <polygon fill="#191970" stroke="#191970"
                     points="284.001,-139.0633 286.5492,-128.7795 278.1441,-135.2297 284.001,-139.0633"/>
        </g>
        <!-- Node10 -->
        <g id="node11" class="node">
            <title>Node10</title>
            <polygon fill="none" stroke="#bfbfbf"
                     points="337.9507,-110.5 337.9507,-128.5 407.2954,-128.5 407.2954,-110.5 337.9507,-110.5"/>
            <text text-anchor="middle" x="372.623" y="-116.5" font-family="Helvetica,sans-Serif" font-size="10.00"
                  fill="#000000">fmt/format.h
            </text>
        </g>
        <!-- Node0&#45;&gt;Node10 -->
        <g id="edge12" class="edge">
            <title>Node0&#45;&gt;Node10</title>
            <path fill="none" stroke="#191970"
                  d="M275.7781,-165.4179C294.4165,-156.5807 322.9597,-143.0473 344.2366,-132.9591"/>
            <polygon fill="#191970" stroke="#191970"
                     points="345.9032,-136.0424 353.4395,-128.5956 342.9043,-129.7174 345.9032,-136.0424"/>
        </g>
        <!-- Node2 -->
        <g id="node3" class="node">
            <title>Node2</title>
            <polygon fill="none" stroke="#bfbfbf" points="0,-55.5 0,-73.5 53.2461,-73.5 53.2461,-55.5 0,-55.5"/>
            <text text-anchor="middle" x="26.623" y="-61.5" font-family="Helvetica,sans-Serif" font-size="10.00"
                  fill="#000000">sqlite3.h
            </text>
        </g>
        <!-- Node1&#45;&gt;Node2 -->
        <g id="edge2" class="edge">
            <title>Node1&#45;&gt;Node2</title>
            <path fill="none" stroke="#191970"
                  d="M120.1285,-110.4179C102.2139,-101.6205 74.8219,-88.1691 54.3086,-78.0956"/>
            <polygon fill="#191970" stroke="#191970"
                     points="55.6639,-74.8619 45.145,-73.5956 52.5784,-81.1452 55.6639,-74.8619"/>
        </g>
        <!-- Node3 -->
        <g id="node4" class="node">
            <title>Node3</title>
            <polygon fill="none" stroke="#bfbfbf"
                     points="119.3965,-.5 119.3965,-18.5 159.8496,-18.5 159.8496,-.5 119.3965,-.5"/>
            <text text-anchor="middle" x="139.623" y="-6.5" font-family="Helvetica,sans-Serif" font-size="10.00"
                  fill="#000000">string
            </text>
        </g>
        <!-- Node1&#45;&gt;Node3 -->
        <g id="edge3" class="edge">
            <title>Node1&#45;&gt;Node3</title>
            <path fill="none" stroke="#191970"
                  d="M127.0093,-110.4147C113.1518,-98.3849 92.7771,-76.2097 100.623,-55 104.738,-43.8762 112.9219,-33.6367 120.7349,-25.6998"/>
            <polygon fill="#191970" stroke="#191970"
                     points="123.3993,-27.9973 128.2597,-18.5831 118.5894,-22.9116 123.3993,-27.9973"/>
        </g>
        <!-- Node4 -->
        <g id="node5" class="node">
            <title>Node4</title>
            <polygon fill="none" stroke="#bfbfbf"
                     points="109.2217,-55.5 109.2217,-73.5 168.0244,-73.5 168.0244,-55.5 109.2217,-55.5"/>
            <text text-anchor="middle" x="138.623" y="-61.5" font-family="Helvetica,sans-Serif" font-size="10.00"
                  fill="#000000">stdexcept
            </text>
        </g>
        <!-- Node1&#45;&gt;Node4 -->
        <g id="edge4" class="edge">
            <title>Node1&#45;&gt;Node4</title>
            <path fill="none" stroke="#191970"
                  d="M138.623,-110.4179C138.623,-103.2164 138.623,-92.8962 138.623,-83.8632"/>
            <polygon fill="#191970" stroke="#191970"
                     points="142.1231,-83.7794 138.623,-73.7795 135.1231,-83.7795 142.1231,-83.7794"/>
        </g>
        <!-- Node5 -->
        <g id="node6" class="node">
            <title>Node5</title>
            <polygon fill="none" stroke="#bfbfbf"
                     points="308.0073,-.5 308.0073,-18.5 351.2388,-18.5 351.2388,-.5 308.0073,-.5"/>
            <text text-anchor="middle" x="329.623" y="-6.5" font-family="Helvetica,sans-Serif" font-size="10.00"
                  fill="#000000">vector
            </text>
        </g>
        <!-- Node1&#45;&gt;Node5 -->
        <g id="edge5" class="edge">
            <title>Node1&#45;&gt;Node5</title>
            <path fill="none" stroke="#191970"
                  d="M178.5347,-111.3543C233.3785,-99.9731 325.8557,-80.0292 330.623,-74 340.5986,-61.3842 339.0674,-42.6251 335.8002,-28.5852"/>
            <polygon fill="#191970" stroke="#191970"
                     points="339.0567,-27.2338 332.9945,-18.5447 332.315,-29.1177 339.0567,-27.2338"/>
        </g>
        <!-- Node6 -->
        <g id="node7" class="node">
            <title>Node6</title>
            <g id="a_node7">
                <a xlink:href="../../d3/d1b/_i_serializable_8hpp.html" target="_top"
                   xlink:title="interfaces/ISerializable.hpp">
                    <polygon fill="none" stroke="#000000"
                             points="185.5889,-55.5 185.5889,-73.5 321.6572,-73.5 321.6572,-55.5 185.5889,-55.5"/>
                    <text text-anchor="middle" x="253.623" y="-61.5" font-family="Helvetica,sans-Serif"
                          font-size="10.00" fill="#000000">interfaces/ISerializable.hpp
                    </text>
                </a>
            </g>
        </g>
        <!-- Node1&#45;&gt;Node6 -->
        <g id="edge6" class="edge">
            <title>Node1&#45;&gt;Node6</title>
            <path fill="none" stroke="#191970"
                  d="M157.613,-110.4179C176.0907,-101.5807 204.3878,-88.0473 225.4814,-77.9591"/>
            <polygon fill="#191970" stroke="#191970"
                     points="227.0937,-81.0677 234.6049,-73.5956 224.0735,-74.7528 227.0937,-81.0677"/>
        </g>
        <!-- Node6&#45;&gt;Node3 -->
        <g id="edge7" class="edge">
            <title>Node6&#45;&gt;Node3</title>
            <path fill="none" stroke="#191970"
                  d="M234.7983,-55.4179C216.4812,-46.5807 188.4301,-33.0473 167.52,-22.9591"/>
            <polygon fill="#191970" stroke="#191970"
                     points="169.0033,-19.7887 158.4758,-18.5956 165.9615,-26.0933 169.0033,-19.7887"/>
        </g>
        <!-- Node6&#45;&gt;Node5 -->
        <g id="edge9" class="edge">
            <title>Node6&#45;&gt;Node5</title>
            <path fill="none" stroke="#191970"
                  d="M266.1729,-55.4179C277.7242,-47.0584 295.0823,-34.4966 308.7246,-24.6239"/>
            <polygon fill="#191970" stroke="#191970"
                     points="311.0053,-27.2938 317.0545,-18.5956 306.9014,-21.6229 311.0053,-27.2938"/>
        </g>
        <!-- Node7 -->
        <g id="node8" class="node">
            <title>Node7</title>
            <polygon fill="none" stroke="#bfbfbf"
                     points="235.8965,-.5 235.8965,-18.5 271.3496,-18.5 271.3496,-.5 235.8965,-.5"/>
            <text text-anchor="middle" x="253.623" y="-6.5" font-family="Helvetica,sans-Serif" font-size="10.00"
                  fill="#000000">map
            </text>
        </g>
        <!-- Node6&#45;&gt;Node7 -->
        <g id="edge8" class="edge">
            <title>Node6&#45;&gt;Node7</title>
            <path fill="none" stroke="#191970"
                  d="M253.623,-55.4179C253.623,-48.2164 253.623,-37.8962 253.623,-28.8632"/>
            <polygon fill="#191970" stroke="#191970"
                     points="257.1231,-28.7794 253.623,-18.7795 250.1231,-28.7795 257.1231,-28.7794"/>
        </g>
    </g>
</svg>
