<?xml version="1.0" encoding="UTF-8" standalone="no"?>
<!DOCTYPE svg PUBLIC "-//W3C//DTD SVG 1.1//EN"
        "http://www.w3.org/Graphics/SVG/1.1/DTD/svg11.dtd">
<!-- Generated by graphviz version 2.40.1 (20161225.0304)
 -->
<!-- Title: code/DBMaster.cpp Pages: 1 -->
<svg width="415pt" height="192pt"
     viewBox="0.00 0.00 415.30 192.00" xmlns="http://www.w3.org/2000/svg" xmlns:xlink="http://www.w3.org/1999/xlink">
    <g id="graph0" class="graph" transform="scale(1 1) rotate(0) translate(4 188)">
        <title>code/DBMaster.cpp</title>
        <!-- Node0 -->
        <g id="node1" class="node">
            <title>Node0</title>
            <polygon fill="#bfbfbf" stroke="#000000"
                     points="204.9878,-165.5 204.9878,-183.5 308.2583,-183.5 308.2583,-165.5 204.9878,-165.5"/>
            <text text-anchor="middle" x="256.623" y="-171.5" font-family="Helvetica,sans-Serif" font-size="10.00"
                  fill="#000000">code/DBMaster.cpp
            </text>
        </g>
        <!-- Node1 -->
        <g id="node2" class="node">
            <title>Node1</title>
            <g id="a_node2">
                <a xlink:href="../../d7/d0f/_d_b_master_8hpp.html" target="_top" xlink:title="DBMaster.hpp">
                    <polygon fill="none" stroke="#000000"
                             points="98.9385,-110.5 98.9385,-128.5 178.3076,-128.5 178.3076,-110.5 98.9385,-110.5"/>
                    <text text-anchor="middle" x="138.623" y="-116.5" font-family="Helvetica,sans-Serif"
                          font-size="10.00" fill="#000000">DBMaster.hpp
                    </text>
                </a>
            </g>
        </g>
        <!-- Node0&#45;&gt;Node1 -->
        <g id="edge1" class="edge">
            <title>Node0&#45;&gt;Node1</title>
            <path fill="none" stroke="#191970"
                  d="M237.1377,-165.4179C218.0926,-156.5409 188.8809,-142.9253 167.2068,-132.823"/>
            <polygon fill="#191970" stroke="#191970"
                     points="168.6797,-129.648 158.1373,-128.5956 165.7224,-135.9927 168.6797,-129.648"/>
        </g>
        <!-- Node8 -->
        <g id="node9" class="node">
            <title>Node8</title>
            <polygon fill="none" stroke="#bfbfbf"
                     points="195.8423,-110.5 195.8423,-128.5 247.4038,-128.5 247.4038,-110.5 195.8423,-110.5"/>
            <text text-anchor="middle" x="221.623" y="-116.5" font-family="Helvetica,sans-Serif" font-size="10.00"
                  fill="#000000">sstream
            </text>
        </g>
        <!-- Node0&#45;&gt;Node8 -->
        <g id="edge9" class="edge">
            <title>Node0&#45;&gt;Node8</title>
            <path fill="none" stroke="#191970"
                  d="M250.8435,-165.4179C246.0089,-157.8207 238.9657,-146.7527 233.0054,-137.3866"/>
            <polygon fill="#191970" stroke="#191970"
                     points="235.8498,-135.337 227.5282,-128.7795 229.9441,-139.0952 235.8498,-135.337"/>
        </g>
        <!-- Node9 -->
        <g id="node10" class="node">
            <title>Node9</title>
            <polygon fill="none" stroke="#bfbfbf"
                     points="265.4507,-110.5 265.4507,-128.5 319.7954,-128.5 319.7954,-110.5 265.4507,-110.5"/>
            <text text-anchor="middle" x="292.623" y="-116.5" font-family="Helvetica,sans-Serif" font-size="10.00"
                  fill="#000000">iostream
            </text>
        </g>
        <!-- Node0&#45;&gt;Node9 -->
        <g id="edge10" class="edge">
            <title>Node0&#45;&gt;Node9</title>
            <path fill="none" stroke="#191970"
                  d="M262.5677,-165.4179C267.5404,-157.8207 274.7849,-146.7527 280.9154,-137.3866"/>
            <polygon fill="#191970" stroke="#191970"
                     points="284.001,-139.0633 286.5492,-128.7795 278.1441,-135.2297 284.001,-139.0633"/>
        </g>
        <!-- Node10 -->
        <g id="node11" class="node">
            <title>Node10</title>
            <polygon fill="none" stroke="#bfbfbf"
                     points="337.9507,-110.5 337.9507,-128.5 407.2954,-128.5 407.2954,-110.5 337.9507,-110.5"/>
            <text text-anchor="middle" x="372.623" y="-116.5" font-family="Helvetica,sans-Serif" font-size="10.00"
                  fill="#000000">fmt/format.h
            </text>
        </g>
        <!-- Node0&#45;&gt;Node10 -->
        <g id="edge11" class="edge">
            <title>Node0&#45;&gt;Node10</title>
            <path fill="none" stroke="#191970"
                  d="M275.7781,-165.4179C294.4165,-156.5807 322.9597,-143.0473 344.2366,-132.9591"/>
            <polygon fill="#191970" stroke="#191970"
                     points="345.9032,-136.0424 353.4395,-128.5956 342.9043,-129.7174 345.9032,-136.0424"/>
        </g>
        <!-- Node2 -->
        <g id="node3" class="node">
            <title>Node2</title>
            <polygon fill="none" stroke="#bfbfbf" points="0,-55.5 0,-73.5 53.2461,-73.5 53.2461,-55.5 0,-55.5"/>
            <text text-anchor="middle" x="26.623" y="-61.5" font-family="Helvetica,sans-Serif" font-size="10.00"
                  fill="#000000">sqlite3.h
            </text>
        </g>
        <!-- Node1&#45;&gt;Node2 -->
        <g id="edge2" class="edge">
            <title>Node1&#45;&gt;Node2</title>
            <path fill="none" stroke="#191970"
                  d="M120.1285,-110.4179C102.2139,-101.6205 74.8219,-88.1691 54.3086,-78.0956"/>
            <polygon fill="#191970" stroke="#191970"
                     points="55.6639,-74.8619 45.145,-73.5956 52.5784,-81.1452 55.6639,-74.8619"/>
        </g>
        <!-- Node3 -->
        <g id="node4" class="node">
            <title>Node3</title>
            <polygon fill="none" stroke="#bfbfbf"
                     points="150.3965,-.5 150.3965,-18.5 190.8496,-18.5 190.8496,-.5 150.3965,-.5"/>
            <text text-anchor="middle" x="170.623" y="-6.5" font-family="Helvetica,sans-Serif" font-size="10.00"
                  fill="#000000">string
            </text>
        </g>
        <!-- Node1&#45;&gt;Node3 -->
        <g id="edge3" class="edge">
            <title>Node1&#45;&gt;Node3</title>
            <path fill="none" stroke="#191970"
                  d="M126.6131,-110.4303C111.7649,-98.0517 89.7125,-75.1047 100.623,-55 109.1866,-39.2201 125.8513,-28.0582 140.7726,-20.7399"/>
            <polygon fill="#191970" stroke="#191970"
                     points="142.5479,-23.7787 150.2237,-16.4758 139.6691,-17.3981 142.5479,-23.7787"/>
        </g>
        <!-- Node4 -->
        <g id="node5" class="node">
            <title>Node4</title>
            <polygon fill="none" stroke="#bfbfbf"
                     points="109.2217,-55.5 109.2217,-73.5 168.0244,-73.5 168.0244,-55.5 109.2217,-55.5"/>
            <text text-anchor="middle" x="138.623" y="-61.5" font-family="Helvetica,sans-Serif" font-size="10.00"
                  fill="#000000">stdexcept
            </text>
        </g>
        <!-- Node1&#45;&gt;Node4 -->
        <g id="edge4" class="edge">
            <title>Node1&#45;&gt;Node4</title>
            <path fill="none" stroke="#191970"
                  d="M138.623,-110.4179C138.623,-103.2164 138.623,-92.8962 138.623,-83.8632"/>
            <polygon fill="#191970" stroke="#191970"
                     points="142.1231,-83.7794 138.623,-73.7795 135.1231,-83.7795 142.1231,-83.7794"/>
        </g>
        <!-- Node5 -->
        <g id="node6" class="node">
            <title>Node5</title>
            <polygon fill="none" stroke="#bfbfbf"
                     points="186.0073,-55.5 186.0073,-73.5 229.2388,-73.5 229.2388,-55.5 186.0073,-55.5"/>
            <text text-anchor="middle" x="207.623" y="-61.5" font-family="Helvetica,sans-Serif" font-size="10.00"
                  fill="#000000">vector
            </text>
        </g>
        <!-- Node1&#45;&gt;Node5 -->
        <g id="edge5" class="edge">
            <title>Node1&#45;&gt;Node5</title>
            <path fill="none" stroke="#191970"
                  d="M150.017,-110.4179C160.3423,-102.1876 175.7778,-89.8839 188.0728,-80.0836"/>
            <polygon fill="#191970" stroke="#191970"
                     points="190.3434,-82.7495 195.9815,-73.7795 185.9802,-77.2757 190.3434,-82.7495"/>
        </g>
        <!-- Node6 -->
        <g id="node7" class="node">
            <title>Node6</title>
            <g id="a_node7">
                <a xlink:href="../../d3/d1b/_i_serializable_8hpp.html" target="_top"
                   xlink:title="interfaces/ISerializable.hpp">
                    <polygon fill="none" stroke="#000000"
                             points="247.5889,-55.5 247.5889,-73.5 383.6572,-73.5 383.6572,-55.5 247.5889,-55.5"/>
                    <text text-anchor="middle" x="315.623" y="-61.5" font-family="Helvetica,sans-Serif"
                          font-size="10.00" fill="#000000">interfaces/ISerializable.hpp
                    </text>
                </a>
            </g>
        </g>
        <!-- Node1&#45;&gt;Node6 -->
        <g id="edge6" class="edge">
            <title>Node1&#45;&gt;Node6</title>
            <path fill="none" stroke="#191970"
                  d="M167.851,-110.4179C197.6607,-101.155 244.0749,-86.7325 276.9212,-76.526"/>
            <polygon fill="#191970" stroke="#191970"
                     points="278.1349,-79.814 286.6459,-73.5042 276.0577,-73.1293 278.1349,-79.814"/>
        </g>
        <!-- Node6&#45;&gt;Node3 -->
        <g id="edge7" class="edge">
            <title>Node6&#45;&gt;Node3</title>
            <path fill="none" stroke="#191970"
                  d="M291.6792,-55.4179C266.7153,-45.9488 227.5364,-31.0878 200.5479,-20.8508"/>
            <polygon fill="#191970" stroke="#191970"
                     points="201.4475,-17.4488 190.8562,-17.1746 198.9649,-23.9937 201.4475,-17.4488"/>
        </g>
        <!-- Node7 -->
        <g id="node8" class="node">
            <title>Node7</title>
            <polygon fill="none" stroke="#bfbfbf"
                     points="297.8965,-.5 297.8965,-18.5 333.3496,-18.5 333.3496,-.5 297.8965,-.5"/>
            <text text-anchor="middle" x="315.623" y="-6.5" font-family="Helvetica,sans-Serif" font-size="10.00"
                  fill="#000000">map
            </text>
        </g>
        <!-- Node6&#45;&gt;Node7 -->
        <g id="edge8" class="edge">
            <title>Node6&#45;&gt;Node7</title>
            <path fill="none" stroke="#191970"
                  d="M315.623,-55.4179C315.623,-48.2164 315.623,-37.8962 315.623,-28.8632"/>
            <polygon fill="#191970" stroke="#191970"
                     points="319.1231,-28.7794 315.623,-18.7795 312.1231,-28.7795 319.1231,-28.7794"/>
        </g>
    </g>
</svg>
