<?xml version="1.0" encoding="UTF-8" standalone="no"?>
<!DOCTYPE svg PUBLIC "-//W3C//DTD SVG 1.1//EN"
        "http://www.w3.org/Graphics/SVG/1.1/DTD/svg11.dtd">
<!-- Generated by graphviz version 2.40.1 (20161225.0304)
 -->
<!-- Title: code/gui/view/CustomWidgets.hpp Pages: 1 -->
<svg width="1478pt" height="247pt"
     viewBox="0.00 0.00 1478.04 247.00" xmlns="http://www.w3.org/2000/svg" xmlns:xlink="http://www.w3.org/1999/xlink">
    <g id="graph0" class="graph" transform="scale(1 1) rotate(0) translate(4 243)">
        <title>code/gui/view/CustomWidgets.hpp</title>
        <!-- Node0 -->
        <g id="node1" class="node">
            <title>Node0</title>
            <polygon fill="#bfbfbf" stroke="#000000"
                     points="560.4312,-220.5 560.4312,-238.5 729.8394,-238.5 729.8394,-220.5 560.4312,-220.5"/>
            <text text-anchor="middle" x="645.1353" y="-226.5" font-family="Helvetica,sans-Serif" font-size="10.00"
                  fill="#000000">code/gui/view/CustomWidgets.hpp
            </text>
        </g>
        <!-- Node1 -->
        <g id="node2" class="node">
            <title>Node1</title>
            <polygon fill="none" stroke="#bfbfbf" points="0,-165.5 0,-183.5 98.2705,-183.5 98.2705,-165.5 0,-165.5"/>
            <text text-anchor="middle" x="49.1353" y="-171.5" font-family="Helvetica,sans-Serif" font-size="10.00"
                  fill="#000000">gtkmm/expander.h
            </text>
        </g>
        <!-- Node0&#45;&gt;Node1 -->
        <g id="edge1" class="edge">
            <title>Node0&#45;&gt;Node1</title>
            <path fill="none" stroke="#191970"
                  d="M560.1282,-224.3662C456.0842,-217.62 274.3167,-204.34 108.8307,-184.1261"/>
            <polygon fill="#191970" stroke="#191970"
                     points="108.8117,-180.5974 98.4585,-182.8473 107.955,-187.5448 108.8117,-180.5974"/>
        </g>
        <!-- Node2 -->
        <g id="node3" class="node">
            <title>Node2</title>
            <polygon fill="none" stroke="#bfbfbf"
                     points="115.9458,-165.5 115.9458,-183.5 240.3247,-183.5 240.3247,-165.5 115.9458,-165.5"/>
            <text text-anchor="middle" x="178.1353" y="-171.5" font-family="Helvetica,sans-Serif" font-size="10.00"
                  fill="#000000">gtkmm/scrolledwindow.h
            </text>
        </g>
        <!-- Node0&#45;&gt;Node2 -->
        <g id="edge2" class="edge">
            <title>Node0&#45;&gt;Node2</title>
            <path fill="none" stroke="#191970"
                  d="M562.7917,-220.4908C484.9258,-211.8677 364.5223,-198.2671 250.424,-184.1428"/>
            <polygon fill="#191970" stroke="#191970"
                     points="250.8199,-180.6652 240.4649,-182.9066 249.9575,-187.6119 250.8199,-180.6652"/>
        </g>
        <!-- Node3 -->
        <g id="node4" class="node">
            <title>Node3</title>
            <polygon fill="none" stroke="#bfbfbf"
                     points="258.6133,-165.5 258.6133,-183.5 369.6572,-183.5 369.6572,-165.5 258.6133,-165.5"/>
            <text text-anchor="middle" x="314.1353" y="-171.5" font-family="Helvetica,sans-Serif" font-size="10.00"
                  fill="#000000">gtkmm/checkbutton.h
            </text>
        </g>
        <!-- Node0&#45;&gt;Node3 -->
        <g id="edge3" class="edge">
            <title>Node0&#45;&gt;Node3</title>
            <path fill="none" stroke="#191970"
                  d="M590.848,-220.4795C532.6471,-210.8086 440.2938,-195.4629 378.4805,-185.1918"/>
            <polygon fill="#191970" stroke="#191970"
                     points="378.8907,-181.712 368.4522,-183.5255 377.7432,-188.6174 378.8907,-181.712"/>
        </g>
        <!-- Node4 -->
        <g id="node5" class="node">
            <title>Node4</title>
            <polygon fill="none" stroke="#bfbfbf"
                     points="387.2314,-165.5 387.2314,-183.5 481.0391,-183.5 481.0391,-165.5 387.2314,-165.5"/>
            <text text-anchor="middle" x="434.1353" y="-171.5" font-family="Helvetica,sans-Serif" font-size="10.00"
                  fill="#000000">gtkmm/treeview.h
            </text>
        </g>
        <!-- Node0&#45;&gt;Node4 -->
        <g id="edge4" class="edge">
            <title>Node0&#45;&gt;Node4</title>
            <path fill="none" stroke="#191970"
                  d="M610.2929,-220.4179C574.221,-211.0152 517.7531,-196.2961 478.5104,-186.067"/>
            <polygon fill="#191970" stroke="#191970"
                     points="479.2382,-182.6398 468.6787,-183.5042 477.4725,-189.4135 479.2382,-182.6398"/>
        </g>
        <!-- Node5 -->
        <g id="node6" class="node">
            <title>Node5</title>
            <polygon fill="none" stroke="#bfbfbf"
                     points="499.3496,-165.5 499.3496,-183.5 590.9209,-183.5 590.9209,-165.5 499.3496,-165.5"/>
            <text text-anchor="middle" x="545.1353" y="-171.5" font-family="Helvetica,sans-Serif" font-size="10.00"
                  fill="#000000">gtkmm/liststore.h
            </text>
        </g>
        <!-- Node0&#45;&gt;Node5 -->
        <g id="edge5" class="edge">
            <title>Node0&#45;&gt;Node5</title>
            <path fill="none" stroke="#191970"
                  d="M628.6223,-220.4179C612.8442,-211.7399 588.8324,-198.5334 570.6038,-188.5077"/>
            <polygon fill="#191970" stroke="#191970"
                     points="572.1217,-185.3481 561.6728,-183.5956 568.7482,-191.4816 572.1217,-185.3481"/>
        </g>
        <!-- Node6 -->
        <g id="node7" class="node">
            <title>Node6</title>
            <polygon fill="none" stroke="#bfbfbf"
                     points="608.5146,-165.5 608.5146,-183.5 681.7559,-183.5 681.7559,-165.5 608.5146,-165.5"/>
            <text text-anchor="middle" x="645.1353" y="-171.5" font-family="Helvetica,sans-Serif" font-size="10.00"
                  fill="#000000">gtkmm/box.h
            </text>
        </g>
        <!-- Node0&#45;&gt;Node6 -->
        <g id="edge6" class="edge">
            <title>Node0&#45;&gt;Node6</title>
            <path fill="none" stroke="#191970"
                  d="M645.1353,-220.4179C645.1353,-213.2164 645.1353,-202.8962 645.1353,-193.8632"/>
            <polygon fill="#191970" stroke="#191970"
                     points="648.6354,-193.7794 645.1353,-183.7795 641.6354,-193.7795 648.6354,-193.7794"/>
        </g>
        <!-- Node7 -->
        <g id="node8" class="node">
            <title>Node7</title>
            <polygon fill="none" stroke="#bfbfbf"
                     points="699.7954,-165.5 699.7954,-183.5 782.4751,-183.5 782.4751,-165.5 699.7954,-165.5"/>
            <text text-anchor="middle" x="741.1353" y="-171.5" font-family="Helvetica,sans-Serif" font-size="10.00"
                  fill="#000000">gtkmm/frame.h
            </text>
        </g>
        <!-- Node0&#45;&gt;Node7 -->
        <g id="edge7" class="edge">
            <title>Node0&#45;&gt;Node7</title>
            <path fill="none" stroke="#191970"
                  d="M660.9877,-220.4179C675.9957,-211.8195 698.7637,-198.7754 716.2024,-188.7844"/>
            <polygon fill="#191970" stroke="#191970"
                     points="718.3223,-191.6037 725.2593,-183.5956 714.8425,-185.5299 718.3223,-191.6037"/>
        </g>
        <!-- Node8 -->
        <g id="node9" class="node">
            <title>Node8</title>
            <polygon fill="none" stroke="#bfbfbf"
                     points="800.2388,-165.5 800.2388,-183.5 874.0317,-183.5 874.0317,-165.5 800.2388,-165.5"/>
            <text text-anchor="middle" x="837.1353" y="-171.5" font-family="Helvetica,sans-Serif" font-size="10.00"
                  fill="#000000">gtkmm/grid.h
            </text>
        </g>
        <!-- Node0&#45;&gt;Node8 -->
        <g id="edge8" class="edge">
            <title>Node0&#45;&gt;Node8</title>
            <path fill="none" stroke="#191970"
                  d="M676.8401,-220.4179C709.4548,-211.0751 760.3932,-196.4834 796.0717,-186.263"/>
            <polygon fill="#191970" stroke="#191970"
                     points="797.0529,-189.6228 805.7024,-183.5042 795.1252,-182.8934 797.0529,-189.6228"/>
        </g>
        <!-- Node9 -->
        <g id="node10" class="node">
            <title>Node9</title>
            <polygon fill="none" stroke="#bfbfbf"
                     points="891.7881,-165.5 891.7881,-183.5 984.4824,-183.5 984.4824,-165.5 891.7881,-165.5"/>
            <text text-anchor="middle" x="938.1353" y="-171.5" font-family="Helvetica,sans-Serif" font-size="10.00"
                  fill="#000000">gtkmm/textview.h
            </text>
        </g>
        <!-- Node0&#45;&gt;Node9 -->
        <g id="edge9" class="edge">
            <title>Node0&#45;&gt;Node9</title>
            <path fill="none" stroke="#191970"
                  d="M693.1902,-220.4795C744.8492,-210.7824 826.9041,-195.3796 881.622,-185.1083"/>
            <polygon fill="#191970" stroke="#191970"
                     points="882.3248,-188.5376 891.5074,-183.2527 881.0333,-181.6577 882.3248,-188.5376"/>
        </g>
        <!-- Node10 -->
        <g id="node11" class="node">
            <title>Node10</title>
            <polygon fill="none" stroke="#bfbfbf"
                     points="1002.3916,-165.5 1002.3916,-183.5 1097.8789,-183.5 1097.8789,-165.5 1002.3916,-165.5"/>
            <text text-anchor="middle" x="1050.1353" y="-171.5" font-family="Helvetica,sans-Serif" font-size="10.00"
                  fill="#000000">gtkmm/hvpaned.h
            </text>
        </g>
        <!-- Node0&#45;&gt;Node10 -->
        <g id="edge10" class="edge">
            <title>Node0&#45;&gt;Node10</title>
            <path fill="none" stroke="#191970"
                  d="M719.9137,-220.4939C788.184,-212.095 892.1525,-198.8634 992.2729,-184.0858"/>
            <polygon fill="#191970" stroke="#191970"
                     points="992.8822,-187.5337 1002.2605,-182.6045 991.8552,-180.6095 992.8822,-187.5337"/>
        </g>
        <!-- Node11 -->
        <g id="node12" class="node">
            <title>Node11</title>
            <g id="a_node12">
                <a xlink:href="../../de/d01/_prescription_8hpp.html" target="_top"
                   xlink:title="../../model/Prescription.hpp">
                    <polygon fill="none" stroke="#000000"
                             points="1115.6626,-165.5 1115.6626,-183.5 1250.6079,-183.5 1250.6079,-165.5 1115.6626,-165.5"/>
                    <text text-anchor="middle" x="1183.1353" y="-171.5" font-family="Helvetica,sans-Serif"
                          font-size="10.00" fill="#000000">../../model/Prescription.hpp
                    </text>
                </a>
            </g>
        </g>
        <!-- Node0&#45;&gt;Node11 -->
        <g id="edge11" class="edge">
            <title>Node0&#45;&gt;Node11</title>
            <path fill="none" stroke="#191970"
                  d="M729.932,-221.8199C820.3856,-213.4748 968.1431,-199.4061 1105.3232,-184.1801"/>
            <polygon fill="#191970" stroke="#191970"
                     points="1106.0502,-187.6209 1115.6011,-183.0349 1105.275,-180.6639 1106.0502,-187.6209"/>
        </g>
        <!-- Node12 -->
        <g id="node13" class="node">
            <title>Node12</title>
            <polygon fill="none" stroke="#bfbfbf"
                     points="1023.5195,-55.5 1023.5195,-73.5 1066.751,-73.5 1066.751,-55.5 1023.5195,-55.5"/>
            <text text-anchor="middle" x="1045.1353" y="-61.5" font-family="Helvetica,sans-Serif" font-size="10.00"
                  fill="#000000">vector
            </text>
        </g>
        <!-- Node11&#45;&gt;Node12 -->
        <g id="edge12" class="edge">
            <title>Node11&#45;&gt;Node12</title>
            <path fill="none" stroke="#191970"
                  d="M1164.4706,-165.3621C1148.27,-157.0013 1124.5836,-143.721 1106.1353,-129 1088.1774,-114.6704 1070.4507,-95.16 1058.7744,-81.3604"/>
            <polygon fill="#191970" stroke="#191970"
                     points="1061.4173,-79.0645 1052.3382,-73.6036 1056.0303,-83.5344 1061.4173,-79.0645"/>
        </g>
        <!-- Node13 -->
        <g id="node14" class="node">
            <title>Node13</title>
            <polygon fill="none" stroke="#bfbfbf"
                     points="1074.9087,-.5 1074.9087,-18.5 1115.3618,-18.5 1115.3618,-.5 1074.9087,-.5"/>
            <text text-anchor="middle" x="1095.1353" y="-6.5" font-family="Helvetica,sans-Serif" font-size="10.00"
                  fill="#000000">string
            </text>
        </g>
        <!-- Node11&#45;&gt;Node13 -->
        <g id="edge13" class="edge">
            <title>Node11&#45;&gt;Node13</title>
            <path fill="none" stroke="#191970"
                  d="M1146.1502,-165.465C1104.4157,-152.9639 1039.0979,-125.8205 1014.1353,-74 1001.5039,-47.7783 1037.2508,-28.9246 1065.2339,-18.6077"/>
            <polygon fill="#191970" stroke="#191970"
                     points="1066.4166,-21.9021 1074.716,-15.3165 1064.1212,-15.2892 1066.4166,-21.9021"/>
        </g>
        <!-- Node14 -->
        <g id="node15" class="node">
            <title>Node14</title>
            <polygon fill="none" stroke="#bfbfbf"
                     points="1215.4087,-.5 1215.4087,-18.5 1250.8618,-18.5 1250.8618,-.5 1215.4087,-.5"/>
            <text text-anchor="middle" x="1233.1353" y="-6.5" font-family="Helvetica,sans-Serif" font-size="10.00"
                  fill="#000000">map
            </text>
        </g>
        <!-- Node11&#45;&gt;Node14 -->
        <g id="edge14" class="edge">
            <title>Node11&#45;&gt;Node14</title>
            <path fill="none" stroke="#191970"
                  d="M1226.4466,-165.4687C1298.4942,-149.4695 1437.8674,-114.036 1466.1353,-74 1471.0058,-67.1017 1471.5038,-61.5183 1466.1353,-55 1440.465,-23.832 1317.5966,-13.7205 1261.355,-10.6915"/>
            <polygon fill="#191970" stroke="#191970"
                     points="1261.2059,-7.1798 1251.0436,-10.176 1260.8564,-14.171 1261.2059,-7.1798"/>
        </g>
        <!-- Node15 -->
        <g id="node16" class="node">
            <title>Node15</title>
            <polygon fill="none" stroke="#bfbfbf"
                     points="1323.2241,-55.5 1323.2241,-73.5 1457.0464,-73.5 1457.0464,-55.5 1323.2241,-55.5"/>
            <text text-anchor="middle" x="1390.1353" y="-61.5" font-family="Helvetica,sans-Serif" font-size="10.00"
                  fill="#000000">gtkmm/treemodelcolumn.h
            </text>
        </g>
        <!-- Node11&#45;&gt;Node15 -->
        <g id="edge15" class="edge">
            <title>Node11&#45;&gt;Node15</title>
            <path fill="none" stroke="#191970"
                  d="M1200.0749,-165.4982C1236.1619,-146.3216 1320.8348,-101.3263 1363.9349,-78.4229"/>
            <polygon fill="#191970" stroke="#191970"
                     points="1365.7733,-81.4095 1372.9615,-73.6261 1362.4885,-75.2281 1365.7733,-81.4095"/>
        </g>
        <!-- Node16 -->
        <g id="node17" class="node">
            <title>Node16</title>
            <g id="a_node17">
                <a xlink:href="../../d3/d1b/_i_serializable_8hpp.html" target="_top"
                   xlink:title="../interfaces/ISerializable.hpp">
                    <polygon fill="none" stroke="#000000"
                             points="1160.9336,-55.5 1160.9336,-73.5 1305.3369,-73.5 1305.3369,-55.5 1160.9336,-55.5"/>
                    <text text-anchor="middle" x="1233.1353" y="-61.5" font-family="Helvetica,sans-Serif"
                          font-size="10.00" fill="#000000">../interfaces/ISerializable.hpp
                    </text>
                </a>
            </g>
        </g>
        <!-- Node11&#45;&gt;Node16 -->
        <g id="edge16" class="edge">
            <title>Node11&#45;&gt;Node16</title>
            <path fill="none" stroke="#191970"
                  d="M1187.227,-165.4982C1195.3943,-147.5302 1213.8646,-106.8954 1224.7241,-83.0046"/>
            <polygon fill="#191970" stroke="#191970"
                     points="1228.0352,-84.1781 1228.987,-73.6261 1221.6626,-81.2815 1228.0352,-84.1781"/>
        </g>
        <!-- Node17 -->
        <g id="node18" class="node">
            <title>Node17</title>
            <g id="a_node18">
                <a xlink:href="../../dd/df9/_drug_8hpp.html" target="_top" xlink:title="Drug.hpp">
                    <polygon fill="none" stroke="#000000"
                             points="1115.5664,-110.5 1115.5664,-128.5 1172.7041,-128.5 1172.7041,-110.5 1115.5664,-110.5"/>
                    <text text-anchor="middle" x="1144.1353" y="-116.5" font-family="Helvetica,sans-Serif"
                          font-size="10.00" fill="#000000">Drug.hpp
                    </text>
                </a>
            </g>
        </g>
        <!-- Node11&#45;&gt;Node17 -->
        <g id="edge19" class="edge">
            <title>Node11&#45;&gt;Node17</title>
            <path fill="none" stroke="#191970"
                  d="M1176.6952,-165.4179C1171.252,-157.7415 1163.2961,-146.5217 1156.6113,-137.0945"/>
            <polygon fill="#191970" stroke="#191970"
                     points="1159.3546,-134.9123 1150.7152,-128.7795 1153.6445,-138.9613 1159.3546,-134.9123"/>
        </g>
        <!-- Node16&#45;&gt;Node13 -->
        <g id="edge17" class="edge">
            <title>Node16&#45;&gt;Node13</title>
            <path fill="none" stroke="#191970"
                  d="M1210.3474,-55.4179C1187.0987,-46.1521 1150.8962,-31.7236 1125.2859,-21.5165"/>
            <polygon fill="#191970" stroke="#191970"
                     points="1126.2873,-18.148 1115.7021,-17.6969 1123.6957,-24.6506 1126.2873,-18.148"/>
        </g>
        <!-- Node16&#45;&gt;Node14 -->
        <g id="edge18" class="edge">
            <title>Node16&#45;&gt;Node14</title>
            <path fill="none" stroke="#191970"
                  d="M1233.1353,-55.4179C1233.1353,-48.2164 1233.1353,-37.8962 1233.1353,-28.8632"/>
            <polygon fill="#191970" stroke="#191970"
                     points="1236.6354,-28.7794 1233.1353,-18.7795 1229.6354,-28.7795 1236.6354,-28.7794"/>
        </g>
        <!-- Node17&#45;&gt;Node12 -->
        <g id="edge21" class="edge">
            <title>Node17&#45;&gt;Node12</title>
            <path fill="none" stroke="#191970"
                  d="M1127.7874,-110.4179C1112.1671,-101.7399 1088.3954,-88.5334 1070.3491,-78.5077"/>
            <polygon fill="#191970" stroke="#191970"
                     points="1071.9487,-75.3925 1061.5074,-73.5956 1068.5492,-81.5117 1071.9487,-75.3925"/>
        </g>
        <!-- Node17&#45;&gt;Node13 -->
        <g id="edge20" class="edge">
            <title>Node17&#45;&gt;Node13</title>
            <path fill="none" stroke="#191970"
                  d="M1138.5554,-110.2942C1133.1967,-101.2455 1125.063,-86.9484 1119.1353,-74 1112.2968,-59.0624 1105.8807,-41.5637 1101.406,-28.5643"/>
            <polygon fill="#191970" stroke="#191970"
                     points="1104.6459,-27.2181 1098.1373,-18.8581 1098.0119,-29.4522 1104.6459,-27.2181"/>
        </g>
        <!-- Node17&#45;&gt;Node14 -->
        <g id="edge22" class="edge">
            <title>Node17&#45;&gt;Node14</title>
            <path fill="none" stroke="#191970"
                  d="M1142.8387,-110.28C1141.4588,-96.9005 1140.815,-71.8634 1152.1353,-55 1164.6506,-36.3562 1187.509,-24.534 1205.7594,-17.6276"/>
            <polygon fill="#191970" stroke="#191970"
                     points="1207.0433,-20.8866 1215.3295,-14.2843 1204.7347,-14.2782 1207.0433,-20.8866"/>
        </g>
        <!-- Node17&#45;&gt;Node15 -->
        <g id="edge23" class="edge">
            <title>Node17&#45;&gt;Node15</title>
            <path fill="none" stroke="#191970"
                  d="M1172.836,-113.0832C1213.7439,-103.9371 1289.4303,-87.0153 1339.7898,-75.7561"/>
            <polygon fill="#191970" stroke="#191970"
                     points="1340.8225,-79.1117 1349.8178,-73.5141 1339.2951,-72.2804 1340.8225,-79.1117"/>
        </g>
        <!-- Node17&#45;&gt;Node16 -->
        <g id="edge24" class="edge">
            <title>Node17&#45;&gt;Node16</title>
            <path fill="none" stroke="#191970"
                  d="M1158.8318,-110.4179C1172.6166,-101.8992 1193.463,-89.0166 1209.5701,-79.0627"/>
            <polygon fill="#191970" stroke="#191970"
                     points="1211.7501,-81.83 1218.4169,-73.5956 1208.0702,-75.8753 1211.7501,-81.83"/>
        </g>
    </g>
</svg>
