<?xml version="1.0" encoding="UTF-8" standalone="no"?>
<!DOCTYPE svg PUBLIC "-//W3C//DTD SVG 1.1//EN"
        "http://www.w3.org/Graphics/SVG/1.1/DTD/svg11.dtd">
<!-- Generated by graphviz version 2.40.1 (20161225.0304)
 -->
<!-- Title: code/gui/view/CustomWidgets.hpp Pages: 1 -->
<!--zoomable 302 -->
<svg id="main" version="1.1" xmlns="http://www.w3.org/2000/svg" xmlns:xlink="http://www.w3.org/1999/xlink" xml:space="preserve" onload="init(evt)">
<style type="text/css"><![CDATA[
.edge:hover path { stroke: red; }
.edge:hover polygon { stroke: red; fill: red; }
]]></style>
<script type="text/javascript"><![CDATA[
var edges = document.getElementsByTagName('g');
if (edges && edges.length) {
  for (var i=0;i<edges.length;i++) {
    if (edges[i].id.substr(0,4)=='edge') {
      edges[i].setAttribute('class','edge');
    }
  }
}
]]></script>
        <defs>
                <circle id="rim" cx="0" cy="0" r="7"/>
                <circle id="rim2" cx="0" cy="0" r="3.5"/>
                <g id="zoomPlus">
                        <use xlink:href="#rim" fill="#404040">
                                <set attributeName="fill" to="#808080" begin="zoomplus.mouseover" end="zoomplus.mouseout"/>
                        </use>
                        <path d="M-4,0h8M0,-4v8" fill="none" stroke="white" stroke-width="1.5" pointer-events="none"/>
                </g>
                <g id="zoomMin">
                        <use xlink:href="#rim" fill="#404040">
                                <set attributeName="fill" to="#808080" begin="zoomminus.mouseover" end="zoomminus.mouseout"/>
                        </use>
                        <path d="M-4,0h8" fill="none" stroke="white" stroke-width="1.5" pointer-events="none"/>
                </g>
                <g id="dirArrow">
                        <path fill="none" stroke="white" stroke-width="1.5" d="M0,-3.0v7 M-2.5,-0.5L0,-3.0L2.5,-0.5"/>
                </g>
               <g id="resetDef">
                       <use xlink:href="#rim2" fill="#404040">
                               <set attributeName="fill" to="#808080" begin="reset.mouseover" end="reset.mouseout"/>
                       </use>
               </g>
        </defs>

<script type="text/javascript">
var viewWidth = 1703;
var viewHeight = 302;
var sectionId = 'dynsection-0';
</script>
<script xlink:href="../../svgpan.js"/>
<svg id="graph" class="graph">
<g id="viewport">
<title>code/gui/view/CustomWidgets.hpp</title>
    <!-- Node0 -->
<g id="node1" class="node">
<title>Node0</title>
<polygon fill="#bfbfbf" stroke="#000000" points="704.4312,-275.5 704.4312,-293.5 873.8394,-293.5 873.8394,-275.5 704.4312,-275.5"/>
<text text-anchor="middle" x="789.1353" y="-281.5" font-family="Helvetica,sans-Serif" font-size="10.00" fill="#000000">code/gui/view/CustomWidgets.hpp</text>
</g>
    <!-- Node1 -->
<g id="node2" class="node">
<title>Node1</title>
<polygon fill="none" stroke="#bfbfbf" points="0,-220.5 0,-238.5 98.2705,-238.5 98.2705,-220.5 0,-220.5"/>
<text text-anchor="middle" x="49.1353" y="-226.5" font-family="Helvetica,sans-Serif" font-size="10.00" fill="#000000">gtkmm/expander.h</text>
</g>
    <!-- Node0&#45;&gt;Node1 -->
<g id="edge1" class="edge">
<title>Node0&#45;&gt;Node1</title>
<path fill="none" stroke="#191970" d="M704.3736,-281.4553C577.1388,-276.3049 329.0532,-264.0169 108.5961,-239.0667"/>
<polygon fill="#191970" stroke="#191970" points="108.7841,-235.5655 98.4513,-237.9073 107.9892,-242.5202 108.7841,-235.5655"/>
</g>
    <!-- Node2 -->
<g id="node3" class="node">
<title>Node2</title>
<polygon fill="none" stroke="#bfbfbf" points="115.9458,-220.5 115.9458,-238.5 240.3247,-238.5 240.3247,-220.5 115.9458,-220.5"/>
<text text-anchor="middle" x="178.1353" y="-226.5" font-family="Helvetica,sans-Serif" font-size="10.00" fill="#000000">gtkmm/scrolledwindow.h</text>
</g>
    <!-- Node0&#45;&gt;Node2 -->
<g id="edge2" class="edge">
<title>Node0&#45;&gt;Node2</title>
<path fill="none" stroke="#191970" d="M704.3666,-278.6469C600.0015,-271.15 417.0891,-257.0673 250.3942,-239.0925"/>
<polygon fill="#191970" stroke="#191970" points="250.7716,-235.613 240.4524,-238.0137 250.0164,-242.5722 250.7716,-235.613"/>
</g>
    <!-- Node3 -->
<g id="node4" class="node">
<title>Node3</title>
<polygon fill="none" stroke="#bfbfbf" points="258.6133,-220.5 258.6133,-238.5 369.6572,-238.5 369.6572,-220.5 258.6133,-220.5"/>
<text text-anchor="middle" x="314.1353" y="-226.5" font-family="Helvetica,sans-Serif" font-size="10.00" fill="#000000">gtkmm/checkbutton.h</text>
</g>
    <!-- Node0&#45;&gt;Node3 -->
<g id="edge3" class="edge">
<title>Node0&#45;&gt;Node3</title>
<path fill="none" stroke="#191970" d="M704.4071,-276.0476C623.5041,-267.7641 497.8993,-254.3515 379.8986,-239.1943"/>
<polygon fill="#191970" stroke="#191970" points="380.3318,-235.7213 369.9659,-237.9119 379.4354,-242.6637 380.3318,-235.7213"/>
</g>
    <!-- Node4 -->
<g id="node5" class="node">
<title>Node4</title>
<polygon fill="none" stroke="#bfbfbf" points="387.2314,-220.5 387.2314,-238.5 481.0391,-238.5 481.0391,-220.5 387.2314,-220.5"/>
<text text-anchor="middle" x="434.1353" y="-226.5" font-family="Helvetica,sans-Serif" font-size="10.00" fill="#000000">gtkmm/treeview.h</text>
</g>
    <!-- Node0&#45;&gt;Node4 -->
<g id="edge4" class="edge">
<title>Node0&#45;&gt;Node4</title>
<path fill="none" stroke="#191970" d="M727.8146,-275.4805C669.5259,-266.8361 579.1255,-253.2463 491.0705,-239.13"/>
<polygon fill="#191970" stroke="#191970" points="491.6081,-235.6715 481.1794,-237.5404 490.4973,-242.5828 491.6081,-235.6715"/>
</g>
    <!-- Node5 -->
<g id="node6" class="node">
<title>Node5</title>
<polygon fill="none" stroke="#bfbfbf" points="499.3496,-220.5 499.3496,-238.5 590.9209,-238.5 590.9209,-220.5 499.3496,-220.5"/>
<text text-anchor="middle" x="545.1353" y="-226.5" font-family="Helvetica,sans-Serif" font-size="10.00" fill="#000000">gtkmm/liststore.h</text>
</g>
    <!-- Node0&#45;&gt;Node5 -->
<g id="edge5" class="edge">
<title>Node0&#45;&gt;Node5</title>
<path fill="none" stroke="#191970" d="M749.1168,-275.4795C707.0096,-265.9881 640.6523,-251.0305 595.1277,-240.7688"/>
<polygon fill="#191970" stroke="#191970" points="595.7004,-237.3101 585.1755,-238.5255 594.1611,-244.1388 595.7004,-237.3101"/>
</g>
    <!-- Node6 -->
<g id="node7" class="node">
<title>Node6</title>
<polygon fill="none" stroke="#bfbfbf" points="608.5146,-220.5 608.5146,-238.5 681.7559,-238.5 681.7559,-220.5 608.5146,-220.5"/>
<text text-anchor="middle" x="645.1353" y="-226.5" font-family="Helvetica,sans-Serif" font-size="10.00" fill="#000000">gtkmm/box.h</text>
</g>
    <!-- Node0&#45;&gt;Node6 -->
<g id="edge6" class="edge">
<title>Node0&#45;&gt;Node6</title>
<path fill="none" stroke="#191970" d="M765.3566,-275.4179C741.6981,-266.3817 705.184,-252.4353 678.6029,-242.2828"/>
<polygon fill="#191970" stroke="#191970" points="679.5399,-238.8941 668.9493,-238.5956 677.0422,-245.4334 679.5399,-238.8941"/>
</g>
    <!-- Node7 -->
<g id="node8" class="node">
<title>Node7</title>
<polygon fill="none" stroke="#bfbfbf" points="699.7954,-220.5 699.7954,-238.5 782.4751,-238.5 782.4751,-220.5 699.7954,-220.5"/>
<text text-anchor="middle" x="741.1353" y="-226.5" font-family="Helvetica,sans-Serif" font-size="10.00" fill="#000000">gtkmm/frame.h</text>
</g>
    <!-- Node0&#45;&gt;Node7 -->
<g id="edge7" class="edge">
<title>Node0&#45;&gt;Node7</title>
<path fill="none" stroke="#191970" d="M781.209,-275.4179C774.3716,-267.5833 764.3127,-256.0575 755.9836,-246.5137"/>
<polygon fill="#191970" stroke="#191970" points="758.4461,-244.0123 749.2337,-238.7795 753.1721,-248.6151 758.4461,-244.0123"/>
</g>
    <!-- Node8 -->
<g id="node9" class="node">
<title>Node8</title>
<polygon fill="none" stroke="#bfbfbf" points="800.2388,-220.5 800.2388,-238.5 874.0317,-238.5 874.0317,-220.5 800.2388,-220.5"/>
<text text-anchor="middle" x="837.1353" y="-226.5" font-family="Helvetica,sans-Serif" font-size="10.00" fill="#000000">gtkmm/grid.h</text>
</g>
    <!-- Node0&#45;&gt;Node8 -->
<g id="edge8" class="edge">
<title>Node0&#45;&gt;Node8</title>
<path fill="none" stroke="#191970" d="M797.0615,-275.4179C803.899,-267.5833 813.9578,-256.0575 822.2869,-246.5137"/>
<polygon fill="#191970" stroke="#191970" points="825.0984,-248.6151 829.0368,-238.7795 819.8244,-244.0123 825.0984,-248.6151"/>
</g>
    <!-- Node9 -->
<g id="node10" class="node">
<title>Node9</title>
<polygon fill="none" stroke="#bfbfbf" points="891.7881,-220.5 891.7881,-238.5 984.4824,-238.5 984.4824,-220.5 891.7881,-220.5"/>
<text text-anchor="middle" x="938.1353" y="-226.5" font-family="Helvetica,sans-Serif" font-size="10.00" fill="#000000">gtkmm/textview.h</text>
</g>
    <!-- Node0&#45;&gt;Node9 -->
<g id="edge9" class="edge">
<title>Node0&#45;&gt;Node9</title>
<path fill="none" stroke="#191970" d="M813.7396,-275.4179C838.3273,-266.3419 876.3346,-252.3123 903.8685,-242.1488"/>
<polygon fill="#191970" stroke="#191970" points="905.3251,-245.342 913.4944,-238.5956 902.9011,-238.7751 905.3251,-245.342"/>
</g>
    <!-- Node10 -->
<g id="node11" class="node">
<title>Node10</title>
<polygon fill="none" stroke="#bfbfbf" points="1002.3916,-220.5 1002.3916,-238.5 1097.8789,-238.5 1097.8789,-220.5 1002.3916,-220.5"/>
<text text-anchor="middle" x="1050.1353" y="-226.5" font-family="Helvetica,sans-Serif" font-size="10.00" fill="#000000">gtkmm/hvpaned.h</text>
</g>
    <!-- Node0&#45;&gt;Node10 -->
<g id="edge10" class="edge">
<title>Node0&#45;&gt;Node10</title>
<path fill="none" stroke="#191970" d="M831.9418,-275.4795C877.172,-265.9482 948.5602,-250.9047 997.2724,-240.6397"/>
<polygon fill="#191970" stroke="#191970" points="998.2419,-244.0123 1007.3053,-238.5255 996.7985,-237.1628 998.2419,-244.0123"/>
</g>
    <!-- Node11 -->
<g id="node12" class="node">
<title>Node11</title>
<polygon fill="none" stroke="#bfbfbf" points="1115.6206,-220.5 1115.6206,-238.5 1216.6499,-238.5 1216.6499,-220.5 1115.6206,-220.5"/>
<text text-anchor="middle" x="1166.1353" y="-226.5" font-family="Helvetica,sans-Serif" font-size="10.00" fill="#000000">gtkmm/listboxrow.h</text>
</g>
    <!-- Node0&#45;&gt;Node11 -->
<g id="edge11" class="edge">
<title>Node0&#45;&gt;Node11</title>
<path fill="none" stroke="#191970" d="M854.6557,-275.467C916.7237,-266.8322 1012.832,-253.2614 1105.4997,-239.2299"/>
<polygon fill="#191970" stroke="#191970" points="1106.2525,-242.6558 1115.6139,-237.6945 1105.2018,-235.7351 1106.2525,-242.6558"/>
</g>
    <!-- Node12 -->
<g id="node13" class="node">
<title>Node12</title>
<g id="a_node13"><a xlink:href="../../de/d01/_prescription_8hpp.html" target="_top" xlink:title="../../model/Prescription.hpp">
<polygon fill="none" stroke="#000000" points="956.6626,-165.5 956.6626,-183.5 1091.6079,-183.5 1091.6079,-165.5 956.6626,-165.5"/>
<text text-anchor="middle" x="1024.1353" y="-171.5" font-family="Helvetica,sans-Serif" font-size="10.00" fill="#000000">../../model/Prescription.hpp</text>
</a>
</g>
</g>
    <!-- Node0&#45;&gt;Node12 -->
<g id="edge12" class="edge">
<title>Node0&#45;&gt;Node12</title>
<path fill="none" stroke="#191970" d="M873.9814,-281.664C994.4304,-276.7513 1203.0431,-264.6213 1226.1353,-239 1231.7887,-232.7273 1231.4097,-226.5946 1226.1353,-220 1217.4952,-209.1974 1146.2216,-194.9366 1090.7546,-185.2812"/>
<polygon fill="#191970" stroke="#191970" points="1091.049,-181.7805 1080.6003,-183.5339 1089.8618,-188.6792 1091.049,-181.7805"/>
</g>
    <!-- Node21 -->
<g id="node22" class="node">
<title>Node21</title>
<g id="a_node22"><a xlink:href="../../d8/d63/_date_8hpp.html" target="_top" xlink:title="../../utils/Date.hpp">
<polygon fill="none" stroke="#000000" points="1601.2266,-165.5 1601.2266,-183.5 1695.0439,-183.5 1695.0439,-165.5 1601.2266,-165.5"/>
<text text-anchor="middle" x="1648.1353" y="-171.5" font-family="Helvetica,sans-Serif" font-size="10.00" fill="#000000">../../utils/Date.hpp</text>
</a>
</g>
</g>
    <!-- Node0&#45;&gt;Node21 -->
<g id="edge29" class="edge">
<title>Node0&#45;&gt;Node21</title>
<path fill="none" stroke="#191970" d="M874.1405,-282.8312C992.0434,-279.4505 1211.5561,-269.2981 1396.1353,-239 1473.1038,-226.3659 1560.9204,-201.4205 1609.9131,-186.5267"/>
<polygon fill="#191970" stroke="#191970" points="1611.2248,-189.7855 1619.7605,-183.5091 1609.1738,-183.0927 1611.2248,-189.7855"/>
</g>
    <!-- Node22 -->
<g id="node23" class="node">
<title>Node22</title>
<g id="a_node23"><a xlink:href="../../d0/da9/_patient_8hpp.html" target="_top" xlink:title="../../model/Patient.hpp">
<polygon fill="none" stroke="#000000" points="1273.4951,-220.5 1273.4951,-238.5 1386.7754,-238.5 1386.7754,-220.5 1273.4951,-220.5"/>
<text text-anchor="middle" x="1330.1353" y="-226.5" font-family="Helvetica,sans-Serif" font-size="10.00" fill="#000000">../../model/Patient.hpp</text>
</a>
</g>
</g>
    <!-- Node0&#45;&gt;Node22 -->
<g id="edge31" class="edge">
<title>Node0&#45;&gt;Node22</title>
<path fill="none" stroke="#191970" d="M874.1406,-277.211C968.3553,-268.9133 1124.7602,-254.489 1259.1353,-239 1260.4209,-238.8518 1261.7193,-238.7 1263.0274,-238.545"/>
<polygon fill="#191970" stroke="#191970" points="1263.6892,-241.9903 1273.1918,-237.3052 1262.8416,-235.0418 1263.6892,-241.9903"/>
</g>
    <!-- Node13 -->
<g id="node14" class="node">
<title>Node13</title>
<polygon fill="none" stroke="#bfbfbf" points="1363.5195,-.5 1363.5195,-18.5 1406.751,-18.5 1406.751,-.5 1363.5195,-.5"/>
<text text-anchor="middle" x="1385.1353" y="-6.5" font-family="Helvetica,sans-Serif" font-size="10.00" fill="#000000">vector</text>
</g>
    <!-- Node12&#45;&gt;Node13 -->
<g id="edge13" class="edge">
<title>Node12&#45;&gt;Node13</title>
<path fill="none" stroke="#191970" d="M1091.8884,-169.715C1206.5222,-160.0448 1430.9125,-133.7864 1478.1353,-74 1498.8084,-47.8268 1451.1787,-28.0049 1416.7353,-17.6189"/>
<polygon fill="#191970" stroke="#191970" points="1417.5768,-14.2192 1406.9991,-14.822 1415.644,-20.947 1417.5768,-14.2192"/>
</g>
    <!-- Node14 -->
<g id="node15" class="node">
<title>Node14</title>
<polygon fill="none" stroke="#bfbfbf" points="1006.9087,-.5 1006.9087,-18.5 1047.3618,-18.5 1047.3618,-.5 1006.9087,-.5"/>
<text text-anchor="middle" x="1027.1353" y="-6.5" font-family="Helvetica,sans-Serif" font-size="10.00" fill="#000000">string</text>
</g>
    <!-- Node12&#45;&gt;Node14 -->
<g id="edge14" class="edge">
<title>Node12&#45;&gt;Node14</title>
<path fill="none" stroke="#191970" d="M999.589,-165.4664C953.5554,-147.1321 861.8624,-103.1852 896.1353,-55 907.9912,-38.3313 961.8234,-23.7445 996.6843,-15.8195"/>
<polygon fill="#191970" stroke="#191970" points="997.8171,-19.1538 1006.8267,-13.579 996.3071,-12.3186 997.8171,-19.1538"/>
</g>
    <!-- Node15 -->
<g id="node16" class="node">
<title>Node15</title>
<polygon fill="none" stroke="#bfbfbf" points="859.4087,-.5 859.4087,-18.5 894.8618,-18.5 894.8618,-.5 859.4087,-.5"/>
<text text-anchor="middle" x="877.1353" y="-6.5" font-family="Helvetica,sans-Serif" font-size="10.00" fill="#000000">map</text>
</g>
    <!-- Node12&#45;&gt;Node15 -->
<g id="edge15" class="edge">
<title>Node12&#45;&gt;Node15</title>
<path fill="none" stroke="#191970" d="M970.1184,-165.497C946.4165,-159.0018 919.9844,-147.9004 902.1353,-129 876.401,-101.7501 874.2903,-55.1282 875.4458,-28.8987"/>
<polygon fill="#191970" stroke="#191970" points="878.9512,-28.9288 876.1075,-18.7227 871.9659,-28.4745 878.9512,-28.9288"/>
</g>
    <!-- Node16 -->
<g id="node17" class="node">
<title>Node16</title>
<polygon fill="none" stroke="#bfbfbf" points="1263.2241,-55.5 1263.2241,-73.5 1397.0464,-73.5 1397.0464,-55.5 1263.2241,-55.5"/>
<text text-anchor="middle" x="1330.1353" y="-61.5" font-family="Helvetica,sans-Serif" font-size="10.00" fill="#000000">gtkmm/treemodelcolumn.h</text>
</g>
    <!-- Node12&#45;&gt;Node16 -->
<g id="edge16" class="edge">
<title>Node12&#45;&gt;Node16</title>
<path fill="none" stroke="#191970" d="M1078.9724,-165.4726C1117.5851,-158.1343 1170.0421,-146.1658 1214.1353,-129 1248.6722,-115.5545 1285.6008,-93.5436 1308.2828,-79.0376"/>
<polygon fill="#191970" stroke="#191970" points="1310.318,-81.8894 1316.8032,-73.5113 1306.5088,-76.0165 1310.318,-81.8894"/>
</g>
    <!-- Node17 -->
<g id="node18" class="node">
<title>Node17</title>
<g id="a_node18"><a xlink:href="../../d3/d1b/_i_serializable_8hpp.html" target="_top" xlink:title="../interfaces/ISerializable.hpp">
<polygon fill="none" stroke="#000000" points="904.9336,-55.5 904.9336,-73.5 1049.3369,-73.5 1049.3369,-55.5 904.9336,-55.5"/>
<text text-anchor="middle" x="977.1353" y="-61.5" font-family="Helvetica,sans-Serif" font-size="10.00" fill="#000000">../interfaces/ISerializable.hpp</text>
</a>
</g>
</g>
    <!-- Node12&#45;&gt;Node17 -->
<g id="edge17" class="edge">
<title>Node12&#45;&gt;Node17</title>
<path fill="none" stroke="#191970" d="M1020.289,-165.4982C1012.6118,-147.5302 995.2497,-106.8954 985.0418,-83.0046"/>
<polygon fill="#191970" stroke="#191970" points="988.1823,-81.4467 981.0346,-73.6261 981.7452,-84.1971 988.1823,-81.4467"/>
</g>
    <!-- Node18 -->
<g id="node19" class="node">
<title>Node18</title>
<g id="a_node19"><a xlink:href="../../dd/df9/_drug_8hpp.html" target="_top" xlink:title="Drug.hpp">
<polygon fill="none" stroke="#000000" points="1147.5664,-110.5 1147.5664,-128.5 1204.7041,-128.5 1204.7041,-110.5 1147.5664,-110.5"/>
<text text-anchor="middle" x="1176.1353" y="-116.5" font-family="Helvetica,sans-Serif" font-size="10.00" fill="#000000">Drug.hpp</text>
</a>
</g>
</g>
    <!-- Node12&#45;&gt;Node18 -->
<g id="edge21" class="edge">
<title>Node12&#45;&gt;Node18</title>
<path fill="none" stroke="#191970" d="M1049.235,-165.4179C1074.5032,-156.2748 1113.6644,-142.1046 1141.7997,-131.924"/>
<polygon fill="#191970" stroke="#191970" points="1143.0385,-135.198 1151.2509,-128.5042 1140.6566,-128.6156 1143.0385,-135.198"/>
</g>
    <!-- Node17&#45;&gt;Node13 -->
<g id="edge20" class="edge">
<title>Node17&#45;&gt;Node13</title>
<path fill="none" stroke="#191970" d="M1044.0513,-55.4795C1132.9234,-43.4992 1286.3993,-22.81 1352.881,-13.848"/>
<polygon fill="#191970" stroke="#191970" points="1353.7064,-17.2685 1363.1492,-12.4638 1352.7712,-10.3312 1353.7064,-17.2685"/>
</g>
    <!-- Node17&#45;&gt;Node14 -->
<g id="edge18" class="edge">
<title>Node17&#45;&gt;Node14</title>
<path fill="none" stroke="#191970" d="M985.3917,-55.4179C992.5861,-47.5041 1003.2041,-35.8243 1011.9306,-26.2251"/>
<polygon fill="#191970" stroke="#191970" points="1014.5624,-28.5332 1018.6994,-18.7795 1009.3828,-23.8245 1014.5624,-28.5332"/>
</g>
    <!-- Node17&#45;&gt;Node15 -->
<g id="edge19" class="edge">
<title>Node17&#45;&gt;Node15</title>
<path fill="none" stroke="#191970" d="M960.6223,-55.4179C944.8442,-46.7399 920.8324,-33.5334 902.6038,-23.5077"/>
<polygon fill="#191970" stroke="#191970" points="904.1217,-20.3481 893.6728,-18.5956 900.7482,-26.4816 904.1217,-20.3481"/>
</g>
    <!-- Node18&#45;&gt;Node13 -->
<g id="edge23" class="edge">
<title>Node18&#45;&gt;Node13</title>
<path fill="none" stroke="#191970" d="M1184.9335,-110.3793C1198.5992,-96.6684 1226.2652,-70.6853 1254.1353,-55 1285.9488,-37.0953 1326.0334,-24.4382 1353.4303,-17.0937"/>
<polygon fill="#191970" stroke="#191970" points="1354.4666,-20.4408 1363.2655,-14.5392 1352.7068,-13.6656 1354.4666,-20.4408"/>
</g>
    <!-- Node18&#45;&gt;Node14 -->
<g id="edge22" class="edge">
<title>Node18&#45;&gt;Node14</title>
<path fill="none" stroke="#191970" d="M1157.2671,-110.367C1140.5547,-101.9119 1115.825,-88.4896 1096.1353,-74 1076.2625,-59.3757 1055.9133,-39.6599 1042.5133,-25.8901"/>
<polygon fill="#191970" stroke="#191970" points="1044.9285,-23.3518 1035.4827,-18.5532 1039.8744,-28.1949 1044.9285,-23.3518"/>
</g>
    <!-- Node18&#45;&gt;Node15 -->
<g id="edge24" class="edge">
<title>Node18&#45;&gt;Node15</title>
<path fill="none" stroke="#191970" d="M1147.1043,-118.597C1083.1938,-116.0221 933.0727,-106.574 896.1353,-74 883.2976,-62.6788 878.9327,-43.1671 877.5463,-28.5611"/>
<polygon fill="#191970" stroke="#191970" points="881.04,-28.3491 876.9757,-18.5649 874.0513,-28.7481 881.04,-28.3491"/>
</g>
    <!-- Node18&#45;&gt;Node16 -->
<g id="edge25" class="edge">
<title>Node18&#45;&gt;Node16</title>
<path fill="none" stroke="#191970" d="M1201.5652,-110.4179C1227.166,-101.2748 1266.8424,-87.1046 1295.348,-76.924"/>
<polygon fill="#191970" stroke="#191970" points="1296.6832,-80.1637 1304.9235,-73.5042 1294.3288,-73.5715 1296.6832,-80.1637"/>
</g>
    <!-- Node18&#45;&gt;Node17 -->
<g id="edge28" class="edge">
<title>Node18&#45;&gt;Node17</title>
<path fill="none" stroke="#191970" d="M1147.1989,-111.5025C1113.6534,-102.2311 1058.0613,-86.8665 1019.6146,-76.2405"/>
<polygon fill="#191970" stroke="#191970" points="1020.3173,-72.8036 1009.7463,-73.5131 1018.4525,-79.5506 1020.3173,-72.8036"/>
</g>
    <!-- Node19 -->
<g id="node20" class="node">
<title>Node19</title>
<polygon fill="none" stroke="#bfbfbf" points="1105.3423,-55.5 1105.3423,-73.5 1206.9282,-73.5 1206.9282,-55.5 1105.3423,-55.5"/>
<text text-anchor="middle" x="1156.1353" y="-61.5" font-family="Helvetica,sans-Serif" font-size="10.00" fill="#000000">gtkmm/treemodel.h</text>
</g>
    <!-- Node18&#45;&gt;Node19 -->
<g id="edge26" class="edge">
<title>Node18&#45;&gt;Node19</title>
<path fill="none" stroke="#191970" d="M1172.8327,-110.4179C1170.1564,-103.0581 1166.2956,-92.441 1162.9605,-83.2695"/>
<polygon fill="#191970" stroke="#191970" points="1166.2164,-81.9813 1159.5096,-73.7795 1159.6378,-84.3735 1166.2164,-81.9813"/>
</g>
    <!-- Node20 -->
<g id="node21" class="node">
<title>Node20</title>
<polygon fill="none" stroke="#bfbfbf" points="1414.9629,-55.5 1414.9629,-73.5 1469.3076,-73.5 1469.3076,-55.5 1414.9629,-55.5"/>
<text text-anchor="middle" x="1442.1353" y="-61.5" font-family="Helvetica,sans-Serif" font-size="10.00" fill="#000000">iostream</text>
</g>
    <!-- Node18&#45;&gt;Node20 -->
<g id="edge27" class="edge">
<title>Node18&#45;&gt;Node20</title>
<path fill="none" stroke="#191970" d="M1204.9439,-114.4007C1246.8324,-106.8565 1327.2012,-91.8953 1404.7327,-74.2218"/>
<polygon fill="#191970" stroke="#191970" points="1405.7001,-77.5908 1414.6619,-71.9396 1404.132,-70.7687 1405.7001,-77.5908"/>
</g>
    <!-- Node21&#45;&gt;Node20 -->
<g id="edge30" class="edge">
<title>Node21&#45;&gt;Node20</title>
<path fill="none" stroke="#191970" d="M1631.2774,-165.4982C1595.3647,-146.3216 1511.1009,-101.3263 1468.2091,-78.4229"/>
<polygon fill="#191970" stroke="#191970" points="1469.6958,-75.2491 1459.226,-73.6261 1466.3986,-81.4239 1469.6958,-75.2491"/>
</g>
    <!-- Node22&#45;&gt;Node12 -->
<g id="edge36" class="edge">
<title>Node22&#45;&gt;Node12</title>
<path fill="none" stroke="#191970" d="M1279.9482,-220.4795C1226.365,-210.8485 1141.4689,-195.5894 1084.329,-185.3191"/>
<polygon fill="#191970" stroke="#191970" points="1084.8112,-181.8498 1074.3497,-183.5255 1083.5728,-188.7394 1084.8112,-181.8498"/>
</g>
    <!-- Node22&#45;&gt;Node13 -->
<g id="edge32" class="edge">
<title>Node22&#45;&gt;Node13</title>
<path fill="none" stroke="#191970" d="M1378.912,-220.4252C1429.6594,-210.4911 1502.8919,-194.5721 1511.1353,-184 1546.6943,-138.3957 1533.0246,-97.7997 1494.1353,-55 1473.9844,-32.8229 1441.3241,-21.1387 1417.0006,-15.1943"/>
<polygon fill="#191970" stroke="#191970" points="1417.6711,-11.7578 1407.1475,-12.9843 1416.139,-18.5881 1417.6711,-11.7578"/>
</g>
    <!-- Node22&#45;&gt;Node14 -->
<g id="edge33" class="edge">
<title>Node22&#45;&gt;Node14</title>
<path fill="none" stroke="#191970" d="M1348.535,-220.4295C1399.2945,-194.29 1533.9505,-116.7296 1478.1353,-55 1449.9327,-23.809 1154.441,-12.9844 1057.6456,-10.2605"/>
<polygon fill="#191970" stroke="#191970" points="1057.7136,-6.7611 1047.622,-9.9877 1057.523,-13.7586 1057.7136,-6.7611"/>
</g>
    <!-- Node22&#45;&gt;Node16 -->
<g id="edge34" class="edge">
<title>Node22&#45;&gt;Node16</title>
<path fill="none" stroke="#191970" d="M1330.1353,-220.1561C1330.1353,-193.9504 1330.1353,-119.3557 1330.1353,-83.8021"/>
<polygon fill="#191970" stroke="#191970" points="1333.6354,-83.7414 1330.1353,-73.7414 1326.6354,-83.7414 1333.6354,-83.7414"/>
</g>
    <!-- Node22&#45;&gt;Node17 -->
<g id="edge35" class="edge">
<title>Node22&#45;&gt;Node17</title>
<path fill="none" stroke="#191970" d="M1310.6536,-220.3939C1251.7091,-192.8419 1075.0667,-110.2753 1005.6209,-77.8148"/>
<polygon fill="#191970" stroke="#191970" points="1007.098,-74.6418 996.5567,-73.578 1004.1338,-80.9833 1007.098,-74.6418"/>
</g>
</g>
</svg>
        <g id="navigator" transform="translate(0 0)" fill="#404254">
                <rect fill="#f2f5e9" fill-opacity="0.5" stroke="#606060" stroke-width=".5" x="0" y="0" width="60" height="60"/>
                <use id="zoomplus" xlink:href="#zoomPlus" x="17" y="9" onmousedown="handleZoom(evt,'in')"/>
                <use id="zoomminus" xlink:href="#zoomMin" x="42" y="9" onmousedown="handleZoom(evt,'out')"/>
                <use id="reset" xlink:href="#resetDef" x="30" y="36" onmousedown="handleReset()"/>
                <g id="arrowUp" xlink:href="#dirArrow" transform="translate(30 24)" onmousedown="handlePan(0,-1)">
                  <use xlink:href="#rim" fill="#404040">
                        <set attributeName="fill" to="#808080" begin="arrowUp.mouseover" end="arrowUp.mouseout"/>
                  </use>
                  <path fill="none" stroke="white" stroke-width="1.5" d="M0,-3.0v7 M-2.5,-0.5L0,-3.0L2.5,-0.5"/>
                </g>
                <g id="arrowRight" xlink:href="#dirArrow" transform="rotate(90) translate(36 -43)" onmousedown="handlePan(1,0)">
                  <use xlink:href="#rim" fill="#404040">
                        <set attributeName="fill" to="#808080" begin="arrowRight.mouseover" end="arrowRight.mouseout"/>
                  </use>
                  <path fill="none" stroke="white" stroke-width="1.5" d="M0,-3.0v7 M-2.5,-0.5L0,-3.0L2.5,-0.5"/>
                </g>
                <g id="arrowDown" xlink:href="#dirArrow" transform="rotate(180) translate(-30 -48)" onmousedown="handlePan(0,1)">
                  <use xlink:href="#rim" fill="#404040">
                        <set attributeName="fill" to="#808080" begin="arrowDown.mouseover" end="arrowDown.mouseout"/>
                  </use>
                  <path fill="none" stroke="white" stroke-width="1.5" d="M0,-3.0v7 M-2.5,-0.5L0,-3.0L2.5,-0.5"/>
                </g>
                <g id="arrowLeft" xlink:href="#dirArrow" transform="rotate(270) translate(-36 17)" onmousedown="handlePan(-1,0)">
                  <use xlink:href="#rim" fill="#404040">
                        <set attributeName="fill" to="#808080" begin="arrowLeft.mouseover" end="arrowLeft.mouseout"/>
                  </use>
                  <path fill="none" stroke="white" stroke-width="1.5" d="M0,-3.0v7 M-2.5,-0.5L0,-3.0L2.5,-0.5"/>
                </g>
        </g>
        <svg viewBox="0 0 15 15" width="100%" height="30px" preserveAspectRatio="xMaxYMin meet">
         <g id="arrow_out" transform="scale(0.3 0.3)">
          <a xlink:href="_custom_widgets_8hpp__incl_org.svg" target="_base">
           <rect id="button" ry="5" rx="5" y="6" x="6" height="38" width="38"
                fill="#f2f5e9" fill-opacity="0.5" stroke="#606060" stroke-width="1.0"/>
           <path id="arrow"
             d="M 11.500037,31.436501 C 11.940474,20.09759 22.043105,11.32322 32.158766,21.979434 L 37.068811,17.246167 C 37.068811,17.246167 37.088388,32 37.088388,32 L 22.160133,31.978069 C 22.160133,31.978069 26.997745,27.140456 26.997745,27.140456 C 18.528582,18.264221 13.291696,25.230495 11.500037,31.436501 z"
             style="fill:#404040;"/>
          </a>
         </g>
        </svg>
</svg>
