<?xml version="1.0" encoding="UTF-8" standalone="no"?>
<!DOCTYPE svg PUBLIC "-//W3C//DTD SVG 1.1//EN"
        "http://www.w3.org/Graphics/SVG/1.1/DTD/svg11.dtd">
<!-- Generated by graphviz version 2.40.1 (20161225.0304)
 -->
<!-- Title: code/gui/MainWindow.hpp Pages: 1 -->
<!--zoomable 247 -->
<svg id="main" version="1.1" xmlns="http://www.w3.org/2000/svg" xmlns:xlink="http://www.w3.org/1999/xlink" xml:space="preserve" onload="init(evt)">
<style type="text/css"><![CDATA[
.edge:hover path { stroke: red; }
.edge:hover polygon { stroke: red; fill: red; }
]]></style>
<script type="text/javascript"><![CDATA[
var edges = document.getElementsByTagName('g');
if (edges && edges.length) {
  for (var i=0;i<edges.length;i++) {
    if (edges[i].id.substr(0,4)=='edge') {
      edges[i].setAttribute('class','edge');
    }
  }
}
]]></script>
        <defs>
                <circle id="rim" cx="0" cy="0" r="7"/>
                <circle id="rim2" cx="0" cy="0" r="3.5"/>
                <g id="zoomPlus">
                        <use xlink:href="#rim" fill="#404040">
                                <set attributeName="fill" to="#808080" begin="zoomplus.mouseover" end="zoomplus.mouseout"/>
                        </use>
                        <path d="M-4,0h8M0,-4v8" fill="none" stroke="white" stroke-width="1.5" pointer-events="none"/>
                </g>
                <g id="zoomMin">
                        <use xlink:href="#rim" fill="#404040">
                                <set attributeName="fill" to="#808080" begin="zoomminus.mouseover" end="zoomminus.mouseout"/>
                        </use>
                        <path d="M-4,0h8" fill="none" stroke="white" stroke-width="1.5" pointer-events="none"/>
                </g>
                <g id="dirArrow">
                        <path fill="none" stroke="white" stroke-width="1.5" d="M0,-3.0v7 M-2.5,-0.5L0,-3.0L2.5,-0.5"/>
                </g>
               <g id="resetDef">
                       <use xlink:href="#rim2" fill="#404040">
                               <set attributeName="fill" to="#808080" begin="reset.mouseover" end="reset.mouseout"/>
                       </use>
               </g>
        </defs>

<script type="text/javascript">
var viewWidth = 530;
var viewHeight = 247;
var sectionId = 'dynsection-0';
</script>
<script xlink:href="../../svgpan.js"/>
<svg id="graph" class="graph">
<g id="viewport">
<title>code/gui/MainWindow.hpp</title>
    <!-- Node0 -->
<g id="node1" class="node">
<title>Node0</title>
<polygon fill="#bfbfbf" stroke="#000000" points="114.5815,-220.5 114.5815,-238.5 247.3247,-238.5 247.3247,-220.5 114.5815,-220.5"/>
<text text-anchor="middle" x="180.9531" y="-226.5" font-family="Helvetica,sans-Serif" font-size="10.00" fill="#000000">code/gui/MainWindow.hpp</text>
</g>
    <!-- Node1 -->
<g id="node2" class="node">
<title>Node1</title>
<polygon fill="none" stroke="#bfbfbf" points="0,-165.5 0,-183.5 39.9063,-183.5 39.9063,-165.5 0,-165.5"/>
<text text-anchor="middle" x="19.9531" y="-171.5" font-family="Helvetica,sans-Serif" font-size="10.00" fill="#000000">glib.h</text>
</g>
    <!-- Node0&#45;&gt;Node1 -->
<g id="edge1" class="edge">
<title>Node0&#45;&gt;Node1</title>
<path fill="none" stroke="#191970" d="M154.3672,-220.4179C125.4799,-210.5495 79.45,-194.825 49.4638,-184.5813"/>
<polygon fill="#191970" stroke="#191970" points="50.5521,-181.2545 39.9575,-181.3338 48.2891,-187.8787 50.5521,-181.2545"/>
</g>
    <!-- Node2 -->
<g id="node3" class="node">
<title>Node2</title>
<polygon fill="none" stroke="#bfbfbf" points="57.9409,-165.5 57.9409,-183.5 143.9653,-183.5 143.9653,-165.5 57.9409,-165.5"/>
<text text-anchor="middle" x="100.9531" y="-171.5" font-family="Helvetica,sans-Serif" font-size="10.00" fill="#000000">gtkmm/widget.h</text>
</g>
    <!-- Node0&#45;&gt;Node2 -->
<g id="edge2" class="edge">
<title>Node0&#45;&gt;Node2</title>
<path fill="none" stroke="#191970" d="M167.7428,-220.4179C155.4677,-211.9788 136.9633,-199.257 122.5423,-189.3426"/>
<polygon fill="#191970" stroke="#191970" points="124.4064,-186.3768 114.1831,-183.5956 120.4407,-192.1451 124.4064,-186.3768"/>
</g>
    <!-- Node3 -->
<g id="node4" class="node">
<title>Node3</title>
<polygon fill="none" stroke="#bfbfbf" points="161.5615,-165.5 161.5615,-183.5 200.3447,-183.5 200.3447,-165.5 161.5615,-165.5"/>
<text text-anchor="middle" x="180.9531" y="-171.5" font-family="Helvetica,sans-Serif" font-size="10.00" fill="#000000">array</text>
</g>
    <!-- Node0&#45;&gt;Node3 -->
<g id="edge3" class="edge">
<title>Node0&#45;&gt;Node3</title>
<path fill="none" stroke="#191970" d="M180.9531,-220.4179C180.9531,-213.2164 180.9531,-202.8962 180.9531,-193.8632"/>
<polygon fill="#191970" stroke="#191970" points="184.4532,-193.7794 180.9531,-183.7795 177.4532,-193.7795 184.4532,-193.7794"/>
</g>
    <!-- Node4 -->
<g id="node5" class="node">
<title>Node4</title>
<g id="a_node5"><a xlink:href="../../de/d0b/_window_8hpp.html" target="_top" xlink:title="Window.hpp">
<polygon fill="none" stroke="#000000" points="218.7119,-165.5 218.7119,-183.5 289.1943,-183.5 289.1943,-165.5 218.7119,-165.5"/>
<text text-anchor="middle" x="253.9531" y="-171.5" font-family="Helvetica,sans-Serif" font-size="10.00" fill="#000000">Window.hpp</text>
</a>
</g>
</g>
    <!-- Node0&#45;&gt;Node4 -->
<g id="edge4" class="edge">
<title>Node0&#45;&gt;Node4</title>
<path fill="none" stroke="#191970" d="M193.0076,-220.4179C204.0365,-212.1084 220.5763,-199.6469 233.6438,-189.8015"/>
<polygon fill="#191970" stroke="#191970" points="235.756,-192.5924 241.6368,-183.7795 231.5437,-187.0016 235.756,-192.5924"/>
</g>
    <!-- Node10 -->
<g id="node11" class="node">
<title>Node10</title>
<g id="a_node11"><a xlink:href="../../dc/de6/_dialog_8hpp.html" target="_top" xlink:title="Dialog.hpp">
<polygon fill="none" stroke="#000000" points="329.0469,-165.5 329.0469,-183.5 392.8594,-183.5 392.8594,-165.5 329.0469,-165.5"/>
<text text-anchor="middle" x="360.9531" y="-171.5" font-family="Helvetica,sans-Serif" font-size="10.00" fill="#000000">Dialog.hpp</text>
</a>
</g>
</g>
    <!-- Node0&#45;&gt;Node10 -->
<g id="edge10" class="edge">
<title>Node0&#45;&gt;Node10</title>
<path fill="none" stroke="#191970" d="M210.6765,-220.4179C240.9914,-211.155 288.1923,-196.7325 321.5953,-186.526"/>
<polygon fill="#191970" stroke="#191970" points="322.9441,-189.7737 331.4848,-183.5042 320.8985,-183.0792 322.9441,-189.7737"/>
</g>
    <!-- Node5 -->
<g id="node6" class="node">
<title>Node5</title>
<g id="a_node6"><a xlink:href="../../d1/d25/_i_subject_8hpp.html" target="_top" xlink:title="../interfaces/ISubject.hpp">
<polygon fill="none" stroke="#000000" points="178.9214,-110.5 178.9214,-128.5 304.9849,-128.5 304.9849,-110.5 178.9214,-110.5"/>
<text text-anchor="middle" x="241.9531" y="-116.5" font-family="Helvetica,sans-Serif" font-size="10.00" fill="#000000">../interfaces/ISubject.hpp</text>
</a>
</g>
</g>
    <!-- Node4&#45;&gt;Node5 -->
<g id="edge5" class="edge">
<title>Node4&#45;&gt;Node5</title>
<path fill="none" stroke="#191970" d="M251.9716,-165.4179C250.3831,-158.1372 248.0991,-147.669 246.1129,-138.5659"/>
<polygon fill="#191970" stroke="#191970" points="249.529,-137.8035 243.9777,-128.7795 242.6899,-139.2957 249.529,-137.8035"/>
</g>
    <!-- Node6 -->
<g id="node7" class="node">
<title>Node6</title>
<polygon fill="none" stroke="#bfbfbf" points="191.2832,-55.5 191.2832,-73.5 220.623,-73.5 220.623,-55.5 191.2832,-55.5"/>
<text text-anchor="middle" x="205.9531" y="-61.5" font-family="Helvetica,sans-Serif" font-size="10.00" fill="#000000">set</text>
</g>
    <!-- Node5&#45;&gt;Node6 -->
<g id="edge6" class="edge">
<title>Node5&#45;&gt;Node6</title>
<path fill="none" stroke="#191970" d="M236.0085,-110.4179C231.0357,-102.8207 223.7912,-91.7527 217.6607,-82.3866"/>
<polygon fill="#191970" stroke="#191970" points="220.432,-80.2297 212.027,-73.7795 214.5751,-84.0633 220.432,-80.2297"/>
</g>
    <!-- Node7 -->
<g id="node8" class="node">
<title>Node7</title>
<g id="a_node8"><a xlink:href="../../d5/d40/_i_observer_8hpp.html" target="_top" xlink:title="IObserver.hpp">
<polygon fill="none" stroke="#000000" points="238.5444,-55.5 238.5444,-73.5 317.3618,-73.5 317.3618,-55.5 238.5444,-55.5"/>
<text text-anchor="middle" x="277.9531" y="-61.5" font-family="Helvetica,sans-Serif" font-size="10.00" fill="#000000">IObserver.hpp</text>
</a>
</g>
</g>
    <!-- Node5&#45;&gt;Node7 -->
<g id="edge7" class="edge">
<title>Node5&#45;&gt;Node7</title>
<path fill="none" stroke="#191970" d="M247.8978,-110.4179C252.8705,-102.8207 260.115,-91.7527 266.2455,-82.3866"/>
<polygon fill="#191970" stroke="#191970" points="269.3311,-84.0633 271.8793,-73.7795 263.4742,-80.2297 269.3311,-84.0633"/>
</g>
    <!-- Node8 -->
<g id="node9" class="node">
<title>Node8</title>
<polygon fill="none" stroke="#bfbfbf" points="225.3374,-.5 225.3374,-18.5 268.5688,-18.5 268.5688,-.5 225.3374,-.5"/>
<text text-anchor="middle" x="246.9531" y="-6.5" font-family="Helvetica,sans-Serif" font-size="10.00" fill="#000000">mutex</text>
</g>
    <!-- Node7&#45;&gt;Node8 -->
<g id="edge8" class="edge">
<title>Node7&#45;&gt;Node8</title>
<path fill="none" stroke="#191970" d="M272.8341,-55.4179C268.5967,-47.8998 262.4435,-36.9829 257.2,-27.6799"/>
<polygon fill="#191970" stroke="#191970" points="260.1426,-25.7724 252.1834,-18.7795 254.0445,-29.2096 260.1426,-25.7724"/>
</g>
    <!-- Node9 -->
<g id="node10" class="node">
<title>Node9</title>
<polygon fill="none" stroke="#bfbfbf" points="286.7759,-.5 286.7759,-18.5 331.1304,-18.5 331.1304,-.5 286.7759,-.5"/>
<text text-anchor="middle" x="308.9531" y="-6.5" font-family="Helvetica,sans-Serif" font-size="10.00" fill="#000000">thread</text>
</g>
    <!-- Node7&#45;&gt;Node9 -->
<g id="edge9" class="edge">
<title>Node7&#45;&gt;Node9</title>
<path fill="none" stroke="#191970" d="M283.0721,-55.4179C287.3096,-47.8998 293.4628,-36.9829 298.7063,-27.6799"/>
<polygon fill="#191970" stroke="#191970" points="301.8617,-29.2096 303.7229,-18.7795 295.7637,-25.7724 301.8617,-29.2096"/>
</g>
    <!-- Node10&#45;&gt;Node5 -->
<g id="edge13" class="edge">
<title>Node10&#45;&gt;Node5</title>
<path fill="none" stroke="#191970" d="M341.3027,-165.4179C322.0961,-156.5409 292.6369,-142.9253 270.7791,-132.823"/>
<polygon fill="#191970" stroke="#191970" points="272.1785,-129.614 261.6327,-128.5956 269.2417,-135.9682 272.1785,-129.614"/>
</g>
    <!-- Node11 -->
<g id="node12" class="node">
<title>Node11</title>
<polygon fill="none" stroke="#bfbfbf" points="323.3745,-110.5 323.3745,-128.5 420.5317,-128.5 420.5317,-110.5 323.3745,-110.5"/>
<text text-anchor="middle" x="371.9531" y="-116.5" font-family="Helvetica,sans-Serif" font-size="10.00" fill="#000000">sigc++/trackable.h</text>
</g>
    <!-- Node10&#45;&gt;Node11 -->
<g id="edge11" class="edge">
<title>Node10&#45;&gt;Node11</title>
<path fill="none" stroke="#191970" d="M362.7696,-165.4179C364.2099,-158.2164 366.2739,-147.8962 368.0805,-138.8632"/>
<polygon fill="#191970" stroke="#191970" points="371.568,-139.2717 370.0972,-128.7795 364.704,-137.8988 371.568,-139.2717"/>
</g>
    <!-- Node12 -->
<g id="node13" class="node">
<title>Node12</title>
<polygon fill="none" stroke="#bfbfbf" points="438.0493,-110.5 438.0493,-128.5 521.8569,-128.5 521.8569,-110.5 438.0493,-110.5"/>
<text text-anchor="middle" x="479.9531" y="-116.5" font-family="Helvetica,sans-Serif" font-size="10.00" fill="#000000">gtkmm/dialog.h</text>
</g>
    <!-- Node10&#45;&gt;Node12 -->
<g id="edge12" class="edge">
<title>Node10&#45;&gt;Node12</title>
<path fill="none" stroke="#191970" d="M380.6036,-165.4179C399.8101,-156.5409 429.2694,-142.9253 451.1271,-132.823"/>
<polygon fill="#191970" stroke="#191970" points="452.6645,-135.9682 460.2735,-128.5956 449.7277,-129.614 452.6645,-135.9682"/>
</g>
</g>
</svg>
        <g id="navigator" transform="translate(0 0)" fill="#404254">
                <rect fill="#f2f5e9" fill-opacity="0.5" stroke="#606060" stroke-width=".5" x="0" y="0" width="60" height="60"/>
                <use id="zoomplus" xlink:href="#zoomPlus" x="17" y="9" onmousedown="handleZoom(evt,'in')"/>
                <use id="zoomminus" xlink:href="#zoomMin" x="42" y="9" onmousedown="handleZoom(evt,'out')"/>
                <use id="reset" xlink:href="#resetDef" x="30" y="36" onmousedown="handleReset()"/>
                <g id="arrowUp" xlink:href="#dirArrow" transform="translate(30 24)" onmousedown="handlePan(0,-1)">
                  <use xlink:href="#rim" fill="#404040">
                        <set attributeName="fill" to="#808080" begin="arrowUp.mouseover" end="arrowUp.mouseout"/>
                  </use>
                  <path fill="none" stroke="white" stroke-width="1.5" d="M0,-3.0v7 M-2.5,-0.5L0,-3.0L2.5,-0.5"/>
                </g>
                <g id="arrowRight" xlink:href="#dirArrow" transform="rotate(90) translate(36 -43)" onmousedown="handlePan(1,0)">
                  <use xlink:href="#rim" fill="#404040">
                        <set attributeName="fill" to="#808080" begin="arrowRight.mouseover" end="arrowRight.mouseout"/>
                  </use>
                  <path fill="none" stroke="white" stroke-width="1.5" d="M0,-3.0v7 M-2.5,-0.5L0,-3.0L2.5,-0.5"/>
                </g>
                <g id="arrowDown" xlink:href="#dirArrow" transform="rotate(180) translate(-30 -48)" onmousedown="handlePan(0,1)">
                  <use xlink:href="#rim" fill="#404040">
                        <set attributeName="fill" to="#808080" begin="arrowDown.mouseover" end="arrowDown.mouseout"/>
                  </use>
                  <path fill="none" stroke="white" stroke-width="1.5" d="M0,-3.0v7 M-2.5,-0.5L0,-3.0L2.5,-0.5"/>
                </g>
                <g id="arrowLeft" xlink:href="#dirArrow" transform="rotate(270) translate(-36 17)" onmousedown="handlePan(-1,0)">
                  <use xlink:href="#rim" fill="#404040">
                        <set attributeName="fill" to="#808080" begin="arrowLeft.mouseover" end="arrowLeft.mouseout"/>
                  </use>
                  <path fill="none" stroke="white" stroke-width="1.5" d="M0,-3.0v7 M-2.5,-0.5L0,-3.0L2.5,-0.5"/>
                </g>
        </g>
        <svg viewBox="0 0 15 15" width="100%" height="30px" preserveAspectRatio="xMaxYMin meet">
         <g id="arrow_out" transform="scale(0.3 0.3)">
          <a xlink:href="_main_window_8hpp__incl_org.svg" target="_base">
           <rect id="button" ry="5" rx="5" y="6" x="6" height="38" width="38"
                fill="#f2f5e9" fill-opacity="0.5" stroke="#606060" stroke-width="1.0"/>
           <path id="arrow"
             d="M 11.500037,31.436501 C 11.940474,20.09759 22.043105,11.32322 32.158766,21.979434 L 37.068811,17.246167 C 37.068811,17.246167 37.088388,32 37.088388,32 L 22.160133,31.978069 C 22.160133,31.978069 26.997745,27.140456 26.997745,27.140456 C 18.528582,18.264221 13.291696,25.230495 11.500037,31.436501 z"
             style="fill:#404040;"/>
          </a>
         </g>
        </svg>
</svg>
