<?xml version="1.0" encoding="UTF-8" standalone="no"?>
<!DOCTYPE svg PUBLIC "-//W3C//DTD SVG 1.1//EN"
        "http://www.w3.org/Graphics/SVG/1.1/DTD/svg11.dtd">
<!-- Generated by graphviz version 2.40.1 (20161225.0304)
 -->
<!-- Title: code/gui/MainWindow.hpp Pages: 1 -->
<svg width="384pt" height="247pt"
     viewBox="0.00 0.00 383.53 247.00" xmlns="http://www.w3.org/2000/svg" xmlns:xlink="http://www.w3.org/1999/xlink">
    <g id="graph0" class="graph" transform="scale(1 1) rotate(0) translate(4 243)">
        <title>code/gui/MainWindow.hpp</title>
        <!-- Node0 -->
        <g id="node1" class="node">
            <title>Node0</title>
            <polygon fill="#bfbfbf" stroke="#000000"
                     points="82.5815,-220.5 82.5815,-238.5 215.3247,-238.5 215.3247,-220.5 82.5815,-220.5"/>
            <text text-anchor="middle" x="148.9531" y="-226.5" font-family="Helvetica,sans-Serif" font-size="10.00"
                  fill="#000000">code/gui/MainWindow.hpp
            </text>
        </g>
        <!-- Node1 -->
        <g id="node2" class="node">
            <title>Node1</title>
            <polygon fill="none" stroke="#bfbfbf" points="0,-165.5 0,-183.5 39.9063,-183.5 39.9063,-165.5 0,-165.5"/>
            <text text-anchor="middle" x="19.9531" y="-171.5" font-family="Helvetica,sans-Serif" font-size="10.00"
                  fill="#000000">glib.h
            </text>
        </g>
        <!-- Node0&#45;&gt;Node1 -->
        <g id="edge1" class="edge">
            <title>Node0&#45;&gt;Node1</title>
            <path fill="none" stroke="#191970"
                  d="M127.6514,-220.4179C106.2667,-211.3004 73.1574,-197.184 49.2941,-187.0097"/>
            <polygon fill="#191970" stroke="#191970"
                     points="50.5836,-183.7547 40.012,-183.0522 47.8381,-190.1939 50.5836,-183.7547"/>
        </g>
        <!-- Node2 -->
        <g id="node3" class="node">
            <title>Node2</title>
            <polygon fill="none" stroke="#bfbfbf"
                     points="57.9409,-165.5 57.9409,-183.5 143.9653,-183.5 143.9653,-165.5 57.9409,-165.5"/>
            <text text-anchor="middle" x="100.9531" y="-171.5" font-family="Helvetica,sans-Serif" font-size="10.00"
                  fill="#000000">gtkmm/widget.h
            </text>
        </g>
        <!-- Node0&#45;&gt;Node2 -->
        <g id="edge2" class="edge">
            <title>Node0&#45;&gt;Node2</title>
            <path fill="none" stroke="#191970"
                  d="M141.0269,-220.4179C134.1894,-212.5833 124.1306,-201.0575 115.8014,-191.5137"/>
            <polygon fill="#191970" stroke="#191970"
                     points="118.2639,-189.0123 109.0516,-183.7795 112.9899,-193.6151 118.2639,-189.0123"/>
        </g>
        <!-- Node3 -->
        <g id="node4" class="node">
            <title>Node3</title>
            <g id="a_node4">
                <a xlink:href="../../de/d0b/_window_8hpp.html" target="_top" xlink:title="Window.hpp">
                    <polygon fill="none" stroke="#000000"
                             points="161.7119,-165.5 161.7119,-183.5 232.1943,-183.5 232.1943,-165.5 161.7119,-165.5"/>
                    <text text-anchor="middle" x="196.9531" y="-171.5" font-family="Helvetica,sans-Serif"
                          font-size="10.00" fill="#000000">Window.hpp
                    </text>
                </a>
            </g>
        </g>
        <!-- Node0&#45;&gt;Node3 -->
        <g id="edge3" class="edge">
            <title>Node0&#45;&gt;Node3</title>
            <path fill="none" stroke="#191970"
                  d="M156.8793,-220.4179C163.7168,-212.5833 173.7756,-201.0575 182.1048,-191.5137"/>
            <polygon fill="#191970" stroke="#191970"
                     points="184.9163,-193.6151 188.8547,-183.7795 179.6423,-189.0123 184.9163,-193.6151"/>
        </g>
        <!-- Node9 -->
        <g id="node10" class="node">
            <title>Node9</title>
            <g id="a_node10">
                <a xlink:href="../../dc/de6/_dialog_8hpp.html" target="_top" xlink:title="Dialog.hpp">
                    <polygon fill="none" stroke="#000000"
                             points="250.0469,-165.5 250.0469,-183.5 313.8594,-183.5 313.8594,-165.5 250.0469,-165.5"/>
                    <text text-anchor="middle" x="281.9531" y="-171.5" font-family="Helvetica,sans-Serif"
                          font-size="10.00" fill="#000000">Dialog.hpp
                    </text>
                </a>
            </g>
        </g>
        <!-- Node0&#45;&gt;Node9 -->
        <g id="edge9" class="edge">
            <title>Node0&#45;&gt;Node9</title>
            <path fill="none" stroke="#191970"
                  d="M170.9154,-220.4179C192.6703,-211.4215 226.1945,-197.5581 250.7171,-187.4172"/>
            <polygon fill="#191970" stroke="#191970"
                     points="252.0548,-190.6515 259.9583,-183.5956 249.3797,-184.1828 252.0548,-190.6515"/>
        </g>
        <!-- Node4 -->
        <g id="node5" class="node">
            <title>Node4</title>
            <g id="a_node5">
                <a xlink:href="../../d1/d25/_i_subject_8hpp.html" target="_top"
                   xlink:title="../interfaces/ISubject.hpp">
                    <polygon fill="none" stroke="#000000"
                             points="133.9214,-110.5 133.9214,-128.5 259.9849,-128.5 259.9849,-110.5 133.9214,-110.5"/>
                    <text text-anchor="middle" x="196.9531" y="-116.5" font-family="Helvetica,sans-Serif"
                          font-size="10.00" fill="#000000">../interfaces/ISubject.hpp
                    </text>
                </a>
            </g>
        </g>
        <!-- Node3&#45;&gt;Node4 -->
        <g id="edge4" class="edge">
            <title>Node3&#45;&gt;Node4</title>
            <path fill="none" stroke="#191970"
                  d="M196.9531,-165.4179C196.9531,-158.2164 196.9531,-147.8962 196.9531,-138.8632"/>
            <polygon fill="#191970" stroke="#191970"
                     points="200.4532,-138.7794 196.9531,-128.7795 193.4532,-138.7795 200.4532,-138.7794"/>
        </g>
        <!-- Node5 -->
        <g id="node6" class="node">
            <title>Node5</title>
            <polygon fill="none" stroke="#bfbfbf"
                     points="146.2832,-55.5 146.2832,-73.5 175.623,-73.5 175.623,-55.5 146.2832,-55.5"/>
            <text text-anchor="middle" x="160.9531" y="-61.5" font-family="Helvetica,sans-Serif" font-size="10.00"
                  fill="#000000">set
            </text>
        </g>
        <!-- Node4&#45;&gt;Node5 -->
        <g id="edge5" class="edge">
            <title>Node4&#45;&gt;Node5</title>
            <path fill="none" stroke="#191970"
                  d="M191.0085,-110.4179C186.0357,-102.8207 178.7912,-91.7527 172.6607,-82.3866"/>
            <polygon fill="#191970" stroke="#191970"
                     points="175.432,-80.2297 167.027,-73.7795 169.5751,-84.0633 175.432,-80.2297"/>
        </g>
        <!-- Node6 -->
        <g id="node7" class="node">
            <title>Node6</title>
            <g id="a_node7">
                <a xlink:href="../../d5/d40/_i_observer_8hpp.html" target="_top" xlink:title="IObserver.hpp">
                    <polygon fill="none" stroke="#000000"
                             points="193.5444,-55.5 193.5444,-73.5 272.3618,-73.5 272.3618,-55.5 193.5444,-55.5"/>
                    <text text-anchor="middle" x="232.9531" y="-61.5" font-family="Helvetica,sans-Serif"
                          font-size="10.00" fill="#000000">IObserver.hpp
                    </text>
                </a>
            </g>
        </g>
        <!-- Node4&#45;&gt;Node6 -->
        <g id="edge6" class="edge">
            <title>Node4&#45;&gt;Node6</title>
            <path fill="none" stroke="#191970"
                  d="M202.8978,-110.4179C207.8705,-102.8207 215.115,-91.7527 221.2455,-82.3866"/>
            <polygon fill="#191970" stroke="#191970"
                     points="224.3311,-84.0633 226.8793,-73.7795 218.4742,-80.2297 224.3311,-84.0633"/>
        </g>
        <!-- Node7 -->
        <g id="node8" class="node">
            <title>Node7</title>
            <polygon fill="none" stroke="#bfbfbf"
                     points="180.3374,-.5 180.3374,-18.5 223.5688,-18.5 223.5688,-.5 180.3374,-.5"/>
            <text text-anchor="middle" x="201.9531" y="-6.5" font-family="Helvetica,sans-Serif" font-size="10.00"
                  fill="#000000">mutex
            </text>
        </g>
        <!-- Node6&#45;&gt;Node7 -->
        <g id="edge7" class="edge">
            <title>Node6&#45;&gt;Node7</title>
            <path fill="none" stroke="#191970"
                  d="M227.8341,-55.4179C223.5967,-47.8998 217.4435,-36.9829 212.2,-27.6799"/>
            <polygon fill="#191970" stroke="#191970"
                     points="215.1426,-25.7724 207.1834,-18.7795 209.0445,-29.2096 215.1426,-25.7724"/>
        </g>
        <!-- Node8 -->
        <g id="node9" class="node">
            <title>Node8</title>
            <polygon fill="none" stroke="#bfbfbf"
                     points="241.7759,-.5 241.7759,-18.5 286.1304,-18.5 286.1304,-.5 241.7759,-.5"/>
            <text text-anchor="middle" x="263.9531" y="-6.5" font-family="Helvetica,sans-Serif" font-size="10.00"
                  fill="#000000">thread
            </text>
        </g>
        <!-- Node6&#45;&gt;Node8 -->
        <g id="edge8" class="edge">
            <title>Node6&#45;&gt;Node8</title>
            <path fill="none" stroke="#191970"
                  d="M238.0721,-55.4179C242.3096,-47.8998 248.4628,-36.9829 253.7063,-27.6799"/>
            <polygon fill="#191970" stroke="#191970"
                     points="256.8617,-29.2096 258.7229,-18.7795 250.7637,-25.7724 256.8617,-29.2096"/>
        </g>
        <!-- Node9&#45;&gt;Node4 -->
        <g id="edge11" class="edge">
            <title>Node9&#45;&gt;Node4</title>
            <path fill="none" stroke="#191970"
                  d="M267.9171,-165.4179C254.7518,-156.8992 234.8424,-144.0166 219.4592,-134.0627"/>
            <polygon fill="#191970" stroke="#191970"
                     points="221.3071,-131.0897 211.01,-128.5956 217.5043,-136.9667 221.3071,-131.0897"/>
        </g>
        <!-- Node10 -->
        <g id="node11" class="node">
            <title>Node10</title>
            <polygon fill="none" stroke="#bfbfbf"
                     points="278.3745,-110.5 278.3745,-128.5 375.5317,-128.5 375.5317,-110.5 278.3745,-110.5"/>
            <text text-anchor="middle" x="326.9531" y="-116.5" font-family="Helvetica,sans-Serif" font-size="10.00"
                  fill="#000000">sigc++/trackable.h
            </text>
        </g>
        <!-- Node9&#45;&gt;Node10 -->
        <g id="edge10" class="edge">
            <title>Node9&#45;&gt;Node10</title>
            <path fill="none" stroke="#191970"
                  d="M289.384,-165.4179C295.7293,-157.6624 305.034,-146.29 312.7957,-136.8035"/>
            <polygon fill="#191970" stroke="#191970"
                     points="315.7373,-138.7354 319.3608,-128.7795 310.3196,-134.3027 315.7373,-138.7354"/>
        </g>
    </g>
</svg>
