<svg version="1.1" xmlns="http://www.w3.org/2000/svg" xmlns:xlink="http://www.w3.org/1999/xlink" width="1313"
     height="543">
    <defs/>
    <g>
        <g transform="translate(-46,-99) scale(1,1)">
            <rect fill="#C0C0C0" stroke="none" x="399" y="159" width="584" height="480" opacity="0.2"/>
        </g>
        <g transform="translate(-46,-99) scale(1,1)">
            <rect fill="#ffffff" stroke="none" x="392" y="152" width="584" height="480"/>
        </g>
        <g transform="translate(-46,-99) scale(1,1)">
            <path fill="none" stroke="#000000" d="M 392 152 L 976 152 L 976 632 L 392 632 L 392 152 Z Z"
                  stroke-miterlimit="10"/>
        </g>
        <g transform="translate(-46,-99) scale(1,1)">
            <g>
                <path fill="none" stroke="none"/>
                <text fill="#000000" stroke="none" font-family="Arial" font-size="13px" font-style="normal"
                      font-weight="bold" text-decoration="none" x="622.5" y="171.5">Prescrizione Farmaci
                </text>
            </g>
        </g>
        <g transform="translate(-46,-99) scale(1,1)">
            <path fill="#ffffff" stroke="none"
                  d="M 1141.8207272727273 417.68 C 1141.8207272727273 412.886167936 1145.7065695976728 409 1150.5 409 C 1155.2934304023272 409 1159.1792727272727 412.886167936 1159.1792727272727 417.68 C 1159.1792727272727 422.473832064 1155.2934304023272 426.36 1150.5 426.36 C 1145.7065695976728 426.36 1141.8207272727273 422.473832064 1141.8207272727273 417.68 Z"/>
        </g>
        <g transform="translate(-46,-99) scale(1,1)">
            <path fill="none" stroke="#000000"
                  d="M 1141.8207272727273 417.68 C 1141.8207272727273 412.886167936 1145.7065695976728 409 1150.5 409 C 1155.2934304023272 409 1159.1792727272727 412.886167936 1159.1792727272727 417.68 C 1159.1792727272727 422.473832064 1155.2934304023272 426.36 1150.5 426.36 C 1145.7065695976728 426.36 1141.8207272727273 422.473832064 1141.8207272727273 417.68 Z"
                  stroke-miterlimit="10"/>
        </g>
        <g transform="translate(-46,-99) scale(1,1)">
            <path fill="none" stroke="#000000" d="M 1150.5 426.36 L 1150.5 443.64" stroke-miterlimit="10"/>
        </g>
        <g transform="translate(-46,-99) scale(1,1)">
            <path fill="none" stroke="#000000" d="M 1141.3101818181817 432.84 L 1159.6898181818183 432.84"
                  stroke-miterlimit="10"/>
        </g>
        <g transform="translate(-46,-99) scale(1,1)">
            <path fill="none" stroke="#000000" d="M 1150.5 443.64 L 1137.7363636363636 461" stroke-miterlimit="10"/>
        </g>
        <g transform="translate(-46,-99) scale(1,1)">
            <path fill="none" stroke="#000000" d="M 1150.5 443.64 L 1163.2636363636364 461" stroke-miterlimit="10"/>
        </g>
        <g transform="translate(-46,-99) scale(1,1)">
            <g>
                <path fill="none" stroke="none"/>
                <text fill="#000000" stroke="none" font-family="Arial" font-size="13px" font-style="normal"
                      font-weight="normal" text-decoration="none" x="1124.5" y="479.5">«Utente»
                </text>
            </g>
        </g>
        <g transform="translate(-46,-99) scale(1,1)">
            <g>
                <path fill="none" stroke="none"/>
                <text fill="#000000" stroke="none" font-family="Arial" font-size="13px" font-style="normal"
                      font-weight="bold" text-decoration="none" x="1129.5" y="494.5">Medico
                </text>
            </g>
        </g>
        <g transform="translate(-46,-99) scale(1,1)">
            <path fill="#ffffff" stroke="none"
                  d="M 1273.8207272727273 473.68 C 1273.8207272727273 468.886167936 1277.7065695976728 465 1282.5 465 C 1287.2934304023272 465 1291.1792727272727 468.886167936 1291.1792727272727 473.68 C 1291.1792727272727 478.473832064 1287.2934304023272 482.36 1282.5 482.36 C 1277.7065695976728 482.36 1273.8207272727273 478.473832064 1273.8207272727273 473.68 Z"/>
        </g>
        <g transform="translate(-46,-99) scale(1,1)">
            <path fill="none" stroke="#000000"
                  d="M 1273.8207272727273 473.68 C 1273.8207272727273 468.886167936 1277.7065695976728 465 1282.5 465 C 1287.2934304023272 465 1291.1792727272727 468.886167936 1291.1792727272727 473.68 C 1291.1792727272727 478.473832064 1287.2934304023272 482.36 1282.5 482.36 C 1277.7065695976728 482.36 1273.8207272727273 478.473832064 1273.8207272727273 473.68 Z"
                  stroke-miterlimit="10"/>
        </g>
        <g transform="translate(-46,-99) scale(1,1)">
            <path fill="none" stroke="#000000" d="M 1282.5 482.36 L 1282.5 499.64" stroke-miterlimit="10"/>
        </g>
        <g transform="translate(-46,-99) scale(1,1)">
            <path fill="none" stroke="#000000" d="M 1273.3101818181817 488.84 L 1291.6898181818183 488.84"
                  stroke-miterlimit="10"/>
        </g>
        <g transform="translate(-46,-99) scale(1,1)">
            <path fill="none" stroke="#000000" d="M 1282.5 499.64 L 1269.7363636363636 517" stroke-miterlimit="10"/>
        </g>
        <g transform="translate(-46,-99) scale(1,1)">
            <path fill="none" stroke="#000000" d="M 1282.5 499.64 L 1295.2636363636364 517" stroke-miterlimit="10"/>
        </g>
        <g transform="translate(-46,-99) scale(1,1)">
            <g>
                <path fill="none" stroke="none"/>
                <text fill="#000000" stroke="none" font-family="Arial" font-size="13px" font-style="normal"
                      font-weight="normal" text-decoration="none" x="1256.5" y="535.5">«Utente»
                </text>
            </g>
        </g>
        <g transform="translate(-46,-99) scale(1,1)">
            <g>
                <path fill="none" stroke="none"/>
                <text fill="#000000" stroke="none" font-family="Arial" font-size="13px" font-style="normal"
                      font-weight="bold" text-decoration="none" x="1225" y="550.5">Medico Consorziato
                </text>
            </g>
        </g>
        <g transform="translate(-46,-99) scale(1,1)">
            <path fill="none" stroke="#000000" d="M 1215 482 L 1182 468" stroke-miterlimit="10"/>
        </g>
        <g transform="translate(-46,-99) scale(1,1)">
            <path fill="#FFFFFF" stroke="none"
                  d="M 1203.9991996880017 468.18765150525087 L 1182 468 L 1197.4230936282004 483.6884729319258"/>
        </g>
        <g transform="translate(-46,-99) scale(1,1)">
            <path fill="none" stroke="#000000"
                  d="M 1203.9991996880017 468.18765150525087 L 1182 468 L 1197.4230936282004 483.6884729319258 L 1203.9991996880017 468.18765150525087"
                  stroke-miterlimit="10"/>
        </g>
        <g transform="translate(-46,-99) scale(1,1)">
            <path fill="#ffffff" stroke="none"
                  d="M 1275.3207272727273 361.68 C 1275.3207272727273 356.886167936 1279.2065695976728 353 1284 353 C 1288.7934304023272 353 1292.6792727272727 356.886167936 1292.6792727272727 361.68 C 1292.6792727272727 366.473832064 1288.7934304023272 370.36 1284 370.36 C 1279.2065695976728 370.36 1275.3207272727273 366.473832064 1275.3207272727273 361.68 Z"/>
        </g>
        <g transform="translate(-46,-99) scale(1,1)">
            <path fill="none" stroke="#000000"
                  d="M 1275.3207272727273 361.68 C 1275.3207272727273 356.886167936 1279.2065695976728 353 1284 353 C 1288.7934304023272 353 1292.6792727272727 356.886167936 1292.6792727272727 361.68 C 1292.6792727272727 366.473832064 1288.7934304023272 370.36 1284 370.36 C 1279.2065695976728 370.36 1275.3207272727273 366.473832064 1275.3207272727273 361.68 Z"
                  stroke-miterlimit="10"/>
        </g>
        <g transform="translate(-46,-99) scale(1,1)">
            <path fill="none" stroke="#000000" d="M 1284 370.36 L 1284 387.64" stroke-miterlimit="10"/>
        </g>
        <g transform="translate(-46,-99) scale(1,1)">
            <path fill="none" stroke="#000000" d="M 1274.8101818181817 376.84 L 1293.1898181818183 376.84"
                  stroke-miterlimit="10"/>
        </g>
        <g transform="translate(-46,-99) scale(1,1)">
            <path fill="none" stroke="#000000" d="M 1284 387.64 L 1271.2363636363636 405" stroke-miterlimit="10"/>
        </g>
        <g transform="translate(-46,-99) scale(1,1)">
            <path fill="none" stroke="#000000" d="M 1284 387.64 L 1296.7636363636364 405" stroke-miterlimit="10"/>
        </g>
        <g transform="translate(-46,-99) scale(1,1)">
            <g>
                <path fill="none" stroke="none"/>
                <text fill="#000000" stroke="none" font-family="Arial" font-size="13px" font-style="normal"
                      font-weight="normal" text-decoration="none" x="1258" y="423.5">«Utente»
                </text>
            </g>
        </g>
        <g transform="translate(-46,-99) scale(1,1)">
            <g>
                <path fill="none" stroke="none"/>
                <text fill="#000000" stroke="none" font-family="Arial" font-size="13px" font-style="normal"
                      font-weight="bold" text-decoration="none" x="1239" y="438.5">Medico di Base
                </text>
            </g>
        </g>
        <g transform="translate(-46,-99) scale(1,1)">
            <path fill="none" stroke="#000000" d="M 1231 420 L 1182 441" stroke-miterlimit="10"/>
        </g>
        <g transform="translate(-46,-99) scale(1,1)">
            <path fill="#FFFFFF" stroke="none"
                  d="M 1197.3655236105367 425.2551378483634 L 1182 441 L 1203.9983647377621 440.7317671452228"/>
        </g>
        <g transform="translate(-46,-99) scale(1,1)">
            <path fill="none" stroke="#000000"
                  d="M 1197.3655236105367 425.2551378483634 L 1182 441 L 1203.9983647377621 440.7317671452228 L 1197.3655236105367 425.2551378483634"
                  stroke-miterlimit="10"/>
        </g>
        <g transform="translate(-46,-99) scale(1,1)">
            <path fill="#C0C0C0" stroke="none"
                  d="M 591 205.5 C 591 197.4918704 637.5623808 191 695 191 C 752.4376192 191 799 197.4918704 799 205.5 C 799 213.5081296 752.4376192 220 695 220 C 637.5623808 220 591 213.5081296 591 205.5 Z"
                  opacity="0.2"/>
        </g>
        <g transform="translate(-46,-99) scale(1,1)">
            <path fill="#ffffff" stroke="none"
                  d="M 584 198.5 C 584 190.4918704 630.5623808 184 688 184 C 745.4376192 184 792 190.4918704 792 198.5 C 792 206.5081296 745.4376192 213 688 213 C 630.5623808 213 584 206.5081296 584 198.5 Z"/>
        </g>
        <g transform="translate(-46,-99) scale(1,1)">
            <path fill="none" stroke="#000000"
                  d="M 584 198.5 C 584 190.4918704 630.5623808 184 688 184 C 745.4376192 184 792 190.4918704 792 198.5 C 792 206.5081296 745.4376192 213 688 213 C 630.5623808 213 584 206.5081296 584 198.5 Z"
                  stroke-miterlimit="10"/>
        </g>
        <g transform="translate(-46,-99) scale(1,1)">
            <path fill="none" stroke="#000000" d="M 584 218 L 792 218" stroke-miterlimit="10"/>
        </g>
        <g transform="translate(-46,-99) scale(1,1)">
            <g>
                <path fill="none" stroke="none"/>
                <text fill="#000000" stroke="none" font-family="Arial" font-size="13px" font-style="normal"
                      font-weight="bold" text-decoration="none" x="624" y="208">Richiesta prescrizione
                </text>
            </g>
        </g>
        <g transform="translate(-46,-99) scale(1,1)">
            <g>
                <path fill="none" stroke="none"/>
                <text fill="#000000" stroke="none" font-family="Arial" font-size="13px" font-style="normal"
                      font-weight="normal" text-decoration="none" x="589" y="235.5">Paziente non registrato
                </text>
            </g>
        </g>
        <g transform="translate(-46,-99) scale(1,1)">
            <path fill="#ffffff" stroke="none"
                  d="M 126.82072727272728 118.68 C 126.82072727272728 113.886167936 130.70656959767274 110 135.5 110 C 140.29343040232726 110 144.17927272727272 113.886167936 144.17927272727272 118.68 C 144.17927272727272 123.473832064 140.29343040232726 127.36 135.5 127.36 C 130.70656959767274 127.36 126.82072727272728 123.473832064 126.82072727272728 118.68 Z"/>
        </g>
        <g transform="translate(-46,-99) scale(1,1)">
            <path fill="none" stroke="#000000"
                  d="M 126.82072727272728 118.68 C 126.82072727272728 113.886167936 130.70656959767274 110 135.5 110 C 140.29343040232726 110 144.17927272727272 113.886167936 144.17927272727272 118.68 C 144.17927272727272 123.473832064 140.29343040232726 127.36 135.5 127.36 C 130.70656959767274 127.36 126.82072727272728 123.473832064 126.82072727272728 118.68 Z"
                  stroke-miterlimit="10"/>
        </g>
        <g transform="translate(-46,-99) scale(1,1)">
            <path fill="none" stroke="#000000" d="M 135.5 127.36 L 135.5 144.64" stroke-miterlimit="10"/>
        </g>
        <g transform="translate(-46,-99) scale(1,1)">
            <path fill="none" stroke="#000000" d="M 126.31018181818183 133.84 L 144.68981818181817 133.84"
                  stroke-miterlimit="10"/>
        </g>
        <g transform="translate(-46,-99) scale(1,1)">
            <path fill="none" stroke="#000000" d="M 135.5 144.64 L 122.73636363636365 162" stroke-miterlimit="10"/>
        </g>
        <g transform="translate(-46,-99) scale(1,1)">
            <path fill="none" stroke="#000000" d="M 135.5 144.64 L 148.26363636363635 162" stroke-miterlimit="10"/>
        </g>
        <g transform="translate(-46,-99) scale(1,1)">
            <g>
                <path fill="none" stroke="none"/>
                <text fill="#000000" stroke="none" font-family="Arial" font-size="13px" font-style="normal"
                      font-weight="normal" text-decoration="none" x="108.5" y="180.5">«Cliente»
                </text>
            </g>
        </g>
        <g transform="translate(-46,-99) scale(1,1)">
            <g>
                <path fill="none" stroke="none"/>
                <text fill="#000000" stroke="none" font-family="Arial" font-size="13px" font-style="normal"
                      font-weight="bold" text-decoration="none" x="110" y="195.5">Paziente
                </text>
            </g>
        </g>
        <g transform="translate(-46,-99) scale(1,1)">
            <path fill="#ffffff" stroke="none"
                  d="M 1147.3207272727273 169.68 C 1147.3207272727273 164.886167936 1151.2065695976728 161 1156 161 C 1160.7934304023272 161 1164.6792727272727 164.886167936 1164.6792727272727 169.68 C 1164.6792727272727 174.47383206400002 1160.7934304023272 178.36 1156 178.36 C 1151.2065695976728 178.36 1147.3207272727273 174.47383206400002 1147.3207272727273 169.68 Z"/>
        </g>
        <g transform="translate(-46,-99) scale(1,1)">
            <path fill="none" stroke="#000000"
                  d="M 1147.3207272727273 169.68 C 1147.3207272727273 164.886167936 1151.2065695976728 161 1156 161 C 1160.7934304023272 161 1164.6792727272727 164.886167936 1164.6792727272727 169.68 C 1164.6792727272727 174.47383206400002 1160.7934304023272 178.36 1156 178.36 C 1151.2065695976728 178.36 1147.3207272727273 174.47383206400002 1147.3207272727273 169.68 Z"
                  stroke-miterlimit="10"/>
        </g>
        <g transform="translate(-46,-99) scale(1,1)">
            <path fill="none" stroke="#000000" d="M 1156 178.36 L 1156 195.64" stroke-miterlimit="10"/>
        </g>
        <g transform="translate(-46,-99) scale(1,1)">
            <path fill="none" stroke="#000000" d="M 1146.8101818181817 184.84 L 1165.1898181818183 184.84"
                  stroke-miterlimit="10"/>
        </g>
        <g transform="translate(-46,-99) scale(1,1)">
            <path fill="none" stroke="#000000" d="M 1156 195.64 L 1143.2363636363636 213" stroke-miterlimit="10"/>
        </g>
        <g transform="translate(-46,-99) scale(1,1)">
            <path fill="none" stroke="#000000" d="M 1156 195.64 L 1168.7636363636364 213" stroke-miterlimit="10"/>
        </g>
        <g transform="translate(-46,-99) scale(1,1)">
            <g>
                <path fill="none" stroke="none"/>
                <text fill="#000000" stroke="none" font-family="Arial" font-size="13px" font-style="normal"
                      font-weight="normal" text-decoration="none" x="1130" y="231.5">«Utente»
                </text>
            </g>
        </g>
        <g transform="translate(-46,-99) scale(1,1)">
            <g>
                <path fill="none" stroke="none"/>
                <text fill="#000000" stroke="none" font-family="Arial" font-size="13px" font-style="normal"
                      font-weight="bold" text-decoration="none" x="1126.5" y="246.5">Segreteria
                </text>
            </g>
        </g>
        <g transform="translate(-46,-99) scale(1,1)">
            <path fill="none" stroke="#000000" d="M 167 200 L 584 200" stroke-miterlimit="10"/>
        </g>
        <g transform="translate(-46,-99) scale(1,1)">
            <path fill="none" stroke="#000000"
                  d="M 573.8373251423759 204.209517756016 L 584 200 L 573.8373251423758 195.790482243984"
                  stroke-miterlimit="10"/>
        </g>
        <g transform="translate(-46,-99) scale(1,1)">
            <g>
                <path fill="none" stroke="none"/>
                <text fill="#000000" stroke="none" font-family="Arial" font-size="13px" font-style="normal"
                      font-weight="normal" text-decoration="none" x="182.5" y="195.5">+Il paziente effettua una
                    richiesta
                </text>
            </g>
        </g>
        <g transform="translate(-46,-99) scale(1,1)">
            <g>
                <path fill="none" stroke="none"/>
                <text fill="#000000" stroke="none" font-family="Arial" font-size="13px" font-style="normal"
                      font-weight="normal" text-decoration="none" x="184.5" y="218.5">1
                </text>
            </g>
        </g>
        <g transform="translate(-46,-99) scale(1,1)">
            <g>
                <path fill="none" stroke="none"/>
                <text fill="#000000" stroke="none" font-family="Arial" font-size="13px" font-style="normal"
                      font-weight="normal" text-decoration="none" x="551.5" y="218.5">1..*
                </text>
            </g>
        </g>
        <g transform="translate(-46,-99) scale(1,1)">
            <path fill="none" stroke="#000000" d="M 1120 200 L 792 200" stroke-miterlimit="10"/>
        </g>
        <g transform="translate(-46,-99) scale(1,1)">
            <g>
                <path fill="none" stroke="none"/>
                <text fill="#000000" stroke="none" font-family="Arial" font-size="13px" font-style="normal"
                      font-weight="normal" text-decoration="none" x="846.5" y="195.5">+riceve la richiesta
                </text>
            </g>
        </g>
        <g transform="translate(-46,-99) scale(1,1)">
            <g>
                <path fill="none" stroke="none"/>
                <text fill="#000000" stroke="none" font-family="Arial" font-size="13px" font-style="normal"
                      font-weight="normal" text-decoration="none" x="1094.5" y="193.5">1
                </text>
            </g>
        </g>
        <g transform="translate(-46,-99) scale(1,1)">
            <g>
                <path fill="none" stroke="none"/>
                <text fill="#000000" stroke="none" font-family="Arial" font-size="13px" font-style="normal"
                      font-weight="normal" text-decoration="none" x="802.5" y="193.5">1..*
                </text>
            </g>
        </g>
        <g transform="translate(-46,-99) scale(1,1)">
            <path fill="#C0C0C0" stroke="none"
                  d="M 591 312 C 591 302.6111584 638.6816688 295 697.5 295 C 756.3183312 295 804 302.6111584 804 312 C 804 321.3888416 756.3183312 329 697.5 329 C 638.6816688 329 591 321.3888416 591 312 Z"
                  opacity="0.2"/>
        </g>
        <g transform="translate(-46,-99) scale(1,1)">
            <path fill="#ffffff" stroke="none"
                  d="M 584 305 C 584 295.6111584 631.6816688 288 690.5 288 C 749.3183312 288 797 295.6111584 797 305 C 797 314.3888416 749.3183312 322 690.5 322 C 631.6816688 322 584 314.3888416 584 305 Z"/>
        </g>
        <g transform="translate(-46,-99) scale(1,1)">
            <path fill="none" stroke="#000000"
                  d="M 584 305 C 584 295.6111584 631.6816688 288 690.5 288 C 749.3183312 288 797 295.6111584 797 305 C 797 314.3888416 749.3183312 322 690.5 322 C 631.6816688 322 584 314.3888416 584 305 Z"
                  stroke-miterlimit="10"/>
        </g>
        <g transform="translate(-46,-99) scale(1,1)">
            <g>
                <path fill="none" stroke="none"/>
                <text fill="#000000" stroke="none" font-family="Arial" font-size="13px" font-style="normal"
                      font-weight="bold" text-decoration="none" x="623.5" y="312">Registrazione Paziente
                </text>
            </g>
        </g>
        <g transform="translate(-46,-99) scale(1,1)">
            <path fill="none" stroke="#000000" d="M 690 287 L 689 242" stroke-miterlimit="10" stroke-dasharray="3"/>
        </g>
        <g transform="translate(-46,-99) scale(1,1)">
            <path fill="none" stroke="#000000"
                  d="M 693.4342602311418 252.0666447340966 L 689 242 L 685.0173027237106 252.25368823426172"
                  stroke-miterlimit="10"/>
        </g>
        <g transform="translate(-46,-99) scale(1,1)">
            <g>
                <path fill="none" stroke="none"/>
                <text fill="#000000" stroke="none" font-family="Arial" font-size="13px" font-style="normal"
                      font-weight="normal" text-decoration="none" x="632.5" y="269.5">«extend»
                </text>
            </g>
        </g>
        <g transform="translate(-46,-99) scale(1,1)">
            <path fill="#C0C0C0" stroke="none"
                  d="M 671 448 C 671 438.6111584 733.4562704 431 810.5 431 C 887.5437296 431 950 438.6111584 950 448 C 950 457.3888416 887.5437296 465 810.5 465 C 733.4562704 465 671 457.3888416 671 448 Z"
                  opacity="0.2"/>
        </g>
        <g transform="translate(-46,-99) scale(1,1)">
            <path fill="#ffffff" stroke="none"
                  d="M 664 441 C 664 431.6111584 726.4562704 424 803.5 424 C 880.5437296 424 943 431.6111584 943 441 C 943 450.3888416 880.5437296 458 803.5 458 C 726.4562704 458 664 450.3888416 664 441 Z"/>
        </g>
        <g transform="translate(-46,-99) scale(1,1)">
            <path fill="none" stroke="#000000"
                  d="M 664 441 C 664 431.6111584 726.4562704 424 803.5 424 C 880.5437296 424 943 431.6111584 943 441 C 943 450.3888416 880.5437296 458 803.5 458 C 726.4562704 458 664 450.3888416 664 441 Z"
                  stroke-miterlimit="10"/>
        </g>
        <g transform="translate(-46,-99) scale(1,1)">
            <g>
                <path fill="none" stroke="none"/>
                <text fill="#000000" stroke="none" font-family="Arial" font-size="13px" font-style="normal"
                      font-weight="bold" text-decoration="none" x="715" y="448">Emissione ricetta su Richiesta
                </text>
            </g>
        </g>
        <g transform="translate(-46,-99) scale(1,1)">
            <path fill="none" stroke="#000000" d="M 1120 440 L 943 440" stroke-miterlimit="10"/>
        </g>
        <g transform="translate(-46,-99) scale(1,1)">
            <path fill="none" stroke="#000000"
                  d="M 953.1626748576241 435.790482243984 L 943 440 L 953.1626748576241 444.209517756016"
                  stroke-miterlimit="10"/>
        </g>
        <g transform="translate(-46,-99) scale(1,1)">
            <g>
                <path fill="none" stroke="none"/>
                <text fill="#000000" stroke="none" font-family="Arial" font-size="13px" font-style="normal"
                      font-weight="normal" text-decoration="none" x="989.5" y="436.5">+Emette la ricetta
                </text>
            </g>
        </g>
        <g transform="translate(-46,-99) scale(1,1)">
            <g>
                <path fill="none" stroke="none"/>
                <text fill="#000000" stroke="none" font-family="Arial" font-size="13px" font-style="normal"
                      font-weight="normal" text-decoration="none" x="1095.5" y="460.5">1
                </text>
            </g>
        </g>
        <g transform="translate(-46,-99) scale(1,1)">
            <g>
                <path fill="none" stroke="none"/>
                <text fill="#000000" stroke="none" font-family="Arial" font-size="13px" font-style="normal"
                      font-weight="normal" text-decoration="none" x="950.5" y="459.5">1..*
                </text>
            </g>
        </g>
        <g transform="translate(-46,-99) scale(1,1)">
            <path fill="#C0C0C0" stroke="none"
                  d="M 591 376 C 591 366.6111584 637.5623808 359 695 359 C 752.4376192 359 799 366.6111584 799 376 C 799 385.3888416 752.4376192 393 695 393 C 637.5623808 393 591 385.3888416 591 376 Z"
                  opacity="0.2"/>
        </g>
        <g transform="translate(-46,-99) scale(1,1)">
            <path fill="#ffffff" stroke="none"
                  d="M 584 369 C 584 359.6111584 630.5623808 352 688 352 C 745.4376192 352 792 359.6111584 792 369 C 792 378.3888416 745.4376192 386 688 386 C 630.5623808 386 584 378.3888416 584 369 Z"/>
        </g>
        <g transform="translate(-46,-99) scale(1,1)">
            <path fill="none" stroke="#000000"
                  d="M 584 369 C 584 359.6111584 630.5623808 352 688 352 C 745.4376192 352 792 359.6111584 792 369 C 792 378.3888416 745.4376192 386 688 386 C 630.5623808 386 584 378.3888416 584 369 Z"
                  stroke-miterlimit="10"/>
        </g>
        <g transform="translate(-46,-99) scale(1,1)">
            <g>
                <path fill="none" stroke="none"/>
                <text fill="#000000" stroke="none" font-family="Arial" font-size="13px" font-style="normal"
                      font-weight="bold" text-decoration="none" x="623.5" y="376">Consegna della ricetta
                </text>
            </g>
        </g>
        <g transform="translate(-46,-99) scale(1,1)">
            <path fill="none" stroke="#000000" d="M 1168 252 L 1168 369 L 792 369" stroke-miterlimit="10"/>
        </g>
        <g transform="translate(-46,-99) scale(1,1)">
            <path fill="none" stroke="#000000"
                  d="M 802.1626748576241 364.790482243984 L 792 369 L 802.1626748576241 373.209517756016"
                  stroke-miterlimit="10"/>
        </g>
        <g transform="translate(-46,-99) scale(1,1)">
            <g>
                <path fill="none" stroke="none"/>
                <text fill="#000000" stroke="none" font-family="Arial" font-size="13px" font-style="normal"
                      font-weight="normal" text-decoration="none" x="814.5" y="363.5">+Consegna la ricetta in seguito ad
                    una richiesta del paziente
                </text>
            </g>
        </g>
        <g transform="translate(-46,-99) scale(1,1)">
            <g>
                <path fill="none" stroke="none"/>
                <text fill="#000000" stroke="none" font-family="Arial" font-size="13px" font-style="normal"
                      font-weight="normal" text-decoration="none" x="1183.5" y="275.5">1
                </text>
            </g>
        </g>
        <g transform="translate(-46,-99) scale(1,1)">
            <g>
                <path fill="none" stroke="none"/>
                <text fill="#000000" stroke="none" font-family="Arial" font-size="13px" font-style="normal"
                      font-weight="normal" text-decoration="none" x="814.5" y="386.5">1..*
                </text>
            </g>
        </g>
        <g transform="translate(-46,-99) scale(1,1)">
            <path fill="none" stroke="#000000" d="M 128 201 L 128 369 L 584 369" stroke-miterlimit="10"/>
        </g>
        <g transform="translate(-46,-99) scale(1,1)">
            <g>
                <path fill="none" stroke="none"/>
                <text fill="#000000" stroke="none" font-family="Arial" font-size="13px" font-style="normal"
                      font-weight="normal" text-decoration="none" x="246.5" y="364.5">+Ritira la ricetta
                </text>
            </g>
        </g>
        <g transform="translate(-46,-99) scale(1,1)">
            <g>
                <path fill="none" stroke="none"/>
                <text fill="#000000" stroke="none" font-family="Arial" font-size="13px" font-style="normal"
                      font-weight="normal" text-decoration="none" x="111.5" y="228.5">1
                </text>
            </g>
        </g>
        <g transform="translate(-46,-99) scale(1,1)">
            <g>
                <path fill="none" stroke="none"/>
                <text fill="#000000" stroke="none" font-family="Arial" font-size="13px" font-style="normal"
                      font-weight="normal" text-decoration="none" x="551.5" y="387.5">1..*
                </text>
            </g>
        </g>
        <g transform="translate(-46,-99) scale(1,1)">
            <path fill="#C0C0C0" stroke="none"
                  d="M 415 581.5 C 415 573.4918704 494.0217328 567 591.5 567 C 688.9782672 567 768 573.4918704 768 581.5 C 768 589.5081296 688.9782672 596 591.5 596 C 494.0217328 596 415 589.5081296 415 581.5 Z"
                  opacity="0.2"/>
        </g>
        <g transform="translate(-46,-99) scale(1,1)">
            <path fill="#ffffff" stroke="none"
                  d="M 408 574.5 C 408 566.4918704 487.0217328 560 584.5 560 C 681.9782672 560 761 566.4918704 761 574.5 C 761 582.5081296 681.9782672 589 584.5 589 C 487.0217328 589 408 582.5081296 408 574.5 Z"/>
        </g>
        <g transform="translate(-46,-99) scale(1,1)">
            <path fill="none" stroke="#000000"
                  d="M 408 574.5 C 408 566.4918704 487.0217328 560 584.5 560 C 681.9782672 560 761 566.4918704 761 574.5 C 761 582.5081296 681.9782672 589 584.5 589 C 487.0217328 589 408 582.5081296 408 574.5 Z"
                  stroke-miterlimit="10"/>
        </g>
        <g transform="translate(-46,-99) scale(1,1)">
            <path fill="none" stroke="#000000" d="M 408 594 L 761 594" stroke-miterlimit="10"/>
        </g>
        <g transform="translate(-46,-99) scale(1,1)">
            <g>
                <path fill="none" stroke="none"/>
                <text fill="#000000" stroke="none" font-family="Arial" font-size="13px" font-style="normal"
                      font-weight="bold" text-decoration="none" x="472" y="584">Visita del paziente da parte del medico
                </text>
            </g>
        </g>
        <g transform="translate(-46,-99) scale(1,1)">
            <g>
                <path fill="none" stroke="none"/>
                <text fill="#000000" stroke="none" font-family="Arial" font-size="13px" font-style="normal"
                      font-weight="normal" text-decoration="none" x="413" y="611.5">Il paziente necessita di un farmaco
                </text>
            </g>
        </g>
        <g transform="translate(-46,-99) scale(1,1)">
            <path fill="none" stroke="#000000" d="M 104 152 L 72 152 L 72 576 L 408 576" stroke-miterlimit="10"/>
        </g>
        <g transform="translate(-46,-99) scale(1,1)">
            <path fill="none" stroke="#000000"
                  d="M 397.83732514237585 580.209517756016 L 408 576 L 397.83732514237585 571.790482243984"
                  stroke-miterlimit="10"/>
        </g>
        <g transform="translate(-46,-99) scale(1,1)">
            <g>
                <path fill="none" stroke="none"/>
                <text fill="#000000" stroke="none" font-family="Arial" font-size="13px" font-style="normal"
                      font-weight="normal" text-decoration="none" x="79.5" y="573.5">+Si presenta alla visita
                </text>
            </g>
        </g>
        <g transform="translate(-46,-99) scale(1,1)">
            <g>
                <path fill="none" stroke="none"/>
                <text fill="#000000" stroke="none" font-family="Arial" font-size="13px" font-style="normal"
                      font-weight="normal" text-decoration="none" x="55.5" y="164.5">1
                </text>
            </g>
        </g>
        <g transform="translate(-46,-99) scale(1,1)">
            <g>
                <path fill="none" stroke="none"/>
                <text fill="#000000" stroke="none" font-family="Arial" font-size="13px" font-style="normal"
                      font-weight="normal" text-decoration="none" x="375.5" y="596.5">1
                </text>
            </g>
        </g>
        <g transform="translate(-46,-99) scale(1,1)">
            <path fill="none" stroke="#000000" d="M 1144 500 L 1144 576 L 761 576" stroke-miterlimit="10"/>
        </g>
        <g transform="translate(-46,-99) scale(1,1)">
            <g>
                <path fill="none" stroke="none"/>
                <text fill="#000000" stroke="none" font-family="Arial" font-size="13px" font-style="normal"
                      font-weight="normal" text-decoration="none" x="862.5" y="597.5">+Visita il paziente
                </text>
            </g>
        </g>
        <g transform="translate(-46,-99) scale(1,1)">
            <g>
                <path fill="none" stroke="none"/>
                <text fill="#000000" stroke="none" font-family="Arial" font-size="13px" font-style="normal"
                      font-weight="normal" text-decoration="none" x="1127.5" y="527.5">1
                </text>
            </g>
        </g>
        <g transform="translate(-46,-99) scale(1,1)">
            <g>
                <path fill="none" stroke="none"/>
                <text fill="#000000" stroke="none" font-family="Arial" font-size="13px" font-style="normal"
                      font-weight="normal" text-decoration="none" x="778.5" y="569.5">1
                </text>
            </g>
        </g>
        <g transform="translate(-46,-99) scale(1,1)">
            <path fill="#C0C0C0" stroke="none"
                  d="M 415 504 C 415 494.6111584 494.469448 487 592.5 487 C 690.530552 487 770 494.6111584 770 504 C 770 513.3888416 690.530552 521 592.5 521 C 494.469448 521 415 513.3888416 415 504 Z"
                  opacity="0.2"/>
        </g>
        <g transform="translate(-46,-99) scale(1,1)">
            <path fill="#ffffff" stroke="none"
                  d="M 408 497 C 408 487.6111584 487.469448 480 585.5 480 C 683.530552 480 763 487.6111584 763 497 C 763 506.3888416 683.530552 514 585.5 514 C 487.469448 514 408 506.3888416 408 497 Z"/>
        </g>
        <g transform="translate(-46,-99) scale(1,1)">
            <path fill="none" stroke="#000000"
                  d="M 408 497 C 408 487.6111584 487.469448 480 585.5 480 C 683.530552 480 763 487.6111584 763 497 C 763 506.3888416 683.530552 514 585.5 514 C 487.469448 514 408 506.3888416 408 497 Z"
                  stroke-miterlimit="10"/>
        </g>
        <g transform="translate(-46,-99) scale(1,1)">
            <g>
                <path fill="none" stroke="none"/>
                <text fill="#000000" stroke="none" font-family="Arial" font-size="13px" font-style="normal"
                      font-weight="bold" text-decoration="none" x="473.5" y="504">Emissione della ricetta dopo una
                    visita
                </text>
            </g>
        </g>
        <g transform="translate(-46,-99) scale(1,1)">
            <path fill="none" stroke="#000000" d="M 560 514 L 560 560" stroke-miterlimit="10" stroke-dasharray="3"/>
        </g>
        <g transform="translate(-46,-99) scale(1,1)">
            <path fill="none" stroke="#000000"
                  d="M 555.790482243984 549.8373251423759 L 560 560 L 564.209517756016 549.8373251423759"
                  stroke-miterlimit="10"/>
        </g>
        <g transform="translate(-46,-99) scale(1,1)">
            <g>
                <path fill="none" stroke="none"/>
                <text fill="#000000" stroke="none" font-family="Arial" font-size="13px" font-style="normal"
                      font-weight="normal" text-decoration="none" x="567.5" y="540.5">«extend»
                </text>
            </g>
        </g>
        <g transform="translate(-46,-99) scale(1,1)">
            <path fill="none" stroke="#000000" d="M 560 480 L 560 424 L 664 424 L 664 386" stroke-miterlimit="10"
                  stroke-dasharray="3"/>
        </g>
        <g transform="translate(-46,-99) scale(1,1)">
            <path fill="none" stroke="#000000"
                  d="M 668.209517756016 396.16267485762415 L 664 386 L 659.790482243984 396.16267485762415"
                  stroke-miterlimit="10"/>
        </g>
        <g transform="translate(-46,-99) scale(1,1)">
            <g>
                <path fill="none" stroke="none"/>
                <text fill="#000000" stroke="none" font-family="Arial" font-size="13px" font-style="normal"
                      font-weight="normal" text-decoration="none" x="575.5" y="444.5">«include»
                </text>
            </g>
        </g>
        <g transform="translate(-46,-99) scale(1,1)">
            <path fill="none" stroke="#000000" d="M 584 304 L 488 304 L 488 480" stroke-miterlimit="10"
                  stroke-dasharray="3"/>
        </g>
        <g transform="translate(-46,-99) scale(1,1)">
            <path fill="none" stroke="#000000"
                  d="M 483.790482243984 469.83732514237585 L 488 480 L 492.209517756016 469.83732514237585"
                  stroke-miterlimit="10"/>
        </g>
        <g transform="translate(-46,-99) scale(1,1)">
            <g>
                <path fill="none" stroke="none"/>
                <text fill="#000000" stroke="none" font-family="Arial" font-size="13px" font-style="normal"
                      font-weight="normal" text-decoration="none" x="491.5" y="323.5">«extend»
                </text>
            </g>
        </g>
    </g>
</svg>