<?xml version="1.0" encoding="UTF-8" standalone="no"?>
<!DOCTYPE svg PUBLIC "-//W3C//DTD SVG 1.1//EN"
        "http://www.w3.org/Graphics/SVG/1.1/DTD/svg11.dtd">
<!-- Generated by graphviz version 2.40.1 (20161225.0304)
 -->
<!-- Title: code/gui/LoginWindow.hpp Pages: 1 -->
<svg width="165pt" height="247pt"
     viewBox="0.00 0.00 164.95 247.00" xmlns="http://www.w3.org/2000/svg" xmlns:xlink="http://www.w3.org/1999/xlink">
    <g id="graph0" class="graph" transform="scale(1 1) rotate(0) translate(4 243)">
        <title>code/gui/LoginWindow.hpp</title>
        <!-- Node0 -->
        <g id="node1" class="node">
            <title>Node0</title>
            <polygon fill="#bfbfbf" stroke="#000000"
                     points="0,-220.5 0,-238.5 135.5361,-238.5 135.5361,-220.5 0,-220.5"/>
            <text text-anchor="middle" x="67.7681" y="-226.5" font-family="Helvetica,sans-Serif" font-size="10.00"
                  fill="#000000">code/gui/LoginWindow.hpp
            </text>
        </g>
        <!-- Node1 -->
        <g id="node2" class="node">
            <title>Node1</title>
            <g id="a_node2">
                <a xlink:href="../../de/d0b/_window_8hpp.html" target="_top" xlink:title="Window.hpp">
                    <polygon fill="none" stroke="#000000"
                             points="32.5269,-165.5 32.5269,-183.5 103.0093,-183.5 103.0093,-165.5 32.5269,-165.5"/>
                    <text text-anchor="middle" x="67.7681" y="-171.5" font-family="Helvetica,sans-Serif"
                          font-size="10.00" fill="#000000">Window.hpp
                    </text>
                </a>
            </g>
        </g>
        <!-- Node0&#45;&gt;Node1 -->
        <g id="edge1" class="edge">
            <title>Node0&#45;&gt;Node1</title>
            <path fill="none" stroke="#191970"
                  d="M67.7681,-220.4179C67.7681,-213.2164 67.7681,-202.8962 67.7681,-193.8632"/>
            <polygon fill="#191970" stroke="#191970"
                     points="71.2682,-193.7794 67.7681,-183.7795 64.2682,-193.7795 71.2682,-193.7794"/>
        </g>
        <!-- Node2 -->
        <g id="node3" class="node">
            <title>Node2</title>
            <g id="a_node3">
                <a xlink:href="../../d1/d25/_i_subject_8hpp.html" target="_top"
                   xlink:title="../interfaces/ISubject.hpp">
                    <polygon fill="none" stroke="#000000"
                             points="4.7363,-110.5 4.7363,-128.5 130.7998,-128.5 130.7998,-110.5 4.7363,-110.5"/>
                    <text text-anchor="middle" x="67.7681" y="-116.5" font-family="Helvetica,sans-Serif"
                          font-size="10.00" fill="#000000">../interfaces/ISubject.hpp
                    </text>
                </a>
            </g>
        </g>
        <!-- Node1&#45;&gt;Node2 -->
        <g id="edge2" class="edge">
            <title>Node1&#45;&gt;Node2</title>
            <path fill="none" stroke="#191970"
                  d="M67.7681,-165.4179C67.7681,-158.2164 67.7681,-147.8962 67.7681,-138.8632"/>
            <polygon fill="#191970" stroke="#191970"
                     points="71.2682,-138.7794 67.7681,-128.7795 64.2682,-138.7795 71.2682,-138.7794"/>
        </g>
        <!-- Node3 -->
        <g id="node4" class="node">
            <title>Node3</title>
            <polygon fill="none" stroke="#bfbfbf"
                     points="17.0981,-55.5 17.0981,-73.5 46.438,-73.5 46.438,-55.5 17.0981,-55.5"/>
            <text text-anchor="middle" x="31.7681" y="-61.5" font-family="Helvetica,sans-Serif" font-size="10.00"
                  fill="#000000">set
            </text>
        </g>
        <!-- Node2&#45;&gt;Node3 -->
        <g id="edge3" class="edge">
            <title>Node2&#45;&gt;Node3</title>
            <path fill="none" stroke="#191970"
                  d="M61.8234,-110.4179C56.8507,-102.8207 49.6062,-91.7527 43.4757,-82.3866"/>
            <polygon fill="#191970" stroke="#191970"
                     points="46.247,-80.2297 37.8419,-73.7795 40.3901,-84.0633 46.247,-80.2297"/>
        </g>
        <!-- Node4 -->
        <g id="node5" class="node">
            <title>Node4</title>
            <g id="a_node5">
                <a xlink:href="../../d5/d40/_i_observer_8hpp.html" target="_top" xlink:title="IObserver.hpp">
                    <polygon fill="none" stroke="#000000"
                             points="64.3594,-55.5 64.3594,-73.5 143.1768,-73.5 143.1768,-55.5 64.3594,-55.5"/>
                    <text text-anchor="middle" x="103.7681" y="-61.5" font-family="Helvetica,sans-Serif"
                          font-size="10.00" fill="#000000">IObserver.hpp
                    </text>
                </a>
            </g>
        </g>
        <!-- Node2&#45;&gt;Node4 -->
        <g id="edge4" class="edge">
            <title>Node2&#45;&gt;Node4</title>
            <path fill="none" stroke="#191970"
                  d="M73.7127,-110.4179C78.6854,-102.8207 85.93,-91.7527 92.0605,-82.3866"/>
            <polygon fill="#191970" stroke="#191970"
                     points="95.1461,-84.0633 97.6942,-73.7795 89.2891,-80.2297 95.1461,-84.0633"/>
        </g>
        <!-- Node5 -->
        <g id="node6" class="node">
            <title>Node5</title>
            <polygon fill="none" stroke="#bfbfbf"
                     points="51.1523,-.5 51.1523,-18.5 94.3838,-18.5 94.3838,-.5 51.1523,-.5"/>
            <text text-anchor="middle" x="72.7681" y="-6.5" font-family="Helvetica,sans-Serif" font-size="10.00"
                  fill="#000000">mutex
            </text>
        </g>
        <!-- Node4&#45;&gt;Node5 -->
        <g id="edge5" class="edge">
            <title>Node4&#45;&gt;Node5</title>
            <path fill="none" stroke="#191970" d="M98.649,-55.4179C94.4116,-47.8998 88.2584,-36.9829 83.0149,-27.6799"/>
            <polygon fill="#191970" stroke="#191970"
                     points="85.9575,-25.7724 77.9983,-18.7795 79.8594,-29.2096 85.9575,-25.7724"/>
        </g>
        <!-- Node6 -->
        <g id="node7" class="node">
            <title>Node6</title>
            <polygon fill="none" stroke="#bfbfbf"
                     points="112.5908,-.5 112.5908,-18.5 156.9453,-18.5 156.9453,-.5 112.5908,-.5"/>
            <text text-anchor="middle" x="134.7681" y="-6.5" font-family="Helvetica,sans-Serif" font-size="10.00"
                  fill="#000000">thread
            </text>
        </g>
        <!-- Node4&#45;&gt;Node6 -->
        <g id="edge6" class="edge">
            <title>Node4&#45;&gt;Node6</title>
            <path fill="none" stroke="#191970"
                  d="M108.8871,-55.4179C113.1245,-47.8998 119.2777,-36.9829 124.5212,-27.6799"/>
            <polygon fill="#191970" stroke="#191970"
                     points="127.6767,-29.2096 129.5378,-18.7795 121.5786,-25.7724 127.6767,-29.2096"/>
        </g>
    </g>
</svg>
