<?xml version="1.0" encoding="UTF-8" standalone="no"?>
<!DOCTYPE svg PUBLIC "-//W3C//DTD SVG 1.1//EN"
        "http://www.w3.org/Graphics/SVG/1.1/DTD/svg11.dtd">
<!-- Generated by graphviz version 2.40.1 (20161225.0304)
 -->
<!-- Title: mm::Window Pages: 1 -->
<!--zoomable 425 -->
<svg id="main" version="1.1" xmlns="http://www.w3.org/2000/svg" xmlns:xlink="http://www.w3.org/1999/xlink" xml:space="preserve" onload="init(evt)">
<style type="text/css"><![CDATA[
.edge:hover path { stroke: red; }
.edge:hover polygon { stroke: red; fill: red; }
]]></style>
<script type="text/javascript"><![CDATA[
var edges = document.getElementsByTagName('g');
if (edges && edges.length) {
  for (var i=0;i<edges.length;i++) {
    if (edges[i].id.substr(0,4)=='edge') {
      edges[i].setAttribute('class','edge');
    }
  }
}
]]></script>
        <defs>
                <circle id="rim" cx="0" cy="0" r="7"/>
                <circle id="rim2" cx="0" cy="0" r="3.5"/>
                <g id="zoomPlus">
                        <use xlink:href="#rim" fill="#404040">
                                <set attributeName="fill" to="#808080" begin="zoomplus.mouseover" end="zoomplus.mouseout"/>
                        </use>
                        <path d="M-4,0h8M0,-4v8" fill="none" stroke="white" stroke-width="1.5" pointer-events="none"/>
                </g>
                <g id="zoomMin">
                        <use xlink:href="#rim" fill="#404040">
                                <set attributeName="fill" to="#808080" begin="zoomminus.mouseover" end="zoomminus.mouseout"/>
                        </use>
                        <path d="M-4,0h8" fill="none" stroke="white" stroke-width="1.5" pointer-events="none"/>
                </g>
                <g id="dirArrow">
                        <path fill="none" stroke="white" stroke-width="1.5" d="M0,-3.0v7 M-2.5,-0.5L0,-3.0L2.5,-0.5"/>
                </g>
               <g id="resetDef">
                       <use xlink:href="#rim2" fill="#404040">
                               <set attributeName="fill" to="#808080" begin="reset.mouseover" end="reset.mouseout"/>
                       </use>
               </g>
        </defs>

<script type="text/javascript">
var viewWidth = 649;
var viewHeight = 425;
var sectionId = 'dynsection-0';
</script>
<script xlink:href="../../svgpan.js"/>
<svg id="graph" class="graph">
<g id="viewport">
<title>mm::Window</title>
    <!-- Node0 -->
<g id="node1" class="node">
<title>Node0</title>
<polygon fill="#bfbfbf" stroke="#000000" points="272.1484,-211.5 272.1484,-285.5 373.4561,-285.5 373.4561,-211.5 272.1484,-211.5"/>
<text text-anchor="middle" x="322.8022" y="-273.5" font-family="Helvetica,sans-Serif" font-size="10.00" fill="#000000">mm::Window</text>
<polyline fill="none" stroke="#000000" points="272.1484,-267.5 373.4561,-267.5 "/>
<text text-anchor="middle" x="322.8022" y="-255.5" font-family="Helvetica,sans-Serif" font-size="10.00" fill="#000000"> </text>
<polyline fill="none" stroke="#000000" points="272.1484,-249.5 373.4561,-249.5 "/>
<text text-anchor="start" x="280.1484" y="-237.5" font-family="Helvetica,sans-Serif" font-size="10.00" fill="#000000">+ init()</text>
<text text-anchor="start" x="280.1484" y="-227.5" font-family="Helvetica,sans-Serif" font-size="10.00" fill="#000000">+ getName()</text>
<text text-anchor="start" x="280.1484" y="-217.5" font-family="Helvetica,sans-Serif" font-size="10.00" fill="#000000">+ getNextWindow()</text>
</g>
    <!-- Node3 -->
<g id="node4" class="node">
<title>Node3</title>
<g id="a_node4"><a xlink:href="../../d7/dcd/classmm_1_1_drug_window.html" target="_top" xlink:title="{mm::DrugWindow\n||+ DrugWindow()\l+ init()\l+ getName()\l+ getNextWindow()\l+ update()\l+ initHandlers()\l+ initTreeView()\l+ updateDrugTreeView()\l+ updateDrugDetailsView()\l+ updatePatientView()\l+ onSelectedDrug()\l+ initDrugFilter()\l+ initQuantityFilter()\l}">
<polygon fill="none" stroke="#000000" points="0,-.5 0,-174.5 135.6045,-174.5 135.6045,-.5 0,-.5"/>
<text text-anchor="middle" x="67.8022" y="-162.5" font-family="Helvetica,sans-Serif" font-size="10.00" fill="#000000">mm::DrugWindow</text>
<polyline fill="none" stroke="#000000" points="0,-156.5 135.6045,-156.5 "/>
<text text-anchor="middle" x="67.8022" y="-144.5" font-family="Helvetica,sans-Serif" font-size="10.00" fill="#000000"> </text>
<polyline fill="none" stroke="#000000" points="0,-138.5 135.6045,-138.5 "/>
<text text-anchor="start" x="8" y="-126.5" font-family="Helvetica,sans-Serif" font-size="10.00" fill="#000000">+ DrugWindow()</text>
<text text-anchor="start" x="8" y="-116.5" font-family="Helvetica,sans-Serif" font-size="10.00" fill="#000000">+ init()</text>
<text text-anchor="start" x="8" y="-106.5" font-family="Helvetica,sans-Serif" font-size="10.00" fill="#000000">+ getName()</text>
<text text-anchor="start" x="8" y="-96.5" font-family="Helvetica,sans-Serif" font-size="10.00" fill="#000000">+ getNextWindow()</text>
<text text-anchor="start" x="8" y="-86.5" font-family="Helvetica,sans-Serif" font-size="10.00" fill="#000000">+ update()</text>
<text text-anchor="start" x="8" y="-76.5" font-family="Helvetica,sans-Serif" font-size="10.00" fill="#000000">+ initHandlers()</text>
<text text-anchor="start" x="8" y="-66.5" font-family="Helvetica,sans-Serif" font-size="10.00" fill="#000000">+ initTreeView()</text>
<text text-anchor="start" x="8" y="-56.5" font-family="Helvetica,sans-Serif" font-size="10.00" fill="#000000">+ updateDrugTreeView()</text>
<text text-anchor="start" x="8" y="-46.5" font-family="Helvetica,sans-Serif" font-size="10.00" fill="#000000">+ updateDrugDetailsView()</text>
<text text-anchor="start" x="8" y="-36.5" font-family="Helvetica,sans-Serif" font-size="10.00" fill="#000000">+ updatePatientView()</text>
<text text-anchor="start" x="8" y="-26.5" font-family="Helvetica,sans-Serif" font-size="10.00" fill="#000000">+ onSelectedDrug()</text>
<text text-anchor="start" x="8" y="-16.5" font-family="Helvetica,sans-Serif" font-size="10.00" fill="#000000">+ initDrugFilter()</text>
<text text-anchor="start" x="8" y="-6.5" font-family="Helvetica,sans-Serif" font-size="10.00" fill="#000000">+ initQuantityFilter()</text>
</a>
</g>
</g>
    <!-- Node0&#45;&gt;Node3 -->
<g id="edge3" class="edge">
<title>Node0&#45;&gt;Node3</title>
<path fill="none" stroke="#191970" d="M262.2435,-231.4728C225.7764,-219.3858 179.6261,-200.717 143.8022,-175 141.187,-173.1226 138.6017,-171.138 136.053,-169.0671"/>
<polygon fill="none" stroke="#191970" points="261.1818,-234.8078 271.7736,-234.5558 263.3364,-228.1476 261.1818,-234.8078"/>
</g>
    <!-- Node4 -->
<g id="node5" class="node">
<title>Node4</title>
<g id="a_node5"><a xlink:href="../../d3/d0c/classmm_1_1_login_window.html" target="_top" xlink:title="{mm::LoginWindow\n||+ LoginWindow()\l+ init()\l+ getName()\l+ getNextWindow()\l}">
<polygon fill="none" stroke="#000000" points="153.1484,-45.5 153.1484,-129.5 254.4561,-129.5 254.4561,-45.5 153.1484,-45.5"/>
<text text-anchor="middle" x="203.8022" y="-117.5" font-family="Helvetica,sans-Serif" font-size="10.00" fill="#000000">mm::LoginWindow</text>
<polyline fill="none" stroke="#000000" points="153.1484,-111.5 254.4561,-111.5 "/>
<text text-anchor="middle" x="203.8022" y="-99.5" font-family="Helvetica,sans-Serif" font-size="10.00" fill="#000000"> </text>
<polyline fill="none" stroke="#000000" points="153.1484,-93.5 254.4561,-93.5 "/>
<text text-anchor="start" x="161.1484" y="-81.5" font-family="Helvetica,sans-Serif" font-size="10.00" fill="#000000">+ LoginWindow()</text>
<text text-anchor="start" x="161.1484" y="-71.5" font-family="Helvetica,sans-Serif" font-size="10.00" fill="#000000">+ init()</text>
<text text-anchor="start" x="161.1484" y="-61.5" font-family="Helvetica,sans-Serif" font-size="10.00" fill="#000000">+ getName()</text>
<text text-anchor="start" x="161.1484" y="-51.5" font-family="Helvetica,sans-Serif" font-size="10.00" fill="#000000">+ getNextWindow()</text>
</a>
</g>
</g>
    <!-- Node0&#45;&gt;Node4 -->
<g id="edge4" class="edge">
<title>Node0&#45;&gt;Node4</title>
<path fill="none" stroke="#191970" d="M284.8185,-203.2903C277.3635,-194.0515 269.716,-184.3066 262.8022,-175 252.0947,-160.5868 240.939,-144.3859 231.2473,-129.8783"/>
<polygon fill="none" stroke="#191970" points="282.2717,-205.7059 291.2971,-211.2552 287.7022,-201.2888 282.2717,-205.7059"/>
</g>
    <!-- Node5 -->
<g id="node6" class="node">
<title>Node5</title>
<g id="a_node6"><a xlink:href="../../d7/dfd/classmm_1_1_main_window.html" target="_top" xlink:title="{mm::MainWindow\n||+ init()\l+ getName()\l+ getNextWindow()\l+ update()\l+ MainWindow()\l+ ~MainWindow()\l}">
<polygon fill="none" stroke="#000000" points="272.1484,-35.5 272.1484,-139.5 373.4561,-139.5 373.4561,-35.5 272.1484,-35.5"/>
<text text-anchor="middle" x="322.8022" y="-127.5" font-family="Helvetica,sans-Serif" font-size="10.00" fill="#000000">mm::MainWindow</text>
<polyline fill="none" stroke="#000000" points="272.1484,-121.5 373.4561,-121.5 "/>
<text text-anchor="middle" x="322.8022" y="-109.5" font-family="Helvetica,sans-Serif" font-size="10.00" fill="#000000"> </text>
<polyline fill="none" stroke="#000000" points="272.1484,-103.5 373.4561,-103.5 "/>
<text text-anchor="start" x="280.1484" y="-91.5" font-family="Helvetica,sans-Serif" font-size="10.00" fill="#000000">+ init()</text>
<text text-anchor="start" x="280.1484" y="-81.5" font-family="Helvetica,sans-Serif" font-size="10.00" fill="#000000">+ getName()</text>
<text text-anchor="start" x="280.1484" y="-71.5" font-family="Helvetica,sans-Serif" font-size="10.00" fill="#000000">+ getNextWindow()</text>
<text text-anchor="start" x="280.1484" y="-61.5" font-family="Helvetica,sans-Serif" font-size="10.00" fill="#000000">+ update()</text>
<text text-anchor="start" x="280.1484" y="-51.5" font-family="Helvetica,sans-Serif" font-size="10.00" fill="#000000">+ MainWindow()</text>
<text text-anchor="start" x="280.1484" y="-41.5" font-family="Helvetica,sans-Serif" font-size="10.00" fill="#000000">+ ~MainWindow()</text>
</a>
</g>
</g>
    <!-- Node0&#45;&gt;Node5 -->
<g id="edge5" class="edge">
<title>Node0&#45;&gt;Node5</title>
<path fill="none" stroke="#191970" d="M322.8022,-201.0722C322.8022,-181.7503 322.8022,-159.3514 322.8022,-139.5775"/>
<polygon fill="none" stroke="#191970" points="319.3023,-201.1587 322.8022,-211.1587 326.3023,-201.1587 319.3023,-201.1587"/>
</g>
    <!-- Node6 -->
<g id="node7" class="node">
<title>Node6</title>
<g id="a_node7"><a xlink:href="../../da/d81/classmm_1_1_patient_window.html" target="_top" xlink:title="{mm::PatientWindow\n||+ PatientWindow()\l+ init()\l+ getName()\l+ getNextWindow()\l+ update()\l+ update()\l+ ~PatientWindow()\l}">
<polygon fill="none" stroke="#000000" points="391.3442,-30.5 391.3442,-144.5 496.2603,-144.5 496.2603,-30.5 391.3442,-30.5"/>
<text text-anchor="middle" x="443.8022" y="-132.5" font-family="Helvetica,sans-Serif" font-size="10.00" fill="#000000">mm::PatientWindow</text>
<polyline fill="none" stroke="#000000" points="391.3442,-126.5 496.2603,-126.5 "/>
<text text-anchor="middle" x="443.8022" y="-114.5" font-family="Helvetica,sans-Serif" font-size="10.00" fill="#000000"> </text>
<polyline fill="none" stroke="#000000" points="391.3442,-108.5 496.2603,-108.5 "/>
<text text-anchor="start" x="399.3442" y="-96.5" font-family="Helvetica,sans-Serif" font-size="10.00" fill="#000000">+ PatientWindow()</text>
<text text-anchor="start" x="399.3442" y="-86.5" font-family="Helvetica,sans-Serif" font-size="10.00" fill="#000000">+ init()</text>
<text text-anchor="start" x="399.3442" y="-76.5" font-family="Helvetica,sans-Serif" font-size="10.00" fill="#000000">+ getName()</text>
<text text-anchor="start" x="399.3442" y="-66.5" font-family="Helvetica,sans-Serif" font-size="10.00" fill="#000000">+ getNextWindow()</text>
<text text-anchor="start" x="399.3442" y="-56.5" font-family="Helvetica,sans-Serif" font-size="10.00" fill="#000000">+ update()</text>
<text text-anchor="start" x="399.3442" y="-46.5" font-family="Helvetica,sans-Serif" font-size="10.00" fill="#000000">+ update()</text>
<text text-anchor="start" x="399.3442" y="-36.5" font-family="Helvetica,sans-Serif" font-size="10.00" fill="#000000">+ ~PatientWindow()</text>
</a>
</g>
</g>
    <!-- Node0&#45;&gt;Node6 -->
<g id="edge6" class="edge">
<title>Node0&#45;&gt;Node6</title>
<path fill="none" stroke="#191970" d="M360.6722,-203.2051C368.1364,-193.9731 375.8163,-184.2525 382.8022,-175 390.0552,-165.3938 397.5576,-155.0248 404.7151,-144.8996"/>
<polygon fill="none" stroke="#191970" points="357.7891,-201.2029 354.1911,-211.1681 363.2182,-205.6216 357.7891,-201.2029"/>
</g>
    <!-- Node7 -->
<g id="node8" class="node">
<title>Node7</title>
<g id="a_node8"><a xlink:href="../../da/d8f/classmm_1_1_prescription_window.html" target="_top" xlink:title="{mm::PrescriptionWindow\n||+ PrescriptionWindow()\l+ init()\l+ getName()\l+ getNextWindow()\l+ update()\l}">
<polygon fill="none" stroke="#000000" points="514.5117,-40.5 514.5117,-134.5 641.0928,-134.5 641.0928,-40.5 514.5117,-40.5"/>
<text text-anchor="middle" x="577.8022" y="-122.5" font-family="Helvetica,sans-Serif" font-size="10.00" fill="#000000">mm::PrescriptionWindow</text>
<polyline fill="none" stroke="#000000" points="514.5117,-116.5 641.0928,-116.5 "/>
<text text-anchor="middle" x="577.8022" y="-104.5" font-family="Helvetica,sans-Serif" font-size="10.00" fill="#000000"> </text>
<polyline fill="none" stroke="#000000" points="514.5117,-98.5 641.0928,-98.5 "/>
<text text-anchor="start" x="522.5117" y="-86.5" font-family="Helvetica,sans-Serif" font-size="10.00" fill="#000000">+ PrescriptionWindow()</text>
<text text-anchor="start" x="522.5117" y="-76.5" font-family="Helvetica,sans-Serif" font-size="10.00" fill="#000000">+ init()</text>
<text text-anchor="start" x="522.5117" y="-66.5" font-family="Helvetica,sans-Serif" font-size="10.00" fill="#000000">+ getName()</text>
<text text-anchor="start" x="522.5117" y="-56.5" font-family="Helvetica,sans-Serif" font-size="10.00" fill="#000000">+ getNextWindow()</text>
<text text-anchor="start" x="522.5117" y="-46.5" font-family="Helvetica,sans-Serif" font-size="10.00" fill="#000000">+ update()</text>
</a>
</g>
</g>
    <!-- Node0&#45;&gt;Node7 -->
<g id="edge7" class="edge">
<title>Node0&#45;&gt;Node7</title>
<path fill="none" stroke="#191970" d="M383.4027,-232.2904C420.732,-220.3846 468.2692,-201.6176 504.8022,-175 519.9924,-163.9326 533.9614,-149.0297 545.5239,-134.6619"/>
<polygon fill="none" stroke="#191970" points="382.1665,-229.0093 373.655,-235.3184 384.2431,-235.6942 382.1665,-229.0093"/>
</g>
    <!-- Node1 -->
<g id="node2" class="node">
<title>Node1</title>
<g id="a_node2"><a xlink:href="../../d1/dd2/classmm_1_1_i_subject.html" target="_top" xlink:title="{mm::ISubject\n||+ attach()\l+ detach()\l+ notify()\l+ notify()\l+ ~ISubject()\l}">
<polygon fill="none" stroke="#000000" points="244.6274,-322.5 244.6274,-416.5 318.9771,-416.5 318.9771,-322.5 244.6274,-322.5"/>
<text text-anchor="middle" x="281.8022" y="-404.5" font-family="Helvetica,sans-Serif" font-size="10.00" fill="#000000">mm::ISubject</text>
<polyline fill="none" stroke="#000000" points="244.6274,-398.5 318.9771,-398.5 "/>
<text text-anchor="middle" x="281.8022" y="-386.5" font-family="Helvetica,sans-Serif" font-size="10.00" fill="#000000"> </text>
<polyline fill="none" stroke="#000000" points="244.6274,-380.5 318.9771,-380.5 "/>
<text text-anchor="start" x="252.6274" y="-368.5" font-family="Helvetica,sans-Serif" font-size="10.00" fill="#000000">+ attach()</text>
<text text-anchor="start" x="252.6274" y="-358.5" font-family="Helvetica,sans-Serif" font-size="10.00" fill="#000000">+ detach()</text>
<text text-anchor="start" x="252.6274" y="-348.5" font-family="Helvetica,sans-Serif" font-size="10.00" fill="#000000">+ notify()</text>
<text text-anchor="start" x="252.6274" y="-338.5" font-family="Helvetica,sans-Serif" font-size="10.00" fill="#000000">+ notify()</text>
<text text-anchor="start" x="252.6274" y="-328.5" font-family="Helvetica,sans-Serif" font-size="10.00" fill="#000000">+ ~ISubject()</text>
</a>
</g>
</g>
    <!-- Node1&#45;&gt;Node0 -->
<g id="edge1" class="edge">
<title>Node1&#45;&gt;Node0</title>
<path fill="none" stroke="#191970" d="M301.0105,-312.8123C304.1447,-303.5626 307.3193,-294.1936 310.2397,-285.5748"/>
<polygon fill="none" stroke="#191970" points="297.6657,-311.7775 297.7713,-322.3718 304.2955,-314.0239 297.6657,-311.7775"/>
</g>
    <!-- Node2 -->
<g id="node3" class="node">
<title>Node2</title>
<polygon fill="none" stroke="#bfbfbf" points="336.5142,-342.5 336.5142,-396.5 393.0903,-396.5 393.0903,-342.5 336.5142,-342.5"/>
<text text-anchor="middle" x="364.8022" y="-384.5" font-family="Helvetica,sans-Serif" font-size="10.00" fill="#000000">trackable</text>
<polyline fill="none" stroke="#bfbfbf" points="336.5142,-378.5 393.0903,-378.5 "/>
<text text-anchor="middle" x="364.8022" y="-366.5" font-family="Helvetica,sans-Serif" font-size="10.00" fill="#000000"> </text>
<polyline fill="none" stroke="#bfbfbf" points="336.5142,-360.5 393.0903,-360.5 "/>
<text text-anchor="middle" x="364.8022" y="-348.5" font-family="Helvetica,sans-Serif" font-size="10.00" fill="#000000"> </text>
</g>
    <!-- Node2&#45;&gt;Node0 -->
<g id="edge2" class="edge">
<title>Node2&#45;&gt;Node0</title>
<path fill="none" stroke="#191970" d="M351.9496,-332.4722C346.7931,-317.6164 340.8608,-300.526 335.6998,-285.6572"/>
<polygon fill="none" stroke="#191970" points="348.7909,-334.0459 355.3766,-342.3452 355.4039,-331.7504 348.7909,-334.0459"/>
</g>
</g>
</svg>
        <g id="navigator" transform="translate(0 0)" fill="#404254">
                <rect fill="#f2f5e9" fill-opacity="0.5" stroke="#606060" stroke-width=".5" x="0" y="0" width="60" height="60"/>
                <use id="zoomplus" xlink:href="#zoomPlus" x="17" y="9" onmousedown="handleZoom(evt,'in')"/>
                <use id="zoomminus" xlink:href="#zoomMin" x="42" y="9" onmousedown="handleZoom(evt,'out')"/>
                <use id="reset" xlink:href="#resetDef" x="30" y="36" onmousedown="handleReset()"/>
                <g id="arrowUp" xlink:href="#dirArrow" transform="translate(30 24)" onmousedown="handlePan(0,-1)">
                  <use xlink:href="#rim" fill="#404040">
                        <set attributeName="fill" to="#808080" begin="arrowUp.mouseover" end="arrowUp.mouseout"/>
                  </use>
                  <path fill="none" stroke="white" stroke-width="1.5" d="M0,-3.0v7 M-2.5,-0.5L0,-3.0L2.5,-0.5"/>
                </g>
                <g id="arrowRight" xlink:href="#dirArrow" transform="rotate(90) translate(36 -43)" onmousedown="handlePan(1,0)">
                  <use xlink:href="#rim" fill="#404040">
                        <set attributeName="fill" to="#808080" begin="arrowRight.mouseover" end="arrowRight.mouseout"/>
                  </use>
                  <path fill="none" stroke="white" stroke-width="1.5" d="M0,-3.0v7 M-2.5,-0.5L0,-3.0L2.5,-0.5"/>
                </g>
                <g id="arrowDown" xlink:href="#dirArrow" transform="rotate(180) translate(-30 -48)" onmousedown="handlePan(0,1)">
                  <use xlink:href="#rim" fill="#404040">
                        <set attributeName="fill" to="#808080" begin="arrowDown.mouseover" end="arrowDown.mouseout"/>
                  </use>
                  <path fill="none" stroke="white" stroke-width="1.5" d="M0,-3.0v7 M-2.5,-0.5L0,-3.0L2.5,-0.5"/>
                </g>
                <g id="arrowLeft" xlink:href="#dirArrow" transform="rotate(270) translate(-36 17)" onmousedown="handlePan(-1,0)">
                  <use xlink:href="#rim" fill="#404040">
                        <set attributeName="fill" to="#808080" begin="arrowLeft.mouseover" end="arrowLeft.mouseout"/>
                  </use>
                  <path fill="none" stroke="white" stroke-width="1.5" d="M0,-3.0v7 M-2.5,-0.5L0,-3.0L2.5,-0.5"/>
                </g>
        </g>
        <svg viewBox="0 0 15 15" width="100%" height="30px" preserveAspectRatio="xMaxYMin meet">
         <g id="arrow_out" transform="scale(0.3 0.3)">
          <a xlink:href="classmm_1_1_window__inherit__graph_org.svg" target="_base">
           <rect id="button" ry="5" rx="5" y="6" x="6" height="38" width="38"
                fill="#f2f5e9" fill-opacity="0.5" stroke="#606060" stroke-width="1.0"/>
           <path id="arrow"
             d="M 11.500037,31.436501 C 11.940474,20.09759 22.043105,11.32322 32.158766,21.979434 L 37.068811,17.246167 C 37.068811,17.246167 37.088388,32 37.088388,32 L 22.160133,31.978069 C 22.160133,31.978069 26.997745,27.140456 26.997745,27.140456 C 18.528582,18.264221 13.291696,25.230495 11.500037,31.436501 z"
             style="fill:#404040;"/>
          </a>
         </g>
        </svg>
</svg>
