<?xml version="1.0" encoding="UTF-8" standalone="no"?>
<!DOCTYPE svg PUBLIC "-//W3C//DTD SVG 1.1//EN"
        "http://www.w3.org/Graphics/SVG/1.1/DTD/svg11.dtd">
<!-- Generated by graphviz version 2.40.1 (20161225.0304)
 -->
<!-- Title: code/gui/Window.hpp Pages: 1 -->
<!--zoomable 137 -->
<svg id="main" version="1.1" xmlns="http://www.w3.org/2000/svg" xmlns:xlink="http://www.w3.org/1999/xlink" xml:space="preserve" onload="init(evt)">
<style type="text/css"><![CDATA[
.edge:hover path { stroke: red; }
.edge:hover polygon { stroke: red; fill: red; }
]]></style>
<script type="text/javascript"><![CDATA[
var edges = document.getElementsByTagName('g');
if (edges && edges.length) {
  for (var i=0;i<edges.length;i++) {
    if (edges[i].id.substr(0,4)=='edge') {
      edges[i].setAttribute('class','edge');
    }
  }
}
]]></script>
        <defs>
                <circle id="rim" cx="0" cy="0" r="7"/>
                <circle id="rim2" cx="0" cy="0" r="3.5"/>
                <g id="zoomPlus">
                        <use xlink:href="#rim" fill="#404040">
                                <set attributeName="fill" to="#808080" begin="zoomplus.mouseover" end="zoomplus.mouseout"/>
                        </use>
                        <path d="M-4,0h8M0,-4v8" fill="none" stroke="white" stroke-width="1.5" pointer-events="none"/>
                </g>
                <g id="zoomMin">
                        <use xlink:href="#rim" fill="#404040">
                                <set attributeName="fill" to="#808080" begin="zoomminus.mouseover" end="zoomminus.mouseout"/>
                        </use>
                        <path d="M-4,0h8" fill="none" stroke="white" stroke-width="1.5" pointer-events="none"/>
                </g>
                <g id="dirArrow">
                        <path fill="none" stroke="white" stroke-width="1.5" d="M0,-3.0v7 M-2.5,-0.5L0,-3.0L2.5,-0.5"/>
                </g>
               <g id="resetDef">
                       <use xlink:href="#rim2" fill="#404040">
                               <set attributeName="fill" to="#808080" begin="reset.mouseover" end="reset.mouseout"/>
                       </use>
               </g>
        </defs>

<script type="text/javascript">
var viewWidth = 989;
var viewHeight = 137;
var sectionId = 'dynsection-1';
</script>
<script xlink:href="../../svgpan.js"/>
<svg id="graph" class="graph">
<g id="viewport">
<title>code/gui/Window.hpp</title>
    <!-- Node6 -->
<g id="node1" class="node">
<title>Node6</title>
<polygon fill="#bfbfbf" stroke="#000000" points="474.5566,-110.5 474.5566,-128.5 585.625,-128.5 585.625,-110.5 474.5566,-110.5"/>
<text text-anchor="middle" x="530.0908" y="-116.5" font-family="Helvetica,sans-Serif" font-size="10.00" fill="#000000">code/gui/Window.hpp</text>
</g>
    <!-- Node7 -->
<g id="node2" class="node">
<title>Node7</title>
<g id="a_node2"><a xlink:href="../../dd/d02/_drug_window_8hpp.html" target="_top" xlink:title="code/gui/DrugWindow.hpp">
<polygon fill="none" stroke="#000000" points="49.7192,-55.5 49.7192,-73.5 182.4624,-73.5 182.4624,-55.5 49.7192,-55.5"/>
<text text-anchor="middle" x="116.0908" y="-61.5" font-family="Helvetica,sans-Serif" font-size="10.00" fill="#000000">code/gui/DrugWindow.hpp</text>
</a>
</g>
</g>
    <!-- Node6&#45;&gt;Node7 -->
<g id="edge1" class="edge">
<title>Node6&#45;&gt;Node7</title>
<path fill="none" stroke="#191970" d="M464.1787,-110.7436C387.0499,-100.497 260.0617,-83.6266 182.6538,-73.3429"/>
<polygon fill="#191970" stroke="#191970" points="463.8831,-114.235 474.2569,-112.0825 464.805,-107.2959 463.8831,-114.235"/>
</g>
    <!-- Node10 -->
<g id="node5" class="node">
<title>Node10</title>
<g id="a_node5"><a xlink:href="../../db/d18/_login_window_8hpp.html" target="_top" xlink:title="code/gui/LoginWindow.hpp">
<polygon fill="none" stroke="#000000" points="692.3228,-55.5 692.3228,-73.5 827.8589,-73.5 827.8589,-55.5 692.3228,-55.5"/>
<text text-anchor="middle" x="760.0908" y="-61.5" font-family="Helvetica,sans-Serif" font-size="10.00" fill="#000000">code/gui/LoginWindow.hpp</text>
</a>
</g>
</g>
    <!-- Node6&#45;&gt;Node10 -->
<g id="edge4" class="edge">
<title>Node6&#45;&gt;Node10</title>
<path fill="none" stroke="#191970" d="M577.7344,-108.107C620.6236,-97.8509 682.8156,-82.9789 722.3479,-73.5255"/>
<polygon fill="#191970" stroke="#191970" points="576.7249,-104.7496 567.8131,-110.4795 578.3529,-111.5577 576.7249,-104.7496"/>
</g>
    <!-- Node13 -->
<g id="node8" class="node">
<title>Node13</title>
<g id="a_node8"><a xlink:href="../../db/d41/_main_window_8hpp.html" target="_top" xlink:title="code/gui/MainWindow.hpp">
<polygon fill="none" stroke="#000000" points="541.7192,-55.5 541.7192,-73.5 674.4624,-73.5 674.4624,-55.5 541.7192,-55.5"/>
<text text-anchor="middle" x="608.0908" y="-61.5" font-family="Helvetica,sans-Serif" font-size="10.00" fill="#000000">code/gui/MainWindow.hpp</text>
</a>
</g>
</g>
    <!-- Node6&#45;&gt;Node13 -->
<g id="edge7" class="edge">
<title>Node6&#45;&gt;Node13</title>
<path fill="none" stroke="#191970" d="M551.5167,-104.392C565.5139,-94.5222 583.3299,-81.9596 595.1916,-73.5956"/>
<polygon fill="#191970" stroke="#191970" points="549.1266,-101.7947 542.9709,-110.4179 553.1605,-107.5155 549.1266,-101.7947"/>
</g>
    <!-- Node14 -->
<g id="node9" class="node">
<title>Node14</title>
<g id="a_node9"><a xlink:href="../../d5/db1/_prescription_window_8hpp.html" target="_top" xlink:title="code/gui/PrescriptionWindow.hpp">
<polygon fill="none" stroke="#000000" points="200.1577,-55.5 200.1577,-73.5 364.0239,-73.5 364.0239,-55.5 200.1577,-55.5"/>
<text text-anchor="middle" x="282.0908" y="-61.5" font-family="Helvetica,sans-Serif" font-size="10.00" fill="#000000">code/gui/PrescriptionWindow.hpp</text>
</a>
</g>
</g>
    <!-- Node6&#45;&gt;Node14 -->
<g id="edge10" class="edge">
<title>Node6&#45;&gt;Node14</title>
<path fill="none" stroke="#191970" d="M479.5942,-108.3011C433.3227,-98.0393 365.6835,-83.0387 322.7875,-73.5255"/>
<polygon fill="#191970" stroke="#191970" points="478.8957,-111.7312 489.4164,-110.4795 480.4114,-104.8973 478.8957,-111.7312"/>
</g>
    <!-- Node16 -->
<g id="node11" class="node">
<title>Node16</title>
<g id="a_node11"><a xlink:href="../../dd/de0/_patient_window_8hpp.html" target="_top" xlink:title="code/gui/PatientWindow.hpp">
<polygon fill="none" stroke="#000000" points="381.9902,-55.5 381.9902,-73.5 524.1914,-73.5 524.1914,-55.5 381.9902,-55.5"/>
<text text-anchor="middle" x="453.0908" y="-61.5" font-family="Helvetica,sans-Serif" font-size="10.00" fill="#000000">code/gui/PatientWindow.hpp</text>
</a>
</g>
</g>
    <!-- Node6&#45;&gt;Node16 -->
<g id="edge13" class="edge">
<title>Node6&#45;&gt;Node16</title>
<path fill="none" stroke="#191970" d="M508.9397,-104.392C495.1219,-94.5222 477.5343,-81.9596 465.8247,-73.5956"/>
<polygon fill="#191970" stroke="#191970" points="507.2041,-107.4535 517.3758,-110.4179 511.2728,-101.7574 507.2041,-107.4535"/>
</g>
    <!-- Node18 -->
<g id="node13" class="node">
<title>Node18</title>
<g id="a_node13"><a xlink:href="../../db/d45/_med_h_8hpp.html" target="_top" xlink:title="code/MedH.hpp">
<polygon fill="none" stroke="#000000" points="845.7905,-55.5 845.7905,-73.5 932.3911,-73.5 932.3911,-55.5 845.7905,-55.5"/>
<text text-anchor="middle" x="889.0908" y="-61.5" font-family="Helvetica,sans-Serif" font-size="10.00" fill="#000000">code/MedH.hpp</text>
</a>
</g>
</g>
    <!-- Node6&#45;&gt;Node18 -->
<g id="edge16" class="edge">
<title>Node6&#45;&gt;Node18</title>
<path fill="none" stroke="#191970" d="M595.7086,-110.4249C657.9358,-101.665 754.0046,-87.7427 837.0908,-74 839.8976,-73.5357 842.7872,-73.0446 845.6982,-72.54"/>
<polygon fill="#191970" stroke="#191970" points="595.0548,-106.9823 585.6387,-111.839 596.0283,-113.9143 595.0548,-106.9823"/>
</g>
    <!-- Node8 -->
<g id="node3" class="node">
<title>Node8</title>
<g id="a_node3"><a xlink:href="../../d6/d9e/_drug_window_8cpp.html" target="_top" xlink:title="code/gui/DrugWindow.cpp">
<polygon fill="none" stroke="#000000" points="0,-.5 0,-18.5 132.1816,-18.5 132.1816,-.5 0,-.5"/>
<text text-anchor="middle" x="66.0908" y="-6.5" font-family="Helvetica,sans-Serif" font-size="10.00" fill="#000000">code/gui/DrugWindow.cpp</text>
</a>
</g>
</g>
    <!-- Node7&#45;&gt;Node8 -->
<g id="edge2" class="edge">
<title>Node7&#45;&gt;Node8</title>
<path fill="none" stroke="#191970" d="M101.1025,-48.0129C92.4077,-38.4485 81.7773,-26.7552 74.5267,-18.7795"/>
<polygon fill="#191970" stroke="#191970" points="98.5178,-50.3728 107.8343,-55.4179 103.6974,-45.6641 98.5178,-50.3728"/>
</g>
    <!-- Node9 -->
<g id="node4" class="node">
<title>Node9</title>
<g id="a_node4"><a xlink:href="../../d5/da5/_main_window_8cpp.html" target="_top" xlink:title="code/gui/MainWindow.cpp">
<polygon fill="none" stroke="#000000" points="332,-.5 332,-18.5 464.1816,-18.5 464.1816,-.5 332,-.5"/>
<text text-anchor="middle" x="398.0908" y="-6.5" font-family="Helvetica,sans-Serif" font-size="10.00" fill="#000000">code/gui/MainWindow.cpp</text>
</a>
</g>
</g>
    <!-- Node7&#45;&gt;Node9 -->
<g id="edge3" class="edge">
<title>Node7&#45;&gt;Node9</title>
<path fill="none" stroke="#191970" d="M172.1919,-53.5583C224.8336,-43.2913 302.6289,-28.1185 351.8148,-18.5255"/>
<polygon fill="#191970" stroke="#191970" points="171.4866,-50.1298 162.3416,-55.4795 172.8267,-57.0004 171.4866,-50.1298"/>
</g>
    <!-- Node11 -->
<g id="node6" class="node">
<title>Node11</title>
<g id="a_node6"><a xlink:href="../../d9/d07/_login_window_8cpp.html" target="_top" xlink:title="code/gui/LoginWindow.cpp">
<polygon fill="none" stroke="#000000" points="641.6035,-.5 641.6035,-18.5 776.5781,-18.5 776.5781,-.5 641.6035,-.5"/>
<text text-anchor="middle" x="709.0908" y="-6.5" font-family="Helvetica,sans-Serif" font-size="10.00" fill="#000000">code/gui/LoginWindow.cpp</text>
</a>
</g>
</g>
    <!-- Node10&#45;&gt;Node11 -->
<g id="edge5" class="edge">
<title>Node10&#45;&gt;Node11</title>
<path fill="none" stroke="#191970" d="M744.8028,-48.0129C735.934,-38.4485 725.0911,-26.7552 717.6954,-18.7795"/>
<polygon fill="#191970" stroke="#191970" points="742.3033,-50.465 751.6692,-55.4179 747.4362,-45.7054 742.3033,-50.465"/>
</g>
    <!-- Node12 -->
<g id="node7" class="node">
<title>Node12</title>
<g id="a_node7"><a xlink:href="../../d7/daf/_med_h_8cpp.html" target="_top" xlink:title="code/MedH.cpp">
<polygon fill="none" stroke="#000000" points="795.0713,-.5 795.0713,-18.5 881.1104,-18.5 881.1104,-.5 795.0713,-.5"/>
<text text-anchor="middle" x="838.0908" y="-6.5" font-family="Helvetica,sans-Serif" font-size="10.00" fill="#000000">code/MedH.cpp</text>
</a>
</g>
</g>
    <!-- Node10&#45;&gt;Node12 -->
<g id="edge6" class="edge">
<title>Node10&#45;&gt;Node12</title>
<path fill="none" stroke="#191970" d="M781.5167,-49.392C795.5139,-39.5222 813.3299,-26.9596 825.1916,-18.5956"/>
<polygon fill="#191970" stroke="#191970" points="779.1266,-46.7947 772.9709,-55.4179 783.1605,-52.5155 779.1266,-46.7947"/>
</g>
    <!-- Node13&#45;&gt;Node9 -->
<g id="edge8" class="edge">
<title>Node13&#45;&gt;Node9</title>
<path fill="none" stroke="#191970" d="M563.6014,-52.848C524.4501,-42.5941 468.2589,-27.8774 432.4705,-18.5042"/>
<polygon fill="#191970" stroke="#191970" points="562.8531,-56.27 573.4136,-55.4179 564.6266,-49.4984 562.8531,-56.27"/>
</g>
    <!-- Node13&#45;&gt;Node12 -->
<g id="edge9" class="edge">
<title>Node13&#45;&gt;Node12</title>
<path fill="none" stroke="#191970" d="M655.7344,-53.107C698.6236,-42.8509 760.8156,-27.9789 800.3479,-18.5255"/>
<polygon fill="#191970" stroke="#191970" points="654.7249,-49.7496 645.8131,-55.4795 656.3529,-56.5577 654.7249,-49.7496"/>
</g>
    <!-- Node14&#45;&gt;Node9 -->
<g id="edge11" class="edge">
<title>Node14&#45;&gt;Node9</title>
<path fill="none" stroke="#191970" d="M310.4447,-51.0563C331.7143,-40.9716 360.2588,-27.4376 378.9073,-18.5956"/>
<polygon fill="#191970" stroke="#191970" points="308.7822,-47.9711 301.2459,-55.4179 311.7812,-54.2961 308.7822,-47.9711"/>
</g>
    <!-- Node15 -->
<g id="node10" class="node">
<title>Node15</title>
<g id="a_node10"><a xlink:href="../../d1/d16/_prescription_window_8cpp.html" target="_top" xlink:title="code/gui/PrescriptionWindow.cpp">
<polygon fill="none" stroke="#000000" points="150.4385,-.5 150.4385,-18.5 313.7432,-18.5 313.7432,-.5 150.4385,-.5"/>
<text text-anchor="middle" x="232.0908" y="-6.5" font-family="Helvetica,sans-Serif" font-size="10.00" fill="#000000">code/gui/PrescriptionWindow.cpp</text>
</a>
</g>
</g>
    <!-- Node14&#45;&gt;Node15 -->
<g id="edge12" class="edge">
<title>Node14&#45;&gt;Node15</title>
<path fill="none" stroke="#191970" d="M267.1025,-48.0129C258.4077,-38.4485 247.7773,-26.7552 240.5267,-18.7795"/>
<polygon fill="#191970" stroke="#191970" points="264.5178,-50.3728 273.8343,-55.4179 269.6974,-45.6641 264.5178,-50.3728"/>
</g>
    <!-- Node16&#45;&gt;Node9 -->
<g id="edge14" class="edge">
<title>Node16&#45;&gt;Node9</title>
<path fill="none" stroke="#191970" d="M436.89,-48.2992C427.2736,-38.6828 415.4257,-26.8349 407.3703,-18.7795"/>
<polygon fill="#191970" stroke="#191970" points="434.4627,-50.8217 444.0087,-55.4179 439.4125,-45.8719 434.4627,-50.8217"/>
</g>
    <!-- Node17 -->
<g id="node12" class="node">
<title>Node17</title>
<g id="a_node12"><a xlink:href="../../d8/d35/_patient_window_8cpp.html" target="_top" xlink:title="code/gui/PatientWindow.cpp">
<polygon fill="none" stroke="#000000" points="482.271,-.5 482.271,-18.5 623.9106,-18.5 623.9106,-.5 482.271,-.5"/>
<text text-anchor="middle" x="553.0908" y="-6.5" font-family="Helvetica,sans-Serif" font-size="10.00" fill="#000000">code/gui/PatientWindow.cpp</text>
</a>
</g>
</g>
    <!-- Node16&#45;&gt;Node17 -->
<g id="edge15" class="edge">
<title>Node16&#45;&gt;Node17</title>
<path fill="none" stroke="#191970" d="M478.531,-50.5079C496.7537,-40.4854 520.7667,-27.2783 536.5533,-18.5956"/>
<polygon fill="#191970" stroke="#191970" points="476.6792,-47.5319 469.6038,-55.4179 480.0527,-53.6654 476.6792,-47.5319"/>
</g>
    <!-- Node18&#45;&gt;Node12 -->
<g id="edge18" class="edge">
<title>Node18&#45;&gt;Node12</title>
<path fill="none" stroke="#191970" d="M873.8028,-48.0129C864.934,-38.4485 854.0911,-26.7552 846.6954,-18.7795"/>
<polygon fill="#191970" stroke="#191970" points="871.3033,-50.465 880.6692,-55.4179 876.4362,-45.7054 871.3033,-50.465"/>
</g>
    <!-- Node19 -->
<g id="node14" class="node">
<title>Node19</title>
<g id="a_node14"><a xlink:href="../../df/d0a/main_8cpp.html" target="_top" xlink:title="code/main.cpp">
<polygon fill="none" stroke="#000000" points="899.5713,-.5 899.5713,-18.5 980.6104,-18.5 980.6104,-.5 899.5713,-.5"/>
<text text-anchor="middle" x="940.0908" y="-6.5" font-family="Helvetica,sans-Serif" font-size="10.00" fill="#000000">code/main.cpp</text>
</a>
</g>
</g>
    <!-- Node18&#45;&gt;Node19 -->
<g id="edge17" class="edge">
<title>Node18&#45;&gt;Node19</title>
<path fill="none" stroke="#191970" d="M904.3789,-48.0129C913.2476,-38.4485 924.0906,-26.7552 931.4862,-18.7795"/>
<polygon fill="#191970" stroke="#191970" points="901.7454,-45.7054 897.5124,-55.4179 906.8783,-50.465 901.7454,-45.7054"/>
</g>
</g>
</svg>
        <g id="navigator" transform="translate(0 0)" fill="#404254">
                <rect fill="#f2f5e9" fill-opacity="0.5" stroke="#606060" stroke-width=".5" x="0" y="0" width="60" height="60"/>
                <use id="zoomplus" xlink:href="#zoomPlus" x="17" y="9" onmousedown="handleZoom(evt,'in')"/>
                <use id="zoomminus" xlink:href="#zoomMin" x="42" y="9" onmousedown="handleZoom(evt,'out')"/>
                <use id="reset" xlink:href="#resetDef" x="30" y="36" onmousedown="handleReset()"/>
                <g id="arrowUp" xlink:href="#dirArrow" transform="translate(30 24)" onmousedown="handlePan(0,-1)">
                  <use xlink:href="#rim" fill="#404040">
                        <set attributeName="fill" to="#808080" begin="arrowUp.mouseover" end="arrowUp.mouseout"/>
                  </use>
                  <path fill="none" stroke="white" stroke-width="1.5" d="M0,-3.0v7 M-2.5,-0.5L0,-3.0L2.5,-0.5"/>
                </g>
                <g id="arrowRight" xlink:href="#dirArrow" transform="rotate(90) translate(36 -43)" onmousedown="handlePan(1,0)">
                  <use xlink:href="#rim" fill="#404040">
                        <set attributeName="fill" to="#808080" begin="arrowRight.mouseover" end="arrowRight.mouseout"/>
                  </use>
                  <path fill="none" stroke="white" stroke-width="1.5" d="M0,-3.0v7 M-2.5,-0.5L0,-3.0L2.5,-0.5"/>
                </g>
                <g id="arrowDown" xlink:href="#dirArrow" transform="rotate(180) translate(-30 -48)" onmousedown="handlePan(0,1)">
                  <use xlink:href="#rim" fill="#404040">
                        <set attributeName="fill" to="#808080" begin="arrowDown.mouseover" end="arrowDown.mouseout"/>
                  </use>
                  <path fill="none" stroke="white" stroke-width="1.5" d="M0,-3.0v7 M-2.5,-0.5L0,-3.0L2.5,-0.5"/>
                </g>
                <g id="arrowLeft" xlink:href="#dirArrow" transform="rotate(270) translate(-36 17)" onmousedown="handlePan(-1,0)">
                  <use xlink:href="#rim" fill="#404040">
                        <set attributeName="fill" to="#808080" begin="arrowLeft.mouseover" end="arrowLeft.mouseout"/>
                  </use>
                  <path fill="none" stroke="white" stroke-width="1.5" d="M0,-3.0v7 M-2.5,-0.5L0,-3.0L2.5,-0.5"/>
                </g>
        </g>
        <svg viewBox="0 0 15 15" width="100%" height="30px" preserveAspectRatio="xMaxYMin meet">
         <g id="arrow_out" transform="scale(0.3 0.3)">
          <a xlink:href="_window_8hpp__dep__incl_org.svg" target="_base">
           <rect id="button" ry="5" rx="5" y="6" x="6" height="38" width="38"
                fill="#f2f5e9" fill-opacity="0.5" stroke="#606060" stroke-width="1.0"/>
           <path id="arrow"
             d="M 11.500037,31.436501 C 11.940474,20.09759 22.043105,11.32322 32.158766,21.979434 L 37.068811,17.246167 C 37.068811,17.246167 37.088388,32 37.088388,32 L 22.160133,31.978069 C 22.160133,31.978069 26.997745,27.140456 26.997745,27.140456 C 18.528582,18.264221 13.291696,25.230495 11.500037,31.436501 z"
             style="fill:#404040;"/>
          </a>
         </g>
        </svg>
</svg>
