<?xml version="1.0" encoding="UTF-8" standalone="no"?>
<!DOCTYPE svg PUBLIC "-//W3C//DTD SVG 1.1//EN"
        "http://www.w3.org/Graphics/SVG/1.1/DTD/svg11.dtd">
<!-- Generated by graphviz version 2.40.1 (20161225.0304)
 -->
<!-- Title: code/gui/Window.hpp Pages: 1 -->
<!--zoomable 137 -->
<svg id="main" version="1.1" xmlns="http://www.w3.org/2000/svg" xmlns:xlink="http://www.w3.org/1999/xlink" xml:space="preserve" onload="initDrugComboBox(evt)">
<style type="text/css"><![CDATA[
.edge:hover path { stroke: red; }
.edge:hover polygon { stroke: red; fill: red; }
]]></style>
<script type="text/javascript"><![CDATA[
var edges = document.getElementsByTagName('g');
if (edges && edges.length) {
  for (var i=0;i<edges.length;i++) {
    if (edges[i].id.substr(0,4)=='edge') {
      edges[i].setAttribute('class','edge');
    }
  }
}
]]></script>
        <defs>
                <circle id="rim" cx="0" cy="0" r="7"/>
                <circle id="rim2" cx="0" cy="0" r="3.5"/>
                <g id="zoomPlus">
                        <use xlink:href="#rim" fill="#404040">
                                <set attributeName="fill" to="#808080" begin="zoomplus.mouseover" end="zoomplus.mouseout"/>
                        </use>
                        <path d="M-4,0h8M0,-4v8" fill="none" stroke="white" stroke-width="1.5" pointer-events="none"/>
                </g>
                <g id="zoomMin">
                        <use xlink:href="#rim" fill="#404040">
                                <set attributeName="fill" to="#808080" begin="zoomminus.mouseover" end="zoomminus.mouseout"/>
                        </use>
                        <path d="M-4,0h8" fill="none" stroke="white" stroke-width="1.5" pointer-events="none"/>
                </g>
                <g id="dirArrow">
                        <path fill="none" stroke="white" stroke-width="1.5" d="M0,-3.0v7 M-2.5,-0.5L0,-3.0L2.5,-0.5"/>
                </g>
               <g id="resetDef">
                       <use xlink:href="#rim2" fill="#404040">
                               <set attributeName="fill" to="#808080" begin="reset.mouseover" end="reset.mouseout"/>
                       </use>
               </g>
        </defs>

<script type="text/javascript">
var viewWidth = 657;
var viewHeight = 137;
var sectionId = 'dynsection-1';
</script>
<script xlink:href="../../svgpan.js"/>
<svg id="graph" class="graph">
<g id="viewport">
<title>code/gui/Window.hpp</title>
    <!-- Node6 -->
<g id="node1" class="node">
<title>Node6</title>
<polygon fill="#bfbfbf" stroke="#000000" points="253.9531,-110.5 253.9531,-128.5 365.0215,-128.5 365.0215,-110.5 253.9531,-110.5"/>
<text text-anchor="middle" x="309.4873" y="-116.5" font-family="Helvetica,sans-Serif" font-size="10.00" fill="#000000">code/gui/Window.hpp</text>
</g>
    <!-- Node7 -->
<g id="node2" class="node">
<title>Node7</title>
<g id="a_node2"><a xlink:href="../../db/d18/_login_window_8hpp.html" target="_top" xlink:title="code/gui/LoginWindow.hpp">
<polygon fill="none" stroke="#000000" points="48.7192,-55.5 48.7192,-73.5 184.2554,-73.5 184.2554,-55.5 48.7192,-55.5"/>
<text text-anchor="middle" x="116.4873" y="-61.5" font-family="Helvetica,sans-Serif" font-size="10.00" fill="#000000">code/gui/LoginWindow.hpp</text>
</a>
</g>
</g>
    <!-- Node6&#45;&gt;Node7 -->
<g id="edge1" class="edge">
<title>Node6&#45;&gt;Node7</title>
<path fill="none" stroke="#191970" d="M267.91,-107.6515C231.9604,-97.4068 180.7656,-82.8177 148.0839,-73.5042"/>
<polygon fill="#191970" stroke="#191970" points="267.0409,-111.0432 277.6173,-110.4179 268.9594,-104.3112 267.0409,-111.0432"/>
</g>
    <!-- Node10 -->
<g id="node5" class="node">
<title>Node10</title>
<g id="a_node5"><a xlink:href="../../db/d41/_main_window_8hpp.html" target="_top" xlink:title="code/gui/MainWindow.hpp">
<polygon fill="none" stroke="#000000" points="307.1157,-55.5 307.1157,-73.5 439.8589,-73.5 439.8589,-55.5 307.1157,-55.5"/>
<text text-anchor="middle" x="373.4873" y="-61.5" font-family="Helvetica,sans-Serif" font-size="10.00" fill="#000000">code/gui/MainWindow.hpp</text>
</a>
</g>
</g>
    <!-- Node6&#45;&gt;Node10 -->
<g id="edge4" class="edge">
<title>Node6&#45;&gt;Node10</title>
<path fill="none" stroke="#191970" d="M327.6775,-103.8678C338.9814,-94.1535 353.1301,-81.9944 362.6894,-73.7795"/>
<polygon fill="#191970" stroke="#191970" points="325.3586,-101.2457 320.0556,-110.4179 329.921,-106.5546 325.3586,-101.2457"/>
</g>
    <!-- Node12 -->
<g id="node7" class="node">
<title>Node12</title>
<g id="a_node7"><a xlink:href="../../dd/de0/_patient_window_8hpp.html" target="_top" xlink:title="code/gui/PatientWindow.hpp">
<polygon fill="none" stroke="#000000" points="457.3867,-55.5 457.3867,-73.5 599.5879,-73.5 599.5879,-55.5 457.3867,-55.5"/>
<text text-anchor="middle" x="528.4873" y="-61.5" font-family="Helvetica,sans-Serif" font-size="10.00" fill="#000000">code/gui/PatientWindow.hpp</text>
</a>
</g>
</g>
    <!-- Node6&#45;&gt;Node12 -->
<g id="edge7" class="edge">
<title>Node6&#45;&gt;Node12</title>
<path fill="none" stroke="#191970" d="M355.3642,-107.9784C396.2146,-97.7192 455.1535,-82.9172 492.6342,-73.5042"/>
<polygon fill="#191970" stroke="#191970" points="354.497,-104.5874 345.6507,-110.4179 356.2021,-111.3766 354.497,-104.5874"/>
</g>
    <!-- Node14 -->
<g id="node9" class="node">
<title>Node14</title>
<g id="a_node9"><a xlink:href="../../db/d45/_med_h_8hpp.html" target="_top" xlink:title="code/MedH.hpp">
<polygon fill="none" stroke="#000000" points="202.187,-55.5 202.187,-73.5 288.7876,-73.5 288.7876,-55.5 202.187,-55.5"/>
<text text-anchor="middle" x="245.4873" y="-61.5" font-family="Helvetica,sans-Serif" font-size="10.00" fill="#000000">code/MedH.hpp</text>
</a>
</g>
</g>
    <!-- Node6&#45;&gt;Node14 -->
<g id="edge10" class="edge">
<title>Node6&#45;&gt;Node14</title>
<path fill="none" stroke="#191970" d="M291.2971,-103.8678C279.9932,-94.1535 265.8445,-81.9944 256.2852,-73.7795"/>
<polygon fill="#191970" stroke="#191970" points="289.0536,-106.5546 298.919,-110.4179 293.616,-101.2457 289.0536,-106.5546"/>
</g>
    <!-- Node8 -->
<g id="node3" class="node">
<title>Node8</title>
<g id="a_node3"><a xlink:href="../../d9/d07/_login_window_8cpp.html" target="_top" xlink:title="code/gui/LoginWindow.cpp">
<polygon fill="none" stroke="#000000" points="0,-.5 0,-18.5 134.9746,-18.5 134.9746,-.5 0,-.5"/>
<text text-anchor="middle" x="67.4873" y="-6.5" font-family="Helvetica,sans-Serif" font-size="10.00" fill="#000000">code/gui/LoginWindow.cpp</text>
</a>
</g>
</g>
    <!-- Node7&#45;&gt;Node8 -->
<g id="edge2" class="edge">
<title>Node7&#45;&gt;Node8</title>
<path fill="none" stroke="#191970" d="M101.5426,-47.7253C93.0698,-38.215 82.789,-26.6754 75.7545,-18.7795"/>
<polygon fill="#191970" stroke="#191970" points="99.1305,-50.2795 108.396,-55.4179 104.3572,-45.623 99.1305,-50.2795"/>
</g>
    <!-- Node9 -->
<g id="node4" class="node">
<title>Node9</title>
<g id="a_node4"><a xlink:href="../../d7/daf/_med_h_8cpp.html" target="_top" xlink:title="code/MedH.cpp">
<polygon fill="none" stroke="#000000" points="153.4678,-.5 153.4678,-18.5 239.5068,-18.5 239.5068,-.5 153.4678,-.5"/>
<text text-anchor="middle" x="196.4873" y="-6.5" font-family="Helvetica,sans-Serif" font-size="10.00" fill="#000000">code/MedH.cpp</text>
</a>
</g>
</g>
    <!-- Node7&#45;&gt;Node9 -->
<g id="edge3" class="edge">
<title>Node7&#45;&gt;Node9</title>
<path fill="none" stroke="#191970" d="M138.0534,-49.6733C152.47,-39.7619 170.9756,-27.0393 183.2573,-18.5956"/>
<polygon fill="#191970" stroke="#191970" points="135.9552,-46.8684 129.6977,-55.4179 139.921,-52.6367 135.9552,-46.8684"/>
</g>
    <!-- Node10&#45;&gt;Node9 -->
<g id="edge6" class="edge">
<title>Node10&#45;&gt;Node9</title>
<path fill="none" stroke="#191970" d="M334.5084,-52.3879C301.5862,-42.1578 255.1807,-27.7381 225.4645,-18.5042"/>
<polygon fill="#191970" stroke="#191970" points="333.6712,-55.7928 344.2594,-55.4179 335.7484,-49.1081 333.6712,-55.7928"/>
</g>
    <!-- Node11 -->
<g id="node6" class="node">
<title>Node11</title>
<g id="a_node6"><a xlink:href="../../d5/da5/_main_window_8cpp.html" target="_top" xlink:title="code/gui/MainWindow.cpp">
<polygon fill="none" stroke="#000000" points="357.3965,-.5 357.3965,-18.5 489.5781,-18.5 489.5781,-.5 357.3965,-.5"/>
<text text-anchor="middle" x="423.4873" y="-6.5" font-family="Helvetica,sans-Serif" font-size="10.00" fill="#000000">code/gui/MainWindow.cpp</text>
</a>
</g>
</g>
    <!-- Node10&#45;&gt;Node11 -->
<g id="edge5" class="edge">
<title>Node10&#45;&gt;Node11</title>
<path fill="none" stroke="#191970" d="M388.4756,-48.0129C397.1705,-38.4485 407.8008,-26.7552 415.0514,-18.7795"/>
<polygon fill="#191970" stroke="#191970" points="385.8807,-45.6641 381.7438,-55.4179 391.0603,-50.3728 385.8807,-45.6641"/>
</g>
    <!-- Node12&#45;&gt;Node11 -->
<g id="edge8" class="edge">
<title>Node12&#45;&gt;Node11</title>
<path fill="none" stroke="#191970" d="M502.038,-50.6456C482.8728,-40.6067 457.5037,-27.3181 440.8517,-18.5956"/>
<polygon fill="#191970" stroke="#191970" points="500.6663,-53.8782 511.1487,-55.4179 503.9144,-47.6773 500.6663,-53.8782"/>
</g>
    <!-- Node13 -->
<g id="node8" class="node">
<title>Node13</title>
<g id="a_node8"><a xlink:href="../../d8/d35/_patient_window_8cpp.html" target="_top" xlink:title="code/gui/PatientWindow.cpp">
<polygon fill="none" stroke="#000000" points="507.6675,-.5 507.6675,-18.5 649.3071,-18.5 649.3071,-.5 507.6675,-.5"/>
<text text-anchor="middle" x="578.4873" y="-6.5" font-family="Helvetica,sans-Serif" font-size="10.00" fill="#000000">code/gui/PatientWindow.cpp</text>
</a>
</g>
</g>
    <!-- Node12&#45;&gt;Node13 -->
<g id="edge9" class="edge">
<title>Node12&#45;&gt;Node13</title>
<path fill="none" stroke="#191970" d="M543.4756,-48.0129C552.1705,-38.4485 562.8008,-26.7552 570.0514,-18.7795"/>
<polygon fill="#191970" stroke="#191970" points="540.8807,-45.6641 536.7438,-55.4179 546.0603,-50.3728 540.8807,-45.6641"/>
</g>
    <!-- Node14&#45;&gt;Node9 -->
<g id="edge12" class="edge">
<title>Node14&#45;&gt;Node9</title>
<path fill="none" stroke="#191970" d="M230.5426,-47.7253C222.0698,-38.215 211.789,-26.6754 204.7545,-18.7795"/>
<polygon fill="#191970" stroke="#191970" points="228.1305,-50.2795 237.396,-55.4179 233.3572,-45.623 228.1305,-50.2795"/>
</g>
    <!-- Node15 -->
<g id="node10" class="node">
<title>Node15</title>
<g id="a_node10"><a xlink:href="../../df/d0a/main_8cpp.html" target="_top" xlink:title="code/main.cpp">
<polygon fill="none" stroke="#000000" points="257.9678,-.5 257.9678,-18.5 339.0068,-18.5 339.0068,-.5 257.9678,-.5"/>
<text text-anchor="middle" x="298.4873" y="-6.5" font-family="Helvetica,sans-Serif" font-size="10.00" fill="#000000">code/main.cpp</text>
</a>
</g>
</g>
    <!-- Node14&#45;&gt;Node15 -->
<g id="edge11" class="edge">
<title>Node14&#45;&gt;Node15</title>
<path fill="none" stroke="#191970" d="M261.3749,-48.0129C270.5915,-38.4485 281.8596,-26.7552 289.5453,-18.7795"/>
<polygon fill="#191970" stroke="#191970" points="258.6579,-45.7884 254.2392,-55.4179 263.6984,-50.6457 258.6579,-45.7884"/>
</g>
</g>
</svg>
        <g id="navigator" transform="translate(0 0)" fill="#404254">
                <rect fill="#f2f5e9" fill-opacity="0.5" stroke="#606060" stroke-width=".5" x="0" y="0" width="60" height="60"/>
                <use id="zoomplus" xlink:href="#zoomPlus" x="17" y="9" onmousedown="handleZoom(evt,'in')"/>
                <use id="zoomminus" xlink:href="#zoomMin" x="42" y="9" onmousedown="handleZoom(evt,'out')"/>
                <use id="reset" xlink:href="#resetDef" x="30" y="36" onmousedown="handleReset()"/>
                <g id="arrowUp" xlink:href="#dirArrow" transform="translate(30 24)" onmousedown="handlePan(0,-1)">
                  <use xlink:href="#rim" fill="#404040">
                        <set attributeName="fill" to="#808080" begin="arrowUp.mouseover" end="arrowUp.mouseout"/>
                  </use>
                  <path fill="none" stroke="white" stroke-width="1.5" d="M0,-3.0v7 M-2.5,-0.5L0,-3.0L2.5,-0.5"/>
                </g>
                <g id="arrowRight" xlink:href="#dirArrow" transform="rotate(90) translate(36 -43)" onmousedown="handlePan(1,0)">
                  <use xlink:href="#rim" fill="#404040">
                        <set attributeName="fill" to="#808080" begin="arrowRight.mouseover" end="arrowRight.mouseout"/>
                  </use>
                  <path fill="none" stroke="white" stroke-width="1.5" d="M0,-3.0v7 M-2.5,-0.5L0,-3.0L2.5,-0.5"/>
                </g>
                <g id="arrowDown" xlink:href="#dirArrow" transform="rotate(180) translate(-30 -48)" onmousedown="handlePan(0,1)">
                  <use xlink:href="#rim" fill="#404040">
                        <set attributeName="fill" to="#808080" begin="arrowDown.mouseover" end="arrowDown.mouseout"/>
                  </use>
                  <path fill="none" stroke="white" stroke-width="1.5" d="M0,-3.0v7 M-2.5,-0.5L0,-3.0L2.5,-0.5"/>
                </g>
                <g id="arrowLeft" xlink:href="#dirArrow" transform="rotate(270) translate(-36 17)" onmousedown="handlePan(-1,0)">
                  <use xlink:href="#rim" fill="#404040">
                        <set attributeName="fill" to="#808080" begin="arrowLeft.mouseover" end="arrowLeft.mouseout"/>
                  </use>
                  <path fill="none" stroke="white" stroke-width="1.5" d="M0,-3.0v7 M-2.5,-0.5L0,-3.0L2.5,-0.5"/>
                </g>
        </g>
        <svg viewBox="0 0 15 15" width="100%" height="30px" preserveAspectRatio="xMaxYMin meet">
         <g id="arrow_out" transform="scale(0.3 0.3)">
          <a xlink:href="_window_8hpp__dep__incl_org.svg" target="_base">
           <rect id="button" ry="5" rx="5" y="6" x="6" height="38" width="38"
                fill="#f2f5e9" fill-opacity="0.5" stroke="#606060" stroke-width="1.0"/>
           <path id="arrow"
             d="M 11.500037,31.436501 C 11.940474,20.09759 22.043105,11.32322 32.158766,21.979434 L 37.068811,17.246167 C 37.068811,17.246167 37.088388,32 37.088388,32 L 22.160133,31.978069 C 22.160133,31.978069 26.997745,27.140456 26.997745,27.140456 C 18.528582,18.264221 13.291696,25.230495 11.500037,31.436501 z"
             style="fill:#404040;"/>
          </a>
         </g>
        </svg>
</svg>
