<?xml version="1.0" encoding="UTF-8" standalone="no"?>
<!DOCTYPE svg PUBLIC "-//W3C//DTD SVG 1.1//EN"
        "http://www.w3.org/Graphics/SVG/1.1/DTD/svg11.dtd">
<!-- Generated by graphviz version 2.40.1 (20161225.0304)
 -->
<!-- Title: code/model/Patient.cpp Pages: 1 -->
<!--zoomable 302 -->
<svg id="main" version="1.1" xmlns="http://www.w3.org/2000/svg" xmlns:xlink="http://www.w3.org/1999/xlink" xml:space="preserve" onload="init(evt)">
<style type="text/css"><![CDATA[
.edge:hover path { stroke: red; }
.edge:hover polygon { stroke: red; fill: red; }
]]></style>
<script type="text/javascript"><![CDATA[
var edges = document.getElementsByTagName('g');
if (edges && edges.length) {
  for (var i=0;i<edges.length;i++) {
    if (edges[i].id.substr(0,4)=='edge') {
      edges[i].setAttribute('class','edge');
    }
  }
}
]]></script>
        <defs>
                <circle id="rim" cx="0" cy="0" r="7"/>
                <circle id="rim2" cx="0" cy="0" r="3.5"/>
                <g id="zoomPlus">
                        <use xlink:href="#rim" fill="#404040">
                                <set attributeName="fill" to="#808080" begin="zoomplus.mouseover" end="zoomplus.mouseout"/>
                        </use>
                        <path d="M-4,0h8M0,-4v8" fill="none" stroke="white" stroke-width="1.5" pointer-events="none"/>
                </g>
                <g id="zoomMin">
                        <use xlink:href="#rim" fill="#404040">
                                <set attributeName="fill" to="#808080" begin="zoomminus.mouseover" end="zoomminus.mouseout"/>
                        </use>
                        <path d="M-4,0h8" fill="none" stroke="white" stroke-width="1.5" pointer-events="none"/>
                </g>
                <g id="dirArrow">
                        <path fill="none" stroke="white" stroke-width="1.5" d="M0,-3.0v7 M-2.5,-0.5L0,-3.0L2.5,-0.5"/>
                </g>
               <g id="resetDef">
                       <use xlink:href="#rim2" fill="#404040">
                               <set attributeName="fill" to="#808080" begin="reset.mouseover" end="reset.mouseout"/>
                       </use>
               </g>
        </defs>

<script type="text/javascript">
var viewWidth = 1079;
var viewHeight = 302;
var sectionId = 'dynsection-0';
</script>
<script xlink:href="../../svgpan.js"/>
<svg id="graph" class="graph">
<g id="viewport">
<title>code/model/Patient.cpp</title>
    <!-- Node0 -->
<g id="node1" class="node">
<title>Node0</title>
<polygon fill="#bfbfbf" stroke="#000000" points="111.5249,-275.5 111.5249,-293.5 232.0366,-293.5 232.0366,-275.5 111.5249,-275.5"/>
<text text-anchor="middle" x="171.7808" y="-281.5" font-family="Helvetica,sans-Serif" font-size="10.00" fill="#000000">code/model/Patient.cpp</text>
</g>
    <!-- Node1 -->
<g id="node2" class="node">
<title>Node1</title>
<polygon fill="none" stroke="#bfbfbf" points="0,-220.5 0,-238.5 51.5615,-238.5 51.5615,-220.5 0,-220.5"/>
<text text-anchor="middle" x="25.7808" y="-226.5" font-family="Helvetica,sans-Serif" font-size="10.00" fill="#000000">sstream</text>
</g>
    <!-- Node0&#45;&gt;Node1 -->
<g id="edge1" class="edge">
<title>Node0&#45;&gt;Node1</title>
<path fill="none" stroke="#191970" d="M147.6718,-275.4179C123.5791,-266.3419 86.3371,-252.3123 59.3576,-242.1488"/>
<polygon fill="#191970" stroke="#191970" points="60.5174,-238.8457 49.9255,-238.5956 58.0497,-245.3963 60.5174,-238.8457"/>
</g>
    <!-- Node2 -->
<g id="node3" class="node">
<title>Node2</title>
<polygon fill="none" stroke="#bfbfbf" points="69.2734,-220.5 69.2734,-238.5 110.2881,-238.5 110.2881,-220.5 69.2734,-220.5"/>
<text text-anchor="middle" x="89.7808" y="-226.5" font-family="Helvetica,sans-Serif" font-size="10.00" fill="#000000">regex</text>
</g>
    <!-- Node0&#45;&gt;Node2 -->
<g id="edge2" class="edge">
<title>Node0&#45;&gt;Node2</title>
<path fill="none" stroke="#191970" d="M158.2401,-275.4179C145.6582,-266.9788 126.6912,-254.257 111.9097,-244.3426"/>
<polygon fill="#191970" stroke="#191970" points="113.5961,-241.2593 103.3415,-238.5956 109.6968,-247.0727 113.5961,-241.2593"/>
</g>
    <!-- Node3 -->
<g id="node4" class="node">
<title>Node3</title>
<polygon fill="none" stroke="#bfbfbf" points="128.7539,-220.5 128.7539,-238.5 214.8076,-238.5 214.8076,-220.5 128.7539,-220.5"/>
<text text-anchor="middle" x="171.7808" y="-226.5" font-family="Helvetica,sans-Serif" font-size="10.00" fill="#000000">spdlog/spdlog.h</text>
</g>
    <!-- Node0&#45;&gt;Node3 -->
<g id="edge3" class="edge">
<title>Node0&#45;&gt;Node3</title>
<path fill="none" stroke="#191970" d="M171.7808,-275.4179C171.7808,-268.2164 171.7808,-257.8962 171.7808,-248.8632"/>
<polygon fill="#191970" stroke="#191970" points="175.2809,-248.7794 171.7808,-238.7795 168.2809,-248.7795 175.2809,-248.7794"/>
</g>
    <!-- Node4 -->
<g id="node5" class="node">
<title>Node4</title>
<g id="a_node5"><a xlink:href="../../d0/da9/_patient_8hpp.html" target="_top" xlink:title="Patient.hpp">
<polygon fill="none" stroke="#000000" points="524.4829,-220.5 524.4829,-238.5 591.0786,-238.5 591.0786,-220.5 524.4829,-220.5"/>
<text text-anchor="middle" x="557.7808" y="-226.5" font-family="Helvetica,sans-Serif" font-size="10.00" fill="#000000">Patient.hpp</text>
</a>
</g>
</g>
    <!-- Node0&#45;&gt;Node4 -->
<g id="edge4" class="edge">
<title>Node0&#45;&gt;Node4</title>
<path fill="none" stroke="#191970" d="M232.0933,-275.9063C310.3462,-264.7562 445.0046,-245.5691 514.0956,-235.7246"/>
<polygon fill="#191970" stroke="#191970" points="514.7948,-239.1604 524.201,-234.2847 513.8073,-232.2304 514.7948,-239.1604"/>
</g>
    <!-- Node14 -->
<g id="node15" class="node">
<title>Node14</title>
<g id="a_node15"><a xlink:href="../../d7/d0f/_d_b_master_8hpp.html" target="_top" xlink:title="../DBMaster.hpp">
<polygon fill="none" stroke="#000000" points="181.9287,-110.5 181.9287,-128.5 269.6328,-128.5 269.6328,-110.5 181.9287,-110.5"/>
<text text-anchor="middle" x="225.7808" y="-116.5" font-family="Helvetica,sans-Serif" font-size="10.00" fill="#000000">../DBMaster.hpp</text>
</a>
</g>
</g>
    <!-- Node0&#45;&gt;Node14 -->
<g id="edge26" class="edge">
<title>Node0&#45;&gt;Node14</title>
<path fill="none" stroke="#191970" d="M187.9983,-275.4782C200.3158,-267.6246 216.3601,-254.9964 223.7808,-239 238.925,-206.3544 234.4671,-163.0933 230.0164,-138.5846"/>
<polygon fill="#191970" stroke="#191970" points="233.4418,-137.8647 228.0425,-128.7489 226.5787,-139.2421 233.4418,-137.8647"/>
</g>
    <!-- Node5 -->
<g id="node6" class="node">
<title>Node5</title>
<polygon fill="none" stroke="#bfbfbf" points="858.165,-.5 858.165,-18.5 901.3965,-18.5 901.3965,-.5 858.165,-.5"/>
<text text-anchor="middle" x="879.7808" y="-6.5" font-family="Helvetica,sans-Serif" font-size="10.00" fill="#000000">vector</text>
</g>
    <!-- Node4&#45;&gt;Node5 -->
<g id="edge5" class="edge">
<title>Node4&#45;&gt;Node5</title>
<path fill="none" stroke="#191970" d="M591.2511,-225.1723C696.8725,-210.6927 1019.0264,-159.949 1067.7808,-74 1071.9472,-66.655 1073.0026,-61.6364 1067.7808,-55 1048.6764,-30.7205 959.9144,-17.8375 911.4963,-12.5113"/>
<polygon fill="#191970" stroke="#191970" points="911.8455,-9.0288 901.5333,-11.4594 911.1105,-15.9901 911.8455,-9.0288"/>
</g>
    <!-- Node6 -->
<g id="node7" class="node">
<title>Node6</title>
<polygon fill="none" stroke="#bfbfbf" points="315.5542,-.5 315.5542,-18.5 356.0073,-18.5 356.0073,-.5 315.5542,-.5"/>
<text text-anchor="middle" x="335.7808" y="-6.5" font-family="Helvetica,sans-Serif" font-size="10.00" fill="#000000">string</text>
</g>
    <!-- Node4&#45;&gt;Node6 -->
<g id="edge6" class="edge">
<title>Node4&#45;&gt;Node6</title>
<path fill="none" stroke="#191970" d="M543.0286,-220.4273C508.7292,-198.7395 422.4589,-140.7029 368.7808,-74 357.5803,-60.0818 348.6502,-41.7535 342.9189,-28.1929"/>
<polygon fill="#191970" stroke="#191970" points="346.0051,-26.4864 339.0261,-18.515 339.5108,-29.0987 346.0051,-26.4864"/>
</g>
    <!-- Node7 -->
<g id="node8" class="node">
<title>Node7</title>
<polygon fill="none" stroke="#bfbfbf" points="907.8696,-55.5 907.8696,-73.5 1041.6919,-73.5 1041.6919,-55.5 907.8696,-55.5"/>
<text text-anchor="middle" x="974.7808" y="-61.5" font-family="Helvetica,sans-Serif" font-size="10.00" fill="#000000">gtkmm/treemodelcolumn.h</text>
</g>
    <!-- Node4&#45;&gt;Node7 -->
<g id="edge7" class="edge">
<title>Node4&#45;&gt;Node7</title>
<path fill="none" stroke="#191970" d="M580.7945,-220.3939C650.7106,-192.7292 860.8033,-109.599 942.1308,-77.4191"/>
<polygon fill="#191970" stroke="#191970" points="943.8274,-80.5118 951.8382,-73.578 941.2519,-74.0028 943.8274,-80.5118"/>
</g>
    <!-- Node8 -->
<g id="node9" class="node">
<title>Node8</title>
<g id="a_node9"><a xlink:href="../../d3/d1b/_i_serializable_8hpp.html" target="_top" xlink:title="../interfaces/ISerializable.hpp">
<polygon fill="none" stroke="#000000" points="401.5791,-55.5 401.5791,-73.5 545.9824,-73.5 545.9824,-55.5 401.5791,-55.5"/>
<text text-anchor="middle" x="473.7808" y="-61.5" font-family="Helvetica,sans-Serif" font-size="10.00" fill="#000000">../interfaces/ISerializable.hpp</text>
</a>
</g>
</g>
    <!-- Node4&#45;&gt;Node8 -->
<g id="edge8" class="edge">
<title>Node4&#45;&gt;Node8</title>
<path fill="none" stroke="#191970" d="M553.0239,-220.1561C539.5673,-193.7235 501.0479,-118.0604 483.1417,-82.8875"/>
<polygon fill="#191970" stroke="#191970" points="486.1414,-81.0651 478.4855,-73.7414 479.9033,-84.2409 486.1414,-81.0651"/>
</g>
    <!-- Node10 -->
<g id="node11" class="node">
<title>Node10</title>
<g id="a_node11"><a xlink:href="../../de/d01/_prescription_8hpp.html" target="_top" xlink:title="Prescription.hpp">
<polygon fill="none" stroke="#000000" points="567.6504,-165.5 567.6504,-183.5 655.9111,-183.5 655.9111,-165.5 567.6504,-165.5"/>
<text text-anchor="middle" x="611.7808" y="-171.5" font-family="Helvetica,sans-Serif" font-size="10.00" fill="#000000">Prescription.hpp</text>
</a>
</g>
</g>
    <!-- Node4&#45;&gt;Node10 -->
<g id="edge12" class="edge">
<title>Node4&#45;&gt;Node10</title>
<path fill="none" stroke="#191970" d="M566.6978,-220.4179C574.5453,-212.425 586.1648,-200.5903 595.6419,-190.9377"/>
<polygon fill="#191970" stroke="#191970" points="598.1616,-193.3672 602.67,-183.7795 593.1666,-188.463 598.1616,-193.3672"/>
</g>
    <!-- Node8&#45;&gt;Node5 -->
<g id="edge11" class="edge">
<title>Node8&#45;&gt;Node5</title>
<path fill="none" stroke="#191970" d="M540.3688,-55.4795C628.8052,-43.4992 781.5288,-22.81 847.6846,-13.848"/>
<polygon fill="#191970" stroke="#191970" points="848.4628,-17.2746 857.9024,-12.4638 847.5231,-10.338 848.4628,-17.2746"/>
</g>
    <!-- Node8&#45;&gt;Node6 -->
<g id="edge9" class="edge">
<title>Node8&#45;&gt;Node6</title>
<path fill="none" stroke="#191970" d="M450.9929,-55.4179C427.7442,-46.1521 391.5417,-31.7236 365.9314,-21.5165"/>
<polygon fill="#191970" stroke="#191970" points="366.9328,-18.148 356.3476,-17.6969 364.3412,-24.6506 366.9328,-18.148"/>
</g>
    <!-- Node9 -->
<g id="node10" class="node">
<title>Node9</title>
<polygon fill="none" stroke="#bfbfbf" points="594.0542,-.5 594.0542,-18.5 629.5073,-18.5 629.5073,-.5 594.0542,-.5"/>
<text text-anchor="middle" x="611.7808" y="-6.5" font-family="Helvetica,sans-Serif" font-size="10.00" fill="#000000">map</text>
</g>
    <!-- Node8&#45;&gt;Node9 -->
<g id="edge10" class="edge">
<title>Node8&#45;&gt;Node9</title>
<path fill="none" stroke="#191970" d="M496.5687,-55.4179C520.6283,-45.8289 558.5614,-30.7106 584.2706,-20.4642"/>
<polygon fill="#191970" stroke="#191970" points="585.808,-23.6193 593.8016,-16.6656 583.2164,-17.1167 585.808,-23.6193"/>
</g>
    <!-- Node10&#45;&gt;Node5 -->
<g id="edge13" class="edge">
<title>Node10&#45;&gt;Node5</title>
<path fill="none" stroke="#191970" d="M655.9462,-171.1829C757.2935,-162.5602 1001.6255,-135.6799 1050.7808,-74 1089.2094,-25.7798 970.7567,-13.6005 911.4585,-10.5308"/>
<polygon fill="#191970" stroke="#191970" points="911.6144,-7.0344 901.4639,-10.0706 911.2923,-14.027 911.6144,-7.0344"/>
</g>
    <!-- Node10&#45;&gt;Node6 -->
<g id="edge14" class="edge">
<title>Node10&#45;&gt;Node6</title>
<path fill="none" stroke="#191970" d="M582.4231,-165.4192C538.3451,-150.8603 453.7432,-119.2606 392.7808,-74 375.0641,-60.8466 358.8221,-41.4088 348.2476,-27.3118"/>
<polygon fill="#191970" stroke="#191970" points="350.8708,-24.968 342.1585,-18.9392 345.2096,-29.0852 350.8708,-24.968"/>
</g>
    <!-- Node10&#45;&gt;Node7 -->
<g id="edge16" class="edge">
<title>Node10&#45;&gt;Node7</title>
<path fill="none" stroke="#191970" d="M641.4866,-165.4982C706.5788,-145.7733 861.8134,-98.7325 935.135,-76.5139"/>
<polygon fill="#191970" stroke="#191970" points="936.3643,-79.7986 944.9195,-73.5489 934.3342,-73.0994 936.3643,-79.7986"/>
</g>
    <!-- Node10&#45;&gt;Node8 -->
<g id="edge17" class="edge">
<title>Node10&#45;&gt;Node8</title>
<path fill="none" stroke="#191970" d="M600.4876,-165.4982C576.9351,-146.7244 522.3386,-103.2055 493.0947,-79.8952"/>
<polygon fill="#191970" stroke="#191970" points="495.2313,-77.1224 485.2299,-73.6261 490.8681,-82.5962 495.2313,-77.1224"/>
</g>
    <!-- Node10&#45;&gt;Node9 -->
<g id="edge15" class="edge">
<title>Node10&#45;&gt;Node9</title>
<path fill="none" stroke="#191970" d="M611.7808,-165.1561C611.7808,-138.9504 611.7808,-64.3557 611.7808,-28.8021"/>
<polygon fill="#191970" stroke="#191970" points="615.2809,-28.7414 611.7808,-18.7414 608.2809,-28.7414 615.2809,-28.7414"/>
</g>
    <!-- Node11 -->
<g id="node12" class="node">
<title>Node11</title>
<g id="a_node12"><a xlink:href="../../dd/df9/_drug_8hpp.html" target="_top" xlink:title="Drug.hpp">
<polygon fill="none" stroke="#000000" points="670.2119,-110.5 670.2119,-128.5 727.3496,-128.5 727.3496,-110.5 670.2119,-110.5"/>
<text text-anchor="middle" x="698.7808" y="-116.5" font-family="Helvetica,sans-Serif" font-size="10.00" fill="#000000">Drug.hpp</text>
</a>
</g>
</g>
    <!-- Node10&#45;&gt;Node11 -->
<g id="edge18" class="edge">
<title>Node10&#45;&gt;Node11</title>
<path fill="none" stroke="#191970" d="M626.147,-165.4179C639.6221,-156.8992 660,-144.0166 675.7452,-134.0627"/>
<polygon fill="#191970" stroke="#191970" points="677.8108,-136.8977 684.3931,-128.5956 674.0703,-130.9808 677.8108,-136.8977"/>
</g>
    <!-- Node11&#45;&gt;Node5 -->
<g id="edge20" class="edge">
<title>Node11&#45;&gt;Node5</title>
<path fill="none" stroke="#191970" d="M727.5032,-114.8555C768.7751,-107.6294 841.9683,-92.5758 860.7808,-74 872.7098,-62.221 877.2342,-43.3598 878.9077,-29.069"/>
<polygon fill="#191970" stroke="#191970" points="882.4196,-29.0571 879.7255,-18.8106 875.4418,-28.5008 882.4196,-29.0571"/>
</g>
    <!-- Node11&#45;&gt;Node6 -->
<g id="edge19" class="edge">
<title>Node11&#45;&gt;Node6</title>
<path fill="none" stroke="#191970" d="M681.5305,-110.2954C654.9856,-96.4749 602.2145,-70.3506 554.7808,-55 489.0454,-33.7266 408.8984,-20.0455 366.1247,-13.679"/>
<polygon fill="#191970" stroke="#191970" points="366.4867,-10.1949 356.0868,-12.2178 365.4783,-17.1219 366.4867,-10.1949"/>
</g>
    <!-- Node11&#45;&gt;Node7 -->
<g id="edge22" class="edge">
<title>Node11&#45;&gt;Node7</title>
<path fill="none" stroke="#191970" d="M727.5365,-113.7697C772.7323,-104.7633 861.2012,-87.1336 919.1357,-75.5887"/>
<polygon fill="#191970" stroke="#191970" points="920.1018,-78.9651 929.2249,-73.5782 918.7337,-72.1001 920.1018,-78.9651"/>
</g>
    <!-- Node11&#45;&gt;Node8 -->
<g id="edge25" class="edge">
<title>Node11&#45;&gt;Node8</title>
<path fill="none" stroke="#191970" d="M669.8266,-112.4223C632.0889,-103.1976 565.6178,-86.949 520.6535,-75.9578"/>
<polygon fill="#191970" stroke="#191970" points="521.3875,-72.5342 510.8424,-73.5595 519.7252,-79.334 521.3875,-72.5342"/>
</g>
    <!-- Node11&#45;&gt;Node9 -->
<g id="edge21" class="edge">
<title>Node11&#45;&gt;Node9</title>
<path fill="none" stroke="#191970" d="M691.6612,-110.4982C677.1952,-92.2079 644.153,-50.4304 625.4124,-26.7354"/>
<polygon fill="#191970" stroke="#191970" points="627.9473,-24.2983 618.9987,-18.6261 622.4569,-28.6407 627.9473,-24.2983"/>
</g>
    <!-- Node12 -->
<g id="node13" class="node">
<title>Node12</title>
<polygon fill="none" stroke="#bfbfbf" points="677.9878,-55.5 677.9878,-73.5 779.5737,-73.5 779.5737,-55.5 677.9878,-55.5"/>
<text text-anchor="middle" x="728.7808" y="-61.5" font-family="Helvetica,sans-Serif" font-size="10.00" fill="#000000">gtkmm/treemodel.h</text>
</g>
    <!-- Node11&#45;&gt;Node12 -->
<g id="edge23" class="edge">
<title>Node11&#45;&gt;Node12</title>
<path fill="none" stroke="#191970" d="M703.7347,-110.4179C707.8354,-102.8998 713.7901,-91.9829 718.8645,-82.6799"/>
<polygon fill="#191970" stroke="#191970" points="722.0033,-84.2344 723.7192,-73.7795 715.858,-80.8824 722.0033,-84.2344"/>
</g>
    <!-- Node13 -->
<g id="node14" class="node">
<title>Node13</title>
<polygon fill="none" stroke="#bfbfbf" points="797.6084,-55.5 797.6084,-73.5 851.9531,-73.5 851.9531,-55.5 797.6084,-55.5"/>
<text text-anchor="middle" x="824.7808" y="-61.5" font-family="Helvetica,sans-Serif" font-size="10.00" fill="#000000">iostream</text>
</g>
    <!-- Node11&#45;&gt;Node13 -->
<g id="edge24" class="edge">
<title>Node11&#45;&gt;Node13</title>
<path fill="none" stroke="#191970" d="M719.5871,-110.4179C740.0147,-101.5011 771.3956,-87.803 794.57,-77.6873"/>
<polygon fill="#191970" stroke="#191970" points="796.1788,-80.804 803.9435,-73.5956 793.3784,-74.3885 796.1788,-80.804"/>
</g>
    <!-- Node14&#45;&gt;Node5 -->
<g id="edge30" class="edge">
<title>Node14&#45;&gt;Node5</title>
<path fill="none" stroke="#191970" d="M244.2759,-110.4041C274.5204,-95.982 336.8076,-68.157 392.7808,-55 480.0381,-34.4894 754.5734,-16.8643 848.1631,-11.3142"/>
<polygon fill="#191970" stroke="#191970" points="848.3791,-14.8077 858.1565,-10.7269 847.9683,-7.8197 848.3791,-14.8077"/>
</g>
    <!-- Node14&#45;&gt;Node6 -->
<g id="edge28" class="edge">
<title>Node14&#45;&gt;Node6</title>
<path fill="none" stroke="#191970" d="M233.3383,-110.4284C244.1116,-97.655 264.6981,-73.8257 283.7808,-55 294.3219,-44.6008 306.7874,-33.6516 316.8707,-25.1006"/>
<polygon fill="#191970" stroke="#191970" points="319.2727,-27.6541 324.6859,-18.5464 314.7746,-22.2905 319.2727,-27.6541"/>
</g>
    <!-- Node14&#45;&gt;Node8 -->
<g id="edge31" class="edge">
<title>Node14&#45;&gt;Node8</title>
<path fill="none" stroke="#191970" d="M266.4552,-110.4795C309.3427,-100.9681 376.9813,-85.9676 423.2602,-75.7042"/>
<polygon fill="#191970" stroke="#191970" points="424.0791,-79.1077 433.0841,-73.5255 422.5635,-72.2737 424.0791,-79.1077"/>
</g>
    <!-- Node15 -->
<g id="node16" class="node">
<title>Node15</title>
<polygon fill="none" stroke="#bfbfbf" points="102.1577,-55.5 102.1577,-73.5 155.4038,-73.5 155.4038,-55.5 102.1577,-55.5"/>
<text text-anchor="middle" x="128.7808" y="-61.5" font-family="Helvetica,sans-Serif" font-size="10.00" fill="#000000">sqlite3.h</text>
</g>
    <!-- Node14&#45;&gt;Node15 -->
<g id="edge27" class="edge">
<title>Node14&#45;&gt;Node15</title>
<path fill="none" stroke="#191970" d="M209.7632,-110.4179C194.5989,-101.8195 171.5937,-88.7754 153.9733,-78.7844"/>
<polygon fill="#191970" stroke="#191970" points="155.2474,-75.4834 144.8221,-73.5956 151.7947,-81.5727 155.2474,-75.4834"/>
</g>
    <!-- Node16 -->
<g id="node17" class="node">
<title>Node16</title>
<polygon fill="none" stroke="#bfbfbf" points="173.3794,-55.5 173.3794,-73.5 232.1821,-73.5 232.1821,-55.5 173.3794,-55.5"/>
<text text-anchor="middle" x="202.7808" y="-61.5" font-family="Helvetica,sans-Serif" font-size="10.00" fill="#000000">stdexcept</text>
</g>
    <!-- Node14&#45;&gt;Node16 -->
<g id="edge29" class="edge">
<title>Node14&#45;&gt;Node16</title>
<path fill="none" stroke="#191970" d="M221.9828,-110.4179C218.9051,-103.0581 214.4652,-92.441 210.6298,-83.2695"/>
<polygon fill="#191970" stroke="#191970" points="213.7484,-81.6549 206.6613,-73.7795 207.2904,-84.3556 213.7484,-81.6549"/>
</g>
</g>
</svg>
        <g id="navigator" transform="translate(0 0)" fill="#404254">
                <rect fill="#f2f5e9" fill-opacity="0.5" stroke="#606060" stroke-width=".5" x="0" y="0" width="60" height="60"/>
                <use id="zoomplus" xlink:href="#zoomPlus" x="17" y="9" onmousedown="handleZoom(evt,'in')"/>
                <use id="zoomminus" xlink:href="#zoomMin" x="42" y="9" onmousedown="handleZoom(evt,'out')"/>
                <use id="reset" xlink:href="#resetDef" x="30" y="36" onmousedown="handleReset()"/>
                <g id="arrowUp" xlink:href="#dirArrow" transform="translate(30 24)" onmousedown="handlePan(0,-1)">
                  <use xlink:href="#rim" fill="#404040">
                        <set attributeName="fill" to="#808080" begin="arrowUp.mouseover" end="arrowUp.mouseout"/>
                  </use>
                  <path fill="none" stroke="white" stroke-width="1.5" d="M0,-3.0v7 M-2.5,-0.5L0,-3.0L2.5,-0.5"/>
                </g>
                <g id="arrowRight" xlink:href="#dirArrow" transform="rotate(90) translate(36 -43)" onmousedown="handlePan(1,0)">
                  <use xlink:href="#rim" fill="#404040">
                        <set attributeName="fill" to="#808080" begin="arrowRight.mouseover" end="arrowRight.mouseout"/>
                  </use>
                  <path fill="none" stroke="white" stroke-width="1.5" d="M0,-3.0v7 M-2.5,-0.5L0,-3.0L2.5,-0.5"/>
                </g>
                <g id="arrowDown" xlink:href="#dirArrow" transform="rotate(180) translate(-30 -48)" onmousedown="handlePan(0,1)">
                  <use xlink:href="#rim" fill="#404040">
                        <set attributeName="fill" to="#808080" begin="arrowDown.mouseover" end="arrowDown.mouseout"/>
                  </use>
                  <path fill="none" stroke="white" stroke-width="1.5" d="M0,-3.0v7 M-2.5,-0.5L0,-3.0L2.5,-0.5"/>
                </g>
                <g id="arrowLeft" xlink:href="#dirArrow" transform="rotate(270) translate(-36 17)" onmousedown="handlePan(-1,0)">
                  <use xlink:href="#rim" fill="#404040">
                        <set attributeName="fill" to="#808080" begin="arrowLeft.mouseover" end="arrowLeft.mouseout"/>
                  </use>
                  <path fill="none" stroke="white" stroke-width="1.5" d="M0,-3.0v7 M-2.5,-0.5L0,-3.0L2.5,-0.5"/>
                </g>
        </g>
        <svg viewBox="0 0 15 15" width="100%" height="30px" preserveAspectRatio="xMaxYMin meet">
         <g id="arrow_out" transform="scale(0.3 0.3)">
          <a xlink:href="_patient_8cpp__incl_org.svg" target="_base">
           <rect id="button" ry="5" rx="5" y="6" x="6" height="38" width="38"
                fill="#f2f5e9" fill-opacity="0.5" stroke="#606060" stroke-width="1.0"/>
           <path id="arrow"
             d="M 11.500037,31.436501 C 11.940474,20.09759 22.043105,11.32322 32.158766,21.979434 L 37.068811,17.246167 C 37.068811,17.246167 37.088388,32 37.088388,32 L 22.160133,31.978069 C 22.160133,31.978069 26.997745,27.140456 26.997745,27.140456 C 18.528582,18.264221 13.291696,25.230495 11.500037,31.436501 z"
             style="fill:#404040;"/>
          </a>
         </g>
        </svg>
</svg>
