<?xml version="1.0" encoding="UTF-8" standalone="no"?>
<!DOCTYPE svg PUBLIC "-//W3C//DTD SVG 1.1//EN"
        "http://www.w3.org/Graphics/SVG/1.1/DTD/svg11.dtd">
<!-- Generated by graphviz version 2.40.1 (20161225.0304)
 -->
<!-- Title: code/model/Patient.cpp Pages: 1 -->
<svg width="692pt" height="302pt"
     viewBox="0.00 0.00 691.59 302.00" xmlns="http://www.w3.org/2000/svg" xmlns:xlink="http://www.w3.org/1999/xlink">
    <g id="graph0" class="graph" transform="scale(1 1) rotate(0) translate(4 298)">
        <title>code/model/Patient.cpp</title>
        <!-- Node0 -->
        <g id="node1" class="node">
            <title>Node0</title>
            <polygon fill="#bfbfbf" stroke="#000000"
                     points="99.6463,-275.5 99.6463,-293.5 220.158,-293.5 220.158,-275.5 99.6463,-275.5"/>
            <text text-anchor="middle" x="159.9021" y="-281.5" font-family="Helvetica,sans-Serif" font-size="10.00"
                  fill="#000000">code/model/Patient.cpp
            </text>
        </g>
        <!-- Node1 -->
        <g id="node2" class="node">
            <title>Node1</title>
            <polygon fill="none" stroke="#bfbfbf"
                     points="46.1214,-220.5 46.1214,-238.5 97.6829,-238.5 97.6829,-220.5 46.1214,-220.5"/>
            <text text-anchor="middle" x="71.9021" y="-226.5" font-family="Helvetica,sans-Serif" font-size="10.00"
                  fill="#000000">sstream
            </text>
        </g>
        <!-- Node0&#45;&gt;Node1 -->
        <g id="edge1" class="edge">
            <title>Node0&#45;&gt;Node1</title>
            <path fill="none" stroke="#191970"
                  d="M145.3707,-275.4179C131.7408,-266.8992 111.1286,-254.0166 95.2025,-244.0627"/>
            <polygon fill="#191970" stroke="#191970"
                     points="96.7901,-240.9277 86.4551,-238.5956 93.0801,-246.8637 96.7901,-240.9277"/>
        </g>
        <!-- Node2 -->
        <g id="node3" class="node">
            <title>Node2</title>
            <polygon fill="none" stroke="#bfbfbf"
                     points="115.3948,-220.5 115.3948,-238.5 156.4094,-238.5 156.4094,-220.5 115.3948,-220.5"/>
            <text text-anchor="middle" x="135.9021" y="-226.5" font-family="Helvetica,sans-Serif" font-size="10.00"
                  fill="#000000">regex
            </text>
        </g>
        <!-- Node0&#45;&gt;Node2 -->
        <g id="edge2" class="edge">
            <title>Node0&#45;&gt;Node2</title>
            <path fill="none" stroke="#191970"
                  d="M155.939,-275.4179C152.6929,-267.9789 147.9948,-257.2123 143.9636,-247.9742"/>
            <polygon fill="#191970" stroke="#191970"
                     points="147.1587,-246.545 139.9513,-238.7795 140.7429,-249.3447 147.1587,-246.545"/>
        </g>
        <!-- Node3 -->
        <g id="node4" class="node">
            <title>Node3</title>
            <g id="a_node4">
                <a xlink:href="../../d0/da9/_patient_8hpp.html" target="_top" xlink:title="Patient.hpp">
                    <polygon fill="none" stroke="#000000"
                             points="335.6043,-220.5 335.6043,-238.5 402.2,-238.5 402.2,-220.5 335.6043,-220.5"/>
                    <text text-anchor="middle" x="368.9021" y="-226.5" font-family="Helvetica,sans-Serif"
                          font-size="10.00" fill="#000000">Patient.hpp
                    </text>
                </a>
            </g>
        </g>
        <!-- Node0&#45;&gt;Node3 -->
        <g id="edge3" class="edge">
            <title>Node0&#45;&gt;Node3</title>
            <path fill="none" stroke="#191970"
                  d="M194.4142,-275.4179C230.2812,-265.9792 286.5061,-251.1832 325.394,-240.9495"/>
            <polygon fill="#191970" stroke="#191970"
                     points="326.597,-244.2522 335.377,-238.3224 324.8155,-237.4826 326.597,-244.2522"/>
        </g>
        <!-- Node11 -->
        <g id="node12" class="node">
            <title>Node11</title>
            <g id="a_node12">
                <a xlink:href="../../d7/d0f/_d_b_master_8hpp.html" target="_top" xlink:title="../DBMaster.hpp">
                    <polygon fill="none" stroke="#000000"
                             points="129.0501,-110.5 129.0501,-128.5 216.7542,-128.5 216.7542,-110.5 129.0501,-110.5"/>
                    <text text-anchor="middle" x="172.9021" y="-116.5" font-family="Helvetica,sans-Serif"
                          font-size="10.00" fill="#000000">../DBMaster.hpp
                    </text>
                </a>
            </g>
        </g>
        <!-- Node0&#45;&gt;Node11 -->
        <g id="edge22" class="edge">
            <title>Node0&#45;&gt;Node11</title>
            <path fill="none" stroke="#191970"
                  d="M161.2914,-275.4576C162.6532,-266.2917 164.6952,-251.6911 165.9021,-239 169.2667,-203.619 171.2599,-162.1806 172.2124,-138.5671"/>
            <polygon fill="#191970" stroke="#191970"
                     points="175.7121,-138.6383 172.5979,-128.5116 168.7173,-138.3701 175.7121,-138.6383"/>
        </g>
        <!-- Node4 -->
        <g id="node5" class="node">
            <title>Node4</title>
            <polygon fill="none" stroke="#bfbfbf"
                     points="199.2864,-55.5 199.2864,-73.5 242.5178,-73.5 242.5178,-55.5 199.2864,-55.5"/>
            <text text-anchor="middle" x="220.9021" y="-61.5" font-family="Helvetica,sans-Serif" font-size="10.00"
                  fill="#000000">vector
            </text>
        </g>
        <!-- Node3&#45;&gt;Node4 -->
        <g id="edge4" class="edge">
            <title>Node3&#45;&gt;Node4</title>
            <path fill="none" stroke="#191970"
                  d="M360.5209,-220.1561C336.5064,-193.3832 267.1892,-116.1038 236.1947,-81.5492"/>
            <polygon fill="#191970" stroke="#191970"
                     points="238.474,-78.8485 229.1914,-73.7414 233.2631,-83.5226 238.474,-78.8485"/>
        </g>
        <!-- Node5 -->
        <g id="node6" class="node">
            <title>Node5</title>
            <polygon fill="none" stroke="#bfbfbf"
                     points="450.6756,-.5 450.6756,-18.5 491.1287,-18.5 491.1287,-.5 450.6756,-.5"/>
            <text text-anchor="middle" x="470.9021" y="-6.5" font-family="Helvetica,sans-Serif" font-size="10.00"
                  fill="#000000">string
            </text>
        </g>
        <!-- Node3&#45;&gt;Node5 -->
        <g id="edge5" class="edge">
            <title>Node3&#45;&gt;Node5</title>
            <path fill="none" stroke="#191970"
                  d="M402.307,-224.9046C469.9653,-213.5505 621.6992,-177.1852 679.9021,-74 684.0508,-66.6449 685.2002,-61.5756 679.9021,-55 657.8328,-27.6092 553.9691,-15.8406 501.4582,-11.5728"/>
            <polygon fill="#191970" stroke="#191970"
                     points="501.6197,-8.075 491.38,-10.7949 501.0809,-15.0542 501.6197,-8.075"/>
        </g>
        <!-- Node6 -->
        <g id="node7" class="node">
            <title>Node6</title>
            <polygon fill="none" stroke="#bfbfbf"
                     points="536.991,-55.5 536.991,-73.5 670.8132,-73.5 670.8132,-55.5 536.991,-55.5"/>
            <text text-anchor="middle" x="603.9021" y="-61.5" font-family="Helvetica,sans-Serif" font-size="10.00"
                  fill="#000000">gtkmm/treemodelcolumn.h
            </text>
        </g>
        <!-- Node3&#45;&gt;Node6 -->
        <g id="edge6" class="edge">
            <title>Node3&#45;&gt;Node6</title>
            <path fill="none" stroke="#191970"
                  d="M392.0263,-220.3779C428.5138,-205.2275 500.4721,-172.216 550.9021,-129 566.9973,-115.2072 582.0002,-96.1228 591.9058,-82.2945"/>
            <polygon fill="#191970" stroke="#191970"
                     points="595.0555,-83.8962 597.8999,-73.6903 589.3118,-79.8948 595.0555,-83.8962"/>
        </g>
        <!-- Node7 -->
        <g id="node8" class="node">
            <title>Node7</title>
            <g id="a_node8">
                <a xlink:href="../../d3/d1b/_i_serializable_8hpp.html" target="_top"
                   xlink:title="../interfaces/ISerializable.hpp">
                    <polygon fill="none" stroke="#000000"
                             points="260.7005,-55.5 260.7005,-73.5 405.1038,-73.5 405.1038,-55.5 260.7005,-55.5"/>
                    <text text-anchor="middle" x="332.9021" y="-61.5" font-family="Helvetica,sans-Serif"
                          font-size="10.00" fill="#000000">../interfaces/ISerializable.hpp
                    </text>
                </a>
            </g>
        </g>
        <!-- Node3&#45;&gt;Node7 -->
        <g id="edge7" class="edge">
            <title>Node3&#45;&gt;Node7</title>
            <path fill="none" stroke="#191970"
                  d="M364.8281,-220.2658C360.9768,-211.1961 355.2967,-196.8839 351.9021,-184 342.749,-149.2601 337.346,-107.6063 334.7674,-83.7791"/>
            <polygon fill="#191970" stroke="#191970"
                     points="338.2277,-83.2126 333.7244,-73.6225 331.2644,-83.9278 338.2277,-83.2126"/>
        </g>
        <!-- Node9 -->
        <g id="node10" class="node">
            <title>Node9</title>
            <g id="a_node10">
                <a xlink:href="../../de/d01/_prescription_8hpp.html" target="_top" xlink:title="Prescription.hpp">
                    <polygon fill="none" stroke="#000000"
                             points="360.7717,-165.5 360.7717,-183.5 449.0325,-183.5 449.0325,-165.5 360.7717,-165.5"/>
                    <text text-anchor="middle" x="404.9021" y="-171.5" font-family="Helvetica,sans-Serif"
                          font-size="10.00" fill="#000000">Prescription.hpp
                    </text>
                </a>
            </g>
        </g>
        <!-- Node3&#45;&gt;Node9 -->
        <g id="edge10" class="edge">
            <title>Node3&#45;&gt;Node9</title>
            <path fill="none" stroke="#191970"
                  d="M374.8468,-220.4179C379.8195,-212.8207 387.064,-201.7527 393.1945,-192.3866"/>
            <polygon fill="#191970" stroke="#191970"
                     points="396.2801,-194.0633 398.8283,-183.7795 390.4232,-190.2297 396.2801,-194.0633"/>
        </g>
        <!-- Node7&#45;&gt;Node5 -->
        <g id="edge8" class="edge">
            <title>Node7&#45;&gt;Node5</title>
            <path fill="none" stroke="#191970"
                  d="M355.69,-55.4179C378.9386,-46.1521 415.1412,-31.7236 440.7515,-21.5165"/>
            <polygon fill="#191970" stroke="#191970"
                     points="442.3417,-24.6506 450.3353,-17.6969 439.7501,-18.148 442.3417,-24.6506"/>
        </g>
        <!-- Node8 -->
        <g id="node9" class="node">
            <title>Node8</title>
            <polygon fill="none" stroke="#bfbfbf"
                     points="315.1756,-.5 315.1756,-18.5 350.6287,-18.5 350.6287,-.5 315.1756,-.5"/>
            <text text-anchor="middle" x="332.9021" y="-6.5" font-family="Helvetica,sans-Serif" font-size="10.00"
                  fill="#000000">map
            </text>
        </g>
        <!-- Node7&#45;&gt;Node8 -->
        <g id="edge9" class="edge">
            <title>Node7&#45;&gt;Node8</title>
            <path fill="none" stroke="#191970"
                  d="M332.9021,-55.4179C332.9021,-48.2164 332.9021,-37.8962 332.9021,-28.8632"/>
            <polygon fill="#191970" stroke="#191970"
                     points="336.4022,-28.7794 332.9021,-18.7795 329.4022,-28.7795 336.4022,-28.7794"/>
        </g>
        <!-- Node9&#45;&gt;Node4 -->
        <g id="edge11" class="edge">
            <title>Node9&#45;&gt;Node4</title>
            <path fill="none" stroke="#191970"
                  d="M389.8446,-165.4982C358.0368,-146.4827 283.7644,-102.0807 245.1649,-79.005"/>
            <polygon fill="#191970" stroke="#191970"
                     points="246.5468,-75.7533 236.1677,-73.6261 242.9549,-81.7615 246.5468,-75.7533"/>
        </g>
        <!-- Node9&#45;&gt;Node5 -->
        <g id="edge12" class="edge">
            <title>Node9&#45;&gt;Node5</title>
            <path fill="none" stroke="#191970"
                  d="M426.937,-165.3418C441.7014,-157.9118 460.0082,-145.8872 468.9021,-129 485.7556,-96.9996 480.586,-53.1764 475.5701,-28.4653"/>
            <polygon fill="#191970" stroke="#191970"
                     points="478.9547,-27.5624 473.356,-18.5676 472.1235,-29.0905 478.9547,-27.5624"/>
        </g>
        <!-- Node9&#45;&gt;Node6 -->
        <g id="edge14" class="edge">
            <title>Node9&#45;&gt;Node6</title>
            <path fill="none" stroke="#191970"
                  d="M435.8811,-165.424C460.3822,-157.5794 494.9919,-144.9897 522.9021,-129 546.8108,-115.3028 571.1277,-94.8844 586.7925,-80.7041"/>
            <polygon fill="#191970" stroke="#191970"
                     points="589.1659,-83.2765 594.1476,-73.9259 584.4221,-78.129 589.1659,-83.2765"/>
        </g>
        <!-- Node9&#45;&gt;Node7 -->
        <g id="edge15" class="edge">
            <title>Node9&#45;&gt;Node7</title>
            <path fill="none" stroke="#191970"
                  d="M399.0101,-165.4982C387.0909,-147.2885 359.9336,-105.798 344.3891,-82.0496"/>
            <polygon fill="#191970" stroke="#191970"
                     points="347.2807,-80.0764 338.8756,-73.6261 341.4238,-83.91 347.2807,-80.0764"/>
        </g>
        <!-- Node9&#45;&gt;Node8 -->
        <g id="edge13" class="edge">
            <title>Node9&#45;&gt;Node8</title>
            <path fill="none" stroke="#191970"
                  d="M360.5187,-170.8161C264.3246,-161.7404 42.1746,-134.5029 3.9021,-74 -.6122,-66.8635 -1.6449,-61.367 3.9021,-55 23.6227,-32.3644 228.9878,-16.4456 304.9002,-11.2954"/>
            <polygon fill="#191970" stroke="#191970"
                     points="305.3784,-14.7714 315.1235,-10.6142 304.9129,-7.7869 305.3784,-14.7714"/>
        </g>
        <!-- Node10 -->
        <g id="node11" class="node">
            <title>Node10</title>
            <g id="a_node11">
                <a xlink:href="../../dd/df9/_drug_8hpp.html" target="_top" xlink:title="Drug.hpp">
                    <polygon fill="none" stroke="#000000"
                             points="402.3333,-110.5 402.3333,-128.5 459.471,-128.5 459.471,-110.5 402.3333,-110.5"/>
                    <text text-anchor="middle" x="430.9021" y="-116.5" font-family="Helvetica,sans-Serif"
                          font-size="10.00" fill="#000000">Drug.hpp
                    </text>
                </a>
            </g>
        </g>
        <!-- Node9&#45;&gt;Node10 -->
        <g id="edge16" class="edge">
            <title>Node9&#45;&gt;Node10</title>
            <path fill="none" stroke="#191970"
                  d="M409.1955,-165.4179C412.7121,-157.9789 417.8017,-147.2123 422.1689,-137.9742"/>
            <polygon fill="#191970" stroke="#191970"
                     points="425.4059,-139.316 426.5155,-128.7795 419.0774,-136.3243 425.4059,-139.316"/>
        </g>
        <!-- Node10&#45;&gt;Node4 -->
        <g id="edge18" class="edge">
            <title>Node10&#45;&gt;Node4</title>
            <path fill="none" stroke="#191970"
                  d="M402.2672,-112.6745C368.6986,-104.5744 311.1785,-90.3892 252.3723,-74.0298"/>
            <polygon fill="#191970" stroke="#191970"
                     points="253.1163,-70.6036 242.543,-71.2781 251.2292,-77.3444 253.1163,-70.6036"/>
        </g>
        <!-- Node10&#45;&gt;Node5 -->
        <g id="edge17" class="edge">
            <title>Node10&#45;&gt;Node5</title>
            <path fill="none" stroke="#191970"
                  d="M434.1755,-110.4982C440.68,-92.6108 455.3532,-52.2594 464.0559,-28.3271"/>
            <polygon fill="#191970" stroke="#191970"
                     points="467.4553,-29.2202 467.5835,-18.6261 460.8767,-26.828 467.4553,-29.2202"/>
        </g>
        <!-- Node10&#45;&gt;Node6 -->
        <g id="edge20" class="edge">
            <title>Node10&#45;&gt;Node6</title>
            <path fill="none" stroke="#191970"
                  d="M459.4695,-110.4179C488.48,-101.1949 533.5801,-86.8567 565.659,-76.6582"/>
            <polygon fill="#191970" stroke="#191970"
                     points="567.1102,-79.8695 575.5798,-73.5042 564.9894,-73.1985 567.1102,-79.8695"/>
        </g>
        <!-- Node10&#45;&gt;Node7 -->
        <g id="edge21" class="edge">
            <title>Node10&#45;&gt;Node7</title>
            <path fill="none" stroke="#191970"
                  d="M414.7194,-110.4179C399.2569,-101.7399 375.7253,-88.5334 357.8613,-78.5077"/>
            <polygon fill="#191970" stroke="#191970"
                     points="359.5424,-75.4377 349.1089,-73.5956 356.1164,-81.542 359.5424,-75.4377"/>
        </g>
        <!-- Node10&#45;&gt;Node8 -->
        <g id="edge19" class="edge">
            <title>Node10&#45;&gt;Node8</title>
            <path fill="none" stroke="#191970"
                  d="M430.6688,-110.1807C429.8787,-96.6777 426.6551,-71.4881 413.9021,-55 400.4561,-37.6158 378.3764,-25.8473 360.663,-18.6414"/>
            <polygon fill="#191970" stroke="#191970"
                     points="361.4278,-15.1884 350.8364,-14.9179 358.9475,-21.7342 361.4278,-15.1884"/>
        </g>
        <!-- Node11&#45;&gt;Node4 -->
        <g id="edge26" class="edge">
            <title>Node11&#45;&gt;Node4</title>
            <path fill="none" stroke="#191970"
                  d="M180.8283,-110.4179C187.6658,-102.5833 197.7246,-91.0575 206.0538,-81.5137"/>
            <polygon fill="#191970" stroke="#191970"
                     points="208.8653,-83.6151 212.8037,-73.7795 203.5913,-79.0123 208.8653,-83.6151"/>
        </g>
        <!-- Node11&#45;&gt;Node5 -->
        <g id="edge24" class="edge">
            <title>Node11&#45;&gt;Node5</title>
            <path fill="none" stroke="#191970"
                  d="M172.435,-110.4613C172.2431,-96.3743 174.1212,-69.3173 189.9021,-55 208.3157,-38.2941 371.4129,-19.7374 440.3523,-12.5624"/>
            <polygon fill="#191970" stroke="#191970"
                     points="440.9826,-16.0161 450.5717,-11.5106 440.2659,-9.0529 440.9826,-16.0161"/>
        </g>
        <!-- Node11&#45;&gt;Node7 -->
        <g id="edge27" class="edge">
            <title>Node11&#45;&gt;Node7</title>
            <path fill="none" stroke="#191970"
                  d="M199.3229,-110.4179C226.0372,-101.2348 267.5036,-86.9807 297.1468,-76.7909"/>
            <polygon fill="#191970" stroke="#191970"
                     points="298.389,-80.065 306.708,-73.5042 296.1134,-73.4452 298.389,-80.065"/>
        </g>
        <!-- Node12 -->
        <g id="node13" class="node">
            <title>Node12</title>
            <polygon fill="none" stroke="#bfbfbf"
                     points="89.2791,-55.5 89.2791,-73.5 142.5252,-73.5 142.5252,-55.5 89.2791,-55.5"/>
            <text text-anchor="middle" x="115.9021" y="-61.5" font-family="Helvetica,sans-Serif" font-size="10.00"
                  fill="#000000">sqlite3.h
            </text>
        </g>
        <!-- Node11&#45;&gt;Node12 -->
        <g id="edge23" class="edge">
            <title>Node11&#45;&gt;Node12</title>
            <path fill="none" stroke="#191970"
                  d="M163.4897,-110.4179C155.2062,-102.425 142.9412,-90.5903 132.9376,-80.9377"/>
            <polygon fill="#191970" stroke="#191970"
                     points="135.1455,-78.2045 125.519,-73.7795 130.2849,-83.2419 135.1455,-78.2045"/>
        </g>
        <!-- Node13 -->
        <g id="node14" class="node">
            <title>Node13</title>
            <polygon fill="none" stroke="#bfbfbf"
                     points="12.5007,-55.5 12.5007,-73.5 71.3035,-73.5 71.3035,-55.5 12.5007,-55.5"/>
            <text text-anchor="middle" x="41.9021" y="-61.5" font-family="Helvetica,sans-Serif" font-size="10.00"
                  fill="#000000">stdexcept
            </text>
        </g>
        <!-- Node11&#45;&gt;Node13 -->
        <g id="edge25" class="edge">
            <title>Node11&#45;&gt;Node13</title>
            <path fill="none" stroke="#191970"
                  d="M151.2701,-110.4179C129.9371,-101.4613 97.1142,-87.6806 72.9896,-77.552"/>
            <polygon fill="#191970" stroke="#191970"
                     points="74.1415,-74.2397 63.5662,-73.5956 71.4317,-80.6939 74.1415,-74.2397"/>
        </g>
    </g>
</svg>
