<?xml version="1.0" encoding="UTF-8" standalone="no"?>
<!DOCTYPE svg PUBLIC "-//W3C//DTD SVG 1.1//EN"
        "http://www.w3.org/Graphics/SVG/1.1/DTD/svg11.dtd">
<!-- Generated by graphviz version 2.40.1 (20161225.0304)
 -->
<!-- Title: code/gui/RefBuilder.cpp Pages: 1 -->
<svg width="359pt" height="137pt"
     viewBox="0.00 0.00 358.84 137.00" xmlns="http://www.w3.org/2000/svg" xmlns:xlink="http://www.w3.org/1999/xlink">
    <g id="graph0" class="graph" transform="scale(1 1) rotate(0) translate(4 133)">
        <title>code/gui/RefBuilder.cpp</title>
        <!-- Node0 -->
        <g id="node1" class="node">
            <title>Node0</title>
            <polygon fill="#bfbfbf" stroke="#000000"
                     points="52.3574,-110.5 52.3574,-128.5 173.9873,-128.5 173.9873,-110.5 52.3574,-110.5"/>
            <text text-anchor="middle" x="113.1724" y="-116.5" font-family="Helvetica,sans-Serif" font-size="10.00"
                  fill="#000000">code/gui/RefBuilder.cpp
            </text>
        </g>
        <!-- Node1 -->
        <g id="node2" class="node">
            <title>Node1</title>
            <polygon fill="none" stroke="#bfbfbf" points="0,-55.5 0,-73.5 54.3447,-73.5 54.3447,-55.5 0,-55.5"/>
            <text text-anchor="middle" x="27.1724" y="-61.5" font-family="Helvetica,sans-Serif" font-size="10.00"
                  fill="#000000">iostream
            </text>
        </g>
        <!-- Node0&#45;&gt;Node1 -->
        <g id="edge1" class="edge">
            <title>Node0&#45;&gt;Node1</title>
            <path fill="none" stroke="#191970"
                  d="M98.9712,-110.4179C85.651,-101.8992 65.5073,-89.0166 49.9432,-79.0627"/>
            <polygon fill="#191970" stroke="#191970"
                     points="51.7049,-76.0348 41.3946,-73.5956 47.9334,-81.932 51.7049,-76.0348"/>
        </g>
        <!-- Node2 -->
        <g id="node3" class="node">
            <title>Node2</title>
            <g id="a_node3">
                <a xlink:href="../../dc/db8/_ref_builder_8hpp.html" target="_top" xlink:title="RefBuilder.hpp">
                    <polygon fill="none" stroke="#000000"
                             points="72.3696,-55.5 72.3696,-73.5 153.9751,-73.5 153.9751,-55.5 72.3696,-55.5"/>
                    <text text-anchor="middle" x="113.1724" y="-61.5" font-family="Helvetica,sans-Serif"
                          font-size="10.00" fill="#000000">RefBuilder.hpp
                    </text>
                </a>
            </g>
        </g>
        <!-- Node0&#45;&gt;Node2 -->
        <g id="edge2" class="edge">
            <title>Node0&#45;&gt;Node2</title>
            <path fill="none" stroke="#191970"
                  d="M113.1724,-110.4179C113.1724,-103.2164 113.1724,-92.8962 113.1724,-83.8632"/>
            <polygon fill="#191970" stroke="#191970"
                     points="116.6725,-83.7794 113.1724,-73.7795 109.6725,-83.7795 116.6725,-83.7794"/>
        </g>
        <!-- Node4 -->
        <g id="node5" class="node">
            <title>Node4</title>
            <g id="a_node5">
                <a xlink:href="../../d1/d32/_configuration_8hpp.html" target="_top" xlink:title="../Configuration.hpp">
                    <polygon fill="none" stroke="#000000"
                             points="193.5322,-55.5 193.5322,-73.5 296.8125,-73.5 296.8125,-55.5 193.5322,-55.5"/>
                    <text text-anchor="middle" x="245.1724" y="-61.5" font-family="Helvetica,sans-Serif"
                          font-size="10.00" fill="#000000">../Configuration.hpp
                    </text>
                </a>
            </g>
        </g>
        <!-- Node0&#45;&gt;Node4 -->
        <g id="edge4" class="edge">
            <title>Node0&#45;&gt;Node4</title>
            <path fill="none" stroke="#191970"
                  d="M134.9695,-110.4179C156.4653,-101.4613 189.5388,-87.6806 213.8476,-77.552"/>
            <polygon fill="#191970" stroke="#191970"
                     points="215.4583,-80.6726 223.3429,-73.5956 212.7659,-74.2111 215.4583,-80.6726"/>
        </g>
        <!-- Node3 -->
        <g id="node4" class="node">
            <title>Node3</title>
            <polygon fill="none" stroke="#bfbfbf"
                     points="48.9976,-.5 48.9976,-18.5 153.3472,-18.5 153.3472,-.5 48.9976,-.5"/>
            <text text-anchor="middle" x="101.1724" y="-6.5" font-family="Helvetica,sans-Serif" font-size="10.00"
                  fill="#000000">gtkmm&#45;3.0/gtkmm.h
            </text>
        </g>
        <!-- Node2&#45;&gt;Node3 -->
        <g id="edge3" class="edge">
            <title>Node2&#45;&gt;Node3</title>
            <path fill="none" stroke="#191970"
                  d="M111.1908,-55.4179C109.6023,-48.1372 107.3183,-37.669 105.3322,-28.5659"/>
            <polygon fill="#191970" stroke="#191970"
                     points="108.7483,-27.8035 103.197,-18.7795 101.9092,-29.2957 108.7483,-27.8035"/>
        </g>
        <!-- Node5 -->
        <g id="node6" class="node">
            <title>Node5</title>
            <polygon fill="none" stroke="#bfbfbf"
                     points="170.9458,-.5 170.9458,-18.5 211.3989,-18.5 211.3989,-.5 170.9458,-.5"/>
            <text text-anchor="middle" x="191.1724" y="-6.5" font-family="Helvetica,sans-Serif" font-size="10.00"
                  fill="#000000">string
            </text>
        </g>
        <!-- Node4&#45;&gt;Node5 -->
        <g id="edge5" class="edge">
            <title>Node4&#45;&gt;Node5</title>
            <path fill="none" stroke="#191970"
                  d="M236.2554,-55.4179C228.4078,-47.425 216.7883,-35.5903 207.3112,-25.9377"/>
            <polygon fill="#191970" stroke="#191970"
                     points="209.7865,-23.463 200.2831,-18.7795 204.7915,-28.3672 209.7865,-23.463"/>
        </g>
        <!-- Node6 -->
        <g id="node7" class="node">
            <title>Node6</title>
            <polygon fill="none" stroke="#bfbfbf"
                     points="229.2686,-.5 229.2686,-18.5 283.0762,-18.5 283.0762,-.5 229.2686,-.5"/>
            <text text-anchor="middle" x="256.1724" y="-6.5" font-family="Helvetica,sans-Serif" font-size="10.00"
                  fill="#000000">json.hpp
            </text>
        </g>
        <!-- Node4&#45;&gt;Node6 -->
        <g id="edge6" class="edge">
            <title>Node4&#45;&gt;Node6</title>
            <path fill="none" stroke="#191970"
                  d="M246.9888,-55.4179C248.4291,-48.2164 250.4931,-37.8962 252.2997,-28.8632"/>
            <polygon fill="#191970" stroke="#191970"
                     points="255.7873,-29.2717 254.3165,-18.7795 248.9232,-27.8988 255.7873,-29.2717"/>
        </g>
        <!-- Node7 -->
        <g id="node8" class="node">
            <title>Node7</title>
            <polygon fill="none" stroke="#bfbfbf"
                     points="301.5024,-.5 301.5024,-18.5 350.8423,-18.5 350.8423,-.5 301.5024,-.5"/>
            <text text-anchor="middle" x="326.1724" y="-6.5" font-family="Helvetica,sans-Serif" font-size="10.00"
                  fill="#000000">fstream
            </text>
        </g>
        <!-- Node4&#45;&gt;Node7 -->
        <g id="edge7" class="edge">
            <title>Node4&#45;&gt;Node7</title>
            <path fill="none" stroke="#191970"
                  d="M258.5479,-55.4179C270.9764,-46.9788 289.7121,-34.257 304.3133,-24.3426"/>
            <polygon fill="#191970" stroke="#191970"
                     points="306.4701,-27.1088 312.777,-18.5956 302.5378,-21.3176 306.4701,-27.1088"/>
        </g>
    </g>
</svg>
