<?xml version="1.0" encoding="UTF-8" standalone="no"?>
<!DOCTYPE svg PUBLIC "-//W3C//DTD SVG 1.1//EN"
        "http://www.w3.org/Graphics/SVG/1.1/DTD/svg11.dtd">
<!-- Generated by graphviz version 2.40.1 (20161225.0304)
 -->
<!-- Title: code/interfaces/ISubject.cpp Pages: 1 -->
<svg width="163pt" height="192pt"
     viewBox="0.00 0.00 163.43 192.00" xmlns="http://www.w3.org/2000/svg" xmlns:xlink="http://www.w3.org/1999/xlink">
    <g id="graph0" class="graph" transform="scale(1 1) rotate(0) translate(4 188)">
        <title>code/interfaces/ISubject.cpp</title>
        <!-- Node0 -->
        <g id="node1" class="node">
            <title>Node0</title>
            <polygon fill="#bfbfbf" stroke="#000000"
                     points="13.8008,-165.5 13.8008,-183.5 155.4307,-183.5 155.4307,-165.5 13.8008,-165.5"/>
            <text text-anchor="middle" x="84.6157" y="-171.5" font-family="Helvetica,sans-Serif" font-size="10.00"
                  fill="#000000">code/interfaces/ISubject.cpp
            </text>
        </g>
        <!-- Node1 -->
        <g id="node2" class="node">
            <title>Node1</title>
            <g id="a_node2">
                <a xlink:href="../../d5/d40/_i_observer_8hpp.html" target="_top" xlink:title="IObserver.hpp">
                    <polygon fill="none" stroke="#000000"
                             points="13.207,-55.5 13.207,-73.5 92.0244,-73.5 92.0244,-55.5 13.207,-55.5"/>
                    <text text-anchor="middle" x="52.6157" y="-61.5" font-family="Helvetica,sans-Serif"
                          font-size="10.00" fill="#000000">IObserver.hpp
                    </text>
                </a>
            </g>
        </g>
        <!-- Node0&#45;&gt;Node1 -->
        <g id="edge1" class="edge">
            <title>Node0&#45;&gt;Node1</title>
            <path fill="none" stroke="#191970"
                  d="M81.997,-165.4982C76.7934,-147.6108 65.0548,-107.2594 58.0927,-83.3271"/>
            <polygon fill="#191970" stroke="#191970"
                     points="61.4247,-82.2504 55.2706,-73.6261 54.7033,-84.2058 61.4247,-82.2504"/>
        </g>
        <!-- Node4 -->
        <g id="node5" class="node">
            <title>Node4</title>
            <g id="a_node5">
                <a xlink:href="../../d1/d25/_i_subject_8hpp.html" target="_top" xlink:title="ISubject.hpp">
                    <polygon fill="none" stroke="#000000"
                             points="80.8179,-110.5 80.8179,-128.5 152.4136,-128.5 152.4136,-110.5 80.8179,-110.5"/>
                    <text text-anchor="middle" x="116.6157" y="-116.5" font-family="Helvetica,sans-Serif"
                          font-size="10.00" fill="#000000">ISubject.hpp
                    </text>
                </a>
            </g>
        </g>
        <!-- Node0&#45;&gt;Node4 -->
        <g id="edge4" class="edge">
            <title>Node0&#45;&gt;Node4</title>
            <path fill="none" stroke="#191970"
                  d="M89.8999,-165.4179C94.274,-157.8998 100.6257,-146.9829 106.0384,-137.6799"/>
            <polygon fill="#191970" stroke="#191970"
                     points="109.213,-139.1831 111.2168,-128.7795 103.1626,-135.6628 109.213,-139.1831"/>
        </g>
        <!-- Node2 -->
        <g id="node3" class="node">
            <title>Node2</title>
            <polygon fill="none" stroke="#bfbfbf" points="0,-.5 0,-18.5 43.2314,-18.5 43.2314,-.5 0,-.5"/>
            <text text-anchor="middle" x="21.6157" y="-6.5" font-family="Helvetica,sans-Serif" font-size="10.00"
                  fill="#000000">mutex
            </text>
        </g>
        <!-- Node1&#45;&gt;Node2 -->
        <g id="edge2" class="edge">
            <title>Node1&#45;&gt;Node2</title>
            <path fill="none" stroke="#191970"
                  d="M47.4967,-55.4179C43.2593,-47.8998 37.1061,-36.9829 31.8625,-27.6799"/>
            <polygon fill="#191970" stroke="#191970"
                     points="34.8052,-25.7724 26.846,-18.7795 28.7071,-29.2096 34.8052,-25.7724"/>
        </g>
        <!-- Node3 -->
        <g id="node4" class="node">
            <title>Node3</title>
            <polygon fill="none" stroke="#bfbfbf"
                     points="61.4385,-.5 61.4385,-18.5 105.793,-18.5 105.793,-.5 61.4385,-.5"/>
            <text text-anchor="middle" x="83.6157" y="-6.5" font-family="Helvetica,sans-Serif" font-size="10.00"
                  fill="#000000">thread
            </text>
        </g>
        <!-- Node1&#45;&gt;Node3 -->
        <g id="edge3" class="edge">
            <title>Node1&#45;&gt;Node3</title>
            <path fill="none" stroke="#191970"
                  d="M57.7347,-55.4179C61.9722,-47.8998 68.1254,-36.9829 73.3689,-27.6799"/>
            <polygon fill="#191970" stroke="#191970"
                     points="76.5243,-29.2096 78.3855,-18.7795 70.4263,-25.7724 76.5243,-29.2096"/>
        </g>
        <!-- Node4&#45;&gt;Node1 -->
        <g id="edge6" class="edge">
            <title>Node4&#45;&gt;Node1</title>
            <path fill="none" stroke="#191970"
                  d="M106.0474,-110.4179C96.5624,-102.2667 82.4282,-90.1201 71.0791,-80.3669"/>
            <polygon fill="#191970" stroke="#191970"
                     points="73.279,-77.6427 63.4136,-73.7795 68.7167,-82.9516 73.279,-77.6427"/>
        </g>
        <!-- Node5 -->
        <g id="node6" class="node">
            <title>Node5</title>
            <polygon fill="none" stroke="#bfbfbf"
                     points="109.9458,-55.5 109.9458,-73.5 139.2856,-73.5 139.2856,-55.5 109.9458,-55.5"/>
            <text text-anchor="middle" x="124.6157" y="-61.5" font-family="Helvetica,sans-Serif" font-size="10.00"
                  fill="#000000">set
            </text>
        </g>
        <!-- Node4&#45;&gt;Node5 -->
        <g id="edge5" class="edge">
            <title>Node4&#45;&gt;Node5</title>
            <path fill="none" stroke="#191970"
                  d="M117.9368,-110.4179C118.9843,-103.2164 120.4854,-92.8962 121.7993,-83.8632"/>
            <polygon fill="#191970" stroke="#191970"
                     points="125.2901,-84.1791 123.266,-73.7795 118.3629,-83.1715 125.2901,-84.1791"/>
        </g>
    </g>
</svg>
