<?xml version="1.0" encoding="UTF-8" standalone="no"?>
<!DOCTYPE svg PUBLIC "-//W3C//DTD SVG 1.1//EN"
        "http://www.w3.org/Graphics/SVG/1.1/DTD/svg11.dtd">
<!-- Generated by graphviz version 2.40.1 (20161225.0304)
 -->
<!-- Title: code/interfaces/ISubject.cpp Pages: 1 -->
<svg width="228pt" height="192pt"
     viewBox="0.00 0.00 228.15 192.00" xmlns="http://www.w3.org/2000/svg" xmlns:xlink="http://www.w3.org/1999/xlink">
    <g id="graph0" class="graph" transform="scale(1 1) rotate(0) translate(4 188)">
        <title>code/interfaces/ISubject.cpp</title>
        <!-- Node0 -->
        <g id="node1" class="node">
            <title>Node0</title>
            <polygon fill="#bfbfbf" stroke="#000000"
                     points="49.542,-165.5 49.542,-183.5 191.1719,-183.5 191.1719,-165.5 49.542,-165.5"/>
            <text text-anchor="middle" x="120.3569" y="-171.5" font-family="Helvetica,sans-Serif" font-size="10.00"
                  fill="#000000">code/interfaces/ISubject.cpp
            </text>
        </g>
        <!-- Node1 -->
        <g id="node2" class="node">
            <title>Node1</title>
            <polygon fill="none" stroke="#bfbfbf" points="0,-110.5 0,-128.5 92.7139,-128.5 92.7139,-110.5 0,-110.5"/>
            <text text-anchor="middle" x="46.3569" y="-116.5" font-family="Helvetica,sans-Serif" font-size="10.00"
                  fill="#000000">Carbon/Carbon.h
            </text>
        </g>
        <!-- Node0&#45;&gt;Node1 -->
        <g id="edge1" class="edge">
            <title>Node0&#45;&gt;Node1</title>
            <path fill="none" stroke="#191970"
                  d="M108.1373,-165.4179C96.89,-157.0584 79.9888,-144.4966 66.7055,-134.6239"/>
            <polygon fill="#191970" stroke="#191970"
                     points="68.7085,-131.7518 58.5947,-128.5956 64.5328,-137.37 68.7085,-131.7518"/>
        </g>
        <!-- Node2 -->
        <g id="node3" class="node">
            <title>Node2</title>
            <g id="a_node3">
                <a xlink:href="../../d5/d40/_i_observer_8hpp.html" target="_top" xlink:title="IObserver.hpp">
                    <polygon fill="none" stroke="#000000"
                             points="80.9482,-55.5 80.9482,-73.5 159.7656,-73.5 159.7656,-55.5 80.9482,-55.5"/>
                    <text text-anchor="middle" x="120.3569" y="-61.5" font-family="Helvetica,sans-Serif"
                          font-size="10.00" fill="#000000">IObserver.hpp
                    </text>
                </a>
            </g>
        </g>
        <!-- Node0&#45;&gt;Node2 -->
        <g id="edge2" class="edge">
            <title>Node0&#45;&gt;Node2</title>
            <path fill="none" stroke="#191970"
                  d="M120.3569,-165.4982C120.3569,-147.6913 120.3569,-107.6225 120.3569,-83.6515"/>
            <polygon fill="#191970" stroke="#191970"
                     points="123.857,-83.6261 120.3569,-73.6261 116.857,-83.6262 123.857,-83.6261"/>
        </g>
        <!-- Node5 -->
        <g id="node6" class="node">
            <title>Node5</title>
            <g id="a_node6">
                <a xlink:href="../../d1/d25/_i_subject_8hpp.html" target="_top" xlink:title="ISubject.hpp">
                    <polygon fill="none" stroke="#000000"
                             points="148.5591,-110.5 148.5591,-128.5 220.1548,-128.5 220.1548,-110.5 148.5591,-110.5"/>
                    <text text-anchor="middle" x="184.3569" y="-116.5" font-family="Helvetica,sans-Serif"
                          font-size="10.00" fill="#000000">ISubject.hpp
                    </text>
                </a>
            </g>
        </g>
        <!-- Node0&#45;&gt;Node5 -->
        <g id="edge5" class="edge">
            <title>Node0&#45;&gt;Node5</title>
            <path fill="none" stroke="#191970"
                  d="M130.9252,-165.4179C140.4102,-157.2667 154.5444,-145.1201 165.8936,-135.3669"/>
            <polygon fill="#191970" stroke="#191970"
                     points="168.256,-137.9516 173.559,-128.7795 163.6936,-132.6427 168.256,-137.9516"/>
        </g>
        <!-- Node3 -->
        <g id="node4" class="node">
            <title>Node3</title>
            <polygon fill="none" stroke="#bfbfbf"
                     points="67.7412,-.5 67.7412,-18.5 110.9727,-18.5 110.9727,-.5 67.7412,-.5"/>
            <text text-anchor="middle" x="89.3569" y="-6.5" font-family="Helvetica,sans-Serif" font-size="10.00"
                  fill="#000000">mutex
            </text>
        </g>
        <!-- Node2&#45;&gt;Node3 -->
        <g id="edge3" class="edge">
            <title>Node2&#45;&gt;Node3</title>
            <path fill="none" stroke="#191970"
                  d="M115.2379,-55.4179C111.0005,-47.8998 104.8473,-36.9829 99.6038,-27.6799"/>
            <polygon fill="#191970" stroke="#191970"
                     points="102.5464,-25.7724 94.5872,-18.7795 96.4483,-29.2096 102.5464,-25.7724"/>
        </g>
        <!-- Node4 -->
        <g id="node5" class="node">
            <title>Node4</title>
            <polygon fill="none" stroke="#bfbfbf"
                     points="129.1797,-.5 129.1797,-18.5 173.5342,-18.5 173.5342,-.5 129.1797,-.5"/>
            <text text-anchor="middle" x="151.3569" y="-6.5" font-family="Helvetica,sans-Serif" font-size="10.00"
                  fill="#000000">thread
            </text>
        </g>
        <!-- Node2&#45;&gt;Node4 -->
        <g id="edge4" class="edge">
            <title>Node2&#45;&gt;Node4</title>
            <path fill="none" stroke="#191970"
                  d="M125.476,-55.4179C129.7134,-47.8998 135.8666,-36.9829 141.1101,-27.6799"/>
            <polygon fill="#191970" stroke="#191970"
                     points="144.2656,-29.2096 146.1267,-18.7795 138.1675,-25.7724 144.2656,-29.2096"/>
        </g>
        <!-- Node5&#45;&gt;Node2 -->
        <g id="edge7" class="edge">
            <title>Node5&#45;&gt;Node2</title>
            <path fill="none" stroke="#191970"
                  d="M173.7886,-110.4179C164.3037,-102.2667 150.1695,-90.1201 138.8203,-80.3669"/>
            <polygon fill="#191970" stroke="#191970"
                     points="141.0203,-77.6427 131.1548,-73.7795 136.4579,-82.9516 141.0203,-77.6427"/>
        </g>
        <!-- Node6 -->
        <g id="node7" class="node">
            <title>Node6</title>
            <polygon fill="none" stroke="#bfbfbf"
                     points="177.687,-55.5 177.687,-73.5 207.0269,-73.5 207.0269,-55.5 177.687,-55.5"/>
            <text text-anchor="middle" x="192.3569" y="-61.5" font-family="Helvetica,sans-Serif" font-size="10.00"
                  fill="#000000">set
            </text>
        </g>
        <!-- Node5&#45;&gt;Node6 -->
        <g id="edge6" class="edge">
            <title>Node5&#45;&gt;Node6</title>
            <path fill="none" stroke="#191970"
                  d="M185.678,-110.4179C186.7255,-103.2164 188.2266,-92.8962 189.5405,-83.8632"/>
            <polygon fill="#191970" stroke="#191970"
                     points="193.0313,-84.1791 191.0072,-73.7795 186.1042,-83.1715 193.0313,-84.1791"/>
        </g>
    </g>
</svg>
