<?xml version="1.0" encoding="UTF-8" standalone="no"?>
<!DOCTYPE svg PUBLIC "-//W3C//DTD SVG 1.1//EN"
        "http://www.w3.org/Graphics/SVG/1.1/DTD/svg11.dtd">
<!-- Generated by graphviz version 2.40.1 (20161225.0304)
 -->
<!-- Title: code/gui/AboutDialog.hpp Pages: 1 -->
<svg width="276pt" height="247pt"
     viewBox="0.00 0.00 275.76 247.00" xmlns="http://www.w3.org/2000/svg" xmlns:xlink="http://www.w3.org/1999/xlink">
    <g id="graph0" class="graph" transform="scale(1 1) rotate(0) translate(4 243)">
        <title>code/gui/AboutDialog.hpp</title>
        <!-- Node0 -->
        <g id="node1" class="node">
            <title>Node0</title>
            <polygon fill="#bfbfbf" stroke="#000000"
                     points="48.313,-220.5 48.313,-238.5 178.8442,-238.5 178.8442,-220.5 48.313,-220.5"/>
            <text text-anchor="middle" x="113.5786" y="-226.5" font-family="Helvetica,sans-Serif" font-size="10.00"
                  fill="#000000">code/gui/AboutDialog.hpp
            </text>
        </g>
        <!-- Node1 -->
        <g id="node2" class="node">
            <title>Node1</title>
            <g id="a_node2">
                <a xlink:href="../../dc/de6/_dialog_8hpp.html" target="_top" xlink:title="Dialog.hpp">
                    <polygon fill="none" stroke="#000000"
                             points="81.6724,-165.5 81.6724,-183.5 145.4849,-183.5 145.4849,-165.5 81.6724,-165.5"/>
                    <text text-anchor="middle" x="113.5786" y="-171.5" font-family="Helvetica,sans-Serif"
                          font-size="10.00" fill="#000000">Dialog.hpp
                    </text>
                </a>
            </g>
        </g>
        <!-- Node0&#45;&gt;Node1 -->
        <g id="edge1" class="edge">
            <title>Node0&#45;&gt;Node1</title>
            <path fill="none" stroke="#191970"
                  d="M113.5786,-220.4179C113.5786,-213.2164 113.5786,-202.8962 113.5786,-193.8632"/>
            <polygon fill="#191970" stroke="#191970"
                     points="117.0787,-193.7794 113.5786,-183.7795 110.0787,-193.7795 117.0787,-193.7794"/>
        </g>
        <!-- Node2 -->
        <g id="node3" class="node">
            <title>Node2</title>
            <polygon fill="none" stroke="#bfbfbf" points="0,-110.5 0,-128.5 97.1572,-128.5 97.1572,-110.5 0,-110.5"/>
            <text text-anchor="middle" x="48.5786" y="-116.5" font-family="Helvetica,sans-Serif" font-size="10.00"
                  fill="#000000">sigc++/trackable.h
            </text>
        </g>
        <!-- Node1&#45;&gt;Node2 -->
        <g id="edge2" class="edge">
            <title>Node1&#45;&gt;Node2</title>
            <path fill="none" stroke="#191970"
                  d="M102.8452,-165.4179C93.212,-157.2667 78.857,-145.1201 67.3305,-135.3669"/>
            <polygon fill="#191970" stroke="#191970"
                     points="69.4399,-132.5671 59.5452,-128.7795 64.9183,-137.9108 69.4399,-132.5671"/>
        </g>
        <!-- Node3 -->
        <g id="node4" class="node">
            <title>Node3</title>
            <g id="a_node4">
                <a xlink:href="../../d1/d25/_i_subject_8hpp.html" target="_top"
                   xlink:title="../interfaces/ISubject.hpp">
                    <polygon fill="none" stroke="#000000"
                             points="115.5469,-110.5 115.5469,-128.5 241.6104,-128.5 241.6104,-110.5 115.5469,-110.5"/>
                    <text text-anchor="middle" x="178.5786" y="-116.5" font-family="Helvetica,sans-Serif"
                          font-size="10.00" fill="#000000">../interfaces/ISubject.hpp
                    </text>
                </a>
            </g>
        </g>
        <!-- Node1&#45;&gt;Node3 -->
        <g id="edge3" class="edge">
            <title>Node1&#45;&gt;Node3</title>
            <path fill="none" stroke="#191970"
                  d="M124.312,-165.4179C133.9452,-157.2667 148.3003,-145.1201 159.8268,-135.3669"/>
            <polygon fill="#191970" stroke="#191970"
                     points="162.2389,-137.9108 167.612,-128.7795 157.7173,-132.5671 162.2389,-137.9108"/>
        </g>
        <!-- Node4 -->
        <g id="node5" class="node">
            <title>Node4</title>
            <polygon fill="none" stroke="#bfbfbf"
                     points="127.9087,-55.5 127.9087,-73.5 157.2485,-73.5 157.2485,-55.5 127.9087,-55.5"/>
            <text text-anchor="middle" x="142.5786" y="-61.5" font-family="Helvetica,sans-Serif" font-size="10.00"
                  fill="#000000">set
            </text>
        </g>
        <!-- Node3&#45;&gt;Node4 -->
        <g id="edge4" class="edge">
            <title>Node3&#45;&gt;Node4</title>
            <path fill="none" stroke="#191970"
                  d="M172.6339,-110.4179C167.6612,-102.8207 160.4167,-91.7527 154.2862,-82.3866"/>
            <polygon fill="#191970" stroke="#191970"
                     points="157.0575,-80.2297 148.6524,-73.7795 151.2006,-84.0633 157.0575,-80.2297"/>
        </g>
        <!-- Node5 -->
        <g id="node6" class="node">
            <title>Node5</title>
            <g id="a_node6">
                <a xlink:href="../../d5/d40/_i_observer_8hpp.html" target="_top" xlink:title="IObserver.hpp">
                    <polygon fill="none" stroke="#000000"
                             points="175.1699,-55.5 175.1699,-73.5 253.9873,-73.5 253.9873,-55.5 175.1699,-55.5"/>
                    <text text-anchor="middle" x="214.5786" y="-61.5" font-family="Helvetica,sans-Serif"
                          font-size="10.00" fill="#000000">IObserver.hpp
                    </text>
                </a>
            </g>
        </g>
        <!-- Node3&#45;&gt;Node5 -->
        <g id="edge5" class="edge">
            <title>Node3&#45;&gt;Node5</title>
            <path fill="none" stroke="#191970"
                  d="M184.5233,-110.4179C189.496,-102.8207 196.7405,-91.7527 202.871,-82.3866"/>
            <polygon fill="#191970" stroke="#191970"
                     points="205.9566,-84.0633 208.5048,-73.7795 200.0997,-80.2297 205.9566,-84.0633"/>
        </g>
        <!-- Node6 -->
        <g id="node7" class="node">
            <title>Node6</title>
            <polygon fill="none" stroke="#bfbfbf"
                     points="161.9629,-.5 161.9629,-18.5 205.1943,-18.5 205.1943,-.5 161.9629,-.5"/>
            <text text-anchor="middle" x="183.5786" y="-6.5" font-family="Helvetica,sans-Serif" font-size="10.00"
                  fill="#000000">mutex
            </text>
        </g>
        <!-- Node5&#45;&gt;Node6 -->
        <g id="edge6" class="edge">
            <title>Node5&#45;&gt;Node6</title>
            <path fill="none" stroke="#191970"
                  d="M209.4596,-55.4179C205.2221,-47.8998 199.069,-36.9829 193.8254,-27.6799"/>
            <polygon fill="#191970" stroke="#191970"
                     points="196.7681,-25.7724 188.8089,-18.7795 190.67,-29.2096 196.7681,-25.7724"/>
        </g>
        <!-- Node7 -->
        <g id="node8" class="node">
            <title>Node7</title>
            <polygon fill="none" stroke="#bfbfbf"
                     points="223.4014,-.5 223.4014,-18.5 267.7559,-18.5 267.7559,-.5 223.4014,-.5"/>
            <text text-anchor="middle" x="245.5786" y="-6.5" font-family="Helvetica,sans-Serif" font-size="10.00"
                  fill="#000000">thread
            </text>
        </g>
        <!-- Node5&#45;&gt;Node7 -->
        <g id="edge7" class="edge">
            <title>Node5&#45;&gt;Node7</title>
            <path fill="none" stroke="#191970"
                  d="M219.6976,-55.4179C223.9351,-47.8998 230.0883,-36.9829 235.3318,-27.6799"/>
            <polygon fill="#191970" stroke="#191970"
                     points="238.4872,-29.2096 240.3484,-18.7795 232.3892,-25.7724 238.4872,-29.2096"/>
        </g>
    </g>
</svg>
