<?xml version="1.0" encoding="UTF-8" standalone="no"?>
<!DOCTYPE svg PUBLIC "-//W3C//DTD SVG 1.1//EN"
        "http://www.w3.org/Graphics/SVG/1.1/DTD/svg11.dtd">
<!-- Generated by graphviz version 2.40.1 (20161225.0304)
 -->
<!-- Title: code/gui/AboutDialog.hpp Pages: 1 -->
<svg width="377pt" height="247pt"
     viewBox="0.00 0.00 376.76 247.00" xmlns="http://www.w3.org/2000/svg" xmlns:xlink="http://www.w3.org/1999/xlink">
    <g id="graph0" class="graph" transform="scale(1 1) rotate(0) translate(4 243)">
        <title>code/gui/AboutDialog.hpp</title>
        <!-- Node0 -->
        <g id="node1" class="node">
            <title>Node0</title>
            <polygon fill="#bfbfbf" stroke="#000000"
                     points="91.313,-220.5 91.313,-238.5 221.8442,-238.5 221.8442,-220.5 91.313,-220.5"/>
            <text text-anchor="middle" x="156.5786" y="-226.5" font-family="Helvetica,sans-Serif" font-size="10.00"
                  fill="#000000">code/gui/AboutDialog.hpp
            </text>
        </g>
        <!-- Node1 -->
        <g id="node2" class="node">
            <title>Node1</title>
            <g id="a_node2">
                <a xlink:href="../../dc/de6/_dialog_8hpp.html" target="_top" xlink:title="Dialog.hpp">
                    <polygon fill="none" stroke="#000000"
                             points="124.6724,-165.5 124.6724,-183.5 188.4849,-183.5 188.4849,-165.5 124.6724,-165.5"/>
                    <text text-anchor="middle" x="156.5786" y="-171.5" font-family="Helvetica,sans-Serif"
                          font-size="10.00" fill="#000000">Dialog.hpp
                    </text>
                </a>
            </g>
        </g>
        <!-- Node0&#45;&gt;Node1 -->
        <g id="edge1" class="edge">
            <title>Node0&#45;&gt;Node1</title>
            <path fill="none" stroke="#191970"
                  d="M156.5786,-220.4179C156.5786,-213.2164 156.5786,-202.8962 156.5786,-193.8632"/>
            <polygon fill="#191970" stroke="#191970"
                     points="160.0787,-193.7794 156.5786,-183.7795 153.0787,-193.7795 160.0787,-193.7794"/>
        </g>
        <!-- Node2 -->
        <g id="node3" class="node">
            <title>Node2</title>
            <polygon fill="none" stroke="#bfbfbf" points="0,-110.5 0,-128.5 97.1572,-128.5 97.1572,-110.5 0,-110.5"/>
            <text text-anchor="middle" x="48.5786" y="-116.5" font-family="Helvetica,sans-Serif" font-size="10.00"
                  fill="#000000">sigc++/trackable.h
            </text>
        </g>
        <!-- Node1&#45;&gt;Node2 -->
        <g id="edge2" class="edge">
            <title>Node1&#45;&gt;Node2</title>
            <path fill="none" stroke="#191970"
                  d="M138.7446,-165.4179C121.5479,-156.6603 95.295,-143.2907 75.5444,-133.2326"/>
            <polygon fill="#191970" stroke="#191970"
                     points="76.9385,-130.0148 66.4391,-128.5956 73.7618,-136.2526 76.9385,-130.0148"/>
        </g>
        <!-- Node3 -->
        <g id="node4" class="node">
            <title>Node3</title>
            <polygon fill="none" stroke="#bfbfbf"
                     points="114.6748,-110.5 114.6748,-128.5 198.4824,-128.5 198.4824,-110.5 114.6748,-110.5"/>
            <text text-anchor="middle" x="156.5786" y="-116.5" font-family="Helvetica,sans-Serif" font-size="10.00"
                  fill="#000000">gtkmm/dialog.h
            </text>
        </g>
        <!-- Node1&#45;&gt;Node3 -->
        <g id="edge3" class="edge">
            <title>Node1&#45;&gt;Node3</title>
            <path fill="none" stroke="#191970"
                  d="M156.5786,-165.4179C156.5786,-158.2164 156.5786,-147.8962 156.5786,-138.8632"/>
            <polygon fill="#191970" stroke="#191970"
                     points="160.0787,-138.7794 156.5786,-128.7795 153.0787,-138.7795 160.0787,-138.7794"/>
        </g>
        <!-- Node4 -->
        <g id="node5" class="node">
            <title>Node4</title>
            <g id="a_node5">
                <a xlink:href="../../d1/d25/_i_subject_8hpp.html" target="_top"
                   xlink:title="../interfaces/ISubject.hpp">
                    <polygon fill="none" stroke="#000000"
                             points="216.5469,-110.5 216.5469,-128.5 342.6104,-128.5 342.6104,-110.5 216.5469,-110.5"/>
                    <text text-anchor="middle" x="279.5786" y="-116.5" font-family="Helvetica,sans-Serif"
                          font-size="10.00" fill="#000000">../interfaces/ISubject.hpp
                    </text>
                </a>
            </g>
        </g>
        <!-- Node1&#45;&gt;Node4 -->
        <g id="edge4" class="edge">
            <title>Node1&#45;&gt;Node4</title>
            <path fill="none" stroke="#191970"
                  d="M176.8896,-165.4179C196.8307,-156.5011 227.4645,-142.803 250.0871,-132.6873"/>
            <polygon fill="#191970" stroke="#191970"
                     points="251.5373,-135.8728 259.2375,-128.5956 248.6798,-129.4826 251.5373,-135.8728"/>
        </g>
        <!-- Node5 -->
        <g id="node6" class="node">
            <title>Node5</title>
            <polygon fill="none" stroke="#bfbfbf"
                     points="228.9087,-55.5 228.9087,-73.5 258.2485,-73.5 258.2485,-55.5 228.9087,-55.5"/>
            <text text-anchor="middle" x="243.5786" y="-61.5" font-family="Helvetica,sans-Serif" font-size="10.00"
                  fill="#000000">set
            </text>
        </g>
        <!-- Node4&#45;&gt;Node5 -->
        <g id="edge5" class="edge">
            <title>Node4&#45;&gt;Node5</title>
            <path fill="none" stroke="#191970"
                  d="M273.6339,-110.4179C268.6612,-102.8207 261.4167,-91.7527 255.2862,-82.3866"/>
            <polygon fill="#191970" stroke="#191970"
                     points="258.0575,-80.2297 249.6524,-73.7795 252.2006,-84.0633 258.0575,-80.2297"/>
        </g>
        <!-- Node6 -->
        <g id="node7" class="node">
            <title>Node6</title>
            <g id="a_node7">
                <a xlink:href="../../d5/d40/_i_observer_8hpp.html" target="_top" xlink:title="IObserver.hpp">
                    <polygon fill="none" stroke="#000000"
                             points="276.1699,-55.5 276.1699,-73.5 354.9873,-73.5 354.9873,-55.5 276.1699,-55.5"/>
                    <text text-anchor="middle" x="315.5786" y="-61.5" font-family="Helvetica,sans-Serif"
                          font-size="10.00" fill="#000000">IObserver.hpp
                    </text>
                </a>
            </g>
        </g>
        <!-- Node4&#45;&gt;Node6 -->
        <g id="edge6" class="edge">
            <title>Node4&#45;&gt;Node6</title>
            <path fill="none" stroke="#191970"
                  d="M285.5233,-110.4179C290.496,-102.8207 297.7405,-91.7527 303.871,-82.3866"/>
            <polygon fill="#191970" stroke="#191970"
                     points="306.9566,-84.0633 309.5048,-73.7795 301.0997,-80.2297 306.9566,-84.0633"/>
        </g>
        <!-- Node7 -->
        <g id="node8" class="node">
            <title>Node7</title>
            <polygon fill="none" stroke="#bfbfbf"
                     points="262.9629,-.5 262.9629,-18.5 306.1943,-18.5 306.1943,-.5 262.9629,-.5"/>
            <text text-anchor="middle" x="284.5786" y="-6.5" font-family="Helvetica,sans-Serif" font-size="10.00"
                  fill="#000000">mutex
            </text>
        </g>
        <!-- Node6&#45;&gt;Node7 -->
        <g id="edge7" class="edge">
            <title>Node6&#45;&gt;Node7</title>
            <path fill="none" stroke="#191970"
                  d="M310.4596,-55.4179C306.2221,-47.8998 300.069,-36.9829 294.8254,-27.6799"/>
            <polygon fill="#191970" stroke="#191970"
                     points="297.7681,-25.7724 289.8089,-18.7795 291.67,-29.2096 297.7681,-25.7724"/>
        </g>
        <!-- Node8 -->
        <g id="node9" class="node">
            <title>Node8</title>
            <polygon fill="none" stroke="#bfbfbf"
                     points="324.4014,-.5 324.4014,-18.5 368.7559,-18.5 368.7559,-.5 324.4014,-.5"/>
            <text text-anchor="middle" x="346.5786" y="-6.5" font-family="Helvetica,sans-Serif" font-size="10.00"
                  fill="#000000">thread
            </text>
        </g>
        <!-- Node6&#45;&gt;Node8 -->
        <g id="edge8" class="edge">
            <title>Node6&#45;&gt;Node8</title>
            <path fill="none" stroke="#191970"
                  d="M320.6976,-55.4179C324.9351,-47.8998 331.0883,-36.9829 336.3318,-27.6799"/>
            <polygon fill="#191970" stroke="#191970"
                     points="339.4872,-29.2096 341.3484,-18.7795 333.3892,-25.7724 339.4872,-29.2096"/>
        </g>
    </g>
</svg>
