<?xml version="1.0" encoding="UTF-8" standalone="no"?>
<!DOCTYPE svg PUBLIC "-//W3C//DTD SVG 1.1//EN"
        "http://www.w3.org/Graphics/SVG/1.1/DTD/svg11.dtd">
<!-- Generated by graphviz version 2.40.1 (20161225.0304)
 -->
<!-- Title: code/gui/AddPatientDialog.hpp Pages: 1 -->
<svg width="673pt" height="247pt"
     viewBox="0.00 0.00 673.34 247.00" xmlns="http://www.w3.org/2000/svg" xmlns:xlink="http://www.w3.org/1999/xlink">
    <g id="graph0" class="graph" transform="scale(1 1) rotate(0) translate(4 243)">
        <title>code/gui/AddPatientDialog.hpp</title>
        <!-- Node0 -->
        <g id="node1" class="node">
            <title>Node0</title>
            <polygon fill="#bfbfbf" stroke="#000000"
                     points="143.644,-220.5 143.644,-238.5 296.9683,-238.5 296.9683,-220.5 143.644,-220.5"/>
            <text text-anchor="middle" x="220.3062" y="-226.5" font-family="Helvetica,sans-Serif" font-size="10.00"
                  fill="#000000">code/gui/AddPatientDialog.hpp
            </text>
        </g>
        <!-- Node1 -->
        <g id="node2" class="node">
            <title>Node1</title>
            <polygon fill="none" stroke="#bfbfbf" points="0,-110.5 0,-128.5 78.6123,-128.5 78.6123,-110.5 0,-110.5"/>
            <text text-anchor="middle" x="39.3062" y="-116.5" font-family="Helvetica,sans-Serif" font-size="10.00"
                  fill="#000000">gtkmm/entry.h
            </text>
        </g>
        <!-- Node0&#45;&gt;Node1 -->
        <g id="edge1" class="edge">
            <title>Node0&#45;&gt;Node1</title>
            <path fill="none" stroke="#191970"
                  d="M205.4942,-220.4982C174.205,-201.4827 101.1435,-157.0807 63.1734,-134.005"/>
            <polygon fill="#191970" stroke="#191970"
                     points="64.6862,-130.8287 54.3228,-128.6261 61.0507,-136.8106 64.6862,-130.8287"/>
        </g>
        <!-- Node2 -->
        <g id="node3" class="node">
            <title>Node2</title>
            <polygon fill="none" stroke="#bfbfbf"
                     points="273.8457,-165.5 273.8457,-183.5 358.7666,-183.5 358.7666,-165.5 273.8457,-165.5"/>
            <text text-anchor="middle" x="316.3062" y="-171.5" font-family="Helvetica,sans-Serif" font-size="10.00"
                  fill="#000000">gtkmm/button.h
            </text>
        </g>
        <!-- Node0&#45;&gt;Node2 -->
        <g id="edge2" class="edge">
            <title>Node0&#45;&gt;Node2</title>
            <path fill="none" stroke="#191970"
                  d="M236.1586,-220.4179C251.1666,-211.8195 273.9346,-198.7754 291.3733,-188.7844"/>
            <polygon fill="#191970" stroke="#191970"
                     points="293.4932,-191.6037 300.4302,-183.5956 290.0134,-185.5299 293.4932,-191.6037"/>
        </g>
        <!-- Node3 -->
        <g id="node4" class="node">
            <title>Node3</title>
            <polygon fill="none" stroke="#bfbfbf"
                     points="96.6191,-110.5 96.6191,-128.5 215.9932,-128.5 215.9932,-110.5 96.6191,-110.5"/>
            <text text-anchor="middle" x="156.3062" y="-116.5" font-family="Helvetica,sans-Serif" font-size="10.00"
                  fill="#000000">gtkmm/comboboxtext.h
            </text>
        </g>
        <!-- Node0&#45;&gt;Node3 -->
        <g id="edge3" class="edge">
            <title>Node0&#45;&gt;Node3</title>
            <path fill="none" stroke="#191970"
                  d="M208.3099,-220.2741C198.1443,-211.857 183.8894,-198.5434 175.3062,-184 167.0551,-170.0196 162.1617,-152.1952 159.4128,-138.8283"/>
            <polygon fill="#191970" stroke="#191970"
                     points="162.8261,-138.0365 157.5815,-128.8308 155.9406,-139.2978 162.8261,-138.0365"/>
        </g>
        <!-- Node4 -->
        <g id="node5" class="node">
            <title>Node4</title>
            <g id="a_node5">
                <a xlink:href="../../dc/de6/_dialog_8hpp.html" target="_top" xlink:title="Dialog.hpp">
                    <polygon fill="none" stroke="#000000"
                             points="440.3999,-165.5 440.3999,-183.5 504.2124,-183.5 504.2124,-165.5 440.3999,-165.5"/>
                    <text text-anchor="middle" x="472.3062" y="-171.5" font-family="Helvetica,sans-Serif"
                          font-size="10.00" fill="#000000">Dialog.hpp
                    </text>
                </a>
            </g>
        </g>
        <!-- Node0&#45;&gt;Node4 -->
        <g id="edge4" class="edge">
            <title>Node0&#45;&gt;Node4</title>
            <path fill="none" stroke="#191970"
                  d="M261.6366,-220.4795C308.2078,-210.3151 383.5015,-193.882 430.3344,-183.6605"/>
            <polygon fill="#191970" stroke="#191970"
                     points="431.1376,-187.0677 440.1612,-181.5158 429.6449,-180.2287 431.1376,-187.0677"/>
        </g>
        <!-- Node11 -->
        <g id="node12" class="node">
            <title>Node11</title>
            <g id="a_node12">
                <a xlink:href="../../dc/d55/_widgets_8hpp.html" target="_top" xlink:title="Widgets.hpp">
                    <polygon fill="none" stroke="#000000"
                             points="184.5132,-165.5 184.5132,-183.5 256.0991,-183.5 256.0991,-165.5 184.5132,-165.5"/>
                    <text text-anchor="middle" x="220.3062" y="-171.5" font-family="Helvetica,sans-Serif"
                          font-size="10.00" fill="#000000">Widgets.hpp
                    </text>
                </a>
            </g>
        </g>
        <!-- Node0&#45;&gt;Node11 -->
        <g id="edge11" class="edge">
            <title>Node0&#45;&gt;Node11</title>
            <path fill="none" stroke="#191970"
                  d="M220.3062,-220.4179C220.3062,-213.2164 220.3062,-202.8962 220.3062,-193.8632"/>
            <polygon fill="#191970" stroke="#191970"
                     points="223.8063,-193.7794 220.3062,-183.7795 216.8063,-193.7795 223.8063,-193.7794"/>
        </g>
        <!-- Node5 -->
        <g id="node6" class="node">
            <title>Node5</title>
            <polygon fill="none" stroke="#bfbfbf"
                     points="423.7275,-110.5 423.7275,-128.5 520.8848,-128.5 520.8848,-110.5 423.7275,-110.5"/>
            <text text-anchor="middle" x="472.3062" y="-116.5" font-family="Helvetica,sans-Serif" font-size="10.00"
                  fill="#000000">sigc++/trackable.h
            </text>
        </g>
        <!-- Node4&#45;&gt;Node5 -->
        <g id="edge5" class="edge">
            <title>Node4&#45;&gt;Node5</title>
            <path fill="none" stroke="#191970"
                  d="M472.3062,-165.4179C472.3062,-158.2164 472.3062,-147.8962 472.3062,-138.8632"/>
            <polygon fill="#191970" stroke="#191970"
                     points="475.8063,-138.7794 472.3062,-128.7795 468.8063,-138.7795 475.8063,-138.7794"/>
        </g>
        <!-- Node6 -->
        <g id="node7" class="node">
            <title>Node6</title>
            <g id="a_node7">
                <a xlink:href="../../d1/d25/_i_subject_8hpp.html" target="_top"
                   xlink:title="../interfaces/ISubject.hpp">
                    <polygon fill="none" stroke="#000000"
                             points="539.2744,-110.5 539.2744,-128.5 665.3379,-128.5 665.3379,-110.5 539.2744,-110.5"/>
                    <text text-anchor="middle" x="602.3062" y="-116.5" font-family="Helvetica,sans-Serif"
                          font-size="10.00" fill="#000000">../interfaces/ISubject.hpp
                    </text>
                </a>
            </g>
        </g>
        <!-- Node4&#45;&gt;Node6 -->
        <g id="edge6" class="edge">
            <title>Node4&#45;&gt;Node6</title>
            <path fill="none" stroke="#191970"
                  d="M493.773,-165.4179C514.9431,-156.4613 547.5155,-142.6806 571.456,-132.552"/>
            <polygon fill="#191970" stroke="#191970"
                     points="572.9615,-135.7155 580.8074,-128.5956 570.234,-129.2687 572.9615,-135.7155"/>
        </g>
        <!-- Node7 -->
        <g id="node8" class="node">
            <title>Node7</title>
            <polygon fill="none" stroke="#bfbfbf"
                     points="623.6362,-55.5 623.6362,-73.5 652.9761,-73.5 652.9761,-55.5 623.6362,-55.5"/>
            <text text-anchor="middle" x="638.3062" y="-61.5" font-family="Helvetica,sans-Serif" font-size="10.00"
                  fill="#000000">set
            </text>
        </g>
        <!-- Node6&#45;&gt;Node7 -->
        <g id="edge7" class="edge">
            <title>Node6&#45;&gt;Node7</title>
            <path fill="none" stroke="#191970"
                  d="M608.2508,-110.4179C613.2235,-102.8207 620.468,-91.7527 626.5986,-82.3866"/>
            <polygon fill="#191970" stroke="#191970"
                     points="629.6842,-84.0633 632.2323,-73.7795 623.8272,-80.2297 629.6842,-84.0633"/>
        </g>
        <!-- Node8 -->
        <g id="node9" class="node">
            <title>Node8</title>
            <g id="a_node9">
                <a xlink:href="../../d5/d40/_i_observer_8hpp.html" target="_top" xlink:title="IObserver.hpp">
                    <polygon fill="none" stroke="#000000"
                             points="526.8975,-55.5 526.8975,-73.5 605.7148,-73.5 605.7148,-55.5 526.8975,-55.5"/>
                    <text text-anchor="middle" x="566.3062" y="-61.5" font-family="Helvetica,sans-Serif"
                          font-size="10.00" fill="#000000">IObserver.hpp
                    </text>
                </a>
            </g>
        </g>
        <!-- Node6&#45;&gt;Node8 -->
        <g id="edge8" class="edge">
            <title>Node6&#45;&gt;Node8</title>
            <path fill="none" stroke="#191970"
                  d="M596.3615,-110.4179C591.3888,-102.8207 584.1443,-91.7527 578.0138,-82.3866"/>
            <polygon fill="#191970" stroke="#191970"
                     points="580.7851,-80.2297 572.38,-73.7795 574.9282,-84.0633 580.7851,-80.2297"/>
        </g>
        <!-- Node9 -->
        <g id="node10" class="node">
            <title>Node9</title>
            <polygon fill="none" stroke="#bfbfbf"
                     points="513.6904,-.5 513.6904,-18.5 556.9219,-18.5 556.9219,-.5 513.6904,-.5"/>
            <text text-anchor="middle" x="535.3062" y="-6.5" font-family="Helvetica,sans-Serif" font-size="10.00"
                  fill="#000000">mutex
            </text>
        </g>
        <!-- Node8&#45;&gt;Node9 -->
        <g id="edge9" class="edge">
            <title>Node8&#45;&gt;Node9</title>
            <path fill="none" stroke="#191970"
                  d="M561.1871,-55.4179C556.9497,-47.8998 550.7965,-36.9829 545.553,-27.6799"/>
            <polygon fill="#191970" stroke="#191970"
                     points="548.4956,-25.7724 540.5364,-18.7795 542.3975,-29.2096 548.4956,-25.7724"/>
        </g>
        <!-- Node10 -->
        <g id="node11" class="node">
            <title>Node10</title>
            <polygon fill="none" stroke="#bfbfbf"
                     points="575.1289,-.5 575.1289,-18.5 619.4834,-18.5 619.4834,-.5 575.1289,-.5"/>
            <text text-anchor="middle" x="597.3062" y="-6.5" font-family="Helvetica,sans-Serif" font-size="10.00"
                  fill="#000000">thread
            </text>
        </g>
        <!-- Node8&#45;&gt;Node10 -->
        <g id="edge10" class="edge">
            <title>Node8&#45;&gt;Node10</title>
            <path fill="none" stroke="#191970"
                  d="M571.4252,-55.4179C575.6626,-47.8998 581.8158,-36.9829 587.0593,-27.6799"/>
            <polygon fill="#191970" stroke="#191970"
                     points="590.2148,-29.2096 592.0759,-18.7795 584.1167,-25.7724 590.2148,-29.2096"/>
        </g>
        <!-- Node11&#45;&gt;Node1 -->
        <g id="edge12" class="edge">
            <title>Node11&#45;&gt;Node1</title>
            <path fill="none" stroke="#191970"
                  d="M190.4177,-165.4179C159.9343,-156.155 112.4712,-141.7325 78.8826,-131.526"/>
            <polygon fill="#191970" stroke="#191970"
                     points="79.5238,-128.0629 68.9382,-128.5042 77.4886,-134.7605 79.5238,-128.0629"/>
        </g>
        <!-- Node11&#45;&gt;Node3 -->
        <g id="edge13" class="edge">
            <title>Node11&#45;&gt;Node3</title>
            <path fill="none" stroke="#191970"
                  d="M209.7379,-165.4179C200.2529,-157.2667 186.1187,-145.1201 174.7695,-135.3669"/>
            <polygon fill="#191970" stroke="#191970"
                     points="176.9695,-132.6427 167.1041,-128.7795 172.4071,-137.9516 176.9695,-132.6427"/>
        </g>
        <!-- Node12 -->
        <g id="node13" class="node">
            <title>Node12</title>
            <polygon fill="none" stroke="#bfbfbf"
                     points="233.6338,-110.5 233.6338,-128.5 302.9785,-128.5 302.9785,-110.5 233.6338,-110.5"/>
            <text text-anchor="middle" x="268.3062" y="-116.5" font-family="Helvetica,sans-Serif" font-size="10.00"
                  fill="#000000">fmt/format.h
            </text>
        </g>
        <!-- Node11&#45;&gt;Node12 -->
        <g id="edge14" class="edge">
            <title>Node11&#45;&gt;Node12</title>
            <path fill="none" stroke="#191970"
                  d="M228.2324,-165.4179C235.0699,-157.5833 245.1287,-146.0575 253.4578,-136.5137"/>
            <polygon fill="#191970" stroke="#191970"
                     points="256.2693,-138.6151 260.2077,-128.7795 250.9953,-134.0123 256.2693,-138.6151"/>
        </g>
        <!-- Node13 -->
        <g id="node14" class="node">
            <title>Node13</title>
            <g id="a_node14">
                <a xlink:href="../../d8/d63/_date_8hpp.html" target="_top" xlink:title="../utils/Date.hpp">
                    <polygon fill="none" stroke="#000000"
                             points="320.5649,-110.5 320.5649,-128.5 406.0474,-128.5 406.0474,-110.5 320.5649,-110.5"/>
                    <text text-anchor="middle" x="363.3062" y="-116.5" font-family="Helvetica,sans-Serif"
                          font-size="10.00" fill="#000000">../utils/Date.hpp
                    </text>
                </a>
            </g>
        </g>
        <!-- Node11&#45;&gt;Node13 -->
        <g id="edge15" class="edge">
            <title>Node11&#45;&gt;Node13</title>
            <path fill="none" stroke="#191970"
                  d="M243.9197,-165.4179C267.4138,-156.3817 303.6744,-142.4353 330.071,-132.2828"/>
            <polygon fill="#191970" stroke="#191970"
                     points="331.5805,-135.4522 339.6575,-128.5956 329.0676,-128.9188 331.5805,-135.4522"/>
        </g>
        <!-- Node14 -->
        <g id="node15" class="node">
            <title>Node14</title>
            <polygon fill="none" stroke="#bfbfbf"
                     points="336.1338,-55.5 336.1338,-73.5 390.4785,-73.5 390.4785,-55.5 336.1338,-55.5"/>
            <text text-anchor="middle" x="363.3062" y="-61.5" font-family="Helvetica,sans-Serif" font-size="10.00"
                  fill="#000000">iostream
            </text>
        </g>
        <!-- Node13&#45;&gt;Node14 -->
        <g id="edge16" class="edge">
            <title>Node13&#45;&gt;Node14</title>
            <path fill="none" stroke="#191970"
                  d="M363.3062,-110.4179C363.3062,-103.2164 363.3062,-92.8962 363.3062,-83.8632"/>
            <polygon fill="#191970" stroke="#191970"
                     points="366.8063,-83.7794 363.3062,-73.7795 359.8063,-83.7795 366.8063,-83.7794"/>
        </g>
    </g>
</svg>
