<?xml version="1.0" encoding="UTF-8" standalone="no"?>
<!DOCTYPE svg PUBLIC "-//W3C//DTD SVG 1.1//EN"
        "http://www.w3.org/Graphics/SVG/1.1/DTD/svg11.dtd">
<!-- Generated by graphviz version 2.40.1 (20161225.0304)
 -->
<!-- Title: code/gui/AddPatientDialog.hpp Pages: 1 -->
<!--zoomable 247 -->
<svg id="main" version="1.1" xmlns="http://www.w3.org/2000/svg" xmlns:xlink="http://www.w3.org/1999/xlink" xml:space="preserve" onload="init(evt)">
<style type="text/css"><![CDATA[
.edge:hover path { stroke: red; }
.edge:hover polygon { stroke: red; fill: red; }
]]></style>
<script type="text/javascript"><![CDATA[
var edges = document.getElementsByTagName('g');
if (edges && edges.length) {
  for (var i=0;i<edges.length;i++) {
    if (edges[i].id.substr(0,4)=='edge') {
      edges[i].setAttribute('class','edge');
    }
  }
}
]]></script>
        <defs>
                <circle id="rim" cx="0" cy="0" r="7"/>
                <circle id="rim2" cx="0" cy="0" r="3.5"/>
                <g id="zoomPlus">
                        <use xlink:href="#rim" fill="#404040">
                                <set attributeName="fill" to="#808080" begin="zoomplus.mouseover" end="zoomplus.mouseout"/>
                        </use>
                        <path d="M-4,0h8M0,-4v8" fill="none" stroke="white" stroke-width="1.5" pointer-events="none"/>
                </g>
                <g id="zoomMin">
                        <use xlink:href="#rim" fill="#404040">
                                <set attributeName="fill" to="#808080" begin="zoomminus.mouseover" end="zoomminus.mouseout"/>
                        </use>
                        <path d="M-4,0h8" fill="none" stroke="white" stroke-width="1.5" pointer-events="none"/>
                </g>
                <g id="dirArrow">
                        <path fill="none" stroke="white" stroke-width="1.5" d="M0,-3.0v7 M-2.5,-0.5L0,-3.0L2.5,-0.5"/>
                </g>
               <g id="resetDef">
                       <use xlink:href="#rim2" fill="#404040">
                               <set attributeName="fill" to="#808080" begin="reset.mouseover" end="reset.mouseout"/>
                       </use>
               </g>
        </defs>

<script type="text/javascript">
var viewWidth = 1029;
var viewHeight = 247;
var sectionId = 'dynsection-0';
</script>
<script xlink:href="../../svgpan.js"/>
<svg id="graph" class="graph">
<g id="viewport">
<title>code/gui/AddPatientDialog.hpp</title>
    <!-- Node0 -->
<g id="node1" class="node">
<title>Node0</title>
<polygon fill="#bfbfbf" stroke="#000000" points="233.644,-220.5 233.644,-238.5 386.9683,-238.5 386.9683,-220.5 233.644,-220.5"/>
<text text-anchor="middle" x="310.3062" y="-226.5" font-family="Helvetica,sans-Serif" font-size="10.00" fill="#000000">code/gui/AddPatientDialog.hpp</text>
</g>
    <!-- Node1 -->
<g id="node2" class="node">
<title>Node1</title>
<polygon fill="none" stroke="#bfbfbf" points="0,-110.5 0,-128.5 78.6123,-128.5 78.6123,-110.5 0,-110.5"/>
<text text-anchor="middle" x="39.3062" y="-116.5" font-family="Helvetica,sans-Serif" font-size="10.00" fill="#000000">gtkmm/entry.h</text>
</g>
    <!-- Node0&#45;&gt;Node1 -->
<g id="edge1" class="edge">
<title>Node0&#45;&gt;Node1</title>
<path fill="none" stroke="#191970" d="M286.4824,-220.4413C262.7902,-211.3842 225.4387,-196.9745 193.3062,-184 150.2567,-166.6174 100.7937,-145.738 69.7936,-132.5415"/>
<polygon fill="#191970" stroke="#191970" points="70.9805,-129.2427 60.4089,-128.541 68.2355,-135.6821 70.9805,-129.2427"/>
</g>
    <!-- Node2 -->
<g id="node3" class="node">
<title>Node2</title>
<polygon fill="none" stroke="#bfbfbf" points="315.8457,-165.5 315.8457,-183.5 400.7666,-183.5 400.7666,-165.5 315.8457,-165.5"/>
<text text-anchor="middle" x="358.3062" y="-171.5" font-family="Helvetica,sans-Serif" font-size="10.00" fill="#000000">gtkmm/button.h</text>
</g>
    <!-- Node0&#45;&gt;Node2 -->
<g id="edge2" class="edge">
<title>Node0&#45;&gt;Node2</title>
<path fill="none" stroke="#191970" d="M318.2324,-220.4179C325.0699,-212.5833 335.1287,-201.0575 343.4578,-191.5137"/>
<polygon fill="#191970" stroke="#191970" points="346.2693,-193.6151 350.2077,-183.7795 340.9953,-189.0123 346.2693,-193.6151"/>
</g>
    <!-- Node3 -->
<g id="node4" class="node">
<title>Node3</title>
<polygon fill="none" stroke="#bfbfbf" points="96.6191,-110.5 96.6191,-128.5 215.9932,-128.5 215.9932,-110.5 96.6191,-110.5"/>
<text text-anchor="middle" x="156.3062" y="-116.5" font-family="Helvetica,sans-Serif" font-size="10.00" fill="#000000">gtkmm/comboboxtext.h</text>
</g>
    <!-- Node0&#45;&gt;Node3 -->
<g id="edge3" class="edge">
<title>Node0&#45;&gt;Node3</title>
<path fill="none" stroke="#191970" d="M286.0583,-220.4543C266.4713,-212.5063 238.7365,-199.7616 217.3062,-184 198.7985,-170.388 181.1622,-150.7595 169.6575,-136.7361"/>
<polygon fill="#191970" stroke="#191970" points="172.3141,-134.4541 163.3335,-128.8327 166.8485,-138.8275 172.3141,-134.4541"/>
</g>
    <!-- Node4 -->
<g id="node5" class="node">
<title>Node4</title>
<g id="a_node5"><a xlink:href="../../dc/de6/_dialog_8hpp.html" target="_top" xlink:title="Dialog.hpp">
<polygon fill="none" stroke="#000000" points="494.3999,-165.5 494.3999,-183.5 558.2124,-183.5 558.2124,-165.5 494.3999,-165.5"/>
<text text-anchor="middle" x="526.3062" y="-171.5" font-family="Helvetica,sans-Serif" font-size="10.00" fill="#000000">Dialog.hpp</text>
</a>
</g>
</g>
    <!-- Node0&#45;&gt;Node4 -->
<g id="edge4" class="edge">
<title>Node0&#45;&gt;Node4</title>
<path fill="none" stroke="#191970" d="M345.9742,-220.4179C383.9735,-210.7421 444.0825,-195.4366 484.3344,-185.1872"/>
<polygon fill="#191970" stroke="#191970" points="485.2875,-188.5563 494.1146,-182.6969 483.5602,-181.7728 485.2875,-188.5563"/>
</g>
    <!-- Node12 -->
<g id="node13" class="node">
<title>Node12</title>
<g id="a_node13"><a xlink:href="../../dc/d55/_widgets_8hpp.html" target="_top" xlink:title="Widgets.hpp">
<polygon fill="none" stroke="#000000" points="226.5132,-165.5 226.5132,-183.5 298.0991,-183.5 298.0991,-165.5 226.5132,-165.5"/>
<text text-anchor="middle" x="262.3062" y="-171.5" font-family="Helvetica,sans-Serif" font-size="10.00" fill="#000000">Widgets.hpp</text>
</a>
</g>
</g>
    <!-- Node0&#45;&gt;Node12 -->
<g id="edge12" class="edge">
<title>Node0&#45;&gt;Node12</title>
<path fill="none" stroke="#191970" d="M302.3799,-220.4179C295.5425,-212.5833 285.4836,-201.0575 277.1545,-191.5137"/>
<polygon fill="#191970" stroke="#191970" points="279.617,-189.0123 270.4046,-183.7795 274.343,-193.6151 279.617,-189.0123"/>
</g>
    <!-- Node16 -->
<g id="node17" class="node">
<title>Node16</title>
<g id="a_node17"><a xlink:href="../../d2/dce/string_utils_8hpp.html" target="_top" xlink:title="../utils/stringUtils.hpp">
<polygon fill="none" stroke="#000000" points="821.1782,-165.5 821.1782,-183.5 929.4341,-183.5 929.4341,-165.5 821.1782,-165.5"/>
<text text-anchor="middle" x="875.3062" y="-171.5" font-family="Helvetica,sans-Serif" font-size="10.00" fill="#000000">../utils/stringUtils.hpp</text>
</a>
</g>
</g>
    <!-- Node0&#45;&gt;Node16 -->
<g id="edge18" class="edge">
<title>Node0&#45;&gt;Node16</title>
<path fill="none" stroke="#191970" d="M387.0926,-222.0252C499.3659,-211.096 706.3197,-190.95 811.0282,-180.7571"/>
<polygon fill="#191970" stroke="#191970" points="811.5273,-184.2252 821.1411,-179.7727 810.849,-177.2581 811.5273,-184.2252"/>
</g>
    <!-- Node5 -->
<g id="node6" class="node">
<title>Node5</title>
<polygon fill="none" stroke="#bfbfbf" points="423.7275,-110.5 423.7275,-128.5 520.8848,-128.5 520.8848,-110.5 423.7275,-110.5"/>
<text text-anchor="middle" x="472.3062" y="-116.5" font-family="Helvetica,sans-Serif" font-size="10.00" fill="#000000">sigc++/trackable.h</text>
</g>
    <!-- Node4&#45;&gt;Node5 -->
<g id="edge5" class="edge">
<title>Node4&#45;&gt;Node5</title>
<path fill="none" stroke="#191970" d="M517.3892,-165.4179C509.5416,-157.425 497.9221,-145.5903 488.445,-135.9377"/>
<polygon fill="#191970" stroke="#191970" points="490.9203,-133.463 481.4169,-128.7795 485.9253,-138.3672 490.9203,-133.463"/>
</g>
    <!-- Node6 -->
<g id="node7" class="node">
<title>Node6</title>
<polygon fill="none" stroke="#bfbfbf" points="538.4023,-110.5 538.4023,-128.5 622.21,-128.5 622.21,-110.5 538.4023,-110.5"/>
<text text-anchor="middle" x="580.3062" y="-116.5" font-family="Helvetica,sans-Serif" font-size="10.00" fill="#000000">gtkmm/dialog.h</text>
</g>
    <!-- Node4&#45;&gt;Node6 -->
<g id="edge6" class="edge">
<title>Node4&#45;&gt;Node6</title>
<path fill="none" stroke="#191970" d="M535.2232,-165.4179C543.0707,-157.425 554.6902,-145.5903 564.1673,-135.9377"/>
<polygon fill="#191970" stroke="#191970" points="566.687,-138.3672 571.1954,-128.7795 561.692,-133.463 566.687,-138.3672"/>
</g>
    <!-- Node7 -->
<g id="node8" class="node">
<title>Node7</title>
<g id="a_node8"><a xlink:href="../../d1/d25/_i_subject_8hpp.html" target="_top" xlink:title="../interfaces/ISubject.hpp">
<polygon fill="none" stroke="#000000" points="640.2744,-110.5 640.2744,-128.5 766.3379,-128.5 766.3379,-110.5 640.2744,-110.5"/>
<text text-anchor="middle" x="703.3062" y="-116.5" font-family="Helvetica,sans-Serif" font-size="10.00" fill="#000000">../interfaces/ISubject.hpp</text>
</a>
</g>
</g>
    <!-- Node4&#45;&gt;Node7 -->
<g id="edge7" class="edge">
<title>Node4&#45;&gt;Node7</title>
<path fill="none" stroke="#191970" d="M555.5341,-165.4179C585.3438,-156.155 631.7581,-141.7325 664.6043,-131.526"/>
<polygon fill="#191970" stroke="#191970" points="665.818,-134.814 674.329,-128.5042 663.7408,-128.1293 665.818,-134.814"/>
</g>
    <!-- Node8 -->
<g id="node9" class="node">
<title>Node8</title>
<polygon fill="none" stroke="#bfbfbf" points="724.6362,-55.5 724.6362,-73.5 753.9761,-73.5 753.9761,-55.5 724.6362,-55.5"/>
<text text-anchor="middle" x="739.3062" y="-61.5" font-family="Helvetica,sans-Serif" font-size="10.00" fill="#000000">set</text>
</g>
    <!-- Node7&#45;&gt;Node8 -->
<g id="edge8" class="edge">
<title>Node7&#45;&gt;Node8</title>
<path fill="none" stroke="#191970" d="M709.2508,-110.4179C714.2235,-102.8207 721.468,-91.7527 727.5986,-82.3866"/>
<polygon fill="#191970" stroke="#191970" points="730.6842,-84.0633 733.2323,-73.7795 724.8272,-80.2297 730.6842,-84.0633"/>
</g>
    <!-- Node9 -->
<g id="node10" class="node">
<title>Node9</title>
<g id="a_node10"><a xlink:href="../../d5/d40/_i_observer_8hpp.html" target="_top" xlink:title="IObserver.hpp">
<polygon fill="none" stroke="#000000" points="627.8975,-55.5 627.8975,-73.5 706.7148,-73.5 706.7148,-55.5 627.8975,-55.5"/>
<text text-anchor="middle" x="667.3062" y="-61.5" font-family="Helvetica,sans-Serif" font-size="10.00" fill="#000000">IObserver.hpp</text>
</a>
</g>
</g>
    <!-- Node7&#45;&gt;Node9 -->
<g id="edge9" class="edge">
<title>Node7&#45;&gt;Node9</title>
<path fill="none" stroke="#191970" d="M697.3615,-110.4179C692.3888,-102.8207 685.1443,-91.7527 679.0138,-82.3866"/>
<polygon fill="#191970" stroke="#191970" points="681.7851,-80.2297 673.38,-73.7795 675.9282,-84.0633 681.7851,-80.2297"/>
</g>
    <!-- Node10 -->
<g id="node11" class="node">
<title>Node10</title>
<polygon fill="none" stroke="#bfbfbf" points="614.6904,-.5 614.6904,-18.5 657.9219,-18.5 657.9219,-.5 614.6904,-.5"/>
<text text-anchor="middle" x="636.3062" y="-6.5" font-family="Helvetica,sans-Serif" font-size="10.00" fill="#000000">mutex</text>
</g>
    <!-- Node9&#45;&gt;Node10 -->
<g id="edge10" class="edge">
<title>Node9&#45;&gt;Node10</title>
<path fill="none" stroke="#191970" d="M662.1871,-55.4179C657.9497,-47.8998 651.7965,-36.9829 646.553,-27.6799"/>
<polygon fill="#191970" stroke="#191970" points="649.4956,-25.7724 641.5364,-18.7795 643.3975,-29.2096 649.4956,-25.7724"/>
</g>
    <!-- Node11 -->
<g id="node12" class="node">
<title>Node11</title>
<polygon fill="none" stroke="#bfbfbf" points="676.1289,-.5 676.1289,-18.5 720.4834,-18.5 720.4834,-.5 676.1289,-.5"/>
<text text-anchor="middle" x="698.3062" y="-6.5" font-family="Helvetica,sans-Serif" font-size="10.00" fill="#000000">thread</text>
</g>
    <!-- Node9&#45;&gt;Node11 -->
<g id="edge11" class="edge">
<title>Node9&#45;&gt;Node11</title>
<path fill="none" stroke="#191970" d="M672.4252,-55.4179C676.6626,-47.8998 682.8158,-36.9829 688.0593,-27.6799"/>
<polygon fill="#191970" stroke="#191970" points="691.2148,-29.2096 693.0759,-18.7795 685.1167,-25.7724 691.2148,-29.2096"/>
</g>
    <!-- Node12&#45;&gt;Node1 -->
<g id="edge13" class="edge">
<title>Node12&#45;&gt;Node1</title>
<path fill="none" stroke="#191970" d="M226.4773,-165.6633C188.3742,-156.2657 127.9479,-141.3623 86.107,-131.0428"/>
<polygon fill="#191970" stroke="#191970" points="86.7066,-127.5859 76.1594,-128.5894 85.0303,-134.3822 86.7066,-127.5859"/>
</g>
    <!-- Node12&#45;&gt;Node3 -->
<g id="edge14" class="edge">
<title>Node12&#45;&gt;Node3</title>
<path fill="none" stroke="#191970" d="M244.8024,-165.4179C227.9242,-156.6603 202.1574,-143.2907 182.7725,-133.2326"/>
<polygon fill="#191970" stroke="#191970" points="184.3242,-130.0946 173.8359,-128.5956 181.1002,-136.308 184.3242,-130.0946"/>
</g>
    <!-- Node13 -->
<g id="node14" class="node">
<title>Node13</title>
<polygon fill="none" stroke="#bfbfbf" points="336.6338,-110.5 336.6338,-128.5 405.9785,-128.5 405.9785,-110.5 336.6338,-110.5"/>
<text text-anchor="middle" x="371.3062" y="-116.5" font-family="Helvetica,sans-Serif" font-size="10.00" fill="#000000">fmt/format.h</text>
</g>
    <!-- Node12&#45;&gt;Node13 -->
<g id="edge15" class="edge">
<title>Node12&#45;&gt;Node13</title>
<path fill="none" stroke="#191970" d="M280.3053,-165.4179C297.6612,-156.6603 324.1572,-143.2907 344.0907,-133.2326"/>
<polygon fill="#191970" stroke="#191970" points="345.9292,-136.2253 353.2803,-128.5956 342.7757,-129.9758 345.9292,-136.2253"/>
</g>
    <!-- Node14 -->
<g id="node15" class="node">
<title>Node14</title>
<g id="a_node15"><a xlink:href="../../d8/d63/_date_8hpp.html" target="_top" xlink:title="../utils/Date.hpp">
<polygon fill="none" stroke="#000000" points="233.5649,-110.5 233.5649,-128.5 319.0474,-128.5 319.0474,-110.5 233.5649,-110.5"/>
<text text-anchor="middle" x="276.3062" y="-116.5" font-family="Helvetica,sans-Serif" font-size="10.00" fill="#000000">../utils/Date.hpp</text>
</a>
</g>
</g>
    <!-- Node12&#45;&gt;Node14 -->
<g id="edge16" class="edge">
<title>Node12&#45;&gt;Node14</title>
<path fill="none" stroke="#191970" d="M264.618,-165.4179C266.4712,-158.1372 269.1359,-147.669 271.453,-138.5659"/>
<polygon fill="#191970" stroke="#191970" points="274.8691,-139.3338 273.9441,-128.7795 268.0854,-137.607 274.8691,-139.3338"/>
</g>
    <!-- Node15 -->
<g id="node16" class="node">
<title>Node15</title>
<polygon fill="none" stroke="#bfbfbf" points="249.1338,-55.5 249.1338,-73.5 303.4785,-73.5 303.4785,-55.5 249.1338,-55.5"/>
<text text-anchor="middle" x="276.3062" y="-61.5" font-family="Helvetica,sans-Serif" font-size="10.00" fill="#000000">iostream</text>
</g>
    <!-- Node14&#45;&gt;Node15 -->
<g id="edge17" class="edge">
<title>Node14&#45;&gt;Node15</title>
<path fill="none" stroke="#191970" d="M276.3062,-110.4179C276.3062,-103.2164 276.3062,-92.8962 276.3062,-83.8632"/>
<polygon fill="#191970" stroke="#191970" points="279.8063,-83.7794 276.3062,-73.7795 272.8063,-83.7795 279.8063,-83.7794"/>
</g>
    <!-- Node17 -->
<g id="node18" class="node">
<title>Node17</title>
<polygon fill="none" stroke="#bfbfbf" points="980.0796,-110.5 980.0796,-128.5 1020.5327,-128.5 1020.5327,-110.5 980.0796,-110.5"/>
<text text-anchor="middle" x="1000.3062" y="-116.5" font-family="Helvetica,sans-Serif" font-size="10.00" fill="#000000">string</text>
</g>
    <!-- Node16&#45;&gt;Node17 -->
<g id="edge19" class="edge">
<title>Node16&#45;&gt;Node17</title>
<path fill="none" stroke="#191970" d="M895.9474,-165.4179C916.3341,-156.4477 947.7179,-142.6388 970.7472,-132.5059"/>
<polygon fill="#191970" stroke="#191970" points="972.3055,-135.6442 980.049,-128.4131 969.4863,-129.237 972.3055,-135.6442"/>
</g>
    <!-- Node18 -->
<g id="node19" class="node">
<title>Node18</title>
<polygon fill="none" stroke="#bfbfbf" points="784.5254,-110.5 784.5254,-128.5 836.0869,-128.5 836.0869,-110.5 784.5254,-110.5"/>
<text text-anchor="middle" x="810.3062" y="-116.5" font-family="Helvetica,sans-Serif" font-size="10.00" fill="#000000">sstream</text>
</g>
    <!-- Node16&#45;&gt;Node18 -->
<g id="edge20" class="edge">
<title>Node16&#45;&gt;Node18</title>
<path fill="none" stroke="#191970" d="M864.5727,-165.4179C854.9395,-157.2667 840.5845,-145.1201 829.058,-135.3669"/>
<polygon fill="#191970" stroke="#191970" points="831.1675,-132.5671 821.2728,-128.7795 826.6459,-137.9108 831.1675,-132.5671"/>
</g>
    <!-- Node19 -->
<g id="node20" class="node">
<title>Node19</title>
<polygon fill="none" stroke="#bfbfbf" points="853.6904,-110.5 853.6904,-128.5 896.9219,-128.5 896.9219,-110.5 853.6904,-110.5"/>
<text text-anchor="middle" x="875.3062" y="-116.5" font-family="Helvetica,sans-Serif" font-size="10.00" fill="#000000">vector</text>
</g>
    <!-- Node16&#45;&gt;Node19 -->
<g id="edge21" class="edge">
<title>Node16&#45;&gt;Node19</title>
<path fill="none" stroke="#191970" d="M875.3062,-165.4179C875.3062,-158.2164 875.3062,-147.8962 875.3062,-138.8632"/>
<polygon fill="#191970" stroke="#191970" points="878.8063,-138.7794 875.3062,-128.7795 871.8063,-138.7795 878.8063,-138.7794"/>
</g>
    <!-- Node20 -->
<g id="node21" class="node">
<title>Node20</title>
<polygon fill="none" stroke="#bfbfbf" points="914.7446,-110.5 914.7446,-128.5 961.8677,-128.5 961.8677,-110.5 914.7446,-110.5"/>
<text text-anchor="middle" x="938.3062" y="-116.5" font-family="Helvetica,sans-Serif" font-size="10.00" fill="#000000">iterator</text>
</g>
    <!-- Node16&#45;&gt;Node20 -->
<g id="edge22" class="edge">
<title>Node16&#45;&gt;Node20</title>
<path fill="none" stroke="#191970" d="M885.7093,-165.4179C895.0461,-157.2667 908.9595,-145.1201 920.1313,-135.3669"/>
<polygon fill="#191970" stroke="#191970" points="922.4456,-137.9927 927.677,-128.7795 917.8419,-132.7194 922.4456,-137.9927"/>
</g>
</g>
</svg>
        <g id="navigator" transform="translate(0 0)" fill="#404254">
                <rect fill="#f2f5e9" fill-opacity="0.5" stroke="#606060" stroke-width=".5" x="0" y="0" width="60" height="60"/>
                <use id="zoomplus" xlink:href="#zoomPlus" x="17" y="9" onmousedown="handleZoom(evt,'in')"/>
                <use id="zoomminus" xlink:href="#zoomMin" x="42" y="9" onmousedown="handleZoom(evt,'out')"/>
                <use id="reset" xlink:href="#resetDef" x="30" y="36" onmousedown="handleReset()"/>
                <g id="arrowUp" xlink:href="#dirArrow" transform="translate(30 24)" onmousedown="handlePan(0,-1)">
                  <use xlink:href="#rim" fill="#404040">
                        <set attributeName="fill" to="#808080" begin="arrowUp.mouseover" end="arrowUp.mouseout"/>
                  </use>
                  <path fill="none" stroke="white" stroke-width="1.5" d="M0,-3.0v7 M-2.5,-0.5L0,-3.0L2.5,-0.5"/>
                </g>
                <g id="arrowRight" xlink:href="#dirArrow" transform="rotate(90) translate(36 -43)" onmousedown="handlePan(1,0)">
                  <use xlink:href="#rim" fill="#404040">
                        <set attributeName="fill" to="#808080" begin="arrowRight.mouseover" end="arrowRight.mouseout"/>
                  </use>
                  <path fill="none" stroke="white" stroke-width="1.5" d="M0,-3.0v7 M-2.5,-0.5L0,-3.0L2.5,-0.5"/>
                </g>
                <g id="arrowDown" xlink:href="#dirArrow" transform="rotate(180) translate(-30 -48)" onmousedown="handlePan(0,1)">
                  <use xlink:href="#rim" fill="#404040">
                        <set attributeName="fill" to="#808080" begin="arrowDown.mouseover" end="arrowDown.mouseout"/>
                  </use>
                  <path fill="none" stroke="white" stroke-width="1.5" d="M0,-3.0v7 M-2.5,-0.5L0,-3.0L2.5,-0.5"/>
                </g>
                <g id="arrowLeft" xlink:href="#dirArrow" transform="rotate(270) translate(-36 17)" onmousedown="handlePan(-1,0)">
                  <use xlink:href="#rim" fill="#404040">
                        <set attributeName="fill" to="#808080" begin="arrowLeft.mouseover" end="arrowLeft.mouseout"/>
                  </use>
                  <path fill="none" stroke="white" stroke-width="1.5" d="M0,-3.0v7 M-2.5,-0.5L0,-3.0L2.5,-0.5"/>
                </g>
        </g>
        <svg viewBox="0 0 15 15" width="100%" height="30px" preserveAspectRatio="xMaxYMin meet">
         <g id="arrow_out" transform="scale(0.3 0.3)">
          <a xlink:href="_add_patient_dialog_8hpp__incl_org.svg" target="_base">
           <rect id="button" ry="5" rx="5" y="6" x="6" height="38" width="38"
                fill="#f2f5e9" fill-opacity="0.5" stroke="#606060" stroke-width="1.0"/>
           <path id="arrow"
             d="M 11.500037,31.436501 C 11.940474,20.09759 22.043105,11.32322 32.158766,21.979434 L 37.068811,17.246167 C 37.068811,17.246167 37.088388,32 37.088388,32 L 22.160133,31.978069 C 22.160133,31.978069 26.997745,27.140456 26.997745,27.140456 C 18.528582,18.264221 13.291696,25.230495 11.500037,31.436501 z"
             style="fill:#404040;"/>
          </a>
         </g>
        </svg>
</svg>
