<?xml version="1.0" encoding="UTF-8" standalone="no"?>
<!DOCTYPE svg PUBLIC "-//W3C//DTD SVG 1.1//EN"
        "http://www.w3.org/Graphics/SVG/1.1/DTD/svg11.dtd">
<!-- Generated by graphviz version 2.40.1 (20161225.0304)
 -->
<!-- Title: code/interfaces/ISubject.hpp Pages: 1 -->
<svg width="168pt" height="137pt"
     viewBox="0.00 0.00 168.27 137.00" xmlns="http://www.w3.org/2000/svg" xmlns:xlink="http://www.w3.org/1999/xlink">
    <g id="graph0" class="graph" transform="scale(1 1) rotate(0) translate(4 133)">
        <title>code/interfaces/ISubject.hpp</title>
        <!-- Node0 -->
        <g id="node1" class="node">
            <title>Node0</title>
            <polygon fill="#bfbfbf" stroke="#000000"
                     points="0,-110.5 0,-128.5 142.1914,-128.5 142.1914,-110.5 0,-110.5"/>
            <text text-anchor="middle" x="71.0957" y="-116.5" font-family="Helvetica,sans-Serif" font-size="10.00"
                  fill="#000000">code/interfaces/ISubject.hpp
            </text>
        </g>
        <!-- Node1 -->
        <g id="node2" class="node">
            <title>Node1</title>
            <polygon fill="none" stroke="#bfbfbf"
                     points="20.4258,-55.5 20.4258,-73.5 49.7656,-73.5 49.7656,-55.5 20.4258,-55.5"/>
            <text text-anchor="middle" x="35.0957" y="-61.5" font-family="Helvetica,sans-Serif" font-size="10.00"
                  fill="#000000">set
            </text>
        </g>
        <!-- Node0&#45;&gt;Node1 -->
        <g id="edge1" class="edge">
            <title>Node0&#45;&gt;Node1</title>
            <path fill="none" stroke="#191970"
                  d="M65.151,-110.4179C60.1783,-102.8207 52.9338,-91.7527 46.8033,-82.3866"/>
            <polygon fill="#191970" stroke="#191970"
                     points="49.5746,-80.2297 41.1695,-73.7795 43.7177,-84.0633 49.5746,-80.2297"/>
        </g>
        <!-- Node2 -->
        <g id="node3" class="node">
            <title>Node2</title>
            <g id="a_node3">
                <a xlink:href="../../d5/d40/_i_observer_8hpp.html" target="_top" xlink:title="IObserver.hpp">
                    <polygon fill="none" stroke="#000000"
                             points="67.687,-55.5 67.687,-73.5 146.5044,-73.5 146.5044,-55.5 67.687,-55.5"/>
                    <text text-anchor="middle" x="107.0957" y="-61.5" font-family="Helvetica,sans-Serif"
                          font-size="10.00" fill="#000000">IObserver.hpp
                    </text>
                </a>
            </g>
        </g>
        <!-- Node0&#45;&gt;Node2 -->
        <g id="edge2" class="edge">
            <title>Node0&#45;&gt;Node2</title>
            <path fill="none" stroke="#191970"
                  d="M77.0404,-110.4179C82.0131,-102.8207 89.2576,-91.7527 95.3881,-82.3866"/>
            <polygon fill="#191970" stroke="#191970"
                     points="98.4737,-84.0633 101.0219,-73.7795 92.6168,-80.2297 98.4737,-84.0633"/>
        </g>
        <!-- Node3 -->
        <g id="node4" class="node">
            <title>Node3</title>
            <polygon fill="none" stroke="#bfbfbf" points="54.48,-.5 54.48,-18.5 97.7114,-18.5 97.7114,-.5 54.48,-.5"/>
            <text text-anchor="middle" x="76.0957" y="-6.5" font-family="Helvetica,sans-Serif" font-size="10.00"
                  fill="#000000">mutex
            </text>
        </g>
        <!-- Node2&#45;&gt;Node3 -->
        <g id="edge3" class="edge">
            <title>Node2&#45;&gt;Node3</title>
            <path fill="none" stroke="#191970"
                  d="M101.9767,-55.4179C97.7392,-47.8998 91.5861,-36.9829 86.3425,-27.6799"/>
            <polygon fill="#191970" stroke="#191970"
                     points="89.2852,-25.7724 81.3259,-18.7795 83.1871,-29.2096 89.2852,-25.7724"/>
        </g>
        <!-- Node4 -->
        <g id="node5" class="node">
            <title>Node4</title>
            <polygon fill="none" stroke="#bfbfbf"
                     points="115.9185,-.5 115.9185,-18.5 160.2729,-18.5 160.2729,-.5 115.9185,-.5"/>
            <text text-anchor="middle" x="138.0957" y="-6.5" font-family="Helvetica,sans-Serif" font-size="10.00"
                  fill="#000000">thread
            </text>
        </g>
        <!-- Node2&#45;&gt;Node4 -->
        <g id="edge4" class="edge">
            <title>Node2&#45;&gt;Node4</title>
            <path fill="none" stroke="#191970"
                  d="M112.2147,-55.4179C116.4522,-47.8998 122.6054,-36.9829 127.8489,-27.6799"/>
            <polygon fill="#191970" stroke="#191970"
                     points="131.0043,-29.2096 132.8655,-18.7795 124.9062,-25.7724 131.0043,-29.2096"/>
        </g>
    </g>
</svg>
