<?xml version="1.0" encoding="UTF-8" standalone="no"?>
<!DOCTYPE svg PUBLIC "-//W3C//DTD SVG 1.1//EN"
        "http://www.w3.org/Graphics/SVG/1.1/DTD/svg11.dtd">
<!-- Generated by graphviz version 2.40.1 (20161225.0304)
 -->
<!-- Title: code/Configuration.hpp Pages: 1 -->
<svg width="188pt" height="82pt"
     viewBox="0.00 0.00 187.90 82.00" xmlns="http://www.w3.org/2000/svg" xmlns:xlink="http://www.w3.org/1999/xlink">
    <g id="graph0" class="graph" transform="scale(1 1) rotate(0) translate(4 78)">
        <title>code/Configuration.hpp</title>
        <!-- Node0 -->
        <g id="node1" class="node">
            <title>Node0</title>
            <polygon fill="#bfbfbf" stroke="#000000"
                     points="25.5225,-55.5 25.5225,-73.5 144.9307,-73.5 144.9307,-55.5 25.5225,-55.5"/>
            <text text-anchor="middle" x="85.2266" y="-61.5" font-family="Helvetica,sans-Serif" font-size="10.00"
                  fill="#000000">code/Configuration.hpp
            </text>
        </g>
        <!-- Node1 -->
        <g id="node2" class="node">
            <title>Node1</title>
            <polygon fill="none" stroke="#bfbfbf" points="0,-.5 0,-18.5 40.4531,-18.5 40.4531,-.5 0,-.5"/>
            <text text-anchor="middle" x="20.2266" y="-6.5" font-family="Helvetica,sans-Serif" font-size="10.00"
                  fill="#000000">string
            </text>
        </g>
        <!-- Node0&#45;&gt;Node1 -->
        <g id="edge1" class="edge">
            <title>Node0&#45;&gt;Node1</title>
            <path fill="none" stroke="#191970"
                  d="M74.4931,-55.4179C64.8599,-47.2667 50.5049,-35.1201 38.9784,-25.3669"/>
            <polygon fill="#191970" stroke="#191970"
                     points="41.0879,-22.5671 31.1932,-18.7795 36.5663,-27.9108 41.0879,-22.5671"/>
        </g>
        <!-- Node2 -->
        <g id="node3" class="node">
            <title>Node2</title>
            <polygon fill="none" stroke="#bfbfbf"
                     points="58.3228,-.5 58.3228,-18.5 112.1304,-18.5 112.1304,-.5 58.3228,-.5"/>
            <text text-anchor="middle" x="85.2266" y="-6.5" font-family="Helvetica,sans-Serif" font-size="10.00"
                  fill="#000000">json.hpp
            </text>
        </g>
        <!-- Node0&#45;&gt;Node2 -->
        <g id="edge2" class="edge">
            <title>Node0&#45;&gt;Node2</title>
            <path fill="none" stroke="#191970"
                  d="M85.2266,-55.4179C85.2266,-48.2164 85.2266,-37.8962 85.2266,-28.8632"/>
            <polygon fill="#191970" stroke="#191970"
                     points="88.7267,-28.7794 85.2266,-18.7795 81.7267,-28.7795 88.7267,-28.7794"/>
        </g>
        <!-- Node3 -->
        <g id="node4" class="node">
            <title>Node3</title>
            <polygon fill="none" stroke="#bfbfbf"
                     points="130.5566,-.5 130.5566,-18.5 179.8965,-18.5 179.8965,-.5 130.5566,-.5"/>
            <text text-anchor="middle" x="155.2266" y="-6.5" font-family="Helvetica,sans-Serif" font-size="10.00"
                  fill="#000000">fstream
            </text>
        </g>
        <!-- Node0&#45;&gt;Node3 -->
        <g id="edge3" class="edge">
            <title>Node0&#45;&gt;Node3</title>
            <path fill="none" stroke="#191970"
                  d="M96.7856,-55.4179C107.2606,-47.1876 122.9198,-34.8839 135.393,-25.0836"/>
            <polygon fill="#191970" stroke="#191970"
                     points="137.7155,-27.7098 143.4163,-18.7795 133.3908,-22.2056 137.7155,-27.7098"/>
        </g>
    </g>
</svg>
