<?xml version="1.0" encoding="UTF-8" standalone="no"?>
<!DOCTYPE svg PUBLIC "-//W3C//DTD SVG 1.1//EN"
        "http://www.w3.org/Graphics/SVG/1.1/DTD/svg11.dtd">
<!-- Generated by graphviz version 2.40.1 (20161225.0304)
 -->
<!-- Title: code/gui/Widgets.hpp Pages: 1 -->
<!--zoomable 157 -->
<svg id="main" version="1.1" xmlns="http://www.w3.org/2000/svg" xmlns:xlink="http://www.w3.org/1999/xlink" xml:space="preserve" onload="initDrugComboBox(evt)">
<style type="text/css"><![CDATA[
.edge:hover path { stroke: red; }
.edge:hover polygon { stroke: red; fill: red; }
]]></style>
<script type="text/javascript"><![CDATA[
var edges = document.getElementsByTagName('g');
if (edges && edges.length) {
  for (var i=0;i<edges.length;i++) {
    if (edges[i].id.substr(0,4)=='edge') {
      edges[i].setAttribute('class','edge');
    }
  }
}
]]></script>
        <defs>
                <circle id="rim" cx="0" cy="0" r="7"/>
                <circle id="rim2" cx="0" cy="0" r="3.5"/>
                <g id="zoomPlus">
                        <use xlink:href="#rim" fill="#404040">
                                <set attributeName="fill" to="#808080" begin="zoomplus.mouseover" end="zoomplus.mouseout"/>
                        </use>
                        <path d="M-4,0h8M0,-4v8" fill="none" stroke="white" stroke-width="1.5" pointer-events="none"/>
                </g>
                <g id="zoomMin">
                        <use xlink:href="#rim" fill="#404040">
                                <set attributeName="fill" to="#808080" begin="zoomminus.mouseover" end="zoomminus.mouseout"/>
                        </use>
                        <path d="M-4,0h8" fill="none" stroke="white" stroke-width="1.5" pointer-events="none"/>
                </g>
                <g id="dirArrow">
                        <path fill="none" stroke="white" stroke-width="1.5" d="M0,-3.0v7 M-2.5,-0.5L0,-3.0L2.5,-0.5"/>
                </g>
               <g id="resetDef">
                       <use xlink:href="#rim2" fill="#404040">
                               <set attributeName="fill" to="#808080" begin="reset.mouseover" end="reset.mouseout"/>
                       </use>
               </g>
        </defs>

<script type="text/javascript">
var viewWidth = 676;
var viewHeight = 157;
var sectionId = 'dynsection-1';
</script>
<script xlink:href="../../svgpan.js"/>
<svg id="graph" class="graph">
<g id="viewport">
<title>code/gui/Widgets.hpp</title>
    <!-- Node6 -->
<g id="node1" class="node">
<title>Node6</title>
<polygon fill="#bfbfbf" stroke="#000000" points="334.2954,-130.5 334.2954,-148.5 446.4673,-148.5 446.4673,-130.5 334.2954,-130.5"/>
<text text-anchor="middle" x="390.3813" y="-136.5" font-family="Helvetica,sans-Serif" font-size="10.00" fill="#000000">code/gui/Widgets.hpp</text>
</g>
    <!-- Node7 -->
<g id="node2" class="node">
<title>Node7</title>
<g id="a_node2"><a xlink:href="../../d2/dac/_add_patient_dialog_8hpp.html" target="_top" xlink:title="code/gui/AddPatientDialog.hpp">
<polygon fill="none" stroke="#000000" points="79.7192,-70.5 79.7192,-88.5 233.0435,-88.5 233.0435,-70.5 79.7192,-70.5"/>
<text text-anchor="middle" x="156.3813" y="-76.5" font-family="Helvetica,sans-Serif" font-size="10.00" fill="#000000">code/gui/AddPatientDialog.hpp</text>
</a>
</g>
</g>
    <!-- Node6&#45;&gt;Node7 -->
<g id="edge1" class="edge">
<title>Node6&#45;&gt;Node7</title>
<path fill="none" stroke="#191970" d="M345.3387,-127.9506C300.4961,-116.4525 232.5986,-99.0429 191.5708,-88.5229"/>
<polygon fill="#191970" stroke="#191970" points="344.5398,-131.3589 355.0958,-130.4524 346.2785,-124.5783 344.5398,-131.3589"/>
</g>
    <!-- Node10 -->
<g id="node5" class="node">
<title>Node10</title>
<g id="a_node5"><a xlink:href="../../d0/d1e/_add_prescription_dialog_8hpp.html" target="_top" xlink:title="code/gui/AddPrescription\lDialog.hpp">
<polygon fill="none" stroke="#000000" points="250.793,-65.5 250.793,-93.5 377.9697,-93.5 377.9697,-65.5 250.793,-65.5"/>
<text text-anchor="start" x="258.793" y="-81.5" font-family="Helvetica,sans-Serif" font-size="10.00" fill="#000000">code/gui/AddPrescription</text>
<text text-anchor="middle" x="314.3813" y="-71.5" font-family="Helvetica,sans-Serif" font-size="10.00" fill="#000000">Dialog.hpp</text>
</a>
</g>
</g>
    <!-- Node6&#45;&gt;Node10 -->
<g id="edge4" class="edge">
<title>Node6&#45;&gt;Node10</title>
<path fill="none" stroke="#191970" d="M370.8332,-124.0673C358.9341,-114.6732 343.8474,-102.7627 332.2645,-93.6183"/>
<polygon fill="#191970" stroke="#191970" points="368.821,-126.9379 378.8386,-130.3873 373.1585,-121.4437 368.821,-126.9379"/>
</g>
    <!-- Node12 -->
<g id="node7" class="node">
<title>Node12</title>
<g id="a_node7"><a xlink:href="../../dd/de0/_patient_window_8hpp.html" target="_top" xlink:title="code/gui/PatientWindow.hpp">
<polygon fill="none" stroke="#000000" points="396.2808,-70.5 396.2808,-88.5 538.4819,-88.5 538.4819,-70.5 396.2808,-70.5"/>
<text text-anchor="middle" x="467.3813" y="-76.5" font-family="Helvetica,sans-Serif" font-size="10.00" fill="#000000">code/gui/PatientWindow.hpp</text>
</a>
</g>
</g>
    <!-- Node6&#45;&gt;Node12 -->
<g id="edge7" class="edge">
<title>Node6&#45;&gt;Node12</title>
<path fill="none" stroke="#191970" d="M409.9702,-124.2359C424.4644,-112.9418 443.716,-97.9405 455.8289,-88.5019"/>
<polygon fill="#191970" stroke="#191970" points="407.8127,-121.4799 402.076,-130.3873 412.1153,-127.0016 407.8127,-121.4799"/>
</g>
    <!-- Node14 -->
<g id="node9" class="node">
<title>Node14</title>
<g id="a_node9"><a xlink:href="../../d7/d49/_widgets_8cpp.html" target="_top" xlink:title="code/gui/Widgets.cpp">
<polygon fill="none" stroke="#000000" points="556.5762,-70.5 556.5762,-88.5 668.1865,-88.5 668.1865,-70.5 556.5762,-70.5"/>
<text text-anchor="middle" x="612.3813" y="-76.5" font-family="Helvetica,sans-Serif" font-size="10.00" fill="#000000">code/gui/Widgets.cpp</text>
</a>
</g>
</g>
    <!-- Node6&#45;&gt;Node14 -->
<g id="edge10" class="edge">
<title>Node6&#45;&gt;Node14</title>
<path fill="none" stroke="#191970" d="M433.9025,-127.7375C476.478,-116.2306 540.3981,-98.9549 579.0744,-88.5019"/>
<polygon fill="#191970" stroke="#191970" points="432.8388,-124.3994 424.0984,-130.3873 434.6652,-131.1569 432.8388,-124.3994"/>
</g>
    <!-- Node8 -->
<g id="node3" class="node">
<title>Node8</title>
<g id="a_node3"><a xlink:href="../../db/db5/_add_patient_dialog_8cpp.html" target="_top" xlink:title="code/gui/AddPatientDialog.cpp">
<polygon fill="none" stroke="#000000" points="0,-5.5 0,-23.5 152.7627,-23.5 152.7627,-5.5 0,-5.5"/>
<text text-anchor="middle" x="76.3813" y="-11.5" font-family="Helvetica,sans-Serif" font-size="10.00" fill="#000000">code/gui/AddPatientDialog.cpp</text>
</a>
</g>
</g>
    <!-- Node7&#45;&gt;Node8 -->
<g id="edge2" class="edge">
<title>Node7&#45;&gt;Node8</title>
<path fill="none" stroke="#191970" d="M137.3517,-64.0384C121.8769,-51.4651 100.5636,-34.1481 87.6684,-23.6708"/>
<polygon fill="#191970" stroke="#191970" points="135.2894,-66.8725 145.2577,-70.462 139.7036,-61.4397 135.2894,-66.8725"/>
</g>
    <!-- Node9 -->
<g id="node4" class="node">
<title>Node9</title>
<g id="a_node4"><a xlink:href="../../d8/d35/_patient_window_8cpp.html" target="_top" xlink:title="code/gui/PatientWindow.cpp">
<polygon fill="none" stroke="#000000" points="170.5615,-5.5 170.5615,-23.5 312.2012,-23.5 312.2012,-5.5 170.5615,-5.5"/>
<text text-anchor="middle" x="241.3813" y="-11.5" font-family="Helvetica,sans-Serif" font-size="10.00" fill="#000000">code/gui/PatientWindow.cpp</text>
</a>
</g>
</g>
    <!-- Node7&#45;&gt;Node9 -->
<g id="edge3" class="edge">
<title>Node7&#45;&gt;Node9</title>
<path fill="none" stroke="#191970" d="M176.1452,-64.3865C192.6222,-51.7864 215.5608,-34.2451 229.3888,-23.6708"/>
<polygon fill="#191970" stroke="#191970" points="174.0177,-61.6072 168.2002,-70.462 178.2699,-67.1677 174.0177,-61.6072"/>
</g>
    <!-- Node10&#45;&gt;Node9 -->
<g id="edge6" class="edge">
<title>Node10&#45;&gt;Node9</title>
<path fill="none" stroke="#191970" d="M290.7085,-58.4214C277.474,-46.6373 261.6619,-32.558 251.5725,-23.5743"/>
<polygon fill="#191970" stroke="#191970" points="288.7455,-61.3599 298.5414,-65.396 293.4005,-56.132 288.7455,-61.3599"/>
</g>
    <!-- Node11 -->
<g id="node6" class="node">
<title>Node11</title>
<g id="a_node6"><a xlink:href="../../df/de8/_add_prescription_dialog_8cpp.html" target="_top" xlink:title="code/gui/AddPrescription\lDialog.cpp">
<polygon fill="none" stroke="#000000" points="329.793,-.5 329.793,-28.5 456.9697,-28.5 456.9697,-.5 329.793,-.5"/>
<text text-anchor="start" x="337.793" y="-16.5" font-family="Helvetica,sans-Serif" font-size="10.00" fill="#000000">code/gui/AddPrescription</text>
<text text-anchor="middle" x="393.3813" y="-6.5" font-family="Helvetica,sans-Serif" font-size="10.00" fill="#000000">Dialog.cpp</text>
</a>
</g>
</g>
    <!-- Node10&#45;&gt;Node11 -->
<g id="edge5" class="edge">
<title>Node10&#45;&gt;Node11</title>
<path fill="none" stroke="#191970" d="M339.4387,-58.8832C351.444,-49.0054 365.5134,-37.4293 376.273,-28.5765"/>
<polygon fill="#191970" stroke="#191970" points="337.0215,-56.3395 331.5232,-65.396 341.4691,-61.745 337.0215,-56.3395"/>
</g>
    <!-- Node12&#45;&gt;Node9 -->
<g id="edge9" class="edge">
<title>Node12&#45;&gt;Node9</title>
<path fill="none" stroke="#191970" d="M426.1179,-67.6322C381.9636,-54.933 312.8943,-35.0679 272.9023,-23.5658"/>
<polygon fill="#191970" stroke="#191970" points="425.3792,-71.0615 435.957,-70.462 427.314,-64.3343 425.3792,-71.0615"/>
</g>
    <!-- Node13 -->
<g id="node8" class="node">
<title>Node13</title>
<g id="a_node8"><a xlink:href="../../d5/da5/_main_window_8cpp.html" target="_top" xlink:title="code/gui/MainWindow.cpp">
<polygon fill="none" stroke="#000000" points="475.2905,-5.5 475.2905,-23.5 607.4722,-23.5 607.4722,-5.5 475.2905,-5.5"/>
<text text-anchor="middle" x="541.3813" y="-11.5" font-family="Helvetica,sans-Serif" font-size="10.00" fill="#000000">code/gui/MainWindow.cpp</text>
</a>
</g>
</g>
    <!-- Node12&#45;&gt;Node13 -->
<g id="edge8" class="edge">
<title>Node12&#45;&gt;Node13</title>
<path fill="none" stroke="#191970" d="M485.3353,-63.7297C499.5228,-51.2676 518.8472,-34.2936 530.7001,-23.8821"/>
<polygon fill="#191970" stroke="#191970" points="482.8741,-61.233 477.6707,-70.462 487.4937,-66.4922 482.8741,-61.233"/>
</g>
</g>
</svg>
        <g id="navigator" transform="translate(0 0)" fill="#404254">
                <rect fill="#f2f5e9" fill-opacity="0.5" stroke="#606060" stroke-width=".5" x="0" y="0" width="60" height="60"/>
                <use id="zoomplus" xlink:href="#zoomPlus" x="17" y="9" onmousedown="handleZoom(evt,'in')"/>
                <use id="zoomminus" xlink:href="#zoomMin" x="42" y="9" onmousedown="handleZoom(evt,'out')"/>
                <use id="reset" xlink:href="#resetDef" x="30" y="36" onmousedown="handleReset()"/>
                <g id="arrowUp" xlink:href="#dirArrow" transform="translate(30 24)" onmousedown="handlePan(0,-1)">
                  <use xlink:href="#rim" fill="#404040">
                        <set attributeName="fill" to="#808080" begin="arrowUp.mouseover" end="arrowUp.mouseout"/>
                  </use>
                  <path fill="none" stroke="white" stroke-width="1.5" d="M0,-3.0v7 M-2.5,-0.5L0,-3.0L2.5,-0.5"/>
                </g>
                <g id="arrowRight" xlink:href="#dirArrow" transform="rotate(90) translate(36 -43)" onmousedown="handlePan(1,0)">
                  <use xlink:href="#rim" fill="#404040">
                        <set attributeName="fill" to="#808080" begin="arrowRight.mouseover" end="arrowRight.mouseout"/>
                  </use>
                  <path fill="none" stroke="white" stroke-width="1.5" d="M0,-3.0v7 M-2.5,-0.5L0,-3.0L2.5,-0.5"/>
                </g>
                <g id="arrowDown" xlink:href="#dirArrow" transform="rotate(180) translate(-30 -48)" onmousedown="handlePan(0,1)">
                  <use xlink:href="#rim" fill="#404040">
                        <set attributeName="fill" to="#808080" begin="arrowDown.mouseover" end="arrowDown.mouseout"/>
                  </use>
                  <path fill="none" stroke="white" stroke-width="1.5" d="M0,-3.0v7 M-2.5,-0.5L0,-3.0L2.5,-0.5"/>
                </g>
                <g id="arrowLeft" xlink:href="#dirArrow" transform="rotate(270) translate(-36 17)" onmousedown="handlePan(-1,0)">
                  <use xlink:href="#rim" fill="#404040">
                        <set attributeName="fill" to="#808080" begin="arrowLeft.mouseover" end="arrowLeft.mouseout"/>
                  </use>
                  <path fill="none" stroke="white" stroke-width="1.5" d="M0,-3.0v7 M-2.5,-0.5L0,-3.0L2.5,-0.5"/>
                </g>
        </g>
        <svg viewBox="0 0 15 15" width="100%" height="30px" preserveAspectRatio="xMaxYMin meet">
         <g id="arrow_out" transform="scale(0.3 0.3)">
          <a xlink:href="_widgets_8hpp__dep__incl_org.svg" target="_base">
           <rect id="button" ry="5" rx="5" y="6" x="6" height="38" width="38"
                fill="#f2f5e9" fill-opacity="0.5" stroke="#606060" stroke-width="1.0"/>
           <path id="arrow"
             d="M 11.500037,31.436501 C 11.940474,20.09759 22.043105,11.32322 32.158766,21.979434 L 37.068811,17.246167 C 37.068811,17.246167 37.088388,32 37.088388,32 L 22.160133,31.978069 C 22.160133,31.978069 26.997745,27.140456 26.997745,27.140456 C 18.528582,18.264221 13.291696,25.230495 11.500037,31.436501 z"
             style="fill:#404040;"/>
          </a>
         </g>
        </svg>
</svg>
