<?xml version="1.0" encoding="UTF-8" standalone="no"?>
<!DOCTYPE svg PUBLIC "-//W3C//DTD SVG 1.1//EN"
        "http://www.w3.org/Graphics/SVG/1.1/DTD/svg11.dtd">
<!-- Generated by graphviz version 2.40.1 (20161225.0304)
 -->
<!-- Title: mm::view::PatientExpander Pages: 1 -->
<svg width="146pt" height="154pt"
     viewBox="0.00 0.00 145.72 154.00" xmlns="http://www.w3.org/2000/svg" xmlns:xlink="http://www.w3.org/1999/xlink">
    <g id="graph0" class="graph" transform="scale(1 1) rotate(0) translate(4 150)">
        <title>mm::view::PatientExpander</title>
        <!-- Node0 -->
        <g id="node1" class="node">
            <title>Node0</title>
            <polygon fill="#bfbfbf" stroke="#000000" points="0,-.5 0,-54.5 137.7188,-54.5 137.7188,-.5 0,-.5"/>
            <text text-anchor="middle" x="68.8594" y="-42.5" font-family="Helvetica,sans-Serif" font-size="10.00"
                  fill="#000000">mm::view::PatientExpander
            </text>
            <polyline fill="none" stroke="#000000" points="0,-36.5 137.7188,-36.5 "/>
            <text text-anchor="middle" x="68.8594" y="-24.5" font-family="Helvetica,sans-Serif" font-size="10.00"
                  fill="#000000"></text>
            <polyline fill="none" stroke="#000000" points="0,-18.5 137.7188,-18.5 "/>
            <text text-anchor="start" x="8" y="-6.5" font-family="Helvetica,sans-Serif" font-size="10.00"
                  fill="#000000">+ PatientExpander()
            </text>
        </g>
        <!-- Node1 -->
        <g id="node2" class="node">
            <title>Node1</title>
            <polygon fill="none" stroke="#bfbfbf"
                     points="28.8989,-91.5 28.8989,-145.5 108.8198,-145.5 108.8198,-91.5 28.8989,-91.5"/>
            <text text-anchor="middle" x="68.8594" y="-133.5" font-family="Helvetica,sans-Serif" font-size="10.00"
                  fill="#000000">Gtk::Expander
            </text>
            <polyline fill="none" stroke="#bfbfbf" points="28.8989,-127.5 108.8198,-127.5 "/>
            <text text-anchor="middle" x="68.8594" y="-115.5" font-family="Helvetica,sans-Serif" font-size="10.00"
                  fill="#000000"></text>
            <polyline fill="none" stroke="#bfbfbf" points="28.8989,-109.5 108.8198,-109.5 "/>
            <text text-anchor="middle" x="68.8594" y="-97.5" font-family="Helvetica,sans-Serif" font-size="10.00"
                  fill="#000000"></text>
        </g>
        <!-- Node1&#45;&gt;Node0 -->
        <g id="edge1" class="edge">
            <title>Node1&#45;&gt;Node0</title>
            <path fill="none" stroke="#191970" d="M68.8594,-81.12C68.8594,-72.3006 68.8594,-63.0605 68.8594,-54.7837"/>
            <polygon fill="none" stroke="#191970"
                     points="65.3595,-81.197 68.8594,-91.197 72.3595,-81.197 65.3595,-81.197"/>
        </g>
    </g>
</svg>
