<?xml version="1.0" encoding="UTF-8" standalone="no"?>
<!DOCTYPE svg PUBLIC "-//W3C//DTD SVG 1.1//EN"
        "http://www.w3.org/Graphics/SVG/1.1/DTD/svg11.dtd">
<!-- Generated by graphviz version 2.40.1 (20161225.0304)
 -->
<!-- Title: code/utils/DateBy.hpp Pages: 1 -->
<svg width="193pt" height="137pt"
     viewBox="0.00 0.00 192.52 137.00" xmlns="http://www.w3.org/2000/svg" xmlns:xlink="http://www.w3.org/1999/xlink">
    <g id="graph0" class="graph" transform="scale(1 1) rotate(0) translate(4 133)">
        <title>code/utils/DateBy.hpp</title>
        <!-- Node0 -->
        <g id="node1" class="node">
            <title>Node0</title>
            <polygon fill="#bfbfbf" stroke="#000000"
                     points="27.9551,-110.5 27.9551,-128.5 140.498,-128.5 140.498,-110.5 27.9551,-110.5"/>
            <text text-anchor="middle" x="84.2266" y="-116.5" font-family="Helvetica,sans-Serif" font-size="10.00"
                  fill="#000000">code/utils/DateBy.hpp
            </text>
        </g>
        <!-- Node1 -->
        <g id="node2" class="node">
            <title>Node1</title>
            <polygon fill="none" stroke="#bfbfbf" points="0,-55.5 0,-73.5 40.4531,-73.5 40.4531,-55.5 0,-55.5"/>
            <text text-anchor="middle" x="20.2266" y="-61.5" font-family="Helvetica,sans-Serif" font-size="10.00"
                  fill="#000000">string
            </text>
        </g>
        <!-- Node0&#45;&gt;Node1 -->
        <g id="edge1" class="edge">
            <title>Node0&#45;&gt;Node1</title>
            <path fill="none" stroke="#191970"
                  d="M73.6583,-110.4179C64.1733,-102.2667 50.0391,-90.1201 38.6899,-80.3669"/>
            <polygon fill="#191970" stroke="#191970"
                     points="40.8899,-77.6427 31.0245,-73.7795 36.3275,-82.9516 40.8899,-77.6427"/>
        </g>
        <!-- Node2 -->
        <g id="node3" class="node">
            <title>Node2</title>
            <polygon fill="none" stroke="#bfbfbf"
                     points="58.165,-55.5 58.165,-73.5 110.2881,-73.5 110.2881,-55.5 58.165,-55.5"/>
            <text text-anchor="middle" x="84.2266" y="-61.5" font-family="Helvetica,sans-Serif" font-size="10.00"
                  fill="#000000">ostream
            </text>
        </g>
        <!-- Node0&#45;&gt;Node2 -->
        <g id="edge2" class="edge">
            <title>Node0&#45;&gt;Node2</title>
            <path fill="none" stroke="#191970"
                  d="M84.2266,-110.4179C84.2266,-103.2164 84.2266,-92.8962 84.2266,-83.8632"/>
            <polygon fill="#191970" stroke="#191970"
                     points="87.7267,-83.7794 84.2266,-73.7795 80.7267,-83.7795 87.7267,-83.7794"/>
        </g>
        <!-- Node3 -->
        <g id="node4" class="node">
            <title>Node3</title>
            <g id="a_node4">
                <a xlink:href="../../d8/d63/_date_8hpp.html" target="_top" xlink:title="Date.hpp">
                    <polygon fill="none" stroke="#000000"
                             points="127.9336,-55.5 127.9336,-73.5 184.5195,-73.5 184.5195,-55.5 127.9336,-55.5"/>
                    <text text-anchor="middle" x="156.2266" y="-61.5" font-family="Helvetica,sans-Serif"
                          font-size="10.00" fill="#000000">Date.hpp
                    </text>
                </a>
            </g>
        </g>
        <!-- Node0&#45;&gt;Node3 -->
        <g id="edge3" class="edge">
            <title>Node0&#45;&gt;Node3</title>
            <path fill="none" stroke="#191970"
                  d="M96.1159,-110.4179C106.8901,-102.1876 122.9967,-89.8839 135.8263,-80.0836"/>
            <polygon fill="#191970" stroke="#191970"
                     points="138.2568,-82.6313 144.0789,-73.7795 134.0075,-77.0685 138.2568,-82.6313"/>
        </g>
        <!-- Node4 -->
        <g id="node5" class="node">
            <title>Node4</title>
            <polygon fill="none" stroke="#bfbfbf"
                     points="129.0542,-.5 129.0542,-18.5 183.3989,-18.5 183.3989,-.5 129.0542,-.5"/>
            <text text-anchor="middle" x="156.2266" y="-6.5" font-family="Helvetica,sans-Serif" font-size="10.00"
                  fill="#000000">iostream
            </text>
        </g>
        <!-- Node3&#45;&gt;Node4 -->
        <g id="edge4" class="edge">
            <title>Node3&#45;&gt;Node4</title>
            <path fill="none" stroke="#191970"
                  d="M156.2266,-55.4179C156.2266,-48.2164 156.2266,-37.8962 156.2266,-28.8632"/>
            <polygon fill="#191970" stroke="#191970"
                     points="159.7267,-28.7794 156.2266,-18.7795 152.7267,-28.7795 159.7267,-28.7794"/>
        </g>
    </g>
</svg>
