<?xml version="1.0" encoding="UTF-8" standalone="no"?>
<!DOCTYPE svg PUBLIC "-//W3C//DTD SVG 1.1//EN"
        "http://www.w3.org/Graphics/SVG/1.1/DTD/svg11.dtd">
<!-- Generated by graphviz version 2.40.1 (20161225.0304)
 -->
<!-- Title: code/gui/LoginWindow.cpp Pages: 1 -->
<!--zoomable 302 -->
<svg id="main" version="1.1" xmlns="http://www.w3.org/2000/svg" xmlns:xlink="http://www.w3.org/1999/xlink" xml:space="preserve" onload="init(evt)">
<style type="text/css"><![CDATA[
.edge:hover path { stroke: red; }
.edge:hover polygon { stroke: red; fill: red; }
]]></style>
<script type="text/javascript"><![CDATA[
var edges = document.getElementsByTagName('g');
if (edges && edges.length) {
  for (var i=0;i<edges.length;i++) {
    if (edges[i].id.substr(0,4)=='edge') {
      edges[i].setAttribute('class','edge');
    }
  }
}
]]></script>
        <defs>
                <circle id="rim" cx="0" cy="0" r="7"/>
                <circle id="rim2" cx="0" cy="0" r="3.5"/>
                <g id="zoomPlus">
                        <use xlink:href="#rim" fill="#404040">
                                <set attributeName="fill" to="#808080" begin="zoomplus.mouseover" end="zoomplus.mouseout"/>
                        </use>
                        <path d="M-4,0h8M0,-4v8" fill="none" stroke="white" stroke-width="1.5" pointer-events="none"/>
                </g>
                <g id="zoomMin">
                        <use xlink:href="#rim" fill="#404040">
                                <set attributeName="fill" to="#808080" begin="zoomminus.mouseover" end="zoomminus.mouseout"/>
                        </use>
                        <path d="M-4,0h8" fill="none" stroke="white" stroke-width="1.5" pointer-events="none"/>
                </g>
                <g id="dirArrow">
                        <path fill="none" stroke="white" stroke-width="1.5" d="M0,-3.0v7 M-2.5,-0.5L0,-3.0L2.5,-0.5"/>
                </g>
               <g id="resetDef">
                       <use xlink:href="#rim2" fill="#404040">
                               <set attributeName="fill" to="#808080" begin="reset.mouseover" end="reset.mouseout"/>
                       </use>
               </g>
        </defs>

<script type="text/javascript">
var viewWidth = 876;
var viewHeight = 302;
var sectionId = 'dynsection-0';
</script>
<script xlink:href="../../svgpan.js"/>
<svg id="graph" class="graph">
<g id="viewport">
<title>code/gui/LoginWindow.cpp</title>
    <!-- Node0 -->
<g id="node1" class="node">
<title>Node0</title>
<polygon fill="#bfbfbf" stroke="#000000" points="173.8188,-275.5 173.8188,-293.5 308.7935,-293.5 308.7935,-275.5 173.8188,-275.5"/>
<text text-anchor="middle" x="241.3062" y="-281.5" font-family="Helvetica,sans-Serif" font-size="10.00" fill="#000000">code/gui/LoginWindow.cpp</text>
</g>
    <!-- Node1 -->
<g id="node2" class="node">
<title>Node1</title>
<polygon fill="none" stroke="#bfbfbf" points="0,-220.5 0,-238.5 78.6123,-238.5 78.6123,-220.5 0,-220.5"/>
<text text-anchor="middle" x="39.3062" y="-226.5" font-family="Helvetica,sans-Serif" font-size="10.00" fill="#000000">gtkmm/entry.h</text>
</g>
    <!-- Node0&#45;&gt;Node1 -->
<g id="edge1" class="edge">
<title>Node0&#45;&gt;Node1</title>
<path fill="none" stroke="#191970" d="M207.95,-275.4179C173.49,-266.0352 119.5868,-251.3586 82.028,-241.1322"/>
<polygon fill="#191970" stroke="#191970" points="82.9444,-237.7544 72.3762,-238.5042 81.1054,-244.5085 82.9444,-237.7544"/>
</g>
    <!-- Node2 -->
<g id="node3" class="node">
<title>Node2</title>
<polygon fill="none" stroke="#bfbfbf" points="96.2793,-220.5 96.2793,-238.5 182.333,-238.5 182.333,-220.5 96.2793,-220.5"/>
<text text-anchor="middle" x="139.3062" y="-226.5" font-family="Helvetica,sans-Serif" font-size="10.00" fill="#000000">spdlog/spdlog.h</text>
</g>
    <!-- Node0&#45;&gt;Node2 -->
<g id="edge2" class="edge">
<title>Node0&#45;&gt;Node2</title>
<path fill="none" stroke="#191970" d="M224.4629,-275.4179C208.2955,-266.7001 183.6524,-253.4122 165.0285,-243.3699"/>
<polygon fill="#191970" stroke="#191970" points="166.6375,-240.2611 156.1744,-238.5956 163.3152,-246.4225 166.6375,-240.2611"/>
</g>
    <!-- Node3 -->
<g id="node4" class="node">
<title>Node3</title>
<g id="a_node4"><a xlink:href="../../db/d18/_login_window_8hpp.html" target="_top" xlink:title="LoginWindow.hpp">
<polygon fill="none" stroke="#000000" points="299.8311,-220.5 299.8311,-238.5 394.7813,-238.5 394.7813,-220.5 299.8311,-220.5"/>
<text text-anchor="middle" x="347.3062" y="-226.5" font-family="Helvetica,sans-Serif" font-size="10.00" fill="#000000">LoginWindow.hpp</text>
</a>
</g>
</g>
    <!-- Node0&#45;&gt;Node3 -->
<g id="edge3" class="edge">
<title>Node0&#45;&gt;Node3</title>
<path fill="none" stroke="#191970" d="M258.8099,-275.4179C275.6881,-266.6603 301.4549,-253.2907 320.8398,-243.2326"/>
<polygon fill="#191970" stroke="#191970" points="322.5121,-246.308 329.7764,-238.5956 319.2881,-240.0946 322.5121,-246.308"/>
</g>
    <!-- Node10 -->
<g id="node11" class="node">
<title>Node10</title>
<g id="a_node11"><a xlink:href="../../dc/db8/_ref_builder_8hpp.html" target="_top" xlink:title="RefBuilder.hpp">
<polygon fill="none" stroke="#000000" points="200.5034,-220.5 200.5034,-238.5 282.1089,-238.5 282.1089,-220.5 200.5034,-220.5"/>
<text text-anchor="middle" x="241.3062" y="-226.5" font-family="Helvetica,sans-Serif" font-size="10.00" fill="#000000">RefBuilder.hpp</text>
</a>
</g>
</g>
    <!-- Node0&#45;&gt;Node10 -->
<g id="edge10" class="edge">
<title>Node0&#45;&gt;Node10</title>
<path fill="none" stroke="#191970" d="M241.3062,-275.4179C241.3062,-268.2164 241.3062,-257.8962 241.3062,-248.8632"/>
<polygon fill="#191970" stroke="#191970" points="244.8063,-248.7794 241.3062,-238.7795 237.8063,-248.7795 244.8063,-248.7794"/>
</g>
    <!-- Node12 -->
<g id="node13" class="node">
<title>Node12</title>
<g id="a_node13"><a xlink:href="../../dc/d00/_authentication_8hpp.html" target="_top" xlink:title="../model/Authentication.hpp">
<polygon fill="none" stroke="#000000" points="412.7104,-220.5 412.7104,-238.5 549.9019,-238.5 549.9019,-220.5 412.7104,-220.5"/>
<text text-anchor="middle" x="481.3062" y="-226.5" font-family="Helvetica,sans-Serif" font-size="10.00" fill="#000000">../model/Authentication.hpp</text>
</a>
</g>
</g>
    <!-- Node0&#45;&gt;Node12 -->
<g id="edge12" class="edge">
<title>Node0&#45;&gt;Node12</title>
<path fill="none" stroke="#191970" d="M280.6685,-275.4795C322.0855,-265.9881 387.3549,-251.0305 432.1333,-240.7688"/>
<polygon fill="#191970" stroke="#191970" points="432.9568,-244.1709 441.9223,-238.5255 431.3931,-237.3477 432.9568,-244.1709"/>
</g>
    <!-- Node4 -->
<g id="node5" class="node">
<title>Node4</title>
<g id="a_node5"><a xlink:href="../../de/d0b/_window_8hpp.html" target="_top" xlink:title="Window.hpp">
<polygon fill="none" stroke="#000000" points="312.0649,-165.5 312.0649,-183.5 382.5474,-183.5 382.5474,-165.5 312.0649,-165.5"/>
<text text-anchor="middle" x="347.3062" y="-171.5" font-family="Helvetica,sans-Serif" font-size="10.00" fill="#000000">Window.hpp</text>
</a>
</g>
</g>
    <!-- Node3&#45;&gt;Node4 -->
<g id="edge4" class="edge">
<title>Node3&#45;&gt;Node4</title>
<path fill="none" stroke="#191970" d="M347.3062,-220.4179C347.3062,-213.2164 347.3062,-202.8962 347.3062,-193.8632"/>
<polygon fill="#191970" stroke="#191970" points="350.8063,-193.7794 347.3062,-183.7795 343.8063,-193.7795 350.8063,-193.7794"/>
</g>
    <!-- Node5 -->
<g id="node6" class="node">
<title>Node5</title>
<g id="a_node6"><a xlink:href="../../d1/d25/_i_subject_8hpp.html" target="_top" xlink:title="../interfaces/ISubject.hpp">
<polygon fill="none" stroke="#000000" points="316.2744,-110.5 316.2744,-128.5 442.3379,-128.5 442.3379,-110.5 316.2744,-110.5"/>
<text text-anchor="middle" x="379.3062" y="-116.5" font-family="Helvetica,sans-Serif" font-size="10.00" fill="#000000">../interfaces/ISubject.hpp</text>
</a>
</g>
</g>
    <!-- Node4&#45;&gt;Node5 -->
<g id="edge5" class="edge">
<title>Node4&#45;&gt;Node5</title>
<path fill="none" stroke="#191970" d="M352.5903,-165.4179C356.9644,-157.8998 363.3161,-146.9829 368.7288,-137.6799"/>
<polygon fill="#191970" stroke="#191970" points="371.9034,-139.1831 373.9072,-128.7795 365.853,-135.6628 371.9034,-139.1831"/>
</g>
    <!-- Node6 -->
<g id="node7" class="node">
<title>Node6</title>
<polygon fill="none" stroke="#bfbfbf" points="400.6362,-55.5 400.6362,-73.5 429.9761,-73.5 429.9761,-55.5 400.6362,-55.5"/>
<text text-anchor="middle" x="415.3062" y="-61.5" font-family="Helvetica,sans-Serif" font-size="10.00" fill="#000000">set</text>
</g>
    <!-- Node5&#45;&gt;Node6 -->
<g id="edge6" class="edge">
<title>Node5&#45;&gt;Node6</title>
<path fill="none" stroke="#191970" d="M385.2508,-110.4179C390.2235,-102.8207 397.468,-91.7527 403.5986,-82.3866"/>
<polygon fill="#191970" stroke="#191970" points="406.6842,-84.0633 409.2323,-73.7795 400.8272,-80.2297 406.6842,-84.0633"/>
</g>
    <!-- Node7 -->
<g id="node8" class="node">
<title>Node7</title>
<g id="a_node8"><a xlink:href="../../d5/d40/_i_observer_8hpp.html" target="_top" xlink:title="IObserver.hpp">
<polygon fill="none" stroke="#000000" points="303.8975,-55.5 303.8975,-73.5 382.7148,-73.5 382.7148,-55.5 303.8975,-55.5"/>
<text text-anchor="middle" x="343.3062" y="-61.5" font-family="Helvetica,sans-Serif" font-size="10.00" fill="#000000">IObserver.hpp</text>
</a>
</g>
</g>
    <!-- Node5&#45;&gt;Node7 -->
<g id="edge7" class="edge">
<title>Node5&#45;&gt;Node7</title>
<path fill="none" stroke="#191970" d="M373.3615,-110.4179C368.3888,-102.8207 361.1443,-91.7527 355.0138,-82.3866"/>
<polygon fill="#191970" stroke="#191970" points="357.7851,-80.2297 349.38,-73.7795 351.9282,-84.0633 357.7851,-80.2297"/>
</g>
    <!-- Node8 -->
<g id="node9" class="node">
<title>Node8</title>
<polygon fill="none" stroke="#bfbfbf" points="290.6904,-.5 290.6904,-18.5 333.9219,-18.5 333.9219,-.5 290.6904,-.5"/>
<text text-anchor="middle" x="312.3062" y="-6.5" font-family="Helvetica,sans-Serif" font-size="10.00" fill="#000000">mutex</text>
</g>
    <!-- Node7&#45;&gt;Node8 -->
<g id="edge8" class="edge">
<title>Node7&#45;&gt;Node8</title>
<path fill="none" stroke="#191970" d="M338.1871,-55.4179C333.9497,-47.8998 327.7965,-36.9829 322.553,-27.6799"/>
<polygon fill="#191970" stroke="#191970" points="325.4956,-25.7724 317.5364,-18.7795 319.3975,-29.2096 325.4956,-25.7724"/>
</g>
    <!-- Node9 -->
<g id="node10" class="node">
<title>Node9</title>
<polygon fill="none" stroke="#bfbfbf" points="352.1289,-.5 352.1289,-18.5 396.4834,-18.5 396.4834,-.5 352.1289,-.5"/>
<text text-anchor="middle" x="374.3062" y="-6.5" font-family="Helvetica,sans-Serif" font-size="10.00" fill="#000000">thread</text>
</g>
    <!-- Node7&#45;&gt;Node9 -->
<g id="edge9" class="edge">
<title>Node7&#45;&gt;Node9</title>
<path fill="none" stroke="#191970" d="M348.4252,-55.4179C352.6626,-47.8998 358.8158,-36.9829 364.0593,-27.6799"/>
<polygon fill="#191970" stroke="#191970" points="367.2148,-29.2096 369.0759,-18.7795 361.1167,-25.7724 367.2148,-29.2096"/>
</g>
    <!-- Node11 -->
<g id="node12" class="node">
<title>Node11</title>
<polygon fill="none" stroke="#bfbfbf" points="189.1313,-165.5 189.1313,-183.5 293.481,-183.5 293.481,-165.5 189.1313,-165.5"/>
<text text-anchor="middle" x="241.3062" y="-171.5" font-family="Helvetica,sans-Serif" font-size="10.00" fill="#000000">gtkmm&#45;3.0/gtkmm.h</text>
</g>
    <!-- Node10&#45;&gt;Node11 -->
<g id="edge11" class="edge">
<title>Node10&#45;&gt;Node11</title>
<path fill="none" stroke="#191970" d="M241.3062,-220.4179C241.3062,-213.2164 241.3062,-202.8962 241.3062,-193.8632"/>
<polygon fill="#191970" stroke="#191970" points="244.8063,-193.7794 241.3062,-183.7795 237.8063,-193.7795 244.8063,-193.7794"/>
</g>
    <!-- Node12&#45;&gt;Node5 -->
<g id="edge22" class="edge">
<title>Node12&#45;&gt;Node5</title>
<path fill="none" stroke="#191970" d="M469.5761,-220.3303C458.642,-211.5361 442.1398,-197.6195 429.3062,-184 415.2534,-169.0867 401.1207,-150.4379 391.4834,-137.0341"/>
<polygon fill="#191970" stroke="#191970" points="394.2203,-134.8426 385.5859,-128.7028 388.5069,-138.887 394.2203,-134.8426"/>
</g>
    <!-- Node13 -->
<g id="node14" class="node">
<title>Node13</title>
<g id="a_node14"><a xlink:href="../../d7/d0f/_d_b_master_8hpp.html" target="_top" xlink:title="../DBMaster.hpp">
<polygon fill="none" stroke="#000000" points="612.4541,-165.5 612.4541,-183.5 700.1582,-183.5 700.1582,-165.5 612.4541,-165.5"/>
<text text-anchor="middle" x="656.3062" y="-171.5" font-family="Helvetica,sans-Serif" font-size="10.00" fill="#000000">../DBMaster.hpp</text>
</a>
</g>
</g>
    <!-- Node12&#45;&gt;Node13 -->
<g id="edge13" class="edge">
<title>Node12&#45;&gt;Node13</title>
<path fill="none" stroke="#191970" d="M510.2038,-220.4179C539.6767,-211.155 585.5665,-196.7325 618.0416,-186.526"/>
<polygon fill="#191970" stroke="#191970" points="619.1659,-189.8415 627.6564,-183.5042 617.067,-183.1636 619.1659,-189.8415"/>
</g>
    <!-- Node17 -->
<g id="node18" class="node">
<title>Node17</title>
<polygon fill="none" stroke="#bfbfbf" points="520.6904,-55.5 520.6904,-73.5 563.9219,-73.5 563.9219,-55.5 520.6904,-55.5"/>
<text text-anchor="middle" x="542.3062" y="-61.5" font-family="Helvetica,sans-Serif" font-size="10.00" fill="#000000">vector</text>
</g>
    <!-- Node12&#45;&gt;Node17 -->
<g id="edge23" class="edge">
<title>Node12&#45;&gt;Node17</title>
<path fill="none" stroke="#191970" d="M484.7606,-220.1561C494.4907,-193.837 522.2653,-118.709 535.3401,-83.3426"/>
<polygon fill="#191970" stroke="#191970" points="538.7048,-84.3346 538.8896,-73.7414 532.1391,-81.9073 538.7048,-84.3346"/>
</g>
    <!-- Node20 -->
<g id="node21" class="node">
<title>Node20</title>
<polygon fill="none" stroke="#bfbfbf" points="438.4639,-165.5 438.4639,-183.5 476.1484,-183.5 476.1484,-165.5 438.4639,-165.5"/>
<text text-anchor="middle" x="457.3062" y="-171.5" font-family="Helvetica,sans-Serif" font-size="10.00" fill="#000000">tuple</text>
</g>
    <!-- Node12&#45;&gt;Node20 -->
<g id="edge24" class="edge">
<title>Node12&#45;&gt;Node20</title>
<path fill="none" stroke="#191970" d="M477.343,-220.4179C474.097,-212.9789 469.3988,-202.2123 465.3676,-192.9742"/>
<polygon fill="#191970" stroke="#191970" points="468.5628,-191.545 461.3554,-183.7795 462.147,-194.3447 468.5628,-191.545"/>
</g>
    <!-- Node14 -->
<g id="node15" class="node">
<title>Node14</title>
<polygon fill="none" stroke="#bfbfbf" points="800.6831,-110.5 800.6831,-128.5 853.9292,-128.5 853.9292,-110.5 800.6831,-110.5"/>
<text text-anchor="middle" x="827.3062" y="-116.5" font-family="Helvetica,sans-Serif" font-size="10.00" fill="#000000">sqlite3.h</text>
</g>
    <!-- Node13&#45;&gt;Node14 -->
<g id="edge14" class="edge">
<title>Node13&#45;&gt;Node14</title>
<path fill="none" stroke="#191970" d="M684.5433,-165.4179C713.5608,-156.0848 758.864,-141.5136 790.6354,-131.2947"/>
<polygon fill="#191970" stroke="#191970" points="791.9895,-134.5358 800.4375,-128.142 789.8461,-127.872 791.9895,-134.5358"/>
</g>
    <!-- Node15 -->
<g id="node16" class="node">
<title>Node15</title>
<polygon fill="none" stroke="#bfbfbf" points="806.0796,-55.5 806.0796,-73.5 846.5327,-73.5 846.5327,-55.5 806.0796,-55.5"/>
<text text-anchor="middle" x="826.3062" y="-61.5" font-family="Helvetica,sans-Serif" font-size="10.00" fill="#000000">string</text>
</g>
    <!-- Node13&#45;&gt;Node15 -->
<g id="edge15" class="edge">
<title>Node13&#45;&gt;Node15</title>
<path fill="none" stroke="#191970" d="M700.2407,-171.1646C754.8267,-166.0019 843.2466,-153.9476 863.3062,-129 875.5237,-113.8052 860.4472,-94.0894 846.0293,-80.4757"/>
<polygon fill="#191970" stroke="#191970" points="848.0739,-77.6115 838.2646,-73.6079 843.4362,-82.8548 848.0739,-77.6115"/>
</g>
    <!-- Node16 -->
<g id="node17" class="node">
<title>Node16</title>
<polygon fill="none" stroke="#bfbfbf" points="569.9048,-110.5 569.9048,-128.5 628.7075,-128.5 628.7075,-110.5 569.9048,-110.5"/>
<text text-anchor="middle" x="599.3062" y="-116.5" font-family="Helvetica,sans-Serif" font-size="10.00" fill="#000000">stdexcept</text>
</g>
    <!-- Node13&#45;&gt;Node16 -->
<g id="edge16" class="edge">
<title>Node13&#45;&gt;Node16</title>
<path fill="none" stroke="#191970" d="M646.8938,-165.4179C638.6102,-157.425 626.3452,-145.5903 616.3416,-135.9377"/>
<polygon fill="#191970" stroke="#191970" points="618.5496,-133.2045 608.923,-128.7795 613.689,-138.2419 618.5496,-133.2045"/>
</g>
    <!-- Node13&#45;&gt;Node17 -->
<g id="edge17" class="edge">
<title>Node13&#45;&gt;Node17</title>
<path fill="none" stroke="#191970" d="M621.1195,-165.4383C600.9747,-158.5518 576.7175,-147.1014 561.3062,-129 550.5578,-116.3755 545.8876,-97.9054 543.8595,-83.9621"/>
<polygon fill="#191970" stroke="#191970" points="547.3292,-83.4949 542.7339,-73.9485 540.373,-84.2769 547.3292,-83.4949"/>
</g>
    <!-- Node18 -->
<g id="node19" class="node">
<title>Node18</title>
<g id="a_node19"><a xlink:href="../../d3/d1b/_i_serializable_8hpp.html" target="_top" xlink:title="interfaces/ISerializable.hpp">
<polygon fill="none" stroke="#000000" points="646.272,-110.5 646.272,-128.5 782.3403,-128.5 782.3403,-110.5 646.272,-110.5"/>
<text text-anchor="middle" x="714.3062" y="-116.5" font-family="Helvetica,sans-Serif" font-size="10.00" fill="#000000">interfaces/ISerializable.hpp</text>
</a>
</g>
</g>
    <!-- Node13&#45;&gt;Node18 -->
<g id="edge18" class="edge">
<title>Node13&#45;&gt;Node18</title>
<path fill="none" stroke="#191970" d="M665.8837,-165.4179C674.3125,-157.425 686.7927,-145.5903 696.9718,-135.9377"/>
<polygon fill="#191970" stroke="#191970" points="699.6726,-138.2001 704.5205,-128.7795 694.8559,-133.1207 699.6726,-138.2001"/>
</g>
    <!-- Node18&#45;&gt;Node15 -->
<g id="edge19" class="edge">
<title>Node18&#45;&gt;Node15</title>
<path fill="none" stroke="#191970" d="M732.8007,-110.4179C750.7153,-101.6205 778.1073,-88.1691 798.6206,-78.0956"/>
<polygon fill="#191970" stroke="#191970" points="800.3508,-81.1452 807.7842,-73.5956 797.2653,-74.8619 800.3508,-81.1452"/>
</g>
    <!-- Node18&#45;&gt;Node17 -->
<g id="edge21" class="edge">
<title>Node18&#45;&gt;Node17</title>
<path fill="none" stroke="#191970" d="M685.9039,-110.4179C654.9948,-100.5341 605.7148,-84.776 573.6835,-74.5334"/>
<polygon fill="#191970" stroke="#191970" points="574.5259,-71.1283 563.9349,-71.4162 572.3938,-77.7957 574.5259,-71.1283"/>
</g>
    <!-- Node19 -->
<g id="node20" class="node">
<title>Node19</title>
<polygon fill="none" stroke="#bfbfbf" points="696.5796,-55.5 696.5796,-73.5 732.0327,-73.5 732.0327,-55.5 696.5796,-55.5"/>
<text text-anchor="middle" x="714.3062" y="-61.5" font-family="Helvetica,sans-Serif" font-size="10.00" fill="#000000">map</text>
</g>
    <!-- Node18&#45;&gt;Node19 -->
<g id="edge20" class="edge">
<title>Node18&#45;&gt;Node19</title>
<path fill="none" stroke="#191970" d="M714.3062,-110.4179C714.3062,-103.2164 714.3062,-92.8962 714.3062,-83.8632"/>
<polygon fill="#191970" stroke="#191970" points="717.8063,-83.7794 714.3062,-73.7795 710.8063,-83.7795 717.8063,-83.7794"/>
</g>
</g>
</svg>
        <g id="navigator" transform="translate(0 0)" fill="#404254">
                <rect fill="#f2f5e9" fill-opacity="0.5" stroke="#606060" stroke-width=".5" x="0" y="0" width="60" height="60"/>
                <use id="zoomplus" xlink:href="#zoomPlus" x="17" y="9" onmousedown="handleZoom(evt,'in')"/>
                <use id="zoomminus" xlink:href="#zoomMin" x="42" y="9" onmousedown="handleZoom(evt,'out')"/>
                <use id="reset" xlink:href="#resetDef" x="30" y="36" onmousedown="handleReset()"/>
                <g id="arrowUp" xlink:href="#dirArrow" transform="translate(30 24)" onmousedown="handlePan(0,-1)">
                  <use xlink:href="#rim" fill="#404040">
                        <set attributeName="fill" to="#808080" begin="arrowUp.mouseover" end="arrowUp.mouseout"/>
                  </use>
                  <path fill="none" stroke="white" stroke-width="1.5" d="M0,-3.0v7 M-2.5,-0.5L0,-3.0L2.5,-0.5"/>
                </g>
                <g id="arrowRight" xlink:href="#dirArrow" transform="rotate(90) translate(36 -43)" onmousedown="handlePan(1,0)">
                  <use xlink:href="#rim" fill="#404040">
                        <set attributeName="fill" to="#808080" begin="arrowRight.mouseover" end="arrowRight.mouseout"/>
                  </use>
                  <path fill="none" stroke="white" stroke-width="1.5" d="M0,-3.0v7 M-2.5,-0.5L0,-3.0L2.5,-0.5"/>
                </g>
                <g id="arrowDown" xlink:href="#dirArrow" transform="rotate(180) translate(-30 -48)" onmousedown="handlePan(0,1)">
                  <use xlink:href="#rim" fill="#404040">
                        <set attributeName="fill" to="#808080" begin="arrowDown.mouseover" end="arrowDown.mouseout"/>
                  </use>
                  <path fill="none" stroke="white" stroke-width="1.5" d="M0,-3.0v7 M-2.5,-0.5L0,-3.0L2.5,-0.5"/>
                </g>
                <g id="arrowLeft" xlink:href="#dirArrow" transform="rotate(270) translate(-36 17)" onmousedown="handlePan(-1,0)">
                  <use xlink:href="#rim" fill="#404040">
                        <set attributeName="fill" to="#808080" begin="arrowLeft.mouseover" end="arrowLeft.mouseout"/>
                  </use>
                  <path fill="none" stroke="white" stroke-width="1.5" d="M0,-3.0v7 M-2.5,-0.5L0,-3.0L2.5,-0.5"/>
                </g>
        </g>
        <svg viewBox="0 0 15 15" width="100%" height="30px" preserveAspectRatio="xMaxYMin meet">
         <g id="arrow_out" transform="scale(0.3 0.3)">
          <a xlink:href="_login_window_8cpp__incl_org.svg" target="_base">
           <rect id="button" ry="5" rx="5" y="6" x="6" height="38" width="38"
                fill="#f2f5e9" fill-opacity="0.5" stroke="#606060" stroke-width="1.0"/>
           <path id="arrow"
             d="M 11.500037,31.436501 C 11.940474,20.09759 22.043105,11.32322 32.158766,21.979434 L 37.068811,17.246167 C 37.068811,17.246167 37.088388,32 37.088388,32 L 22.160133,31.978069 C 22.160133,31.978069 26.997745,27.140456 26.997745,27.140456 C 18.528582,18.264221 13.291696,25.230495 11.500037,31.436501 z"
             style="fill:#404040;"/>
          </a>
         </g>
        </svg>
</svg>
