<?xml version="1.0" encoding="UTF-8" standalone="no"?>
<!DOCTYPE svg PUBLIC "-//W3C//DTD SVG 1.1//EN"
        "http://www.w3.org/Graphics/SVG/1.1/DTD/svg11.dtd">
<!-- Generated by graphviz version 2.40.1 (20161225.0304)
 -->
<!-- Title: code/gui/LoginWindow.cpp Pages: 1 -->
<!--zoomable 302 -->
<svg id="main" version="1.1" xmlns="http://www.w3.org/2000/svg" xmlns:xlink="http://www.w3.org/1999/xlink" xml:space="preserve" onload="initDrugComboBox(evt)">
<style type="text/css"><![CDATA[
.edge:hover path { stroke: red; }
.edge:hover polygon { stroke: red; fill: red; }
]]></style>
<script type="text/javascript"><![CDATA[
var edges = document.getElementsByTagName('g');
if (edges && edges.length) {
  for (var i=0;i<edges.length;i++) {
    if (edges[i].id.substr(0,4)=='edge') {
      edges[i].setAttribute('class','edge');
    }
  }
}
]]></script>
        <defs>
                <circle id="rim" cx="0" cy="0" r="7"/>
                <circle id="rim2" cx="0" cy="0" r="3.5"/>
                <g id="zoomPlus">
                        <use xlink:href="#rim" fill="#404040">
                                <set attributeName="fill" to="#808080" begin="zoomplus.mouseover" end="zoomplus.mouseout"/>
                        </use>
                        <path d="M-4,0h8M0,-4v8" fill="none" stroke="white" stroke-width="1.5" pointer-events="none"/>
                </g>
                <g id="zoomMin">
                        <use xlink:href="#rim" fill="#404040">
                                <set attributeName="fill" to="#808080" begin="zoomminus.mouseover" end="zoomminus.mouseout"/>
                        </use>
                        <path d="M-4,0h8" fill="none" stroke="white" stroke-width="1.5" pointer-events="none"/>
                </g>
                <g id="dirArrow">
                        <path fill="none" stroke="white" stroke-width="1.5" d="M0,-3.0v7 M-2.5,-0.5L0,-3.0L2.5,-0.5"/>
                </g>
               <g id="resetDef">
                       <use xlink:href="#rim2" fill="#404040">
                               <set attributeName="fill" to="#808080" begin="reset.mouseover" end="reset.mouseout"/>
                       </use>
               </g>
        </defs>

<script type="text/javascript">
var viewWidth = 748;
var viewHeight = 302;
var sectionId = 'dynsection-0';
</script>
<script xlink:href="../../svgpan.js"/>
<svg id="graph" class="graph">
<g id="viewport">
<title>code/gui/LoginWindow.cpp</title>
    <!-- Node0 -->
<g id="node1" class="node">
<title>Node0</title>
<polygon fill="#bfbfbf" stroke="#000000" points="180.8188,-275.5 180.8188,-293.5 315.7935,-293.5 315.7935,-275.5 180.8188,-275.5"/>
<text text-anchor="middle" x="248.3062" y="-281.5" font-family="Helvetica,sans-Serif" font-size="10.00" fill="#000000">code/gui/LoginWindow.cpp</text>
</g>
    <!-- Node1 -->
<g id="node2" class="node">
<title>Node1</title>
<polygon fill="none" stroke="#bfbfbf" points="0,-220.5 0,-238.5 78.6123,-238.5 78.6123,-220.5 0,-220.5"/>
<text text-anchor="middle" x="39.3062" y="-226.5" font-family="Helvetica,sans-Serif" font-size="10.00" fill="#000000">gtkmm/entry.h</text>
</g>
    <!-- Node0&#45;&gt;Node1 -->
<g id="edge1" class="edge">
<title>Node0&#45;&gt;Node1</title>
<path fill="none" stroke="#191970" d="M213.7941,-275.4179C178.1399,-266.0352 122.3688,-251.3586 83.5085,-241.1322"/>
<polygon fill="#191970" stroke="#191970" points="84.0837,-237.6645 73.5222,-238.5042 82.3021,-244.434 84.0837,-237.6645"/>
</g>
    <!-- Node2 -->
<g id="node3" class="node">
<title>Node2</title>
<polygon fill="none" stroke="#bfbfbf" points="96.2793,-220.5 96.2793,-238.5 182.333,-238.5 182.333,-220.5 96.2793,-220.5"/>
<text text-anchor="middle" x="139.3062" y="-226.5" font-family="Helvetica,sans-Serif" font-size="10.00" fill="#000000">spdlog/spdlog.h</text>
</g>
    <!-- Node0&#45;&gt;Node2 -->
<g id="edge2" class="edge">
<title>Node0&#45;&gt;Node2</title>
<path fill="none" stroke="#191970" d="M230.307,-275.4179C212.9511,-266.6603 186.4551,-253.2907 166.5216,-243.2326"/>
<polygon fill="#191970" stroke="#191970" points="167.8366,-239.9758 157.332,-238.5956 164.6831,-246.2253 167.8366,-239.9758"/>
</g>
    <!-- Node3 -->
<g id="node4" class="node">
<title>Node3</title>
<g id="a_node4"><a xlink:href="../../db/d18/_login_window_8hpp.html" target="_top" xlink:title="LoginWindow.hpp">
<polygon fill="none" stroke="#000000" points="200.8311,-220.5 200.8311,-238.5 295.7813,-238.5 295.7813,-220.5 200.8311,-220.5"/>
<text text-anchor="middle" x="248.3062" y="-226.5" font-family="Helvetica,sans-Serif" font-size="10.00" fill="#000000">LoginWindow.hpp</text>
</a>
</g>
</g>
    <!-- Node0&#45;&gt;Node3 -->
<g id="edge3" class="edge">
<title>Node0&#45;&gt;Node3</title>
<path fill="none" stroke="#191970" d="M248.3062,-275.4179C248.3062,-268.2164 248.3062,-257.8962 248.3062,-248.8632"/>
<polygon fill="#191970" stroke="#191970" points="251.8063,-248.7794 248.3062,-238.7795 244.8063,-248.7795 251.8063,-248.7794"/>
</g>
    <!-- Node10 -->
<g id="node11" class="node">
<title>Node10</title>
<g id="a_node11"><a xlink:href="../../dc/db8/_ref_builder_8hpp.html" target="_top" xlink:title="RefBuilder.hpp">
<polygon fill="none" stroke="#000000" points="313.5034,-220.5 313.5034,-238.5 395.1089,-238.5 395.1089,-220.5 313.5034,-220.5"/>
<text text-anchor="middle" x="354.3062" y="-226.5" font-family="Helvetica,sans-Serif" font-size="10.00" fill="#000000">RefBuilder.hpp</text>
</a>
</g>
</g>
    <!-- Node0&#45;&gt;Node10 -->
<g id="edge10" class="edge">
<title>Node0&#45;&gt;Node10</title>
<path fill="none" stroke="#191970" d="M265.8099,-275.4179C282.6881,-266.6603 308.4549,-253.2907 327.8398,-243.2326"/>
<polygon fill="#191970" stroke="#191970" points="329.5121,-246.308 336.7764,-238.5956 326.2881,-240.0946 329.5121,-246.308"/>
</g>
    <!-- Node12 -->
<g id="node13" class="node">
<title>Node12</title>
<g id="a_node13"><a xlink:href="../../dc/d00/_authentication_8hpp.html" target="_top" xlink:title="../model/Authentication.hpp">
<polygon fill="none" stroke="#000000" points="436.7104,-220.5 436.7104,-238.5 573.9019,-238.5 573.9019,-220.5 436.7104,-220.5"/>
<text text-anchor="middle" x="505.3062" y="-226.5" font-family="Helvetica,sans-Serif" font-size="10.00" fill="#000000">../model/Authentication.hpp</text>
</a>
</g>
</g>
    <!-- Node0&#45;&gt;Node12 -->
<g id="edge12" class="edge">
<title>Node0&#45;&gt;Node12</title>
<path fill="none" stroke="#191970" d="M290.4567,-275.4795C334.9937,-265.9482 405.2879,-250.9047 453.2535,-240.6397"/>
<polygon fill="#191970" stroke="#191970" points="454.0865,-244.0407 463.1326,-238.5255 452.6215,-237.1957 454.0865,-244.0407"/>
</g>
    <!-- Node4 -->
<g id="node5" class="node">
<title>Node4</title>
<g id="a_node5"><a xlink:href="../../de/d0b/_window_8hpp.html" target="_top" xlink:title="Window.hpp">
<polygon fill="none" stroke="#000000" points="213.0649,-165.5 213.0649,-183.5 283.5474,-183.5 283.5474,-165.5 213.0649,-165.5"/>
<text text-anchor="middle" x="248.3062" y="-171.5" font-family="Helvetica,sans-Serif" font-size="10.00" fill="#000000">Window.hpp</text>
</a>
</g>
</g>
    <!-- Node3&#45;&gt;Node4 -->
<g id="edge4" class="edge">
<title>Node3&#45;&gt;Node4</title>
<path fill="none" stroke="#191970" d="M248.3062,-220.4179C248.3062,-213.2164 248.3062,-202.8962 248.3062,-193.8632"/>
<polygon fill="#191970" stroke="#191970" points="251.8063,-193.7794 248.3062,-183.7795 244.8063,-193.7795 251.8063,-193.7794"/>
</g>
    <!-- Node5 -->
<g id="node6" class="node">
<title>Node5</title>
<g id="a_node6"><a xlink:href="../../d1/d25/_i_subject_8hpp.html" target="_top" xlink:title="../interfaces/ISubject.hpp">
<polygon fill="none" stroke="#000000" points="203.2744,-110.5 203.2744,-128.5 329.3379,-128.5 329.3379,-110.5 203.2744,-110.5"/>
<text text-anchor="middle" x="266.3062" y="-116.5" font-family="Helvetica,sans-Serif" font-size="10.00" fill="#000000">../interfaces/ISubject.hpp</text>
</a>
</g>
</g>
    <!-- Node4&#45;&gt;Node5 -->
<g id="edge5" class="edge">
<title>Node4&#45;&gt;Node5</title>
<path fill="none" stroke="#191970" d="M251.2785,-165.4179C253.6612,-158.1372 257.0872,-147.669 260.0664,-138.5659"/>
<polygon fill="#191970" stroke="#191970" points="263.4852,-139.3721 263.2692,-128.7795 256.8324,-137.1948 263.4852,-139.3721"/>
</g>
    <!-- Node6 -->
<g id="node7" class="node">
<title>Node6</title>
<polygon fill="none" stroke="#bfbfbf" points="215.6362,-55.5 215.6362,-73.5 244.9761,-73.5 244.9761,-55.5 215.6362,-55.5"/>
<text text-anchor="middle" x="230.3062" y="-61.5" font-family="Helvetica,sans-Serif" font-size="10.00" fill="#000000">set</text>
</g>
    <!-- Node5&#45;&gt;Node6 -->
<g id="edge6" class="edge">
<title>Node5&#45;&gt;Node6</title>
<path fill="none" stroke="#191970" d="M260.3615,-110.4179C255.3888,-102.8207 248.1443,-91.7527 242.0138,-82.3866"/>
<polygon fill="#191970" stroke="#191970" points="244.7851,-80.2297 236.38,-73.7795 238.9282,-84.0633 244.7851,-80.2297"/>
</g>
    <!-- Node7 -->
<g id="node8" class="node">
<title>Node7</title>
<g id="a_node8"><a xlink:href="../../d5/d40/_i_observer_8hpp.html" target="_top" xlink:title="IObserver.hpp">
<polygon fill="none" stroke="#000000" points="262.8975,-55.5 262.8975,-73.5 341.7148,-73.5 341.7148,-55.5 262.8975,-55.5"/>
<text text-anchor="middle" x="302.3062" y="-61.5" font-family="Helvetica,sans-Serif" font-size="10.00" fill="#000000">IObserver.hpp</text>
</a>
</g>
</g>
    <!-- Node5&#45;&gt;Node7 -->
<g id="edge7" class="edge">
<title>Node5&#45;&gt;Node7</title>
<path fill="none" stroke="#191970" d="M272.2508,-110.4179C277.2235,-102.8207 284.468,-91.7527 290.5986,-82.3866"/>
<polygon fill="#191970" stroke="#191970" points="293.6842,-84.0633 296.2323,-73.7795 287.8272,-80.2297 293.6842,-84.0633"/>
</g>
    <!-- Node8 -->
<g id="node9" class="node">
<title>Node8</title>
<polygon fill="none" stroke="#bfbfbf" points="249.6904,-.5 249.6904,-18.5 292.9219,-18.5 292.9219,-.5 249.6904,-.5"/>
<text text-anchor="middle" x="271.3062" y="-6.5" font-family="Helvetica,sans-Serif" font-size="10.00" fill="#000000">mutex</text>
</g>
    <!-- Node7&#45;&gt;Node8 -->
<g id="edge8" class="edge">
<title>Node7&#45;&gt;Node8</title>
<path fill="none" stroke="#191970" d="M297.1871,-55.4179C292.9497,-47.8998 286.7965,-36.9829 281.553,-27.6799"/>
<polygon fill="#191970" stroke="#191970" points="284.4956,-25.7724 276.5364,-18.7795 278.3975,-29.2096 284.4956,-25.7724"/>
</g>
    <!-- Node9 -->
<g id="node10" class="node">
<title>Node9</title>
<polygon fill="none" stroke="#bfbfbf" points="311.1289,-.5 311.1289,-18.5 355.4834,-18.5 355.4834,-.5 311.1289,-.5"/>
<text text-anchor="middle" x="333.3062" y="-6.5" font-family="Helvetica,sans-Serif" font-size="10.00" fill="#000000">thread</text>
</g>
    <!-- Node7&#45;&gt;Node9 -->
<g id="edge9" class="edge">
<title>Node7&#45;&gt;Node9</title>
<path fill="none" stroke="#191970" d="M307.4252,-55.4179C311.6626,-47.8998 317.8158,-36.9829 323.0593,-27.6799"/>
<polygon fill="#191970" stroke="#191970" points="326.2148,-29.2096 328.0759,-18.7795 320.1167,-25.7724 326.2148,-29.2096"/>
</g>
    <!-- Node11 -->
<g id="node12" class="node">
<title>Node11</title>
<polygon fill="none" stroke="#bfbfbf" points="301.1313,-165.5 301.1313,-183.5 405.481,-183.5 405.481,-165.5 301.1313,-165.5"/>
<text text-anchor="middle" x="353.3062" y="-171.5" font-family="Helvetica,sans-Serif" font-size="10.00" fill="#000000">gtkmm&#45;3.0/gtkmm.h</text>
</g>
    <!-- Node10&#45;&gt;Node11 -->
<g id="edge11" class="edge">
<title>Node10&#45;&gt;Node11</title>
<path fill="none" stroke="#191970" d="M354.141,-220.4179C354.0101,-213.2164 353.8224,-202.8962 353.6582,-193.8632"/>
<polygon fill="#191970" stroke="#191970" points="357.1562,-193.7141 353.4749,-183.7795 350.1573,-193.8415 357.1562,-193.7141"/>
</g>
    <!-- Node12&#45;&gt;Node5 -->
<g id="edge21" class="edge">
<title>Node12&#45;&gt;Node5</title>
<path fill="none" stroke="#191970" d="M494.8172,-220.3492C478.5809,-206.599 445.9264,-180.5652 414.3062,-165 383.6711,-149.9198 346.9998,-138.6026 317.8248,-131.027"/>
<polygon fill="#191970" stroke="#191970" points="318.3929,-127.5605 307.8401,-128.5033 316.6775,-134.3471 318.3929,-127.5605"/>
</g>
    <!-- Node13 -->
<g id="node14" class="node">
<title>Node13</title>
<g id="a_node14"><a xlink:href="../../d7/d0f/_d_b_master_8hpp.html" target="_top" xlink:title="../DBMaster.hpp">
<polygon fill="none" stroke="#000000" points="461.4541,-165.5 461.4541,-183.5 549.1582,-183.5 549.1582,-165.5 461.4541,-165.5"/>
<text text-anchor="middle" x="505.3062" y="-171.5" font-family="Helvetica,sans-Serif" font-size="10.00" fill="#000000">../DBMaster.hpp</text>
</a>
</g>
</g>
    <!-- Node12&#45;&gt;Node13 -->
<g id="edge13" class="edge">
<title>Node12&#45;&gt;Node13</title>
<path fill="none" stroke="#191970" d="M505.3062,-220.4179C505.3062,-213.2164 505.3062,-202.8962 505.3062,-193.8632"/>
<polygon fill="#191970" stroke="#191970" points="508.8063,-193.7794 505.3062,-183.7795 501.8063,-193.7795 508.8063,-193.7794"/>
</g>
    <!-- Node17 -->
<g id="node18" class="node">
<title>Node17</title>
<polygon fill="none" stroke="#bfbfbf" points="696.6904,-110.5 696.6904,-128.5 739.9219,-128.5 739.9219,-110.5 696.6904,-110.5"/>
<text text-anchor="middle" x="718.3062" y="-116.5" font-family="Helvetica,sans-Serif" font-size="10.00" fill="#000000">vector</text>
</g>
    <!-- Node12&#45;&gt;Node17 -->
<g id="edge22" class="edge">
<title>Node12&#45;&gt;Node17</title>
<path fill="none" stroke="#191970" d="M516.1847,-220.3574C532.6643,-206.8501 565.3275,-181.396 596.3062,-165 612.3719,-156.4969 656.3987,-140.721 686.9158,-130.1656"/>
<polygon fill="#191970" stroke="#191970" points="688.3697,-133.3668 696.6873,-126.8041 686.0926,-126.7475 688.3697,-133.3668"/>
</g>
    <!-- Node20 -->
<g id="node21" class="node">
<title>Node20</title>
<polygon fill="none" stroke="#bfbfbf" points="605.4639,-165.5 605.4639,-183.5 643.1484,-183.5 643.1484,-165.5 605.4639,-165.5"/>
<text text-anchor="middle" x="624.3062" y="-171.5" font-family="Helvetica,sans-Serif" font-size="10.00" fill="#000000">tuple</text>
</g>
    <!-- Node12&#45;&gt;Node20 -->
<g id="edge23" class="edge">
<title>Node12&#45;&gt;Node20</title>
<path fill="none" stroke="#191970" d="M524.9566,-220.4179C544.3932,-211.4346 574.3295,-197.5985 596.2621,-187.4615"/>
<polygon fill="#191970" stroke="#191970" points="597.8043,-190.6046 605.4133,-183.232 594.8675,-184.2504 597.8043,-190.6046"/>
</g>
    <!-- Node14 -->
<g id="node15" class="node">
<title>Node14</title>
<polygon fill="none" stroke="#bfbfbf" points="356.6831,-110.5 356.6831,-128.5 409.9292,-128.5 409.9292,-110.5 356.6831,-110.5"/>
<text text-anchor="middle" x="383.3062" y="-116.5" font-family="Helvetica,sans-Serif" font-size="10.00" fill="#000000">sqlite3.h</text>
</g>
    <!-- Node13&#45;&gt;Node14 -->
<g id="edge14" class="edge">
<title>Node13&#45;&gt;Node14</title>
<path fill="none" stroke="#191970" d="M485.1603,-165.4179C465.4696,-156.5409 435.2676,-142.9253 412.8589,-132.823"/>
<polygon fill="#191970" stroke="#191970" points="414.0368,-129.5148 403.4819,-128.5956 411.1599,-135.8963 414.0368,-129.5148"/>
</g>
    <!-- Node15 -->
<g id="node16" class="node">
<title>Node15</title>
<polygon fill="none" stroke="#bfbfbf" points="476.0796,-55.5 476.0796,-73.5 516.5327,-73.5 516.5327,-55.5 476.0796,-55.5"/>
<text text-anchor="middle" x="496.3062" y="-61.5" font-family="Helvetica,sans-Serif" font-size="10.00" fill="#000000">string</text>
</g>
    <!-- Node13&#45;&gt;Node15 -->
<g id="edge15" class="edge">
<title>Node13&#45;&gt;Node15</title>
<path fill="none" stroke="#191970" d="M490.4694,-165.3744C479.0128,-157.38 464.0187,-144.6119 457.3062,-129 449.7879,-111.5141 463.4032,-93.0762 476.5639,-80.4129"/>
<polygon fill="#191970" stroke="#191970" points="478.9768,-82.9506 484.097,-73.6752 474.3101,-77.7331 478.9768,-82.9506"/>
</g>
    <!-- Node16 -->
<g id="node17" class="node">
<title>Node16</title>
<polygon fill="none" stroke="#bfbfbf" points="465.9048,-110.5 465.9048,-128.5 524.7075,-128.5 524.7075,-110.5 465.9048,-110.5"/>
<text text-anchor="middle" x="495.3062" y="-116.5" font-family="Helvetica,sans-Serif" font-size="10.00" fill="#000000">stdexcept</text>
</g>
    <!-- Node13&#45;&gt;Node16 -->
<g id="edge16" class="edge">
<title>Node13&#45;&gt;Node16</title>
<path fill="none" stroke="#191970" d="M503.6549,-165.4179C502.3455,-158.2164 500.4691,-147.8962 498.8267,-138.8632"/>
<polygon fill="#191970" stroke="#191970" points="502.2258,-137.992 496.9933,-128.7795 495.3387,-139.2443 502.2258,-137.992"/>
</g>
    <!-- Node13&#45;&gt;Node17 -->
<g id="edge17" class="edge">
<title>Node13&#45;&gt;Node17</title>
<path fill="none" stroke="#191970" d="M543.8062,-165.4943C578.6569,-157.2046 631.6156,-144.2672 686.7225,-129.0535"/>
<polygon fill="#191970" stroke="#191970" points="687.9709,-132.3393 696.6684,-126.289 686.0963,-125.5949 687.9709,-132.3393"/>
</g>
    <!-- Node18 -->
<g id="node19" class="node">
<title>Node18</title>
<g id="a_node19"><a xlink:href="../../d3/d1b/_i_serializable_8hpp.html" target="_top" xlink:title="interfaces/ISerializable.hpp">
<polygon fill="none" stroke="#000000" points="542.272,-110.5 542.272,-128.5 678.3403,-128.5 678.3403,-110.5 542.272,-110.5"/>
<text text-anchor="middle" x="610.3062" y="-116.5" font-family="Helvetica,sans-Serif" font-size="10.00" fill="#000000">interfaces/ISerializable.hpp</text>
</a>
</g>
</g>
    <!-- Node13&#45;&gt;Node18 -->
<g id="edge18" class="edge">
<title>Node13&#45;&gt;Node18</title>
<path fill="none" stroke="#191970" d="M522.6448,-165.4179C539.2878,-156.7001 564.6556,-143.4122 583.8272,-133.3699"/>
<polygon fill="#191970" stroke="#191970" points="585.7075,-136.3362 592.9418,-128.5956 582.4594,-130.1353 585.7075,-136.3362"/>
</g>
    <!-- Node18&#45;&gt;Node15 -->
<g id="edge19" class="edge">
<title>Node18&#45;&gt;Node15</title>
<path fill="none" stroke="#191970" d="M591.4814,-110.4179C573.1643,-101.5807 545.1132,-88.0473 524.2031,-77.9591"/>
<polygon fill="#191970" stroke="#191970" points="525.6864,-74.7887 515.1589,-73.5956 522.6446,-81.0933 525.6864,-74.7887"/>
</g>
    <!-- Node19 -->
<g id="node20" class="node">
<title>Node19</title>
<polygon fill="none" stroke="#bfbfbf" points="592.5796,-55.5 592.5796,-73.5 628.0327,-73.5 628.0327,-55.5 592.5796,-55.5"/>
<text text-anchor="middle" x="610.3062" y="-61.5" font-family="Helvetica,sans-Serif" font-size="10.00" fill="#000000">map</text>
</g>
    <!-- Node18&#45;&gt;Node19 -->
<g id="edge20" class="edge">
<title>Node18&#45;&gt;Node19</title>
<path fill="none" stroke="#191970" d="M610.3062,-110.4179C610.3062,-103.2164 610.3062,-92.8962 610.3062,-83.8632"/>
<polygon fill="#191970" stroke="#191970" points="613.8063,-83.7794 610.3062,-73.7795 606.8063,-83.7795 613.8063,-83.7794"/>
</g>
</g>
</svg>
        <g id="navigator" transform="translate(0 0)" fill="#404254">
                <rect fill="#f2f5e9" fill-opacity="0.5" stroke="#606060" stroke-width=".5" x="0" y="0" width="60" height="60"/>
                <use id="zoomplus" xlink:href="#zoomPlus" x="17" y="9" onmousedown="handleZoom(evt,'in')"/>
                <use id="zoomminus" xlink:href="#zoomMin" x="42" y="9" onmousedown="handleZoom(evt,'out')"/>
                <use id="reset" xlink:href="#resetDef" x="30" y="36" onmousedown="handleReset()"/>
                <g id="arrowUp" xlink:href="#dirArrow" transform="translate(30 24)" onmousedown="handlePan(0,-1)">
                  <use xlink:href="#rim" fill="#404040">
                        <set attributeName="fill" to="#808080" begin="arrowUp.mouseover" end="arrowUp.mouseout"/>
                  </use>
                  <path fill="none" stroke="white" stroke-width="1.5" d="M0,-3.0v7 M-2.5,-0.5L0,-3.0L2.5,-0.5"/>
                </g>
                <g id="arrowRight" xlink:href="#dirArrow" transform="rotate(90) translate(36 -43)" onmousedown="handlePan(1,0)">
                  <use xlink:href="#rim" fill="#404040">
                        <set attributeName="fill" to="#808080" begin="arrowRight.mouseover" end="arrowRight.mouseout"/>
                  </use>
                  <path fill="none" stroke="white" stroke-width="1.5" d="M0,-3.0v7 M-2.5,-0.5L0,-3.0L2.5,-0.5"/>
                </g>
                <g id="arrowDown" xlink:href="#dirArrow" transform="rotate(180) translate(-30 -48)" onmousedown="handlePan(0,1)">
                  <use xlink:href="#rim" fill="#404040">
                        <set attributeName="fill" to="#808080" begin="arrowDown.mouseover" end="arrowDown.mouseout"/>
                  </use>
                  <path fill="none" stroke="white" stroke-width="1.5" d="M0,-3.0v7 M-2.5,-0.5L0,-3.0L2.5,-0.5"/>
                </g>
                <g id="arrowLeft" xlink:href="#dirArrow" transform="rotate(270) translate(-36 17)" onmousedown="handlePan(-1,0)">
                  <use xlink:href="#rim" fill="#404040">
                        <set attributeName="fill" to="#808080" begin="arrowLeft.mouseover" end="arrowLeft.mouseout"/>
                  </use>
                  <path fill="none" stroke="white" stroke-width="1.5" d="M0,-3.0v7 M-2.5,-0.5L0,-3.0L2.5,-0.5"/>
                </g>
        </g>
        <svg viewBox="0 0 15 15" width="100%" height="30px" preserveAspectRatio="xMaxYMin meet">
         <g id="arrow_out" transform="scale(0.3 0.3)">
          <a xlink:href="_login_window_8cpp__incl_org.svg" target="_base">
           <rect id="button" ry="5" rx="5" y="6" x="6" height="38" width="38"
                fill="#f2f5e9" fill-opacity="0.5" stroke="#606060" stroke-width="1.0"/>
           <path id="arrow"
             d="M 11.500037,31.436501 C 11.940474,20.09759 22.043105,11.32322 32.158766,21.979434 L 37.068811,17.246167 C 37.068811,17.246167 37.088388,32 37.088388,32 L 22.160133,31.978069 C 22.160133,31.978069 26.997745,27.140456 26.997745,27.140456 C 18.528582,18.264221 13.291696,25.230495 11.500037,31.436501 z"
             style="fill:#404040;"/>
          </a>
         </g>
        </svg>
</svg>
