<?xml version="1.0" encoding="UTF-8" standalone="no"?>
<!DOCTYPE svg PUBLIC "-//W3C//DTD SVG 1.1//EN"
        "http://www.w3.org/Graphics/SVG/1.1/DTD/svg11.dtd">
<!-- Generated by graphviz version 2.40.1 (20161225.0304)
 -->
<!-- Title: mm::ISubject Pages: 1 -->
<!--zoomable 425 -->
<svg id="main" version="1.1" xmlns="http://www.w3.org/2000/svg" xmlns:xlink="http://www.w3.org/1999/xlink" xml:space="preserve" onload="initDrugComboBox(evt)">
<style type="text/css"><![CDATA[
.edge:hover path { stroke: red; }
.edge:hover polygon { stroke: red; fill: red; }
]]></style>
<script type="text/javascript"><![CDATA[
var edges = document.getElementsByTagName('g');
if (edges && edges.length) {
  for (var i=0;i<edges.length;i++) {
    if (edges[i].id.substr(0,4)=='edge') {
      edges[i].setAttribute('class','edge');
    }
  }
}
]]></script>
        <defs>
                <circle id="rim" cx="0" cy="0" r="7"/>
                <circle id="rim2" cx="0" cy="0" r="3.5"/>
                <g id="zoomPlus">
                        <use xlink:href="#rim" fill="#404040">
                                <set attributeName="fill" to="#808080" begin="zoomplus.mouseover" end="zoomplus.mouseout"/>
                        </use>
                        <path d="M-4,0h8M0,-4v8" fill="none" stroke="white" stroke-width="1.5" pointer-events="none"/>
                </g>
                <g id="zoomMin">
                        <use xlink:href="#rim" fill="#404040">
                                <set attributeName="fill" to="#808080" begin="zoomminus.mouseover" end="zoomminus.mouseout"/>
                        </use>
                        <path d="M-4,0h8" fill="none" stroke="white" stroke-width="1.5" pointer-events="none"/>
                </g>
                <g id="dirArrow">
                        <path fill="none" stroke="white" stroke-width="1.5" d="M0,-3.0v7 M-2.5,-0.5L0,-3.0L2.5,-0.5"/>
                </g>
               <g id="resetDef">
                       <use xlink:href="#rim2" fill="#404040">
                               <set attributeName="fill" to="#808080" begin="reset.mouseover" end="reset.mouseout"/>
                       </use>
               </g>
        </defs>

<script type="text/javascript">
var viewWidth = 750;
var viewHeight = 425;
var sectionId = 'dynsection-0';
</script>
<script xlink:href="../../svgpan.js"/>
<svg id="graph" class="graph">
<g id="viewport">
<title>mm::ISubject</title>
    <!-- Node0 -->
<g id="node1" class="node">
<title>Node0</title>
<polygon fill="#bfbfbf" stroke="#000000" points="329.1748,-332.5 329.1748,-416.5 403.5244,-416.5 403.5244,-332.5 329.1748,-332.5"/>
<text text-anchor="middle" x="366.3496" y="-404.5" font-family="Helvetica,sans-Serif" font-size="10.00" fill="#000000">mm::ISubject</text>
<polyline fill="none" stroke="#000000" points="329.1748,-398.5 403.5244,-398.5 "/>
<text text-anchor="middle" x="366.3496" y="-386.5" font-family="Helvetica,sans-Serif" font-size="10.00" fill="#000000"> </text>
<polyline fill="none" stroke="#000000" points="329.1748,-380.5 403.5244,-380.5 "/>
<text text-anchor="start" x="337.1748" y="-368.5" font-family="Helvetica,sans-Serif" font-size="10.00" fill="#000000">+ attach()</text>
<text text-anchor="start" x="337.1748" y="-358.5" font-family="Helvetica,sans-Serif" font-size="10.00" fill="#000000">+ detach()</text>
<text text-anchor="start" x="337.1748" y="-348.5" font-family="Helvetica,sans-Serif" font-size="10.00" fill="#000000">+ notify()</text>
<text text-anchor="start" x="337.1748" y="-338.5" font-family="Helvetica,sans-Serif" font-size="10.00" fill="#000000">+ ~ISubject()</text>
</g>
    <!-- Node1 -->
<g id="node2" class="node">
<title>Node1</title>
<g id="a_node2"><a xlink:href="../../df/d35/classmm_1_1_dialog.html" target="_top" xlink:title="{mm::Dialog\n||+ show()\l+ dispose()\l+ isActive()\l+ reset()\l}">
<polygon fill="none" stroke="#000000" points="201.0664,-176.5 201.0664,-260.5 267.6328,-260.5 267.6328,-176.5 201.0664,-176.5"/>
<text text-anchor="middle" x="234.3496" y="-248.5" font-family="Helvetica,sans-Serif" font-size="10.00" fill="#000000">mm::Dialog</text>
<polyline fill="none" stroke="#000000" points="201.0664,-242.5 267.6328,-242.5 "/>
<text text-anchor="middle" x="234.3496" y="-230.5" font-family="Helvetica,sans-Serif" font-size="10.00" fill="#000000"> </text>
<polyline fill="none" stroke="#000000" points="201.0664,-224.5 267.6328,-224.5 "/>
<text text-anchor="start" x="209.0664" y="-212.5" font-family="Helvetica,sans-Serif" font-size="10.00" fill="#000000">+ show()</text>
<text text-anchor="start" x="209.0664" y="-202.5" font-family="Helvetica,sans-Serif" font-size="10.00" fill="#000000">+ dispose()</text>
<text text-anchor="start" x="209.0664" y="-192.5" font-family="Helvetica,sans-Serif" font-size="10.00" fill="#000000">+ isActive()</text>
<text text-anchor="start" x="209.0664" y="-182.5" font-family="Helvetica,sans-Serif" font-size="10.00" fill="#000000">+ reset()</text>
</a>
</g>
</g>
    <!-- Node0&#45;&gt;Node1 -->
<g id="edge1" class="edge">
<title>Node0&#45;&gt;Node1</title>
<path fill="none" stroke="#191970" d="M321.6478,-330.5445C311.0695,-319.5465 300.0507,-307.5769 290.3496,-296 281.0739,-284.9307 271.6351,-272.4344 263.2154,-260.7593"/>
<polygon fill="none" stroke="#191970" points="319.4002,-333.2538 328.8792,-337.9865 324.4205,-328.3755 319.4002,-333.2538"/>
</g>
    <!-- Node5 -->
<g id="node6" class="node">
<title>Node5</title>
<g id="a_node6"><a xlink:href="../../de/d0e/structmm_1_1model_1_1authentication_1_1_login.html" target="_top" xlink:title="{mm::model::authentication\l::Login\n|+ is_changed\l+ user_name\l+ password\l+ regional_id\l|+ serialize()\l+ unserialize()\l+ get_table_name()\l+ get_primary_key()\l+ logout()\l+ isLog()\l+ get_instance()\l}">
<polygon fill="none" stroke="#000000" points="299.7095,-141.5 299.7095,-295.5 432.9897,-295.5 432.9897,-141.5 299.7095,-141.5"/>
<text text-anchor="start" x="307.7095" y="-283.5" font-family="Helvetica,sans-Serif" font-size="10.00" fill="#000000">mm::model::authentication</text>
<text text-anchor="middle" x="366.3496" y="-273.5" font-family="Helvetica,sans-Serif" font-size="10.00" fill="#000000">::Login</text>
<polyline fill="none" stroke="#000000" points="299.7095,-267.5 432.9897,-267.5 "/>
<text text-anchor="start" x="307.7095" y="-255.5" font-family="Helvetica,sans-Serif" font-size="10.00" fill="#000000">+ is_changed</text>
<text text-anchor="start" x="307.7095" y="-245.5" font-family="Helvetica,sans-Serif" font-size="10.00" fill="#000000">+ user_name</text>
<text text-anchor="start" x="307.7095" y="-235.5" font-family="Helvetica,sans-Serif" font-size="10.00" fill="#000000">+ password</text>
<text text-anchor="start" x="307.7095" y="-225.5" font-family="Helvetica,sans-Serif" font-size="10.00" fill="#000000">+ regional_id</text>
<polyline fill="none" stroke="#000000" points="299.7095,-219.5 432.9897,-219.5 "/>
<text text-anchor="start" x="307.7095" y="-207.5" font-family="Helvetica,sans-Serif" font-size="10.00" fill="#000000">+ serialize()</text>
<text text-anchor="start" x="307.7095" y="-197.5" font-family="Helvetica,sans-Serif" font-size="10.00" fill="#000000">+ unserialize()</text>
<text text-anchor="start" x="307.7095" y="-187.5" font-family="Helvetica,sans-Serif" font-size="10.00" fill="#000000">+ get_table_name()</text>
<text text-anchor="start" x="307.7095" y="-177.5" font-family="Helvetica,sans-Serif" font-size="10.00" fill="#000000">+ get_primary_key()</text>
<text text-anchor="start" x="307.7095" y="-167.5" font-family="Helvetica,sans-Serif" font-size="10.00" fill="#000000">+ logout()</text>
<text text-anchor="start" x="307.7095" y="-157.5" font-family="Helvetica,sans-Serif" font-size="10.00" fill="#000000">+ isLog()</text>
<text text-anchor="start" x="307.7095" y="-147.5" font-family="Helvetica,sans-Serif" font-size="10.00" fill="#000000">+ get_instance()</text>
</a>
</g>
</g>
    <!-- Node0&#45;&gt;Node5 -->
<g id="edge5" class="edge">
<title>Node0&#45;&gt;Node5</title>
<path fill="none" stroke="#191970" d="M366.3496,-322.132C366.3496,-313.5955 366.3496,-304.5981 366.3496,-295.6163"/>
<polygon fill="none" stroke="#191970" points="362.8497,-322.2841 366.3496,-332.2842 369.8497,-322.2842 362.8497,-322.2841"/>
</g>
    <!-- Node6 -->
<g id="node7" class="node">
<title>Node6</title>
<g id="a_node7"><a xlink:href="../../d1/d71/classmm_1_1_window.html" target="_top" xlink:title="{mm::Window\n||+ initDrugComboBox()\l+ getName()\l+ getNextWindow()\l}">
<polygon fill="none" stroke="#000000" points="457.6958,-181.5 457.6958,-255.5 559.0034,-255.5 559.0034,-181.5 457.6958,-181.5"/>
<text text-anchor="middle" x="508.3496" y="-243.5" font-family="Helvetica,sans-Serif" font-size="10.00" fill="#000000">mm::Window</text>
<polyline fill="none" stroke="#000000" points="457.6958,-237.5 559.0034,-237.5 "/>
<text text-anchor="middle" x="508.3496" y="-225.5" font-family="Helvetica,sans-Serif" font-size="10.00" fill="#000000"> </text>
<polyline fill="none" stroke="#000000" points="457.6958,-219.5 559.0034,-219.5 "/>
<text text-anchor="start" x="465.6958" y="-207.5" font-family="Helvetica,sans-Serif" font-size="10.00" fill="#000000">+ initDrugComboBox()</text>
<text text-anchor="start" x="465.6958" y="-197.5" font-family="Helvetica,sans-Serif" font-size="10.00" fill="#000000">+ getName()</text>
<text text-anchor="start" x="465.6958" y="-187.5" font-family="Helvetica,sans-Serif" font-size="10.00" fill="#000000">+ getNextWindow()</text>
</a>
</g>
</g>
    <!-- Node0&#45;&gt;Node6 -->
<g id="edge6" class="edge">
<title>Node0&#45;&gt;Node6</title>
<path fill="none" stroke="#191970" d="M410.7302,-329.6446C421.233,-318.76 432.2985,-307.0671 442.3496,-296 454.1124,-283.0482 466.6478,-268.5236 477.5991,-255.5796"/>
<polygon fill="none" stroke="#191970" points="408.0152,-327.4168 403.5683,-337.0332 413.0415,-332.2888 408.0152,-327.4168"/>
</g>
    <!-- Node2 -->
<g id="node3" class="node">
<title>Node2</title>
<g id="a_node3"><a xlink:href="../../d7/d05/classmm_1_1_about_dialog.html" target="_top" xlink:title="{mm::AboutDialog\n||+ AboutDialog()\l+ show()\l+ isActive()\l+ reset()\l+ onResponse()\l}">
<polygon fill="none" stroke="#000000" points="0,-5.5 0,-99.5 92.6992,-99.5 92.6992,-5.5 0,-5.5"/>
<text text-anchor="middle" x="46.3496" y="-87.5" font-family="Helvetica,sans-Serif" font-size="10.00" fill="#000000">mm::AboutDialog</text>
<polyline fill="none" stroke="#000000" points="0,-81.5 92.6992,-81.5 "/>
<text text-anchor="middle" x="46.3496" y="-69.5" font-family="Helvetica,sans-Serif" font-size="10.00" fill="#000000"> </text>
<polyline fill="none" stroke="#000000" points="0,-63.5 92.6992,-63.5 "/>
<text text-anchor="start" x="8" y="-51.5" font-family="Helvetica,sans-Serif" font-size="10.00" fill="#000000">+ AboutDialog()</text>
<text text-anchor="start" x="8" y="-41.5" font-family="Helvetica,sans-Serif" font-size="10.00" fill="#000000">+ show()</text>
<text text-anchor="start" x="8" y="-31.5" font-family="Helvetica,sans-Serif" font-size="10.00" fill="#000000">+ isActive()</text>
<text text-anchor="start" x="8" y="-21.5" font-family="Helvetica,sans-Serif" font-size="10.00" fill="#000000">+ reset()</text>
<text text-anchor="start" x="8" y="-11.5" font-family="Helvetica,sans-Serif" font-size="10.00" fill="#000000">+ onResponse()</text>
</a>
</g>
</g>
    <!-- Node1&#45;&gt;Node2 -->
<g id="edge2" class="edge">
<title>Node1&#45;&gt;Node2</title>
<path fill="none" stroke="#191970" d="M192.8991,-184.1442C166.3968,-161.9296 131.4695,-132.189 101.3496,-105 98.606,-102.5233 95.8046,-99.9604 92.9908,-97.3597"/>
<polygon fill="none" stroke="#191970" points="190.9228,-187.0541 200.8388,-190.7856 195.4141,-181.6848 190.9228,-187.0541"/>
</g>
    <!-- Node3 -->
<g id="node4" class="node">
<title>Node3</title>
<g id="a_node4"><a xlink:href="../../d7/d32/classmm_1_1_add_patient_dialog.html" target="_top" xlink:title="{mm::AddPatientDialog\n||+ AddPatientDialog()\l+ show()\l+ isActive()\l+ ~AddPatientDialog()\l+ reset()\l}">
<polygon fill="none" stroke="#000000" points="110.6035,-5.5 110.6035,-99.5 226.0957,-99.5 226.0957,-5.5 110.6035,-5.5"/>
<text text-anchor="middle" x="168.3496" y="-87.5" font-family="Helvetica,sans-Serif" font-size="10.00" fill="#000000">mm::AddPatientDialog</text>
<polyline fill="none" stroke="#000000" points="110.6035,-81.5 226.0957,-81.5 "/>
<text text-anchor="middle" x="168.3496" y="-69.5" font-family="Helvetica,sans-Serif" font-size="10.00" fill="#000000"> </text>
<polyline fill="none" stroke="#000000" points="110.6035,-63.5 226.0957,-63.5 "/>
<text text-anchor="start" x="118.6035" y="-51.5" font-family="Helvetica,sans-Serif" font-size="10.00" fill="#000000">+ AddPatientDialog()</text>
<text text-anchor="start" x="118.6035" y="-41.5" font-family="Helvetica,sans-Serif" font-size="10.00" fill="#000000">+ show()</text>
<text text-anchor="start" x="118.6035" y="-31.5" font-family="Helvetica,sans-Serif" font-size="10.00" fill="#000000">+ isActive()</text>
<text text-anchor="start" x="118.6035" y="-21.5" font-family="Helvetica,sans-Serif" font-size="10.00" fill="#000000">+ ~AddPatientDialog()</text>
<text text-anchor="start" x="118.6035" y="-11.5" font-family="Helvetica,sans-Serif" font-size="10.00" fill="#000000">+ reset()</text>
</a>
</g>
</g>
    <!-- Node1&#45;&gt;Node3 -->
<g id="edge3" class="edge">
<title>Node1&#45;&gt;Node3</title>
<path fill="none" stroke="#191970" d="M213.7165,-166.6045C205.2111,-145.2121 195.4242,-120.5968 187.1229,-99.7176"/>
<polygon fill="none" stroke="#191970" points="210.5772,-168.1823 217.5243,-176.1817 217.082,-165.5961 210.5772,-168.1823"/>
</g>
    <!-- Node4 -->
<g id="node5" class="node">
<title>Node4</title>
<g id="a_node5"><a xlink:href="../../db/d16/classmm_1_1_add_prescription_dialog.html" target="_top" xlink:title="{mm::AddPrescriptionDialog\n||+ AddPrescriptionDialog()\l+ show()\l+ dispose()\l+ isActive()\l+ reset()\l}">
<polygon fill="none" stroke="#000000" points="243.771,-5.5 243.771,-99.5 380.9282,-99.5 380.9282,-5.5 243.771,-5.5"/>
<text text-anchor="middle" x="312.3496" y="-87.5" font-family="Helvetica,sans-Serif" font-size="10.00" fill="#000000">mm::AddPrescriptionDialog</text>
<polyline fill="none" stroke="#000000" points="243.771,-81.5 380.9282,-81.5 "/>
<text text-anchor="middle" x="312.3496" y="-69.5" font-family="Helvetica,sans-Serif" font-size="10.00" fill="#000000"> </text>
<polyline fill="none" stroke="#000000" points="243.771,-63.5 380.9282,-63.5 "/>
<text text-anchor="start" x="251.771" y="-51.5" font-family="Helvetica,sans-Serif" font-size="10.00" fill="#000000">+ AddPrescriptionDialog()</text>
<text text-anchor="start" x="251.771" y="-41.5" font-family="Helvetica,sans-Serif" font-size="10.00" fill="#000000">+ show()</text>
<text text-anchor="start" x="251.771" y="-31.5" font-family="Helvetica,sans-Serif" font-size="10.00" fill="#000000">+ dispose()</text>
<text text-anchor="start" x="251.771" y="-21.5" font-family="Helvetica,sans-Serif" font-size="10.00" fill="#000000">+ isActive()</text>
<text text-anchor="start" x="251.771" y="-11.5" font-family="Helvetica,sans-Serif" font-size="10.00" fill="#000000">+ reset()</text>
</a>
</g>
</g>
    <!-- Node1&#45;&gt;Node4 -->
<g id="edge4" class="edge">
<title>Node1&#45;&gt;Node4</title>
<path fill="none" stroke="#191970" d="M258.5985,-166.8934C268.6818,-145.434 280.3081,-120.6908 290.163,-99.7176"/>
<polygon fill="none" stroke="#191970" points="255.3192,-165.6425 254.2341,-176.1817 261.6546,-168.6195 255.3192,-165.6425"/>
</g>
    <!-- Node7 -->
<g id="node8" class="node">
<title>Node7</title>
<g id="a_node8"><a xlink:href="../../d3/d0c/classmm_1_1_login_window.html" target="_top" xlink:title="{mm::LoginWindow\n||+ LoginWindow()\l+ initDrugComboBox()\l+ getName()\l+ getNextWindow()\l}">
<polygon fill="none" stroke="#000000" points="398.6958,-10.5 398.6958,-94.5 500.0034,-94.5 500.0034,-10.5 398.6958,-10.5"/>
<text text-anchor="middle" x="449.3496" y="-82.5" font-family="Helvetica,sans-Serif" font-size="10.00" fill="#000000">mm::LoginWindow</text>
<polyline fill="none" stroke="#000000" points="398.6958,-76.5 500.0034,-76.5 "/>
<text text-anchor="middle" x="449.3496" y="-64.5" font-family="Helvetica,sans-Serif" font-size="10.00" fill="#000000"> </text>
<polyline fill="none" stroke="#000000" points="398.6958,-58.5 500.0034,-58.5 "/>
<text text-anchor="start" x="406.6958" y="-46.5" font-family="Helvetica,sans-Serif" font-size="10.00" fill="#000000">+ LoginWindow()</text>
<text text-anchor="start" x="406.6958" y="-36.5" font-family="Helvetica,sans-Serif" font-size="10.00" fill="#000000">+ initDrugComboBox()</text>
<text text-anchor="start" x="406.6958" y="-26.5" font-family="Helvetica,sans-Serif" font-size="10.00" fill="#000000">+ getName()</text>
<text text-anchor="start" x="406.6958" y="-16.5" font-family="Helvetica,sans-Serif" font-size="10.00" fill="#000000">+ getNextWindow()</text>
</a>
</g>
</g>
    <!-- Node6&#45;&gt;Node7 -->
<g id="edge7" class="edge">
<title>Node6&#45;&gt;Node7</title>
<path fill="none" stroke="#191970" d="M491.6657,-171.5587C483.0621,-147.3522 472.6533,-118.0663 464.312,-94.5975"/>
<polygon fill="none" stroke="#191970" points="488.4619,-172.996 495.1089,-181.2464 495.0577,-170.6516 488.4619,-172.996"/>
</g>
    <!-- Node8 -->
<g id="node9" class="node">
<title>Node8</title>
<g id="a_node9"><a xlink:href="../../d7/dfd/classmm_1_1_main_window.html" target="_top" xlink:title="{mm::MainWindow\n||+ initDrugComboBox()\l+ getName()\l+ getNextWindow()\l+ update()\l}">
<polygon fill="none" stroke="#000000" points="517.6958,-10.5 517.6958,-94.5 619.0034,-94.5 619.0034,-10.5 517.6958,-10.5"/>
<text text-anchor="middle" x="568.3496" y="-82.5" font-family="Helvetica,sans-Serif" font-size="10.00" fill="#000000">mm::MainWindow</text>
<polyline fill="none" stroke="#000000" points="517.6958,-76.5 619.0034,-76.5 "/>
<text text-anchor="middle" x="568.3496" y="-64.5" font-family="Helvetica,sans-Serif" font-size="10.00" fill="#000000"> </text>
<polyline fill="none" stroke="#000000" points="517.6958,-58.5 619.0034,-58.5 "/>
<text text-anchor="start" x="525.6958" y="-46.5" font-family="Helvetica,sans-Serif" font-size="10.00" fill="#000000">+ initDrugComboBox()</text>
<text text-anchor="start" x="525.6958" y="-36.5" font-family="Helvetica,sans-Serif" font-size="10.00" fill="#000000">+ getName()</text>
<text text-anchor="start" x="525.6958" y="-26.5" font-family="Helvetica,sans-Serif" font-size="10.00" fill="#000000">+ getNextWindow()</text>
<text text-anchor="start" x="525.6958" y="-16.5" font-family="Helvetica,sans-Serif" font-size="10.00" fill="#000000">+ update()</text>
</a>
</g>
</g>
    <!-- Node6&#45;&gt;Node8 -->
<g id="edge8" class="edge">
<title>Node6&#45;&gt;Node8</title>
<path fill="none" stroke="#191970" d="M525.3163,-171.5587C534.0657,-147.3522 544.651,-118.0663 553.1336,-94.5975"/>
<polygon fill="none" stroke="#191970" points="521.9225,-170.6521 521.8148,-181.2464 528.5057,-173.0316 521.9225,-170.6521"/>
</g>
    <!-- Node9 -->
<g id="node10" class="node">
<title>Node9</title>
<g id="a_node10"><a xlink:href="../../da/d81/classmm_1_1_patient_window.html" target="_top" xlink:title="{mm::PatientWindow\n||+ PatientWindow()\l+ initDrugComboBox()\l+ getName()\l+ getNextWindow()\l+ update()\l+ ~PatientWindow()\l}">
<polygon fill="none" stroke="#000000" points="636.8916,-.5 636.8916,-104.5 741.8076,-104.5 741.8076,-.5 636.8916,-.5"/>
<text text-anchor="middle" x="689.3496" y="-92.5" font-family="Helvetica,sans-Serif" font-size="10.00" fill="#000000">mm::PatientWindow</text>
<polyline fill="none" stroke="#000000" points="636.8916,-86.5 741.8076,-86.5 "/>
<text text-anchor="middle" x="689.3496" y="-74.5" font-family="Helvetica,sans-Serif" font-size="10.00" fill="#000000"> </text>
<polyline fill="none" stroke="#000000" points="636.8916,-68.5 741.8076,-68.5 "/>
<text text-anchor="start" x="644.8916" y="-56.5" font-family="Helvetica,sans-Serif" font-size="10.00" fill="#000000">+ PatientWindow()</text>
<text text-anchor="start" x="644.8916" y="-46.5" font-family="Helvetica,sans-Serif" font-size="10.00" fill="#000000">+ initDrugComboBox()</text>
<text text-anchor="start" x="644.8916" y="-36.5" font-family="Helvetica,sans-Serif" font-size="10.00" fill="#000000">+ getName()</text>
<text text-anchor="start" x="644.8916" y="-26.5" font-family="Helvetica,sans-Serif" font-size="10.00" fill="#000000">+ getNextWindow()</text>
<text text-anchor="start" x="644.8916" y="-16.5" font-family="Helvetica,sans-Serif" font-size="10.00" fill="#000000">+ update()</text>
<text text-anchor="start" x="644.8916" y="-6.5" font-family="Helvetica,sans-Serif" font-size="10.00" fill="#000000">+ ~PatientWindow()</text>
</a>
</g>
</g>
    <!-- Node6&#45;&gt;Node9 -->
<g id="edge9" class="edge">
<title>Node6&#45;&gt;Node9</title>
<path fill="none" stroke="#191970" d="M556.4672,-174.3701C581.2288,-151.6606 611.4582,-123.9364 636.825,-100.6717"/>
<polygon fill="none" stroke="#191970" points="553.9737,-171.9078 548.9695,-181.2464 558.7051,-177.0667 553.9737,-171.9078"/>
</g>
</g>
</svg>
        <g id="navigator" transform="translate(0 0)" fill="#404254">
                <rect fill="#f2f5e9" fill-opacity="0.5" stroke="#606060" stroke-width=".5" x="0" y="0" width="60" height="60"/>
                <use id="zoomplus" xlink:href="#zoomPlus" x="17" y="9" onmousedown="handleZoom(evt,'in')"/>
                <use id="zoomminus" xlink:href="#zoomMin" x="42" y="9" onmousedown="handleZoom(evt,'out')"/>
                <use id="reset" xlink:href="#resetDef" x="30" y="36" onmousedown="handleReset()"/>
                <g id="arrowUp" xlink:href="#dirArrow" transform="translate(30 24)" onmousedown="handlePan(0,-1)">
                  <use xlink:href="#rim" fill="#404040">
                        <set attributeName="fill" to="#808080" begin="arrowUp.mouseover" end="arrowUp.mouseout"/>
                  </use>
                  <path fill="none" stroke="white" stroke-width="1.5" d="M0,-3.0v7 M-2.5,-0.5L0,-3.0L2.5,-0.5"/>
                </g>
                <g id="arrowRight" xlink:href="#dirArrow" transform="rotate(90) translate(36 -43)" onmousedown="handlePan(1,0)">
                  <use xlink:href="#rim" fill="#404040">
                        <set attributeName="fill" to="#808080" begin="arrowRight.mouseover" end="arrowRight.mouseout"/>
                  </use>
                  <path fill="none" stroke="white" stroke-width="1.5" d="M0,-3.0v7 M-2.5,-0.5L0,-3.0L2.5,-0.5"/>
                </g>
                <g id="arrowDown" xlink:href="#dirArrow" transform="rotate(180) translate(-30 -48)" onmousedown="handlePan(0,1)">
                  <use xlink:href="#rim" fill="#404040">
                        <set attributeName="fill" to="#808080" begin="arrowDown.mouseover" end="arrowDown.mouseout"/>
                  </use>
                  <path fill="none" stroke="white" stroke-width="1.5" d="M0,-3.0v7 M-2.5,-0.5L0,-3.0L2.5,-0.5"/>
                </g>
                <g id="arrowLeft" xlink:href="#dirArrow" transform="rotate(270) translate(-36 17)" onmousedown="handlePan(-1,0)">
                  <use xlink:href="#rim" fill="#404040">
                        <set attributeName="fill" to="#808080" begin="arrowLeft.mouseover" end="arrowLeft.mouseout"/>
                  </use>
                  <path fill="none" stroke="white" stroke-width="1.5" d="M0,-3.0v7 M-2.5,-0.5L0,-3.0L2.5,-0.5"/>
                </g>
        </g>
        <svg viewBox="0 0 15 15" width="100%" height="30px" preserveAspectRatio="xMaxYMin meet">
         <g id="arrow_out" transform="scale(0.3 0.3)">
          <a xlink:href="classmm_1_1_i_subject__inherit__graph_org.svg" target="_base">
           <rect id="button" ry="5" rx="5" y="6" x="6" height="38" width="38"
                fill="#f2f5e9" fill-opacity="0.5" stroke="#606060" stroke-width="1.0"/>
           <path id="arrow"
             d="M 11.500037,31.436501 C 11.940474,20.09759 22.043105,11.32322 32.158766,21.979434 L 37.068811,17.246167 C 37.068811,17.246167 37.088388,32 37.088388,32 L 22.160133,31.978069 C 22.160133,31.978069 26.997745,27.140456 26.997745,27.140456 C 18.528582,18.264221 13.291696,25.230495 11.500037,31.436501 z"
             style="fill:#404040;"/>
          </a>
         </g>
        </svg>
</svg>
