<?xml version="1.0" encoding="UTF-8" standalone="no"?>
<!DOCTYPE svg PUBLIC "-//W3C//DTD SVG 1.1//EN"
        "http://www.w3.org/Graphics/SVG/1.1/DTD/svg11.dtd">
<!-- Generated by graphviz version 2.40.1 (20161225.0304)
 -->
<!-- Title: code/utils/stringUtils.hpp Pages: 1 -->
<svg width="244pt" height="82pt"
     viewBox="0.00 0.00 243.79 82.00" xmlns="http://www.w3.org/2000/svg" xmlns:xlink="http://www.w3.org/1999/xlink">
    <g id="graph0" class="graph" transform="scale(1 1) rotate(0) translate(4 78)">
        <title>code/utils/stringUtils.hpp</title>
        <!-- Node0 -->
        <g id="node1" class="node">
            <title>Node0</title>
            <polygon fill="#bfbfbf" stroke="#000000"
                     points="54.0347,-55.5 54.0347,-73.5 178.4185,-73.5 178.4185,-55.5 54.0347,-55.5"/>
            <text text-anchor="middle" x="116.2266" y="-61.5" font-family="Helvetica,sans-Serif" font-size="10.00"
                  fill="#000000">code/utils/stringUtils.hpp
            </text>
        </g>
        <!-- Node1 -->
        <g id="node2" class="node">
            <title>Node1</title>
            <polygon fill="none" stroke="#bfbfbf" points="0,-.5 0,-18.5 40.4531,-18.5 40.4531,-.5 0,-.5"/>
            <text text-anchor="middle" x="20.2266" y="-6.5" font-family="Helvetica,sans-Serif" font-size="10.00"
                  fill="#000000">string
            </text>
        </g>
        <!-- Node0&#45;&gt;Node1 -->
        <g id="edge1" class="edge">
            <title>Node0&#45;&gt;Node1</title>
            <path fill="none" stroke="#191970"
                  d="M100.3741,-55.4179C85.3661,-46.8195 62.5981,-33.7754 45.1594,-23.7844"/>
            <polygon fill="#191970" stroke="#191970"
                     points="46.5193,-20.5299 36.1026,-18.5956 43.0395,-26.6037 46.5193,-20.5299"/>
        </g>
        <!-- Node2 -->
        <g id="node3" class="node">
            <title>Node2</title>
            <polygon fill="none" stroke="#bfbfbf"
                     points="58.4458,-.5 58.4458,-18.5 110.0073,-18.5 110.0073,-.5 58.4458,-.5"/>
            <text text-anchor="middle" x="84.2266" y="-6.5" font-family="Helvetica,sans-Serif" font-size="10.00"
                  fill="#000000">sstream
            </text>
        </g>
        <!-- Node0&#45;&gt;Node2 -->
        <g id="edge2" class="edge">
            <title>Node0&#45;&gt;Node2</title>
            <path fill="none" stroke="#191970"
                  d="M110.9424,-55.4179C106.5683,-47.8998 100.2166,-36.9829 94.8039,-27.6799"/>
            <polygon fill="#191970" stroke="#191970"
                     points="97.6797,-25.6628 89.6255,-18.7795 91.6293,-29.1831 97.6797,-25.6628"/>
        </g>
        <!-- Node3 -->
        <g id="node4" class="node">
            <title>Node3</title>
            <polygon fill="none" stroke="#bfbfbf"
                     points="127.6108,-.5 127.6108,-18.5 170.8423,-18.5 170.8423,-.5 127.6108,-.5"/>
            <text text-anchor="middle" x="149.2266" y="-6.5" font-family="Helvetica,sans-Serif" font-size="10.00"
                  fill="#000000">vector
            </text>
        </g>
        <!-- Node0&#45;&gt;Node3 -->
        <g id="edge3" class="edge">
            <title>Node0&#45;&gt;Node3</title>
            <path fill="none" stroke="#191970"
                  d="M121.6758,-55.4179C126.2342,-47.8207 132.875,-36.7527 138.4946,-27.3866"/>
            <polygon fill="#191970" stroke="#191970"
                     points="141.5151,-29.1552 143.6589,-18.7795 135.5127,-25.5536 141.5151,-29.1552"/>
        </g>
        <!-- Node4 -->
        <g id="node5" class="node">
            <title>Node4</title>
            <polygon fill="none" stroke="#bfbfbf"
                     points="188.665,-.5 188.665,-18.5 235.7881,-18.5 235.7881,-.5 188.665,-.5"/>
            <text text-anchor="middle" x="212.2266" y="-6.5" font-family="Helvetica,sans-Serif" font-size="10.00"
                  fill="#000000">iterator
            </text>
        </g>
        <!-- Node0&#45;&gt;Node4 -->
        <g id="edge4" class="edge">
            <title>Node0&#45;&gt;Node4</title>
            <path fill="none" stroke="#191970"
                  d="M132.079,-55.4179C147.087,-46.8195 169.855,-33.7754 187.2938,-23.7844"/>
            <polygon fill="#191970" stroke="#191970"
                     points="189.4136,-26.6037 196.3506,-18.5956 185.9338,-20.5299 189.4136,-26.6037"/>
        </g>
    </g>
</svg>
