<?xml version="1.0" encoding="UTF-8" standalone="no"?>
<!DOCTYPE svg PUBLIC "-//W3C//DTD SVG 1.1//EN"
        "http://www.w3.org/Graphics/SVG/1.1/DTD/svg11.dtd">
<!-- Generated by graphviz version 2.40.1 (20161225.0304)
 -->
<!-- Title: code/gui/Widgets.hpp Pages: 1 -->
<svg width="414pt" height="137pt"
     viewBox="0.00 0.00 414.05 137.00" xmlns="http://www.w3.org/2000/svg" xmlns:xlink="http://www.w3.org/1999/xlink">
    <g id="graph0" class="graph" transform="scale(1 1) rotate(0) translate(4 133)">
        <title>code/gui/Widgets.hpp</title>
        <!-- Node0 -->
        <g id="node1" class="node">
            <title>Node0</title>
            <polygon fill="#bfbfbf" stroke="#000000"
                     points="156.2202,-110.5 156.2202,-128.5 268.3921,-128.5 268.3921,-110.5 156.2202,-110.5"/>
            <text text-anchor="middle" x="212.3062" y="-116.5" font-family="Helvetica,sans-Serif" font-size="10.00"
                  fill="#000000">code/gui/Widgets.hpp
            </text>
        </g>
        <!-- Node1 -->
        <g id="node2" class="node">
            <title>Node1</title>
            <polygon fill="none" stroke="#bfbfbf" points="0,-55.5 0,-73.5 78.6123,-73.5 78.6123,-55.5 0,-55.5"/>
            <text text-anchor="middle" x="39.3062" y="-61.5" font-family="Helvetica,sans-Serif" font-size="10.00"
                  fill="#000000">gtkmm/entry.h
            </text>
        </g>
        <!-- Node0&#45;&gt;Node1 -->
        <g id="edge1" class="edge">
            <title>Node0&#45;&gt;Node1</title>
            <path fill="none" stroke="#191970"
                  d="M183.7387,-110.4179C154.7283,-101.1949 109.6281,-86.8567 77.5493,-76.6582"/>
            <polygon fill="#191970" stroke="#191970"
                     points="78.2189,-73.1985 67.6285,-73.5042 76.098,-79.8695 78.2189,-73.1985"/>
        </g>
        <!-- Node2 -->
        <g id="node3" class="node">
            <title>Node2</title>
            <polygon fill="none" stroke="#bfbfbf"
                     points="96.6191,-55.5 96.6191,-73.5 215.9932,-73.5 215.9932,-55.5 96.6191,-55.5"/>
            <text text-anchor="middle" x="156.3062" y="-61.5" font-family="Helvetica,sans-Serif" font-size="10.00"
                  fill="#000000">gtkmm/comboboxtext.h
            </text>
        </g>
        <!-- Node0&#45;&gt;Node2 -->
        <g id="edge2" class="edge">
            <title>Node0&#45;&gt;Node2</title>
            <path fill="none" stroke="#191970"
                  d="M203.0589,-110.4179C194.9207,-102.425 182.8709,-90.5903 173.0428,-80.9377"/>
            <polygon fill="#191970" stroke="#191970"
                     points="175.3413,-78.2895 165.7543,-73.7795 170.4363,-83.2836 175.3413,-78.2895"/>
        </g>
        <!-- Node3 -->
        <g id="node4" class="node">
            <title>Node3</title>
            <polygon fill="none" stroke="#bfbfbf"
                     points="233.6338,-55.5 233.6338,-73.5 302.9785,-73.5 302.9785,-55.5 233.6338,-55.5"/>
            <text text-anchor="middle" x="268.3062" y="-61.5" font-family="Helvetica,sans-Serif" font-size="10.00"
                  fill="#000000">fmt/format.h
            </text>
        </g>
        <!-- Node0&#45;&gt;Node3 -->
        <g id="edge3" class="edge">
            <title>Node0&#45;&gt;Node3</title>
            <path fill="none" stroke="#191970"
                  d="M221.5534,-110.4179C229.6916,-102.425 241.7414,-90.5903 251.5695,-80.9377"/>
            <polygon fill="#191970" stroke="#191970"
                     points="254.176,-83.2836 258.858,-73.7795 249.271,-78.2895 254.176,-83.2836"/>
        </g>
        <!-- Node4 -->
        <g id="node5" class="node">
            <title>Node4</title>
            <g id="a_node5">
                <a xlink:href="../../d8/d63/_date_8hpp.html" target="_top" xlink:title="../utils/Date.hpp">
                    <polygon fill="none" stroke="#000000"
                             points="320.5649,-55.5 320.5649,-73.5 406.0474,-73.5 406.0474,-55.5 320.5649,-55.5"/>
                    <text text-anchor="middle" x="363.3062" y="-61.5" font-family="Helvetica,sans-Serif"
                          font-size="10.00" fill="#000000">../utils/Date.hpp
                    </text>
                </a>
            </g>
        </g>
        <!-- Node0&#45;&gt;Node4 -->
        <g id="edge4" class="edge">
            <title>Node0&#45;&gt;Node4</title>
            <path fill="none" stroke="#191970"
                  d="M237.2407,-110.4179C262.2331,-101.3147 300.9068,-87.2283 328.8297,-77.0576"/>
            <polygon fill="#191970" stroke="#191970"
                     points="330.3873,-80.2153 338.5855,-73.5042 327.9915,-73.6381 330.3873,-80.2153"/>
        </g>
        <!-- Node5 -->
        <g id="node6" class="node">
            <title>Node5</title>
            <polygon fill="none" stroke="#bfbfbf"
                     points="336.1338,-.5 336.1338,-18.5 390.4785,-18.5 390.4785,-.5 336.1338,-.5"/>
            <text text-anchor="middle" x="363.3062" y="-6.5" font-family="Helvetica,sans-Serif" font-size="10.00"
                  fill="#000000">iostream
            </text>
        </g>
        <!-- Node4&#45;&gt;Node5 -->
        <g id="edge5" class="edge">
            <title>Node4&#45;&gt;Node5</title>
            <path fill="none" stroke="#191970"
                  d="M363.3062,-55.4179C363.3062,-48.2164 363.3062,-37.8962 363.3062,-28.8632"/>
            <polygon fill="#191970" stroke="#191970"
                     points="366.8063,-28.7794 363.3062,-18.7795 359.8063,-28.7795 366.8063,-28.7794"/>
        </g>
    </g>
</svg>
