<?xml version="1.0" encoding="UTF-8" standalone="no"?>
<!DOCTYPE svg PUBLIC "-//W3C//DTD SVG 1.1//EN"
        "http://www.w3.org/Graphics/SVG/1.1/DTD/svg11.dtd">
<!-- Generated by graphviz version 2.40.1 (20161225.0304)
 -->
<!-- Title: code/gui/PatientWindow.hpp Pages: 1 -->
<svg width="2189pt" height="357pt"
     viewBox="0.00 0.00 2189.34 357.00" xmlns="http://www.w3.org/2000/svg" xmlns:xlink="http://www.w3.org/1999/xlink">
    <g id="graph0" class="graph" transform="scale(1 1) rotate(0) translate(4 353)">
        <title>code/gui/PatientWindow.hpp</title>
        <!-- Node0 -->
        <g id="node1" class="node">
            <title>Node0</title>
            <polygon fill="#bfbfbf" stroke="#000000"
                     points="1356.9312,-330.5 1356.9312,-348.5 1499.1323,-348.5 1499.1323,-330.5 1356.9312,-330.5"/>
            <text text-anchor="middle" x="1428.0317" y="-336.5" font-family="Helvetica,sans-Serif" font-size="10.00"
                  fill="#000000">code/gui/PatientWindow.hpp
            </text>
        </g>
        <!-- Node1 -->
        <g id="node2" class="node">
            <title>Node1</title>
            <g id="a_node2">
                <a xlink:href="../../de/d0b/_window_8hpp.html" target="_top" xlink:title="Window.hpp">
                    <polygon fill="none" stroke="#000000"
                             points="66.7905,-275.5 66.7905,-293.5 137.2729,-293.5 137.2729,-275.5 66.7905,-275.5"/>
                    <text text-anchor="middle" x="102.0317" y="-281.5" font-family="Helvetica,sans-Serif"
                          font-size="10.00" fill="#000000">Window.hpp
                    </text>
                </a>
            </g>
        </g>
        <!-- Node0&#45;&gt;Node1 -->
        <g id="edge1" class="edge">
            <title>Node0&#45;&gt;Node1</title>
            <path fill="none" stroke="#191970"
                  d="M1356.6188,-337.8352C1169.9996,-333.2613 652.3935,-319.1427 222.0317,-294 197.4473,-292.5637 170.0699,-290.4368 147.6797,-288.5594"/>
            <polygon fill="#191970" stroke="#191970"
                     points="147.7085,-285.0493 137.448,-287.69 147.1157,-292.0242 147.7085,-285.0493"/>
        </g>
        <!-- Node7 -->
        <g id="node8" class="node">
            <title>Node7</title>
            <g id="a_node8">
                <a xlink:href="../../dc/de6/_dialog_8hpp.html" target="_top" xlink:title="Dialog.hpp">
                    <polygon fill="none" stroke="#000000"
                             points="231.1255,-275.5 231.1255,-293.5 294.938,-293.5 294.938,-275.5 231.1255,-275.5"/>
                    <text text-anchor="middle" x="263.0317" y="-281.5" font-family="Helvetica,sans-Serif"
                          font-size="10.00" fill="#000000">Dialog.hpp
                    </text>
                </a>
            </g>
        </g>
        <!-- Node0&#45;&gt;Node7 -->
        <g id="edge7" class="edge">
            <title>Node0&#45;&gt;Node7</title>
            <path fill="none" stroke="#191970"
                  d="M1356.9095,-336.1423C1137.9613,-325.8057 478.4282,-294.6689 305.1227,-286.4871"/>
            <polygon fill="#191970" stroke="#191970"
                     points="305.2722,-282.9904 295.1182,-286.0148 304.942,-289.9826 305.2722,-282.9904"/>
        </g>
        <!-- Node10 -->
        <g id="node11" class="node">
            <title>Node10</title>
            <g id="a_node11">
                <a xlink:href="../../d5/d46/_custom_widgets_8hpp.html" target="_top"
                   xlink:title="view/CustomWidgets.hpp">
                    <polygon fill="none" stroke="#000000"
                             points="1042.6206,-275.5 1042.6206,-293.5 1171.4429,-293.5 1171.4429,-275.5 1042.6206,-275.5"/>
                    <text text-anchor="middle" x="1107.0317" y="-281.5" font-family="Helvetica,sans-Serif"
                          font-size="10.00" fill="#000000">view/CustomWidgets.hpp
                    </text>
                </a>
            </g>
        </g>
        <!-- Node0&#45;&gt;Node10 -->
        <g id="edge11" class="edge">
            <title>Node0&#45;&gt;Node10</title>
            <path fill="none" stroke="#191970"
                  d="M1375.3846,-330.4795C1319.0584,-320.8285 1229.7481,-305.5262 1169.8042,-295.2554"/>
            <polygon fill="#191970" stroke="#191970"
                     points="1170.1551,-291.7646 1159.7077,-293.5255 1168.9729,-298.6641 1170.1551,-291.7646"/>
        </g>
        <!-- Node15 -->
        <g id="node16" class="node">
            <title>Node15</title>
            <polygon fill="none" stroke="#bfbfbf"
                     points="361.2461,-220.5 361.2461,-238.5 452.8174,-238.5 452.8174,-220.5 361.2461,-220.5"/>
            <text text-anchor="middle" x="407.0317" y="-226.5" font-family="Helvetica,sans-Serif" font-size="10.00"
                  fill="#000000">gtkmm/liststore.h
            </text>
        </g>
        <!-- Node0&#45;&gt;Node15 -->
        <g id="edge55" class="edge">
            <title>Node0&#45;&gt;Node15</title>
            <path fill="none" stroke="#191970"
                  d="M1356.8513,-333.8346C1198.0688,-320.8218 802.7574,-286.3455 462.9894,-239.2045"/>
            <polygon fill="#191970" stroke="#191970"
                     points="463.341,-235.7197 452.9536,-237.8061 462.3749,-242.6527 463.341,-235.7197"/>
        </g>
        <!-- Node31 -->
        <g id="node32" class="node">
            <title>Node31</title>
            <g id="a_node32">
                <a xlink:href="../../d8/d63/_date_8hpp.html" target="_top" xlink:title="../../utils/Date.hpp">
                    <polygon fill="none" stroke="#000000"
                             points="1766.123,-220.5 1766.123,-238.5 1859.9404,-238.5 1859.9404,-220.5 1766.123,-220.5"/>
                    <text text-anchor="middle" x="1813.0317" y="-226.5" font-family="Helvetica,sans-Serif"
                          font-size="10.00" fill="#000000">../../utils/Date.hpp
                    </text>
                </a>
            </g>
        </g>
        <!-- Node0&#45;&gt;Node31 -->
        <g id="edge48" class="edge">
            <title>Node0&#45;&gt;Node31</title>
            <path fill="none" stroke="#191970"
                  d="M1459.5379,-330.4982C1528.7163,-310.733 1693.8917,-263.54 1771.4592,-241.3779"/>
            <polygon fill="#191970" stroke="#191970"
                     points="1772.707,-244.6615 1781.3607,-238.5489 1770.7839,-237.9308 1772.707,-244.6615"/>
        </g>
        <!-- Node33 -->
        <g id="node34" class="node">
            <title>Node33</title>
            <g id="a_node34">
                <a xlink:href="../../dc/d55/_widgets_8hpp.html" target="_top" xlink:title="Widgets.hpp">
                    <polygon fill="none" stroke="#000000"
                             points="1777.2388,-275.5 1777.2388,-293.5 1848.8247,-293.5 1848.8247,-275.5 1777.2388,-275.5"/>
                    <text text-anchor="middle" x="1813.0317" y="-281.5" font-family="Helvetica,sans-Serif"
                          font-size="10.00" fill="#000000">Widgets.hpp
                    </text>
                </a>
            </g>
        </g>
        <!-- Node0&#45;&gt;Node33 -->
        <g id="edge49" class="edge">
            <title>Node0&#45;&gt;Node33</title>
            <path fill="none" stroke="#191970"
                  d="M1491.1755,-330.4795C1568.6874,-319.4063 1698.2785,-300.8933 1766.9947,-291.0767"/>
            <polygon fill="#191970" stroke="#191970"
                     points="1767.6762,-294.515 1777.0807,-289.6359 1766.6862,-287.5853 1767.6762,-294.515"/>
        </g>
        <!-- Node37 -->
        <g id="node38" class="node">
            <title>Node37</title>
            <polygon fill="none" stroke="#bfbfbf"
                     points="1866.5317,-275.5 1866.5317,-293.5 1895.5317,-293.5 1895.5317,-275.5 1866.5317,-275.5"/>
            <text text-anchor="middle" x="1880.6426" y="-281.5" font-family="Helvetica,sans-Serif" font-size="10.00"
                  fill="#000000">list
            </text>
        </g>
        <!-- Node0&#45;&gt;Node37 -->
        <g id="edge54" class="edge">
            <title>Node0&#45;&gt;Node37</title>
            <path fill="none" stroke="#191970"
                  d="M1499.3095,-334.4407C1598.9807,-326.9614 1775.9526,-312.1082 1855.972,-293.8476"/>
            <polygon fill="#191970" stroke="#191970"
                     points="1857.261,-297.136 1866.148,-291.3678 1855.6036,-290.335 1857.261,-297.136"/>
        </g>
        <!-- Node38 -->
        <g id="node39" class="node">
            <title>Node38</title>
            <polygon fill="none" stroke="#bfbfbf"
                     points="1913.7363,-275.5 1913.7363,-293.5 2040.3271,-293.5 2040.3271,-275.5 1913.7363,-275.5"/>
            <text text-anchor="middle" x="1977.0317" y="-281.5" font-family="Helvetica,sans-Serif" font-size="10.00"
                  fill="#000000">gtkmm/treeviewcolumn.h
            </text>
        </g>
        <!-- Node0&#45;&gt;Node38 -->
        <g id="edge56" class="edge">
            <title>Node0&#45;&gt;Node38</title>
            <path fill="none" stroke="#191970"
                  d="M1499.2316,-333.5159C1590.4378,-325.6695 1753.6702,-311.0192 1903.162,-294.1807"/>
            <polygon fill="#191970" stroke="#191970"
                     points="1903.9011,-297.6195 1913.4438,-293.0166 1903.1135,-290.6639 1903.9011,-297.6195"/>
        </g>
        <!-- Node2 -->
        <g id="node3" class="node">
            <title>Node2</title>
            <g id="a_node3">
                <a xlink:href="../../d1/d25/_i_subject_8hpp.html" target="_top"
                   xlink:title="../interfaces/ISubject.hpp">
                    <polygon fill="none" stroke="#000000"
                             points="0,-220.5 0,-238.5 126.0635,-238.5 126.0635,-220.5 0,-220.5"/>
                    <text text-anchor="middle" x="63.0317" y="-226.5" font-family="Helvetica,sans-Serif"
                          font-size="10.00" fill="#000000">../interfaces/ISubject.hpp
                    </text>
                </a>
            </g>
        </g>
        <!-- Node1&#45;&gt;Node2 -->
        <g id="edge2" class="edge">
            <title>Node1&#45;&gt;Node2</title>
            <path fill="none" stroke="#191970"
                  d="M95.5917,-275.4179C90.1485,-267.7415 82.1926,-256.5217 75.5078,-247.0945"/>
            <polygon fill="#191970" stroke="#191970"
                     points="78.2511,-244.9123 69.6117,-238.7795 72.541,-248.9613 78.2511,-244.9123"/>
        </g>
        <!-- Node3 -->
        <g id="node4" class="node">
            <title>Node3</title>
            <polygon fill="none" stroke="#bfbfbf"
                     points="12.3618,-165.5 12.3618,-183.5 41.7017,-183.5 41.7017,-165.5 12.3618,-165.5"/>
            <text text-anchor="middle" x="27.0317" y="-171.5" font-family="Helvetica,sans-Serif" font-size="10.00"
                  fill="#000000">set
            </text>
        </g>
        <!-- Node2&#45;&gt;Node3 -->
        <g id="edge3" class="edge">
            <title>Node2&#45;&gt;Node3</title>
            <path fill="none" stroke="#191970"
                  d="M57.0871,-220.4179C52.1144,-212.8207 44.8698,-201.7527 38.7393,-192.3866"/>
            <polygon fill="#191970" stroke="#191970"
                     points="41.5107,-190.2297 33.1056,-183.7795 35.6537,-194.0633 41.5107,-190.2297"/>
        </g>
        <!-- Node4 -->
        <g id="node5" class="node">
            <title>Node4</title>
            <g id="a_node5">
                <a xlink:href="../../d5/d40/_i_observer_8hpp.html" target="_top" xlink:title="IObserver.hpp">
                    <polygon fill="none" stroke="#000000"
                             points="59.623,-165.5 59.623,-183.5 138.4404,-183.5 138.4404,-165.5 59.623,-165.5"/>
                    <text text-anchor="middle" x="99.0317" y="-171.5" font-family="Helvetica,sans-Serif"
                          font-size="10.00" fill="#000000">IObserver.hpp
                    </text>
                </a>
            </g>
        </g>
        <!-- Node2&#45;&gt;Node4 -->
        <g id="edge4" class="edge">
            <title>Node2&#45;&gt;Node4</title>
            <path fill="none" stroke="#191970"
                  d="M68.9764,-220.4179C73.9491,-212.8207 81.1936,-201.7527 87.3241,-192.3866"/>
            <polygon fill="#191970" stroke="#191970"
                     points="90.4097,-194.0633 92.9579,-183.7795 84.5528,-190.2297 90.4097,-194.0633"/>
        </g>
        <!-- Node5 -->
        <g id="node6" class="node">
            <title>Node5</title>
            <polygon fill="none" stroke="#bfbfbf"
                     points="108.416,-110.5 108.416,-128.5 151.6475,-128.5 151.6475,-110.5 108.416,-110.5"/>
            <text text-anchor="middle" x="130.0317" y="-116.5" font-family="Helvetica,sans-Serif" font-size="10.00"
                  fill="#000000">mutex
            </text>
        </g>
        <!-- Node4&#45;&gt;Node5 -->
        <g id="edge5" class="edge">
            <title>Node4&#45;&gt;Node5</title>
            <path fill="none" stroke="#191970"
                  d="M104.1508,-165.4179C108.3882,-157.8998 114.5414,-146.9829 119.7849,-137.6799"/>
            <polygon fill="#191970" stroke="#191970"
                     points="122.9404,-139.2096 124.8015,-128.7795 116.8423,-135.7724 122.9404,-139.2096"/>
        </g>
        <!-- Node6 -->
        <g id="node7" class="node">
            <title>Node6</title>
            <polygon fill="none" stroke="#bfbfbf"
                     points="45.8545,-110.5 45.8545,-128.5 90.209,-128.5 90.209,-110.5 45.8545,-110.5"/>
            <text text-anchor="middle" x="68.0317" y="-116.5" font-family="Helvetica,sans-Serif" font-size="10.00"
                  fill="#000000">thread
            </text>
        </g>
        <!-- Node4&#45;&gt;Node6 -->
        <g id="edge6" class="edge">
            <title>Node4&#45;&gt;Node6</title>
            <path fill="none" stroke="#191970"
                  d="M93.9127,-165.4179C89.6753,-157.8998 83.5221,-146.9829 78.2786,-137.6799"/>
            <polygon fill="#191970" stroke="#191970"
                     points="81.2212,-135.7724 73.262,-128.7795 75.1231,-139.2096 81.2212,-135.7724"/>
        </g>
        <!-- Node7&#45;&gt;Node2 -->
        <g id="edge10" class="edge">
            <title>Node7&#45;&gt;Node2</title>
            <path fill="none" stroke="#191970"
                  d="M230.8983,-275.6633C197.0863,-266.365 143.6746,-251.6768 106.2012,-241.3716"/>
            <polygon fill="#191970" stroke="#191970"
                     points="106.6541,-237.8663 96.084,-238.5894 104.7979,-244.6157 106.6541,-237.8663"/>
        </g>
        <!-- Node8 -->
        <g id="node9" class="node">
            <title>Node8</title>
            <polygon fill="none" stroke="#bfbfbf"
                     points="144.4531,-220.5 144.4531,-238.5 241.6104,-238.5 241.6104,-220.5 144.4531,-220.5"/>
            <text text-anchor="middle" x="193.0317" y="-226.5" font-family="Helvetica,sans-Serif" font-size="10.00"
                  fill="#000000">sigc++/trackable.h
            </text>
        </g>
        <!-- Node7&#45;&gt;Node8 -->
        <g id="edge8" class="edge">
            <title>Node7&#45;&gt;Node8</title>
            <path fill="none" stroke="#191970"
                  d="M251.4727,-275.4179C240.9977,-267.1876 225.3385,-254.8839 212.8653,-245.0836"/>
            <polygon fill="#191970" stroke="#191970"
                     points="214.8675,-242.2056 204.842,-238.7795 210.5428,-247.7098 214.8675,-242.2056"/>
        </g>
        <!-- Node9 -->
        <g id="node10" class="node">
            <title>Node9</title>
            <polygon fill="none" stroke="#bfbfbf"
                     points="259.1279,-220.5 259.1279,-238.5 342.9355,-238.5 342.9355,-220.5 259.1279,-220.5"/>
            <text text-anchor="middle" x="301.0317" y="-226.5" font-family="Helvetica,sans-Serif" font-size="10.00"
                  fill="#000000">gtkmm/dialog.h
            </text>
        </g>
        <!-- Node7&#45;&gt;Node9 -->
        <g id="edge9" class="edge">
            <title>Node7&#45;&gt;Node9</title>
            <path fill="none" stroke="#191970"
                  d="M269.3067,-275.4179C274.6103,-267.7415 282.3622,-256.5217 288.8755,-247.0945"/>
            <polygon fill="#191970" stroke="#191970"
                     points="291.8157,-248.9963 294.6205,-238.7795 286.0566,-245.0173 291.8157,-248.9963"/>
        </g>
        <!-- Node11 -->
        <g id="node12" class="node">
            <title>Node11</title>
            <polygon fill="none" stroke="#bfbfbf"
                     points="1266.8965,-220.5 1266.8965,-238.5 1365.167,-238.5 1365.167,-220.5 1266.8965,-220.5"/>
            <text text-anchor="middle" x="1316.0317" y="-226.5" font-family="Helvetica,sans-Serif" font-size="10.00"
                  fill="#000000">gtkmm/expander.h
            </text>
        </g>
        <!-- Node10&#45;&gt;Node11 -->
        <g id="edge12" class="edge">
            <title>Node10&#45;&gt;Node11</title>
            <path fill="none" stroke="#191970"
                  d="M1141.5438,-275.4179C1177.198,-266.0352 1232.9691,-251.3586 1271.8294,-241.1322"/>
            <polygon fill="#191970" stroke="#191970"
                     points="1273.0357,-244.434 1281.8157,-238.5042 1271.2542,-237.6645 1273.0357,-244.434"/>
        </g>
        <!-- Node12 -->
        <g id="node13" class="node">
            <title>Node12</title>
            <polygon fill="none" stroke="#bfbfbf"
                     points="1382.8423,-220.5 1382.8423,-238.5 1507.2212,-238.5 1507.2212,-220.5 1382.8423,-220.5"/>
            <text text-anchor="middle" x="1445.0317" y="-226.5" font-family="Helvetica,sans-Serif" font-size="10.00"
                  fill="#000000">gtkmm/scrolledwindow.h
            </text>
        </g>
        <!-- Node10&#45;&gt;Node12 -->
        <g id="edge13" class="edge">
            <title>Node10&#45;&gt;Node12</title>
            <path fill="none" stroke="#191970"
                  d="M1162.4671,-275.4795C1221.8988,-265.8086 1316.2051,-250.4629 1379.3257,-240.1918"/>
            <polygon fill="#191970" stroke="#191970"
                     points="1380.2581,-243.5862 1389.5661,-238.5255 1379.1338,-236.6771 1380.2581,-243.5862"/>
        </g>
        <!-- Node13 -->
        <g id="node14" class="node">
            <title>Node13</title>
            <polygon fill="none" stroke="#bfbfbf"
                     points="1525.5098,-220.5 1525.5098,-238.5 1636.5537,-238.5 1636.5537,-220.5 1525.5098,-220.5"/>
            <text text-anchor="middle" x="1581.0317" y="-226.5" font-family="Helvetica,sans-Serif" font-size="10.00"
                  fill="#000000">gtkmm/checkbutton.h
            </text>
        </g>
        <!-- Node10&#45;&gt;Node13 -->
        <g id="edge14" class="edge">
            <title>Node10&#45;&gt;Node13</title>
            <path fill="none" stroke="#191970"
                  d="M1171.5765,-278.0113C1250.1997,-269.9522 1387.321,-255.3985 1515.39,-239.0438"/>
            <polygon fill="#191970" stroke="#191970"
                     points="1515.9066,-242.5063 1525.3798,-237.762 1515.0157,-235.5632 1515.9066,-242.5063"/>
        </g>
        <!-- Node14 -->
        <g id="node15" class="node">
            <title>Node14</title>
            <polygon fill="none" stroke="#bfbfbf"
                     points="1654.1279,-220.5 1654.1279,-238.5 1747.9355,-238.5 1747.9355,-220.5 1654.1279,-220.5"/>
            <text text-anchor="middle" x="1701.0317" y="-226.5" font-family="Helvetica,sans-Serif" font-size="10.00"
                  fill="#000000">gtkmm/treeview.h
            </text>
        </g>
        <!-- Node10&#45;&gt;Node14 -->
        <g id="edge15" class="edge">
            <title>Node10&#45;&gt;Node14</title>
            <path fill="none" stroke="#191970"
                  d="M1171.5241,-280.8717C1270.9563,-274.8767 1467.8627,-261.4154 1644.0007,-239.1766"/>
            <polygon fill="#191970" stroke="#191970"
                     points="1644.4906,-242.6426 1653.9676,-237.9059 1643.6052,-235.6988 1644.4906,-242.6426"/>
        </g>
        <!-- Node10&#45;&gt;Node15 -->
        <g id="edge16" class="edge">
            <title>Node10&#45;&gt;Node15</title>
            <path fill="none" stroke="#191970"
                  d="M1042.1757,-282.1616C927.3004,-277.5315 680.3978,-265.3865 462.9448,-239.1312"/>
            <polygon fill="#191970" stroke="#191970"
                     points="463.2902,-235.6475 452.9399,-237.9106 462.4424,-242.596 463.2902,-235.6475"/>
        </g>
        <!-- Node16 -->
        <g id="node17" class="node">
            <title>Node16</title>
            <polygon fill="none" stroke="#bfbfbf"
                     points="470.4111,-220.5 470.4111,-238.5 543.6523,-238.5 543.6523,-220.5 470.4111,-220.5"/>
            <text text-anchor="middle" x="507.0317" y="-226.5" font-family="Helvetica,sans-Serif" font-size="10.00"
                  fill="#000000">gtkmm/box.h
            </text>
        </g>
        <!-- Node10&#45;&gt;Node16 -->
        <g id="edge17" class="edge">
            <title>Node10&#45;&gt;Node16</title>
            <path fill="none" stroke="#191970"
                  d="M1042.3464,-281.7444C940.5364,-276.8443 736.5712,-264.7527 553.9288,-238.9571"/>
            <polygon fill="#191970" stroke="#191970"
                     points="554.2646,-235.4696 543.87,-237.5193 553.2741,-242.3991 554.2646,-235.4696"/>
        </g>
        <!-- Node17 -->
        <g id="node18" class="node">
            <title>Node17</title>
            <polygon fill="none" stroke="#bfbfbf"
                     points="561.6919,-220.5 561.6919,-238.5 644.3716,-238.5 644.3716,-220.5 561.6919,-220.5"/>
            <text text-anchor="middle" x="603.0317" y="-226.5" font-family="Helvetica,sans-Serif" font-size="10.00"
                  fill="#000000">gtkmm/frame.h
            </text>
        </g>
        <!-- Node10&#45;&gt;Node17 -->
        <g id="edge18" class="edge">
            <title>Node10&#45;&gt;Node17</title>
            <path fill="none" stroke="#191970"
                  d="M1042.5329,-279.8302C956.2978,-273.1874 798.4949,-259.6372 654.3681,-239.0885"/>
            <polygon fill="#191970" stroke="#191970"
                     points="654.8528,-235.6223 644.456,-237.661 653.8549,-242.5508 654.8528,-235.6223"/>
        </g>
        <!-- Node18 -->
        <g id="node19" class="node">
            <title>Node18</title>
            <polygon fill="none" stroke="#bfbfbf"
                     points="662.1353,-220.5 662.1353,-238.5 735.9282,-238.5 735.9282,-220.5 662.1353,-220.5"/>
            <text text-anchor="middle" x="699.0317" y="-226.5" font-family="Helvetica,sans-Serif" font-size="10.00"
                  fill="#000000">gtkmm/grid.h
            </text>
        </g>
        <!-- Node10&#45;&gt;Node18 -->
        <g id="edge19" class="edge">
            <title>Node10&#45;&gt;Node18</title>
            <path fill="none" stroke="#191970"
                  d="M1042.3993,-277.9269C971.9387,-270.4118 855.6661,-256.9924 746.0476,-239.061"/>
            <polygon fill="#191970" stroke="#191970"
                     points="746.5787,-235.6013 736.142,-237.4251 745.4381,-242.5078 746.5787,-235.6013"/>
        </g>
        <!-- Node19 -->
        <g id="node20" class="node">
            <title>Node19</title>
            <polygon fill="none" stroke="#bfbfbf"
                     points="753.6846,-220.5 753.6846,-238.5 846.3789,-238.5 846.3789,-220.5 753.6846,-220.5"/>
            <text text-anchor="middle" x="800.0317" y="-226.5" font-family="Helvetica,sans-Serif" font-size="10.00"
                  fill="#000000">gtkmm/textview.h
            </text>
        </g>
        <!-- Node10&#45;&gt;Node19 -->
        <g id="edge20" class="edge">
            <title>Node10&#45;&gt;Node19</title>
            <path fill="none" stroke="#191970"
                  d="M1056.6807,-275.4795C1001.6386,-265.6185 913.6629,-249.8574 856.3637,-239.592"/>
            <polygon fill="#191970" stroke="#191970"
                     points="856.8487,-236.1233 846.3882,-237.8049 855.6143,-243.0136 856.8487,-236.1233"/>
        </g>
        <!-- Node20 -->
        <g id="node21" class="node">
            <title>Node20</title>
            <polygon fill="none" stroke="#bfbfbf"
                     points="864.2881,-220.5 864.2881,-238.5 959.7754,-238.5 959.7754,-220.5 864.2881,-220.5"/>
            <text text-anchor="middle" x="912.0317" y="-226.5" font-family="Helvetica,sans-Serif" font-size="10.00"
                  fill="#000000">gtkmm/hvpaned.h
            </text>
        </g>
        <!-- Node10&#45;&gt;Node20 -->
        <g id="edge21" class="edge">
            <title>Node10&#45;&gt;Node20</title>
            <path fill="none" stroke="#191970"
                  d="M1074.8315,-275.4179C1041.7072,-266.0751 989.9729,-251.4834 953.7369,-241.263"/>
            <polygon fill="#191970" stroke="#191970"
                     points="954.5304,-237.8503 943.9558,-238.5042 952.6301,-244.5875 954.5304,-237.8503"/>
        </g>
        <!-- Node21 -->
        <g id="node22" class="node">
            <title>Node21</title>
            <polygon fill="none" stroke="#bfbfbf"
                     points="977.5171,-220.5 977.5171,-238.5 1078.5464,-238.5 1078.5464,-220.5 977.5171,-220.5"/>
            <text text-anchor="middle" x="1028.0317" y="-226.5" font-family="Helvetica,sans-Serif" font-size="10.00"
                  fill="#000000">gtkmm/listboxrow.h
            </text>
        </g>
        <!-- Node10&#45;&gt;Node21 -->
        <g id="edge22" class="edge">
            <title>Node10&#45;&gt;Node21</title>
            <path fill="none" stroke="#191970"
                  d="M1093.9865,-275.4179C1081.8649,-266.9788 1063.5918,-254.257 1049.3511,-244.3426"/>
            <polygon fill="#191970" stroke="#191970"
                     points="1051.3031,-241.4369 1041.0964,-238.5956 1047.3035,-247.1818 1051.3031,-241.4369"/>
        </g>
        <!-- Node22 -->
        <g id="node23" class="node">
            <title>Node22</title>
            <g id="a_node23">
                <a xlink:href="../../de/d01/_prescription_8hpp.html" target="_top"
                   xlink:title="../../model/Prescription.hpp">
                    <polygon fill="none" stroke="#000000"
                             points="1029.5591,-165.5 1029.5591,-183.5 1164.5044,-183.5 1164.5044,-165.5 1029.5591,-165.5"/>
                    <text text-anchor="middle" x="1097.0317" y="-171.5" font-family="Helvetica,sans-Serif"
                          font-size="10.00" fill="#000000">../../model/Prescription.hpp
                    </text>
                </a>
            </g>
        </g>
        <!-- Node10&#45;&gt;Node22 -->
        <g id="edge23" class="edge">
            <title>Node10&#45;&gt;Node22</title>
            <path fill="none" stroke="#191970"
                  d="M1106.2134,-275.4982C1104.5946,-257.6913 1100.952,-217.6225 1098.7728,-193.6515"/>
            <polygon fill="#191970" stroke="#191970"
                     points="1102.2525,-193.2682 1097.8614,-183.6261 1095.2812,-193.902 1102.2525,-193.2682"/>
        </g>
        <!-- Node10&#45;&gt;Node31 -->
        <g id="edge40" class="edge">
            <title>Node10&#45;&gt;Node31</title>
            <path fill="none" stroke="#191970"
                  d="M1171.8106,-282.0732C1287.169,-277.2901 1535.9381,-264.8922 1755.9053,-239.0207"/>
            <polygon fill="#191970" stroke="#191970"
                     points="1756.5093,-242.4737 1766.0265,-237.8183 1755.6834,-235.5226 1756.5093,-242.4737"/>
        </g>
        <!-- Node32 -->
        <g id="node33" class="node">
            <title>Node32</title>
            <g id="a_node33">
                <a xlink:href="../../d0/da9/_patient_8hpp.html" target="_top" xlink:title="../../model/Patient.hpp">
                    <polygon fill="none" stroke="#000000"
                             points="1135.3916,-220.5 1135.3916,-238.5 1248.6719,-238.5 1248.6719,-220.5 1135.3916,-220.5"/>
                    <text text-anchor="middle" x="1192.0317" y="-226.5" font-family="Helvetica,sans-Serif"
                          font-size="10.00" fill="#000000">../../model/Patient.hpp
                    </text>
                </a>
            </g>
        </g>
        <!-- Node10&#45;&gt;Node32 -->
        <g id="edge42" class="edge">
            <title>Node10&#45;&gt;Node32</title>
            <path fill="none" stroke="#191970"
                  d="M1121.0678,-275.4179C1134.2331,-266.8992 1154.1425,-254.0166 1169.5257,-244.0627"/>
            <polygon fill="#191970" stroke="#191970"
                     points="1171.4805,-246.9667 1177.9749,-238.5956 1167.6778,-241.0897 1171.4805,-246.9667"/>
        </g>
        <!-- Node23 -->
        <g id="node24" class="node">
            <title>Node23</title>
            <polygon fill="none" stroke="#bfbfbf"
                     points="1415.416,-.5 1415.416,-18.5 1458.6475,-18.5 1458.6475,-.5 1415.416,-.5"/>
            <text text-anchor="middle" x="1437.0317" y="-6.5" font-family="Helvetica,sans-Serif" font-size="10.00"
                  fill="#000000">vector
            </text>
        </g>
        <!-- Node22&#45;&gt;Node23 -->
        <g id="edge24" class="edge">
            <title>Node22&#45;&gt;Node23</title>
            <path fill="none" stroke="#191970"
                  d="M1164.8136,-168.965C1275.1707,-158.3758 1485.846,-131.0445 1530.0317,-74 1550.456,-47.632 1502.9074,-27.8737 1468.547,-17.5526"/>
            <polygon fill="#191970" stroke="#191970"
                     points="1469.4121,-14.1597 1458.8351,-14.7747 1467.4871,-20.8898 1469.4121,-14.1597"/>
        </g>
        <!-- Node24 -->
        <g id="node25" class="node">
            <title>Node24</title>
            <polygon fill="none" stroke="#bfbfbf"
                     points="1107.8052,-.5 1107.8052,-18.5 1148.2583,-18.5 1148.2583,-.5 1107.8052,-.5"/>
            <text text-anchor="middle" x="1128.0317" y="-6.5" font-family="Helvetica,sans-Serif" font-size="10.00"
                  fill="#000000">string
            </text>
        </g>
        <!-- Node22&#45;&gt;Node24 -->
        <g id="edge25" class="edge">
            <title>Node22&#45;&gt;Node24</title>
            <path fill="none" stroke="#191970"
                  d="M1066.8382,-165.3864C1012.8257,-147.5548 908.8141,-105.3645 948.0317,-55 966.2202,-31.6417 1050.9833,-18.3781 1097.4157,-12.7488"/>
            <polygon fill="#191970" stroke="#191970"
                     points="1097.9914,-16.2055 1107.5189,-11.5712 1097.1809,-9.2526 1097.9914,-16.2055"/>
        </g>
        <!-- Node25 -->
        <g id="node26" class="node">
            <title>Node25</title>
            <polygon fill="none" stroke="#bfbfbf"
                     points="911.3052,-.5 911.3052,-18.5 946.7583,-18.5 946.7583,-.5 911.3052,-.5"/>
            <text text-anchor="middle" x="929.0317" y="-6.5" font-family="Helvetica,sans-Serif" font-size="10.00"
                  fill="#000000">map
            </text>
        </g>
        <!-- Node22&#45;&gt;Node25 -->
        <g id="edge26" class="edge">
            <title>Node22&#45;&gt;Node25</title>
            <path fill="none" stroke="#191970"
                  d="M1054.5136,-165.4809C1017.7663,-156.899 968.3675,-143.2182 954.0317,-129 927.2889,-102.4764 925.6271,-55.1948 927.1122,-28.754"/>
            <polygon fill="#191970" stroke="#191970"
                     points="930.6221,-28.7607 927.9071,-18.5197 923.6431,-28.2186 930.6221,-28.7607"/>
        </g>
        <!-- Node26 -->
        <g id="node27" class="node">
            <title>Node26</title>
            <polygon fill="none" stroke="#bfbfbf"
                     points="1315.1206,-55.5 1315.1206,-73.5 1448.9429,-73.5 1448.9429,-55.5 1315.1206,-55.5"/>
            <text text-anchor="middle" x="1382.0317" y="-61.5" font-family="Helvetica,sans-Serif" font-size="10.00"
                  fill="#000000">gtkmm/treemodelcolumn.h
            </text>
        </g>
        <!-- Node22&#45;&gt;Node26 -->
        <g id="edge27" class="edge">
            <title>Node22&#45;&gt;Node26</title>
            <path fill="none" stroke="#191970"
                  d="M1159.1843,-165.4648C1197.2107,-158.5272 1246.2282,-147.0142 1287.0317,-129 1315.7123,-116.3379 1345.0067,-94.8914 1363.337,-80.2319"/>
            <polygon fill="#191970" stroke="#191970"
                     points="1365.8692,-82.683 1371.4041,-73.6489 1361.4435,-77.2596 1365.8692,-82.683"/>
        </g>
        <!-- Node27 -->
        <g id="node28" class="node">
            <title>Node27</title>
            <g id="a_node28">
                <a xlink:href="../../d3/d1b/_i_serializable_8hpp.html" target="_top"
                   xlink:title="../interfaces/ISerializable.hpp">
                    <polygon fill="none" stroke="#000000"
                             points="956.8301,-55.5 956.8301,-73.5 1101.2334,-73.5 1101.2334,-55.5 956.8301,-55.5"/>
                    <text text-anchor="middle" x="1029.0317" y="-61.5" font-family="Helvetica,sans-Serif"
                          font-size="10.00" fill="#000000">../interfaces/ISerializable.hpp
                    </text>
                </a>
            </g>
        </g>
        <!-- Node22&#45;&gt;Node27 -->
        <g id="edge28" class="edge">
            <title>Node22&#45;&gt;Node27</title>
            <path fill="none" stroke="#191970"
                  d="M1091.467,-165.4982C1080.2599,-147.369 1054.7881,-106.1647 1040.0761,-82.3659"/>
            <polygon fill="#191970" stroke="#191970"
                     points="1042.9087,-80.2917 1034.6734,-73.6261 1036.9545,-83.9725 1042.9087,-80.2917"/>
        </g>
        <!-- Node28 -->
        <g id="node29" class="node">
            <title>Node28</title>
            <g id="a_node29">
                <a xlink:href="../../dd/df9/_drug_8hpp.html" target="_top" xlink:title="Drug.hpp">
                    <polygon fill="none" stroke="#000000"
                             points="1220.4629,-110.5 1220.4629,-128.5 1277.6006,-128.5 1277.6006,-110.5 1220.4629,-110.5"/>
                    <text text-anchor="middle" x="1249.0317" y="-116.5" font-family="Helvetica,sans-Serif"
                          font-size="10.00" fill="#000000">Drug.hpp
                    </text>
                </a>
            </g>
        </g>
        <!-- Node22&#45;&gt;Node28 -->
        <g id="edge32" class="edge">
            <title>Node22&#45;&gt;Node28</title>
            <path fill="none" stroke="#191970"
                  d="M1122.1314,-165.4179C1147.3997,-156.2748 1186.5609,-142.1046 1214.6962,-131.924"/>
            <polygon fill="#191970" stroke="#191970"
                     points="1215.9349,-135.198 1224.1474,-128.5042 1213.5531,-128.6156 1215.9349,-135.198"/>
        </g>
        <!-- Node27&#45;&gt;Node23 -->
        <g id="edge31" class="edge">
            <title>Node27&#45;&gt;Node23</title>
            <path fill="none" stroke="#191970"
                  d="M1095.9478,-55.4795C1184.8198,-43.4992 1338.2958,-22.81 1404.7775,-13.848"/>
            <polygon fill="#191970" stroke="#191970"
                     points="1405.6029,-17.2685 1415.0456,-12.4638 1404.6677,-10.3312 1405.6029,-17.2685"/>
        </g>
        <!-- Node27&#45;&gt;Node24 -->
        <g id="edge29" class="edge">
            <title>Node27&#45;&gt;Node24</title>
            <path fill="none" stroke="#191970"
                  d="M1045.3796,-55.4179C1060.9999,-46.7399 1084.7715,-33.5334 1102.8179,-23.5077"/>
            <polygon fill="#191970" stroke="#191970"
                     points="1104.6178,-26.5117 1111.6596,-18.5956 1101.2183,-20.3925 1104.6178,-26.5117"/>
        </g>
        <!-- Node27&#45;&gt;Node25 -->
        <g id="edge30" class="edge">
            <title>Node27&#45;&gt;Node25</title>
            <path fill="none" stroke="#191970"
                  d="M1012.5188,-55.4179C996.7407,-46.7399 972.7289,-33.5334 954.5003,-23.5077"/>
            <polygon fill="#191970" stroke="#191970"
                     points="956.0181,-20.3481 945.5692,-18.5956 952.6447,-26.4816 956.0181,-20.3481"/>
        </g>
        <!-- Node28&#45;&gt;Node23 -->
        <g id="edge34" class="edge">
            <title>Node28&#45;&gt;Node23</title>
            <path fill="none" stroke="#191970"
                  d="M1254.9039,-110.2444C1264.1624,-96.3572 1283.442,-70.147 1306.0317,-55 1336.5297,-34.5503 1377.1849,-22.3175 1405.07,-15.7692"/>
            <polygon fill="#191970" stroke="#191970"
                     points="1406.0876,-19.1282 1415.0842,-13.5325 1404.5617,-12.2965 1406.0876,-19.1282"/>
        </g>
        <!-- Node28&#45;&gt;Node24 -->
        <g id="edge33" class="edge">
            <title>Node28&#45;&gt;Node24</title>
            <path fill="none" stroke="#191970"
                  d="M1248.6939,-110.4555C1247.7234,-96.8441 1244.0225,-70.9891 1230.0317,-55 1211.4293,-33.7404 1180.9655,-21.9423 1158.1656,-15.722"/>
            <polygon fill="#191970" stroke="#191970"
                     points="1158.8508,-12.2854 1148.2993,-13.2425 1157.1447,-19.0743 1158.8508,-12.2854"/>
        </g>
        <!-- Node28&#45;&gt;Node25 -->
        <g id="edge35" class="edge">
            <title>Node28&#45;&gt;Node25</title>
            <path fill="none" stroke="#191970"
                  d="M1220.3724,-118.9772C1153.2256,-117.1699 988.3613,-109.1707 948.0317,-74 935.1316,-62.75 930.7758,-43.228 929.4086,-28.6001"/>
            <polygon fill="#191970" stroke="#191970"
                     points="932.9017,-28.377 928.8536,-18.5861 925.9124,-28.7645 932.9017,-28.377"/>
        </g>
        <!-- Node28&#45;&gt;Node26 -->
        <g id="edge36" class="edge">
            <title>Node28&#45;&gt;Node26</title>
            <path fill="none" stroke="#191970"
                  d="M1270.994,-110.4179C1292.7489,-101.4215 1326.2732,-87.5581 1350.7957,-77.4172"/>
            <polygon fill="#191970" stroke="#191970"
                     points="1352.1334,-80.6515 1360.0369,-73.5956 1349.4583,-74.1828 1352.1334,-80.6515"/>
        </g>
        <!-- Node28&#45;&gt;Node27 -->
        <g id="edge39" class="edge">
            <title>Node28&#45;&gt;Node27</title>
            <path fill="none" stroke="#191970"
                  d="M1220.2706,-112.3097C1183.3158,-103.071 1118.7221,-86.9226 1074.9365,-75.9762"/>
            <polygon fill="#191970" stroke="#191970"
                     points="1075.6566,-72.5486 1065.1062,-73.5186 1073.9588,-79.3396 1075.6566,-72.5486"/>
        </g>
        <!-- Node29 -->
        <g id="node30" class="node">
            <title>Node29</title>
            <polygon fill="none" stroke="#bfbfbf"
                     points="1119.2388,-55.5 1119.2388,-73.5 1220.8247,-73.5 1220.8247,-55.5 1119.2388,-55.5"/>
            <text text-anchor="middle" x="1170.0317" y="-61.5" font-family="Helvetica,sans-Serif" font-size="10.00"
                  fill="#000000">gtkmm/treemodel.h
            </text>
        </g>
        <!-- Node28&#45;&gt;Node29 -->
        <g id="edge37" class="edge">
            <title>Node28&#45;&gt;Node29</title>
            <path fill="none" stroke="#191970"
                  d="M1235.9865,-110.4179C1223.8649,-101.9788 1205.5918,-89.257 1191.3511,-79.3426"/>
            <polygon fill="#191970" stroke="#191970"
                     points="1193.3031,-76.4369 1183.0964,-73.5956 1189.3035,-82.1818 1193.3031,-76.4369"/>
        </g>
        <!-- Node30 -->
        <g id="node31" class="node">
            <title>Node30</title>
            <polygon fill="none" stroke="#bfbfbf"
                     points="1466.8594,-55.5 1466.8594,-73.5 1521.2041,-73.5 1521.2041,-55.5 1466.8594,-55.5"/>
            <text text-anchor="middle" x="1494.0317" y="-61.5" font-family="Helvetica,sans-Serif" font-size="10.00"
                  fill="#000000">iostream
            </text>
        </g>
        <!-- Node28&#45;&gt;Node30 -->
        <g id="edge38" class="edge">
            <title>Node28&#45;&gt;Node30</title>
            <path fill="none" stroke="#191970"
                  d="M1277.8582,-113.6396C1316.4394,-105.706 1387.2183,-90.8374 1456.7466,-74.2385"/>
            <polygon fill="#191970" stroke="#191970"
                     points="1457.6393,-77.6237 1466.5456,-71.8853 1456.0048,-70.8172 1457.6393,-77.6237"/>
        </g>
        <!-- Node31&#45;&gt;Node30 -->
        <g id="edge41" class="edge">
            <title>Node31&#45;&gt;Node30</title>
            <path fill="none" stroke="#191970"
                  d="M1795.4265,-220.3939C1742.3772,-192.9546 1583.8347,-110.9498 1520.5486,-78.2156"/>
            <polygon fill="#191970" stroke="#191970"
                     points="1522.0727,-75.0635 1511.5825,-73.578 1518.8567,-81.2811 1522.0727,-75.0635"/>
        </g>
        <!-- Node32&#45;&gt;Node22 -->
        <g id="edge47" class="edge">
            <title>Node32&#45;&gt;Node22</title>
            <path fill="none" stroke="#191970"
                  d="M1176.3444,-220.4179C1161.4928,-211.8195 1138.9619,-198.7754 1121.7048,-188.7844"/>
            <polygon fill="#191970" stroke="#191970"
                     points="1123.1503,-185.577 1112.7424,-183.5956 1119.643,-191.635 1123.1503,-185.577"/>
        </g>
        <!-- Node32&#45;&gt;Node23 -->
        <g id="edge43" class="edge">
            <title>Node32&#45;&gt;Node23</title>
            <path fill="none" stroke="#191970"
                  d="M1248.8709,-221.5956C1314.0347,-210.2327 1421.5587,-184.2317 1497.0317,-129 1523.4514,-109.6659 1534.3799,-104.5947 1546.0317,-74 1559.5158,-38.5943 1505.4724,-21.63 1468.692,-14.3217"/>
            <polygon fill="#191970" stroke="#191970"
                     points="1469.3147,-10.8776 1458.8463,-12.5092 1468.0473,-17.7619 1469.3147,-10.8776"/>
        </g>
        <!-- Node32&#45;&gt;Node24 -->
        <g id="edge44" class="edge">
            <title>Node32&#45;&gt;Node24</title>
            <path fill="none" stroke="#191970"
                  d="M1222.6867,-220.4341C1314.2642,-192.617 1576.664,-107.208 1530.0317,-55 1505.331,-27.3459 1247.8567,-14.3552 1158.43,-10.6533"/>
            <polygon fill="#191970" stroke="#191970"
                     points="1158.5174,-7.154 1148.3843,-10.2475 1158.2348,-14.1483 1158.5174,-7.154"/>
        </g>
        <!-- Node32&#45;&gt;Node26 -->
        <g id="edge45" class="edge">
            <title>Node32&#45;&gt;Node26</title>
            <path fill="none" stroke="#191970"
                  d="M1204.0887,-220.4771C1226.7879,-203.3451 1277.1691,-164.6276 1317.0317,-129 1334.5044,-113.3836 1353.4062,-94.3661 1366.2983,-81.0419"/>
            <polygon fill="#191970" stroke="#191970"
                     points="1369.0791,-83.1993 1373.4823,-73.5628 1364.0308,-78.3502 1369.0791,-83.1993"/>
        </g>
        <!-- Node32&#45;&gt;Node27 -->
        <g id="edge46" class="edge">
            <title>Node32&#45;&gt;Node27</title>
            <path fill="none" stroke="#191970"
                  d="M1191.2484,-220.3301C1189.7144,-207.0131 1185.3086,-182.0531 1173.0317,-165 1143.5262,-124.0156 1091.913,-93.9917 1059.156,-77.9039"/>
            <polygon fill="#191970" stroke="#191970"
                     points="1060.5778,-74.7043 1050.046,-73.5499 1057.5592,-81.02 1060.5778,-74.7043"/>
        </g>
        <!-- Node33&#45;&gt;Node31 -->
        <g id="edge53" class="edge">
            <title>Node33&#45;&gt;Node31</title>
            <path fill="none" stroke="#191970"
                  d="M1813.0317,-275.4179C1813.0317,-268.2164 1813.0317,-257.8962 1813.0317,-248.8632"/>
            <polygon fill="#191970" stroke="#191970"
                     points="1816.5318,-248.7794 1813.0317,-238.7795 1809.5318,-248.7795 1816.5318,-248.7794"/>
        </g>
        <!-- Node34 -->
        <g id="node35" class="node">
            <title>Node34</title>
            <polygon fill="none" stroke="#bfbfbf"
                     points="2102.7256,-220.5 2102.7256,-238.5 2181.3379,-238.5 2181.3379,-220.5 2102.7256,-220.5"/>
            <text text-anchor="middle" x="2142.0317" y="-226.5" font-family="Helvetica,sans-Serif" font-size="10.00"
                  fill="#000000">gtkmm/entry.h
            </text>
        </g>
        <!-- Node33&#45;&gt;Node34 -->
        <g id="edge50" class="edge">
            <title>Node33&#45;&gt;Node34</title>
            <path fill="none" stroke="#191970"
                  d="M1848.8571,-276.7457C1851.9559,-276.133 1855.0464,-275.5424 1858.0317,-275 1959.2648,-256.6084 1987.809,-257.246 2092.4751,-239.211"/>
            <polygon fill="#191970" stroke="#191970"
                     points="2093.2527,-242.6284 2102.5048,-237.4662 2092.0529,-235.732 2093.2527,-242.6284"/>
        </g>
        <!-- Node35 -->
        <g id="node36" class="node">
            <title>Node35</title>
            <polygon fill="none" stroke="#bfbfbf"
                     points="1878.3447,-220.5 1878.3447,-238.5 1997.7188,-238.5 1997.7188,-220.5 1878.3447,-220.5"/>
            <text text-anchor="middle" x="1938.0317" y="-226.5" font-family="Helvetica,sans-Serif" font-size="10.00"
                  fill="#000000">gtkmm/comboboxtext.h
            </text>
        </g>
        <!-- Node33&#45;&gt;Node35 -->
        <g id="edge51" class="edge">
            <title>Node33&#45;&gt;Node35</title>
            <path fill="none" stroke="#191970"
                  d="M1833.6729,-275.4179C1853.9384,-266.5011 1885.0703,-252.803 1908.0607,-242.6873"/>
            <polygon fill="#191970" stroke="#191970"
                     points="1909.6163,-245.8267 1917.3599,-238.5956 1906.7971,-239.4195 1909.6163,-245.8267"/>
        </g>
        <!-- Node36 -->
        <g id="node37" class="node">
            <title>Node36</title>
            <polygon fill="none" stroke="#bfbfbf"
                     points="2015.3594,-220.5 2015.3594,-238.5 2084.7041,-238.5 2084.7041,-220.5 2015.3594,-220.5"/>
            <text text-anchor="middle" x="2050.0317" y="-226.5" font-family="Helvetica,sans-Serif" font-size="10.00"
                  fill="#000000">fmt/format.h
            </text>
        </g>
        <!-- Node33&#45;&gt;Node36 -->
        <g id="edge52" class="edge">
            <title>Node33&#45;&gt;Node36</title>
            <path fill="none" stroke="#191970"
                  d="M1849.0269,-276.1467C1890.9217,-266.4243 1960.1301,-250.3633 2005.405,-239.8564"/>
            <polygon fill="#191970" stroke="#191970"
                     points="2006.2947,-243.243 2015.2446,-237.573 2004.7122,-236.4242 2006.2947,-243.243"/>
        </g>
    </g>
</svg>
