<?xml version="1.0" encoding="UTF-8" standalone="no"?>
<!DOCTYPE svg PUBLIC "-//W3C//DTD SVG 1.1//EN"
        "http://www.w3.org/Graphics/SVG/1.1/DTD/svg11.dtd">
<!-- Generated by graphviz version 2.40.1 (20161225.0304)
 -->
<!-- Title: code/gui/PatientWindow.hpp Pages: 1 -->
<svg width="1970pt" height="302pt"
     viewBox="0.00 0.00 1969.85 302.00" xmlns="http://www.w3.org/2000/svg" xmlns:xlink="http://www.w3.org/1999/xlink">
    <g id="graph0" class="graph" transform="scale(1 1) rotate(0) translate(4 298)">
        <title>code/gui/PatientWindow.hpp</title>
        <!-- Node0 -->
        <g id="node1" class="node">
            <title>Node0</title>
            <polygon fill="#bfbfbf" stroke="#000000"
                     points="1199.0767,-275.5 1199.0767,-293.5 1341.2778,-293.5 1341.2778,-275.5 1199.0767,-275.5"/>
            <text text-anchor="middle" x="1270.1772" y="-281.5" font-family="Helvetica,sans-Serif" font-size="10.00"
                  fill="#000000">code/gui/PatientWindow.hpp
            </text>
        </g>
        <!-- Node1 -->
        <g id="node2" class="node">
            <title>Node1</title>
            <g id="a_node2">
                <a xlink:href="../../de/d0b/_window_8hpp.html" target="_top" xlink:title="Window.hpp">
                    <polygon fill="none" stroke="#000000"
                             points="76.936,-220.5 76.936,-238.5 147.4185,-238.5 147.4185,-220.5 76.936,-220.5"/>
                    <text text-anchor="middle" x="112.1772" y="-226.5" font-family="Helvetica,sans-Serif"
                          font-size="10.00" fill="#000000">Window.hpp
                    </text>
                </a>
            </g>
        </g>
        <!-- Node0&#45;&gt;Node1 -->
        <g id="edge1" class="edge">
            <title>Node0&#45;&gt;Node1</title>
            <path fill="none" stroke="#191970"
                  d="M1198.7833,-284.0251C1024.2082,-282.3202 561.9619,-274.5243 178.1772,-239 171.5167,-238.3835 164.5005,-237.5613 157.6286,-236.6577"/>
            <polygon fill="#191970" stroke="#191970"
                     points="158.1065,-233.1906 147.7218,-235.29 157.1492,-240.1248 158.1065,-233.1906"/>
        </g>
        <!-- Node7 -->
        <g id="node8" class="node">
            <title>Node7</title>
            <g id="a_node8">
                <a xlink:href="../../dc/de6/_dialog_8hpp.html" target="_top" xlink:title="Dialog.hpp">
                    <polygon fill="none" stroke="#000000"
                             points="187.271,-220.5 187.271,-238.5 251.0835,-238.5 251.0835,-220.5 187.271,-220.5"/>
                    <text text-anchor="middle" x="219.1772" y="-226.5" font-family="Helvetica,sans-Serif"
                          font-size="10.00" fill="#000000">Dialog.hpp
                    </text>
                </a>
            </g>
        </g>
        <!-- Node0&#45;&gt;Node7 -->
        <g id="edge7" class="edge">
            <title>Node0&#45;&gt;Node7</title>
            <path fill="none" stroke="#191970"
                  d="M1198.764,-280.7629C996.2279,-270.1639 422.3992,-240.1348 261.5555,-231.7177"/>
            <polygon fill="#191970" stroke="#191970"
                     points="261.7358,-228.2224 251.5665,-231.195 261.3699,-235.2129 261.7358,-228.2224"/>
        </g>
        <!-- Node9 -->
        <g id="node10" class="node">
            <title>Node9</title>
            <g id="a_node10">
                <a xlink:href="../../d5/d46/_custom_widgets_8hpp.html" target="_top"
                   xlink:title="view/CustomWidgets.hpp">
                    <polygon fill="none" stroke="#000000"
                             points="894.7661,-220.5 894.7661,-238.5 1023.5884,-238.5 1023.5884,-220.5 894.7661,-220.5"/>
                    <text text-anchor="middle" x="959.1772" y="-226.5" font-family="Helvetica,sans-Serif"
                          font-size="10.00" fill="#000000">view/CustomWidgets.hpp
                    </text>
                </a>
            </g>
        </g>
        <!-- Node0&#45;&gt;Node9 -->
        <g id="edge10" class="edge">
            <title>Node0&#45;&gt;Node9</title>
            <path fill="none" stroke="#191970"
                  d="M1219.1702,-275.4795C1164.7114,-265.8485 1078.4281,-250.5894 1020.3545,-240.3191"/>
            <polygon fill="#191970" stroke="#191970"
                     points="1020.6689,-236.8205 1010.2122,-238.5255 1019.4498,-243.7135 1020.6689,-236.8205"/>
        </g>
        <!-- Node14 -->
        <g id="node15" class="node">
            <title>Node14</title>
            <polygon fill="none" stroke="#bfbfbf"
                     points="285.3916,-165.5 285.3916,-183.5 376.9629,-183.5 376.9629,-165.5 285.3916,-165.5"/>
            <text text-anchor="middle" x="331.1772" y="-171.5" font-family="Helvetica,sans-Serif" font-size="10.00"
                  fill="#000000">gtkmm/liststore.h
            </text>
        </g>
        <!-- Node0&#45;&gt;Node14 -->
        <g id="edge43" class="edge">
            <title>Node0&#45;&gt;Node14</title>
            <path fill="none" stroke="#191970"
                  d="M1198.9557,-277.814C1050.1226,-263.5355 695.1311,-227.8771 387.0802,-184.0601"/>
            <polygon fill="#191970" stroke="#191970"
                     points="387.4562,-180.5784 377.0619,-182.6298 386.4668,-187.5081 387.4562,-180.5784"/>
        </g>
        <!-- Node27 -->
        <g id="node28" class="node">
            <title>Node27</title>
            <g id="a_node28">
                <a xlink:href="../../d8/d63/_date_8hpp.html" target="_top" xlink:title="../utils/Date.hpp">
                    <polygon fill="none" stroke="#000000"
                             points="1555.436,-165.5 1555.436,-183.5 1640.9185,-183.5 1640.9185,-165.5 1555.436,-165.5"/>
                    <text text-anchor="middle" x="1598.1772" y="-171.5" font-family="Helvetica,sans-Serif"
                          font-size="10.00" fill="#000000">../utils/Date.hpp
                    </text>
                </a>
            </g>
        </g>
        <!-- Node0&#45;&gt;Node27 -->
        <g id="edge35" class="edge">
            <title>Node0&#45;&gt;Node27</title>
            <path fill="none" stroke="#191970"
                  d="M1297.0189,-275.4982C1355.5216,-255.8784 1494.61,-209.2329 1561.289,-186.871"/>
            <polygon fill="#191970" stroke="#191970"
                     points="1562.5966,-190.1242 1570.9647,-183.6261 1560.3708,-183.4875 1562.5966,-190.1242"/>
        </g>
        <!-- Node29 -->
        <g id="node30" class="node">
            <title>Node29</title>
            <g id="a_node30">
                <a xlink:href="../../dc/d55/_widgets_8hpp.html" target="_top" xlink:title="Widgets.hpp">
                    <polygon fill="none" stroke="#000000"
                             points="1562.3843,-220.5 1562.3843,-238.5 1633.9702,-238.5 1633.9702,-220.5 1562.3843,-220.5"/>
                    <text text-anchor="middle" x="1598.1772" y="-226.5" font-family="Helvetica,sans-Serif"
                          font-size="10.00" fill="#000000">Widgets.hpp
                    </text>
                </a>
            </g>
        </g>
        <!-- Node0&#45;&gt;Node29 -->
        <g id="edge37" class="edge">
            <title>Node0&#45;&gt;Node29</title>
            <path fill="none" stroke="#191970"
                  d="M1323.9725,-275.4795C1387.5401,-264.8202 1492.2215,-247.267 1552.1787,-237.2132"/>
            <polygon fill="#191970" stroke="#191970"
                     points="1552.8354,-240.652 1562.1188,-235.5464 1551.6777,-233.7484 1552.8354,-240.652"/>
        </g>
        <!-- Node33 -->
        <g id="node34" class="node">
            <title>Node33</title>
            <polygon fill="none" stroke="#bfbfbf"
                     points="1651.6772,-220.5 1651.6772,-238.5 1680.6772,-238.5 1680.6772,-220.5 1651.6772,-220.5"/>
            <text text-anchor="middle" x="1665.7881" y="-226.5" font-family="Helvetica,sans-Serif" font-size="10.00"
                  fill="#000000">list
            </text>
        </g>
        <!-- Node0&#45;&gt;Node33 -->
        <g id="edge42" class="edge">
            <title>Node0&#45;&gt;Node33</title>
            <path fill="none" stroke="#191970"
                  d="M1341.3667,-281.531C1415.0051,-277.1812 1533.1491,-266.6244 1641.5018,-238.8901"/>
            <polygon fill="#191970" stroke="#191970"
                     points="1642.4952,-242.2481 1651.2842,-236.3317 1640.724,-235.4759 1642.4952,-242.2481"/>
        </g>
        <!-- Node34 -->
        <g id="node35" class="node">
            <title>Node34</title>
            <polygon fill="none" stroke="#bfbfbf"
                     points="1698.8818,-220.5 1698.8818,-238.5 1825.4727,-238.5 1825.4727,-220.5 1698.8818,-220.5"/>
            <text text-anchor="middle" x="1762.1772" y="-226.5" font-family="Helvetica,sans-Serif" font-size="10.00"
                  fill="#000000">gtkmm/treeviewcolumn.h
            </text>
        </g>
        <!-- Node0&#45;&gt;Node34 -->
        <g id="edge44" class="edge">
            <title>Node0&#45;&gt;Node34</title>
            <path fill="none" stroke="#191970"
                  d="M1341.5765,-277.2763C1423.0684,-268.9161 1560.6342,-254.4532 1688.6033,-239.1685"/>
            <polygon fill="#191970" stroke="#191970"
                     points="1689.0717,-242.6375 1698.5841,-237.9724 1688.2387,-235.6873 1689.0717,-242.6375"/>
        </g>
        <!-- Node2 -->
        <g id="node3" class="node">
            <title>Node2</title>
            <g id="a_node3">
                <a xlink:href="../../d1/d25/_i_subject_8hpp.html" target="_top"
                   xlink:title="../interfaces/ISubject.hpp">
                    <polygon fill="none" stroke="#000000"
                             points="26.1455,-165.5 26.1455,-183.5 152.209,-183.5 152.209,-165.5 26.1455,-165.5"/>
                    <text text-anchor="middle" x="89.1772" y="-171.5" font-family="Helvetica,sans-Serif"
                          font-size="10.00" fill="#000000">../interfaces/ISubject.hpp
                    </text>
                </a>
            </g>
        </g>
        <!-- Node1&#45;&gt;Node2 -->
        <g id="edge2" class="edge">
            <title>Node1&#45;&gt;Node2</title>
            <path fill="none" stroke="#191970"
                  d="M108.3793,-220.4179C105.3015,-213.0581 100.8617,-202.441 97.0263,-193.2695"/>
            <polygon fill="#191970" stroke="#191970"
                     points="100.1449,-191.6549 93.0577,-183.7795 93.6868,-194.3556 100.1449,-191.6549"/>
        </g>
        <!-- Node3 -->
        <g id="node4" class="node">
            <title>Node3</title>
            <polygon fill="none" stroke="#bfbfbf"
                     points="110.5073,-110.5 110.5073,-128.5 139.8472,-128.5 139.8472,-110.5 110.5073,-110.5"/>
            <text text-anchor="middle" x="125.1772" y="-116.5" font-family="Helvetica,sans-Serif" font-size="10.00"
                  fill="#000000">set
            </text>
        </g>
        <!-- Node2&#45;&gt;Node3 -->
        <g id="edge3" class="edge">
            <title>Node2&#45;&gt;Node3</title>
            <path fill="none" stroke="#191970"
                  d="M95.1219,-165.4179C100.0946,-157.8207 107.3391,-146.7527 113.4696,-137.3866"/>
            <polygon fill="#191970" stroke="#191970"
                     points="116.5552,-139.0633 119.1034,-128.7795 110.6983,-135.2297 116.5552,-139.0633"/>
        </g>
        <!-- Node4 -->
        <g id="node5" class="node">
            <title>Node4</title>
            <g id="a_node5">
                <a xlink:href="../../d5/d40/_i_observer_8hpp.html" target="_top" xlink:title="IObserver.hpp">
                    <polygon fill="none" stroke="#000000"
                             points="13.7686,-110.5 13.7686,-128.5 92.5859,-128.5 92.5859,-110.5 13.7686,-110.5"/>
                    <text text-anchor="middle" x="53.1772" y="-116.5" font-family="Helvetica,sans-Serif"
                          font-size="10.00" fill="#000000">IObserver.hpp
                    </text>
                </a>
            </g>
        </g>
        <!-- Node2&#45;&gt;Node4 -->
        <g id="edge4" class="edge">
            <title>Node2&#45;&gt;Node4</title>
            <path fill="none" stroke="#191970"
                  d="M83.2326,-165.4179C78.2599,-157.8207 71.0154,-146.7527 64.8848,-137.3866"/>
            <polygon fill="#191970" stroke="#191970"
                     points="67.6562,-135.2297 59.2511,-128.7795 61.7992,-139.0633 67.6562,-135.2297"/>
        </g>
        <!-- Node5 -->
        <g id="node6" class="node">
            <title>Node5</title>
            <polygon fill="none" stroke="#bfbfbf"
                     points="62.5615,-55.5 62.5615,-73.5 105.793,-73.5 105.793,-55.5 62.5615,-55.5"/>
            <text text-anchor="middle" x="84.1772" y="-61.5" font-family="Helvetica,sans-Serif" font-size="10.00"
                  fill="#000000">mutex
            </text>
        </g>
        <!-- Node4&#45;&gt;Node5 -->
        <g id="edge5" class="edge">
            <title>Node4&#45;&gt;Node5</title>
            <path fill="none" stroke="#191970"
                  d="M58.2963,-110.4179C62.5337,-102.8998 68.6869,-91.9829 73.9304,-82.6799"/>
            <polygon fill="#191970" stroke="#191970"
                     points="77.0859,-84.2096 78.947,-73.7795 70.9878,-80.7724 77.0859,-84.2096"/>
        </g>
        <!-- Node6 -->
        <g id="node7" class="node">
            <title>Node6</title>
            <polygon fill="none" stroke="#bfbfbf" points="0,-55.5 0,-73.5 44.3545,-73.5 44.3545,-55.5 0,-55.5"/>
            <text text-anchor="middle" x="22.1772" y="-61.5" font-family="Helvetica,sans-Serif" font-size="10.00"
                  fill="#000000">thread
            </text>
        </g>
        <!-- Node4&#45;&gt;Node6 -->
        <g id="edge6" class="edge">
            <title>Node4&#45;&gt;Node6</title>
            <path fill="none" stroke="#191970"
                  d="M48.0582,-110.4179C43.8208,-102.8998 37.6676,-91.9829 32.4241,-82.6799"/>
            <polygon fill="#191970" stroke="#191970"
                     points="35.3667,-80.7724 27.4075,-73.7795 29.2686,-84.2096 35.3667,-80.7724"/>
        </g>
        <!-- Node7&#45;&gt;Node2 -->
        <g id="edge9" class="edge">
            <title>Node7&#45;&gt;Node2</title>
            <path fill="none" stroke="#191970"
                  d="M197.7104,-220.4179C176.5403,-211.4613 143.9679,-197.6806 120.0274,-187.552"/>
            <polygon fill="#191970" stroke="#191970"
                     points="121.2494,-184.2687 110.676,-183.5956 118.5219,-190.7155 121.2494,-184.2687"/>
        </g>
        <!-- Node8 -->
        <g id="node9" class="node">
            <title>Node8</title>
            <polygon fill="none" stroke="#bfbfbf"
                     points="170.5986,-165.5 170.5986,-183.5 267.7559,-183.5 267.7559,-165.5 170.5986,-165.5"/>
            <text text-anchor="middle" x="219.1772" y="-171.5" font-family="Helvetica,sans-Serif" font-size="10.00"
                  fill="#000000">sigc++/trackable.h
            </text>
        </g>
        <!-- Node7&#45;&gt;Node8 -->
        <g id="edge8" class="edge">
            <title>Node7&#45;&gt;Node8</title>
            <path fill="none" stroke="#191970"
                  d="M219.1772,-220.4179C219.1772,-213.2164 219.1772,-202.8962 219.1772,-193.8632"/>
            <polygon fill="#191970" stroke="#191970"
                     points="222.6773,-193.7794 219.1772,-183.7795 215.6773,-193.7795 222.6773,-193.7794"/>
        </g>
        <!-- Node10 -->
        <g id="node11" class="node">
            <title>Node10</title>
            <polygon fill="none" stroke="#bfbfbf"
                     points="1439.042,-165.5 1439.042,-183.5 1537.3125,-183.5 1537.3125,-165.5 1439.042,-165.5"/>
            <text text-anchor="middle" x="1488.1772" y="-171.5" font-family="Helvetica,sans-Serif" font-size="10.00"
                  fill="#000000">gtkmm/expander.h
            </text>
        </g>
        <!-- Node9&#45;&gt;Node10 -->
        <g id="edge11" class="edge">
            <title>Node9&#45;&gt;Node10</title>
            <path fill="none" stroke="#191970"
                  d="M1023.9438,-224.5317C1112.7669,-217.4283 1277.5829,-203.2135 1429.0022,-183.9406"/>
            <polygon fill="#191970" stroke="#191970"
                     points="1429.4822,-187.4078 1438.9556,-182.6638 1428.5915,-180.4647 1429.4822,-187.4078"/>
        </g>
        <!-- Node11 -->
        <g id="node12" class="node">
            <title>Node11</title>
            <polygon fill="none" stroke="#bfbfbf"
                     points="394.9878,-165.5 394.9878,-183.5 519.3667,-183.5 519.3667,-165.5 394.9878,-165.5"/>
            <text text-anchor="middle" x="457.1772" y="-171.5" font-family="Helvetica,sans-Serif" font-size="10.00"
                  fill="#000000">gtkmm/scrolledwindow.h
            </text>
        </g>
        <!-- Node9&#45;&gt;Node11 -->
        <g id="edge12" class="edge">
            <title>Node9&#45;&gt;Node11</title>
            <path fill="none" stroke="#191970"
                  d="M894.4926,-223.2379C812.1878,-215.1433 665.373,-200.2811 529.6688,-184.1523"/>
            <polygon fill="#191970" stroke="#191970"
                     points="529.8472,-180.6488 519.5029,-182.9392 529.0177,-187.5995 529.8472,-180.6488"/>
        </g>
        <!-- Node12 -->
        <g id="node13" class="node">
            <title>Node12</title>
            <polygon fill="none" stroke="#bfbfbf"
                     points="537.6553,-165.5 537.6553,-183.5 648.6992,-183.5 648.6992,-165.5 537.6553,-165.5"/>
            <text text-anchor="middle" x="593.1772" y="-171.5" font-family="Helvetica,sans-Serif" font-size="10.00"
                  fill="#000000">gtkmm/checkbutton.h
            </text>
        </g>
        <!-- Node9&#45;&gt;Node12 -->
        <g id="edge13" class="edge">
            <title>Node9&#45;&gt;Node12</title>
            <path fill="none" stroke="#191970"
                  d="M899.1496,-220.4795C833.0824,-210.5513 727.2156,-194.6424 658.9443,-184.383"/>
            <polygon fill="#191970" stroke="#191970"
                     points="659.1471,-180.8743 648.738,-182.8493 658.1068,-187.7966 659.1471,-180.8743"/>
        </g>
        <!-- Node13 -->
        <g id="node14" class="node">
            <title>Node13</title>
            <polygon fill="none" stroke="#bfbfbf"
                     points="666.2734,-165.5 666.2734,-183.5 760.0811,-183.5 760.0811,-165.5 666.2734,-165.5"/>
            <text text-anchor="middle" x="713.1772" y="-171.5" font-family="Helvetica,sans-Serif" font-size="10.00"
                  fill="#000000">gtkmm/treeview.h
            </text>
        </g>
        <!-- Node9&#45;&gt;Node13 -->
        <g id="edge14" class="edge">
            <title>Node9&#45;&gt;Node13</title>
            <path fill="none" stroke="#191970"
                  d="M918.8308,-220.4795C876.3784,-210.9881 809.4772,-196.0305 763.5794,-185.7688"/>
            <polygon fill="#191970" stroke="#191970"
                     points="764.0685,-182.2918 753.5457,-183.5255 762.5411,-189.1231 764.0685,-182.2918"/>
        </g>
        <!-- Node9&#45;&gt;Node14 -->
        <g id="edge15" class="edge">
            <title>Node9&#45;&gt;Node14</title>
            <path fill="none" stroke="#191970"
                  d="M894.5312,-226.3052C790.0655,-220.7159 577.4862,-207.5774 387.2362,-184.0214"/>
            <polygon fill="#191970" stroke="#191970"
                     points="387.4033,-180.5151 377.0462,-182.747 386.5345,-187.461 387.4033,-180.5151"/>
        </g>
        <!-- Node15 -->
        <g id="node16" class="node">
            <title>Node15</title>
            <polygon fill="none" stroke="#bfbfbf"
                     points="778.5566,-165.5 778.5566,-183.5 851.7979,-183.5 851.7979,-165.5 778.5566,-165.5"/>
            <text text-anchor="middle" x="815.1772" y="-171.5" font-family="Helvetica,sans-Serif" font-size="10.00"
                  fill="#000000">gtkmm/box.h
            </text>
        </g>
        <!-- Node9&#45;&gt;Node15 -->
        <g id="edge16" class="edge">
            <title>Node9&#45;&gt;Node15</title>
            <path fill="none" stroke="#191970"
                  d="M935.3986,-220.4179C911.7401,-211.3817 875.226,-197.4353 848.6449,-187.2828"/>
            <polygon fill="#191970" stroke="#191970"
                     points="849.5819,-183.8941 838.9912,-183.5956 847.0842,-190.4334 849.5819,-183.8941"/>
        </g>
        <!-- Node16 -->
        <g id="node17" class="node">
            <title>Node16</title>
            <polygon fill="none" stroke="#bfbfbf"
                     points="869.8374,-165.5 869.8374,-183.5 952.5171,-183.5 952.5171,-165.5 869.8374,-165.5"/>
            <text text-anchor="middle" x="911.1772" y="-171.5" font-family="Helvetica,sans-Serif" font-size="10.00"
                  fill="#000000">gtkmm/frame.h
            </text>
        </g>
        <!-- Node9&#45;&gt;Node16 -->
        <g id="edge17" class="edge">
            <title>Node9&#45;&gt;Node16</title>
            <path fill="none" stroke="#191970"
                  d="M951.251,-220.4179C944.4135,-212.5833 934.3547,-201.0575 926.0256,-191.5137"/>
            <polygon fill="#191970" stroke="#191970"
                     points="928.4881,-189.0123 919.2757,-183.7795 923.2141,-193.6151 928.4881,-189.0123"/>
        </g>
        <!-- Node17 -->
        <g id="node18" class="node">
            <title>Node17</title>
            <polygon fill="none" stroke="#bfbfbf"
                     points="970.2808,-165.5 970.2808,-183.5 1044.0737,-183.5 1044.0737,-165.5 970.2808,-165.5"/>
            <text text-anchor="middle" x="1007.1772" y="-171.5" font-family="Helvetica,sans-Serif" font-size="10.00"
                  fill="#000000">gtkmm/grid.h
            </text>
        </g>
        <!-- Node9&#45;&gt;Node17 -->
        <g id="edge18" class="edge">
            <title>Node9&#45;&gt;Node17</title>
            <path fill="none" stroke="#191970"
                  d="M967.1035,-220.4179C973.9409,-212.5833 983.9998,-201.0575 992.3289,-191.5137"/>
            <polygon fill="#191970" stroke="#191970"
                     points="995.1404,-193.6151 999.0788,-183.7795 989.8664,-189.0123 995.1404,-193.6151"/>
        </g>
        <!-- Node18 -->
        <g id="node19" class="node">
            <title>Node18</title>
            <polygon fill="none" stroke="#bfbfbf"
                     points="1061.8301,-165.5 1061.8301,-183.5 1154.5244,-183.5 1154.5244,-165.5 1061.8301,-165.5"/>
            <text text-anchor="middle" x="1108.1772" y="-171.5" font-family="Helvetica,sans-Serif" font-size="10.00"
                  fill="#000000">gtkmm/textview.h
            </text>
        </g>
        <!-- Node9&#45;&gt;Node18 -->
        <g id="edge19" class="edge">
            <title>Node9&#45;&gt;Node18</title>
            <path fill="none" stroke="#191970"
                  d="M983.7816,-220.4179C1008.3693,-211.3419 1046.3766,-197.3123 1073.9105,-187.1488"/>
            <polygon fill="#191970" stroke="#191970"
                     points="1075.3671,-190.342 1083.5364,-183.5956 1072.9431,-183.7751 1075.3671,-190.342"/>
        </g>
        <!-- Node19 -->
        <g id="node20" class="node">
            <title>Node19</title>
            <polygon fill="none" stroke="#bfbfbf"
                     points="1172.4336,-165.5 1172.4336,-183.5 1267.9209,-183.5 1267.9209,-165.5 1172.4336,-165.5"/>
            <text text-anchor="middle" x="1220.1772" y="-171.5" font-family="Helvetica,sans-Serif" font-size="10.00"
                  fill="#000000">gtkmm/hvpaned.h
            </text>
        </g>
        <!-- Node9&#45;&gt;Node19 -->
        <g id="edge20" class="edge">
            <title>Node9&#45;&gt;Node19</title>
            <path fill="none" stroke="#191970"
                  d="M1001.9838,-220.4795C1047.214,-210.9482 1118.6022,-195.9047 1167.3144,-185.6397"/>
            <polygon fill="#191970" stroke="#191970"
                     points="1168.2839,-189.0123 1177.3473,-183.5255 1166.8405,-182.1628 1168.2839,-189.0123"/>
        </g>
        <!-- Node20 -->
        <g id="node21" class="node">
            <title>Node20</title>
            <g id="a_node21">
                <a xlink:href="../../de/d01/_prescription_8hpp.html" target="_top"
                   xlink:title="../../model/Prescription.hpp">
                    <polygon fill="none" stroke="#000000"
                             points="1285.7046,-165.5 1285.7046,-183.5 1420.6499,-183.5 1420.6499,-165.5 1285.7046,-165.5"/>
                    <text text-anchor="middle" x="1353.1772" y="-171.5" font-family="Helvetica,sans-Serif"
                          font-size="10.00" fill="#000000">../../model/Prescription.hpp
                    </text>
                </a>
            </g>
        </g>
        <!-- Node9&#45;&gt;Node20 -->
        <g id="edge21" class="edge">
            <title>Node9&#45;&gt;Node20</title>
            <path fill="none" stroke="#191970"
                  d="M1023.7971,-220.4795C1093.6469,-210.7288 1204.8227,-195.2094 1278.398,-184.9387"/>
            <polygon fill="#191970" stroke="#191970"
                     points="1279.102,-188.3745 1288.5221,-183.5255 1278.1342,-181.4417 1279.102,-188.3745"/>
        </g>
        <!-- Node21 -->
        <g id="node22" class="node">
            <title>Node21</title>
            <polygon fill="none" stroke="#bfbfbf"
                     points="1124.5615,-55.5 1124.5615,-73.5 1167.793,-73.5 1167.793,-55.5 1124.5615,-55.5"/>
            <text text-anchor="middle" x="1146.1772" y="-61.5" font-family="Helvetica,sans-Serif" font-size="10.00"
                  fill="#000000">vector
            </text>
        </g>
        <!-- Node20&#45;&gt;Node21 -->
        <g id="edge22" class="edge">
            <title>Node20&#45;&gt;Node21</title>
            <path fill="none" stroke="#191970"
                  d="M1336.2376,-165.4982C1300.1506,-146.3216 1215.4777,-101.3263 1172.3776,-78.4229"/>
            <polygon fill="#191970" stroke="#191970"
                     points="1173.824,-75.2281 1163.351,-73.6261 1170.5392,-81.4095 1173.824,-75.2281"/>
        </g>
        <!-- Node22 -->
        <g id="node23" class="node">
            <title>Node22</title>
            <polygon fill="none" stroke="#bfbfbf"
                     points="1175.9507,-.5 1175.9507,-18.5 1216.4038,-18.5 1216.4038,-.5 1175.9507,-.5"/>
            <text text-anchor="middle" x="1196.1772" y="-6.5" font-family="Helvetica,sans-Serif" font-size="10.00"
                  fill="#000000">string
            </text>
        </g>
        <!-- Node20&#45;&gt;Node22 -->
        <g id="edge23" class="edge">
            <title>Node20&#45;&gt;Node22</title>
            <path fill="none" stroke="#191970"
                  d="M1319.8715,-165.4659C1260.0144,-148.4691 1138.3135,-110.1811 1115.1772,-74 1099.2548,-49.1001 1137.195,-29.5791 1166.3797,-18.7984"/>
            <polygon fill="#191970" stroke="#191970"
                     points="1167.5694,-22.0903 1175.851,-15.4823 1165.2562,-15.4835 1167.5694,-22.0903"/>
        </g>
        <!-- Node23 -->
        <g id="node24" class="node">
            <title>Node23</title>
            <polygon fill="none" stroke="#bfbfbf"
                     points="1378.4507,-.5 1378.4507,-18.5 1413.9038,-18.5 1413.9038,-.5 1378.4507,-.5"/>
            <text text-anchor="middle" x="1396.1772" y="-6.5" font-family="Helvetica,sans-Serif" font-size="10.00"
                  fill="#000000">map
            </text>
        </g>
        <!-- Node20&#45;&gt;Node23 -->
        <g id="edge24" class="edge">
            <title>Node20&#45;&gt;Node23</title>
            <path fill="none" stroke="#191970"
                  d="M1408.9349,-165.4403C1459.9661,-153.872 1532.6266,-128.3968 1567.1772,-74 1571.7047,-66.8719 1572.3237,-61.6949 1567.1772,-55 1549.8375,-32.4431 1468.0684,-18.708 1424.1827,-12.8377"/>
            <polygon fill="#191970" stroke="#191970"
                     points="1424.5227,-9.3527 1414.1573,-11.5455 1423.6278,-16.2952 1424.5227,-9.3527"/>
        </g>
        <!-- Node24 -->
        <g id="node25" class="node">
            <title>Node24</title>
            <polygon fill="none" stroke="#bfbfbf"
                     points="1424.2661,-55.5 1424.2661,-73.5 1558.0884,-73.5 1558.0884,-55.5 1424.2661,-55.5"/>
            <text text-anchor="middle" x="1491.1772" y="-61.5" font-family="Helvetica,sans-Serif" font-size="10.00"
                  fill="#000000">gtkmm/treemodelcolumn.h
            </text>
        </g>
        <!-- Node20&#45;&gt;Node24 -->
        <g id="edge25" class="edge">
            <title>Node20&#45;&gt;Node24</title>
            <path fill="none" stroke="#191970"
                  d="M1364.4704,-165.4982C1388.023,-146.7244 1442.6194,-103.2055 1471.8633,-79.8952"/>
            <polygon fill="#191970" stroke="#191970"
                     points="1474.0899,-82.5962 1479.7281,-73.6261 1469.7267,-77.1224 1474.0899,-82.5962"/>
        </g>
        <!-- Node25 -->
        <g id="node26" class="node">
            <title>Node25</title>
            <g id="a_node26">
                <a xlink:href="../../d3/d1b/_i_serializable_8hpp.html" target="_top"
                   xlink:title="../interfaces/ISerializable.hpp">
                    <polygon fill="none" stroke="#000000"
                             points="1223.9756,-55.5 1223.9756,-73.5 1368.3789,-73.5 1368.3789,-55.5 1223.9756,-55.5"/>
                    <text text-anchor="middle" x="1296.1772" y="-61.5" font-family="Helvetica,sans-Serif"
                          font-size="10.00" fill="#000000">../interfaces/ISerializable.hpp
                    </text>
                </a>
            </g>
        </g>
        <!-- Node20&#45;&gt;Node25 -->
        <g id="edge26" class="edge">
            <title>Node20&#45;&gt;Node25</title>
            <path fill="none" stroke="#191970"
                  d="M1343.4468,-165.2425C1334.8854,-156.6025 1322.6524,-142.976 1315.1772,-129 1307.5209,-114.6853 1302.5761,-96.8897 1299.6561,-83.6191"/>
            <polygon fill="#191970" stroke="#191970"
                     points="1303.0668,-82.8258 1297.6646,-73.7117 1296.204,-84.2053 1303.0668,-82.8258"/>
        </g>
        <!-- Node26 -->
        <g id="node27" class="node">
            <title>Node26</title>
            <g id="a_node27">
                <a xlink:href="../../dd/df9/_drug_8hpp.html" target="_top" xlink:title="Drug.hpp">
                    <polygon fill="none" stroke="#000000"
                             points="1324.6084,-110.5 1324.6084,-128.5 1381.7461,-128.5 1381.7461,-110.5 1324.6084,-110.5"/>
                    <text text-anchor="middle" x="1353.1772" y="-116.5" font-family="Helvetica,sans-Serif"
                          font-size="10.00" fill="#000000">Drug.hpp
                    </text>
                </a>
            </g>
        </g>
        <!-- Node20&#45;&gt;Node26 -->
        <g id="edge29" class="edge">
            <title>Node20&#45;&gt;Node26</title>
            <path fill="none" stroke="#191970"
                  d="M1353.1772,-165.4179C1353.1772,-158.2164 1353.1772,-147.8962 1353.1772,-138.8632"/>
            <polygon fill="#191970" stroke="#191970"
                     points="1356.6773,-138.7794 1353.1772,-128.7795 1349.6773,-138.7795 1356.6773,-138.7794"/>
        </g>
        <!-- Node25&#45;&gt;Node22 -->
        <g id="edge27" class="edge">
            <title>Node25&#45;&gt;Node22</title>
            <path fill="none" stroke="#191970"
                  d="M1279.6643,-55.4179C1263.8862,-46.7399 1239.8744,-33.5334 1221.6458,-23.5077"/>
            <polygon fill="#191970" stroke="#191970"
                     points="1223.1636,-20.3481 1212.7147,-18.5956 1219.7902,-26.4816 1223.1636,-20.3481"/>
        </g>
        <!-- Node25&#45;&gt;Node23 -->
        <g id="edge28" class="edge">
            <title>Node25&#45;&gt;Node23</title>
            <path fill="none" stroke="#191970"
                  d="M1312.6902,-55.4179C1328.4683,-46.7399 1352.4801,-33.5334 1370.7087,-23.5077"/>
            <polygon fill="#191970" stroke="#191970"
                     points="1372.5643,-26.4816 1379.6397,-18.5956 1369.1908,-20.3481 1372.5643,-26.4816"/>
        </g>
        <!-- Node26&#45;&gt;Node21 -->
        <g id="edge31" class="edge">
            <title>Node26&#45;&gt;Node21</title>
            <path fill="none" stroke="#191970"
                  d="M1324.3948,-111.8525C1285.8677,-101.6158 1217.7642,-83.5207 1177.8293,-72.91"/>
            <polygon fill="#191970" stroke="#191970"
                     points="1178.6424,-69.5046 1168.0789,-70.3193 1176.8448,-76.2699 1178.6424,-69.5046"/>
        </g>
        <!-- Node26&#45;&gt;Node22 -->
        <g id="edge30" class="edge">
            <title>Node26&#45;&gt;Node22</title>
            <path fill="none" stroke="#191970"
                  d="M1324.471,-113.3384C1288.7114,-105.1197 1230.4461,-89.7656 1215.1772,-74 1203.5143,-61.9575 1198.9574,-43.1284 1197.2042,-28.9167"/>
            <polygon fill="#191970" stroke="#191970"
                     points="1200.6713,-28.3856 1196.317,-18.7268 1193.6977,-28.9928 1200.6713,-28.3856"/>
        </g>
        <!-- Node26&#45;&gt;Node23 -->
        <g id="edge32" class="edge">
            <title>Node26&#45;&gt;Node23</title>
            <path fill="none" stroke="#191970"
                  d="M1358.7006,-110.3489C1363.9685,-101.3408 1371.8657,-87.0729 1377.1772,-74 1383.2192,-59.1293 1388.2521,-41.6256 1391.6167,-28.6073"/>
            <polygon fill="#191970" stroke="#191970"
                     points="1395.0181,-29.4324 1394.0363,-18.8832 1388.2252,-27.7422 1395.0181,-29.4324"/>
        </g>
        <!-- Node26&#45;&gt;Node24 -->
        <g id="edge33" class="edge">
            <title>Node26&#45;&gt;Node24</title>
            <path fill="none" stroke="#191970"
                  d="M1375.9651,-110.4179C1398.5379,-101.4215 1433.3225,-87.5581 1458.7669,-77.4172"/>
            <polygon fill="#191970" stroke="#191970"
                     points="1460.3619,-80.5493 1468.3555,-73.5956 1457.7703,-74.0467 1460.3619,-80.5493"/>
        </g>
        <!-- Node26&#45;&gt;Node25 -->
        <g id="edge34" class="edge">
            <title>Node26&#45;&gt;Node25</title>
            <path fill="none" stroke="#191970"
                  d="M1343.7649,-110.4179C1335.4813,-102.425 1323.2163,-90.5903 1313.2127,-80.9377"/>
            <polygon fill="#191970" stroke="#191970"
                     points="1315.4207,-78.2045 1305.7941,-73.7795 1310.5601,-83.2419 1315.4207,-78.2045"/>
        </g>
        <!-- Node28 -->
        <g id="node29" class="node">
            <title>Node28</title>
            <polygon fill="none" stroke="#bfbfbf"
                     points="1614.0049,-110.5 1614.0049,-128.5 1668.3496,-128.5 1668.3496,-110.5 1614.0049,-110.5"/>
            <text text-anchor="middle" x="1641.1772" y="-116.5" font-family="Helvetica,sans-Serif" font-size="10.00"
                  fill="#000000">iostream
            </text>
        </g>
        <!-- Node27&#45;&gt;Node28 -->
        <g id="edge36" class="edge">
            <title>Node27&#45;&gt;Node28</title>
            <path fill="none" stroke="#191970"
                  d="M1605.2778,-165.4179C1611.3412,-157.6624 1620.2323,-146.29 1627.6491,-136.8035"/>
            <polygon fill="#191970" stroke="#191970"
                     points="1630.5205,-138.8133 1633.9224,-128.7795 1625.0058,-134.5018 1630.5205,-138.8133"/>
        </g>
        <!-- Node29&#45;&gt;Node27 -->
        <g id="edge41" class="edge">
            <title>Node29&#45;&gt;Node27</title>
            <path fill="none" stroke="#191970"
                  d="M1598.1772,-220.4179C1598.1772,-213.2164 1598.1772,-202.8962 1598.1772,-193.8632"/>
            <polygon fill="#191970" stroke="#191970"
                     points="1601.6773,-193.7794 1598.1772,-183.7795 1594.6773,-193.7795 1601.6773,-193.7794"/>
        </g>
        <!-- Node30 -->
        <g id="node31" class="node">
            <title>Node30</title>
            <polygon fill="none" stroke="#bfbfbf"
                     points="1658.8711,-165.5 1658.8711,-183.5 1737.4834,-183.5 1737.4834,-165.5 1658.8711,-165.5"/>
            <text text-anchor="middle" x="1698.1772" y="-171.5" font-family="Helvetica,sans-Serif" font-size="10.00"
                  fill="#000000">gtkmm/entry.h
            </text>
        </g>
        <!-- Node29&#45;&gt;Node30 -->
        <g id="edge38" class="edge">
            <title>Node29&#45;&gt;Node30</title>
            <path fill="none" stroke="#191970"
                  d="M1614.6902,-220.4179C1630.4683,-211.7399 1654.4801,-198.5334 1672.7087,-188.5077"/>
            <polygon fill="#191970" stroke="#191970"
                     points="1674.5643,-191.4816 1681.6397,-183.5956 1671.1908,-185.3481 1674.5643,-191.4816"/>
        </g>
        <!-- Node31 -->
        <g id="node32" class="node">
            <title>Node31</title>
            <polygon fill="none" stroke="#bfbfbf"
                     points="1755.4902,-165.5 1755.4902,-183.5 1874.8643,-183.5 1874.8643,-165.5 1755.4902,-165.5"/>
            <text text-anchor="middle" x="1815.1772" y="-171.5" font-family="Helvetica,sans-Serif" font-size="10.00"
                  fill="#000000">gtkmm/comboboxtext.h
            </text>
        </g>
        <!-- Node29&#45;&gt;Node31 -->
        <g id="edge39" class="edge">
            <title>Node29&#45;&gt;Node31</title>
            <path fill="none" stroke="#191970"
                  d="M1634.0104,-220.4179C1671.1868,-210.9953 1729.4283,-196.2336 1769.7971,-186.0019"/>
            <polygon fill="#191970" stroke="#191970"
                     points="1770.818,-189.3539 1779.6515,-183.5042 1769.0981,-182.5684 1770.818,-189.3539"/>
        </g>
        <!-- Node32 -->
        <g id="node33" class="node">
            <title>Node32</title>
            <polygon fill="none" stroke="#bfbfbf"
                     points="1892.5049,-165.5 1892.5049,-183.5 1961.8496,-183.5 1961.8496,-165.5 1892.5049,-165.5"/>
            <text text-anchor="middle" x="1927.1772" y="-171.5" font-family="Helvetica,sans-Serif" font-size="10.00"
                  fill="#000000">fmt/format.h
            </text>
        </g>
        <!-- Node29&#45;&gt;Node32 -->
        <g id="edge40" class="edge">
            <title>Node29&#45;&gt;Node32</title>
            <path fill="none" stroke="#191970"
                  d="M1634.0007,-221.7357C1637.0999,-221.1252 1640.1911,-220.5377 1643.1772,-220 1746.6398,-201.3687 1775.9798,-203.5432 1882.6149,-184.1924"/>
            <polygon fill="#191970" stroke="#191970"
                     points="1883.2818,-187.6286 1892.4854,-182.3804 1882.0178,-180.7437 1883.2818,-187.6286"/>
        </g>
    </g>
</svg>
