<?xml version="1.0" encoding="UTF-8" standalone="no"?>
<!DOCTYPE svg PUBLIC "-//W3C//DTD SVG 1.1//EN"
        "http://www.w3.org/Graphics/SVG/1.1/DTD/svg11.dtd">
<!-- Generated by graphviz version 2.40.1 (20161225.0304)
 -->
<!-- Title: code/MedH.hpp Pages: 1 -->
<svg width="294pt" height="247pt"
     viewBox="0.00 0.00 294.21 247.00" xmlns="http://www.w3.org/2000/svg" xmlns:xlink="http://www.w3.org/1999/xlink">
    <g id="graph0" class="graph" transform="scale(1 1) rotate(0) translate(4 243)">
        <title>code/MedH.hpp</title>
        <!-- Node0 -->
        <g id="node1" class="node">
            <title>Node0</title>
            <polygon fill="#bfbfbf" stroke="#000000"
                     points="88.8745,-220.5 88.8745,-238.5 175.4751,-238.5 175.4751,-220.5 88.8745,-220.5"/>
            <text text-anchor="middle" x="132.1748" y="-226.5" font-family="Helvetica,sans-Serif" font-size="10.00"
                  fill="#000000">code/MedH.hpp
            </text>
        </g>
        <!-- Node1 -->
        <g id="node2" class="node">
            <title>Node1</title>
            <polygon fill="none" stroke="#bfbfbf" points="0,-165.5 0,-183.5 104.3496,-183.5 104.3496,-165.5 0,-165.5"/>
            <text text-anchor="middle" x="52.1748" y="-171.5" font-family="Helvetica,sans-Serif" font-size="10.00"
                  fill="#000000">gtkmm&#45;3.0/gtkmm.h
            </text>
        </g>
        <!-- Node0&#45;&gt;Node1 -->
        <g id="edge1" class="edge">
            <title>Node0&#45;&gt;Node1</title>
            <path fill="none" stroke="#191970"
                  d="M118.9644,-220.4179C106.6894,-211.9788 88.1849,-199.257 73.764,-189.3426"/>
            <polygon fill="#191970" stroke="#191970"
                     points="75.6281,-186.3768 65.4048,-183.5956 71.6624,-192.1451 75.6281,-186.3768"/>
        </g>
        <!-- Node2 -->
        <g id="node3" class="node">
            <title>Node2</title>
            <g id="a_node3">
                <a xlink:href="../../d5/d40/_i_observer_8hpp.html" target="_top" xlink:title="interfaces/IObserver.hpp">
                    <polygon fill="none" stroke="#000000"
                             points="69.6997,-55.5 69.6997,-73.5 194.6499,-73.5 194.6499,-55.5 69.6997,-55.5"/>
                    <text text-anchor="middle" x="132.1748" y="-61.5" font-family="Helvetica,sans-Serif"
                          font-size="10.00" fill="#000000">interfaces/IObserver.hpp
                    </text>
                </a>
            </g>
        </g>
        <!-- Node0&#45;&gt;Node2 -->
        <g id="edge2" class="edge">
            <title>Node0&#45;&gt;Node2</title>
            <path fill="none" stroke="#191970"
                  d="M132.1748,-220.1561C132.1748,-193.9504 132.1748,-119.3557 132.1748,-83.8021"/>
            <polygon fill="#191970" stroke="#191970"
                     points="135.6749,-83.7414 132.1748,-73.7414 128.6749,-83.7414 135.6749,-83.7414"/>
        </g>
        <!-- Node5 -->
        <g id="node6" class="node">
            <title>Node5</title>
            <g id="a_node6">
                <a xlink:href="../../de/d0b/_window_8hpp.html" target="_top" xlink:title="gui/Window.hpp">
                    <polygon fill="none" stroke="#000000"
                             points="169.8721,-165.5 169.8721,-183.5 256.4775,-183.5 256.4775,-165.5 169.8721,-165.5"/>
                    <text text-anchor="middle" x="213.1748" y="-171.5" font-family="Helvetica,sans-Serif"
                          font-size="10.00" fill="#000000">gui/Window.hpp
                    </text>
                </a>
            </g>
        </g>
        <!-- Node0&#45;&gt;Node5 -->
        <g id="edge5" class="edge">
            <title>Node0&#45;&gt;Node5</title>
            <path fill="none" stroke="#191970"
                  d="M145.5503,-220.4179C157.9788,-211.9788 176.7145,-199.257 191.3158,-189.3426"/>
            <polygon fill="#191970" stroke="#191970"
                     points="193.4725,-192.1088 199.7794,-183.5956 189.5402,-186.3176 193.4725,-192.1088"/>
        </g>
        <!-- Node3 -->
        <g id="node4" class="node">
            <title>Node3</title>
            <polygon fill="none" stroke="#bfbfbf"
                     points="79.5591,-.5 79.5591,-18.5 122.7905,-18.5 122.7905,-.5 79.5591,-.5"/>
            <text text-anchor="middle" x="101.1748" y="-6.5" font-family="Helvetica,sans-Serif" font-size="10.00"
                  fill="#000000">mutex
            </text>
        </g>
        <!-- Node2&#45;&gt;Node3 -->
        <g id="edge3" class="edge">
            <title>Node2&#45;&gt;Node3</title>
            <path fill="none" stroke="#191970"
                  d="M127.0558,-55.4179C122.8183,-47.8998 116.6652,-36.9829 111.4216,-27.6799"/>
            <polygon fill="#191970" stroke="#191970"
                     points="114.3643,-25.7724 106.405,-18.7795 108.2662,-29.2096 114.3643,-25.7724"/>
        </g>
        <!-- Node4 -->
        <g id="node5" class="node">
            <title>Node4</title>
            <polygon fill="none" stroke="#bfbfbf"
                     points="140.9976,-.5 140.9976,-18.5 185.3521,-18.5 185.3521,-.5 140.9976,-.5"/>
            <text text-anchor="middle" x="163.1748" y="-6.5" font-family="Helvetica,sans-Serif" font-size="10.00"
                  fill="#000000">thread
            </text>
        </g>
        <!-- Node2&#45;&gt;Node4 -->
        <g id="edge4" class="edge">
            <title>Node2&#45;&gt;Node4</title>
            <path fill="none" stroke="#191970"
                  d="M137.2938,-55.4179C141.5313,-47.8998 147.6845,-36.9829 152.928,-27.6799"/>
            <polygon fill="#191970" stroke="#191970"
                     points="156.0834,-29.2096 157.9446,-18.7795 149.9853,-25.7724 156.0834,-29.2096"/>
        </g>
        <!-- Node6 -->
        <g id="node7" class="node">
            <title>Node6</title>
            <g id="a_node7">
                <a xlink:href="../../d1/d25/_i_subject_8hpp.html" target="_top"
                   xlink:title="../interfaces/ISubject.hpp">
                    <polygon fill="none" stroke="#000000"
                             points="160.1431,-110.5 160.1431,-128.5 286.2065,-128.5 286.2065,-110.5 160.1431,-110.5"/>
                    <text text-anchor="middle" x="223.1748" y="-116.5" font-family="Helvetica,sans-Serif"
                          font-size="10.00" fill="#000000">../interfaces/ISubject.hpp
                    </text>
                </a>
            </g>
        </g>
        <!-- Node5&#45;&gt;Node6 -->
        <g id="edge6" class="edge">
            <title>Node5&#45;&gt;Node6</title>
            <path fill="none" stroke="#191970"
                  d="M214.8261,-165.4179C216.1355,-158.2164 218.0119,-147.8962 219.6542,-138.8632"/>
            <polygon fill="#191970" stroke="#191970"
                     points="223.1422,-139.2443 221.4876,-128.7795 216.2552,-137.992 223.1422,-139.2443"/>
        </g>
        <!-- Node6&#45;&gt;Node2 -->
        <g id="edge8" class="edge">
            <title>Node6&#45;&gt;Node2</title>
            <path fill="none" stroke="#191970"
                  d="M208.148,-110.4179C193.9217,-101.8195 172.3395,-88.7754 155.809,-78.7844"/>
            <polygon fill="#191970" stroke="#191970"
                     points="157.5927,-75.7729 147.2239,-73.5956 153.9718,-81.7637 157.5927,-75.7729"/>
        </g>
        <!-- Node7 -->
        <g id="node8" class="node">
            <title>Node7</title>
            <polygon fill="none" stroke="#bfbfbf"
                     points="212.5049,-55.5 212.5049,-73.5 241.8447,-73.5 241.8447,-55.5 212.5049,-55.5"/>
            <text text-anchor="middle" x="227.1748" y="-61.5" font-family="Helvetica,sans-Serif" font-size="10.00"
                  fill="#000000">set
            </text>
        </g>
        <!-- Node6&#45;&gt;Node7 -->
        <g id="edge7" class="edge">
            <title>Node6&#45;&gt;Node7</title>
            <path fill="none" stroke="#191970"
                  d="M223.8353,-110.4179C224.3591,-103.2164 225.1096,-92.8962 225.7666,-83.8632"/>
            <polygon fill="#191970" stroke="#191970"
                     points="229.2653,-84.007 226.4999,-73.7795 222.2837,-83.4992 229.2653,-84.007"/>
        </g>
    </g>
</svg>
