<?xml version="1.0" encoding="UTF-8" standalone="no"?>
<!DOCTYPE svg PUBLIC "-//W3C//DTD SVG 1.1//EN"
        "http://www.w3.org/Graphics/SVG/1.1/DTD/svg11.dtd">
<!-- Generated by graphviz version 2.40.1 (20161225.0304)
 -->
<!-- Title: code/DBMaster.hpp Pages: 1 -->
<svg width="359pt" height="137pt"
     viewBox="0.00 0.00 359.24 137.00" xmlns="http://www.w3.org/2000/svg" xmlns:xlink="http://www.w3.org/1999/xlink">
    <g id="graph0" class="graph" transform="scale(1 1) rotate(0) translate(4 133)">
        <title>code/DBMaster.hpp</title>
        <!-- Node0 -->
        <g id="node1" class="node">
            <title>Node0</title>
            <polygon fill="#bfbfbf" stroke="#000000"
                     points="86.707,-110.5 86.707,-128.5 190.5391,-128.5 190.5391,-110.5 86.707,-110.5"/>
            <text text-anchor="middle" x="138.623" y="-116.5" font-family="Helvetica,sans-Serif" font-size="10.00"
                  fill="#000000">code/DBMaster.hpp
            </text>
        </g>
        <!-- Node1 -->
        <g id="node2" class="node">
            <title>Node1</title>
            <polygon fill="none" stroke="#bfbfbf" points="0,-55.5 0,-73.5 53.2461,-73.5 53.2461,-55.5 0,-55.5"/>
            <text text-anchor="middle" x="26.623" y="-61.5" font-family="Helvetica,sans-Serif" font-size="10.00"
                  fill="#000000">sqlite3.h
            </text>
        </g>
        <!-- Node0&#45;&gt;Node1 -->
        <g id="edge1" class="edge">
            <title>Node0&#45;&gt;Node1</title>
            <path fill="none" stroke="#191970"
                  d="M120.1285,-110.4179C102.2139,-101.6205 74.8219,-88.1691 54.3086,-78.0956"/>
            <polygon fill="#191970" stroke="#191970"
                     points="55.6639,-74.8619 45.145,-73.5956 52.5784,-81.1452 55.6639,-74.8619"/>
        </g>
        <!-- Node2 -->
        <g id="node3" class="node">
            <title>Node2</title>
            <polygon fill="none" stroke="#bfbfbf"
                     points="119.3965,-.5 119.3965,-18.5 159.8496,-18.5 159.8496,-.5 119.3965,-.5"/>
            <text text-anchor="middle" x="139.623" y="-6.5" font-family="Helvetica,sans-Serif" font-size="10.00"
                  fill="#000000">string
            </text>
        </g>
        <!-- Node0&#45;&gt;Node2 -->
        <g id="edge2" class="edge">
            <title>Node0&#45;&gt;Node2</title>
            <path fill="none" stroke="#191970"
                  d="M127.0093,-110.4147C113.1518,-98.3849 92.7771,-76.2097 100.623,-55 104.738,-43.8762 112.9219,-33.6367 120.7349,-25.6998"/>
            <polygon fill="#191970" stroke="#191970"
                     points="123.3993,-27.9973 128.2597,-18.5831 118.5894,-22.9116 123.3993,-27.9973"/>
        </g>
        <!-- Node3 -->
        <g id="node4" class="node">
            <title>Node3</title>
            <polygon fill="none" stroke="#bfbfbf"
                     points="109.2217,-55.5 109.2217,-73.5 168.0244,-73.5 168.0244,-55.5 109.2217,-55.5"/>
            <text text-anchor="middle" x="138.623" y="-61.5" font-family="Helvetica,sans-Serif" font-size="10.00"
                  fill="#000000">stdexcept
            </text>
        </g>
        <!-- Node0&#45;&gt;Node3 -->
        <g id="edge3" class="edge">
            <title>Node0&#45;&gt;Node3</title>
            <path fill="none" stroke="#191970"
                  d="M138.623,-110.4179C138.623,-103.2164 138.623,-92.8962 138.623,-83.8632"/>
            <polygon fill="#191970" stroke="#191970"
                     points="142.1231,-83.7794 138.623,-73.7795 135.1231,-83.7795 142.1231,-83.7794"/>
        </g>
        <!-- Node4 -->
        <g id="node5" class="node">
            <title>Node4</title>
            <polygon fill="none" stroke="#bfbfbf"
                     points="308.0073,-.5 308.0073,-18.5 351.2388,-18.5 351.2388,-.5 308.0073,-.5"/>
            <text text-anchor="middle" x="329.623" y="-6.5" font-family="Helvetica,sans-Serif" font-size="10.00"
                  fill="#000000">vector
            </text>
        </g>
        <!-- Node0&#45;&gt;Node4 -->
        <g id="edge4" class="edge">
            <title>Node0&#45;&gt;Node4</title>
            <path fill="none" stroke="#191970"
                  d="M190.7822,-114.3474C241.5433,-108.1278 313.4657,-95.6984 330.623,-74 340.5986,-61.3842 339.0674,-42.6251 335.8002,-28.5852"/>
            <polygon fill="#191970" stroke="#191970"
                     points="339.0567,-27.2338 332.9945,-18.5447 332.315,-29.1177 339.0567,-27.2338"/>
        </g>
        <!-- Node5 -->
        <g id="node6" class="node">
            <title>Node5</title>
            <g id="a_node6">
                <a xlink:href="../../d3/d1b/_i_serializable_8hpp.html" target="_top"
                   xlink:title="interfaces/ISerializable.hpp">
                    <polygon fill="none" stroke="#000000"
                             points="185.5889,-55.5 185.5889,-73.5 321.6572,-73.5 321.6572,-55.5 185.5889,-55.5"/>
                    <text text-anchor="middle" x="253.623" y="-61.5" font-family="Helvetica,sans-Serif"
                          font-size="10.00" fill="#000000">interfaces/ISerializable.hpp
                    </text>
                </a>
            </g>
        </g>
        <!-- Node0&#45;&gt;Node5 -->
        <g id="edge5" class="edge">
            <title>Node0&#45;&gt;Node5</title>
            <path fill="none" stroke="#191970"
                  d="M157.613,-110.4179C176.0907,-101.5807 204.3878,-88.0473 225.4814,-77.9591"/>
            <polygon fill="#191970" stroke="#191970"
                     points="227.0937,-81.0677 234.6049,-73.5956 224.0735,-74.7528 227.0937,-81.0677"/>
        </g>
        <!-- Node5&#45;&gt;Node2 -->
        <g id="edge6" class="edge">
            <title>Node5&#45;&gt;Node2</title>
            <path fill="none" stroke="#191970"
                  d="M234.7983,-55.4179C216.4812,-46.5807 188.4301,-33.0473 167.52,-22.9591"/>
            <polygon fill="#191970" stroke="#191970"
                     points="169.0033,-19.7887 158.4758,-18.5956 165.9615,-26.0933 169.0033,-19.7887"/>
        </g>
        <!-- Node5&#45;&gt;Node4 -->
        <g id="edge8" class="edge">
            <title>Node5&#45;&gt;Node4</title>
            <path fill="none" stroke="#191970"
                  d="M266.1729,-55.4179C277.7242,-47.0584 295.0823,-34.4966 308.7246,-24.6239"/>
            <polygon fill="#191970" stroke="#191970"
                     points="311.0053,-27.2938 317.0545,-18.5956 306.9014,-21.6229 311.0053,-27.2938"/>
        </g>
        <!-- Node6 -->
        <g id="node7" class="node">
            <title>Node6</title>
            <polygon fill="none" stroke="#bfbfbf"
                     points="235.8965,-.5 235.8965,-18.5 271.3496,-18.5 271.3496,-.5 235.8965,-.5"/>
            <text text-anchor="middle" x="253.623" y="-6.5" font-family="Helvetica,sans-Serif" font-size="10.00"
                  fill="#000000">map
            </text>
        </g>
        <!-- Node5&#45;&gt;Node6 -->
        <g id="edge7" class="edge">
            <title>Node5&#45;&gt;Node6</title>
            <path fill="none" stroke="#191970"
                  d="M253.623,-55.4179C253.623,-48.2164 253.623,-37.8962 253.623,-28.8632"/>
            <polygon fill="#191970" stroke="#191970"
                     points="257.1231,-28.7794 253.623,-18.7795 250.1231,-28.7795 257.1231,-28.7794"/>
        </g>
    </g>
</svg>
