<?xml version="1.0" encoding="UTF-8" standalone="no"?>
<!DOCTYPE svg PUBLIC "-//W3C//DTD SVG 1.1//EN"
        "http://www.w3.org/Graphics/SVG/1.1/DTD/svg11.dtd">
<!-- Generated by graphviz version 2.40.1 (20161225.0304)
 -->
<!-- Title: code/DBMaster.hpp Pages: 1 -->
<svg width="392pt" height="137pt"
     viewBox="0.00 0.00 391.66 137.00" xmlns="http://www.w3.org/2000/svg" xmlns:xlink="http://www.w3.org/1999/xlink">
    <g id="graph0" class="graph" transform="scale(1 1) rotate(0) translate(4 133)">
        <title>code/DBMaster.hpp</title>
        <!-- Node0 -->
        <g id="node1" class="node">
            <title>Node0</title>
            <polygon fill="#bfbfbf" stroke="#000000"
                     points="86.707,-110.5 86.707,-128.5 190.5391,-128.5 190.5391,-110.5 86.707,-110.5"/>
            <text text-anchor="middle" x="138.623" y="-116.5" font-family="Helvetica,sans-Serif" font-size="10.00"
                  fill="#000000">code/DBMaster.hpp
            </text>
        </g>
        <!-- Node1 -->
        <g id="node2" class="node">
            <title>Node1</title>
            <polygon fill="none" stroke="#bfbfbf" points="0,-55.5 0,-73.5 53.2461,-73.5 53.2461,-55.5 0,-55.5"/>
            <text text-anchor="middle" x="26.623" y="-61.5" font-family="Helvetica,sans-Serif" font-size="10.00"
                  fill="#000000">sqlite3.h
            </text>
        </g>
        <!-- Node0&#45;&gt;Node1 -->
        <g id="edge1" class="edge">
            <title>Node0&#45;&gt;Node1</title>
            <path fill="none" stroke="#191970"
                  d="M120.1285,-110.4179C102.2139,-101.6205 74.8219,-88.1691 54.3086,-78.0956"/>
            <polygon fill="#191970" stroke="#191970"
                     points="55.6639,-74.8619 45.145,-73.5956 52.5784,-81.1452 55.6639,-74.8619"/>
        </g>
        <!-- Node2 -->
        <g id="node3" class="node">
            <title>Node2</title>
            <polygon fill="none" stroke="#bfbfbf"
                     points="150.3965,-.5 150.3965,-18.5 190.8496,-18.5 190.8496,-.5 150.3965,-.5"/>
            <text text-anchor="middle" x="170.623" y="-6.5" font-family="Helvetica,sans-Serif" font-size="10.00"
                  fill="#000000">string
            </text>
        </g>
        <!-- Node0&#45;&gt;Node2 -->
        <g id="edge2" class="edge">
            <title>Node0&#45;&gt;Node2</title>
            <path fill="none" stroke="#191970"
                  d="M126.6131,-110.4303C111.7649,-98.0517 89.7125,-75.1047 100.623,-55 109.1866,-39.2201 125.8513,-28.0582 140.7726,-20.7399"/>
            <polygon fill="#191970" stroke="#191970"
                     points="142.5479,-23.7787 150.2237,-16.4758 139.6691,-17.3981 142.5479,-23.7787"/>
        </g>
        <!-- Node3 -->
        <g id="node4" class="node">
            <title>Node3</title>
            <polygon fill="none" stroke="#bfbfbf"
                     points="109.2217,-55.5 109.2217,-73.5 168.0244,-73.5 168.0244,-55.5 109.2217,-55.5"/>
            <text text-anchor="middle" x="138.623" y="-61.5" font-family="Helvetica,sans-Serif" font-size="10.00"
                  fill="#000000">stdexcept
            </text>
        </g>
        <!-- Node0&#45;&gt;Node3 -->
        <g id="edge3" class="edge">
            <title>Node0&#45;&gt;Node3</title>
            <path fill="none" stroke="#191970"
                  d="M138.623,-110.4179C138.623,-103.2164 138.623,-92.8962 138.623,-83.8632"/>
            <polygon fill="#191970" stroke="#191970"
                     points="142.1231,-83.7794 138.623,-73.7795 135.1231,-83.7795 142.1231,-83.7794"/>
        </g>
        <!-- Node4 -->
        <g id="node5" class="node">
            <title>Node4</title>
            <polygon fill="none" stroke="#bfbfbf"
                     points="186.0073,-55.5 186.0073,-73.5 229.2388,-73.5 229.2388,-55.5 186.0073,-55.5"/>
            <text text-anchor="middle" x="207.623" y="-61.5" font-family="Helvetica,sans-Serif" font-size="10.00"
                  fill="#000000">vector
            </text>
        </g>
        <!-- Node0&#45;&gt;Node4 -->
        <g id="edge4" class="edge">
            <title>Node0&#45;&gt;Node4</title>
            <path fill="none" stroke="#191970"
                  d="M150.017,-110.4179C160.3423,-102.1876 175.7778,-89.8839 188.0728,-80.0836"/>
            <polygon fill="#191970" stroke="#191970"
                     points="190.3434,-82.7495 195.9815,-73.7795 185.9802,-77.2757 190.3434,-82.7495"/>
        </g>
        <!-- Node5 -->
        <g id="node6" class="node">
            <title>Node5</title>
            <g id="a_node6">
                <a xlink:href="../../d3/d1b/_i_serializable_8hpp.html" target="_top"
                   xlink:title="interfaces/ISerializable.hpp">
                    <polygon fill="none" stroke="#000000"
                             points="247.5889,-55.5 247.5889,-73.5 383.6572,-73.5 383.6572,-55.5 247.5889,-55.5"/>
                    <text text-anchor="middle" x="315.623" y="-61.5" font-family="Helvetica,sans-Serif"
                          font-size="10.00" fill="#000000">interfaces/ISerializable.hpp
                    </text>
                </a>
            </g>
        </g>
        <!-- Node0&#45;&gt;Node5 -->
        <g id="edge5" class="edge">
            <title>Node0&#45;&gt;Node5</title>
            <path fill="none" stroke="#191970"
                  d="M167.851,-110.4179C197.6607,-101.155 244.0749,-86.7325 276.9212,-76.526"/>
            <polygon fill="#191970" stroke="#191970"
                     points="278.1349,-79.814 286.6459,-73.5042 276.0577,-73.1293 278.1349,-79.814"/>
        </g>
        <!-- Node5&#45;&gt;Node2 -->
        <g id="edge6" class="edge">
            <title>Node5&#45;&gt;Node2</title>
            <path fill="none" stroke="#191970"
                  d="M291.6792,-55.4179C266.7153,-45.9488 227.5364,-31.0878 200.5479,-20.8508"/>
            <polygon fill="#191970" stroke="#191970"
                     points="201.4475,-17.4488 190.8562,-17.1746 198.9649,-23.9937 201.4475,-17.4488"/>
        </g>
        <!-- Node6 -->
        <g id="node7" class="node">
            <title>Node6</title>
            <polygon fill="none" stroke="#bfbfbf"
                     points="297.8965,-.5 297.8965,-18.5 333.3496,-18.5 333.3496,-.5 297.8965,-.5"/>
            <text text-anchor="middle" x="315.623" y="-6.5" font-family="Helvetica,sans-Serif" font-size="10.00"
                  fill="#000000">map
            </text>
        </g>
        <!-- Node5&#45;&gt;Node6 -->
        <g id="edge7" class="edge">
            <title>Node5&#45;&gt;Node6</title>
            <path fill="none" stroke="#191970"
                  d="M315.623,-55.4179C315.623,-48.2164 315.623,-37.8962 315.623,-28.8632"/>
            <polygon fill="#191970" stroke="#191970"
                     points="319.1231,-28.7794 315.623,-18.7795 312.1231,-28.7795 319.1231,-28.7794"/>
        </g>
    </g>
</svg>
