<?xml version="1.0" encoding="UTF-8" standalone="no"?>
<!DOCTYPE svg PUBLIC "-//W3C//DTD SVG 1.1//EN"
        "http://www.w3.org/Graphics/SVG/1.1/DTD/svg11.dtd">
<!-- Generated by graphviz version 2.40.1 (20161225.0304)
 -->
<!-- Title: code/DBMaster.hpp Pages: 1 -->
<svg width="1362pt" height="147pt"
     viewBox="0.00 0.00 1362.47 147.00" xmlns="http://www.w3.org/2000/svg" xmlns:xlink="http://www.w3.org/1999/xlink">
    <g id="graph0" class="graph" transform="scale(1 1) rotate(0) translate(4 143)">
        <title>code/DBMaster.hpp</title>
        <!-- Node7 -->
        <g id="node1" class="node">
            <title>Node7</title>
            <polygon fill="#bfbfbf" stroke="#000000"
                     points="674.4653,-120.5 674.4653,-138.5 778.2974,-138.5 778.2974,-120.5 674.4653,-120.5"/>
            <text text-anchor="middle" x="726.3813" y="-126.5" font-family="Helvetica,sans-Serif" font-size="10.00"
                  fill="#000000">code/DBMaster.hpp
            </text>
        </g>
        <!-- Node8 -->
        <g id="node2" class="node">
            <title>Node8</title>
            <g id="a_node2">
                <a xlink:href="../../d7/d71/_d_b_master_8cpp.html" target="_top" xlink:title="code/DBMaster.cpp">
                    <polygon fill="none" stroke="#000000"
                             points="308.7461,-60.5 308.7461,-78.5 412.0166,-78.5 412.0166,-60.5 308.7461,-60.5"/>
                    <text text-anchor="middle" x="360.3813" y="-66.5" font-family="Helvetica,sans-Serif"
                          font-size="10.00" fill="#000000">code/DBMaster.cpp
                    </text>
                </a>
            </g>
        </g>
        <!-- Node7&#45;&gt;Node8 -->
        <g id="edge1" class="edge">
            <title>Node7&#45;&gt;Node8</title>
            <path fill="none" stroke="#191970"
                  d="M664.2481,-121.291C603.4386,-112.9711 508.272,-99.1886 426.3813,-84 417.6148,-82.374 408.2366,-80.4355 399.3824,-78.5134"/>
            <polygon fill="#191970" stroke="#191970"
                     points="664.067,-124.7986 674.4477,-122.6794 665.0111,-117.8625 664.067,-124.7986"/>
        </g>
        <!-- Node9 -->
        <g id="node3" class="node">
            <title>Node9</title>
            <g id="a_node3">
                <a xlink:href="../../db/db5/_add_patient_dialog_8cpp.html" target="_top"
                   xlink:title="code/gui/AddPatientDialog.cpp">
                    <polygon fill="none" stroke="#000000" points="0,-.5 0,-18.5 152.7627,-18.5 152.7627,-.5 0,-.5"/>
                    <text text-anchor="middle" x="76.3813" y="-6.5" font-family="Helvetica,sans-Serif" font-size="10.00"
                          fill="#000000">code/gui/AddPatientDialog.cpp
                    </text>
                </a>
            </g>
        </g>
        <!-- Node7&#45;&gt;Node9 -->
        <g id="edge2" class="edge">
            <title>Node7&#45;&gt;Node9</title>
            <path fill="none" stroke="#191970"
                  d="M664.2076,-123.1006C595.7516,-115.3558 490.5824,-101.1915 454.3813,-84 436.7439,-75.6242 439.1611,-63.0693 421.3813,-55 409.2783,-49.5071 250.7505,-30.0611 152.8526,-18.4437"/>
            <polygon fill="#191970" stroke="#191970"
                     points="664.1193,-126.6124 674.4456,-124.2421 664.8951,-119.6555 664.1193,-126.6124"/>
        </g>
        <!-- Node10 -->
        <g id="node4" class="node">
            <title>Node10</title>
            <g id="a_node4">
                <a xlink:href="../../dc/d00/_authentication_8hpp.html" target="_top"
                   xlink:title="code/model/Authentication.hpp">
                    <polygon fill="none" stroke="#000000"
                             points="506.7217,-60.5 506.7217,-78.5 660.041,-78.5 660.041,-60.5 506.7217,-60.5"/>
                    <text text-anchor="middle" x="583.3813" y="-66.5" font-family="Helvetica,sans-Serif"
                          font-size="10.00" fill="#000000">code/model/Authentication.hpp
                    </text>
                </a>
            </g>
        </g>
        <!-- Node7&#45;&gt;Node10 -->
        <g id="edge3" class="edge">
            <title>Node7&#45;&gt;Node10</title>
            <path fill="none" stroke="#191970"
                  d="M695.1653,-116.4023C667.819,-104.9284 628.8028,-88.558 604.8358,-78.5019"/>
            <polygon fill="#191970" stroke="#191970"
                     points="694.0873,-119.7456 704.6627,-120.3873 696.7957,-113.2908 694.0873,-119.7456"/>
        </g>
        <!-- Node11 -->
        <g id="node5" class="node">
            <title>Node11</title>
            <g id="a_node5">
                <a xlink:href="../../d6/d9e/_drug_window_8cpp.html" target="_top" xlink:title="code/gui/DrugWindow.cpp">
                    <polygon fill="none" stroke="#000000"
                             points="170.2905,-.5 170.2905,-18.5 302.4722,-18.5 302.4722,-.5 170.2905,-.5"/>
                    <text text-anchor="middle" x="236.3813" y="-6.5" font-family="Helvetica,sans-Serif"
                          font-size="10.00" fill="#000000">code/gui/DrugWindow.cpp
                    </text>
                </a>
            </g>
        </g>
        <!-- Node7&#45;&gt;Node11 -->
        <g id="edge12" class="edge">
            <title>Node7&#45;&gt;Node11</title>
            <path fill="none" stroke="#191970"
                  d="M664.1168,-123.8754C616.9275,-118.0278 551.2386,-106.4375 497.3813,-84 476.1029,-75.1352 475.6169,-63.9671 454.3813,-55 425.5757,-42.8363 346.1417,-27.8791 291.5567,-18.5145"/>
            <polygon fill="#191970" stroke="#191970"
                     points="663.8507,-127.3683 674.1937,-125.0719 664.6761,-120.4172 663.8507,-127.3683"/>
        </g>
        <!-- Node13 -->
        <g id="node7" class="node">
            <title>Node13</title>
            <g id="a_node7">
                <a xlink:href="../../d8/d35/_patient_window_8cpp.html" target="_top"
                   xlink:title="code/gui/PatientWindow.cpp">
                    <polygon fill="none" stroke="#000000"
                             points="643.5615,-.5 643.5615,-18.5 785.2012,-18.5 785.2012,-.5 643.5615,-.5"/>
                    <text text-anchor="middle" x="714.3813" y="-6.5" font-family="Helvetica,sans-Serif"
                          font-size="10.00" fill="#000000">code/gui/PatientWindow.cpp
                    </text>
                </a>
            </g>
        </g>
        <!-- Node7&#45;&gt;Node13 -->
        <g id="edge13" class="edge">
            <title>Node7&#45;&gt;Node13</title>
            <path fill="none" stroke="#191970"
                  d="M719.2231,-110.7241C716.501,-102.6305 713.7315,-92.9787 712.3813,-84 708.8798,-60.7134 711.3679,-32.8827 713.0989,-18.7389"/>
            <polygon fill="#191970" stroke="#191970"
                     points="715.9796,-112.048 722.6509,-120.2787 722.5684,-109.6842 715.9796,-112.048"/>
        </g>
        <!-- Node14 -->
        <g id="node8" class="node">
            <title>Node14</title>
            <g id="a_node8">
                <a xlink:href="../../d1/d16/_prescription_window_8cpp.html" target="_top"
                   xlink:title="code/gui/PrescriptionWindow.cpp">
                    <polygon fill="none" stroke="#000000"
                             points="802.729,-.5 802.729,-18.5 966.0337,-18.5 966.0337,-.5 802.729,-.5"/>
                    <text text-anchor="middle" x="884.3813" y="-6.5" font-family="Helvetica,sans-Serif"
                          font-size="10.00" fill="#000000">code/gui/PrescriptionWindow.cpp
                    </text>
                </a>
            </g>
        </g>
        <!-- Node7&#45;&gt;Node14 -->
        <g id="edge14" class="edge">
            <title>Node7&#45;&gt;Node14</title>
            <path fill="none" stroke="#191970"
                  d="M727.8382,-110.1377C730.0908,-93.4557 735.8198,-69.7918 750.3813,-55 768.9959,-36.0911 795.7536,-25.0386 820.4706,-18.579"/>
            <polygon fill="#191970" stroke="#191970"
                     points="724.3266,-110.067 726.7683,-120.3766 731.2887,-110.7945 724.3266,-110.067"/>
        </g>
        <!-- Node15 -->
        <g id="node9" class="node">
            <title>Node15</title>
            <g id="a_node9">
                <a xlink:href="../../d7/daf/_med_h_8cpp.html" target="_top" xlink:title="code/MedH.cpp">
                    <polygon fill="none" stroke="#000000"
                             points="984.3618,-.5 984.3618,-18.5 1070.4009,-18.5 1070.4009,-.5 984.3618,-.5"/>
                    <text text-anchor="middle" x="1027.3813" y="-6.5" font-family="Helvetica,sans-Serif"
                          font-size="10.00" fill="#000000">code/MedH.cpp
                    </text>
                </a>
            </g>
        </g>
        <!-- Node7&#45;&gt;Node15 -->
        <g id="edge15" class="edge">
            <title>Node7&#45;&gt;Node15</title>
            <path fill="none" stroke="#191970"
                  d="M735.2589,-111.3006C744.7109,-93.9577 761.344,-68.5425 783.3813,-55 784.4555,-54.3399 914.5013,-30.3024 984.2726,-17.4392"/>
            <polygon fill="#191970" stroke="#191970"
                     points="732.0232,-109.9381 730.537,-120.4282 738.2405,-113.1545 732.0232,-109.9381"/>
        </g>
        <!-- Node17 -->
        <g id="node11" class="node">
            <title>Node17</title>
            <g id="a_node11">
                <a xlink:href="../../df/de8/_add_prescription_dialog_8cpp.html" target="_top"
                   xlink:title="code/gui/AddPrescription\lDialog.cpp">
                    <polygon fill="none" stroke="#000000"
                             points="792.793,-55.5 792.793,-83.5 919.9697,-83.5 919.9697,-55.5 792.793,-55.5"/>
                    <text text-anchor="start" x="800.793" y="-71.5" font-family="Helvetica,sans-Serif" font-size="10.00"
                          fill="#000000">code/gui/AddPrescription
                    </text>
                    <text text-anchor="middle" x="856.3813" y="-61.5" font-family="Helvetica,sans-Serif"
                          font-size="10.00" fill="#000000">Dialog.cpp
                    </text>
                </a>
            </g>
        </g>
        <!-- Node7&#45;&gt;Node17 -->
        <g id="edge11" class="edge">
            <title>Node7&#45;&gt;Node17</title>
            <path fill="none" stroke="#191970"
                  d="M755.4639,-116.0773C776.3827,-106.4224 804.5362,-93.4285 825.7917,-83.6183"/>
            <polygon fill="#191970" stroke="#191970"
                     points="753.7384,-113.0188 746.1255,-120.3873 756.6719,-119.3745 753.7384,-113.0188"/>
        </g>
        <!-- Node18 -->
        <g id="node12" class="node">
            <title>Node18</title>
            <g id="a_node12">
                <a xlink:href="../../d3/da6/_doctor_8cpp.html" target="_top" xlink:title="code/model/Doctor.cpp">
                    <polygon fill="none" stroke="#000000"
                             points="938.2388,-60.5 938.2388,-78.5 1056.5239,-78.5 1056.5239,-60.5 938.2388,-60.5"/>
                    <text text-anchor="middle" x="997.3813" y="-66.5" font-family="Helvetica,sans-Serif"
                          font-size="10.00" fill="#000000">code/model/Doctor.cpp
                    </text>
                </a>
            </g>
        </g>
        <!-- Node7&#45;&gt;Node18 -->
        <g id="edge16" class="edge">
            <title>Node7&#45;&gt;Node18</title>
            <path fill="none" stroke="#191970"
                  d="M777.2426,-118.2392C829.1555,-106.7456 908.7133,-89.1313 956.6278,-78.5229"/>
            <polygon fill="#191970" stroke="#191970"
                     points="776.2532,-114.8734 767.2462,-120.4524 777.7664,-121.7079 776.2532,-114.8734"/>
        </g>
        <!-- Node19 -->
        <g id="node13" class="node">
            <title>Node19</title>
            <g id="a_node13">
                <a xlink:href="../../d0/d77/_patient_8cpp.html" target="_top" xlink:title="code/model/Patient.cpp">
                    <polygon fill="none" stroke="#000000"
                             points="1074.1255,-60.5 1074.1255,-78.5 1194.6372,-78.5 1194.6372,-60.5 1074.1255,-60.5"/>
                    <text text-anchor="middle" x="1134.3813" y="-66.5" font-family="Helvetica,sans-Serif"
                          font-size="10.00" fill="#000000">code/model/Patient.cpp
                    </text>
                </a>
            </g>
        </g>
        <!-- Node7&#45;&gt;Node19 -->
        <g id="edge17" class="edge">
            <title>Node7&#45;&gt;Node19</title>
            <path fill="none" stroke="#191970"
                  d="M788.6798,-122.5343C856.8407,-114.5883 969.2191,-100.5342 1065.3813,-84 1074.6705,-82.4028 1084.614,-80.4546 1093.9779,-78.5111"/>
            <polygon fill="#191970" stroke="#191970"
                     points="788.0711,-119.0813 778.5405,-123.7092 788.8769,-126.0348 788.0711,-119.0813"/>
        </g>
        <!-- Node20 -->
        <g id="node14" class="node">
            <title>Node20</title>
            <g id="a_node14">
                <a xlink:href="../../d5/db1/_prescription_8cpp.html" target="_top"
                   xlink:title="code/model/Prescription.cpp">
                    <polygon fill="none" stroke="#000000"
                             points="1212.293,-60.5 1212.293,-78.5 1354.4697,-78.5 1354.4697,-60.5 1212.293,-60.5"/>
                    <text text-anchor="middle" x="1283.3813" y="-66.5" font-family="Helvetica,sans-Serif"
                          font-size="10.00" fill="#000000">code/model/Prescription.cpp
                    </text>
                </a>
            </g>
        </g>
        <!-- Node7&#45;&gt;Node20 -->
        <g id="edge18" class="edge">
            <title>Node7&#45;&gt;Node20</title>
            <path fill="none" stroke="#191970"
                  d="M788.5952,-125.2458C879.8392,-118.6262 1055.1979,-104.4596 1203.3813,-84 1214.4276,-82.4749 1226.2746,-80.5102 1237.3763,-78.5225"/>
            <polygon fill="#191970" stroke="#191970"
                     points="788.1499,-121.7687 778.4269,-125.9774 788.6523,-128.7506 788.1499,-121.7687"/>
        </g>
        <!-- Node10&#45;&gt;Node9 -->
        <g id="edge4" class="edge">
            <title>Node10&#45;&gt;Node9</title>
            <path fill="none" stroke="#191970"
                  d="M497.1654,-59.2969C400.4846,-47.8554 245.1628,-29.4741 152.7142,-18.5335"/>
            <polygon fill="#191970" stroke="#191970"
                     points="496.862,-62.7854 507.204,-60.4849 497.6847,-55.8339 496.862,-62.7854"/>
        </g>
        <!-- Node10&#45;&gt;Node11 -->
        <g id="edge5" class="edge">
            <title>Node10&#45;&gt;Node11</title>
            <path fill="none" stroke="#191970"
                  d="M521.1417,-58.7381C454.7648,-47.2608 350.8104,-29.286 288.564,-18.5229"/>
            <polygon fill="#191970" stroke="#191970"
                     points="520.6061,-62.1973 531.0562,-60.4524 521.7988,-55.2997 520.6061,-62.1973"/>
        </g>
        <!-- Node12 -->
        <g id="node6" class="node">
            <title>Node12</title>
            <g id="a_node6">
                <a xlink:href="../../d9/d07/_login_window_8cpp.html" target="_top"
                   xlink:title="code/gui/LoginWindow.cpp">
                    <polygon fill="none" stroke="#000000"
                             points="490.894,-.5 490.894,-18.5 625.8687,-18.5 625.8687,-.5 490.894,-.5"/>
                    <text text-anchor="middle" x="558.3813" y="-6.5" font-family="Helvetica,sans-Serif"
                          font-size="10.00" fill="#000000">code/gui/LoginWindow.cpp
                    </text>
                </a>
            </g>
        </g>
        <!-- Node10&#45;&gt;Node12 -->
        <g id="edge6" class="edge">
            <title>Node10&#45;&gt;Node12</title>
            <path fill="none" stroke="#191970"
                  d="M575.6895,-51.0396C571.2218,-40.3172 565.7874,-27.2744 562.214,-18.6985"/>
            <polygon fill="#191970" stroke="#191970"
                     points="572.5074,-52.5027 579.5844,-60.3873 578.9689,-49.8103 572.5074,-52.5027"/>
        </g>
        <!-- Node10&#45;&gt;Node13 -->
        <g id="edge7" class="edge">
            <title>Node10&#45;&gt;Node13</title>
            <path fill="none" stroke="#191970"
                  d="M612.6396,-56.0993C637.6553,-44.6417 672.964,-28.4698 694.7273,-18.5019"/>
            <polygon fill="#191970" stroke="#191970"
                     points="610.9117,-53.041 603.2774,-60.3873 613.8267,-59.4052 610.9117,-53.041"/>
        </g>
        <!-- Node10&#45;&gt;Node14 -->
        <g id="edge8" class="edge">
            <title>Node10&#45;&gt;Node14</title>
            <path fill="none" stroke="#191970"
                  d="M638.7955,-58.454C696.4267,-46.966 785.5651,-29.1976 839.1163,-18.5229"/>
            <polygon fill="#191970" stroke="#191970"
                     points="637.8928,-55.065 628.77,-60.4524 639.2613,-61.9299 637.8928,-55.065"/>
        </g>
        <!-- Node10&#45;&gt;Node15 -->
        <g id="edge9" class="edge">
            <title>Node10&#45;&gt;Node15</title>
            <path fill="none" stroke="#191970"
                  d="M670.1421,-59.6498C749.6988,-50.3027 870.6981,-35.2939 975.3813,-19 978.2831,-18.5483 981.2719,-18.0612 984.2807,-17.5544"/>
            <polygon fill="#191970" stroke="#191970"
                     points="669.6913,-56.1786 660.1661,-60.8177 670.5053,-63.1311 669.6913,-56.1786"/>
        </g>
        <!-- Node16 -->
        <g id="node10" class="node">
            <title>Node16</title>
            <g id="a_node10">
                <a xlink:href="../../d6/d6e/_authentication_8cpp.html" target="_top"
                   xlink:title="code/model/Authentication.cpp">
                    <polygon fill="none" stroke="#000000"
                             points="320.0024,-.5 320.0024,-18.5 472.7603,-18.5 472.7603,-.5 320.0024,-.5"/>
                    <text text-anchor="middle" x="396.3813" y="-6.5" font-family="Helvetica,sans-Serif"
                          font-size="10.00" fill="#000000">code/model/Authentication.cpp
                    </text>
                </a>
            </g>
        </g>
        <!-- Node10&#45;&gt;Node16 -->
        <g id="edge10" class="edge">
            <title>Node10&#45;&gt;Node16</title>
            <path fill="none" stroke="#191970"
                  d="M545.3512,-57.2978C509.4988,-45.7944 456.6035,-28.8226 424.4372,-18.5019"/>
            <polygon fill="#191970" stroke="#191970"
                     points="544.3889,-60.6647 554.9801,-60.3873 546.5275,-53.9994 544.3889,-60.6647"/>
        </g>
    </g>
</svg>
