<?xml version="1.0" encoding="UTF-8" standalone="no"?>
<!DOCTYPE svg PUBLIC "-//W3C//DTD SVG 1.1//EN"
        "http://www.w3.org/Graphics/SVG/1.1/DTD/svg11.dtd">
<!-- Generated by graphviz version 2.40.1 (20161225.0304)
 -->
<!-- Title: code/DBMaster.hpp Pages: 1 -->
<!--zoomable 147 -->
<svg id="main" version="1.1" xmlns="http://www.w3.org/2000/svg" xmlns:xlink="http://www.w3.org/1999/xlink" xml:space="preserve" onload="initDrugComboBox(evt)">
<style type="text/css"><![CDATA[
.edge:hover path { stroke: red; }
.edge:hover polygon { stroke: red; fill: red; }
]]></style>
<script type="text/javascript"><![CDATA[
var edges = document.getElementsByTagName('g');
if (edges && edges.length) {
  for (var i=0;i<edges.length;i++) {
    if (edges[i].id.substr(0,4)=='edge') {
      edges[i].setAttribute('class','edge');
    }
  }
}
]]></script>
        <defs>
                <circle id="rim" cx="0" cy="0" r="7"/>
                <circle id="rim2" cx="0" cy="0" r="3.5"/>
                <g id="zoomPlus">
                        <use xlink:href="#rim" fill="#404040">
                                <set attributeName="fill" to="#808080" begin="zoomplus.mouseover" end="zoomplus.mouseout"/>
                        </use>
                        <path d="M-4,0h8M0,-4v8" fill="none" stroke="white" stroke-width="1.5" pointer-events="none"/>
                </g>
                <g id="zoomMin">
                        <use xlink:href="#rim" fill="#404040">
                                <set attributeName="fill" to="#808080" begin="zoomminus.mouseover" end="zoomminus.mouseout"/>
                        </use>
                        <path d="M-4,0h8" fill="none" stroke="white" stroke-width="1.5" pointer-events="none"/>
                </g>
                <g id="dirArrow">
                        <path fill="none" stroke="white" stroke-width="1.5" d="M0,-3.0v7 M-2.5,-0.5L0,-3.0L2.5,-0.5"/>
                </g>
               <g id="resetDef">
                       <use xlink:href="#rim2" fill="#404040">
                               <set attributeName="fill" to="#808080" begin="reset.mouseover" end="reset.mouseout"/>
                       </use>
               </g>
        </defs>

<script type="text/javascript">
var viewWidth = 1175;
var viewHeight = 147;
var sectionId = 'dynsection-1';
</script>
<script xlink:href="../../svgpan.js"/>
<svg id="graph" class="graph">
<g id="viewport">
<title>code/DBMaster.hpp</title>
    <!-- Node7 -->
<g id="node1" class="node">
<title>Node7</title>
<polygon fill="#bfbfbf" stroke="#000000" points="525.4653,-120.5 525.4653,-138.5 629.2974,-138.5 629.2974,-120.5 525.4653,-120.5"/>
<text text-anchor="middle" x="577.3813" y="-126.5" font-family="Helvetica,sans-Serif" font-size="10.00" fill="#000000">code/DBMaster.hpp</text>
</g>
    <!-- Node8 -->
<g id="node2" class="node">
<title>Node8</title>
<g id="a_node2"><a xlink:href="../../d7/d71/_d_b_master_8cpp.html" target="_top" xlink:title="code/DBMaster.cpp">
<polygon fill="none" stroke="#000000" points="197.7461,-60.5 197.7461,-78.5 301.0166,-78.5 301.0166,-60.5 197.7461,-60.5"/>
<text text-anchor="middle" x="249.3813" y="-66.5" font-family="Helvetica,sans-Serif" font-size="10.00" fill="#000000">code/DBMaster.cpp</text>
</a>
</g>
</g>
    <!-- Node7&#45;&gt;Node8 -->
<g id="edge1" class="edge">
<title>Node7&#45;&gt;Node8</title>
<path fill="none" stroke="#191970" d="M515.1038,-119.4825C461.9291,-110.7385 383.4728,-97.3854 315.3813,-84 306.863,-82.3255 297.7545,-80.4074 289.1089,-78.5266"/>
<polygon fill="#191970" stroke="#191970" points="514.6259,-122.9508 525.0604,-121.1144 515.7582,-116.0429 514.6259,-122.9508"/>
</g>
    <!-- Node9 -->
<g id="node3" class="node">
<title>Node9</title>
<g id="a_node3"><a xlink:href="../../db/db5/_add_patient_dialog_8cpp.html" target="_top" xlink:title="code/gui/AddPatientDialog.cpp">
<polygon fill="none" stroke="#000000" points="0,-.5 0,-18.5 152.7627,-18.5 152.7627,-.5 0,-.5"/>
<text text-anchor="middle" x="76.3813" y="-6.5" font-family="Helvetica,sans-Serif" font-size="10.00" fill="#000000">code/gui/AddPatientDialog.cpp</text>
</a>
</g>
</g>
    <!-- Node7&#45;&gt;Node9 -->
<g id="edge2" class="edge">
<title>Node7&#45;&gt;Node9</title>
<path fill="none" stroke="#191970" d="M515.1858,-124.8277C467.7584,-119.4724 401.7312,-108.0812 348.3813,-84 329.0174,-75.2595 329.7631,-63.7009 310.3813,-55 280.5542,-41.6099 198.4096,-27.4163 139.8886,-18.5116"/>
<polygon fill="#191970" stroke="#191970" points="514.9973,-128.3274 525.313,-125.9116 515.7423,-121.3672 514.9973,-128.3274"/>
</g>
    <!-- Node10 -->
<g id="node4" class="node">
<title>Node10</title>
<g id="a_node4"><a xlink:href="../../dc/d00/_authentication_8hpp.html" target="_top" xlink:title="code/model/Authentication.hpp">
<polygon fill="none" stroke="#000000" points="357.7217,-60.5 357.7217,-78.5 511.041,-78.5 511.041,-60.5 357.7217,-60.5"/>
<text text-anchor="middle" x="434.3813" y="-66.5" font-family="Helvetica,sans-Serif" font-size="10.00" fill="#000000">code/model/Authentication.hpp</text>
</a>
</g>
</g>
    <!-- Node7&#45;&gt;Node10 -->
<g id="edge3" class="edge">
<title>Node7&#45;&gt;Node10</title>
<path fill="none" stroke="#191970" d="M546.1653,-116.4023C518.819,-104.9284 479.8028,-88.558 455.8358,-78.5019"/>
<polygon fill="#191970" stroke="#191970" points="545.0873,-119.7456 555.6627,-120.3873 547.7957,-113.2908 545.0873,-119.7456"/>
</g>
    <!-- Node12 -->
<g id="node6" class="node">
<title>Node12</title>
<g id="a_node6"><a xlink:href="../../d8/d35/_patient_window_8cpp.html" target="_top" xlink:title="code/gui/PatientWindow.cpp">
<polygon fill="none" stroke="#000000" points="494.5615,-.5 494.5615,-18.5 636.2012,-18.5 636.2012,-.5 494.5615,-.5"/>
<text text-anchor="middle" x="565.3813" y="-6.5" font-family="Helvetica,sans-Serif" font-size="10.00" fill="#000000">code/gui/PatientWindow.cpp</text>
</a>
</g>
</g>
    <!-- Node7&#45;&gt;Node12 -->
<g id="edge10" class="edge">
<title>Node7&#45;&gt;Node12</title>
<path fill="none" stroke="#191970" d="M570.2231,-110.7241C567.501,-102.6305 564.7315,-92.9787 563.3813,-84 559.8798,-60.7134 562.3679,-32.8827 564.0989,-18.7389"/>
<polygon fill="#191970" stroke="#191970" points="566.9796,-112.048 573.6509,-120.2787 573.5684,-109.6842 566.9796,-112.048"/>
</g>
    <!-- Node13 -->
<g id="node7" class="node">
<title>Node13</title>
<g id="a_node7"><a xlink:href="../../d7/daf/_med_h_8cpp.html" target="_top" xlink:title="code/MedH.cpp">
<polygon fill="none" stroke="#000000" points="654.3618,-.5 654.3618,-18.5 740.4009,-18.5 740.4009,-.5 654.3618,-.5"/>
<text text-anchor="middle" x="697.3813" y="-6.5" font-family="Helvetica,sans-Serif" font-size="10.00" fill="#000000">code/MedH.cpp</text>
</a>
</g>
</g>
    <!-- Node7&#45;&gt;Node13 -->
<g id="edge11" class="edge">
<title>Node7&#45;&gt;Node13</title>
<path fill="none" stroke="#191970" d="M577.8027,-110.0118C579.1299,-93.6185 583.4073,-70.4465 596.3813,-55 611.9047,-36.5183 636.4812,-25.2224 657.5038,-18.5084"/>
<polygon fill="#191970" stroke="#191970" points="574.3022,-109.9334 577.2846,-120.0998 581.293,-110.2925 574.3022,-109.9334"/>
</g>
    <!-- Node15 -->
<g id="node9" class="node">
<title>Node15</title>
<g id="a_node9"><a xlink:href="../../df/de8/_add_prescription_dialog_8cpp.html" target="_top" xlink:title="code/gui/AddPrescription\lDialog.cpp">
<polygon fill="none" stroke="#000000" points="605.793,-55.5 605.793,-83.5 732.9697,-83.5 732.9697,-55.5 605.793,-55.5"/>
<text text-anchor="start" x="613.793" y="-71.5" font-family="Helvetica,sans-Serif" font-size="10.00" fill="#000000">code/gui/AddPrescription</text>
<text text-anchor="middle" x="669.3813" y="-61.5" font-family="Helvetica,sans-Serif" font-size="10.00" fill="#000000">Dialog.cpp</text>
</a>
</g>
</g>
    <!-- Node7&#45;&gt;Node15 -->
<g id="edge9" class="edge">
<title>Node7&#45;&gt;Node15</title>
<path fill="none" stroke="#191970" d="M599.7963,-114.8816C614.3816,-105.3694 633.3035,-93.029 647.7333,-83.6183"/>
<polygon fill="#191970" stroke="#191970" points="597.8183,-111.9929 591.3542,-120.3873 601.6422,-117.8562 597.8183,-111.9929"/>
</g>
    <!-- Node16 -->
<g id="node10" class="node">
<title>Node16</title>
<g id="a_node10"><a xlink:href="../../d3/da6/_doctor_8cpp.html" target="_top" xlink:title="code/model/Doctor.cpp">
<polygon fill="none" stroke="#000000" points="751.2388,-60.5 751.2388,-78.5 869.5239,-78.5 869.5239,-60.5 751.2388,-60.5"/>
<text text-anchor="middle" x="810.3813" y="-66.5" font-family="Helvetica,sans-Serif" font-size="10.00" fill="#000000">code/model/Doctor.cpp</text>
</a>
</g>
</g>
    <!-- Node7&#45;&gt;Node16 -->
<g id="edge12" class="edge">
<title>Node7&#45;&gt;Node16</title>
<path fill="none" stroke="#191970" d="M622.2315,-117.9506C666.8825,-106.4525 734.4898,-89.0429 775.3423,-78.5229"/>
<polygon fill="#191970" stroke="#191970" points="621.3273,-114.5692 612.5161,-120.4524 623.073,-121.348 621.3273,-114.5692"/>
</g>
    <!-- Node17 -->
<g id="node11" class="node">
<title>Node17</title>
<g id="a_node11"><a xlink:href="../../d0/d77/_patient_8cpp.html" target="_top" xlink:title="code/model/Patient.cpp">
<polygon fill="none" stroke="#000000" points="887.1255,-60.5 887.1255,-78.5 1007.6372,-78.5 1007.6372,-60.5 887.1255,-60.5"/>
<text text-anchor="middle" x="947.3813" y="-66.5" font-family="Helvetica,sans-Serif" font-size="10.00" fill="#000000">code/model/Patient.cpp</text>
</a>
</g>
</g>
    <!-- Node7&#45;&gt;Node17 -->
<g id="edge13" class="edge">
<title>Node7&#45;&gt;Node17</title>
<path fill="none" stroke="#191970" d="M639.6926,-121.1393C700.6833,-112.7065 796.1515,-98.8426 878.3813,-84 887.416,-82.3692 897.0792,-80.4495 906.2272,-78.55"/>
<polygon fill="#191970" stroke="#191970" points="638.8921,-117.7164 629.4629,-122.5474 639.8468,-124.651 638.8921,-117.7164"/>
</g>
    <!-- Node18 -->
<g id="node12" class="node">
<title>Node18</title>
<g id="a_node12"><a xlink:href="../../d5/db1/_prescription_8cpp.html" target="_top" xlink:title="code/model/Prescription.cpp">
<polygon fill="none" stroke="#000000" points="1025.293,-60.5 1025.293,-78.5 1167.4697,-78.5 1167.4697,-60.5 1025.293,-60.5"/>
<text text-anchor="middle" x="1096.3813" y="-66.5" font-family="Helvetica,sans-Serif" font-size="10.00" fill="#000000">code/model/Prescription.cpp</text>
</a>
</g>
</g>
    <!-- Node7&#45;&gt;Node18 -->
<g id="edge14" class="edge">
<title>Node7&#45;&gt;Node18</title>
<path fill="none" stroke="#191970" d="M639.6026,-124.551C724.8452,-117.4293 882.6159,-103.0265 1016.3813,-84 1027.2815,-82.4496 1038.9661,-80.4979 1049.9453,-78.5333"/>
<polygon fill="#191970" stroke="#191970" points="639.2495,-121.0682 629.5732,-125.3832 639.8284,-128.0442 639.2495,-121.0682"/>
</g>
    <!-- Node10&#45;&gt;Node9 -->
<g id="edge4" class="edge">
<title>Node10&#45;&gt;Node9</title>
<path fill="none" stroke="#191970" d="M370.1687,-58.7381C301.6876,-47.2608 194.4378,-29.286 130.2182,-18.5229"/>
<polygon fill="#191970" stroke="#191970" points="369.9565,-62.2513 380.3975,-60.4524 371.1136,-55.3476 369.9565,-62.2513"/>
</g>
    <!-- Node11 -->
<g id="node5" class="node">
<title>Node11</title>
<g id="a_node5"><a xlink:href="../../d9/d07/_login_window_8cpp.html" target="_top" xlink:title="code/gui/LoginWindow.cpp">
<polygon fill="none" stroke="#000000" points="341.894,-.5 341.894,-18.5 476.8687,-18.5 476.8687,-.5 341.894,-.5"/>
<text text-anchor="middle" x="409.3813" y="-6.5" font-family="Helvetica,sans-Serif" font-size="10.00" fill="#000000">code/gui/LoginWindow.cpp</text>
</a>
</g>
</g>
    <!-- Node10&#45;&gt;Node11 -->
<g id="edge5" class="edge">
<title>Node10&#45;&gt;Node11</title>
<path fill="none" stroke="#191970" d="M426.6895,-51.0396C422.2218,-40.3172 416.7874,-27.2744 413.214,-18.6985"/>
<polygon fill="#191970" stroke="#191970" points="423.5074,-52.5027 430.5844,-60.3873 429.9689,-49.8103 423.5074,-52.5027"/>
</g>
    <!-- Node10&#45;&gt;Node12 -->
<g id="edge6" class="edge">
<title>Node10&#45;&gt;Node12</title>
<path fill="none" stroke="#191970" d="M463.6396,-56.0993C488.6553,-44.6417 523.964,-28.4698 545.7273,-18.5019"/>
<polygon fill="#191970" stroke="#191970" points="461.9117,-53.041 454.2774,-60.3873 464.8267,-59.4052 461.9117,-53.041"/>
</g>
    <!-- Node10&#45;&gt;Node13 -->
<g id="edge7" class="edge">
<title>Node10&#45;&gt;Node13</title>
<path fill="none" stroke="#191970" d="M484.0564,-58.1673C534.4431,-46.6722 611.4277,-29.1092 657.8308,-18.5229"/>
<polygon fill="#191970" stroke="#191970" points="483.0109,-54.8158 474.0399,-60.4524 484.5679,-61.6405 483.0109,-54.8158"/>
</g>
    <!-- Node14 -->
<g id="node8" class="node">
<title>Node14</title>
<g id="a_node8"><a xlink:href="../../d6/d6e/_authentication_8cpp.html" target="_top" xlink:title="code/model/Authentication.cpp">
<polygon fill="none" stroke="#000000" points="171.0024,-.5 171.0024,-18.5 323.7603,-18.5 323.7603,-.5 171.0024,-.5"/>
<text text-anchor="middle" x="247.3813" y="-6.5" font-family="Helvetica,sans-Serif" font-size="10.00" fill="#000000">code/model/Authentication.cpp</text>
</a>
</g>
</g>
    <!-- Node10&#45;&gt;Node14 -->
<g id="edge8" class="edge">
<title>Node10&#45;&gt;Node14</title>
<path fill="none" stroke="#191970" d="M396.3512,-57.2978C360.4988,-45.7944 307.6035,-28.8226 275.4372,-18.5019"/>
<polygon fill="#191970" stroke="#191970" points="395.3889,-60.6647 405.9801,-60.3873 397.5275,-53.9994 395.3889,-60.6647"/>
</g>
</g>
</svg>
        <g id="navigator" transform="translate(0 0)" fill="#404254">
                <rect fill="#f2f5e9" fill-opacity="0.5" stroke="#606060" stroke-width=".5" x="0" y="0" width="60" height="60"/>
                <use id="zoomplus" xlink:href="#zoomPlus" x="17" y="9" onmousedown="handleZoom(evt,'in')"/>
                <use id="zoomminus" xlink:href="#zoomMin" x="42" y="9" onmousedown="handleZoom(evt,'out')"/>
                <use id="reset" xlink:href="#resetDef" x="30" y="36" onmousedown="handleReset()"/>
                <g id="arrowUp" xlink:href="#dirArrow" transform="translate(30 24)" onmousedown="handlePan(0,-1)">
                  <use xlink:href="#rim" fill="#404040">
                        <set attributeName="fill" to="#808080" begin="arrowUp.mouseover" end="arrowUp.mouseout"/>
                  </use>
                  <path fill="none" stroke="white" stroke-width="1.5" d="M0,-3.0v7 M-2.5,-0.5L0,-3.0L2.5,-0.5"/>
                </g>
                <g id="arrowRight" xlink:href="#dirArrow" transform="rotate(90) translate(36 -43)" onmousedown="handlePan(1,0)">
                  <use xlink:href="#rim" fill="#404040">
                        <set attributeName="fill" to="#808080" begin="arrowRight.mouseover" end="arrowRight.mouseout"/>
                  </use>
                  <path fill="none" stroke="white" stroke-width="1.5" d="M0,-3.0v7 M-2.5,-0.5L0,-3.0L2.5,-0.5"/>
                </g>
                <g id="arrowDown" xlink:href="#dirArrow" transform="rotate(180) translate(-30 -48)" onmousedown="handlePan(0,1)">
                  <use xlink:href="#rim" fill="#404040">
                        <set attributeName="fill" to="#808080" begin="arrowDown.mouseover" end="arrowDown.mouseout"/>
                  </use>
                  <path fill="none" stroke="white" stroke-width="1.5" d="M0,-3.0v7 M-2.5,-0.5L0,-3.0L2.5,-0.5"/>
                </g>
                <g id="arrowLeft" xlink:href="#dirArrow" transform="rotate(270) translate(-36 17)" onmousedown="handlePan(-1,0)">
                  <use xlink:href="#rim" fill="#404040">
                        <set attributeName="fill" to="#808080" begin="arrowLeft.mouseover" end="arrowLeft.mouseout"/>
                  </use>
                  <path fill="none" stroke="white" stroke-width="1.5" d="M0,-3.0v7 M-2.5,-0.5L0,-3.0L2.5,-0.5"/>
                </g>
        </g>
        <svg viewBox="0 0 15 15" width="100%" height="30px" preserveAspectRatio="xMaxYMin meet">
         <g id="arrow_out" transform="scale(0.3 0.3)">
          <a xlink:href="_d_b_master_8hpp__dep__incl_org.svg" target="_base">
           <rect id="button" ry="5" rx="5" y="6" x="6" height="38" width="38"
                fill="#f2f5e9" fill-opacity="0.5" stroke="#606060" stroke-width="1.0"/>
           <path id="arrow"
             d="M 11.500037,31.436501 C 11.940474,20.09759 22.043105,11.32322 32.158766,21.979434 L 37.068811,17.246167 C 37.068811,17.246167 37.088388,32 37.088388,32 L 22.160133,31.978069 C 22.160133,31.978069 26.997745,27.140456 26.997745,27.140456 C 18.528582,18.264221 13.291696,25.230495 11.500037,31.436501 z"
             style="fill:#404040;"/>
          </a>
         </g>
        </svg>
</svg>
