<?xml version="1.0" encoding="UTF-8" standalone="no"?>
<!DOCTYPE svg PUBLIC "-//W3C//DTD SVG 1.1//EN"
        "http://www.w3.org/Graphics/SVG/1.1/DTD/svg11.dtd">
<!-- Generated by graphviz version 2.40.1 (20161225.0304)
 -->
<!-- Title: code/gui/DrugWindow.hpp Pages: 1 -->
<!--zoomable 357 -->
<svg id="main" version="1.1" xmlns="http://www.w3.org/2000/svg" xmlns:xlink="http://www.w3.org/1999/xlink" xml:space="preserve" onload="init(evt)">
<style type="text/css"><![CDATA[
.edge:hover path { stroke: red; }
.edge:hover polygon { stroke: red; fill: red; }
]]></style>
<script type="text/javascript"><![CDATA[
var edges = document.getElementsByTagName('g');
if (edges && edges.length) {
  for (var i=0;i<edges.length;i++) {
    if (edges[i].id.substr(0,4)=='edge') {
      edges[i].setAttribute('class','edge');
    }
  }
}
]]></script>
        <defs>
                <circle id="rim" cx="0" cy="0" r="7"/>
                <circle id="rim2" cx="0" cy="0" r="3.5"/>
                <g id="zoomPlus">
                        <use xlink:href="#rim" fill="#404040">
                                <set attributeName="fill" to="#808080" begin="zoomplus.mouseover" end="zoomplus.mouseout"/>
                        </use>
                        <path d="M-4,0h8M0,-4v8" fill="none" stroke="white" stroke-width="1.5" pointer-events="none"/>
                </g>
                <g id="zoomMin">
                        <use xlink:href="#rim" fill="#404040">
                                <set attributeName="fill" to="#808080" begin="zoomminus.mouseover" end="zoomminus.mouseout"/>
                        </use>
                        <path d="M-4,0h8" fill="none" stroke="white" stroke-width="1.5" pointer-events="none"/>
                </g>
                <g id="dirArrow">
                        <path fill="none" stroke="white" stroke-width="1.5" d="M0,-3.0v7 M-2.5,-0.5L0,-3.0L2.5,-0.5"/>
                </g>
               <g id="resetDef">
                       <use xlink:href="#rim2" fill="#404040">
                               <set attributeName="fill" to="#808080" begin="reset.mouseover" end="reset.mouseout"/>
                       </use>
               </g>
        </defs>

<script type="text/javascript">
var viewWidth = 1603;
var viewHeight = 357;
var sectionId = 'dynsection-0';
</script>
<script xlink:href="../../svgpan.js"/>
<svg id="graph" class="graph">
<g id="viewport">
<title>code/gui/DrugWindow.hpp</title>
    <!-- Node0 -->
<g id="node1" class="node">
<title>Node0</title>
<polygon fill="#bfbfbf" stroke="#000000" points="596.4141,-330.5 596.4141,-348.5 729.1572,-348.5 729.1572,-330.5 596.4141,-330.5"/>
<text text-anchor="middle" x="662.7856" y="-336.5" font-family="Helvetica,sans-Serif" font-size="10.00" fill="#000000">code/gui/DrugWindow.hpp</text>
</g>
    <!-- Node1 -->
<g id="node2" class="node">
<title>Node1</title>
<polygon fill="none" stroke="#bfbfbf" points="0,-220.5 0,-238.5 91.5713,-238.5 91.5713,-220.5 0,-220.5"/>
<text text-anchor="middle" x="45.7856" y="-226.5" font-family="Helvetica,sans-Serif" font-size="10.00" fill="#000000">gtkmm/liststore.h</text>
</g>
    <!-- Node0&#45;&gt;Node1 -->
<g id="edge1" class="edge">
<title>Node0&#45;&gt;Node1</title>
<path fill="none" stroke="#191970" d="M612.2939,-330.4982C498.1938,-310.1562 221.1398,-260.7625 101.8935,-239.503"/>
<polygon fill="#191970" stroke="#191970" points="102.3362,-236.0268 91.8771,-237.7173 101.1075,-242.9182 102.3362,-236.0268"/>
</g>
    <!-- Node2 -->
<g id="node3" class="node">
<title>Node2</title>
<g id="a_node3"><a xlink:href="../../de/d0b/_window_8hpp.html" target="_top" xlink:title="Window.hpp">
<polygon fill="none" stroke="#000000" points="1139.5444,-275.5 1139.5444,-293.5 1210.0269,-293.5 1210.0269,-275.5 1139.5444,-275.5"/>
<text text-anchor="middle" x="1174.7856" y="-281.5" font-family="Helvetica,sans-Serif" font-size="10.00" fill="#000000">Window.hpp</text>
</a>
</g>
</g>
    <!-- Node0&#45;&gt;Node2 -->
<g id="edge2" class="edge">
<title>Node0&#45;&gt;Node2</title>
<path fill="none" stroke="#191970" d="M729.1958,-332.3661C834.9729,-321.0033 1038.9968,-299.0867 1129.5687,-289.3573"/>
<polygon fill="#191970" stroke="#191970" points="1129.9539,-292.8361 1139.5228,-288.288 1129.2062,-285.8762 1129.9539,-292.8361"/>
</g>
    <!-- Node8 -->
<g id="node9" class="node">
<title>Node8</title>
<g id="a_node9"><a xlink:href="../../d5/d46/_custom_widgets_8hpp.html" target="_top" xlink:title="view/CustomWidgets.hpp">
<polygon fill="none" stroke="#000000" points="598.3745,-275.5 598.3745,-293.5 727.1968,-293.5 727.1968,-275.5 598.3745,-275.5"/>
<text text-anchor="middle" x="662.7856" y="-281.5" font-family="Helvetica,sans-Serif" font-size="10.00" fill="#000000">view/CustomWidgets.hpp</text>
</a>
</g>
</g>
    <!-- Node0&#45;&gt;Node8 -->
<g id="edge8" class="edge">
<title>Node0&#45;&gt;Node8</title>
<path fill="none" stroke="#191970" d="M662.7856,-330.4179C662.7856,-323.2164 662.7856,-312.8962 662.7856,-303.8632"/>
<polygon fill="#191970" stroke="#191970" points="666.2857,-303.7794 662.7856,-293.7795 659.2857,-303.7795 666.2857,-303.7794"/>
</g>
    <!-- Node3 -->
<g id="node4" class="node">
<title>Node3</title>
<g id="a_node4"><a xlink:href="../../d1/d25/_i_subject_8hpp.html" target="_top" xlink:title="../interfaces/ISubject.hpp">
<polygon fill="none" stroke="#000000" points="1442.7539,-220.5 1442.7539,-238.5 1568.8174,-238.5 1568.8174,-220.5 1442.7539,-220.5"/>
<text text-anchor="middle" x="1505.7856" y="-226.5" font-family="Helvetica,sans-Serif" font-size="10.00" fill="#000000">../interfaces/ISubject.hpp</text>
</a>
</g>
</g>
    <!-- Node2&#45;&gt;Node3 -->
<g id="edge3" class="edge">
<title>Node2&#45;&gt;Node3</title>
<path fill="none" stroke="#191970" d="M1210.2084,-278.614C1265.3668,-269.4488 1372.6003,-251.6305 1441.6154,-240.1627"/>
<polygon fill="#191970" stroke="#191970" points="1442.2189,-243.6105 1451.5099,-238.5186 1441.0715,-236.7052 1442.2189,-243.6105"/>
</g>
    <!-- Node4 -->
<g id="node5" class="node">
<title>Node4</title>
<polygon fill="none" stroke="#bfbfbf" points="1455.1157,-165.5 1455.1157,-183.5 1484.4556,-183.5 1484.4556,-165.5 1455.1157,-165.5"/>
<text text-anchor="middle" x="1469.7856" y="-171.5" font-family="Helvetica,sans-Serif" font-size="10.00" fill="#000000">set</text>
</g>
    <!-- Node3&#45;&gt;Node4 -->
<g id="edge4" class="edge">
<title>Node3&#45;&gt;Node4</title>
<path fill="none" stroke="#191970" d="M1499.841,-220.4179C1494.8683,-212.8207 1487.6238,-201.7527 1481.4932,-192.3866"/>
<polygon fill="#191970" stroke="#191970" points="1484.2646,-190.2297 1475.8595,-183.7795 1478.4076,-194.0633 1484.2646,-190.2297"/>
</g>
    <!-- Node5 -->
<g id="node6" class="node">
<title>Node5</title>
<g id="a_node6"><a xlink:href="../../d5/d40/_i_observer_8hpp.html" target="_top" xlink:title="IObserver.hpp">
<polygon fill="none" stroke="#000000" points="1502.377,-165.5 1502.377,-183.5 1581.1943,-183.5 1581.1943,-165.5 1502.377,-165.5"/>
<text text-anchor="middle" x="1541.7856" y="-171.5" font-family="Helvetica,sans-Serif" font-size="10.00" fill="#000000">IObserver.hpp</text>
</a>
</g>
</g>
    <!-- Node3&#45;&gt;Node5 -->
<g id="edge5" class="edge">
<title>Node3&#45;&gt;Node5</title>
<path fill="none" stroke="#191970" d="M1511.7303,-220.4179C1516.703,-212.8207 1523.9475,-201.7527 1530.078,-192.3866"/>
<polygon fill="#191970" stroke="#191970" points="1533.1636,-194.0633 1535.7118,-183.7795 1527.3067,-190.2297 1533.1636,-194.0633"/>
</g>
    <!-- Node6 -->
<g id="node7" class="node">
<title>Node6</title>
<polygon fill="none" stroke="#bfbfbf" points="1489.1699,-110.5 1489.1699,-128.5 1532.4014,-128.5 1532.4014,-110.5 1489.1699,-110.5"/>
<text text-anchor="middle" x="1510.7856" y="-116.5" font-family="Helvetica,sans-Serif" font-size="10.00" fill="#000000">mutex</text>
</g>
    <!-- Node5&#45;&gt;Node6 -->
<g id="edge6" class="edge">
<title>Node5&#45;&gt;Node6</title>
<path fill="none" stroke="#191970" d="M1536.6666,-165.4179C1532.4292,-157.8998 1526.276,-146.9829 1521.0325,-137.6799"/>
<polygon fill="#191970" stroke="#191970" points="1523.9751,-135.7724 1516.0159,-128.7795 1517.877,-139.2096 1523.9751,-135.7724"/>
</g>
    <!-- Node7 -->
<g id="node8" class="node">
<title>Node7</title>
<polygon fill="none" stroke="#bfbfbf" points="1550.6084,-110.5 1550.6084,-128.5 1594.9629,-128.5 1594.9629,-110.5 1550.6084,-110.5"/>
<text text-anchor="middle" x="1572.7856" y="-116.5" font-family="Helvetica,sans-Serif" font-size="10.00" fill="#000000">thread</text>
</g>
    <!-- Node5&#45;&gt;Node7 -->
<g id="edge7" class="edge">
<title>Node5&#45;&gt;Node7</title>
<path fill="none" stroke="#191970" d="M1546.9047,-165.4179C1551.1421,-157.8998 1557.2953,-146.9829 1562.5388,-137.6799"/>
<polygon fill="#191970" stroke="#191970" points="1565.6943,-139.2096 1567.5554,-128.7795 1559.5962,-135.7724 1565.6943,-139.2096"/>
</g>
    <!-- Node8&#45;&gt;Node1 -->
<g id="edge13" class="edge">
<title>Node8&#45;&gt;Node1</title>
<path fill="none" stroke="#191970" d="M598.1113,-281.166C495.1999,-275.4417 287.6636,-262.1877 101.6203,-238.9961"/>
<polygon fill="#191970" stroke="#191970" points="102.0141,-235.5181 91.6552,-237.7416 101.1398,-242.4633 102.0141,-235.5181"/>
</g>
    <!-- Node9 -->
<g id="node10" class="node">
<title>Node9</title>
<polygon fill="none" stroke="#bfbfbf" points="549.6504,-220.5 549.6504,-238.5 647.9209,-238.5 647.9209,-220.5 549.6504,-220.5"/>
<text text-anchor="middle" x="598.7856" y="-226.5" font-family="Helvetica,sans-Serif" font-size="10.00" fill="#000000">gtkmm/expander.h</text>
</g>
    <!-- Node8&#45;&gt;Node9 -->
<g id="edge9" class="edge">
<title>Node8&#45;&gt;Node9</title>
<path fill="none" stroke="#191970" d="M652.2173,-275.4179C642.7324,-267.2667 628.5982,-255.1201 617.249,-245.3669"/>
<polygon fill="#191970" stroke="#191970" points="619.449,-242.6427 609.5836,-238.7795 614.8866,-247.9516 619.449,-242.6427"/>
</g>
    <!-- Node10 -->
<g id="node11" class="node">
<title>Node10</title>
<polygon fill="none" stroke="#bfbfbf" points="665.5962,-220.5 665.5962,-238.5 789.9751,-238.5 789.9751,-220.5 665.5962,-220.5"/>
<text text-anchor="middle" x="727.7856" y="-226.5" font-family="Helvetica,sans-Serif" font-size="10.00" fill="#000000">gtkmm/scrolledwindow.h</text>
</g>
    <!-- Node8&#45;&gt;Node10 -->
<g id="edge10" class="edge">
<title>Node8&#45;&gt;Node10</title>
<path fill="none" stroke="#191970" d="M673.5191,-275.4179C683.1523,-267.2667 697.5073,-255.1201 709.0338,-245.3669"/>
<polygon fill="#191970" stroke="#191970" points="711.4459,-247.9108 716.819,-238.7795 706.9243,-242.5671 711.4459,-247.9108"/>
</g>
    <!-- Node11 -->
<g id="node12" class="node">
<title>Node11</title>
<polygon fill="none" stroke="#bfbfbf" points="808.2637,-220.5 808.2637,-238.5 919.3076,-238.5 919.3076,-220.5 808.2637,-220.5"/>
<text text-anchor="middle" x="863.7856" y="-226.5" font-family="Helvetica,sans-Serif" font-size="10.00" fill="#000000">gtkmm/checkbutton.h</text>
</g>
    <!-- Node8&#45;&gt;Node11 -->
<g id="edge11" class="edge">
<title>Node8&#45;&gt;Node11</title>
<path fill="none" stroke="#191970" d="M695.9767,-275.4179C730.1202,-266.0751 783.4463,-251.4834 820.7973,-241.263"/>
<polygon fill="#191970" stroke="#191970" points="822.1577,-244.5195 830.8793,-238.5042 820.3101,-237.7677 822.1577,-244.5195"/>
</g>
    <!-- Node12 -->
<g id="node13" class="node">
<title>Node12</title>
<polygon fill="none" stroke="#bfbfbf" points="936.8818,-220.5 936.8818,-238.5 1030.6895,-238.5 1030.6895,-220.5 936.8818,-220.5"/>
<text text-anchor="middle" x="983.7856" y="-226.5" font-family="Helvetica,sans-Serif" font-size="10.00" fill="#000000">gtkmm/treeview.h</text>
</g>
    <!-- Node8&#45;&gt;Node12 -->
<g id="edge12" class="edge">
<title>Node8&#45;&gt;Node12</title>
<path fill="none" stroke="#191970" d="M715.7822,-275.4609C767.2684,-266.6735 847.952,-252.8874 926.6036,-239.3734"/>
<polygon fill="#191970" stroke="#191970" points="927.4192,-242.7846 936.6818,-237.6413 926.2334,-235.8858 927.4192,-242.7846"/>
</g>
    <!-- Node13 -->
<g id="node14" class="node">
<title>Node13</title>
<polygon fill="none" stroke="#bfbfbf" points="1049.165,-220.5 1049.165,-238.5 1122.4063,-238.5 1122.4063,-220.5 1049.165,-220.5"/>
<text text-anchor="middle" x="1085.7856" y="-226.5" font-family="Helvetica,sans-Serif" font-size="10.00" fill="#000000">gtkmm/box.h</text>
</g>
    <!-- Node8&#45;&gt;Node13 -->
<g id="edge14" class="edge">
<title>Node8&#45;&gt;Node13</title>
<path fill="none" stroke="#191970" d="M727.3898,-278.3615C800.5258,-271.0397 923.4334,-257.6127 1038.8565,-239.0321"/>
<polygon fill="#191970" stroke="#191970" points="1039.6197,-242.454 1048.9282,-237.3943 1038.4961,-235.5448 1039.6197,-242.454"/>
</g>
    <!-- Node14 -->
<g id="node15" class="node">
<title>Node14</title>
<polygon fill="none" stroke="#bfbfbf" points="1140.4458,-220.5 1140.4458,-238.5 1223.1255,-238.5 1223.1255,-220.5 1140.4458,-220.5"/>
<text text-anchor="middle" x="1181.7856" y="-226.5" font-family="Helvetica,sans-Serif" font-size="10.00" fill="#000000">gtkmm/frame.h</text>
</g>
    <!-- Node8&#45;&gt;Node14 -->
<g id="edge15" class="edge">
<title>Node8&#45;&gt;Node14</title>
<path fill="none" stroke="#191970" d="M727.4917,-280.0954C816.1262,-273.646 980.455,-260.2054 1130.0739,-239.1356"/>
<polygon fill="#191970" stroke="#191970" points="1130.9558,-242.5454 1140.3628,-237.6712 1129.9694,-235.6153 1130.9558,-242.5454"/>
</g>
    <!-- Node15 -->
<g id="node16" class="node">
<title>Node15</title>
<polygon fill="none" stroke="#bfbfbf" points="1240.8892,-220.5 1240.8892,-238.5 1314.6821,-238.5 1314.6821,-220.5 1240.8892,-220.5"/>
<text text-anchor="middle" x="1277.7856" y="-226.5" font-family="Helvetica,sans-Serif" font-size="10.00" fill="#000000">gtkmm/grid.h</text>
</g>
    <!-- Node8&#45;&gt;Node15 -->
<g id="edge16" class="edge">
<title>Node8&#45;&gt;Node15</title>
<path fill="none" stroke="#191970" d="M727.4989,-281.937C831.5157,-277.2431 1042.4605,-265.3592 1230.6204,-238.9994"/>
<polygon fill="#191970" stroke="#191970" points="1231.2882,-242.4398 1240.6978,-237.5705 1230.3054,-235.5091 1231.2882,-242.4398"/>
</g>
    <!-- Node16 -->
<g id="node17" class="node">
<title>Node16</title>
<polygon fill="none" stroke="#bfbfbf" points="1332.4385,-220.5 1332.4385,-238.5 1425.1328,-238.5 1425.1328,-220.5 1332.4385,-220.5"/>
<text text-anchor="middle" x="1378.7856" y="-226.5" font-family="Helvetica,sans-Serif" font-size="10.00" fill="#000000">gtkmm/textview.h</text>
</g>
    <!-- Node8&#45;&gt;Node16 -->
<g id="edge17" class="edge">
<title>Node8&#45;&gt;Node16</title>
<path fill="none" stroke="#191970" d="M727.2649,-282.2534C844.0147,-277.7062 1098.3512,-265.603 1322.3545,-239.0624"/>
<polygon fill="#191970" stroke="#191970" points="1322.8109,-242.5329 1332.324,-237.8691 1321.9789,-235.5825 1322.8109,-242.5329"/>
</g>
    <!-- Node17 -->
<g id="node18" class="node">
<title>Node17</title>
<polygon fill="none" stroke="#bfbfbf" points="110.042,-220.5 110.042,-238.5 205.5293,-238.5 205.5293,-220.5 110.042,-220.5"/>
<text text-anchor="middle" x="157.7856" y="-226.5" font-family="Helvetica,sans-Serif" font-size="10.00" fill="#000000">gtkmm/hvpaned.h</text>
</g>
    <!-- Node8&#45;&gt;Node17 -->
<g id="edge18" class="edge">
<title>Node8&#45;&gt;Node17</title>
<path fill="none" stroke="#191970" d="M598.3097,-279.3339C513.0054,-272.1943 357.7361,-258.1457 215.9022,-239.2192"/>
<polygon fill="#191970" stroke="#191970" points="216.092,-235.7133 205.7145,-237.8481 215.1583,-242.6507 216.092,-235.7133"/>
</g>
    <!-- Node18 -->
<g id="node19" class="node">
<title>Node18</title>
<polygon fill="none" stroke="#bfbfbf" points="223.271,-220.5 223.271,-238.5 324.3003,-238.5 324.3003,-220.5 223.271,-220.5"/>
<text text-anchor="middle" x="273.7856" y="-226.5" font-family="Helvetica,sans-Serif" font-size="10.00" fill="#000000">gtkmm/listboxrow.h</text>
</g>
    <!-- Node8&#45;&gt;Node18 -->
<g id="edge19" class="edge">
<title>Node8&#45;&gt;Node18</title>
<path fill="none" stroke="#191970" d="M598.2257,-276.038C533.8664,-267.5025 431.922,-253.7141 334.3411,-239.2083"/>
<polygon fill="#191970" stroke="#191970" points="334.7114,-235.7249 324.3045,-237.7115 333.6788,-242.6484 334.7114,-235.7249"/>
</g>
    <!-- Node19 -->
<g id="node20" class="node">
<title>Node19</title>
<g id="a_node20"><a xlink:href="../../de/d01/_prescription_8hpp.html" target="_top" xlink:title="../../model/Prescription.hpp">
<polygon fill="none" stroke="#000000" points="331.313,-165.5 331.313,-183.5 466.2583,-183.5 466.2583,-165.5 331.313,-165.5"/>
<text text-anchor="middle" x="398.7856" y="-171.5" font-family="Helvetica,sans-Serif" font-size="10.00" fill="#000000">../../model/Prescription.hpp</text>
</a>
</g>
</g>
    <!-- Node8&#45;&gt;Node19 -->
<g id="edge20" class="edge">
<title>Node8&#45;&gt;Node19</title>
<path fill="none" stroke="#191970" d="M633.3026,-275.4815C606.2947,-266.9517 565.3779,-253.3501 530.7856,-239 493.0168,-223.3322 450.7871,-201.9936 424.4947,-188.2307"/>
<polygon fill="#191970" stroke="#191970" points="426.0456,-185.0917 415.5668,-183.5274 422.7829,-191.2849 426.0456,-185.0917"/>
</g>
    <!-- Node28 -->
<g id="node29" class="node">
<title>Node28</title>
<g id="a_node29"><a xlink:href="../../d8/d63/_date_8hpp.html" target="_top" xlink:title="../../utils/Date.hpp">
<polygon fill="none" stroke="#000000" points="805.877,-165.5 805.877,-183.5 899.6943,-183.5 899.6943,-165.5 805.877,-165.5"/>
<text text-anchor="middle" x="852.7856" y="-171.5" font-family="Helvetica,sans-Serif" font-size="10.00" fill="#000000">../../utils/Date.hpp</text>
</a>
</g>
</g>
    <!-- Node8&#45;&gt;Node28 -->
<g id="edge37" class="edge">
<title>Node8&#45;&gt;Node28</title>
<path fill="none" stroke="#191970" d="M609.8591,-275.4991C566.6396,-265.9014 516.3837,-248.1516 540.7856,-220 577.6934,-177.421 736.057,-192.3357 791.7856,-184 793.0676,-183.8083 794.3645,-183.6134 795.6722,-183.4162"/>
<polygon fill="#191970" stroke="#191970" points="796.4769,-186.8342 805.8368,-181.87 795.4241,-179.9138 796.4769,-186.8342"/>
</g>
    <!-- Node29 -->
<g id="node30" class="node">
<title>Node29</title>
<g id="a_node30"><a xlink:href="../../d0/da9/_patient_8hpp.html" target="_top" xlink:title="../../model/Patient.hpp">
<polygon fill="none" stroke="#000000" points="342.1455,-220.5 342.1455,-238.5 455.4258,-238.5 455.4258,-220.5 342.1455,-220.5"/>
<text text-anchor="middle" x="398.7856" y="-226.5" font-family="Helvetica,sans-Serif" font-size="10.00" fill="#000000">../../model/Patient.hpp</text>
</a>
</g>
</g>
    <!-- Node8&#45;&gt;Node29 -->
<g id="edge39" class="edge">
<title>Node8&#45;&gt;Node29</title>
<path fill="none" stroke="#191970" d="M619.487,-275.4795C573.6412,-265.9282 501.2259,-250.8417 451.9472,-240.5753"/>
<polygon fill="#191970" stroke="#191970" points="452.6116,-237.1387 442.1079,-238.5255 451.1838,-243.9915 452.6116,-237.1387"/>
</g>
    <!-- Node20 -->
<g id="node21" class="node">
<title>Node20</title>
<polygon fill="none" stroke="#bfbfbf" points="63.1699,-.5 63.1699,-18.5 106.4014,-18.5 106.4014,-.5 63.1699,-.5"/>
<text text-anchor="middle" x="84.7856" y="-6.5" font-family="Helvetica,sans-Serif" font-size="10.00" fill="#000000">vector</text>
</g>
    <!-- Node19&#45;&gt;Node20 -->
<g id="edge21" class="edge">
<title>Node19&#45;&gt;Node20</title>
<path fill="none" stroke="#191970" d="M331.159,-166.1351C269.7568,-157.7865 184.2847,-144.0603 153.7856,-129 121.0546,-112.8376 109.6502,-106.3749 92.7856,-74 85.5364,-60.0835 83.8022,-42.2536 83.7306,-28.8684"/>
<polygon fill="#191970" stroke="#191970" points="87.2299,-28.9367 83.9768,-18.8536 80.232,-28.7645 87.2299,-28.9367"/>
</g>
    <!-- Node21 -->
<g id="node22" class="node">
<title>Node21</title>
<polygon fill="none" stroke="#bfbfbf" points="588.5591,-.5 588.5591,-18.5 629.0122,-18.5 629.0122,-.5 588.5591,-.5"/>
<text text-anchor="middle" x="608.7856" y="-6.5" font-family="Helvetica,sans-Serif" font-size="10.00" fill="#000000">string</text>
</g>
    <!-- Node19&#45;&gt;Node21 -->
<g id="edge22" class="edge">
<title>Node19&#45;&gt;Node21</title>
<path fill="none" stroke="#191970" d="M452.9567,-165.4837C536.07,-150.422 688.8211,-117.4618 720.7856,-74 744.6335,-41.5744 680.0667,-22.9212 639.2838,-14.6605"/>
<polygon fill="#191970" stroke="#191970" points="639.7283,-11.1821 629.2482,-12.7373 638.4107,-18.057 639.7283,-11.1821"/>
</g>
    <!-- Node22 -->
<g id="node23" class="node">
<title>Node22</title>
<polygon fill="none" stroke="#bfbfbf" points="164.0591,-.5 164.0591,-18.5 199.5122,-18.5 199.5122,-.5 164.0591,-.5"/>
<text text-anchor="middle" x="181.7856" y="-6.5" font-family="Helvetica,sans-Serif" font-size="10.00" fill="#000000">map</text>
</g>
    <!-- Node19&#45;&gt;Node22 -->
<g id="edge23" class="edge">
<title>Node19&#45;&gt;Node22</title>
<path fill="none" stroke="#191970" d="M351.3864,-165.4444C275.0692,-149.7937 130.4826,-115.3556 100.7856,-74 82.9812,-49.2058 124.4334,-28.9257 154.3658,-18.08"/>
<polygon fill="#191970" stroke="#191970" points="155.658,-21.3367 163.9729,-14.7706 153.3782,-14.7184 155.658,-21.3367"/>
</g>
    <!-- Node23 -->
<g id="node24" class="node">
<title>Node23</title>
<polygon fill="none" stroke="#bfbfbf" points="505.8745,-55.5 505.8745,-73.5 639.6968,-73.5 639.6968,-55.5 505.8745,-55.5"/>
<text text-anchor="middle" x="572.7856" y="-61.5" font-family="Helvetica,sans-Serif" font-size="10.00" fill="#000000">gtkmm/treemodelcolumn.h</text>
</g>
    <!-- Node19&#45;&gt;Node23 -->
<g id="edge24" class="edge">
<title>Node19&#45;&gt;Node23</title>
<path fill="none" stroke="#191970" d="M413.0248,-165.4982C443.1039,-146.4827 513.3398,-102.0807 549.8414,-79.005"/>
<polygon fill="#191970" stroke="#191970" points="551.7674,-81.9282 558.3497,-73.6261 548.0269,-76.0114 551.7674,-81.9282"/>
</g>
    <!-- Node24 -->
<g id="node25" class="node">
<title>Node24</title>
<g id="a_node25"><a xlink:href="../../d3/d1b/_i_serializable_8hpp.html" target="_top" xlink:title="../interfaces/ISerializable.hpp">
<polygon fill="none" stroke="#000000" points="109.584,-55.5 109.584,-73.5 253.9873,-73.5 253.9873,-55.5 109.584,-55.5"/>
<text text-anchor="middle" x="181.7856" y="-61.5" font-family="Helvetica,sans-Serif" font-size="10.00" fill="#000000">../interfaces/ISerializable.hpp</text>
</a>
</g>
</g>
    <!-- Node19&#45;&gt;Node24 -->
<g id="edge25" class="edge">
<title>Node19&#45;&gt;Node24</title>
<path fill="none" stroke="#191970" d="M381.0276,-165.4982C343.1178,-146.2813 254.0608,-101.1372 208.9676,-78.2788"/>
<polygon fill="#191970" stroke="#191970" points="210.291,-75.0258 199.789,-73.6261 207.126,-81.2694 210.291,-75.0258"/>
</g>
    <!-- Node25 -->
<g id="node26" class="node">
<title>Node25</title>
<g id="a_node26"><a xlink:href="../../dd/df9/_drug_8hpp.html" target="_top" xlink:title="Drug.hpp">
<polygon fill="none" stroke="#000000" points="370.2168,-110.5 370.2168,-128.5 427.3545,-128.5 427.3545,-110.5 370.2168,-110.5"/>
<text text-anchor="middle" x="398.7856" y="-116.5" font-family="Helvetica,sans-Serif" font-size="10.00" fill="#000000">Drug.hpp</text>
</a>
</g>
</g>
    <!-- Node19&#45;&gt;Node25 -->
<g id="edge29" class="edge">
<title>Node19&#45;&gt;Node25</title>
<path fill="none" stroke="#191970" d="M398.7856,-165.4179C398.7856,-158.2164 398.7856,-147.8962 398.7856,-138.8632"/>
<polygon fill="#191970" stroke="#191970" points="402.2857,-138.7794 398.7856,-128.7795 395.2857,-138.7795 402.2857,-138.7794"/>
</g>
    <!-- Node24&#45;&gt;Node20 -->
<g id="edge28" class="edge">
<title>Node24&#45;&gt;Node20</title>
<path fill="none" stroke="#191970" d="M165.7681,-55.4179C150.6037,-46.8195 127.5986,-33.7754 109.9782,-23.7844"/>
<polygon fill="#191970" stroke="#191970" points="111.2523,-20.4834 100.827,-18.5956 107.7996,-26.5727 111.2523,-20.4834"/>
</g>
    <!-- Node24&#45;&gt;Node21 -->
<g id="edge26" class="edge">
<title>Node24&#45;&gt;Node21</title>
<path fill="none" stroke="#191970" d="M251.8179,-55.4795C346.3679,-43.3009 510.7867,-22.1228 578.4083,-13.4128"/>
<polygon fill="#191970" stroke="#191970" points="578.9336,-16.8741 588.4045,-12.1252 578.0393,-9.9315 578.9336,-16.8741"/>
</g>
    <!-- Node24&#45;&gt;Node22 -->
<g id="edge27" class="edge">
<title>Node24&#45;&gt;Node22</title>
<path fill="none" stroke="#191970" d="M181.7856,-55.4179C181.7856,-48.2164 181.7856,-37.8962 181.7856,-28.8632"/>
<polygon fill="#191970" stroke="#191970" points="185.2857,-28.7794 181.7856,-18.7795 178.2857,-28.7795 185.2857,-28.7794"/>
</g>
    <!-- Node25&#45;&gt;Node20 -->
<g id="edge31" class="edge">
<title>Node25&#45;&gt;Node20</title>
<path fill="none" stroke="#191970" d="M376.3661,-110.408C355.2841,-101.6688 322.9865,-87.7893 295.7856,-74 280.6906,-66.3477 278.4623,-61.3768 262.7856,-55 213.4405,-34.9277 152.7199,-21.6799 116.4689,-14.8951"/>
<polygon fill="#191970" stroke="#191970" points="116.949,-11.425 106.4833,-13.0745 115.6933,-18.3115 116.949,-11.425"/>
</g>
    <!-- Node25&#45;&gt;Node21 -->
<g id="edge30" class="edge">
<title>Node25&#45;&gt;Node21</title>
<path fill="none" stroke="#191970" d="M410.9885,-110.3319C429.0676,-97.017 464.3336,-72.0597 496.7856,-55 523.6486,-40.8784 555.8987,-28.193 578.8793,-19.8268"/>
<polygon fill="#191970" stroke="#191970" points="580.1921,-23.0744 588.425,-16.4058 577.8304,-16.4848 580.1921,-23.0744"/>
</g>
    <!-- Node25&#45;&gt;Node22 -->
<g id="edge32" class="edge">
<title>Node25&#45;&gt;Node22</title>
<path fill="none" stroke="#191970" d="M385.8964,-110.3654C366.8155,-97.0923 329.6521,-72.1864 295.7856,-55 267.1484,-40.4673 232.7223,-27.2773 209.2465,-18.8853"/>
<polygon fill="#191970" stroke="#191970" points="210.193,-15.5079 199.5982,-15.4861 207.8669,-22.1101 210.193,-15.5079"/>
</g>
    <!-- Node25&#45;&gt;Node23 -->
<g id="edge33" class="edge">
<title>Node25&#45;&gt;Node23</title>
<path fill="none" stroke="#191970" d="M427.5182,-110.4179C456.8226,-101.155 502.4502,-86.7325 534.7398,-76.526"/>
<polygon fill="#191970" stroke="#191970" points="535.8195,-79.8555 544.2996,-73.5042 533.7097,-73.181 535.8195,-79.8555"/>
</g>
    <!-- Node25&#45;&gt;Node24 -->
<g id="edge36" class="edge">
<title>Node25&#45;&gt;Node24</title>
<path fill="none" stroke="#191970" d="M369.9697,-112.1964C333.5738,-102.9717 270.517,-86.9895 227.5136,-76.09"/>
<polygon fill="#191970" stroke="#191970" points="228.1351,-72.637 217.5817,-73.5727 226.4153,-79.4224 228.1351,-72.637"/>
</g>
    <!-- Node26 -->
<g id="node27" class="node">
<title>Node26</title>
<polygon fill="none" stroke="#bfbfbf" points="347.9927,-55.5 347.9927,-73.5 449.5786,-73.5 449.5786,-55.5 347.9927,-55.5"/>
<text text-anchor="middle" x="398.7856" y="-61.5" font-family="Helvetica,sans-Serif" font-size="10.00" fill="#000000">gtkmm/treemodel.h</text>
</g>
    <!-- Node25&#45;&gt;Node26 -->
<g id="edge34" class="edge">
<title>Node25&#45;&gt;Node26</title>
<path fill="none" stroke="#191970" d="M398.7856,-110.4179C398.7856,-103.2164 398.7856,-92.8962 398.7856,-83.8632"/>
<polygon fill="#191970" stroke="#191970" points="402.2857,-83.7794 398.7856,-73.7795 395.2857,-83.7795 402.2857,-83.7794"/>
</g>
    <!-- Node27 -->
<g id="node28" class="node">
<title>Node27</title>
<polygon fill="none" stroke="#bfbfbf" points="657.6133,-55.5 657.6133,-73.5 711.958,-73.5 711.958,-55.5 657.6133,-55.5"/>
<text text-anchor="middle" x="684.7856" y="-61.5" font-family="Helvetica,sans-Serif" font-size="10.00" fill="#000000">iostream</text>
</g>
    <!-- Node25&#45;&gt;Node27 -->
<g id="edge35" class="edge">
<title>Node25&#45;&gt;Node27</title>
<path fill="none" stroke="#191970" d="M427.4255,-115.0337C472.3089,-107.8735 562.131,-92.8983 647.4773,-74.1656"/>
<polygon fill="#191970" stroke="#191970" points="648.3167,-77.5645 657.3222,-71.9832 646.8017,-70.7304 648.3167,-77.5645"/>
</g>
    <!-- Node28&#45;&gt;Node27 -->
<g id="edge38" class="edge">
<title>Node28&#45;&gt;Node27</title>
<path fill="none" stroke="#191970" d="M839.0375,-165.4982C810.1187,-146.5633 742.7557,-102.4566 707.3884,-79.2994"/>
<polygon fill="#191970" stroke="#191970" points="709.0072,-76.1759 698.7238,-73.6261 705.1727,-82.0322 709.0072,-76.1759"/>
</g>
    <!-- Node29&#45;&gt;Node19 -->
<g id="edge44" class="edge">
<title>Node29&#45;&gt;Node19</title>
<path fill="none" stroke="#191970" d="M398.7856,-220.4179C398.7856,-213.2164 398.7856,-202.8962 398.7856,-193.8632"/>
<polygon fill="#191970" stroke="#191970" points="402.2857,-193.7794 398.7856,-183.7795 395.2857,-193.7795 402.2857,-193.7794"/>
</g>
    <!-- Node29&#45;&gt;Node20 -->
<g id="edge40" class="edge">
<title>Node29&#45;&gt;Node20</title>
<path fill="none" stroke="#191970" d="M341.9459,-220.7581C280.7591,-208.9148 183.281,-182.7428 116.7856,-129 94.4349,-110.9357 90.6403,-101.6438 82.7856,-74 78.6174,-59.3302 79.4475,-42.0243 81.1388,-29.0335"/>
<polygon fill="#191970" stroke="#191970" points="84.6358,-29.3273 82.7429,-18.903 77.722,-28.2325 84.6358,-29.3273"/>
</g>
    <!-- Node29&#45;&gt;Node21 -->
<g id="edge41" class="edge">
<title>Node29&#45;&gt;Node21</title>
<path fill="none" stroke="#191970" d="M455.4723,-223.5643C536.3959,-211.5883 681.47,-176.2273 737.7856,-74 759.9881,-33.6968 683.8415,-18.0196 639.1032,-12.3814"/>
<polygon fill="#191970" stroke="#191970" points="639.3524,-8.8869 629.0157,-11.2114 638.5459,-15.8403 639.3524,-8.8869"/>
</g>
    <!-- Node29&#45;&gt;Node23 -->
<g id="edge42" class="edge">
<title>Node29&#45;&gt;Node23</title>
<path fill="none" stroke="#191970" d="M417.7791,-220.47C433.9193,-212.2711 457.2011,-199.1661 474.7856,-184 510.9983,-152.7677 544.2893,-107.1009 561.1741,-82.2373"/>
<polygon fill="#191970" stroke="#191970" points="564.1665,-84.0588 566.814,-73.8001 558.3469,-80.1687 564.1665,-84.0588"/>
</g>
    <!-- Node29&#45;&gt;Node24 -->
<g id="edge43" class="edge">
<title>Node29&#45;&gt;Node24</title>
<path fill="none" stroke="#191970" d="M381.9854,-220.4878C366.2477,-211.8049 342.2933,-197.9635 322.7856,-184 275.6969,-150.2939 224.9273,-104.7233 199.068,-80.7669"/>
<polygon fill="#191970" stroke="#191970" points="201.2851,-78.0488 191.5836,-73.7907 196.5123,-83.1694 201.2851,-78.0488"/>
</g>
</g>
</svg>
        <g id="navigator" transform="translate(0 0)" fill="#404254">
                <rect fill="#f2f5e9" fill-opacity="0.5" stroke="#606060" stroke-width=".5" x="0" y="0" width="60" height="60"/>
                <use id="zoomplus" xlink:href="#zoomPlus" x="17" y="9" onmousedown="handleZoom(evt,'in')"/>
                <use id="zoomminus" xlink:href="#zoomMin" x="42" y="9" onmousedown="handleZoom(evt,'out')"/>
                <use id="reset" xlink:href="#resetDef" x="30" y="36" onmousedown="handleReset()"/>
                <g id="arrowUp" xlink:href="#dirArrow" transform="translate(30 24)" onmousedown="handlePan(0,-1)">
                  <use xlink:href="#rim" fill="#404040">
                        <set attributeName="fill" to="#808080" begin="arrowUp.mouseover" end="arrowUp.mouseout"/>
                  </use>
                  <path fill="none" stroke="white" stroke-width="1.5" d="M0,-3.0v7 M-2.5,-0.5L0,-3.0L2.5,-0.5"/>
                </g>
                <g id="arrowRight" xlink:href="#dirArrow" transform="rotate(90) translate(36 -43)" onmousedown="handlePan(1,0)">
                  <use xlink:href="#rim" fill="#404040">
                        <set attributeName="fill" to="#808080" begin="arrowRight.mouseover" end="arrowRight.mouseout"/>
                  </use>
                  <path fill="none" stroke="white" stroke-width="1.5" d="M0,-3.0v7 M-2.5,-0.5L0,-3.0L2.5,-0.5"/>
                </g>
                <g id="arrowDown" xlink:href="#dirArrow" transform="rotate(180) translate(-30 -48)" onmousedown="handlePan(0,1)">
                  <use xlink:href="#rim" fill="#404040">
                        <set attributeName="fill" to="#808080" begin="arrowDown.mouseover" end="arrowDown.mouseout"/>
                  </use>
                  <path fill="none" stroke="white" stroke-width="1.5" d="M0,-3.0v7 M-2.5,-0.5L0,-3.0L2.5,-0.5"/>
                </g>
                <g id="arrowLeft" xlink:href="#dirArrow" transform="rotate(270) translate(-36 17)" onmousedown="handlePan(-1,0)">
                  <use xlink:href="#rim" fill="#404040">
                        <set attributeName="fill" to="#808080" begin="arrowLeft.mouseover" end="arrowLeft.mouseout"/>
                  </use>
                  <path fill="none" stroke="white" stroke-width="1.5" d="M0,-3.0v7 M-2.5,-0.5L0,-3.0L2.5,-0.5"/>
                </g>
        </g>
        <svg viewBox="0 0 15 15" width="100%" height="30px" preserveAspectRatio="xMaxYMin meet">
         <g id="arrow_out" transform="scale(0.3 0.3)">
          <a xlink:href="_drug_window_8hpp__incl_org.svg" target="_base">
           <rect id="button" ry="5" rx="5" y="6" x="6" height="38" width="38"
                fill="#f2f5e9" fill-opacity="0.5" stroke="#606060" stroke-width="1.0"/>
           <path id="arrow"
             d="M 11.500037,31.436501 C 11.940474,20.09759 22.043105,11.32322 32.158766,21.979434 L 37.068811,17.246167 C 37.068811,17.246167 37.088388,32 37.088388,32 L 22.160133,31.978069 C 22.160133,31.978069 26.997745,27.140456 26.997745,27.140456 C 18.528582,18.264221 13.291696,25.230495 11.500037,31.436501 z"
             style="fill:#404040;"/>
          </a>
         </g>
        </svg>
</svg>
