<?xml version="1.0" encoding="UTF-8" standalone="no"?>
<!DOCTYPE svg PUBLIC "-//W3C//DTD SVG 1.1//EN"
        "http://www.w3.org/Graphics/SVG/1.1/DTD/svg11.dtd">
<!-- Generated by graphviz version 2.40.1 (20161225.0304)
 -->
<!-- Title: code/interfaces/ISerializable.hpp Pages: 1 -->
<svg width="169pt" height="82pt"
     viewBox="0.00 0.00 168.53 82.00" xmlns="http://www.w3.org/2000/svg" xmlns:xlink="http://www.w3.org/1999/xlink">
    <g id="graph0" class="graph" transform="scale(1 1) rotate(0) translate(4 78)">
        <title>code/interfaces/ISerializable.hpp</title>
        <!-- Node0 -->
        <g id="node1" class="node">
            <title>Node0</title>
            <polygon fill="#bfbfbf" stroke="#000000" points="0,-55.5 0,-73.5 160.5313,-73.5 160.5313,-55.5 0,-55.5"/>
            <text text-anchor="middle" x="80.2656" y="-61.5" font-family="Helvetica,sans-Serif" font-size="10.00"
                  fill="#000000">code/interfaces/ISerializable.hpp
            </text>
        </g>
        <!-- Node1 -->
        <g id="node2" class="node">
            <title>Node1</title>
            <polygon fill="none" stroke="#bfbfbf"
                     points="4.0391,-.5 4.0391,-18.5 44.4922,-18.5 44.4922,-.5 4.0391,-.5"/>
            <text text-anchor="middle" x="24.2656" y="-6.5" font-family="Helvetica,sans-Serif" font-size="10.00"
                  fill="#000000">string
            </text>
        </g>
        <!-- Node0&#45;&gt;Node1 -->
        <g id="edge1" class="edge">
            <title>Node0&#45;&gt;Node1</title>
            <path fill="none" stroke="#191970" d="M71.0184,-55.4179C62.8802,-47.425 50.8303,-35.5903 41.0022,-25.9377"/>
            <polygon fill="#191970" stroke="#191970"
                     points="43.3008,-23.2895 33.7138,-18.7795 38.3958,-28.2836 43.3008,-23.2895"/>
        </g>
        <!-- Node2 -->
        <g id="node3" class="node">
            <title>Node2</title>
            <polygon fill="none" stroke="#bfbfbf"
                     points="62.5391,-.5 62.5391,-18.5 97.9922,-18.5 97.9922,-.5 62.5391,-.5"/>
            <text text-anchor="middle" x="80.2656" y="-6.5" font-family="Helvetica,sans-Serif" font-size="10.00"
                  fill="#000000">map
            </text>
        </g>
        <!-- Node0&#45;&gt;Node2 -->
        <g id="edge2" class="edge">
            <title>Node0&#45;&gt;Node2</title>
            <path fill="none" stroke="#191970"
                  d="M80.2656,-55.4179C80.2656,-48.2164 80.2656,-37.8962 80.2656,-28.8632"/>
            <polygon fill="#191970" stroke="#191970"
                     points="83.7657,-28.7794 80.2656,-18.7795 76.7657,-28.7795 83.7657,-28.7794"/>
        </g>
        <!-- Node3 -->
        <g id="node4" class="node">
            <title>Node3</title>
            <polygon fill="none" stroke="#bfbfbf"
                     points="115.6499,-.5 115.6499,-18.5 158.8813,-18.5 158.8813,-.5 115.6499,-.5"/>
            <text text-anchor="middle" x="137.2656" y="-6.5" font-family="Helvetica,sans-Serif" font-size="10.00"
                  fill="#000000">vector
            </text>
        </g>
        <!-- Node0&#45;&gt;Node3 -->
        <g id="edge3" class="edge">
            <title>Node0&#45;&gt;Node3</title>
            <path fill="none" stroke="#191970"
                  d="M89.678,-55.4179C97.9615,-47.425 110.2265,-35.5903 120.2301,-25.9377"/>
            <polygon fill="#191970" stroke="#191970"
                     points="122.8828,-28.2419 127.6487,-18.7795 118.0222,-23.2045 122.8828,-28.2419"/>
        </g>
    </g>
</svg>
