<?xml version="1.0" encoding="UTF-8" standalone="no"?>
<!DOCTYPE svg PUBLIC "-//W3C//DTD SVG 1.1//EN"
        "http://www.w3.org/Graphics/SVG/1.1/DTD/svg11.dtd">
<!-- Generated by graphviz version 2.40.1 (20161225.0304)
 -->
<!-- Title: code/interfaces/ISerializable.hpp Pages: 1 -->
<svg width="169pt" height="82pt"
     viewBox="0.00 0.00 168.53 82.00" xmlns="http://www.w3.org/2000/svg" xmlns:xlink="http://www.w3.org/1999/xlink">
    <g id="graph0" class="graph" transform="scale(1 1) rotate(0) translate(4 78)">
        <title>code/interfaces/ISerializable.hpp</title>
        <!-- Node0 -->
        <g id="node1" class="node">
            <title>Node0</title>
            <polygon fill="#bfbfbf" stroke="#000000" points="0,-55.5 0,-73.5 160.5313,-73.5 160.5313,-55.5 0,-55.5"/>
            <text text-anchor="middle" x="80.2656" y="-61.5" font-family="Helvetica,sans-Serif" font-size="10.00"
                  fill="#000000">code/interfaces/ISerializable.hpp
            </text>
        </g>
        <!-- Node1 -->
        <g id="node2" class="node">
            <title>Node1</title>
            <polygon fill="none" stroke="#bfbfbf"
                     points="32.0391,-.5 32.0391,-18.5 72.4922,-18.5 72.4922,-.5 32.0391,-.5"/>
            <text text-anchor="middle" x="52.2656" y="-6.5" font-family="Helvetica,sans-Serif" font-size="10.00"
                  fill="#000000">string
            </text>
        </g>
        <!-- Node0&#45;&gt;Node1 -->
        <g id="edge1" class="edge">
            <title>Node0&#45;&gt;Node1</title>
            <path fill="none" stroke="#191970" d="M75.642,-55.4179C71.8549,-47.9789 66.3737,-37.2123 61.6707,-27.9742"/>
            <polygon fill="#191970" stroke="#191970"
                     points="64.6457,-26.1032 56.9897,-18.7795 58.4075,-29.279 64.6457,-26.1032"/>
        </g>
        <!-- Node2 -->
        <g id="node3" class="node">
            <title>Node2</title>
            <polygon fill="none" stroke="#bfbfbf"
                     points="90.5391,-.5 90.5391,-18.5 125.9922,-18.5 125.9922,-.5 90.5391,-.5"/>
            <text text-anchor="middle" x="108.2656" y="-6.5" font-family="Helvetica,sans-Serif" font-size="10.00"
                  fill="#000000">map
            </text>
        </g>
        <!-- Node0&#45;&gt;Node2 -->
        <g id="edge2" class="edge">
            <title>Node0&#45;&gt;Node2</title>
            <path fill="none" stroke="#191970"
                  d="M84.8893,-55.4179C88.6763,-47.9789 94.1575,-37.2123 98.8606,-27.9742"/>
            <polygon fill="#191970" stroke="#191970"
                     points="102.1237,-29.279 103.5415,-18.7795 95.8856,-26.1032 102.1237,-29.279"/>
        </g>
    </g>
</svg>
