<?xml version="1.0" encoding="UTF-8" standalone="no"?>
<!DOCTYPE svg PUBLIC "-//W3C//DTD SVG 1.1//EN"
        "http://www.w3.org/Graphics/SVG/1.1/DTD/svg11.dtd">
<!-- Generated by graphviz version 2.40.1 (20161225.0304)
 -->
<!-- Title: code/gui/view/CustomWidgets.hpp Pages: 1 -->
<!--zoomable 157 -->
<svg id="main" version="1.1" xmlns="http://www.w3.org/2000/svg" xmlns:xlink="http://www.w3.org/1999/xlink" xml:space="preserve" onload="init(evt)">
<style type="text/css"><![CDATA[
.edge:hover path { stroke: red; }
.edge:hover polygon { stroke: red; fill: red; }
]]></style>
<script type="text/javascript"><![CDATA[
var edges = document.getElementsByTagName('g');
if (edges && edges.length) {
  for (var i=0;i<edges.length;i++) {
    if (edges[i].id.substr(0,4)=='edge') {
      edges[i].setAttribute('class','edge');
    }
  }
}
]]></script>
        <defs>
                <circle id="rim" cx="0" cy="0" r="7"/>
                <circle id="rim2" cx="0" cy="0" r="3.5"/>
                <g id="zoomPlus">
                        <use xlink:href="#rim" fill="#404040">
                                <set attributeName="fill" to="#808080" begin="zoomplus.mouseover" end="zoomplus.mouseout"/>
                        </use>
                        <path d="M-4,0h8M0,-4v8" fill="none" stroke="white" stroke-width="1.5" pointer-events="none"/>
                </g>
                <g id="zoomMin">
                        <use xlink:href="#rim" fill="#404040">
                                <set attributeName="fill" to="#808080" begin="zoomminus.mouseover" end="zoomminus.mouseout"/>
                        </use>
                        <path d="M-4,0h8" fill="none" stroke="white" stroke-width="1.5" pointer-events="none"/>
                </g>
                <g id="dirArrow">
                        <path fill="none" stroke="white" stroke-width="1.5" d="M0,-3.0v7 M-2.5,-0.5L0,-3.0L2.5,-0.5"/>
                </g>
               <g id="resetDef">
                       <use xlink:href="#rim2" fill="#404040">
                               <set attributeName="fill" to="#808080" begin="reset.mouseover" end="reset.mouseout"/>
                       </use>
               </g>
        </defs>

<script type="text/javascript">
var viewWidth = 707;
var viewHeight = 157;
var sectionId = 'dynsection-1';
</script>
<script xlink:href="../../svgpan.js"/>
<svg id="graph" class="graph">
<g id="viewport">
<title>code/gui/view/CustomWidgets.hpp</title>
    <!-- Node23 -->
<g id="node1" class="node">
<title>Node23</title>
<polygon fill="#bfbfbf" stroke="#000000" points="282.8843,-130.5 282.8843,-148.5 452.2925,-148.5 452.2925,-130.5 282.8843,-130.5"/>
<text text-anchor="middle" x="367.5884" y="-136.5" font-family="Helvetica,sans-Serif" font-size="10.00" fill="#000000">code/gui/view/CustomWidgets.hpp</text>
</g>
    <!-- Node24 -->
<g id="node2" class="node">
<title>Node24</title>
<g id="a_node2"><a xlink:href="../../d0/d1e/_add_prescription_dialog_8hpp.html" target="_top" xlink:title="code/gui/AddPrescription\lDialog.hpp">
<polygon fill="none" stroke="#000000" points="74,-65.5 74,-93.5 201.1768,-93.5 201.1768,-65.5 74,-65.5"/>
<text text-anchor="start" x="82" y="-81.5" font-family="Helvetica,sans-Serif" font-size="10.00" fill="#000000">code/gui/AddPrescription</text>
<text text-anchor="middle" x="137.5884" y="-71.5" font-family="Helvetica,sans-Serif" font-size="10.00" fill="#000000">Dialog.hpp</text>
</a>
</g>
</g>
    <!-- Node23&#45;&gt;Node24 -->
<g id="edge1" class="edge">
<title>Node23&#45;&gt;Node24</title>
<path fill="none" stroke="#191970" d="M322.9741,-127.8615C285.3147,-118.0373 231.2912,-103.9442 191.2705,-93.504"/>
<polygon fill="#191970" stroke="#191970" points="322.0967,-131.2497 332.6563,-130.3873 323.8637,-124.4763 322.0967,-131.2497"/>
</g>
    <!-- Node27 -->
<g id="node5" class="node">
<title>Node27</title>
<g id="a_node5"><a xlink:href="../../dd/d02/_drug_window_8hpp.html" target="_top" xlink:title="code/gui/DrugWindow.hpp">
<polygon fill="none" stroke="#000000" points="379.2168,-70.5 379.2168,-88.5 511.96,-88.5 511.96,-70.5 379.2168,-70.5"/>
<text text-anchor="middle" x="445.5884" y="-76.5" font-family="Helvetica,sans-Serif" font-size="10.00" fill="#000000">code/gui/DrugWindow.hpp</text>
</a>
</g>
</g>
    <!-- Node23&#45;&gt;Node27 -->
<g id="edge4" class="edge">
<title>Node23&#45;&gt;Node27</title>
<path fill="none" stroke="#191970" d="M387.4317,-124.2359C402.114,-112.9418 421.6157,-97.9405 433.8859,-88.5019"/>
<polygon fill="#191970" stroke="#191970" points="385.2272,-121.516 379.4349,-130.3873 389.4952,-127.0643 385.2272,-121.516"/>
</g>
    <!-- Node30 -->
<g id="node8" class="node">
<title>Node30</title>
<g id="a_node8"><a xlink:href="../../dd/de0/_patient_window_8hpp.html" target="_top" xlink:title="code/gui/PatientWindow.hpp">
<polygon fill="none" stroke="#000000" points="219.4878,-70.5 219.4878,-88.5 361.689,-88.5 361.689,-70.5 219.4878,-70.5"/>
<text text-anchor="middle" x="290.5884" y="-76.5" font-family="Helvetica,sans-Serif" font-size="10.00" fill="#000000">code/gui/PatientWindow.hpp</text>
</a>
</g>
</g>
    <!-- Node23&#45;&gt;Node30 -->
<g id="edge7" class="edge">
<title>Node23&#45;&gt;Node30</title>
<path fill="none" stroke="#191970" d="M347.9995,-124.2359C333.5054,-112.9418 314.2537,-97.9405 302.1408,-88.5019"/>
<polygon fill="#191970" stroke="#191970" points="345.8544,-127.0016 355.8937,-130.3873 350.157,-121.4799 345.8544,-127.0016"/>
</g>
    <!-- Node31 -->
<g id="node9" class="node">
<title>Node31</title>
<g id="a_node9"><a xlink:href="../../d1/dea/_custom_widgets_8cpp.html" target="_top" xlink:title="code/gui/view/CustomWidgets.cpp">
<polygon fill="none" stroke="#000000" points="530.165,-70.5 530.165,-88.5 699.0117,-88.5 699.0117,-70.5 530.165,-70.5"/>
<text text-anchor="middle" x="614.5884" y="-76.5" font-family="Helvetica,sans-Serif" font-size="10.00" fill="#000000">code/gui/view/CustomWidgets.cpp</text>
</a>
</g>
</g>
    <!-- Node23&#45;&gt;Node31 -->
<g id="edge10" class="edge">
<title>Node23&#45;&gt;Node31</title>
<path fill="none" stroke="#191970" d="M414.8354,-128.023C462.166,-116.5257 534.0458,-99.065 577.444,-88.5229"/>
<polygon fill="#191970" stroke="#191970" points="413.7254,-124.6908 404.8342,-130.4524 415.3778,-131.4929 413.7254,-124.6908"/>
</g>
    <!-- Node25 -->
<g id="node3" class="node">
<title>Node25</title>
<g id="a_node3"><a xlink:href="../../df/de8/_add_prescription_dialog_8cpp.html" target="_top" xlink:title="code/gui/AddPrescription\lDialog.cpp">
<polygon fill="none" stroke="#000000" points="0,-.5 0,-28.5 127.1768,-28.5 127.1768,-.5 0,-.5"/>
<text text-anchor="start" x="8" y="-16.5" font-family="Helvetica,sans-Serif" font-size="10.00" fill="#000000">code/gui/AddPrescription</text>
<text text-anchor="middle" x="63.5884" y="-6.5" font-family="Helvetica,sans-Serif" font-size="10.00" fill="#000000">Dialog.cpp</text>
</a>
</g>
</g>
    <!-- Node24&#45;&gt;Node25 -->
<g id="edge2" class="edge">
<title>Node24&#45;&gt;Node25</title>
<path fill="none" stroke="#191970" d="M113.792,-58.5978C102.6183,-48.7831 89.5956,-37.3442 79.6139,-28.5765"/>
<polygon fill="#191970" stroke="#191970" points="111.7085,-61.4261 121.5315,-65.396 116.3281,-56.1669 111.7085,-61.4261"/>
</g>
    <!-- Node26 -->
<g id="node4" class="node">
<title>Node26</title>
<g id="a_node4"><a xlink:href="../../d8/d35/_patient_window_8cpp.html" target="_top" xlink:title="code/gui/PatientWindow.cpp">
<polygon fill="none" stroke="#000000" points="144.7686,-5.5 144.7686,-23.5 286.4082,-23.5 286.4082,-5.5 144.7686,-5.5"/>
<text text-anchor="middle" x="215.5884" y="-11.5" font-family="Helvetica,sans-Serif" font-size="10.00" fill="#000000">code/gui/PatientWindow.cpp</text>
</a>
</g>
</g>
    <!-- Node24&#45;&gt;Node26 -->
<g id="edge3" class="edge">
<title>Node24&#45;&gt;Node26</title>
<path fill="none" stroke="#191970" d="M162.4832,-58.7543C176.7043,-46.9034 193.8171,-32.6427 204.6992,-23.5743"/>
<polygon fill="#191970" stroke="#191970" points="159.9548,-56.3053 154.5132,-65.396 164.4361,-61.6829 159.9548,-56.3053"/>
</g>
    <!-- Node28 -->
<g id="node6" class="node">
<title>Node28</title>
<g id="a_node6"><a xlink:href="../../d6/d9e/_drug_window_8cpp.html" target="_top" xlink:title="code/gui/DrugWindow.cpp">
<polygon fill="none" stroke="#000000" points="454.4976,-5.5 454.4976,-23.5 586.6792,-23.5 586.6792,-5.5 454.4976,-5.5"/>
<text text-anchor="middle" x="520.5884" y="-11.5" font-family="Helvetica,sans-Serif" font-size="10.00" fill="#000000">code/gui/DrugWindow.cpp</text>
</a>
</g>
</g>
    <!-- Node27&#45;&gt;Node28 -->
<g id="edge5" class="edge">
<title>Node27&#45;&gt;Node28</title>
<path fill="none" stroke="#191970" d="M463.7849,-63.7297C478.1642,-51.2676 497.7497,-34.2936 509.7628,-23.8821"/>
<polygon fill="#191970" stroke="#191970" points="461.2815,-61.2678 456.0168,-70.462 465.866,-66.5576 461.2815,-61.2678"/>
</g>
    <!-- Node29 -->
<g id="node7" class="node">
<title>Node29</title>
<g id="a_node7"><a xlink:href="../../d5/da5/_main_window_8cpp.html" target="_top" xlink:title="code/gui/MainWindow.cpp">
<polygon fill="none" stroke="#000000" points="304.4976,-5.5 304.4976,-23.5 436.6792,-23.5 436.6792,-5.5 304.4976,-5.5"/>
<text text-anchor="middle" x="370.5884" y="-11.5" font-family="Helvetica,sans-Serif" font-size="10.00" fill="#000000">code/gui/MainWindow.cpp</text>
</a>
</g>
</g>
    <!-- Node27&#45;&gt;Node29 -->
<g id="edge6" class="edge">
<title>Node27&#45;&gt;Node29</title>
<path fill="none" stroke="#191970" d="M427.3918,-63.7297C413.0126,-51.2676 393.4271,-34.2936 381.4139,-23.8821"/>
<polygon fill="#191970" stroke="#191970" points="425.3108,-66.5576 435.16,-70.462 429.8953,-61.2678 425.3108,-66.5576"/>
</g>
    <!-- Node30&#45;&gt;Node26 -->
<g id="edge9" class="edge">
<title>Node30&#45;&gt;Node26</title>
<path fill="none" stroke="#191970" d="M272.3918,-63.7297C258.0126,-51.2676 238.4271,-34.2936 226.4139,-23.8821"/>
<polygon fill="#191970" stroke="#191970" points="270.3108,-66.5576 280.16,-70.462 274.8953,-61.2678 270.3108,-66.5576"/>
</g>
    <!-- Node30&#45;&gt;Node29 -->
<g id="edge8" class="edge">
<title>Node30&#45;&gt;Node29</title>
<path fill="none" stroke="#191970" d="M309.618,-64.0384C325.0929,-51.4651 346.4061,-34.1481 359.3013,-23.6708"/>
<polygon fill="#191970" stroke="#191970" points="307.2661,-61.4397 301.712,-70.462 311.6803,-66.8725 307.2661,-61.4397"/>
</g>
</g>
</svg>
        <g id="navigator" transform="translate(0 0)" fill="#404254">
                <rect fill="#f2f5e9" fill-opacity="0.5" stroke="#606060" stroke-width=".5" x="0" y="0" width="60" height="60"/>
                <use id="zoomplus" xlink:href="#zoomPlus" x="17" y="9" onmousedown="handleZoom(evt,'in')"/>
                <use id="zoomminus" xlink:href="#zoomMin" x="42" y="9" onmousedown="handleZoom(evt,'out')"/>
                <use id="reset" xlink:href="#resetDef" x="30" y="36" onmousedown="handleReset()"/>
                <g id="arrowUp" xlink:href="#dirArrow" transform="translate(30 24)" onmousedown="handlePan(0,-1)">
                  <use xlink:href="#rim" fill="#404040">
                        <set attributeName="fill" to="#808080" begin="arrowUp.mouseover" end="arrowUp.mouseout"/>
                  </use>
                  <path fill="none" stroke="white" stroke-width="1.5" d="M0,-3.0v7 M-2.5,-0.5L0,-3.0L2.5,-0.5"/>
                </g>
                <g id="arrowRight" xlink:href="#dirArrow" transform="rotate(90) translate(36 -43)" onmousedown="handlePan(1,0)">
                  <use xlink:href="#rim" fill="#404040">
                        <set attributeName="fill" to="#808080" begin="arrowRight.mouseover" end="arrowRight.mouseout"/>
                  </use>
                  <path fill="none" stroke="white" stroke-width="1.5" d="M0,-3.0v7 M-2.5,-0.5L0,-3.0L2.5,-0.5"/>
                </g>
                <g id="arrowDown" xlink:href="#dirArrow" transform="rotate(180) translate(-30 -48)" onmousedown="handlePan(0,1)">
                  <use xlink:href="#rim" fill="#404040">
                        <set attributeName="fill" to="#808080" begin="arrowDown.mouseover" end="arrowDown.mouseout"/>
                  </use>
                  <path fill="none" stroke="white" stroke-width="1.5" d="M0,-3.0v7 M-2.5,-0.5L0,-3.0L2.5,-0.5"/>
                </g>
                <g id="arrowLeft" xlink:href="#dirArrow" transform="rotate(270) translate(-36 17)" onmousedown="handlePan(-1,0)">
                  <use xlink:href="#rim" fill="#404040">
                        <set attributeName="fill" to="#808080" begin="arrowLeft.mouseover" end="arrowLeft.mouseout"/>
                  </use>
                  <path fill="none" stroke="white" stroke-width="1.5" d="M0,-3.0v7 M-2.5,-0.5L0,-3.0L2.5,-0.5"/>
                </g>
        </g>
        <svg viewBox="0 0 15 15" width="100%" height="30px" preserveAspectRatio="xMaxYMin meet">
         <g id="arrow_out" transform="scale(0.3 0.3)">
          <a xlink:href="_custom_widgets_8hpp__dep__incl_org.svg" target="_base">
           <rect id="button" ry="5" rx="5" y="6" x="6" height="38" width="38"
                fill="#f2f5e9" fill-opacity="0.5" stroke="#606060" stroke-width="1.0"/>
           <path id="arrow"
             d="M 11.500037,31.436501 C 11.940474,20.09759 22.043105,11.32322 32.158766,21.979434 L 37.068811,17.246167 C 37.068811,17.246167 37.088388,32 37.088388,32 L 22.160133,31.978069 C 22.160133,31.978069 26.997745,27.140456 26.997745,27.140456 C 18.528582,18.264221 13.291696,25.230495 11.500037,31.436501 z"
             style="fill:#404040;"/>
          </a>
         </g>
        </svg>
</svg>
