<?xml version="1.0" encoding="UTF-8" standalone="no"?>
<!DOCTYPE svg PUBLIC "-//W3C//DTD SVG 1.1//EN"
        "http://www.w3.org/Graphics/SVG/1.1/DTD/svg11.dtd">
<!-- Generated by graphviz version 2.40.1 (20161225.0304)
 -->
<!-- Title: code/model/Drug.hpp Pages: 1 -->
<!--zoomable 322 -->
<svg id="main" version="1.1" xmlns="http://www.w3.org/2000/svg" xmlns:xlink="http://www.w3.org/1999/xlink" xml:space="preserve" onload="init(evt)">
<style type="text/css"><![CDATA[
.edge:hover path { stroke: red; }
.edge:hover polygon { stroke: red; fill: red; }
]]></style>
<script type="text/javascript"><![CDATA[
var edges = document.getElementsByTagName('g');
if (edges && edges.length) {
  for (var i=0;i<edges.length;i++) {
    if (edges[i].id.substr(0,4)=='edge') {
      edges[i].setAttribute('class','edge');
    }
  }
}
]]></script>
        <defs>
                <circle id="rim" cx="0" cy="0" r="7"/>
                <circle id="rim2" cx="0" cy="0" r="3.5"/>
                <g id="zoomPlus">
                        <use xlink:href="#rim" fill="#404040">
                                <set attributeName="fill" to="#808080" begin="zoomplus.mouseover" end="zoomplus.mouseout"/>
                        </use>
                        <path d="M-4,0h8M0,-4v8" fill="none" stroke="white" stroke-width="1.5" pointer-events="none"/>
                </g>
                <g id="zoomMin">
                        <use xlink:href="#rim" fill="#404040">
                                <set attributeName="fill" to="#808080" begin="zoomminus.mouseover" end="zoomminus.mouseout"/>
                        </use>
                        <path d="M-4,0h8" fill="none" stroke="white" stroke-width="1.5" pointer-events="none"/>
                </g>
                <g id="dirArrow">
                        <path fill="none" stroke="white" stroke-width="1.5" d="M0,-3.0v7 M-2.5,-0.5L0,-3.0L2.5,-0.5"/>
                </g>
               <g id="resetDef">
                       <use xlink:href="#rim2" fill="#404040">
                               <set attributeName="fill" to="#808080" begin="reset.mouseover" end="reset.mouseout"/>
                       </use>
               </g>
        </defs>

<script type="text/javascript">
var viewWidth = 1182;
var viewHeight = 322;
var sectionId = 'dynsection-1';
</script>
<script xlink:href="../../svgpan.js"/>
<svg id="graph" class="graph">
<g id="viewport">
<title>code/model/Drug.hpp</title>
    <!-- Node8 -->
<g id="node1" class="node">
<title>Node8</title>
<polygon fill="#bfbfbf" stroke="#000000" points="349.7769,-295.5 349.7769,-313.5 461.3921,-313.5 461.3921,-295.5 349.7769,-295.5"/>
<text text-anchor="middle" x="405.5845" y="-301.5" font-family="Helvetica,sans-Serif" font-size="10.00" fill="#000000">code/model/Drug.hpp</text>
</g>
    <!-- Node9 -->
<g id="node2" class="node">
<title>Node9</title>
<g id="a_node2"><a xlink:href="../../de/d01/_prescription_8hpp.html" target="_top" xlink:title="code/model/Prescription.hpp">
<polygon fill="none" stroke="#000000" points="334.2154,-240.5 334.2154,-258.5 476.9537,-258.5 476.9537,-240.5 334.2154,-240.5"/>
<text text-anchor="middle" x="405.5845" y="-246.5" font-family="Helvetica,sans-Serif" font-size="10.00" fill="#000000">code/model/Prescription.hpp</text>
</a>
</g>
</g>
    <!-- Node8&#45;&gt;Node9 -->
<g id="edge1" class="edge">
<title>Node8&#45;&gt;Node9</title>
<path fill="none" stroke="#191970" d="M405.5845,-285.383C405.5845,-276.3738 405.5845,-266.0373 405.5845,-258.7795"/>
<polygon fill="#191970" stroke="#191970" points="402.0846,-285.4178 405.5845,-295.4179 409.0846,-285.4179 402.0846,-285.4178"/>
</g>
    <!-- Node21 -->
<g id="node14" class="node">
<title>Node21</title>
<g id="a_node14"><a xlink:href="../../dd/dc5/_doctor_8hpp.html" target="_top" xlink:title="code/model/Doctor.hpp">
<polygon fill="none" stroke="#000000" points="237.1612,-130.5 237.1612,-148.5 356.0079,-148.5 356.0079,-130.5 237.1612,-130.5"/>
<text text-anchor="middle" x="296.5845" y="-136.5" font-family="Helvetica,sans-Serif" font-size="10.00" fill="#000000">code/model/Doctor.hpp</text>
</a>
</g>
</g>
    <!-- Node8&#45;&gt;Node21 -->
<g id="edge26" class="edge">
<title>Node8&#45;&gt;Node21</title>
<path fill="none" stroke="#191970" d="M368.944,-291.3537C353.4479,-284.0579 336.4955,-273.4763 325.5845,-259 299.6281,-224.562 296.5782,-170.0684 296.4464,-148.6113"/>
<polygon fill="#191970" stroke="#191970" points="367.7737,-294.6624 378.3372,-295.4772 370.5875,-288.2527 367.7737,-294.6624"/>
</g>
    <!-- Node26 -->
<g id="node19" class="node">
<title>Node26</title>
<g id="a_node19"><a xlink:href="../../d1/d9e/_drug_8cpp.html" target="_top" xlink:title="code/model/Drug.cpp">
<polygon fill="none" stroke="#000000" points="495.0577,-240.5 495.0577,-258.5 606.1114,-258.5 606.1114,-240.5 495.0577,-240.5"/>
<text text-anchor="middle" x="550.5845" y="-246.5" font-family="Helvetica,sans-Serif" font-size="10.00" fill="#000000">code/model/Drug.cpp</text>
</a>
</g>
</g>
    <!-- Node8&#45;&gt;Node26 -->
<g id="edge27" class="edge">
<title>Node8&#45;&gt;Node26</title>
<path fill="none" stroke="#191970" d="M438.8916,-291.8663C465.6761,-281.7066 502.6645,-267.6765 526.6052,-258.5956"/>
<polygon fill="#191970" stroke="#191970" points="437.637,-288.5988 429.5283,-295.4179 440.1196,-295.1438 437.637,-288.5988"/>
</g>
    <!-- Node10 -->
<g id="node3" class="node">
<title>Node10</title>
<g id="a_node3"><a xlink:href="../../d0/da9/_patient_8hpp.html" target="_top" xlink:title="code/model/Patient.hpp">
<polygon fill="none" stroke="#000000" points="612.0479,-185.5 612.0479,-203.5 733.1211,-203.5 733.1211,-185.5 612.0479,-185.5"/>
<text text-anchor="middle" x="672.5845" y="-191.5" font-family="Helvetica,sans-Serif" font-size="10.00" fill="#000000">code/model/Patient.hpp</text>
</a>
</g>
</g>
    <!-- Node9&#45;&gt;Node10 -->
<g id="edge2" class="edge">
<title>Node9&#45;&gt;Node10</title>
<path fill="none" stroke="#191970" d="M459.3245,-238.43C509.1552,-228.1652 582.394,-213.0786 628.77,-203.5255"/>
<polygon fill="#191970" stroke="#191970" points="458.4633,-235.0338 449.3752,-240.4795 459.8757,-241.8898 458.4633,-235.0338"/>
</g>
    <!-- Node12 -->
<g id="node5" class="node">
<title>Node12</title>
<g id="a_node5"><a xlink:href="../../d5/d46/_custom_widgets_8hpp.html" target="_top" xlink:title="code/gui/view/CustomWidgets.hpp">
<polygon fill="none" stroke="#000000" points="471.8804,-130.5 471.8804,-148.5 641.2886,-148.5 641.2886,-130.5 471.8804,-130.5"/>
<text text-anchor="middle" x="556.5845" y="-136.5" font-family="Helvetica,sans-Serif" font-size="10.00" fill="#000000">code/gui/view/CustomWidgets.hpp</text>
</a>
</g>
</g>
    <!-- Node9&#45;&gt;Node12 -->
<g id="edge22" class="edge">
<title>Node9&#45;&gt;Node12</title>
<path fill="none" stroke="#191970" d="M411.8074,-230.5455C417.3473,-216.3088 426.7384,-197.2352 440.5845,-185 461.2529,-166.7362 490.1076,-155.3785 513.8673,-148.5782"/>
<polygon fill="#191970" stroke="#191970" points="408.3919,-229.7017 408.3117,-240.2963 414.9812,-232.0641 408.3919,-229.7017"/>
</g>
    <!-- Node9&#45;&gt;Node21 -->
<g id="edge23" class="edge">
<title>Node9&#45;&gt;Node21</title>
<path fill="none" stroke="#191970" d="M389.5829,-233.3515C366.3649,-209.9206 324.0977,-167.2656 305.6277,-148.6261"/>
<polygon fill="#191970" stroke="#191970" points="387.1397,-235.8585 396.6646,-240.4982 392.112,-230.9314 387.1397,-235.8585"/>
</g>
    <!-- Node22 -->
<g id="node15" class="node">
<title>Node22</title>
<g id="a_node15"><a xlink:href="../../d1/d16/_prescription_window_8cpp.html" target="_top" xlink:title="code/gui/PrescriptionWindow.cpp">
<polygon fill="none" stroke="#000000" points="153.9322,-70.5 153.9322,-88.5 317.2369,-88.5 317.2369,-70.5 153.9322,-70.5"/>
<text text-anchor="middle" x="235.5845" y="-76.5" font-family="Helvetica,sans-Serif" font-size="10.00" fill="#000000">code/gui/PrescriptionWindow.cpp</text>
</a>
</g>
</g>
    <!-- Node9&#45;&gt;Node22 -->
<g id="edge24" class="edge">
<title>Node9&#45;&gt;Node22</title>
<path fill="none" stroke="#191970" d="M403.9457,-230.3177C400.7445,-204.3381 391.4195,-158.0039 364.5845,-130 343.7011,-108.2069 312.2907,-95.6446 285.6935,-88.5001"/>
<polygon fill="#191970" stroke="#191970" points="400.4778,-230.808 405.0014,-240.3886 407.4396,-230.0782 400.4778,-230.808"/>
</g>
    <!-- Node25 -->
<g id="node18" class="node">
<title>Node25</title>
<g id="a_node18"><a xlink:href="../../d5/db1/_prescription_8cpp.html" target="_top" xlink:title="code/model/Prescription.cpp">
<polygon fill="none" stroke="#000000" points="449.4961,-185.5 449.4961,-203.5 591.6729,-203.5 591.6729,-185.5 449.4961,-185.5"/>
<text text-anchor="middle" x="520.5845" y="-191.5" font-family="Helvetica,sans-Serif" font-size="10.00" fill="#000000">code/model/Prescription.cpp</text>
</a>
</g>
</g>
    <!-- Node9&#45;&gt;Node25 -->
<g id="edge25" class="edge">
<title>Node9&#45;&gt;Node25</title>
<path fill="none" stroke="#191970" d="M433.694,-236.0563C454.7802,-225.9716 483.0787,-212.4376 501.5664,-203.5956"/>
<polygon fill="#191970" stroke="#191970" points="432.0857,-232.9458 424.5744,-240.4179 435.1059,-239.2607 432.0857,-232.9458"/>
</g>
    <!-- Node11 -->
<g id="node4" class="node">
<title>Node11</title>
<g id="a_node4"><a xlink:href="../../db/db5/_add_patient_dialog_8cpp.html" target="_top" xlink:title="code/gui/AddPatientDialog.cpp">
<polygon fill="none" stroke="#000000" points="659.2032,-130.5 659.2032,-148.5 811.9659,-148.5 811.9659,-130.5 659.2032,-130.5"/>
<text text-anchor="middle" x="735.5845" y="-136.5" font-family="Helvetica,sans-Serif" font-size="10.00" fill="#000000">code/gui/AddPatientDialog.cpp</text>
</a>
</g>
</g>
    <!-- Node10&#45;&gt;Node11 -->
<g id="edge3" class="edge">
<title>Node10&#45;&gt;Node11</title>
<path fill="none" stroke="#191970" d="M690.8154,-178.5841C701.8878,-168.9177 715.6368,-156.9147 724.9553,-148.7795"/>
<polygon fill="#191970" stroke="#191970" points="688.2191,-176.2046 682.9877,-185.4179 692.8227,-181.4779 688.2191,-176.2046"/>
</g>
    <!-- Node10&#45;&gt;Node12 -->
<g id="edge4" class="edge">
<title>Node10&#45;&gt;Node12</title>
<path fill="none" stroke="#191970" d="M644.2306,-181.0563C622.9611,-170.9716 594.4165,-157.4376 575.768,-148.5956"/>
<polygon fill="#191970" stroke="#191970" points="642.8942,-184.2961 653.4295,-185.4179 645.8932,-177.9711 642.8942,-184.2961"/>
</g>
    <!-- Node14 -->
<g id="node7" class="node">
<title>Node14</title>
<g id="a_node7"><a xlink:href="../../df/de8/_add_prescription_dialog_8cpp.html" target="_top" xlink:title="code/gui/AddPrescription\lDialog.cpp">
<polygon fill="none" stroke="#000000" points="852.9961,-.5 852.9961,-28.5 980.1729,-28.5 980.1729,-.5 852.9961,-.5"/>
<text text-anchor="start" x="860.9961" y="-16.5" font-family="Helvetica,sans-Serif" font-size="10.00" fill="#000000">code/gui/AddPrescription</text>
<text text-anchor="middle" x="916.5845" y="-6.5" font-family="Helvetica,sans-Serif" font-size="10.00" fill="#000000">Dialog.cpp</text>
</a>
</g>
</g>
    <!-- Node10&#45;&gt;Node14 -->
<g id="edge15" class="edge">
<title>Node10&#45;&gt;Node14</title>
<path fill="none" stroke="#191970" d="M740.4228,-183.7747C828.5009,-168.3051 974.7553,-136.8163 1006.5845,-94 1026.3608,-67.3972 986.8531,-43.1724 954.0743,-28.6338"/>
<polygon fill="#191970" stroke="#191970" points="739.7645,-180.3365 730.5084,-185.4917 740.959,-187.2339 739.7645,-180.3365"/>
</g>
    <!-- Node10&#45;&gt;Node21 -->
<g id="edge16" class="edge">
<title>Node10&#45;&gt;Node21</title>
<path fill="none" stroke="#191970" d="M601.561,-184.1109C530.5849,-173.7288 422.6972,-157.9473 356.0842,-148.2034"/>
<polygon fill="#191970" stroke="#191970" points="601.3544,-187.6179 611.7557,-185.6022 602.3676,-180.6916 601.3544,-187.6179"/>
</g>
    <!-- Node24 -->
<g id="node17" class="node">
<title>Node24</title>
<g id="a_node17"><a xlink:href="../../d0/d77/_patient_8cpp.html" target="_top" xlink:title="code/model/Patient.cpp">
<polygon fill="none" stroke="#000000" points="1053.3287,-130.5 1053.3287,-148.5 1173.8404,-148.5 1173.8404,-130.5 1053.3287,-130.5"/>
<text text-anchor="middle" x="1113.5845" y="-136.5" font-family="Helvetica,sans-Serif" font-size="10.00" fill="#000000">code/model/Patient.cpp</text>
</a>
</g>
</g>
    <!-- Node10&#45;&gt;Node24 -->
<g id="edge21" class="edge">
<title>Node10&#45;&gt;Node24</title>
<path fill="none" stroke="#191970" d="M743.4359,-185.8083C817.359,-176.7181 936.6186,-161.992 1039.5845,-149 1043.9538,-148.4487 1048.4678,-147.8763 1053.0109,-147.298"/>
<polygon fill="#191970" stroke="#191970" points="742.8105,-182.3587 733.3123,-187.0528 743.6646,-189.3064 742.8105,-182.3587"/>
</g>
    <!-- Node13 -->
<g id="node6" class="node">
<title>Node13</title>
<g id="a_node6"><a xlink:href="../../d0/d1e/_add_prescription_dialog_8hpp.html" target="_top" xlink:title="code/gui/AddPrescription\lDialog.hpp">
<polygon fill="none" stroke="#000000" points="683.9961,-65.5 683.9961,-93.5 811.1729,-93.5 811.1729,-65.5 683.9961,-65.5"/>
<text text-anchor="start" x="691.9961" y="-81.5" font-family="Helvetica,sans-Serif" font-size="10.00" fill="#000000">code/gui/AddPrescription</text>
<text text-anchor="middle" x="747.5845" y="-71.5" font-family="Helvetica,sans-Serif" font-size="10.00" fill="#000000">Dialog.hpp</text>
</a>
</g>
</g>
    <!-- Node12&#45;&gt;Node13 -->
<g id="edge5" class="edge">
<title>Node12&#45;&gt;Node13</title>
<path fill="none" stroke="#191970" d="M595.2424,-127.3562C626.4314,-117.5586 670.3361,-103.7665 703.005,-93.504"/>
<polygon fill="#191970" stroke="#191970" points="594.0847,-124.0511 585.5933,-130.3873 596.1826,-130.7294 594.0847,-124.0511"/>
</g>
    <!-- Node16 -->
<g id="node9" class="node">
<title>Node16</title>
<g id="a_node9"><a xlink:href="../../dd/d02/_drug_window_8hpp.html" target="_top" xlink:title="code/gui/DrugWindow.hpp">
<polygon fill="none" stroke="#000000" points="335.2129,-70.5 335.2129,-88.5 467.9561,-88.5 467.9561,-70.5 335.2129,-70.5"/>
<text text-anchor="middle" x="401.5845" y="-76.5" font-family="Helvetica,sans-Serif" font-size="10.00" fill="#000000">code/gui/DrugWindow.hpp</text>
</a>
</g>
</g>
    <!-- Node12&#45;&gt;Node16 -->
<g id="edge8" class="edge">
<title>Node12&#45;&gt;Node16</title>
<path fill="none" stroke="#191970" d="M523.526,-126.7032C493.8511,-115.2161 451.0455,-98.6462 424.8394,-88.5019"/>
<polygon fill="#191970" stroke="#191970" points="522.4542,-130.0413 533.0434,-130.3873 524.9812,-123.5133 522.4542,-130.0413"/>
</g>
    <!-- Node19 -->
<g id="node12" class="node">
<title>Node19</title>
<g id="a_node12"><a xlink:href="../../dd/de0/_patient_window_8hpp.html" target="_top" xlink:title="code/gui/PatientWindow.hpp">
<polygon fill="none" stroke="#000000" points="485.4839,-70.5 485.4839,-88.5 627.6851,-88.5 627.6851,-70.5 485.4839,-70.5"/>
<text text-anchor="middle" x="556.5845" y="-76.5" font-family="Helvetica,sans-Serif" font-size="10.00" fill="#000000">code/gui/PatientWindow.hpp</text>
</a>
</g>
</g>
    <!-- Node12&#45;&gt;Node19 -->
<g id="edge11" class="edge">
<title>Node12&#45;&gt;Node19</title>
<path fill="none" stroke="#191970" d="M556.5845,-120.3734C556.5845,-109.7812 556.5845,-97.0976 556.5845,-88.6985"/>
<polygon fill="#191970" stroke="#191970" points="553.0846,-120.3873 556.5845,-130.3873 560.0846,-120.3873 553.0846,-120.3873"/>
</g>
    <!-- Node20 -->
<g id="node13" class="node">
<title>Node20</title>
<g id="a_node13"><a xlink:href="../../d1/dea/_custom_widgets_8cpp.html" target="_top" xlink:title="code/gui/view/CustomWidgets.cpp">
<polygon fill="none" stroke="#000000" points="829.1612,-70.5 829.1612,-88.5 998.0079,-88.5 998.0079,-70.5 829.1612,-70.5"/>
<text text-anchor="middle" x="913.5845" y="-76.5" font-family="Helvetica,sans-Serif" font-size="10.00" fill="#000000">code/gui/view/CustomWidgets.cpp</text>
</a>
</g>
</g>
    <!-- Node12&#45;&gt;Node20 -->
<g id="edge14" class="edge">
<title>Node12&#45;&gt;Node20</title>
<path fill="none" stroke="#191970" d="M620.6178,-128.7381C688.9076,-117.2608 795.8578,-99.286 859.8981,-88.5229"/>
<polygon fill="#191970" stroke="#191970" points="619.6991,-125.3433 610.4176,-130.4524 620.8594,-132.2465 619.6991,-125.3433"/>
</g>
    <!-- Node13&#45;&gt;Node14 -->
<g id="edge6" class="edge">
<title>Node13&#45;&gt;Node14</title>
<path fill="none" stroke="#191970" d="M793.9126,-61.6815C821.0169,-51.2568 854.7552,-38.2805 879.9856,-28.5765"/>
<polygon fill="#191970" stroke="#191970" points="792.332,-58.5394 784.255,-65.396 794.8449,-65.0728 792.332,-58.5394"/>
</g>
    <!-- Node15 -->
<g id="node8" class="node">
<title>Node15</title>
<g id="a_node8"><a xlink:href="../../d8/d35/_patient_window_8cpp.html" target="_top" xlink:title="code/gui/PatientWindow.cpp">
<polygon fill="none" stroke="#000000" points="584.7647,-5.5 584.7647,-23.5 726.4043,-23.5 726.4043,-5.5 584.7647,-5.5"/>
<text text-anchor="middle" x="655.5845" y="-11.5" font-family="Helvetica,sans-Serif" font-size="10.00" fill="#000000">code/gui/PatientWindow.cpp</text>
</a>
</g>
</g>
    <!-- Node13&#45;&gt;Node15 -->
<g id="edge7" class="edge">
<title>Node13&#45;&gt;Node15</title>
<path fill="none" stroke="#191970" d="M719.1583,-59.4163C702.205,-47.4383 681.5034,-32.8122 668.4282,-23.5743"/>
<polygon fill="#191970" stroke="#191970" points="717.435,-62.4841 727.6219,-65.396 721.4743,-56.7671 717.435,-62.4841"/>
</g>
    <!-- Node17 -->
<g id="node10" class="node">
<title>Node17</title>
<g id="a_node10"><a xlink:href="../../d6/d9e/_drug_window_8cpp.html" target="_top" xlink:title="code/gui/DrugWindow.cpp">
<polygon fill="none" stroke="#000000" points="103.4937,-5.5 103.4937,-23.5 235.6753,-23.5 235.6753,-5.5 103.4937,-5.5"/>
<text text-anchor="middle" x="169.5845" y="-11.5" font-family="Helvetica,sans-Serif" font-size="10.00" fill="#000000">code/gui/DrugWindow.cpp</text>
</a>
</g>
</g>
    <!-- Node16&#45;&gt;Node17 -->
<g id="edge9" class="edge">
<title>Node16&#45;&gt;Node17</title>
<path fill="none" stroke="#191970" d="M359.5115,-67.7123C314.1978,-55.0166 243.0825,-35.0921 201.9423,-23.5658"/>
<polygon fill="#191970" stroke="#191970" points="358.7524,-71.1343 369.3259,-70.462 360.641,-64.3939 358.7524,-71.1343"/>
</g>
    <!-- Node18 -->
<g id="node11" class="node">
<title>Node18</title>
<g id="a_node11"><a xlink:href="../../d5/da5/_main_window_8cpp.html" target="_top" xlink:title="code/gui/MainWindow.cpp">
<polygon fill="none" stroke="#000000" points="384.4937,-5.5 384.4937,-23.5 516.6753,-23.5 516.6753,-5.5 384.4937,-5.5"/>
<text text-anchor="middle" x="450.5845" y="-11.5" font-family="Helvetica,sans-Serif" font-size="10.00" fill="#000000">code/gui/MainWindow.cpp</text>
</a>
</g>
</g>
    <!-- Node16&#45;&gt;Node18 -->
<g id="edge10" class="edge">
<title>Node16&#45;&gt;Node18</title>
<path fill="none" stroke="#191970" d="M414.5403,-62.3137C423.8172,-50.0077 435.9566,-33.9043 443.5118,-23.8821"/>
<polygon fill="#191970" stroke="#191970" points="411.6226,-60.3699 408.3978,-70.462 417.2123,-64.5837 411.6226,-60.3699"/>
</g>
    <!-- Node19&#45;&gt;Node15 -->
<g id="edge13" class="edge">
<title>Node19&#45;&gt;Node15</title>
<path fill="none" stroke="#191970" d="M578.8156,-64.9038C598.0572,-52.2705 625.2896,-34.3906 641.6168,-23.6708"/>
<polygon fill="#191970" stroke="#191970" points="576.7884,-62.0478 570.35,-70.462 580.6303,-67.8993 576.7884,-62.0478"/>
</g>
    <!-- Node19&#45;&gt;Node18 -->
<g id="edge12" class="edge">
<title>Node19&#45;&gt;Node18</title>
<path fill="none" stroke="#191970" d="M533.0607,-65.075C512.4436,-52.4324 483.1007,-34.4391 465.5399,-23.6708"/>
<polygon fill="#191970" stroke="#191970" points="531.4912,-68.2182 541.8457,-70.462 535.1505,-62.2508 531.4912,-68.2182"/>
</g>
    <!-- Node21&#45;&gt;Node15 -->
<g id="edge18" class="edge">
<title>Node21&#45;&gt;Node15</title>
<path fill="none" stroke="#191970" d="M366.1624,-134.3817C459.775,-126.8655 616.8899,-111.7895 636.5845,-94 656.6983,-75.8318 657.375,-40.5198 656.422,-23.7592"/>
<polygon fill="#191970" stroke="#191970" points="365.8838,-130.8927 356.1921,-135.173 366.4377,-137.8708 365.8838,-130.8927"/>
</g>
    <!-- Node21&#45;&gt;Node17 -->
<g id="edge17" class="edge">
<title>Node21&#45;&gt;Node17</title>
<path fill="none" stroke="#191970" d="M226.9802,-133.2155C146.3316,-125.2163 22.6368,-110.4467 8.5845,-94 -23.9675,-55.9015 47.8429,-34.3029 105.7862,-23.5046"/>
<polygon fill="#191970" stroke="#191970" points="226.7866,-136.7132 237.0801,-134.2043 227.4687,-129.7465 226.7866,-136.7132"/>
</g>
    <!-- Node21&#45;&gt;Node22 -->
<g id="edge19" class="edge">
<title>Node21&#45;&gt;Node22</title>
<path fill="none" stroke="#191970" d="M280.137,-123.3221C268.8528,-112.2229 254.2844,-97.8933 244.9363,-88.6985"/>
<polygon fill="#191970" stroke="#191970" points="277.7363,-125.8701 287.3199,-130.3873 282.645,-120.8796 277.7363,-125.8701"/>
</g>
    <!-- Node23 -->
<g id="node16" class="node">
<title>Node23</title>
<g id="a_node16"><a xlink:href="../../d3/da6/_doctor_8cpp.html" target="_top" xlink:title="code/model/Doctor.cpp">
<polygon fill="none" stroke="#000000" points="17.4419,-70.5 17.4419,-88.5 135.7271,-88.5 135.7271,-70.5 17.4419,-70.5"/>
<text text-anchor="middle" x="76.5845" y="-76.5" font-family="Helvetica,sans-Serif" font-size="10.00" fill="#000000">code/model/Doctor.cpp</text>
</a>
</g>
</g>
    <!-- Node21&#45;&gt;Node23 -->
<g id="edge20" class="edge">
<title>Node21&#45;&gt;Node23</title>
<path fill="none" stroke="#191970" d="M253.4555,-127.7375C211.2635,-116.2306 147.9192,-98.9549 109.5914,-88.5019"/>
<polygon fill="#191970" stroke="#191970" points="252.6027,-131.1327 263.1713,-130.3873 254.4446,-124.3794 252.6027,-131.1327"/>
</g>
</g>
</svg>
        <g id="navigator" transform="translate(0 0)" fill="#404254">
                <rect fill="#f2f5e9" fill-opacity="0.5" stroke="#606060" stroke-width=".5" x="0" y="0" width="60" height="60"/>
                <use id="zoomplus" xlink:href="#zoomPlus" x="17" y="9" onmousedown="handleZoom(evt,'in')"/>
                <use id="zoomminus" xlink:href="#zoomMin" x="42" y="9" onmousedown="handleZoom(evt,'out')"/>
                <use id="reset" xlink:href="#resetDef" x="30" y="36" onmousedown="handleReset()"/>
                <g id="arrowUp" xlink:href="#dirArrow" transform="translate(30 24)" onmousedown="handlePan(0,-1)">
                  <use xlink:href="#rim" fill="#404040">
                        <set attributeName="fill" to="#808080" begin="arrowUp.mouseover" end="arrowUp.mouseout"/>
                  </use>
                  <path fill="none" stroke="white" stroke-width="1.5" d="M0,-3.0v7 M-2.5,-0.5L0,-3.0L2.5,-0.5"/>
                </g>
                <g id="arrowRight" xlink:href="#dirArrow" transform="rotate(90) translate(36 -43)" onmousedown="handlePan(1,0)">
                  <use xlink:href="#rim" fill="#404040">
                        <set attributeName="fill" to="#808080" begin="arrowRight.mouseover" end="arrowRight.mouseout"/>
                  </use>
                  <path fill="none" stroke="white" stroke-width="1.5" d="M0,-3.0v7 M-2.5,-0.5L0,-3.0L2.5,-0.5"/>
                </g>
                <g id="arrowDown" xlink:href="#dirArrow" transform="rotate(180) translate(-30 -48)" onmousedown="handlePan(0,1)">
                  <use xlink:href="#rim" fill="#404040">
                        <set attributeName="fill" to="#808080" begin="arrowDown.mouseover" end="arrowDown.mouseout"/>
                  </use>
                  <path fill="none" stroke="white" stroke-width="1.5" d="M0,-3.0v7 M-2.5,-0.5L0,-3.0L2.5,-0.5"/>
                </g>
                <g id="arrowLeft" xlink:href="#dirArrow" transform="rotate(270) translate(-36 17)" onmousedown="handlePan(-1,0)">
                  <use xlink:href="#rim" fill="#404040">
                        <set attributeName="fill" to="#808080" begin="arrowLeft.mouseover" end="arrowLeft.mouseout"/>
                  </use>
                  <path fill="none" stroke="white" stroke-width="1.5" d="M0,-3.0v7 M-2.5,-0.5L0,-3.0L2.5,-0.5"/>
                </g>
        </g>
        <svg viewBox="0 0 15 15" width="100%" height="30px" preserveAspectRatio="xMaxYMin meet">
         <g id="arrow_out" transform="scale(0.3 0.3)">
          <a xlink:href="_drug_8hpp__dep__incl_org.svg" target="_base">
           <rect id="button" ry="5" rx="5" y="6" x="6" height="38" width="38"
                fill="#f2f5e9" fill-opacity="0.5" stroke="#606060" stroke-width="1.0"/>
           <path id="arrow"
             d="M 11.500037,31.436501 C 11.940474,20.09759 22.043105,11.32322 32.158766,21.979434 L 37.068811,17.246167 C 37.068811,17.246167 37.088388,32 37.088388,32 L 22.160133,31.978069 C 22.160133,31.978069 26.997745,27.140456 26.997745,27.140456 C 18.528582,18.264221 13.291696,25.230495 11.500037,31.436501 z"
             style="fill:#404040;"/>
          </a>
         </g>
        </svg>
</svg>
