<?xml version="1.0" encoding="UTF-8" standalone="no"?>
<!DOCTYPE svg PUBLIC "-//W3C//DTD SVG 1.1//EN"
        "http://www.w3.org/Graphics/SVG/1.1/DTD/svg11.dtd">
<!-- Generated by graphviz version 2.40.1 (20161225.0304)
 -->
<!-- Title: code/model/Drug.hpp Pages: 1 -->
<svg width="785pt" height="257pt"
     viewBox="0.00 0.00 784.52 257.00" xmlns="http://www.w3.org/2000/svg" xmlns:xlink="http://www.w3.org/1999/xlink">
    <g id="graph0" class="graph" transform="scale(1 1) rotate(0) translate(4 253)">
        <title>code/model/Drug.hpp</title>
        <!-- Node6 -->
        <g id="node1" class="node">
            <title>Node6</title>
            <polygon fill="#bfbfbf" stroke="#000000"
                     points="203.6157,-230.5 203.6157,-248.5 315.231,-248.5 315.231,-230.5 203.6157,-230.5"/>
            <text text-anchor="middle" x="259.4233" y="-236.5" font-family="Helvetica,sans-Serif" font-size="10.00"
                  fill="#000000">code/model/Drug.hpp
            </text>
        </g>
        <!-- Node7 -->
        <g id="node2" class="node">
            <title>Node7</title>
            <g id="a_node2">
                <a xlink:href="../../de/d01/_prescription_8hpp.html" target="_top"
                   xlink:title="code/model/Prescription.hpp">
                    <polygon fill="none" stroke="#000000"
                             points="112.0542,-170.5 112.0542,-188.5 254.7925,-188.5 254.7925,-170.5 112.0542,-170.5"/>
                    <text text-anchor="middle" x="183.4233" y="-176.5" font-family="Helvetica,sans-Serif"
                          font-size="10.00" fill="#000000">code/model/Prescription.hpp
                    </text>
                </a>
            </g>
        </g>
        <!-- Node6&#45;&gt;Node7 -->
        <g id="edge1" class="edge">
            <title>Node6&#45;&gt;Node7</title>
            <path fill="none" stroke="#191970"
                  d="M239.7378,-223.9588C225.5729,-212.7759 206.9455,-198.0702 195.0747,-188.6985"/>
            <polygon fill="#191970" stroke="#191970"
                     points="237.863,-226.9379 247.8806,-230.3873 242.2005,-221.4437 237.863,-226.9379"/>
        </g>
        <!-- Node10 -->
        <g id="node5" class="node">
            <title>Node10</title>
            <g id="a_node5">
                <a xlink:href="../../dd/dc5/_doctor_8hpp.html" target="_top" xlink:title="code/model/Doctor.hpp">
                    <polygon fill="none" stroke="#000000"
                             points="0,-55.5 0,-73.5 118.8467,-73.5 118.8467,-55.5 0,-55.5"/>
                    <text text-anchor="middle" x="59.4233" y="-61.5" font-family="Helvetica,sans-Serif"
                          font-size="10.00" fill="#000000">code/model/Doctor.hpp
                    </text>
                </a>
            </g>
        </g>
        <!-- Node6&#45;&gt;Node10 -->
        <g id="edge16" class="edge">
            <title>Node6&#45;&gt;Node10</title>
            <path fill="none" stroke="#191970"
                  d="M193.1956,-233.0333C130.5617,-222.8329 40.8917,-196.5701 4.4233,-129 -7.5987,-106.7251 21.3618,-85.2658 41.6614,-73.5813"/>
            <polygon fill="#191970" stroke="#191970"
                     points="192.9768,-236.5405 203.3909,-234.5919 194.0347,-229.6209 192.9768,-236.5405"/>
        </g>
        <!-- Node19 -->
        <g id="node14" class="node">
            <title>Node19</title>
            <g id="a_node14">
                <a xlink:href="../../df/de8/_add_prescription_dialog_8cpp.html" target="_top"
                   xlink:title="code/gui/AddPrescription\lDialog.cpp">
                    <polygon fill="none" stroke="#000000"
                             points="272.835,-165.5 272.835,-193.5 400.0117,-193.5 400.0117,-165.5 272.835,-165.5"/>
                    <text text-anchor="start" x="280.835" y="-181.5" font-family="Helvetica,sans-Serif"
                          font-size="10.00" fill="#000000">code/gui/AddPrescription
                    </text>
                    <text text-anchor="middle" x="336.4233" y="-171.5" font-family="Helvetica,sans-Serif"
                          font-size="10.00" fill="#000000">Dialog.cpp
                    </text>
                </a>
            </g>
        </g>
        <!-- Node6&#45;&gt;Node19 -->
        <g id="edge15" class="edge">
            <title>Node6&#45;&gt;Node19</title>
            <path fill="none" stroke="#191970"
                  d="M279.2287,-224.0673C291.2844,-214.6732 306.5696,-202.7627 318.3049,-193.6183"/>
            <polygon fill="#191970" stroke="#191970"
                     points="276.8547,-221.4799 271.118,-230.3873 281.1573,-227.0016 276.8547,-221.4799"/>
        </g>
        <!-- Node20 -->
        <g id="node15" class="node">
            <title>Node20</title>
            <g id="a_node15">
                <a xlink:href="../../d1/d9e/_drug_8cpp.html" target="_top" xlink:title="code/model/Drug.cpp">
                    <polygon fill="none" stroke="#000000"
                             points="417.8965,-170.5 417.8965,-188.5 528.9502,-188.5 528.9502,-170.5 417.8965,-170.5"/>
                    <text text-anchor="middle" x="473.4233" y="-176.5" font-family="Helvetica,sans-Serif"
                          font-size="10.00" fill="#000000">code/model/Drug.cpp
                    </text>
                </a>
            </g>
        </g>
        <!-- Node6&#45;&gt;Node20 -->
        <g id="edge17" class="edge">
            <title>Node6&#45;&gt;Node20</title>
            <path fill="none" stroke="#191970"
                  d="M301.6362,-227.6646C342.6773,-216.1578 404.1128,-198.9329 441.3167,-188.5019"/>
            <polygon fill="#191970" stroke="#191970"
                     points="300.6091,-224.3175 291.9253,-230.3873 302.4989,-231.0576 300.6091,-224.3175"/>
        </g>
        <!-- Node8 -->
        <g id="node3" class="node">
            <title>Node8</title>
            <g id="a_node3">
                <a xlink:href="../../d0/da9/_patient_8hpp.html" target="_top" xlink:title="code/model/Patient.hpp">
                    <polygon fill="none" stroke="#000000"
                             points="211.8867,-110.5 211.8867,-128.5 332.96,-128.5 332.96,-110.5 211.8867,-110.5"/>
                    <text text-anchor="middle" x="272.4233" y="-116.5" font-family="Helvetica,sans-Serif"
                          font-size="10.00" fill="#000000">code/model/Patient.hpp
                    </text>
                </a>
            </g>
        </g>
        <!-- Node7&#45;&gt;Node8 -->
        <g id="edge2" class="edge">
            <title>Node7&#45;&gt;Node8</title>
            <path fill="none" stroke="#191970"
                  d="M205.5968,-164.5516C222.4014,-153.2227 244.9391,-138.0287 259.0706,-128.5019"/>
            <polygon fill="#191970" stroke="#191970"
                     points="203.2758,-161.8952 196.9405,-170.3873 207.1888,-167.6994 203.2758,-161.8952"/>
        </g>
        <!-- Node7&#45;&gt;Node10 -->
        <g id="edge13" class="edge">
            <title>Node7&#45;&gt;Node10</title>
            <path fill="none" stroke="#191970"
                  d="M182.5624,-159.8692C180.9238,-144.6397 176.4393,-123.8566 164.4233,-110 148.3488,-91.4631 123.3469,-80.2221 101.7723,-73.5518"/>
            <polygon fill="#191970" stroke="#191970"
                     points="179.1009,-160.5156 183.3382,-170.2261 186.0813,-159.9926 179.1009,-160.5156"/>
        </g>
        <!-- Node14 -->
        <g id="node9" class="node">
            <title>Node14</title>
            <g id="a_node9">
                <a xlink:href="../../d5/d46/_custom_widgets_8hpp.html" target="_top"
                   xlink:title="code/gui/view/CustomWidgets.hpp">
                    <polygon fill="none" stroke="#000000"
                             points="446.7192,-110.5 446.7192,-128.5 616.1274,-128.5 616.1274,-110.5 446.7192,-110.5"/>
                    <text text-anchor="middle" x="531.4233" y="-116.5" font-family="Helvetica,sans-Serif"
                          font-size="10.00" fill="#000000">code/gui/view/CustomWidgets.hpp
                    </text>
                </a>
            </g>
        </g>
        <!-- Node7&#45;&gt;Node14 -->
        <g id="edge8" class="edge">
            <title>Node7&#45;&gt;Node14</title>
            <path fill="none" stroke="#191970"
                  d="M242.9531,-168.6346C249.8531,-167.3976 256.7913,-166.164 263.4233,-165 337.4477,-152.0082 423.0837,-137.5728 477.2395,-128.5173"/>
            <polygon fill="#191970" stroke="#191970"
                     points="242.1333,-165.2258 232.9112,-170.4415 243.373,-172.1152 242.1333,-165.2258"/>
        </g>
        <!-- Node18 -->
        <g id="node13" class="node">
            <title>Node18</title>
            <g id="a_node13">
                <a xlink:href="../../d5/db1/_prescription_8cpp.html" target="_top"
                   xlink:title="code/model/Prescription.cpp">
                    <polygon fill="none" stroke="#000000"
                             points="13.335,-110.5 13.335,-128.5 155.5117,-128.5 155.5117,-110.5 13.335,-110.5"/>
                    <text text-anchor="middle" x="84.4233" y="-116.5" font-family="Helvetica,sans-Serif"
                          font-size="10.00" fill="#000000">code/model/Prescription.cpp
                    </text>
                </a>
            </g>
        </g>
        <!-- Node7&#45;&gt;Node18 -->
        <g id="edge14" class="edge">
            <title>Node7&#45;&gt;Node18</title>
            <path fill="none" stroke="#191970"
                  d="M159.7903,-165.177C140.9975,-153.7874 115.2868,-138.2051 99.2764,-128.5019"/>
            <polygon fill="#191970" stroke="#191970"
                     points="158.0213,-168.1974 168.3874,-170.3873 161.6495,-162.211 158.0213,-168.1974"/>
        </g>
        <!-- Node9 -->
        <g id="node4" class="node">
            <title>Node9</title>
            <g id="a_node4">
                <a xlink:href="../../db/db5/_add_patient_dialog_8cpp.html" target="_top"
                   xlink:title="code/gui/AddPatientDialog.cpp">
                    <polygon fill="none" stroke="#000000"
                             points="276.042,-55.5 276.042,-73.5 428.8047,-73.5 428.8047,-55.5 276.042,-55.5"/>
                    <text text-anchor="middle" x="352.4233" y="-61.5" font-family="Helvetica,sans-Serif"
                          font-size="10.00" fill="#000000">code/gui/AddPatientDialog.cpp
                    </text>
                </a>
            </g>
        </g>
        <!-- Node8&#45;&gt;Node9 -->
        <g id="edge3" class="edge">
            <title>Node8&#45;&gt;Node9</title>
            <path fill="none" stroke="#191970"
                  d="M293.9895,-104.6733C308.4061,-94.7619 326.9116,-82.0393 339.1933,-73.5956"/>
            <polygon fill="#191970" stroke="#191970"
                     points="291.8913,-101.8684 285.6337,-110.4179 295.857,-107.6367 291.8913,-101.8684"/>
        </g>
        <!-- Node8&#45;&gt;Node10 -->
        <g id="edge4" class="edge">
            <title>Node8&#45;&gt;Node10</title>
            <path fill="none" stroke="#191970"
                  d="M227.5511,-107.9133C187.8299,-97.6566 130.6709,-82.8973 94.2942,-73.5042"/>
            <polygon fill="#191970" stroke="#191970"
                     points="226.6932,-111.3065 237.2507,-110.4179 228.4434,-104.5288 226.6932,-111.3065"/>
        </g>
        <!-- Node13 -->
        <g id="node8" class="node">
            <title>Node13</title>
            <g id="a_node8">
                <a xlink:href="../../d0/d77/_patient_8cpp.html" target="_top" xlink:title="code/model/Patient.cpp">
                    <polygon fill="none" stroke="#000000"
                             points="137.1675,-55.5 137.1675,-73.5 257.6792,-73.5 257.6792,-55.5 137.1675,-55.5"/>
                    <text text-anchor="middle" x="197.4233" y="-61.5" font-family="Helvetica,sans-Serif"
                          font-size="10.00" fill="#000000">code/model/Patient.cpp
                    </text>
                </a>
            </g>
        </g>
        <!-- Node8&#45;&gt;Node13 -->
        <g id="edge7" class="edge">
            <title>Node8&#45;&gt;Node13</title>
            <path fill="none" stroke="#191970"
                  d="M251.8216,-104.392C238.3627,-94.5222 221.2319,-81.9596 209.8265,-73.5956"/>
            <polygon fill="#191970" stroke="#191970"
                     points="249.9048,-107.3266 260.0386,-110.4179 254.0443,-101.6818 249.9048,-107.3266"/>
        </g>
        <!-- Node11 -->
        <g id="node6" class="node">
            <title>Node11</title>
            <g id="a_node6">
                <a xlink:href="../../d8/d35/_patient_window_8cpp.html" target="_top"
                   xlink:title="code/gui/PatientWindow.cpp">
                    <polygon fill="none" stroke="#000000"
                             points="308.6035,-.5 308.6035,-18.5 450.2432,-18.5 450.2432,-.5 308.6035,-.5"/>
                    <text text-anchor="middle" x="379.4233" y="-6.5" font-family="Helvetica,sans-Serif"
                          font-size="10.00" fill="#000000">code/gui/PatientWindow.cpp
                    </text>
                </a>
            </g>
        </g>
        <!-- Node10&#45;&gt;Node11 -->
        <g id="edge5" class="edge">
            <title>Node10&#45;&gt;Node11</title>
            <path fill="none" stroke="#191970"
                  d="M121.9698,-53.7498C181.7169,-43.4808 270.7496,-28.1783 326.9115,-18.5255"/>
            <polygon fill="#191970" stroke="#191970"
                     points="121.1691,-50.336 111.9065,-55.4795 122.3549,-57.2349 121.1691,-50.336"/>
        </g>
        <!-- Node12 -->
        <g id="node7" class="node">
            <title>Node12</title>
            <g id="a_node7">
                <a xlink:href="../../d3/da6/_doctor_8cpp.html" target="_top" xlink:title="code/model/Doctor.cpp">
                    <polygon fill="none" stroke="#000000"
                             points=".2808,-.5 .2808,-18.5 118.5659,-18.5 118.5659,-.5 .2808,-.5"/>
                    <text text-anchor="middle" x="59.4233" y="-6.5" font-family="Helvetica,sans-Serif" font-size="10.00"
                          fill="#000000">code/model/Doctor.cpp
                    </text>
                </a>
            </g>
        </g>
        <!-- Node10&#45;&gt;Node12 -->
        <g id="edge6" class="edge">
            <title>Node10&#45;&gt;Node12</title>
            <path fill="none" stroke="#191970" d="M59.4233,-45.383C59.4233,-36.3738 59.4233,-26.0373 59.4233,-18.7795"/>
            <polygon fill="#191970" stroke="#191970"
                     points="55.9234,-45.4178 59.4233,-55.4179 62.9234,-45.4179 55.9234,-45.4178"/>
        </g>
        <!-- Node15 -->
        <g id="node10" class="node">
            <title>Node15</title>
            <g id="a_node10">
                <a xlink:href="../../dd/de0/_patient_window_8hpp.html" target="_top"
                   xlink:title="code/gui/PatientWindow.hpp">
                    <polygon fill="none" stroke="#000000"
                             points="634.3228,-55.5 634.3228,-73.5 776.5239,-73.5 776.5239,-55.5 634.3228,-55.5"/>
                    <text text-anchor="middle" x="705.4233" y="-61.5" font-family="Helvetica,sans-Serif"
                          font-size="10.00" fill="#000000">code/gui/PatientWindow.hpp
                    </text>
                </a>
            </g>
        </g>
        <!-- Node14&#45;&gt;Node15 -->
        <g id="edge9" class="edge">
            <title>Node14&#45;&gt;Node15</title>
            <path fill="none" stroke="#191970"
                  d="M569.7416,-107.3879C602.1058,-97.1578 647.7248,-82.7381 676.9373,-73.5042"/>
            <polygon fill="#191970" stroke="#191970"
                     points="568.636,-104.0666 560.1559,-110.4179 570.7458,-110.7411 568.636,-104.0666"/>
        </g>
        <!-- Node17 -->
        <g id="node12" class="node">
            <title>Node17</title>
            <g id="a_node12">
                <a xlink:href="../../d1/dea/_custom_widgets_8cpp.html" target="_top"
                   xlink:title="code/gui/view/CustomWidgets.cpp">
                    <polygon fill="none" stroke="#000000"
                             points="447,-55.5 447,-73.5 615.8467,-73.5 615.8467,-55.5 447,-55.5"/>
                    <text text-anchor="middle" x="531.4233" y="-61.5" font-family="Helvetica,sans-Serif"
                          font-size="10.00" fill="#000000">code/gui/view/CustomWidgets.cpp
                    </text>
                </a>
            </g>
        </g>
        <!-- Node14&#45;&gt;Node17 -->
        <g id="edge12" class="edge">
            <title>Node14&#45;&gt;Node17</title>
            <path fill="none" stroke="#191970"
                  d="M531.4233,-100.383C531.4233,-91.3738 531.4233,-81.0373 531.4233,-73.7795"/>
            <polygon fill="#191970" stroke="#191970"
                     points="527.9234,-100.4178 531.4233,-110.4179 534.9234,-100.4179 527.9234,-100.4178"/>
        </g>
        <!-- Node15&#45;&gt;Node11 -->
        <g id="edge11" class="edge">
            <title>Node15&#45;&gt;Node11</title>
            <path fill="none" stroke="#191970"
                  d="M642.0811,-53.8134C581.2117,-43.544 490.2529,-28.1982 432.9198,-18.5255"/>
            <polygon fill="#191970" stroke="#191970"
                     points="641.5132,-57.267 651.9561,-55.4795 642.6778,-50.3645 641.5132,-57.267"/>
        </g>
        <!-- Node16 -->
        <g id="node11" class="node">
            <title>Node16</title>
            <g id="a_node11">
                <a xlink:href="../../d5/da5/_main_window_8cpp.html" target="_top" xlink:title="code/gui/MainWindow.cpp">
                    <polygon fill="none" stroke="#000000"
                             points="639.3325,-.5 639.3325,-18.5 771.5142,-18.5 771.5142,-.5 639.3325,-.5"/>
                    <text text-anchor="middle" x="705.4233" y="-6.5" font-family="Helvetica,sans-Serif"
                          font-size="10.00" fill="#000000">code/gui/MainWindow.cpp
                    </text>
                </a>
            </g>
        </g>
        <!-- Node15&#45;&gt;Node16 -->
        <g id="edge10" class="edge">
            <title>Node15&#45;&gt;Node16</title>
            <path fill="none" stroke="#191970"
                  d="M705.4233,-45.383C705.4233,-36.3738 705.4233,-26.0373 705.4233,-18.7795"/>
            <polygon fill="#191970" stroke="#191970"
                     points="701.9234,-45.4178 705.4233,-55.4179 708.9234,-45.4179 701.9234,-45.4178"/>
        </g>
    </g>
</svg>
